<svg width="214" height="56" xmlns="http://www.w3.org/2000/svg" clip-rule="evenodd">

 <g>
  <title>background</title>
  <rect fill="none" id="canvas_background" height="58" width="216" y="-1" x="-1"/>
 </g>
 <g>
  <title>Layer 1</title>
  <g stroke="null" id="svg_1">
   <path stroke="null" id="svg_2" d="m396.723,18.667l-10.311,0l0,-1.886c1.686,-2.243 3.413,-4.383 5.179,-6.42c1.384,-1.575 2.053,-2.968 2.005,-4.177c0,-1.304 -0.684,-1.957 -2.053,-1.957c-1.131,0.016 -2.443,0.446 -3.938,1.289l-0.668,-2.673c1.623,-0.987 3.23,-1.48 4.82,-1.48c3.151,0.111 4.782,1.718 4.893,4.821c0.049,1.942 -0.875,3.938 -2.769,5.991c-1.16,1.273 -2.171,2.482 -3.031,3.628l5.873,0l0,2.864zm-14.011,0l-10.31,0l0,-1.886c1.686,-2.243 3.412,-4.383 5.178,-6.42c1.385,-1.575 2.053,-2.968 2.007,-4.177c0,-1.304 -0.685,-1.957 -2.054,-1.957c-1.129,0.016 -2.442,0.446 -3.938,1.289l-0.668,-2.673c1.622,-0.987 3.23,-1.48 4.821,-1.48c3.15,0.111 4.781,1.718 4.893,4.821c0.047,1.942 -0.876,3.938 -2.77,5.991c-1.16,1.273 -2.171,2.482 -3.03,3.628l5.871,0l0,2.864zm-18.903,-17.304c3.725,0.16 5.633,3.095 5.729,8.807c-0.096,5.649 -2.004,8.561 -5.729,8.736c-3.706,-0.159 -5.616,-3.071 -5.728,-8.736c0.112,-5.712 2.022,-8.647 5.728,-8.807zm0,2.864c-1.781,0 -2.677,1.981 -2.684,5.943c-0.008,3.962 0.887,5.919 2.684,5.871c1.799,0.016 2.69,-1.941 2.674,-5.871c0,-3.977 -0.892,-5.958 -2.674,-5.943zm-9.116,14.44l-10.311,0l0,-1.886c1.686,-2.243 3.413,-4.383 5.179,-6.42c1.384,-1.575 2.054,-2.968 2.005,-4.177c0,-1.304 -0.684,-1.957 -2.052,-1.957c-1.131,0.016 -2.444,0.446 -3.938,1.289l-0.669,-2.673c1.623,-0.987 3.231,-1.48 4.821,-1.48c3.151,0.111 4.781,1.718 4.892,4.821c0.049,1.942 -0.875,3.938 -2.768,5.991c-1.161,1.273 -2.172,2.482 -3.031,3.628l5.872,0l0,2.864zm-33.057,1.885c-0.715,-0.843 -1.479,-1.479 -2.291,-1.909c2.259,-1.321 4.176,-2.911 5.752,-4.774l2.221,1.624c-1.624,2.005 -3.517,3.691 -5.682,5.059zm-1.813,-15.847l0,-2.555l9.07,0c-0.224,-0.349 -0.581,-0.882 -1.075,-1.598c-0.206,-0.303 -0.366,-0.534 -0.477,-0.692l3.294,-0.621c0.7,0.939 1.312,1.91 1.837,2.911l8.235,0l0,2.555l-20.884,0zm2.935,8.83l0,-7.374l15.061,0l0,7.374l-5.585,0l0,4.321c-0.032,2.067 -1.106,3.117 -3.222,3.15c-0.875,0 -1.703,-0.048 -2.483,-0.143c-0.016,-1.003 -0.198,-1.919 -0.549,-2.745c0.988,0.159 1.742,0.239 2.267,0.239c0.717,0.016 1.067,-0.366 1.05,-1.146l0,-3.676l-6.539,0zm2.936,-2.411l9.165,0l0,-2.552l-9.165,0l0,2.552zm13.795,9.334c-2.037,-1.879 -4.041,-3.47 -6.014,-4.774l2.077,-1.838c1.797,1.145 3.595,2.522 5.393,4.129l-1.456,2.483zm-43.796,-1.671l-1.551,-2.459l6.492,-2.649l0,-5.777l-5.586,0l0,-2.648l5.586,0l0,-5.8l2.983,0l0,21.624l-2.983,0l0,-4.607l-4.941,2.316zm14.75,1.766c-2.641,0.063 -3.93,-1.211 -3.866,-3.819l0,-17.28l2.959,0l0,6.993c1.813,-1.035 3.397,-2.116 4.749,-3.246l2.005,1.79c-2.18,1.687 -4.431,3.111 -6.754,4.272l0,7.017c-0.016,0.971 0.454,1.448 1.408,1.432l1.122,0c0.827,0.048 1.352,-0.374 1.575,-1.265c0.223,-0.826 0.398,-1.59 0.525,-2.292c0.716,0.733 1.48,1.242 2.292,1.529c-0.096,0.557 -0.272,1.288 -0.525,2.195c-0.525,1.767 -1.68,2.658 -3.462,2.674l-2.028,0z"/>
   <path stroke="null" id="svg_3" d="m47.854,8.096c0.003,-0.55 -0.152,-1.086 -0.525,-1.542c-0.836,-1.007 -2.329,-1.141 -3.335,-0.3l-17.18,13.968l3.757,3.053l12.568,-10.216l0,25.111l-5.442,-4.428c-0.087,-0.044 -0.184,-0.068 -0.265,-0.144l-13.533,-11.019l-3.726,3.036l0.007,0l-4.079,3.318l-5.579,4.542c-0.013,0.015 -0.026,0.015 -0.037,0.029l-5.743,4.666l0,-25.105l12.526,10.189l3.729,-3.048l-16.883,-13.748c-0.008,-0.008 -0.016,-0.024 -0.021,-0.032l-0.223,-0.172c-1.002,-0.841 -2.493,-0.707 -3.333,0.3c-0.372,0.443 -0.524,0.985 -0.524,1.526l-0.013,0l0,35.085l0.032,-0.019c-0.003,0.54 0.149,1.081 0.518,1.529c0.84,1.007 2.342,1.143 3.349,0.295l20.038,-16.297l20.042,16.297c1.013,0.84 2.51,0.705 3.35,-0.295c0.371,-0.448 0.518,-0.989 0.518,-1.529l0.031,0.009l0,-35.075l-0.024,0.016zm49.317,8.746c0,-6.153 -4.985,-11.14 -11.139,-11.14l0,0.008l-28.201,0c-1.305,0 -2.365,1.057 -2.365,2.37c0,1.3 1.06,2.371 2.365,2.371l28.201,0c0.002,0 0.002,-0.012 0.002,-0.012c3.535,0.012 6.395,2.875 6.395,6.403c0,3.534 -2.867,6.395 -6.397,6.395l0,0.01l-23.639,0c-0.019,0 -0.035,-0.01 -0.053,-0.01c-3.797,0 -6.869,3.085 -6.869,6.876l-0.005,0l0,13.042c0,1.311 1.06,2.368 2.365,2.368c1.311,0 2.374,-1.057 2.374,-2.368l0,-6.543l0.008,0.003l0,-6.502c0,-1.175 0.95,-2.127 2.127,-2.127l23.692,0c0.007,0 0.01,-0.008 0.01,-0.008c6.146,-0.005 11.129,-4.99 11.129,-11.136zm45.981,17.542c0,-6.155 -4.985,-11.148 -11.14,-11.148l0,0.011l-20.373,0l0,-0.011c-3.536,0 -6.398,-2.859 -6.398,-6.395c0,-3.527 2.862,-6.403 6.398,-6.403l27.731,0c1.306,0 2.369,-1.057 2.369,-2.368c0,-1.311 -1.063,-2.368 -2.369,-2.368l-27.731,0c-6.147,0 -11.137,4.987 -11.137,11.139c0,6.147 4.99,11.136 11.137,11.136l20.373,0l0,0.009c3.535,0 6.398,2.862 6.398,6.398c0,3.537 -2.863,6.402 -6.398,6.402l-27.723,0c-1.311,0 -2.374,1.057 -2.374,2.369c0,1.31 1.063,2.368 2.374,2.368l27.737,0c6.143,-0.009 11.126,-4.996 11.126,-11.139zm67.476,14.122c0,1.905 -1.544,3.449 -3.45,3.449c-1.904,0 -3.451,-1.544 -3.451,-3.449c0,-1.905 1.547,-3.448 3.451,-3.448c1.906,0 3.45,1.543 3.45,3.448zm-33.513,-49.506c-14.548,0 -26.342,11.793 -26.342,26.342c0,14.546 11.794,26.34 26.342,26.34c14.547,0 26.339,-11.794 26.339,-26.34c0,-14.549 -11.792,-26.342 -26.339,-26.342zm18.149,17.822c0,0.062 -0.01,0.125 -0.018,0.191c-0.007,0.05 -0.013,0.099 -0.027,0.149c-0.013,0.058 -0.03,0.115 -0.052,0.17c-0.018,0.053 -0.033,0.107 -0.06,0.157c-0.005,0.021 -0.013,0.036 -0.02,0.057l-10.82,21.546c-0.149,0.38 -0.43,0.707 -0.822,0.903c-0.066,0.034 -0.137,0.055 -0.204,0.082c-0.021,0.007 -0.042,0.015 -0.058,0.02c-0.076,0.024 -0.149,0.038 -0.225,0.053c-0.042,0.008 -0.081,0.015 -0.123,0.018c-0.056,0.005 -0.107,0.005 -0.162,0.005c-0.066,0.003 -0.131,0 -0.196,-0.005c-0.032,-0.003 -0.06,-0.007 -0.089,-0.016c-0.087,-0.01 -0.173,-0.031 -0.259,-0.057c-0.006,-0.003 -0.008,-0.006 -0.016,-0.008c-0.081,-0.024 -0.16,-0.05 -0.235,-0.089c-0.395,-0.199 -0.678,-0.532 -0.827,-0.915l-3.444,-6.86l1.928,-3.864l2.807,5.59c0,0 0.32,0.635 0.637,0c0.319,-0.637 7.442,-14.816 7.442,-14.816c0,0 0.314,-0.637 -0.393,-0.637l-5.803,0c-0.691,0 -1.029,0.637 -1.029,0.637l-2.854,5.686l-0.009,-0.009l-3.213,6.449l-0.007,-0.016l-3.941,7.849c-0.149,0.38 -0.429,0.707 -0.822,0.903c-0.065,0.034 -0.133,0.055 -0.202,0.079c-0.02,0.008 -0.042,0.018 -0.062,0.023c-0.073,0.024 -0.146,0.038 -0.217,0.05c-0.045,0.008 -0.087,0.018 -0.129,0.021c-0.054,0.005 -0.107,0.005 -0.161,0.005c-0.066,0.003 -0.129,0 -0.194,-0.005c-0.032,-0.003 -0.063,-0.007 -0.092,-0.016c-0.086,-0.013 -0.17,-0.031 -0.256,-0.057c-0.009,-0.003 -0.016,-0.006 -0.024,-0.008c-0.076,-0.026 -0.154,-0.05 -0.23,-0.089c-0.393,-0.199 -0.673,-0.529 -0.822,-0.906l-10.822,-21.548l0.002,0c-0.008,-0.019 -0.013,-0.034 -0.018,-0.05c-0.027,-0.055 -0.047,-0.112 -0.066,-0.169c-0.018,-0.053 -0.039,-0.105 -0.049,-0.16c-0.014,-0.053 -0.019,-0.102 -0.027,-0.155c-0.007,-0.063 -0.018,-0.128 -0.018,-0.191c0,-0.018 -0.005,-0.031 -0.005,-0.052c0,-0.034 0.008,-0.065 0.01,-0.1c0.003,-0.06 0.008,-0.122 0.016,-0.182c0.01,-0.056 0.024,-0.11 0.037,-0.163c0.016,-0.054 0.034,-0.105 0.049,-0.157c0.021,-0.055 0.045,-0.107 0.071,-0.16c0.024,-0.047 0.047,-0.094 0.076,-0.139c0.031,-0.049 0.063,-0.093 0.097,-0.14c0.033,-0.042 0.068,-0.084 0.105,-0.126c0.039,-0.039 0.08,-0.084 0.128,-0.123c0.036,-0.031 0.075,-0.066 0.115,-0.097c0.055,-0.039 0.115,-0.076 0.173,-0.107c0.026,-0.016 0.047,-0.037 0.075,-0.047c0.014,-0.008 0.03,-0.011 0.042,-0.019c0.063,-0.029 0.131,-0.052 0.196,-0.073c0.042,-0.016 0.089,-0.031 0.134,-0.039c0.057,-0.019 0.12,-0.024 0.178,-0.031c0.057,-0.008 0.109,-0.019 0.167,-0.019c0.021,0 0.037,-0.005 0.058,-0.005l11.092,0c0.036,0 0.07,0.01 0.107,0.013c0.06,0.003 0.121,0.005 0.181,0.015c0.05,0.008 0.099,0.021 0.149,0.035c0.06,0.015 0.123,0.037 0.183,0.057c0.04,0.016 0.079,0.034 0.118,0.055c0.065,0.029 0.128,0.061 0.188,0.097c0.028,0.021 0.056,0.039 0.084,0.06c0.066,0.047 0.126,0.097 0.186,0.154c0.018,0.019 0.036,0.04 0.057,0.06c0.058,0.059 0.11,0.124 0.16,0.192c0.018,0.023 0.031,0.05 0.048,0.076c0.031,0.047 0.062,0.089 0.088,0.138l0,0.003l3.3,6.57l-1.937,3.855l-3.658,-7.287c0,0 -0.322,-0.637 -1.028,-0.637l-5.804,0c-0.696,0 -0.393,0.637 -0.393,0.637l7.44,14.818c0,0 0.319,0.636 0.638,0c0.32,-0.636 3.007,-5.984 3.007,-5.984l3.169,-6.315l2.841,-5.657c0.024,-0.047 0.058,-0.089 0.084,-0.131c0.021,-0.031 0.037,-0.065 0.058,-0.091c0.044,-0.063 0.091,-0.121 0.147,-0.176c0.023,-0.026 0.046,-0.052 0.075,-0.078c0.053,-0.05 0.104,-0.094 0.163,-0.136c0.033,-0.026 0.069,-0.05 0.107,-0.074c0.052,-0.033 0.107,-0.062 0.165,-0.091c0.044,-0.021 0.091,-0.042 0.141,-0.063c0.052,-0.015 0.105,-0.034 0.162,-0.049c0.055,-0.017 0.106,-0.03 0.164,-0.038c0.056,-0.01 0.111,-0.012 0.168,-0.015c0.04,-0.003 0.074,-0.013 0.115,-0.013l11.092,0c0.021,0 0.04,0.005 0.061,0.005c0.052,0.002 0.104,0.011 0.154,0.016c0.068,0.01 0.131,0.015 0.194,0.034c0.039,0.008 0.078,0.023 0.12,0.036c0.071,0.021 0.141,0.047 0.206,0.082c0.014,0.005 0.027,0.005 0.038,0.013c0.023,0.01 0.042,0.029 0.065,0.041c0.065,0.035 0.131,0.074 0.191,0.119c0.034,0.025 0.068,0.054 0.099,0.083c0.051,0.045 0.102,0.092 0.144,0.139c0.032,0.034 0.063,0.073 0.089,0.107c0.039,0.052 0.077,0.102 0.11,0.159c0.026,0.04 0.046,0.082 0.065,0.123c0.032,0.056 0.058,0.116 0.082,0.176c0.015,0.047 0.029,0.095 0.044,0.139c0.014,0.057 0.029,0.117 0.039,0.175c0.011,0.06 0.011,0.12 0.016,0.177c0.003,0.035 0.01,0.069 0.01,0.103c0,0.021 -0.005,0.037 -0.005,0.055zm56.735,37.792l0,-55.228c0,-0.214 0.173,-0.386 0.385,-0.386c0.213,0 0.387,0.172 0.387,0.386l0,55.228c0,0.213 -0.174,0.386 -0.387,0.386c-0.212,0 -0.385,-0.173 -0.385,-0.386zm299.051,-10.154c-0.351,-0.381 -0.772,-0.739 -1.266,-1.074l0,8.474l-2.816,0l0,-14.941l4.391,0c-0.397,-0.621 -0.85,-1.266 -1.36,-1.934l2.555,-0.62l-7.471,0l0,-2.315l9.189,0c-0.271,-0.462 -0.597,-1.003 -0.979,-1.623l3.294,-0.502c0.445,0.669 0.85,1.377 1.217,2.125l8.688,0l0,2.315l-7.232,0l2.267,0.812c-0.429,0.667 -0.819,1.248 -1.169,1.742l4.248,0l0,11.194c0.015,2.402 -1.186,3.595 -3.604,3.579c-0.796,0 -1.488,-0.032 -2.076,-0.095c-0.081,-0.844 -0.271,-1.694 -0.573,-2.554c0.78,0.111 1.448,0.167 2.005,0.167c0.986,0.048 1.455,-0.485 1.408,-1.599l0,-4.678l-1.289,1.337c-0.238,-0.255 -0.485,-0.525 -0.74,-0.812l0,4.941l-7.923,0l0,-4.559c-0.272,0.239 -0.525,0.445 -0.764,0.62zm-1.266,-5.298l0,3.533c1.448,-1.146 2.602,-2.292 3.46,-3.437l1.839,1.145c-0.494,0.637 -1.082,1.305 -1.766,2.005l5.394,0c-0.685,-0.684 -1.432,-1.36 -2.244,-2.029l1.886,-1.121c1.241,1.018 2.378,2.068 3.413,3.15l0,-3.246l-11.982,0zm3.008,-4.797c0.605,0.843 1.162,1.694 1.67,2.554l2.65,0c0.748,-1.035 1.305,-1.887 1.67,-2.554l-5.99,0zm1.289,12.029l3.365,0l0,-2.028l-3.365,0l0,2.028zm-31.982,5.37c-0.875,-0.589 -1.863,-1.018 -2.96,-1.289c2.004,-2.864 2.975,-6.38 2.911,-10.549l0,-6.874l8.498,0c-0.415,-0.843 -0.876,-1.662 -1.386,-2.458l3.486,-0.573c0.446,0.7 0.978,1.711 1.598,3.031l6.922,0l0,2.601l-16.206,0l0,3.796l2.888,-0.55c1.082,2.212 2.061,4.591 2.936,7.137l-2.649,1.312c-0.939,-2.752 -1.997,-5.354 -3.175,-7.804l0,0.31c0.063,4.837 -0.891,8.807 -2.863,11.91zm2.434,-0.716l0,-2.601l8.855,0c1.797,-3.549 3.238,-7.232 4.319,-11.051l2.841,1.145c-1.082,3.405 -2.396,6.707 -3.938,9.906l4.868,0l0,2.601l-16.945,0zm7.995,-5.776c-0.939,-3.102 -1.878,-5.68 -2.816,-7.733l2.888,-0.525c0.844,1.878 1.694,4.232 2.554,7.065l-2.626,1.193zm-34.845,6.588l0,-11.934c-0.431,0.557 -0.876,1.089 -1.337,1.599c-0.525,-0.7 -1.265,-1.304 -2.22,-1.814c2.545,-2.673 4.399,-5.887 5.561,-9.642l2.578,0.978c-0.685,2.133 -1.568,4.13 -2.65,5.991l0.835,0l0,14.822l-2.767,0zm6.204,0.047c-0.716,-0.7 -1.559,-1.233 -2.529,-1.599c1.893,-1.575 3.389,-3.366 4.487,-5.37l2.458,1.36c-1.305,2.18 -2.777,4.05 -4.416,5.609zm-1.718,-14.511l0,-2.53l2.529,0l0,-4.535l2.745,0l0,4.535l3.174,0l0,-4.535l2.746,0l0,4.535l2.721,0l0,2.53l-2.721,0l0,4.559l3.199,0l0,2.529l-15.014,0l0,-2.529l3.15,0l0,-4.559l-2.529,0zm5.274,4.559l3.174,0l0,-4.559l-3.174,0l0,4.559zm6.66,10c-1.385,-2.117 -2.849,-4.026 -4.392,-5.728l2.481,-1.313c1.481,1.623 2.81,3.318 3.987,5.083l-2.076,1.958zm-41.481,-0.12l0,-11.504c-0.43,0.573 -0.868,1.139 -1.313,1.696c-0.621,-0.781 -1.384,-1.393 -2.291,-1.838c2.608,-3.231 4.399,-6.612 5.369,-10.144l2.721,1.074c-0.588,2.02 -1.416,4.018 -2.482,5.99l0.763,0l0,14.726l-2.767,0zm4.033,-7.303l0,-2.577l6.731,0l0,-4.487l-3.055,0c-0.43,1.145 -0.923,2.203 -1.48,3.174c-0.876,-0.446 -1.806,-0.692 -2.793,-0.74c1.495,-2.371 2.555,-5.219 3.175,-8.545l2.601,0.836c-0.19,0.939 -0.414,1.862 -0.669,2.768l2.221,0l0,-4.821l2.864,0l0,4.821l4.51,0l0,2.507l-4.51,0l0,4.487l5.37,0l0,2.577l-5.37,0l0,7.328l-2.864,0l0,-7.328l-6.731,0zm-31.887,-9.523l0,-2.364l3.197,0c0.175,-0.525 0.399,-1.295 0.669,-2.314c0.049,-0.143 0.081,-0.247 0.096,-0.31l2.625,0.669c-0.19,0.652 -0.397,1.304 -0.621,1.955l4.058,0l0,2.364l-4.868,0c-0.637,1.814 -1.265,3.413 -1.886,4.797l1.672,0l0,-3.245l2.243,0l0,3.245l2.219,0l0,2.34l-2.219,0l0,2.219l2.267,-0.406l0.597,2.315l-2.864,0.573l0,5.013l-2.675,0l0,-4.488l-3.866,0.764l-0.859,-2.529l4.725,-0.789l0,-2.672l-4.128,0l0,-2.459c0.684,-1.353 1.353,-2.912 2.005,-4.678l-2.387,0zm19.667,16.563c-2.053,-1.511 -3.532,-3.468 -4.44,-5.87c-0.891,2.482 -2.61,4.542 -5.154,6.182c-0.637,-0.764 -1.465,-1.353 -2.483,-1.767c3.516,-1.687 5.465,-4.519 5.847,-8.497c0.112,-1.113 0.143,-2.434 0.096,-3.962l2.769,0.167c0,0.176 -0.009,0.439 -0.024,0.788c-0.016,0.716 -0.032,1.249 -0.048,1.599c0.334,4.169 2.338,7.296 6.014,9.38c-0.97,0.397 -1.83,1.058 -2.577,1.98zm-8.377,-11.622c-0.701,-0.494 -1.576,-0.811 -2.626,-0.955c1.815,-2.514 3.047,-5.497 3.7,-8.95l2.577,0.692c-0.192,0.907 -0.422,1.806 -0.692,2.697l6.874,0l0,2.148l-1.432,4.01c-0.796,-0.271 -1.68,-0.39 -2.649,-0.358l1.216,-3.39l-4.821,0c-0.588,1.48 -1.304,2.849 -2.147,4.106zm-34.274,2.887c-0.796,-0.652 -1.703,-1.169 -2.721,-1.551c3.437,-2.641 5.776,-6.149 7.017,-10.525l2.769,1.145c-1.608,4.742 -3.962,8.386 -7.065,10.931zm14.679,9.07c-0.08,-0.127 -0.192,-0.326 -0.336,-0.597c-0.11,-0.175 -0.365,-0.605 -0.763,-1.288l-9.14,0.787c-1.082,0.096 -2.054,0.302 -2.912,0.621l-1.337,-2.577c1.034,-0.35 1.869,-0.988 2.506,-1.911c1.702,-2.53 3.246,-5.369 4.63,-8.52l2.745,1.098c-1.575,3.485 -3.111,6.293 -4.606,8.425l6.563,-0.454c-0.907,-1.431 -1.718,-2.64 -2.435,-3.627l2.554,-1.05c1.655,2.1 3.278,4.503 4.869,7.208l-2.338,1.885zm2.625,-9.212c-3.549,-2.817 -6.19,-6.628 -7.925,-11.433l2.65,-1.098c1.544,4.614 4.257,8.076 8.139,10.382c-1.13,0.525 -2.084,1.241 -2.864,2.149zm-42.722,3.365l-2.173,-2.029c1.353,-1.623 2.45,-3.461 3.293,-5.514l2.293,1.433c-0.875,2.243 -2.014,4.28 -3.413,6.11zm10.787,5.299c-0.906,0 -1.758,-0.049 -2.554,-0.143c-0.047,-1.147 -0.333,-2.173 -0.858,-3.08c1.208,0.175 2.211,0.271 3.007,0.287c1.383,0 2.1,-0.749 2.147,-2.244l0.286,-9.021l-3.603,0c-0.478,6.714 -3.206,11.615 -8.186,14.702c-0.717,-0.779 -1.615,-1.377 -2.698,-1.791c4.901,-2.831 7.535,-7.136 7.901,-12.911l-5.848,0l0,-2.746l6.014,0c0.032,-1.4 0.049,-2.831 0.049,-4.296l2.958,0.168c0,1.622 -0.015,2.998 -0.046,4.128l6.514,0l-0.167,4.869l1.575,-0.573c1.194,1.575 2.275,3.31 3.247,5.203l-2.124,2.077c-0.892,-1.702 -1.814,-3.286 -2.769,-4.749l-0.167,5.465c-0.112,3.087 -1.67,4.638 -4.678,4.655zm-36.159,0.501l0,-20.526l18.879,0l0,16.492c-0.016,2.577 -1.145,3.874 -3.39,3.89c-0.731,0 -1.598,-0.056 -2.6,-0.167c-0.064,-0.923 -0.311,-1.861 -0.741,-2.816c0.94,0.143 1.734,0.214 2.387,0.214c0.971,0.017 1.448,-0.517 1.433,-1.599l0,-13.413l-13.055,0l0,17.925l-2.913,0zm3.938,-13.844l11.003,0l0,-2.41l-11.003,0l0,2.41zm0.907,9.427l9.165,0l0,-7.779l-9.165,0l0,7.779zm2.721,-2.385l3.748,0l0,-3.008l-3.748,0l0,3.008zm-34.201,-6.708l0,-2.53l2.6,0l0,-5.68l2.698,0l0,5.68l2.291,0l0,2.53l-2.291,0l0,13.485l-2.698,0l0,-13.485l-2.6,0zm7.78,7.376l-2.029,-1.48c1.098,-1.591 1.918,-3.366 2.458,-5.322l1.981,1.145c-0.557,2.005 -1.359,3.89 -2.41,5.657zm7.495,5.56c-0.573,0 -1.226,-0.047 -1.958,-0.142l0,-0.12c-0.096,-1.05 -0.35,-1.933 -0.763,-2.649c0.795,0.16 1.503,0.239 2.123,0.239c0.956,0.015 1.441,-0.597 1.456,-1.838l0.215,-9.618l-2.315,0c0,0.047 -0.003,0.126 -0.011,0.238c-0.009,0.112 -0.014,0.199 -0.014,0.262c-0.126,6.492 -1.837,11.251 -5.131,14.273c-0.843,-0.572 -1.782,-0.978 -2.815,-1.217c3.405,-2.721 5.146,-7.128 5.227,-13.223l0,-0.333l-2.984,0l0,-2.555l3.055,0c0.016,-0.557 0.023,-1.185 0.023,-1.885l0,-2.602l2.698,0.168l0,2.577c0,0.652 -0.008,1.233 -0.024,1.742l5.036,0l-0.119,4.631l1.265,-0.359c0.843,1.671 1.591,3.43 2.243,5.275l-1.957,1.433c-0.478,-1.353 -1.01,-2.698 -1.599,-4.034l-0.142,5.871c-0.096,2.562 -1.266,3.851 -3.509,3.866zm-39.525,-15.059l0,-2.697l9.212,0c-0.588,-0.987 -1.24,-1.902 -1.956,-2.745l3.246,-1.003c0.764,0.939 1.455,1.957 2.077,3.055l-1.576,0.693l9.571,0l0,2.697l-11.957,0c-0.017,0.588 -0.057,1.512 -0.12,2.768c0.048,-0.907 0.048,-0.859 0,0.144l9.689,0l-0.429,8.043c-0.159,2.815 -1.496,4.232 -4.009,4.248c-0.924,0 -1.831,-0.056 -2.721,-0.167c-0.048,-1.003 -0.255,-1.958 -0.621,-2.864c1.035,0.16 1.933,0.239 2.698,0.239c1.05,-0.033 1.622,-0.669 1.718,-1.911l0.262,-4.94l-6.874,0c-0.588,4.392 -2.458,7.781 -5.608,10.168c-0.844,-0.748 -1.79,-1.329 -2.841,-1.742c3.597,-2.515 5.498,-6.206 5.705,-11.074c0,-0.096 0.007,-0.247 0.024,-0.455c0.063,-1.017 0.103,-1.837 0.119,-2.457l-5.609,0zm-24.99,1.55l0,-5.561l8.545,0c-0.381,-0.731 -0.731,-1.304 -1.05,-1.717l3.318,-0.598c0.588,0.987 1.01,1.759 1.265,2.315l8.091,0l0,5.395l-2.841,0l0,-3.008l-14.487,0l0,3.174l-2.841,0zm15.396,14.058l0,-1.121l-9.357,0l0,1.121l-2.912,0l0,-15.561l13.916,0l0,6.349l-11.004,0l0,1.575l12.197,0l0,7.637l-2.84,0zm-9.357,-11.527l8.163,0l0,-1.719l-8.163,0l0,1.719zm0,8.067l9.357,0l0,-1.862l-9.357,0l0,1.862zm305.19,-38.921l0,-1.647c-1.145,0.7 -2.394,1.337 -3.746,1.909c-0.493,-0.826 -1.218,-1.566 -2.173,-2.219c4.997,-1.878 8.585,-4.71 10.764,-8.497l2.746,1.074c-0.079,0.143 -0.208,0.35 -0.383,0.621c-0.064,0.095 -0.111,0.166 -0.142,0.215c2.546,2.927 5.847,4.909 9.905,5.943c-0.845,0.683 -1.489,1.551 -1.934,2.601c-1.448,-0.525 -2.793,-1.138 -4.033,-1.838l0,1.838l-11.004,0zm-4.033,4.439l0,-2.53l19.046,0l0,2.53l-9.643,0c-0.889,1.417 -1.797,2.673 -2.72,3.771l6.087,-0.358c-0.336,-0.413 -0.82,-0.987 -1.456,-1.718c-0.145,-0.191 -0.256,-0.326 -0.336,-0.406l2.46,-1.241c1.639,1.718 3.197,3.604 4.677,5.656l-2.291,1.743c-0.366,-0.525 -0.756,-1.066 -1.169,-1.624l-9.595,0.622c-1.003,0.079 -1.925,0.253 -2.769,0.524l-1.074,-2.553c0.955,-0.207 1.734,-0.62 2.339,-1.242c0.669,-0.683 1.48,-1.742 2.435,-3.174l-5.991,0zm9.5,-10.788c-1.211,1.448 -2.611,2.737 -4.202,3.867l8.665,0c-1.718,-1.098 -3.207,-2.387 -4.463,-3.867zm-35.706,12.912l0,-2.409l9.141,0c0.047,-0.335 0.087,-0.7 0.12,-1.099l2.839,0.333c-0.046,0.271 -0.08,0.525 -0.095,0.766l9.308,0l0,2.409l-8.187,0c1.72,1.257 4.504,2.038 8.354,2.34c-0.7,0.907 -1.169,1.829 -1.409,2.768c-4.31,-0.414 -7.446,-1.767 -9.403,-4.058c-1.417,2.244 -4.455,3.653 -9.117,4.226c-0.414,-0.956 -1.002,-1.815 -1.766,-2.579c4.233,-0.365 6.977,-1.265 8.234,-2.697l-8.019,0zm2.291,-3.079l0,-11.741l5.346,0c0.462,-0.732 0.82,-1.41 1.075,-2.03l3.198,0.597c-0.239,0.477 -0.51,0.954 -0.813,1.433l7.973,0l0,11.741l-2.793,0l0,-9.403l-11.193,0l0,7.805c1.336,-0.701 2.442,-1.505 3.317,-2.411l-2.673,0l0,-1.91l1.813,0c-0.445,-0.652 -1.034,-1.375 -1.765,-2.172l1.718,-0.763c0.572,0.604 1.122,1.266 1.647,1.981l-1.361,0.954l1.671,0l0,-2.959l2.435,0l0,2.959l1.718,0c-0.462,-0.302 -0.955,-0.572 -1.48,-0.811c0.669,-0.684 1.242,-1.408 1.719,-2.172l1.646,0.836c-0.556,0.843 -1.106,1.56 -1.646,2.147l1.79,0l0,1.91l-3.747,0l0,1.408l1.24,-1.074c1.115,0.588 2.061,1.225 2.841,1.91l-1.026,1.669c-0.843,-0.715 -1.862,-1.454 -3.055,-2.219l0,1.672l-2.435,0l0,-1.91c-0.779,0.955 -1.71,1.782 -2.792,2.481c-0.43,-0.509 -0.955,-0.945 -1.575,-1.312l0,1.384l-2.793,0zm-24.488,8.164c-0.78,-0.621 -1.694,-1.082 -2.744,-1.385c1.909,-1.511 3.356,-3.166 4.344,-4.964c-0.844,-0.717 -1.575,-1.281 -2.197,-1.695c-0.031,0.032 -0.072,0.088 -0.119,0.167c-0.127,0.175 -0.294,0.39 -0.5,0.644c-0.637,-0.556 -1.441,-0.931 -2.412,-1.122c2.132,-2.64 3.437,-5.862 3.915,-9.665l-2.864,0l0,-2.364l8.998,0l0,2.364l-3.652,0c-0.111,1.161 -0.31,2.315 -0.597,3.46l3.82,0l0,2.1c-0.414,4.965 -2.411,9.118 -5.992,12.46zm1.504,-12.268c-0.429,1.209 -0.954,2.338 -1.575,3.388l1.026,-0.906c0.429,0.286 0.994,0.692 1.695,1.217c0.43,-1.21 0.707,-2.442 0.835,-3.699l-1.981,0zm5.013,-1.337l-0.479,-2.435l3.247,-0.501c-0.064,-1.527 -0.096,-3.182 -0.096,-4.964l2.65,-0.167c0,1.67 0.04,3.246 0.119,4.725l2.553,-0.406c-0.811,-1.145 -1.543,-2.02 -2.195,-2.625l2.195,-1.097c0.781,0.763 1.481,1.591 2.101,2.482l-1.336,1.121l2.004,-0.31l0.502,2.435l-5.681,0.883c0.032,0.302 0.079,0.732 0.144,1.288c0.047,0.398 0.079,0.693 0.094,0.884l5.753,-1.146l0.477,2.434l-5.871,1.194c0.175,0.843 0.341,1.623 0.501,2.339c1.24,-0.748 2.355,-1.591 3.341,-2.531l1.552,2.006c-1.13,1.129 -2.475,2.148 -4.034,3.054c0.143,0.319 0.287,0.597 0.429,0.836c0.414,0.685 0.812,1.011 1.194,0.979c0.302,0.064 0.573,-0.342 0.811,-1.218c0.144,-0.557 0.263,-1.122 0.359,-1.694c0.604,0.731 1.336,1.289 2.195,1.67c-0.175,0.732 -0.319,1.266 -0.429,1.6c-0.573,1.718 -1.504,2.58 -2.793,2.589c-1.288,0.008 -2.38,-0.664 -3.269,-2.017c-0.303,-0.444 -0.589,-0.954 -0.86,-1.527c-1.59,0.7 -3.317,1.257 -5.178,1.671c-0.336,-0.875 -0.875,-1.664 -1.624,-2.364c2.085,-0.349 4.042,-0.946 5.871,-1.789c-0.285,-0.908 -0.525,-1.925 -0.716,-3.055l-3.269,0.644l-0.644,-2.435l3.532,-0.691c-0.017,-0.207 -0.048,-0.525 -0.096,-0.955c-0.064,-0.589 -0.111,-1.042 -0.142,-1.36l-2.912,0.453zm-33.391,6.085c-0.335,-0.938 -0.9,-1.797 -1.695,-2.576c3.484,-0.541 6.421,-1.337 8.807,-2.387c-0.97,-0.732 -1.87,-1.584 -2.697,-2.554c-0.811,0.811 -1.686,1.56 -2.626,2.244c-0.763,-0.892 -1.527,-1.519 -2.29,-1.886c3.071,-2.132 5.369,-4.59 6.897,-7.375l2.602,1.073c-0.335,0.607 -0.637,1.106 -0.908,1.504l8.593,0l0,2.197c-1.05,1.83 -2.466,3.412 -4.249,4.75c2.404,0.969 5.204,1.582 8.401,1.837c-0.684,0.795 -1.185,1.751 -1.503,2.864c-3.899,-0.637 -7.096,-1.623 -9.594,-2.96c-0.907,0.478 -1.839,0.907 -2.793,1.29c2.578,0.541 5.18,1.439 7.805,2.697l-0.764,2.648c-2.594,-1.225 -5.53,-2.235 -8.807,-3.032l1.647,-2.266c-1.926,0.748 -4.201,1.392 -6.826,1.932zm14.75,8.164c-3.867,-1.528 -7.988,-2.761 -12.363,-3.7l1.575,-2.457c4.248,0.921 8.091,2.075 11.527,3.459l-0.739,2.698zm-1.456,-17.662l-7.042,0c-0.046,0.079 -0.103,0.144 -0.166,0.191c1.082,1.178 2.299,2.165 3.652,2.959c1.415,-0.89 2.601,-1.94 3.556,-3.15zm-39.167,4.32l0,-2.459l4.391,0l0,-2.792c-0.938,0.144 -1.853,0.247 -2.744,0.31c-0.319,-0.859 -0.747,-1.576 -1.288,-2.147c3.722,-0.319 6.635,-0.852 8.736,-1.6l1.621,2.1c-1.129,0.334 -2.33,0.629 -3.602,0.884l0,3.245l3.46,0l0,2.459l-3.46,0l0,1.527l0.643,-0.358c1.226,1.417 2.276,2.833 3.151,4.249l-1.934,1.79c-0.572,-0.987 -1.193,-1.958 -1.86,-2.912l0,8.473l-2.723,0l0,-8.425c-0.985,1.893 -1.964,3.293 -2.935,4.2c-0.796,-0.525 -1.639,-0.89 -2.53,-1.098c2.164,-2.163 3.834,-4.646 5.012,-7.446l-3.938,0zm11.29,12.053l0,-18.832l9.117,0l0,18.832l-2.769,0l0,-2.267l-3.58,0l0,2.267l-2.768,0zm2.768,-4.821l3.579,0l0,-11.48l-3.579,0l0,11.48zm-34.179,-6.182l0,-1.647c-1.144,0.7 -2.394,1.337 -3.745,1.909c-0.494,-0.826 -1.218,-1.566 -2.174,-2.219c4.997,-1.878 8.586,-4.71 10.765,-8.497l2.745,1.074c-0.079,0.143 -0.207,0.35 -0.382,0.621c-0.064,0.095 -0.111,0.166 -0.143,0.215c2.545,2.927 5.848,4.909 9.905,5.943c-0.844,0.683 -1.489,1.551 -1.933,2.601c-1.449,-0.525 -2.793,-1.138 -4.034,-1.838l0,1.838l-11.004,0zm-4.032,4.439l0,-2.53l19.046,0l0,2.53l-9.643,0c-0.891,1.417 -1.798,2.673 -2.72,3.771l6.086,-0.358c-0.335,-0.413 -0.82,-0.987 -1.456,-1.718c-0.143,-0.191 -0.255,-0.326 -0.335,-0.406l2.459,-1.241c1.639,1.718 3.197,3.604 4.678,5.656l-2.291,1.743c-0.366,-0.525 -0.756,-1.066 -1.171,-1.624l-9.594,0.622c-1.002,0.079 -1.925,0.253 -2.768,0.524l-1.074,-2.553c0.955,-0.207 1.734,-0.62 2.339,-1.242c0.668,-0.683 1.479,-1.742 2.434,-3.174l-5.99,0zm9.499,-10.788c-1.211,1.448 -2.611,2.737 -4.201,3.867l8.664,0c-1.718,-1.098 -3.206,-2.387 -4.463,-3.867zm-35.705,12.912l0,-2.409l9.141,0c0.047,-0.335 0.087,-0.7 0.119,-1.099l2.84,0.333c-0.048,0.271 -0.081,0.525 -0.095,0.766l9.308,0l0,2.409l-8.188,0c1.72,1.257 4.504,2.038 8.356,2.34c-0.701,0.907 -1.171,1.829 -1.41,2.768c-4.311,-0.414 -7.446,-1.767 -9.403,-4.058c-1.416,2.244 -4.455,3.653 -9.118,4.226c-0.413,-0.956 -1.001,-1.815 -1.766,-2.579c4.232,-0.365 6.978,-1.265 8.234,-2.697l-8.018,0zm2.29,-3.079l0,-11.741l5.347,0c0.46,-0.732 0.819,-1.41 1.074,-2.03l3.199,0.597c-0.24,0.477 -0.51,0.954 -0.812,1.433l7.971,0l0,11.741l-2.793,0l0,-9.403l-11.193,0l0,7.805c1.336,-0.701 2.442,-1.505 3.317,-2.411l-2.672,0l0,-1.91l1.813,0c-0.445,-0.652 -1.035,-1.375 -1.766,-2.172l1.718,-0.763c0.573,0.604 1.123,1.266 1.648,1.981l-1.361,0.954l1.67,0l0,-2.959l2.436,0l0,2.959l1.718,0c-0.462,-0.302 -0.955,-0.572 -1.48,-0.811c0.668,-0.684 1.24,-1.408 1.718,-2.172l1.647,0.836c-0.557,0.843 -1.106,1.56 -1.647,2.147l1.79,0l0,1.91l-3.746,0l0,1.408l1.239,-1.074c1.116,0.588 2.062,1.225 2.842,1.91l-1.026,1.669c-0.844,-0.715 -1.862,-1.454 -3.055,-2.219l0,1.672l-2.436,0l0,-1.91c-0.779,0.955 -1.71,1.782 -2.791,2.481c-0.431,-0.509 -0.956,-0.945 -1.576,-1.312l0,1.384l-2.793,0zm-26.301,0.644c-0.334,-0.938 -0.899,-1.797 -1.695,-2.576c3.485,-0.541 6.421,-1.337 8.807,-2.387c-0.97,-0.732 -1.87,-1.584 -2.697,-2.554c-0.811,0.811 -1.686,1.56 -2.625,2.244c-0.764,-0.892 -1.527,-1.519 -2.291,-1.886c3.07,-2.132 5.37,-4.59 6.897,-7.375l2.602,1.073c-0.334,0.607 -0.636,1.106 -0.907,1.504l8.592,0l0,2.197c-1.05,1.83 -2.467,3.412 -4.249,4.75c2.403,0.969 5.205,1.582 8.402,1.837c-0.684,0.795 -1.185,1.751 -1.504,2.864c-3.898,-0.637 -7.096,-1.623 -9.594,-2.96c-0.907,0.478 -1.838,0.907 -2.793,1.29c2.578,0.541 5.18,1.439 7.805,2.697l-0.763,2.648c-2.594,-1.225 -5.53,-2.235 -8.808,-3.032l1.647,-2.266c-1.925,0.748 -4.201,1.392 -6.826,1.932zm14.75,8.164c-3.866,-1.528 -7.988,-2.761 -12.364,-3.7l1.575,-2.457c4.25,0.921 8.092,2.075 11.529,3.459l-0.74,2.698zm-1.456,-17.662l-7.042,0c-0.047,0.079 -0.103,0.144 -0.165,0.191c1.081,1.178 2.298,2.165 3.651,2.959c1.415,-0.89 2.601,-1.94 3.556,-3.15zm-39.572,12.291l0,-2.697l4.081,0l0,-6.181c-0.43,0.525 -0.892,1.05 -1.385,1.575c-0.747,-0.716 -1.694,-1.225 -2.839,-1.527c2.466,-2.387 4.392,-5.235 5.776,-8.545l2.768,1.098c-0.191,0.494 -0.398,0.979 -0.62,1.456l12.53,0l0,2.697l-6.468,0l0,3.055l5.777,0l0,2.649l-5.777,0l0,3.723l7.877,0l0,2.697l-7.877,0l0,4.798l-3.007,0l0,-4.798l-10.836,0zm6.349,-12.124c-0.637,1.05 -1.345,2.069 -2.124,3.055l6.611,0l0,-3.055l-4.487,0zm0.691,9.427l3.796,0l0,-3.723l-3.796,0l0,3.723z"/>
  </g>
 </g>
</svg>