<svg id="图层_1" data-name="图层 1" xmlns="http://www.w3.org/2000/svg" viewBox="0 0 900 383"><defs><style>.cls-1{fill:#3f3f3f;}.cls-2{fill:#02ba04;}.cls-2,.cls-3,.cls-4{fill-rule:evenodd;}.cls-3{fill:#75e522;}.cls-4{fill:#2cd700;}</style></defs><title>盖雅工场logo</title><path class="cls-1" d="M374.43,127.84H348.89a3.37,3.37,0,0,0-3.36,3.37v7a3.36,3.36,0,0,0,3.36,3.37h13.38V161.8a40.28,40.28,0,0,1-11.61,1.37c-17.74,0-29.21-12-29.21-30.68s12-30.55,30.55-30.55c8.35,0,13.35,1.71,16.39,3a3.49,3.49,0,0,0,1.32.26,3.36,3.36,0,0,0,3.22-2.41l2.12-7.15a3.37,3.37,0,0,0-1.87-4c-5.28-2.33-13.1-3.72-20.93-3.72-28.09,0-47,18.12-47.18,45.1,0,13.14,4.48,25,12.29,32.53,8.16,7.8,18.81,11.59,32.57,11.59a78.71,78.71,0,0,0,25.61-4.48,3.36,3.36,0,0,0,2.25-3.17V131.21A3.38,3.38,0,0,0,374.43,127.84Z"/><path class="cls-1" d="M436.48,136.89c0-17.26-8.9-26.76-25.06-26.76a39.62,39.62,0,0,0-20.24,5.29,3.34,3.34,0,0,0-1.41,4l1.91,5.55a3.35,3.35,0,0,0,2,2.06,3.26,3.26,0,0,0,1.16.21,3.36,3.36,0,0,0,1.7-.46,27.38,27.38,0,0,1,13.27-3.54c7,0,10.44,3.12,10.84,9.8-22.91.49-35.52,9.19-35.52,24.54,0,9.72,7.09,19.56,20.65,19.56a25.2,25.2,0,0,0,16.5-5.87l.18,1.55a3.37,3.37,0,0,0,3.34,3h8.12a3.37,3.37,0,0,0,3.33-3.89,84.84,84.84,0,0,1-.79-12.86ZM421,145.56v7.71a8.68,8.68,0,0,1-.47,2.59A12.24,12.24,0,0,1,408.61,164c-4.81,0-7.58-2.81-7.58-7.7C401,149.32,407.74,145.7,421,145.56Z"/><rect class="cls-1" x="447.9" y="112.81" width="15.89" height="64.29" rx="3.36"/><path class="cls-1" d="M455.91,88.44a9.09,9.09,0,0,0-9.29,9.29,8.91,8.91,0,0,0,9,9.17,9.56,9.56,0,0,0,7-2.77,8.72,8.72,0,0,0,2.42-6.4A8.92,8.92,0,0,0,455.91,88.44Z"/><path class="cls-1" d="M525.08,136.89c0-17.26-8.89-26.76-25.05-26.76a39.6,39.6,0,0,0-20.24,5.29,3.34,3.34,0,0,0-1.41,4l1.91,5.55a3.33,3.33,0,0,0,2,2.06,3.26,3.26,0,0,0,1.16.21,3.42,3.42,0,0,0,1.71-.46,27.31,27.31,0,0,1,13.26-3.54c7,0,10.44,3.12,10.84,9.8-22.91.49-35.52,9.19-35.52,24.54,0,9.72,7.09,19.56,20.65,19.56a25.25,25.25,0,0,0,16.5-5.87l.18,1.54a3.36,3.36,0,0,0,3.34,3h8.12a3.37,3.37,0,0,0,3.33-3.89,84.93,84.93,0,0,1-.8-12.86Zm-15.52,8.67v7.71a9,9,0,0,1-.47,2.59A12.24,12.24,0,0,1,497.22,164c-4.81,0-7.57-2.81-7.57-7.7C489.65,149.32,496.34,145.7,509.56,145.56Z"/><path class="cls-1" d="M638.83,89.05a3.33,3.33,0,0,0-2.69-1.36h-9.21a3.37,3.37,0,0,0-3.25,2.56L613,132.14l-.48,1.94c-1.23,5-2.42,9.93-3.51,14.7h0c-1.15-5.72-2.46-11.46-3.6-16.36l-9.87-42.1a3.36,3.36,0,0,0-3.27-2.63h-9.88a3.38,3.38,0,0,0-3.26,2.55l-11,42.59c-1.41,5.48-2.87,11.14-4.12,16.5h0c-1.14-5.51-2.43-11.38-3.75-17l-9.63-42a3.37,3.37,0,0,0-3.28-2.64h-9.59A3.36,3.36,0,0,0,535,89a3.45,3.45,0,0,0-.59,2.93l20.49,82.57a3.37,3.37,0,0,0,3.26,2.58H568a3.37,3.37,0,0,0,3.24-2.52l11.56-43.22c1.53-5.41,2.73-10.09,3.78-14.63h0c.82,4.11,1.82,8.64,3.23,14.53l10.24,43.22a3.36,3.36,0,0,0,3.27,2.62h9.89a3.38,3.38,0,0,0,3.24-2.49L639.38,92A3.47,3.47,0,0,0,638.83,89.05Z"/><path class="cls-1" d="M668.48,110.13c-18.78,0-31.9,14-31.9,34,0,19.43,12.72,33,30.92,33,15.42,0,32-10.63,32-34C699.52,123.69,686.76,110.13,668.48,110.13ZM668,163.9c-8.92,0-15.4-8.48-15.4-20.17,0-10.15,4.84-20.4,15.65-20.4,12,0,15.15,13.19,15.15,20.16C683.39,155.31,676.91,163.9,668,163.9Z"/><path class="cls-1" d="M738.85,110.16a14.18,14.18,0,0,0-2.91-.27,19,19,0,0,0-14.57,7l-.08-2.44a3.34,3.34,0,0,0-3.36-3.26h-7.79a3.35,3.35,0,0,0-3.35,3.57c.29,4.85.43,10.23.43,17.45v41.49a3.36,3.36,0,0,0,3.36,3.36h9a3.36,3.36,0,0,0,3.36-3.36V141.42a27,27,0,0,1,.46-4.56c1.28-7.1,5.95-11.7,11.89-11.7a14,14,0,0,1,2.34.17,4.91,4.91,0,0,0,.53,0,3.36,3.36,0,0,0,3.36-3.37v-8.55A3.37,3.37,0,0,0,738.85,110.16Z"/><path class="cls-1" d="M833,136.69c-7.64-2.86-9.76-4.5-9.86-7.62a4.58,4.58,0,0,1,1.27-3.47,8,8,0,0,1,5.85-2,21.41,21.41,0,0,1,10.13,2.61,3.4,3.4,0,0,0,2.84.2,3.26,3.26,0,0,0,1.94-2.08l1.94-6.25a3.4,3.4,0,0,0-1.67-4,33.15,33.15,0,0,0-15.3-3.64c-7,0-13.21,2.34-17.33,6.6a17.82,17.82,0,0,0-5,13.29c.19,5.89,3.45,14,17.92,19.06,8.76,3.19,9.53,5.62,9.62,8.47a5.44,5.44,0,0,1-1.42,4c-1.43,1.48-3.88,2.23-7.27,2.23a26.27,26.27,0,0,1-12.16-3.4,3.35,3.35,0,0,0-2.89-.24,3.24,3.24,0,0,0-2,2.12l-2,6.59a3.44,3.44,0,0,0,1.69,4,38,38,0,0,0,17.4,4c8.22,0,14.84-2.35,19.14-6.79a18,18,0,0,0,4.92-13.47C850.52,147.41,845,141.19,833,136.69Z"/><path class="cls-1" d="M777.28,138.84l20.11-21.41a3.36,3.36,0,0,0-2.45-5.67H784.2a3.36,3.36,0,0,0-2.56,1.18l-17.15,20.17-1,1.16V91.81a3.37,3.37,0,0,0-3.36-3.37h-9a3.36,3.36,0,0,0-3.36,3.37v81.93a3.36,3.36,0,0,0,3.36,3.36h9a3.37,3.37,0,0,0,3.36-3.36V152.22l2.72-3,18.3,25.43a3.35,3.35,0,0,0,2.73,1.4h11.09a3.37,3.37,0,0,0,3-1.86,3.33,3.33,0,0,0-.32-3.51Z"/><path class="cls-1" d="M709.77,307.12H657.43V231.85h44.28a3.59,3.59,0,0,0,3.59-3.59v-6.73a3.6,3.6,0,0,0-3.59-3.6h-103a3.6,3.6,0,0,0-3.6,3.6v6.73a3.6,3.6,0,0,0,3.6,3.59h44.77v75.27H590.67a3.6,3.6,0,0,0-3.59,3.6v5.72a3.6,3.6,0,0,0,3.59,3.6h119.1a3.6,3.6,0,0,0,3.59-3.6v-5.72A3.6,3.6,0,0,0,709.77,307.12Z"/><path class="cls-1" d="M774.72,281.72,773.38,275a3.59,3.59,0,0,0-4.9-2.63l-14.15,5.8V246.52h12.39a3.6,3.6,0,0,0,3.6-3.6v-6.73a3.6,3.6,0,0,0-3.6-3.59H754.33V203.44a3.61,3.61,0,0,0-3.6-3.6H744a3.6,3.6,0,0,0-3.59,3.6V232.6h-14a3.59,3.59,0,0,0-3.59,3.59v6.73a3.6,3.6,0,0,0,3.59,3.6h14v37.24l-18,6.92a3.61,3.61,0,0,0-2,4.7l2.58,6.45a3.56,3.56,0,0,0,3.34,2.26,3.37,3.37,0,0,0,1.34-.26l44.89-18.06A3.62,3.62,0,0,0,774.72,281.72Z"/><path class="cls-1" d="M573.13,306.12H548.51V292.83H569.6a3.6,3.6,0,0,0,3.6-3.6v-6.72a3.6,3.6,0,0,0-3.6-3.6H548.51V266.63H569.6a3.6,3.6,0,0,0,3.6-3.6V256.3a3.6,3.6,0,0,0-3.6-3.59H548.51V239.92h23.11a3.6,3.6,0,0,0,3.6-3.6V229.6a3.6,3.6,0,0,0-3.6-3.6H555.81l-.27-.67-14.63-23.78a3.82,3.82,0,0,0-2.91-1.7h-.14a3.62,3.62,0,0,0-2.17.72l-5.41,4.07a3.6,3.6,0,0,0-.88,4.79L539.87,226H518.21l0-.15c.86-2.57,1.7-5.47,2.43-8,.34-1.17.65-2.25.93-3.17l.59-1.86a3.61,3.61,0,0,0-2.09-4.43l-6.46-2.58a3.59,3.59,0,0,0-4.77,2.28l-.67,2.17c-1.34,4.33-2.33,8.13-3.14,11.21-2.05,7.84-3.68,14-8.84,22.22-.54.87-1.09,1.73-1.64,2.55a3.62,3.62,0,0,0,.29,4.44l5.07,3.75a3.61,3.61,0,0,0,2.55,1l.34,0V325a3.59,3.59,0,0,0,3.59,3.59h6.73a3.6,3.6,0,0,0,3.6-3.59v-5h56.36a3.6,3.6,0,0,0,3.6-3.6v-6.72A3.6,3.6,0,0,0,573.13,306.12Zm-38-13.29v13.29H516.77V292.83Zm0-26.2v12.28H516.77V266.63Zm0-26.71v12.79H516.77V239.92Z"/><path class="cls-1" d="M492.33,253.71h-3.77V226.32H496a3.6,3.6,0,0,0,3.6-3.6V216a3.6,3.6,0,0,0-3.6-3.6H450.52a3.61,3.61,0,0,0-3.6,3.6v6.73a3.61,3.61,0,0,0,3.6,3.6h24.12v27.39l-12.5-.05,5.22-22.53-13.7.19L446,264.11v.14a3.62,3.62,0,0,0,1,2.32,3.59,3.59,0,0,0,2.56,1.07h18.25l-.06.15A116.13,116.13,0,0,1,445,301.3l-1.44,1.48a3.63,3.63,0,0,0,0,5.05l4.49,4.49a3.59,3.59,0,0,0,5.11,0l1.49-1.52a132.62,132.62,0,0,0,19.74-25.92l.22-.38,0,24.57a21.68,21.68,0,0,1,.15,3.34l-.27.18a2,2,0,0,1-.68.05c-1.57,0-5.82-.2-6.84-.36l-2.84-.43-.14,0a3.68,3.68,0,0,0-2.35.86,3.58,3.58,0,0,0-1.27,2.74v6.78a3.58,3.58,0,0,0,3,3.55l1.77.29a75.67,75.67,0,0,0,7.61.73c5.23,0,9.32-1.59,12.13-4.71,3-3.3,4.2-8.12,3.59-13.85V267.64h3.77a3.61,3.61,0,0,0,3.6-3.6v-6.73A3.61,3.61,0,0,0,492.33,253.71Z"/><path class="cls-1" d="M430,311.55H419.48v-29a3.61,3.61,0,0,0-3.6-3.6H322.49a3.6,3.6,0,0,0-3.6,3.6v29h-11a3.6,3.6,0,0,0-3.6,3.6v6.73a3.6,3.6,0,0,0,3.6,3.6H430a3.61,3.61,0,0,0,3.6-3.6v-6.73A3.61,3.61,0,0,0,430,311.55Zm-24.43-18.69v18.69H390.25V292.86Zm-29.22,0v18.69H362V292.86Zm-28.22,0v18.69h-15.3V292.86Z"/><path class="cls-1" d="M310.39,273.55H428a3.6,3.6,0,0,0,3.6-3.6v-6.73a3.6,3.6,0,0,0-3.6-3.59H376.14V254.4h40.28a3.6,3.6,0,0,0,3.59-3.6v-6.72a3.6,3.6,0,0,0-3.59-3.6H376.14v-5.73H425a3.61,3.61,0,0,0,3.6-3.6v-6.73a3.56,3.56,0,0,0-2.74-3.39l-23.67,0L408,215.1a3.62,3.62,0,0,0,0-5.11l-4.26-4.28a3.73,3.73,0,0,0-5.12,0L383.38,221H355l-15.27-15.27a3.71,3.71,0,0,0-5.11,0L330.34,210a3.65,3.65,0,0,0,0,5.12l5.89,5.89-22.62,0-.29.05a3.5,3.5,0,0,0-2.49,3.34v6.73a3.6,3.6,0,0,0,3.6,3.6h47.8v5.73H323a3.6,3.6,0,0,0-3.59,3.6v6.72a3.6,3.6,0,0,0,3.59,3.6h39.24v5.23H310.39a3.59,3.59,0,0,0-3.59,3.59V270A3.6,3.6,0,0,0,310.39,273.55Z"/><path class="cls-1" d="M850.6,250.44a3.59,3.59,0,0,0-2.61-1.12H801.7l42.57-25a3.62,3.62,0,0,0,1.77-3.1v-6.05a3.61,3.61,0,0,0-3.6-3.61H778.67a3.61,3.61,0,0,0-3.6,3.6v6.73a3.61,3.61,0,0,0,3.6,3.6h36.24l-42.13,25a3.61,3.61,0,0,0-1.76,3.1v6.1a3.6,3.6,0,0,0,3.59,3.6h15.3l0,.13C786.73,280.55,776,295.3,758,307.21l-1.87,1.22a3.61,3.61,0,0,0-.89,5.17l4,5.39a3.59,3.59,0,0,0,2.88,1.43,3.65,3.65,0,0,0,2-.59l1.66-1.1c22.44-14.85,35.18-33.49,37.86-55.4v-.09h10.27v.12c-2.5,23-12.72,41-30.39,53.53l-1.77,1.25a3.6,3.6,0,0,0-.78,5.09l4,5.37a3.63,3.63,0,0,0,2.89,1.44,3.55,3.55,0,0,0,2.06-.65l1.68-1.18a87.46,87.46,0,0,0,13.7-12c2-2.19,4.85-5.57,7.5-9.22l1.4-2c7.62-11.81,12.22-25.8,13.68-41.58v-.11h9.32L835,303.08c.1,3-.39,5.11-1.47,6.22s-2.91,1.56-5.58,1.56l-4.68.14c-2,.06-3.3,1.55-4.68,3.83a38.77,38.77,0,0,0-2.47,4.59,3.86,3.86,0,0,0,0,3.49,2.28,2.28,0,0,0,1.94,1.06c3.15.16,5.7.23,7.72.23h0c7.87.45,14-1.43,18-5.57,3.55-3.66,5.38-9.17,5.16-15.44l2.64-50.09A3.63,3.63,0,0,0,850.6,250.44Z"/><path class="cls-2" d="M211.82,328c-12.31-5.93-33.48-10-57.89-10.49v-52.7H143.4v52.7C119,318,97.82,322.05,85.51,328Z"/><path class="cls-3" d="M143,209.93l.18-30.58c-14.92-29-47-48.14-87.45-73.44-4,12.84-6.3,31.77-7.05,50.9Z"/><path class="cls-3" d="M141.78,226.28c-3-7.3-8.8-14.16-16.3-20.67-13-11.26-65.36-39.12-76.92-45.21-.66,22.54.85,44.84,4.39,57.28l90.58,47.11C143.08,249.73,143.89,231.44,141.78,226.28Z"/><path class="cls-2" d="M154.32,209.93l-.18-30.58c14.92-29,47-48.14,87.45-73.44,4,12.84,6.3,31.77,7,50.9Z"/><path class="cls-2" d="M155.55,226.28c3-7.3,8.8-14.16,16.3-20.67,13-11.26,65.36-39.12,76.92-45.21.66,22.54-.85,44.84-4.39,57.28L153.8,264.79C154.25,249.73,153.44,231.44,155.55,226.28Z"/><path class="cls-4" d="M148.8,104.6l52.36-28.14L160.75,56A26.78,26.78,0,0,0,148.8,53h-.27A26.74,26.74,0,0,0,136.59,56L96.17,76.46l52.36,28.14v.15l.14-.07.13.07Z"/><path class="cls-4" d="M103.65,82.67c-2.87-1.56-5.9-3.22-9.13-5-15.77,6.23-34.17,19.56-37.71,26.87L145,156.4a232.13,232.13,0,0,0-.93-24.24C141.71,108.75,117.3,90.91,103.65,82.67Z"/><path class="cls-4" d="M194,82.67c2.87-1.56,5.9-3.22,9.13-5,15.77,6.23,34.17,19.56,37.71,26.87L152.66,156.4a232.13,232.13,0,0,1,.93-24.24C155.94,108.75,180.35,90.91,194,82.67Z"/></svg>