<svg id="图层_1" data-name="图层 1" xmlns="http://www.w3.org/2000/svg" viewBox="0 0 119.95 40"><defs><style>.cls-1{fill:#1d2974;}.cls-2{fill:#d61518;}</style></defs><path class="cls-1" d="M4.74,30.81a12.89,12.89,0,0,0,1.54-.06v1.13a13.66,13.66,0,0,0-1.6-.06H4.09v6.1c0,.52,0,1.17,0,2H2.9c.08-.79.12-1.44.12-2V34a14.17,14.17,0,0,1-.92,1.93c-.3.49-.66,1-1.1,1.63a5,5,0,0,0-.95-1.13,8.07,8.07,0,0,0,1.69-2A13.26,13.26,0,0,0,2.9,31.82H2.49c-.72,0-1.41,0-2.08.06V30.75c.67,0,1.36.06,2.08.06H3V28.44l-1,.21-1.16.26a6.44,6.44,0,0,0-.59-1l1.34-.24c.45-.08.9-.18,1.36-.3A12.35,12.35,0,0,0,4.29,27a8.87,8.87,0,0,0,1.16-.54,4.85,4.85,0,0,0,.83,1.25,6,6,0,0,0-1.21.21l-1,.26v2.67Zm-.53,2.61a6.79,6.79,0,0,1,1.06-.48l.51.89c.21.4.46.81.74,1.25a8.3,8.3,0,0,0-1.19.53c-.16-.39-.34-.79-.53-1.18A8.76,8.76,0,0,0,4.21,33.42ZM5.27,36l3.26-.65,2-.42V28.32c0-.75,0-1.36-.06-1.84h1.24c0,.44-.06,1-.06,1.78v6.46l2.2-.59.23,1.13c-1.22.23-2,.41-2.43.53v2q0,1.13.06,2.25H10.49q.06-1.12.06-2.25V36c-.87.16-1.66.31-2.37.47s-1.51.38-2.37.65Zm1.42-3.8.95-.71a7.91,7.91,0,0,1,.77.92c.28.38.56.72.83,1a10.27,10.27,0,0,0-1.06.71c-.24-.4-.47-.74-.68-1A9.05,9.05,0,0,0,6.69,32.23Zm.36-4,1-.65c.16.2.38.5.68.92s.58.82.86,1.21c-.4.2-.75.4-1.07.6-.23-.4-.48-.79-.74-1.19A4.18,4.18,0,0,0,7.05,28.26Z" transform="translate(-0.03)"/><path class="cls-1" d="M36.44,31.22a7.48,7.48,0,0,0-.83-.71,7.44,7.44,0,0,0,1.33-1.83,8.25,8.25,0,0,0,1-2.55,11.44,11.44,0,0,0,1.25.41,14.91,14.91,0,0,0-1.07,2h1.3c.52,0,1,0,1.49-.06v1c-.56,0-1.13-.06-1.72-.06H37.69A13.38,13.38,0,0,1,36.44,31.22Zm4.09,4.87A3.9,3.9,0,0,0,41,37.15c-.36.28-.81.66-1.37,1.13s-1.09,1-1.6,1.48c-.2-.35-.39-.69-.59-1a3,3,0,0,0,.47-1.36V34.78c-.51,0-1.08,0-1.72.06v-1c.67,0,1.25.06,1.72.06V32.06c-.2,0-.51,0-1,0V31.05c.6,0,1.18.06,1.75.06s1.22,0,1.93-.06v1.06c-.55,0-1.11,0-1.66,0v1.83c.59,0,1.24,0,2-.06v1c-.72,0-1.37-.06-2-.06v2.85A16.5,16.5,0,0,0,40.53,36.09Zm5.1-6.58a18.68,18.68,0,0,0,1.42-3.32,6.79,6.79,0,0,0,1.36.59,2.47,2.47,0,0,0-.85,1c-.22.45-.51,1-.86,1.69h1.66q-.06.64-.06,2.13t.06,2.07H46.52v4c0,.55.19.82.68.8s.79-.14.89-.36a4.18,4.18,0,0,0,.21-1.27,8.28,8.28,0,0,0,1.18.47c-.24,1-.51,1.64-.83,1.84a2.92,2.92,0,0,1-1.54.27,1.91,1.91,0,0,1-1.39-.42,1.45,1.45,0,0,1-.27-1.1V33.71H44.33a9.46,9.46,0,0,1-.63,3.18,5.73,5.73,0,0,1-1.09,1.75,11.24,11.24,0,0,1-1.43,1.18,3.45,3.45,0,0,0-1.12-.89,5.58,5.58,0,0,0,2.25-1.75,5.45,5.45,0,0,0,.77-1.72,11,11,0,0,0,.24-1.75H42q.06-.83.06-2.13T42,29.51Zm-1.19-1.13a4.36,4.36,0,0,0-.89.53c-.23-.43-.69-1.16-1.36-2.19a5.08,5.08,0,0,1,.89-.59C43.71,27.16,44.17,27.91,44.44,28.38Zm-1.36,2v2.43h4.15V30.4Z" transform="translate(-0.03)"/><path class="cls-1" d="M72.29,26.18h11.8c0,.94-.06,2-.06,3.14v6c0,1.18,0,2.33.06,3.43H83V38H73.42v.89H72.29c0-1.18.06-2.39.06-3.61v-6C72.35,28.21,72.33,27.17,72.29,26.18Zm1.13.83V37.2H83V27Zm1.3,1.54c.59,0,1.25.06,2,.06h3.26c.59,0,1.2,0,1.84-.06v.95c-.6,0-1.21-.06-1.84-.06H78.57v1.89h1c.67,0,1.31,0,1.9,0v.94c-.59,0-1.23-.06-1.9-.06h-1v2.61h1.55q1,0,1.95-.06v.95q-.88-.06-1.95-.06H76.26c-.63,0-1.26,0-1.9.06v-.95c.64,0,1.27.06,1.9.06h1.25V32.16h-.77c-.68,0-1.29,0-1.84.06v-.94c.55,0,1.16,0,1.84,0h.77V29.44h-.83c-.71,0-1.37,0-2,.06Zm4.57,4.68a7.58,7.58,0,0,1,.89-.59c.15.16.51.55,1.06,1.19a9.17,9.17,0,0,0-.95.59C80.18,34.26,79.84,33.86,79.29,33.23Z" transform="translate(-0.03)"/><path class="cls-1" d="M107.05,26.18h4.5A18.48,18.48,0,0,0,111,28c-.26.91-.54,1.81-.86,2.72a7.53,7.53,0,0,1,1,1.93,3.37,3.37,0,0,1,.12,1.45,1.81,1.81,0,0,1-.77,1.13,3.42,3.42,0,0,1-1.55.59,5.72,5.72,0,0,0-.47-1.3c.83,0,1.32-.14,1.48-.42a1.4,1.4,0,0,0,.12-1,4.88,4.88,0,0,0-.39-1.15,5.46,5.46,0,0,0-.74-1.16c.2-.51.4-1.09.6-1.75s.37-1.27.53-1.87h-1.84V38.45h-1.18c0-1.07.06-2.12.06-3.14v-6.7Q107.11,27.37,107.05,26.18Zm4.8,11.14-1.13-.53a22.92,22.92,0,0,0,1.13-2.19c.32-.72.61-1.47.89-2.26l1.18.42a17.24,17.24,0,0,0-1,2.22C112.59,35.75,112.24,36.53,111.85,37.32Zm-.36-7.59c.83,0,1.52.06,2.08.06h4.21q.94,0,1.83-.06V30.8q-.89-.06-1.83-.06h-1.84v6.35c0,.59-.21.93-.62,1s-1,.21-1.69.33a2.9,2.9,0,0,0-.48-1.36,9.24,9.24,0,0,0,1.4-.06c.17,0,.26-.18.26-.42V30.74h-1.24c-.83,0-1.52,0-2.08.06Zm1.07-3.38c.47,0,1,.06,1.72.06h2.9c.6,0,1.13,0,1.61-.06v1.07c-.48,0-1-.06-1.61-.06h-2.9c-.63,0-1.21,0-1.72.06Zm4.15,6.58c.24-.11.59-.31,1.07-.59l2.13,4.15a8.2,8.2,0,0,0-1.18.6C118.13,35.7,117.46,34.32,116.71,32.93Z" transform="translate(-0.03)"/><rect class="cls-1" x="82.27" width="37.68" height="13.74"/><path class="cls-1" d="M71.94,8.6V6.7A3.75,3.75,0,0,0,73.54,6a2.85,2.85,0,0,0,.8-2.13A2.36,2.36,0,0,0,73.61,2a3,3,0,0,0-1.67-.66V.39h.58a3.94,3.94,0,0,1,2.76.88,3.09,3.09,0,0,1,.87,2.35,3.4,3.4,0,0,1-.36,1.76A4.28,4.28,0,0,1,74.56,6.7,6.86,6.86,0,0,1,73,7.35l3.14,4a3.58,3.58,0,0,0,.72.88,1.65,1.65,0,0,0,.58.37,10.06,10.06,0,0,0,1.75.44v.58c-1-.07-1.67-.07-2.11-.07a12.55,12.55,0,0,0-1.61.07c-.29-.44-.65-1-1.15-1.76a4.69,4.69,0,0,0-.88-1.24c-.07-.07-.07-.15-.14-.29Zm0-8.21v1H71.5c-.29,0-1,0-2,.08V6.63c.65.07,1.09.14,1.45.14s.65-.07,1-.07V8.6l-.73-1a12.19,12.19,0,0,1-1.67-.15l.07,4.76a.57.57,0,0,0,.14.37,3.29,3.29,0,0,0,1.39.44c.14,0,.29.08.5.08v.58c-1.09-.07-2.1-.07-3-.07s-1.9,0-3.06.07v-.58L66,13a5.79,5.79,0,0,0,1.53-.36.88.88,0,0,0,.22-.59c0-.22.07-1.83.07-4.83l-.07-4.41V1.64c-.08-.15-.15-.22-.22-.22A4.22,4.22,0,0,0,66,1,2.64,2.64,0,0,0,65.6.91V.32c1.68.07,3,.14,3.94.14a11.28,11.28,0,0,0,1.6-.07ZM40.71,13.66h0v-.58l1.46-.3a1.18,1.18,0,0,0,.44-.22,1.41,1.41,0,0,0,.14-.73v-.15l.08-2.19V3a8.3,8.3,0,0,0-.15-1.4c0-.07-.07-.14-.15-.22a7.82,7.82,0,0,0-.86-.22l-1-.21V.32c1.17.07,2.55.14,4.15.14.87,0,3-.07,6.33-.14a22.65,22.65,0,0,0,.22,3.23h-.66a8,8,0,0,0-.57-1.69,1,1,0,0,0-.44-.37,4.64,4.64,0,0,0-1.31-.15H44.65l-.08,3V6.18h3.79a.69.69,0,0,0,.36-.29,7.76,7.76,0,0,0,.36-1.24.81.81,0,0,1,.07-.37h.59c-.08,1-.08,1.83-.08,2.42s0,1.31.08,2.34h-.59c-.22-.88-.28-1.39-.36-1.54a.47.47,0,0,0-.29-.28,5.05,5.05,0,0,0-1.38-.08H44.57v5.5h4.3c.51,0,.87-.08,1-.08a1.08,1.08,0,0,0,.58-.44,6.82,6.82,0,0,0,1-1.61,2.56,2.56,0,0,0,.22-.37h.65c-.07.23-.51,1.4-1.17,3.52-2.26-.07-4.37-.07-6.18-.07-1.32,0-2.76,0-4.3.07M57,6.18H60.8a.69.69,0,0,0,.36-.29,3.4,3.4,0,0,0,.36-1.24c0-.08.07-.23.07-.37h.66c-.07,1-.14,1.83-.14,2.42S62.18,8,62.25,9h-.66c-.14-.88-.28-1.39-.28-1.54a.62.62,0,0,0-.37-.28,4.74,4.74,0,0,0-1.38-.08H57l.08,5.5h4.22c.51,0,.87-.08,1-.08a1.6,1.6,0,0,0,.65-.44,7.82,7.82,0,0,0,1-1.61,1.89,1.89,0,0,0,.22-.37h.66c-.08.23-.45,1.4-1.17,3.52-2.26-.07-4.29-.07-6.19-.07-1.31,0-2.76,0-4.29.07v-.58l1.45-.3a1,1,0,0,0,.51-.22c.08-.07.08-.37.08-.73v-.15l.06-2.19V3c0-.81-.06-1.32-.06-1.4L55,1.34c-.06,0-.36-.14-.8-.22l-1-.21V.32c1.16.07,2.54.14,4.14.14.88,0,3-.07,6.34-.14a24.23,24.23,0,0,0,.21,3.23H63.2a7.14,7.14,0,0,0-.59-1.69.56.56,0,0,0-.36-.37,4.8,4.8,0,0,0-1.38-.15H57.09l-.08,3Zm-16.3,6.9h0A9.9,9.9,0,0,1,39,12.64a1.56,1.56,0,0,1-.58-.37,3.53,3.53,0,0,1-.73-.88l-3.13-4a6.76,6.76,0,0,0,1.6-.65,3.7,3.7,0,0,0,1.24-1.32,3.53,3.53,0,0,0,.43-1.76,3.16,3.16,0,0,0-.94-2.35A3.84,3.84,0,0,0,34.09.39h-.58v1A2.76,2.76,0,0,1,35.18,2a2.33,2.33,0,0,1,.74,1.84A2.85,2.85,0,0,1,35.11,6a3.35,3.35,0,0,1-1.6.73V8.6l1.31,1.77c.08.14.15.22.15.29a5,5,0,0,1,.87,1.24c.51.74.87,1.32,1.16,1.76a12.47,12.47,0,0,1,1.61-.07c.43,0,1.16,0,2.1.07h-.06v-.58ZM33.51.39v1h-.44c-.29,0-.94,0-2,.08V6.63c.66.07,1.09.14,1.45.14s.66-.07.95-.07V8.6l-.73-1a12.34,12.34,0,0,1-1.67-.15l.07,4.76a.53.53,0,0,0,.15.37,3.16,3.16,0,0,0,1.38.44c.15,0,.29.08.51.08v.58c-1.09-.07-2.11-.07-3-.07s-1.89,0-3,.07v-.58l.43-.08a5.46,5.46,0,0,0,1.45-.36.83.83,0,0,0,.22-.59c0-.22.08-1.83.08-4.83l-.08-4.41V1.64c-.07-.15-.14-.22-.22-.22A4.16,4.16,0,0,0,27.62,1a2.89,2.89,0,0,0-.43-.07V.32c1.67.07,3,.14,3.92.14a11.14,11.14,0,0,0,1.6-.07ZM11.8,11.26l.44.73a15.61,15.61,0,0,1-2.88,1.38,9.45,9.45,0,0,1-2.81.43,6.73,6.73,0,0,1-3.38-.87,5.63,5.63,0,0,1-2.3-2.39A7.79,7.79,0,0,1,.08,7.06a6.9,6.9,0,0,1,2-5A7.37,7.37,0,0,1,7.41,0,13.87,13.87,0,0,1,12,.9c0,.58-.07.94-.07,1.23,0,.8.07,1.59.14,2.46H11.3a9.75,9.75,0,0,0-.72-2.17,2.65,2.65,0,0,0-1.29-1,6.09,6.09,0,0,0-2.16-.36,4.78,4.78,0,0,0-4,1.88,6.85,6.85,0,0,0-1,3.76A6.28,6.28,0,0,0,3.53,11,5.24,5.24,0,0,0,7.41,12.5a6.37,6.37,0,0,0,2-.29,13,13,0,0,0,2.37-1m7.45-1.85V8.53h2.33L19.25,2.88V.32L19.32.1h.58c.88,2.2,1.9,4.62,3.13,7.4l2.18,4.77a.85.85,0,0,0,.3.37,8.61,8.61,0,0,0,1.38.44v.58c-1.09-.07-2-.07-2.48-.07s-1.52,0-2.83.07v-.58c.8-.14,1.24-.23,1.31-.37s.22-.15.22-.29a1.77,1.77,0,0,0-.22-.66l-.95-2.27c-1.16-.08-2.11-.08-2.69-.08m0-9.09V2.88L16.92,8.53h2.33v.88H19.1l-2.54.08-1,2.34a2.28,2.28,0,0,0-.22.73c0,.08,0,.15.14.15a5.45,5.45,0,0,0,1,.29.39.39,0,0,0,.29.08v.58c-1-.07-1.75-.07-2.19-.07s-1.3,0-2.19.07v-.58a2.94,2.94,0,0,0,1.18-.37,5.29,5.29,0,0,0,.5-.59c.36-.66,1.24-2.63,2.7-6Z" transform="translate(-0.03)"/><path class="cls-1" d="M110.9,21v-.35h1l-1-2.36V17.07h.29c.37.93.81,2,1.33,3.14l1,2,.14.13a4.17,4.17,0,0,0,.59.15v.28a7.57,7.57,0,0,0-1.1-.07,9,9,0,0,0-1.17.07v-.28c.29,0,.51-.07.51-.15a.14.14,0,0,0,.15-.13s-.07-.15-.15-.29l-.37-.93Zm4-3.56v-.22h2.77v.22c-.5.07-.8.14-.87.14s-.08.07-.15.07a2.86,2.86,0,0,0-.07.36v4.28h2.35l.22-.22c.07-.14.22-.36.51-.85h.29l-.29.92a4.57,4.57,0,0,0-.22.64c-1.1-.07-2-.07-2.86-.07a12.86,12.86,0,0,0-1.68.07v-.28c.43-.07.65-.07.72-.15a.32.32,0,0,0,.16-.06c.06-.07.06-.22.06-.44V17.92a.39.39,0,0,0-.06-.28c-.08-.07-.23-.07-.6-.14-.07,0-.14-.07-.28-.07m-4-.22v1.07l-1,2.36h1V21h-1.17l-.45,1a.73.73,0,0,0-.07.29v.06c.07.08.22.08.52.15h.07v.28a5.59,5.59,0,0,0-1-.07,4.37,4.37,0,0,0-.88.07v-.28a1,1,0,0,0,.5-.15c.08-.06.08-.13.16-.28a13.57,13.57,0,0,0,1.17-2.42ZM97.25,22.85v-.36a3,3,0,0,0,1.1-.28,1.85,1.85,0,0,0,.66-.94A3.26,3.26,0,0,0,99.23,20a2.73,2.73,0,0,0-.29-1.42,1.74,1.74,0,0,0-.74-.86,2.11,2.11,0,0,0-1-.28v-.36h.14a2.94,2.94,0,0,1,2,.72,3,3,0,0,1,.74,2,3.18,3.18,0,0,1-.81,2.28,3.05,3.05,0,0,1-2,.79m3.89-5.42v-.22h1.62l1.17,1.36c.07.14.88,1.07,2.42,2.85V18.5a5.39,5.39,0,0,1-.07-.79l-.08-.07c-.07-.07-.21-.14-.58-.14a.29.29,0,0,0-.15-.07v-.22h2.27v.22a.29.29,0,0,0-.22.07c-.37.07-.51.07-.58.14a.07.07,0,0,0-.07.07.45.45,0,0,1-.08.21v3a12.7,12.7,0,0,0,.08,1.85l-.3.08-1.69-2-2.2-2.57v2.28c0,1,.08,1.57.08,1.65s0,.07.06.13.23.08.59.15h.23v.28a6.82,6.82,0,0,0-1.11-.07,9.13,9.13,0,0,0-1.17.07v-.28h.15c.37-.07.51-.15.58-.15s.08-.06.08-.13.07-.58.07-1.36V17.79c-.07-.08-.07-.15-.15-.15s-.29-.07-.73-.14c-.07,0-.15-.07-.22-.07m-3.89-.36v.36a1.79,1.79,0,0,0-1.1.36,2,2,0,0,0-.74.85,3.74,3.74,0,0,0-.21,1.28,2.84,2.84,0,0,0,.58,1.92,1.84,1.84,0,0,0,1.47.65v.36H97.1a2.75,2.75,0,0,1-2-.72A3.15,3.15,0,0,1,94.31,20a2.63,2.63,0,0,1,.89-2.07,3,3,0,0,1,2-.85M80.82,21v-.35h1l-1-2.36V17.21l.07-.14h.21c.37.93.81,2,1.33,3.14l.95,2,.15.13a4.23,4.23,0,0,0,.58.15v.28A7.52,7.52,0,0,0,83,22.7a9.09,9.09,0,0,0-1.18.07v-.28a.93.93,0,0,0,.59-.15.21.21,0,0,0,.07-.13.81.81,0,0,1-.07-.29L82,21Zm3.88-2.28h-.29c.07-.43.07-.92.15-1.5H89.4a9,9,0,0,0,.14,1.5h-.29c-.15-.43-.22-.71-.29-.86a.17.17,0,0,0-.15-.14c-.07-.07-.22-.07-.51-.07h-1v4.49c0,.08.07.15.07.21s.3.08.66.15h.23v.28a11.44,11.44,0,0,0-1.47-.07,6.68,6.68,0,0,0-1.18.07v-.28h.23a4.23,4.23,0,0,0,.58-.15c.07-.06.07-.06.07-.13v-.87a17.22,17.22,0,0,0,.08-1.84,13.35,13.35,0,0,0-.08-1.86H85.44c-.15,0-.22,0-.3.07a.88.88,0,0,0-.22.29,2.88,2.88,0,0,1-.22.71m8.43-1.5v.22a.34.34,0,0,0-.21.07,1.1,1.1,0,0,0-.66.14,1.38,1.38,0,0,0-.08.36v4a1.09,1.09,0,0,0,.08.35c.08.08.29.08.59.15h.28v.28a7.73,7.73,0,0,0-1.24-.07,9.79,9.79,0,0,0-1.39.07v-.28h.22a4.72,4.72,0,0,0,.59-.15.57.57,0,0,0,.15-.42l-.08-.22.08-1.42a13.67,13.67,0,0,0-.08-2.43.27.27,0,0,0-.07-.21c0-.07-.23-.07-.59-.14-.07,0-.15-.07-.22-.07v-.22h2.63Zm-12.31,0v1.07l-1,2.36h1V21H79.64l-.44,1a.73.73,0,0,0-.07.29v.06c.07.08.21.08.51.15h.15v.28a6.84,6.84,0,0,0-1-.07,4.37,4.37,0,0,0-.88.07v-.28a1,1,0,0,0,.51-.15.75.75,0,0,0,.22-.28c.15-.22.52-1.07,1.11-2.42ZM67.17,20.64v-.79a1.36,1.36,0,0,0,.65-.28,1.25,1.25,0,0,0,.38-.93.84.84,0,0,0-.3-.72,1,1,0,0,0-.73-.28v-.43h.21a2,2,0,0,1,1.26.36,1.51,1.51,0,0,1,.36,1,2.18,2.18,0,0,1-.14.71,1.5,1.5,0,0,1-.6.57,3.19,3.19,0,0,1-.65.29l1.32,1.64c.14.21.29.35.29.43a.7.7,0,0,1,.3.13,5,5,0,0,1,.73.15v.28a4.79,4.79,0,0,0-.88-.07,2.84,2.84,0,0,0-.73.07A5.88,5.88,0,0,0,68.2,22c-.23-.29-.38-.43-.38-.5a.07.07,0,0,1-.07-.07Zm3.66-3.21v-.22h1.69l1.1,1.36c.15.14,1,1.07,2.42,2.85V18.5a4.78,4.78,0,0,0-.07-.79.07.07,0,0,0-.07-.07.84.84,0,0,0-.59-.14.29.29,0,0,0-.15-.07v-.22h2.27v.22c-.07,0-.14,0-.14.07a2.28,2.28,0,0,0-.66.14l-.08.07v.21A9.73,9.73,0,0,1,76.48,19v1.93a14.5,14.5,0,0,0,.07,1.85l-.29.08-1.68-2-2.21-2.57.08,2.28v1.65c0,.07.07.07.07.13s.29.08.59.15h.22v.28a6.31,6.31,0,0,0-1-.07,9.52,9.52,0,0,0-1.25.07v-.28h.22a5,5,0,0,0,.52-.15c.07-.06.07-.06.07-.13a5.35,5.35,0,0,0,.07-1.36V17.79a.15.15,0,0,0-.14-.15c0-.07-.3-.07-.74-.14-.07,0-.14-.07-.22-.07M43.9,17.21v.22a.31.31,0,0,0-.21.07,1.14,1.14,0,0,0-.67.14A1.55,1.55,0,0,0,43,18v4a1.21,1.21,0,0,0,.07.35c.08.08.3.08.59.15h.29v.28a7.92,7.92,0,0,0-1.25-.07,9.72,9.72,0,0,0-1.39.07v-.28h.22a3.75,3.75,0,0,0,.58-.15.53.53,0,0,0,.15-.42V17.85c-.07-.06-.07-.14-.15-.21s-.21-.07-.58-.14c-.07,0-.15-.07-.22-.07v-.22H43.9Zm23.27,0v.43h-1v2.21h1v.79l-.37-.43a2.12,2.12,0,0,1-.66-.07v2c0,.08,0,.15.07.15a1.92,1.92,0,0,0,.59.21H67v.28a7.92,7.92,0,0,0-1.25-.07,8.16,8.16,0,0,0-1.31.07v-.28h.14c.36-.07.59-.15.66-.15s.07-.13.07-.28V17.71l-.07-.07a1.55,1.55,0,0,0-.66-.14c0-.07-.07-.07-.14-.07v-.22h2.71Zm-22.46.22v-.22h1.68l1.11,1.36c.14.14,1,1.07,2.42,2.85V18.5a4.2,4.2,0,0,0-.08-.79.07.07,0,0,0-.07-.07c-.07-.07-.22-.14-.59-.14a.24.24,0,0,0-.14-.07v-.22h2.27v.22c-.07,0-.14,0-.14.07a2.3,2.3,0,0,0-.67.14l-.07.07v.21A9.73,9.73,0,0,1,50.36,19v1.93a14.5,14.5,0,0,0,.07,1.85l-.29.08-1.69-2-2.2-2.57.08,2.28v1.65c0,.07.06.07.06.13s.3.08.59.15h.23v.28a6.43,6.43,0,0,0-1-.07,9.44,9.44,0,0,0-1.25.07v-.28h.22a5.29,5.29,0,0,0,.51-.15c.08-.06.08-.06.08-.13a5.35,5.35,0,0,0,.07-1.36V17.79a.15.15,0,0,0-.15-.15c0-.07-.29-.07-.73-.14-.07,0-.15-.07-.22-.07m7.85,1.28h-.3c0-.43.08-.92.08-1.5h4.92c0,.58.07,1.07.07,1.5H57a3.52,3.52,0,0,1-.21-.86c-.08-.06-.15-.14-.23-.14s-.22-.07-.51-.07H55.2c0,.71-.07,1.57-.07,2.57s.07,1.63.07,1.92a.24.24,0,0,0,.07.21,4,4,0,0,0,.67.15h.14v.28a10.29,10.29,0,0,0-1.39-.07,7.49,7.49,0,0,0-1.25.07v-.28h.22c.37-.07.59-.15.66-.15v-.13c.08,0,.08-.29.08-.87v-3.7H53.22c-.14,0-.22,0-.3.07a.39.39,0,0,0-.14.29,2,2,0,0,0-.22.71m7.41.93h1.61c.08-.07.15-.07.15-.14a.68.68,0,0,0,.15-.51c.07-.07.07-.07.07-.14h.29a7.18,7.18,0,0,0,0,2H62a4.58,4.58,0,0,0-.14-.64.17.17,0,0,0-.15-.15,4.2,4.2,0,0,0-.59-.07H60v2.35h1.84a2.84,2.84,0,0,0,.43-.06.56.56,0,0,0,.31-.15c.07-.07.21-.35.44-.71a.25.25,0,0,1,.06-.15h.3a10.77,10.77,0,0,0-.52,1.5c-.95-.07-1.9-.07-2.71-.07a17.44,17.44,0,0,0-1.84.07v-.28l.66-.07c.08-.08.15-.08.15-.14s.07-.15.07-.29v-.07l.08-.93V19.92a9.06,9.06,0,0,0-.08-1.64v-.57a.07.07,0,0,0-.07-.07c-.07-.07-.15-.07-.36-.14l-.45-.07v-.22h4.55a8.17,8.17,0,0,0,.08,1.36h-.29a1.83,1.83,0,0,0-.23-.72c-.07-.14-.15-.14-.15-.21H60v2Z" transform="translate(-0.03)"/><rect class="cls-2" y="17.07" width="38.05" height="5.63"/></svg>