<?xml version="1.0" encoding="UTF-8"?>
<svg width="128px" height="45px" viewBox="0 0 128 45" version="1.1" xmlns="http://www.w3.org/2000/svg" xmlns:xlink="http://www.w3.org/1999/xlink">
    <!-- Generator: Sketch 60.1 (88133) - https://sketch.com -->
    <title>logo-蓝-蓝字</title>
    <desc>Created with Sketch.</desc>
    <defs>
        <ellipse id="path-1" cx="22.40625" cy="22.5" rx="22.40625" ry="22.5"></ellipse>
        <linearGradient x1="-5.35023164%" y1="-17.2554348%" x2="97.1966743%" y2="117.379982%" id="linearGradient-3">
            <stop stop-color="#5F97FF" stop-opacity="0.143399004" offset="0%"></stop>
            <stop stop-color="#2672FF" stop-opacity="0.685999774" offset="100%"></stop>
        </linearGradient>
        <path d="M31.6206079,7.32773077 C30.8646555,5.85138462 30.0216634,4.42765385 29.0999048,3.06173077 C28.3201673,1.80969231 27.5693855,0.643326923 27.1274653,0 C26.0872983,2.60203846 25.6291766,4.67705769 25.4590615,6.42721154 C27.0628319,7.04198077 31.398786,7.48280769 31.7124735,7.50565385 C31.6842072,7.44957692 31.6531831,7.38986538 31.6206079,7.32773077" id="path-4"></path>
    </defs>
    <g id="页面-1" stroke="none" stroke-width="1" fill="none" fill-rule="evenodd">
        <g id="1-1" transform="translate(-375.000000, -10.000000)">
            <g id="编组">
                <g id="logo-蓝-蓝字" transform="translate(375.000000, 10.000000)">
                    <rect id="矩形" x="0" y="0" width="128" height="45"></rect>
                    <g id="Group-7">
                        <g id="Group-6" transform="translate(0.093750, 0.000000)">
                            <mask id="mask-2" fill="white">
                                <use xlink:href="#path-1"></use>
                            </mask>
                            <use id="Mask" fill="#2672FF" xlink:href="#path-1"></use>
                            <g mask="url(#mask-2)">
                                <g transform="translate(-14.650240, 8.653846)">
                                    <path d="M20.4547117,5.28680769 C20.0636365,7.57003846 19.857499,9.91661538 19.857499,12.312 L19.857499,12.312 C19.857499,13.9856538 19.9600507,15.6350769 20.1536062,17.2564615 L20.1536062,17.2564615 L20.1503314,17.2542115 C20.1804937,25.5956538 10.280723,25.1254038 10.280723,25.1254038 L10.280723,25.1254038 C10.2893408,25.1271346 10.2974415,25.1295577 10.305887,25.1314615 L10.305887,25.1314615 C10.1511115,25.1241923 9.99581895,25.1195192 9.83949227,25.1195192 L9.83949227,25.1195192 C7.71968866,25.1195192 5.76017592,25.8031731 4.16312736,26.9598462 L4.16312736,26.9598462 C1.71670957,28.7316346 0.122763419,31.6164808 0.122763419,34.8769038 L0.122763419,34.8769038 C0.122763419,37.7541346 1.41681053,42.0090577 2.5017901,46.1746731 L2.5017901,46.1746731 C3.2382663,46.3539808 4.00662832,46.4514231 4.79808602,46.4514231 L4.79808602,46.4514231 C5.27051318,46.4514231 5.73449491,46.4157692 6.18899707,46.3503462 L6.18899707,46.3503462 C6.19882135,46.3489615 6.2091627,46.34775 6.21898698,46.3463654 L6.21898698,46.3463654 C6.42719275,45.6064615 6.7036514,44.8959808 7.04233049,44.2216731 L7.04233049,44.2216731 C8.07474154,42.1662115 9.67954611,40.4522308 11.645436,39.2867308 L11.645436,39.2867308 C12.5051466,38.7770192 13.4332824,38.3708077 14.4139867,38.0890385 L14.4139867,38.0890385 C15.4593245,37.7885769 16.561712,37.6245 17.7030519,37.6245 L17.7030519,37.6245 C18.1889228,37.6245 18.6668653,37.6570385 19.1372242,37.7136346 L19.1372242,37.7136346 C19.8352651,37.7975769 20.5152086,37.9403654 21.1710223,38.1400962 L21.1710223,38.1400962 C24.1196848,39.0378462 26.5833382,41.0510769 28.0799033,43.6901538 L28.0799033,43.6901538 C28.4902824,44.4143077 28.8274103,45.1851923 29.0819798,45.9932885 L29.0819798,45.9932885 C29.1647105,46.3359808 29.3480971,46.3858269 29.4363432,46.4136923 L29.4363432,46.4136923 C30.7283221,46.8211154 32.5222009,46.3134808 33.521692,45.5955577 L33.521692,45.5955577 C33.7154199,45.4565769 33.8824326,45.3101538 34.0067012,45.1604423 L34.0067012,45.1604423 C34.0832271,45.0681923 34.2349002,44.8504615 33.9562009,44.3305385 L33.9562009,44.3305385 C33.7760891,43.8795 33.6168324,43.4177308 33.4796372,42.9466154 L33.4796372,42.9466154 C33.3274471,42.4242692 33.2016274,41.8908462 33.1052805,41.3470385 L33.1052805,41.3470385 C32.9510221,40.4755962 32.8703596,39.5787115 32.8703596,38.6629615 L32.8703596,38.6629615 C32.8703596,36.3979038 33.3653653,34.2498462 34.2486887,32.3179615 L34.2486887,32.3179615 C34.7033632,31.3234615 35.2588658,30.3848654 35.9069235,29.5196538 L35.9069235,29.5196538 C36.0918613,29.2725 36.284555,29.03175 36.4837983,28.7965385 L36.4837983,28.7965385 C36.6559817,28.5935192 36.8331634,28.3948269 37.0153435,28.2009808 L37.0153435,28.2009808 C37.9069399,28.3650577 38.8257685,28.4514231 39.7645903,28.4514231 L39.7645903,28.4514231 C44.1065769,28.4514231 48.0219829,26.6187115 50.7867418,23.6822885 L50.7867418,23.6822885 C53.3560492,20.9539038 54.931898,17.2720385 54.931898,13.2204808 L54.931898,13.2204808 C54.931898,9.45398077 53.569598,6.00767308 51.3138057,3.34903846 L51.3138057,3.34903846 C45.9314798,5.95903846 39.8943742,7.42257692 33.5166937,7.42257692 L33.5166937,7.42257692 C32.8870781,7.42257692 32.2610819,7.40596154 31.6383605,7.37775 L31.6383605,7.37775 C31.3245007,7.35490385 26.9887189,6.91407692 25.3849485,6.29948077 L25.3849485,6.29948077 C24.2239601,4.38005769 22.9138839,2.56205769 21.4657507,0.865384615 L21.4657507,0.865384615 C21.0505456,2.30815385 20.7123836,3.78363462 20.4547117,5.28680769" id="Clip-7-Copy-2" fill="none"></path>
                                    <path d="M19.857499,12.312 C19.857499,13.9856538 19.9600507,15.6350769 20.1536062,17.2564615 C20.1804937,25.5956538 10.280723,25.1254038 10.280723,25.1254038 C10.1511115,25.1241923 9.99581895,25.1195192 9.83949227,25.1195192 C7.71968866,25.1195192 5.76017592,25.8031731 4.16312736,26.9598462 C1.71670957,28.7316346 0.122763419,31.6164808 0.122763419,34.8769038 C0.122763419,37.7541346 1.41681053,42.0090577 2.5017901,46.1746731 C3.2382663,46.3539808 4.00662832,46.4514231 4.79808602,46.4514231 C5.27051318,46.4514231 5.73449491,46.4157692 6.18899707,46.3503462 C6.42719275,45.6064615 6.7036514,44.8959808 7.04233049,44.2216731 C8.07474154,42.1662115 9.67954611,40.4522308 11.645436,39.2867308 C12.5051466,38.7770192 13.4332824,38.3708077 14.4139867,38.0890385 C15.4593245,37.7885769 16.561712,37.6245 17.7030519,37.6245 C18.1889228,37.6245 18.6668653,37.6570385 19.1372242,37.7136346 C19.8352651,37.7975769 20.5152086,37.9403654 21.1710223,38.1400962 C24.1196848,39.0378462 26.5833382,41.0510769 28.0799033,43.6901538 C28.4902824,44.4143077 28.8274103,45.1851923 29.0819798,45.9932885 C29.1647105,46.3359808 29.3480971,46.3858269 29.4363432,46.4136923 C30.7283221,46.8211154 32.5222009,46.3134808 33.521692,45.5955577 C33.7154199,45.4565769 33.8824326,45.3101538 34.0067012,45.1604423 C34.0832271,45.0681923 34.2349002,44.8504615 33.9562009,44.3305385 C33.7760891,43.8795 33.6168324,43.4177308 33.4796372,42.9466154 C33.3274471,42.4242692 33.2016274,41.8908462 33.1052805,41.3470385 C32.9510221,40.4755962 32.8703596,39.5787115 32.8703596,38.6629615 C32.8703596,36.3979038 33.3653653,34.2498462 34.2486887,32.3179615 C34.7033632,31.3234615 35.2588658,30.3848654 35.9069235,29.5196538 C36.0918613,29.2725 36.284555,29.03175 36.4837983,28.7965385 C36.6559817,28.5935192 36.8331634,28.3948269 37.0153435,28.2009808 C37.9069399,28.3650577 38.8257685,28.4514231 39.7645903,28.4514231 C44.1065769,28.4514231 48.0219829,26.6187115 50.7867418,23.6822885 C53.3560492,20.9539038 54.931898,17.2720385 54.931898,13.2204808 C54.931898,9.45398077 53.569598,6.00767308 51.3138057,3.34903846 C45.9314798,5.95903846 39.8943742,7.42257692 33.5166937,7.42257692 C32.8870781,7.42257692 32.2610819,7.40596154 31.6383605,7.37775 C31.3245007,7.35490385 26.9887189,6.91407692 25.3849485,6.29948077 C24.2239601,4.38005769 22.9138839,2.56205769 21.4657507,0.865384615 C21.0505456,2.30815385 20.7123836,3.78363462 20.4547117,5.28680769 C20.0636365,7.57003846 19.857499,9.91661538 19.857499,12.312 Z" id="Fill-6-Copy-2" fill="#FFFFFF" fill-rule="evenodd"></path>
                                    <g id="Fill-11-Copy-2" fill="none" fill-rule="evenodd">
                                        <use fill="#FFFFFF" xlink:href="#path-4"></use>
                                        <use fill="url(#linearGradient-3)" xlink:href="#path-4"></use>
                                    </g>
                                    <path d="M40.5982752,6.795 C38.2709552,7.20744231 35.8757271,7.42257692 33.4305158,7.42257692 C32.8007278,7.42257692 32.174904,7.40596154 31.5521826,7.37775 C31.2383228,7.35490385 26.9025411,6.91407692 25.2987706,6.29930769 C24.1377822,4.38005769 22.827706,2.56205769 21.3795728,0.865384615 C20.9641954,2.30815385 20.6260334,3.78363462 20.3685339,5.28680769 C19.9774586,7.57003846 19.7713211,9.91661538 19.7713211,12.312 C19.7713211,13.9856538 19.8738728,15.6350769 20.0674283,17.2564615 L20.0641536,17.2542115 C20.0641536,17.2542115 26.3208403,25.0331538 36.5551536,20.187 C44.5750399,16.3893462 40.5982752,6.795 40.5982752,6.795" id="Fill-13-Copy-2" fill="#E9F0FF" fill-rule="evenodd"></path>
                                    <path d="M51.3068873,3.25049955 C52.3209071,4.4458513 53.1268841,5.75533073 53.8226584,7.17956591 C48.9415375,10.1217388 46.9747071,5.0695401 46.9747071,5.0695401 C48.4306753,4.52236902 49.9176929,3.92425499 51.3068873,3.25049955 Z" id="Fill-15-Copy-2" fill="#445495" fill-rule="evenodd"></path>
                                    <path d="M37.4722586,11.8471154 C37.4722586,13.0274633 36.5192852,13.9846154 35.3435421,13.9846154 C34.1680445,13.9846154 33.2150711,13.0274633 33.2150711,11.8471154 C33.2150711,10.6667675 34.1680445,9.70961538 35.3435421,9.70961538 C36.5192852,9.70961538 37.4722586,10.6667675 37.4722586,11.8471154" id="Fill-21-Copy-2" fill="#445495" fill-rule="evenodd"></path>
                                </g>
                            </g>
                        </g>
                        <path d="M32.9446496,29.635996 L36.3293201,30.8303675 C36.0117946,31.7396058 35.2497025,32.1946568 34.0430438,32.1955205 C32.8363851,32.1963833 32.4702537,31.3432085 32.9446496,29.635996 Z" id="Path-97" fill="#BCD2FF" transform="translate(34.536578, 30.915758) rotate(-10.000000) translate(-34.536578, -30.915758) "></path>
                    </g>
                    <g id="Group-5" transform="translate(50.812500, 5.625000)" fill="#2672FF">
                        <path d="M69.1559992,11.7260945 L71.4313994,5.93583232 C71.4994546,5.75297916 71.3657,5.55797101 71.1725278,5.55876373 L69.1240656,5.55929221 L67.9529923,8.97352017 L66.9449898,5.55797101 L64.5635805,5.55797101 L66.5641423,12.2965858 L64.6167159,16.5376166 C64.4709207,16.8422838 64.0440051,16.8520606 63.8848605,16.5539994 L61.6955764,12.034461 L63.476791,5.91786409 C63.5288794,5.73844603 63.3951247,5.55929221 63.2100668,5.55982069 L61.3092321,5.56721937 L60.5048718,9.0509421 L59.5204268,5.55797101 L57.1709511,5.55797101 L59.4332638,11.7260945 C59.4332638,11.7260945 58.7432885,13.8487238 56.5257353,16.1407301 L56.5257353,19.3115942 C58.4242142,17.6886402 60.4480718,14.3013646 60.4480718,14.3013646 L62.2722135,17.8627735 C63.0990845,19.3018174 65.1569697,19.305781 65.9888139,17.8683225 L67.8807491,14.3185401 C67.8807491,14.3185401 69.6051637,17.4769851 71.9761029,19.1998212 L71.9761029,16.1890857 C69.5894587,14.3668958 69.1559992,11.7260945 69.1559992,11.7260945" id="Fill-1"></path>
                        <path d="M37.0665293,9.66646231 L39.4458389,9.6640943 L44.8767745,12.8803693 L44.5525985,12.8737915 L31.6392806,12.8803693 C36.7036418,9.86747949 33.6233114,11.70926 37.0665293,9.66646231 M76.0758835,1.0300905 C76.0474424,0.973784636 76.0071508,0.92353034 75.9573789,0.880643166 C75.9065536,0.837755992 75.8475646,0.803551497 75.7801486,0.778292793 C75.7532876,0.769083891 75.7201063,0.756454539 75.6929819,0.750929198 L52.4905653,0.750929198 L52.4905653,19.1179535 C52.4905653,20.2424921 51.5778163,21.1536472 50.452549,21.1536472 L34.2711368,21.1536472 C33.9466974,21.1536472 33.6762435,21.1457539 33.4492413,21.1273361 C32.4993609,21.016303 32.3158104,20.5587521 32.3121235,19.5883969 L32.3121235,17.8434414 L32.3121235,15.0363049 L43.2548411,15.0363049 L43.2548411,15.2175887 L43.2453607,15.2175887 L43.2453607,15.6769814 C43.2448341,15.8651061 43.2358804,16.0219205 43.217183,16.1568967 C43.2121794,16.1892595 43.2082293,16.2210959 43.2021724,16.2503013 C43.2016457,16.2534587 43.2008557,16.2558267 43.2008557,16.258984 C43.099205,16.731006 42.8197974,16.8507218 42.0990259,16.889136 C41.9404931,16.8951876 41.7632628,16.8970294 41.5594349,16.8970294 L39.3399748,16.8988712 L39.3399748,16.9072907 L35.2202272,16.9072907 L35.2202272,19.1937297 L41.9070484,19.1937297 C42.0015888,19.1937297 42.0932324,19.1918879 42.1840859,19.1900461 L42.4740273,19.1900461 C45.0026527,19.2689795 46.230624,18.2502118 46.161628,15.4357081 L46.160048,15.2175887 L46.1547811,15.2175887 L46.1605746,13.710486 L50.0572702,16.0187632 L50.0570069,13.5007862 L50.0570069,13.4881568 L43.6543334,9.73302952 L50.1088856,9.73302952 L50.1088856,8.24829133 L50.1057255,8.24829133 L50.1057255,8.15067697 C50.1057255,8.08779332 50.0920316,8.02859323 50.0630638,7.97228737 C50.033306,7.9157184 49.9940678,7.86625344 49.9429791,7.82284004 C49.8916271,7.77995287 49.8334282,7.7462746 49.7662755,7.71970033 C49.6991229,7.69575719 49.6306536,7.68391717 49.5595508,7.68391717 L49.404178,7.68391717 L49.404178,7.68181228 L38.1831063,7.68181228 L38.9565465,5.54113713 L48.659969,5.55271404 L48.659969,4.00903888 C48.6589156,3.94799701 48.644695,3.89037559 48.6162539,3.8356484 C48.5872861,3.77986876 48.5475212,3.7304038 48.4966959,3.6869904 C48.4466606,3.64384012 48.387935,3.60963562 48.320519,3.58464003 C48.2533664,3.56017066 48.184107,3.5472782 48.1140576,3.5472782 L47.9592116,3.5472782 L47.9592116,3.54622575 L45.6570616,3.54622575 C45.623617,3.53938485 45.5830621,3.52780795 45.5572544,3.5062328 C45.5101159,3.44940072 45.5559377,3.39704153 45.5559377,3.39704153 L45.5530409,3.39704153 C46.4257617,2.34117509 47.0527828,1.58209842 47.3000625,1.28346687 C47.3100696,1.26557529 47.3256068,1.22716101 47.2905821,1.18506317 C47.2574008,1.15691024 47.202362,1.14612267 47.1665473,1.14164977 L44.1028076,1.14164977 C44.1028076,1.14164977 43.959812,1.31451403 42.1129832,3.54622575 L39.677318,3.54622575 L40.9231967,0.0942028986 L38.02352,0.0942028986 L36.7771147,3.54622575 L35.8764795,3.54622575 L35.5612572,3.5404373 C35.427742,3.5404373 35.2015298,3.50254924 35.0429969,3.42335268 C34.8834107,3.33152677 34.747262,3.18997278 34.6250706,3.06736283 L34.5431707,2.97922047 C33.9158862,2.22067003 33.5161306,1.73786043 33.2675342,1.4373871 L33.2448867,1.41344395 C33.1237486,1.29083399 32.9870733,1.14901689 32.8280137,1.05640165 C32.6692175,0.97799442 32.4430053,0.939843253 32.3092268,0.939843253 L32.007435,0.934844135 L29.5380618,0.934844135 C29.5380618,0.934844135 30.386555,1.96361009 31.6956361,3.54622575 L27.5585078,3.54622575 L27.5585078,5.55271404 L36.0521297,5.55271404 L35.2831663,7.68181228 L26.41902,7.68181228 L26.41902,9.73302952 L32.8672519,9.73302952 C26.9888956,13.2134684 30.5864328,11.4758801 23.3639706,15.7511788 L23.3639706,18.3836093 C23.4350734,18.3407222 29.3958563,14.366423 29.3958563,14.366423 L29.4111302,17.8434414 L29.3976997,17.8434414 L29.3958563,19.3471237 C29.3265969,22.1611011 30.5553582,23.5284916 33.0839837,23.4490319 L33.3755051,23.4490319 C33.4682021,23.4508737 33.5622157,23.4521892 33.6585995,23.4521892 C33.6585995,23.4521892 50.6666474,23.4565217 51.7152817,23.4565217 C53.2242406,23.4565217 55.3852384,22.1934638 55.3876085,19.300816 L55.3991956,3.19918169 L73.2093882,3.19918169 L73.2093882,19.6018156 C73.2041213,20.7345106 72.9592117,21.1675921 71.5274125,21.1665397 L70.9809744,21.1675921 L70.977551,23.4532417 L72.4391081,23.4532417 C74.9622033,23.5327014 76.1878045,22.1684682 76.1185452,19.3605423 L76.1185452,1.30056912 L76.1198619,1.30556824 L76.1198619,1.20821698 C76.1198619,1.14559644 76.1056413,1.08665947 76.0758835,1.0300905" id="Fill-3"></path>
                        <path d="M0.753676471,0.0942028986 L0.753676471,1.95332263 C1.00006226,2.87568877 4.1810834,3.4548489 5.23705988,5.74637681 L6.59466912,2.97221546 C5.45647676,0.826916331 2.0796038,1.24310593 0.753676471,0.0942028986" id="Fill-5"></path>
                        <polygon id="Fill-7" points="1.13051471 23.0797101 3.95680147 23.0797101 3.95680147 5.60561097 1.13051471 4.05072464"></polygon>
                        <path d="M14.9422941,14.4747542 C15.0111763,15.8356307 14.5205556,16.4754105 13.4675291,16.3946183 L9.86559769,16.3946183 L9.86559769,8.35107265 L14.9422941,8.35107265 L14.9422941,14.4747542 Z M17.57618,6.48131029 C17.4143993,6.31867664 17.1586642,6.3115942 17.1586642,6.3115942 L7.15992647,6.3115942 L7.15992647,18.5544981 L14.2043838,18.5544981 C16.5220978,18.635028 17.7780761,17.3150723 17.7086661,14.594631 L17.7086661,6.88186123 C17.7086661,6.88186123 17.7395443,6.64263238 17.57618,6.48131029 L17.57618,6.48131029 Z" id="Fill-9"></path>
                        <path d="M24.0727397,0.939977088 C24.044302,0.883443044 24.0040154,0.833249266 23.9537228,0.789924111 C23.903167,0.746863134 23.8439218,0.711991667 23.7770407,0.686894779 C23.7499196,0.677384379 23.7170056,0.665232201 23.6893579,0.65942029 L7.53676471,0.65942029 L7.53676471,3.15854205 L20.5111856,3.15854205 L20.5111856,3.16091965 L20.6665395,3.16091965 C20.7381603,3.16091965 20.8058314,3.17307183 20.8737658,3.19816872 C20.9403837,3.22300143 20.9996288,3.25787289 21.0493947,3.30066969 C21.1004772,3.34425903 21.1402373,3.39392445 21.1686749,3.45019431 C21.1897399,3.48902845 21.1994824,3.53076853 21.2060652,3.57303698 L21.2060652,19.586437 C21.2013256,20.7239865 20.9564457,21.1588232 19.52482,21.1580306 L18.9781849,21.1588232 L18.9747618,23.4532071 L20.4364051,23.4532071 C22.9584046,23.533253 24.1841206,22.1634912 24.1148696,19.3447144 L24.1148696,1.21102349 L24.1167128,1.21657122 L24.1167128,1.11908962 C24.1167128,1.05542278 24.1022306,0.996246954 24.0727397,0.939977088" id="Fill-11"></path>
                        <path d="M4.65280076,30.5485896 L3.22604933,35.2694086 C3.15460708,35.4742447 3.12582082,35.4888949 2.93844848,35.4888949 L2.43364226,35.4888949 C2.33341376,35.4888949 2.30515089,35.4302942 2.2467933,35.2694086 L0.0574678309,28.3204311 C0.0150735294,28.1595456 -0.000104677288,28.1294461 -0.000104677288,28.0711118 C-0.000104677288,27.8950433 0.144088286,27.8950433 0.216053922,27.8950433 L1.00846099,27.8950433 C1.23927441,27.8950433 1.28166871,27.9395266 1.35389604,28.1733967 L2.93844848,33.5830403 L4.49342959,28.1733967 C4.50782271,28.1443627 4.55178717,27.9978609 4.5661803,27.953644 C4.59391978,27.8950433 4.6664088,27.8950433 4.8825674,27.8950433 C4.99797411,27.8950433 5.01184385,27.9240773 5.06941636,28.1294461 L6.71232639,33.641641 L8.22360473,28.1733967 C8.28196232,27.953644 8.3094401,27.8950433 8.52612209,27.8950433 C9.21699219,27.8950433 9.30439772,27.8950433 9.30439772,28.0556625 C9.30439772,28.0998794 9.28921952,28.1294461 9.23217039,28.3204311 L7.10041743,35.2694086 C7.05776144,35.4302942 7.0281901,35.4888949 6.88425883,35.4888949 L6.27922411,35.4888949 C6.17873392,35.4888949 6.13581623,35.4452107 6.07798203,35.2694086 L4.65280076,30.5485896 Z" id="Fill-13"></path>
                        <path d="M14.5294378,30.2570438 C14.4437264,29.3234914 13.8083618,28.6223323 12.9855854,28.6223323 C11.8173427,28.6223323 11.2260132,29.5274987 11.0821125,30.7982335 L14.5294378,30.2570438 Z M11.0821125,31.5137183 C11.1982291,33.5575055 12.2215227,34.5064447 13.3184704,34.5064447 C14.1837092,34.5064447 14.8327038,34.0100888 15.3092274,33.2213842 C15.5113174,32.8714679 15.5548283,32.7982481 15.7272994,32.7982481 C15.8140592,32.7982481 16.015625,32.8420208 16.015625,33.1484297 C16.015625,33.528589 15.3802603,35.7028986 13.1307967,35.7028986 C12.2655579,35.7028986 11.0965288,35.3529822 10.4480584,34.0100888 C10.0732351,33.2797478 9.98621324,32.4472706 9.98621324,31.761233 C9.98621324,30.7101576 10.1880411,29.9511654 10.4763667,29.4110368 C10.6357321,29.103832 11.3709623,27.7898551 13.1454751,27.7898551 C15.4250818,27.7898551 15.9149732,29.7904002 15.9149732,30.3886272 C15.9149732,30.7982335 15.6696343,30.8276806 15.4958526,30.8560666 L11.0821125,31.5137183 Z" id="Fill-16"></path>
                        <path d="M23.1755515,35.2203069 C23.1755515,35.3516131 23.1613296,35.4837136 23.0019914,35.5120397 L22.2047742,35.5120397 C21.9730097,35.5120397 21.8858346,35.4837136 21.8858346,35.2203069 L21.8858346,30.3254425 C21.8858346,29.640585 21.8858346,28.5480428 20.1897397,28.5480428 C18.6384976,28.5480428 18.6242757,29.4801584 18.6242757,29.8444274 L18.6242757,35.2203069 C18.6242757,35.4837136 18.5231421,35.5120397 18.319558,35.5120397 L17.6092525,35.5120397 C17.4072486,35.5263352 17.3345588,35.4837136 17.3345588,35.2351318 L17.3345588,29.3634123 C17.3345588,28.8098612 17.4217339,28.5480428 17.9139701,28.3007847 C18.8858009,27.7898551 20.2471541,27.7898551 20.4072823,27.7898551 C23.1613296,27.7898551 23.1755515,29.3345567 23.1755515,30.1941362 L23.1755515,35.2203069 Z" id="Fill-18"></path>
                        <path d="M25.5964591,26.6719941 C25.0802726,26.6719941 24.8008837,26.3239377 24.8008837,25.9185295 C24.8008837,25.4697129 25.1402756,25.1521739 25.5964591,25.1521739 C26.0681791,25.1521739 26.3625688,25.4844455 26.3781053,25.8751211 C26.3931061,26.266586 26.1121099,26.6719941 25.5964591,26.6719941 L25.5964591,26.6719941 Z M26.2597065,33.2453415 C26.2457773,34.4762986 26.1860421,35.5038938 25.7440558,36.560428 C24.9771425,38.3854224 23.620914,38.9057971 23.3265243,38.9057971 C23.149194,38.9057971 22.9871324,38.8197695 22.9871324,38.6311403 C22.9871324,38.4569805 23.1049954,38.3704268 23.1936605,38.312812 C24.8150808,37.2846906 24.8598152,35.5612455 24.9179431,33.4773792 L24.9179431,28.2644248 C24.9179431,28.0179177 24.9771425,27.9603029 25.2128685,27.9603029 L25.9942468,27.9603029 C26.2155079,27.9603029 26.2597065,28.0329133 26.2597065,28.2496922 L26.2597065,33.2453415 Z" id="Fill-20"></path>
                        <path d="M33.5386029,33.7216178 C33.5247857,34.4494028 33.4817696,34.8575239 32.9363778,35.1930783 C32.7199939,35.3101383 31.9170271,35.7028986 30.5824858,35.7028986 C29.4202696,35.7028986 28.8899986,35.4115727 28.5456093,35.1342834 C28.0142955,34.6835229 27.8860294,34.1297389 27.8860294,33.4006297 L27.8860294,28.2409838 C27.8860294,28.0513572 27.9280027,27.9782609 28.1436045,27.9782609 L28.8899986,27.9782609 C29.0912617,27.9782609 29.1770332,28.0071286 29.1770332,28.2555501 L29.1770332,33.0944727 C29.1913719,33.7793533 29.2054499,34.8286561 30.7840096,34.8286561 C32.2614164,34.8286561 32.2614164,33.9692448 32.2614164,33.2687385 L32.2614164,28.2844179 C32.2614164,28.1382253 32.2765372,28.0219597 32.4340022,27.9936217 C32.4770182,27.9782609 32.9499344,27.9782609 33.2234124,27.9782609 C33.4528315,27.9782609 33.5247857,28.0362612 33.5386029,28.2555501 L33.5386029,33.7216178 Z" id="Fill-22"></path>
                        <path d="M38.8544597,31.5569604 C37.2528066,32.0673766 36.194829,32.4037632 36.194829,33.528589 C36.194829,33.6450509 36.194829,34.914194 37.6936751,34.914194 C38.84004,34.914194 38.8544597,34.2430126 38.8544597,33.8493236 L38.8544597,31.5569604 Z M40.1332721,33.9952326 C40.1188524,34.6523537 40.0454188,35.0179221 39.5014763,35.3094748 C38.9423129,35.6007622 38.06111,35.7028986 37.4285131,35.7028986 C37.0322388,35.7028986 34.8575368,35.7028986 34.8575368,33.7182707 C34.8575368,32.0389907 36.50325,31.5569604 38.8544597,30.8703922 L38.8544597,30.1259909 C38.8544597,29.5569458 38.8544597,28.5639687 37.752956,28.5639687 C36.8995243,28.5639687 36.6354305,29.2208245 36.5176697,29.5131731 C36.4153967,29.7904002 36.297636,30.1403166 35.8559664,30.1403166 C35.6511535,30.1403166 35.2684978,29.9949381 35.2684978,29.5274987 C35.2684978,28.6517794 36.3713366,27.7898551 37.9430822,27.7898551 C40.1033646,27.7898551 40.1188524,29.3526732 40.1332721,30.1259909 L40.1332721,33.9952326 Z" id="Fill-24"></path>
                        <path d="M47.4816176,35.2203069 C47.4816176,35.3516131 47.4679231,35.4837136 47.3072754,35.5120397 L46.5108841,35.5120397 C46.27834,35.5120397 46.1919589,35.4837136 46.1919589,35.2203069 L46.1919589,30.3254425 C46.1919589,29.640585 46.1919589,28.5480428 44.4962038,28.5480428 C42.9452951,28.5480428 42.9310738,29.4801584 42.9310738,29.8444274 L42.9310738,35.2203069 C42.9310738,35.4837136 42.8296814,35.5120397 42.6266332,35.5120397 L41.9163597,35.5120397 C41.7135749,35.5263352 41.640625,35.4837136 41.640625,35.2351318 L41.640625,29.3634123 C41.640625,28.8098612 41.7275328,28.5480428 42.2208002,28.3007847 C43.1917971,27.7898551 44.5541424,27.7898551 44.7132099,27.7898551 C47.4679231,27.7898551 47.4816176,29.3345567 47.4816176,30.1941362 L47.4816176,35.2203069 Z" id="Fill-26"></path>
                        <path d="M50.3075894,35.5144928 C49.8216604,35.5144928 49.3658088,35.1835299 49.3658088,34.6591505 C49.3658088,34.0804039 49.8980956,33.8188406 50.3075894,33.8188406 C50.8238717,33.8188406 51.2642707,34.1908919 51.2496459,34.7004895 C51.2336414,35.1835299 50.7935183,35.5144928 50.3075894,35.5144928" id="Fill-28"></path>
                        <path d="M55.6497045,28.6219133 C54.6424172,28.6219133 53.7513554,29.6147583 53.7513554,31.352635 C53.7513554,33.499377 54.8470059,34.5362659 55.9418603,34.5362659 C56.9645382,34.5362659 57.4461574,33.7474556 57.6802004,33.36698 C57.8701945,33.061326 57.9277766,32.9581147 58.1037069,32.9581147 C58.1623503,32.9581147 58.4099265,32.9883617 58.4099265,33.3091392 C58.4099265,33.9376934 57.6658713,35.7028986 55.6497045,35.7028986 C53.7086332,35.7028986 52.5689338,34.0241893 52.5689338,31.8198718 C52.5689338,29.4834226 53.7380876,27.7898551 55.8253695,27.7898551 C57.5042701,27.7898551 58.3231554,29.0745572 58.3231554,29.6442093 C58.3231554,30.1109154 57.9434325,30.2571093 57.7242493,30.2571093 C57.4312975,30.2571093 57.2277703,30.052544 57.1107487,29.8198543 C56.8039985,29.2199551 56.5123734,28.6219133 55.6497045,28.6219133" id="Fill-30"></path>
                        <path d="M62.5695208,28.6074761 C61.4304324,28.6074761 60.694285,29.8198473 60.694285,31.5564298 C60.694285,33.6012782 61.6904958,34.8128536 62.7289145,34.8128536 C63.8103275,34.8128536 64.6623499,33.6158691 64.5755747,31.6007331 C64.4890617,29.5858623 63.5374182,28.6074761 62.5695208,28.6074761 M62.6717635,35.7028986 C60.4924213,35.7028986 59.3520221,33.7182707 59.3520221,31.7614983 C59.3520221,29.7171804 60.5653019,27.7898551 62.656296,27.7898551 C64.9216269,27.7898551 65.9031567,30.009529 65.9461511,31.7034 C65.9755131,33.6591113 64.8068005,35.7028986 62.6717635,35.7028986" id="Fill-32"></path>
                        <path d="M67.3032172,29.3777429 C67.3032172,28.8847603 67.3172518,28.637082 67.6673244,28.3756878 C68.1490051,28.0272501 69.1399063,27.7956617 69.9848999,27.7956617 C71.4715165,27.7956617 71.9518733,28.3907226 72.1708672,28.6663603 C72.4910167,28.3326936 73.0020909,27.7956617 74.4871187,27.7956617 C76.8637458,27.7956617 76.8489178,29.3629719 76.8489178,30.1326472 L76.8489178,35.2133487 C76.8489178,35.4167139 76.7906595,35.4747429 76.5870243,35.4889864 L75.813793,35.4889864 C75.6244572,35.4889864 75.551371,35.4602357 75.551371,35.2133487 L75.551371,30.4808212 C75.5362771,29.7119371 75.5225072,28.6078038 74.1388998,28.6078038 C73.6278257,28.6078038 73.3066169,28.7966617 73.1329047,28.9425255 C72.7248398,29.3054704 72.7248398,29.6826588 72.7248398,30.1326472 L72.7248398,35.2133487 C72.7248398,35.4167139 72.695976,35.4889864 72.4767173,35.4889864 L71.7188446,35.4889864 C71.5154742,35.4889864 71.4272941,35.4747429 71.4272941,35.2275922 L71.4272941,30.3499922 C71.4272941,29.8277313 71.4127298,28.5653371 70.0288576,28.5653371 C68.6296266,28.5653371 68.5999685,29.6391371 68.5999685,30.1326472 L68.5999685,35.2133487 C68.5999685,35.4454646 68.5414465,35.4889864 68.3086827,35.4889864 L67.565904,35.4889864 C67.3763034,35.4889864 67.3032172,35.4454646 67.3032172,35.2133487 L67.3032172,29.3777429 Z" id="Fill-34"></path>
                    </g>
                </g>
            </g>
        </g>
    </g>
</svg>