<?xml version="1.0" encoding="utf-8"?>
<!-- Generator: Adobe Illustrator 16.0.3, SVG Export Plug-In . SVG Version: 6.00 Build 0)  -->
<!DOCTYPE svg PUBLIC "-//W3C//DTD SVG 1.1//EN" "http://www.w3.org/Graphics/SVG/1.1/DTD/svg11.dtd">
<svg version="1.1" id="圖層_1" xmlns="http://www.w3.org/2000/svg" xmlns:xlink="http://www.w3.org/1999/xlink" x="0px" y="0px"
	 width="325px" height="30px" viewBox="0 0 325 30" enable-background="new 0 0 325 30" xml:space="preserve">
<g>
	<g>
		<g>
			<path fill="#004280" d="M159,22.504l0.033-0.105l0.101-0.303h0.057c0.45,0,0.768-0.089,0.955-0.243l0,0
				c0.186-0.15,0.38-0.521,0.546-1.104l0,0l1.719-5.887c0.095-0.325,0.14-0.577,0.14-0.755l0,0c-0.002-0.15-0.05-0.25-0.15-0.33l0,0
				c-0.089-0.071-0.362-0.139-0.789-0.17l0,0l-0.098-0.006l0.029-0.096l0.091-0.307h7.452l-0.627,2.445h-0.062h-0.32l-0.003-0.077
				c-0.018-0.44-0.089-0.749-0.196-0.908l0,0c-0.181-0.276-0.418-0.475-0.717-0.601l0,0c-0.293-0.127-0.793-0.195-1.488-0.193l0,0
				h-0.797l-0.974,3.388h0.206c0.81,0,1.399-0.108,1.751-0.313l0,0c0.355-0.206,0.664-0.573,0.922-1.113l0,0l0.019-0.045h0.054
				h0.354l-1.07,3.722h-0.06h-0.33l0.015-0.095c0.041-0.235,0.06-0.425,0.06-0.565l0,0c0-0.234-0.065-0.412-0.196-0.554l0,0
				c-0.136-0.147-0.313-0.251-0.536-0.313l0,0c-0.133-0.041-0.45-0.064-0.926-0.064l0,0h-0.468l-0.859,3.01
				c-0.077,0.267-0.113,0.463-0.111,0.578l0,0c0,0.076,0.029,0.128,0.109,0.18l0,0c0.116,0.076,0.38,0.125,0.776,0.125l0,0
				c0.756,0,1.466-0.161,2.134-0.481l0,0c0.669-0.321,1.268-0.806,1.865-1.487l0,0h0.391l-1.012,2.668H159L159,22.504z
				 M164.815,13.865v-0.08V13.865L164.815,13.865z"/>
		</g>
		<g>
			<path fill="#004280" d="M172.661,22.348c-0.173-0.156-0.265-0.362-0.262-0.598l0,0c0-0.204,0.054-0.488,0.164-0.865l0,0
				l0.842-2.877c0.059-0.186,0.086-0.32,0.086-0.393l0,0c-0.002-0.027-0.01-0.048-0.036-0.074l0,0
				c-0.03-0.027-0.052-0.035-0.087-0.037l0,0c-0.133,0-0.33,0.101-0.565,0.33l0,0c-0.608,0.582-1.205,1.457-1.777,2.609l0,0
				l-0.568,2.06h-1.885l1.29-4.427c0.119-0.422,0.179-0.722,0.179-0.887l0,0c0-0.063-0.016-0.111-0.042-0.145l0,0
				c-0.022-0.034-0.065-0.066-0.135-0.094l0,0c-0.062-0.023-0.212-0.039-0.432-0.039l0,0h-0.106l0.029-0.102l0.137-0.313
				l2.284-0.397h0.412v0.079v-0.079h0.104l-0.723,2.504c0.422-0.62,0.75-1.06,0.983-1.32l0,0c0.413-0.452,0.769-0.763,1.078-0.933
				l0,0c0.307-0.166,0.597-0.251,0.874-0.251l0,0c0.254-0.003,0.478,0.097,0.657,0.282l0,0c0.183,0.189,0.273,0.439,0.271,0.732l0,0
				c0,0.263-0.055,0.574-0.164,0.938l0,0l-0.862,2.877c-0.072,0.245-0.106,0.413-0.104,0.47l0,0c0,0.023,0.006,0.042,0.028,0.066
				l0,0c0.026,0.025,0.039,0.027,0.048,0.029l0,0c0.021,0,0.053-0.011,0.089-0.037l0,0c0.149-0.122,0.304-0.302,0.462-0.534l0,0
				c0.042-0.063,0.107-0.159,0.196-0.286l0,0l0.044-0.059l0.063,0.036l0.323,0.196l-0.039,0.068
				c-0.666,1.116-1.378,1.701-2.15,1.701l0,0C173.076,22.582,172.836,22.508,172.661,22.348L172.661,22.348z"/>
		</g>
		<g>
			<path fill="#004280" d="M176.35,22.141c-0.192-0.352-0.286-0.749-0.286-1.186l0,0c0-0.649,0.196-1.385,0.587-2.213l0,0
				c0.389-0.829,0.904-1.499,1.544-2.006l0,0c0.525-0.418,1.025-0.638,1.503-0.638l0,0c0.267,0,0.495,0.081,0.662,0.242l0,0
				c0.127,0.122,0.221,0.303,0.29,0.544l0,0l0.175-0.594l1.652-0.096l0.112-0.01l-1.336,4.587l-0.135,0.541
				c-0.014,0.065-0.018,0.112-0.018,0.134l0,0c0,0.034,0.009,0.059,0.034,0.087l0,0c0.028,0.03,0.046,0.031,0.062,0.035l0,0
				c0.053,0.003,0.177-0.058,0.338-0.197l0,0c0.051-0.043,0.218-0.253,0.473-0.604l0,0l0.038-0.059l0.062,0.033l0.308,0.158
				l-0.037,0.072c-0.322,0.592-0.669,1.026-1.043,1.301l0,0c-0.374,0.277-0.781,0.419-1.216,0.417l0,0
				c-0.268,0.002-0.488-0.069-0.641-0.22l0,0c-0.15-0.146-0.227-0.34-0.227-0.559l0,0c0.002-0.19,0.07-0.504,0.207-0.965l0,0
				c-0.411,0.632-0.81,1.099-1.203,1.404l0,0c-0.29,0.224-0.606,0.341-0.939,0.339l0,0c-0.004,0-0.01,0-0.014,0l0,0
				C176.873,22.69,176.54,22.498,176.35,22.141L176.35,22.141z M179.449,16.858c-0.284,0.26-0.608,0.817-0.954,1.665l0,0
				c-0.344,0.846-0.515,1.569-0.515,2.176l0,0c0,0.229,0.039,0.387,0.102,0.467l0,0c0.071,0.096,0.133,0.126,0.195,0.128l0,0
				c0.169,0,0.355-0.1,0.555-0.327l0,0c0.29-0.324,0.554-0.727,0.79-1.199l0,0c0.417-0.838,0.625-1.576,0.625-2.213l0,0
				c0-0.357-0.057-0.607-0.152-0.742l0,0c-0.07-0.094-0.15-0.136-0.268-0.136l0,0C179.713,16.677,179.589,16.731,179.449,16.858
				L179.449,16.858z"/>
		</g>
		<g>
			<path fill="#004280" d="M184.946,22.69c-0.758,0-1.556-0.22-2.389-0.661l0,0l-0.06-0.03l2.081-7.209
				c0.098-0.333,0.146-0.563,0.146-0.671l0,0c-0.002-0.086-0.03-0.14-0.103-0.191l0,0c-0.089-0.063-0.231-0.104-0.429-0.104l0,0
				c-0.031,0-0.062,0-0.088,0.002l0,0l-0.118,0.016l0.033-0.115l0.137-0.326l2.265-0.398h0.403v0.08v-0.08h0.104l-1.105,3.853
				c0.262-0.263,0.49-0.446,0.687-0.552l0,0c0.249-0.137,0.521-0.204,0.812-0.204l0,0c0.56,0,0.996,0.208,1.275,0.618l0,0
				c0.277,0.401,0.417,0.869,0.415,1.391l0,0c0.002,1.23-0.45,2.336-1.34,3.297l0,0c-0.791,0.852-1.702,1.286-2.719,1.286l0,0
				C184.951,22.69,184.949,22.69,184.946,22.69L184.946,22.69z M184.811,22.149c0.226,0,0.412-0.046,0.559-0.132l0,0
				c0.242-0.143,0.504-0.412,0.781-0.806l0,0c0.275-0.392,0.506-0.868,0.694-1.428l0,0c0.186-0.558,0.277-1.112,0.277-1.664l0,0
				c0-0.308-0.067-0.53-0.196-0.677l0,0c-0.134-0.152-0.273-0.22-0.438-0.22l0,0c-0.288,0-0.534,0.135-0.759,0.428l0,0
				c-0.144,0.177-0.317,0.595-0.497,1.231l0,0l-0.9,3.105C184.515,22.098,184.674,22.149,184.811,22.149L184.811,22.149z"/>
		</g>
		<g>
			<path fill="#004280" d="M189.473,22.432c-0.19-0.172-0.29-0.389-0.29-0.633l0,0c0.002-0.184,0.056-0.454,0.166-0.826l0,0
				l1.817-6.209c0.099-0.338,0.147-0.566,0.145-0.658l0,0c0-0.084-0.028-0.138-0.106-0.191l0,0c-0.09-0.064-0.231-0.104-0.431-0.104
				l0,0c-0.032,0-0.061,0-0.086,0.003l0,0l-0.121,0.013l0.034-0.113l0.135-0.313l2.286-0.398h0.404v0.08v-0.08h0.104l-2.259,7.686
				c-0.129,0.444-0.192,0.73-0.192,0.82l0,0c0.001,0.039,0.013,0.065,0.037,0.094l0,0c0.028,0.029,0.046,0.035,0.065,0.035l0,0
				c0.059,0,0.115-0.021,0.179-0.077l0,0c0.205-0.166,0.444-0.456,0.705-0.87l0,0l0.038-0.059l0.063,0.029l0.342,0.16l-0.046,0.076
				c-0.43,0.688-0.855,1.182-1.283,1.484l0,0c-0.293,0.205-0.611,0.312-0.949,0.31l0,0c-0.003,0-0.007,0-0.011,0l0,0
				C189.917,22.69,189.662,22.605,189.473,22.432L189.473,22.432z"/>
		</g>
		<g>
			<path fill="#004280" d="M193.069,22.425c-0.187-0.179-0.283-0.413-0.283-0.682l0,0c0-0.179,0.042-0.395,0.118-0.657l0,0
				l0.937-3.217c0.088-0.308,0.131-0.537,0.131-0.68l0,0c0-0.076-0.028-0.137-0.101-0.203l0,0c-0.068-0.061-0.164-0.094-0.297-0.096
				l0,0c-0.068,0-0.146,0.002-0.24,0.01l0,0l-0.117,0.002l0.038-0.107l0.15-0.322l2.297-0.374h0.403v0.081v-0.081h0.104
				l-1.409,4.892c-0.075,0.268-0.112,0.452-0.112,0.518l0,0c0,0.026,0.01,0.05,0.04,0.084l0,0c0.03,0.031,0.052,0.035,0.07,0.039
				l0,0c0.053,0,0.109-0.023,0.18-0.084l0,0c0.188-0.157,0.429-0.453,0.711-0.885l0,0l0.041-0.064l0.066,0.039l0.296,0.173
				l-0.04,0.069c-0.683,1.19-1.421,1.811-2.231,1.812l0,0c-0.004,0-0.007,0-0.011,0l0,0
				C193.511,22.69,193.258,22.602,193.069,22.425L193.069,22.425z M195.689,13.002c0.294,0,0.554,0.105,0.759,0.312l0,0
				c0.205,0.207,0.31,0.465,0.31,0.757l0,0c0,0.293-0.107,0.551-0.314,0.759l0,0c-0.203,0.204-0.458,0.312-0.747,0.312l0,0
				c-0.002,0-0.006,0-0.009,0l0,0c-0.291,0.002-0.546-0.107-0.751-0.312l0,0c-0.207-0.208-0.314-0.466-0.314-0.759l0,0
				c0-0.292,0.105-0.55,0.31-0.757l0,0C195.137,13.107,195.395,13.002,195.689,13.002L195.689,13.002"/>
		</g>
		<g>
			<path fill="#004280" d="M200.275,22.348c-0.173-0.156-0.263-0.362-0.263-0.598l0,0c0-0.204,0.058-0.488,0.167-0.865l0,0
				l0.843-2.877c0.057-0.186,0.083-0.32,0.083-0.393l0,0c0-0.027-0.008-0.048-0.034-0.074l0,0c-0.029-0.027-0.053-0.035-0.087-0.037
				l0,0c-0.133,0-0.33,0.101-0.565,0.33l0,0c-0.609,0.582-1.205,1.457-1.777,2.609l0,0l-0.57,2.06h-1.883l1.29-4.427
				c0.122-0.422,0.178-0.722,0.178-0.887l0,0c0-0.063-0.015-0.111-0.039-0.145l0,0c-0.023-0.034-0.065-0.066-0.137-0.094l0,0
				c-0.059-0.023-0.21-0.039-0.43-0.039l0,0h-0.107l0.031-0.102l0.137-0.313l2.285-0.397h0.41v0.079v-0.079h0.105l-0.724,2.505
				c0.423-0.621,0.749-1.061,0.983-1.321l0,0c0.412-0.452,0.768-0.763,1.078-0.933l0,0c0.305-0.166,0.596-0.251,0.875-0.251l0,0
				c0.253-0.003,0.478,0.097,0.655,0.282l0,0c0.183,0.189,0.273,0.439,0.273,0.732l0,0c0,0.263-0.057,0.574-0.167,0.938l0,0
				l-0.862,2.877c-0.072,0.245-0.104,0.413-0.104,0.47l0,0c0.002,0.023,0.007,0.042,0.028,0.066l0,0
				c0.026,0.025,0.039,0.027,0.048,0.029l0,0c0.024,0,0.054-0.011,0.09-0.037l0,0c0.15-0.122,0.305-0.302,0.463-0.534l0,0
				c0.041-0.063,0.107-0.159,0.198-0.286l0,0l0.042-0.059l0.063,0.036l0.323,0.194l-0.039,0.07c-0.666,1.116-1.376,1.701-2.15,1.701
				l0,0C200.69,22.582,200.45,22.508,200.275,22.348L200.275,22.348z"/>
		</g>
		<g>
			<path fill="#004280" d="M203.288,24.926c-0.386-0.266-0.594-0.607-0.594-0.992l0,0c0-0.301,0.136-0.578,0.392-0.82l0,0
				c0.248-0.234,0.716-0.424,1.418-0.595l0,0c-0.188-0.118-0.322-0.228-0.405-0.337l0,0c-0.137-0.182-0.212-0.378-0.212-0.579l0,0
				c0-0.323,0.133-0.614,0.387-0.854l0,0c0.227-0.217,0.578-0.42,1.058-0.623l0,0c-0.362-0.17-0.634-0.377-0.813-0.629l0,0
				c-0.205-0.291-0.308-0.632-0.308-1.013l0,0c0-0.407,0.124-0.796,0.369-1.157l0,0c0.242-0.367,0.605-0.665,1.074-0.891l0,0
				c0.474-0.225,1.013-0.336,1.621-0.336l0,0c0.389,0,0.734,0.043,1.039,0.133l0,0c0.16,0.046,0.337,0.139,0.535,0.278l0,0h1.874
				l-0.031,0.101l-0.231,0.799h-0.059h-0.801c0.109,0.234,0.166,0.459,0.166,0.676l0,0c0,0.42-0.115,0.815-0.345,1.174l0,0
				c-0.231,0.359-0.572,0.646-1.017,0.858l0,0c-0.446,0.212-0.939,0.316-1.479,0.316l0,0c-0.142,0-0.301-0.011-0.47-0.03l0,0
				c-0.172-0.021-0.355-0.051-0.503-0.092l0,0c-0.294,0.15-0.477,0.271-0.535,0.342l0,0c-0.046,0.055-0.063,0.1-0.063,0.146l0,0
				c0,0.057,0.021,0.099,0.075,0.148l0,0c0.1,0.09,0.261,0.162,0.482,0.211l0,0c0.917,0.197,1.521,0.354,1.825,0.484l0,0
				c0.409,0.168,0.723,0.387,0.938,0.662l0,0c0.216,0.273,0.324,0.611,0.322,0.992l0,0c0.002,0.586-0.272,1.104-0.803,1.535l0,0
				c-0.54,0.436-1.356,0.646-2.447,0.646l0,0C204.645,25.48,203.827,25.302,203.288,24.926L203.288,24.926z M205.919,24.938
				c0.553,0,0.943-0.103,1.17-0.288l0,0c0.236-0.196,0.348-0.409,0.348-0.655l0,0c-0.003-0.219-0.096-0.385-0.313-0.528l0,0
				c-0.214-0.142-0.652-0.302-1.306-0.469l0,0c-0.292-0.075-0.535-0.146-0.725-0.206l0,0c-0.405,0.16-0.677,0.332-0.812,0.503l0,0
				c-0.146,0.185-0.214,0.372-0.217,0.577l0,0c0.002,0.262,0.135,0.5,0.43,0.729l0,0C204.781,24.819,205.255,24.938,205.919,24.938
				 M207.414,16.59c-0.202,0-0.364,0.063-0.504,0.194l0,0c-0.229,0.205-0.437,0.563-0.616,1.072l0,0
				c-0.179,0.508-0.269,0.991-0.269,1.442l0,0c0,0.203,0.058,0.353,0.169,0.465l0,0c0.115,0.112,0.248,0.168,0.419,0.168l0,0
				c0.166,0,0.301-0.054,0.424-0.166l0,0c0.242-0.234,0.461-0.617,0.646-1.152l0,0c0.187-0.535,0.28-1.016,0.28-1.443l0,0
				c-0.003-0.181-0.056-0.316-0.159-0.423l0,0C207.694,16.643,207.572,16.59,207.414,16.59L207.414,16.59"/>
		</g>
		<g>
			<path fill="#004280" d="M213.701,22.141c-0.188-0.352-0.287-0.749-0.287-1.186l0,0c0-0.649,0.2-1.385,0.588-2.213l0,0
				c0.391-0.829,0.907-1.499,1.546-2.006l0,0c0.523-0.418,1.026-0.638,1.504-0.638l0,0c0.266,0,0.492,0.081,0.661,0.242l0,0
				c0.127,0.122,0.219,0.303,0.291,0.544l0,0l0.175-0.594l1.649-0.096l0.114-0.01l-1.337,4.587l-0.134,0.541
				c-0.013,0.065-0.02,0.112-0.02,0.134l0,0c0.002,0.034,0.011,0.059,0.034,0.087l0,0c0.031,0.03,0.049,0.031,0.063,0.035l0,0
				c0.055,0.003,0.179-0.058,0.338-0.197l0,0c0.053-0.043,0.219-0.253,0.474-0.604l0,0l0.038-0.057l0.062,0.031l0.308,0.158
				l-0.038,0.072c-0.322,0.592-0.669,1.026-1.042,1.301l0,0c-0.373,0.277-0.781,0.419-1.217,0.417l0,0
				c-0.27,0.002-0.488-0.069-0.643-0.22l0,0c-0.148-0.146-0.227-0.34-0.225-0.559l0,0c0-0.191,0.071-0.504,0.208-0.966l0,0
				c-0.412,0.633-0.813,1.1-1.205,1.405l0,0c-0.29,0.224-0.605,0.341-0.938,0.339l0,0c-0.004,0-0.01,0-0.015,0l0,0
				C214.227,22.69,213.895,22.498,213.701,22.141L213.701,22.141z M216.803,16.858c-0.283,0.26-0.609,0.817-0.955,1.665l0,0
				c-0.344,0.846-0.515,1.569-0.515,2.176l0,0c-0.002,0.229,0.041,0.387,0.102,0.467l0,0c0.071,0.096,0.132,0.126,0.196,0.128l0,0
				c0.17,0,0.354-0.1,0.554-0.327l0,0c0.292-0.324,0.555-0.727,0.789-1.199l0,0c0.419-0.838,0.627-1.576,0.627-2.213l0,0
				c0-0.357-0.057-0.607-0.155-0.742l0,0c-0.067-0.094-0.146-0.136-0.265-0.136l0,0C217.068,16.677,216.943,16.731,216.803,16.858
				L216.803,16.858z"/>
		</g>
		<g>
			<path fill="#004280" d="M223.612,16.101l-0.724,2.504c0.422-0.62,0.75-1.06,0.984-1.32l0,0c0.412-0.452,0.767-0.763,1.077-0.933
				l0,0c0.304-0.166,0.596-0.251,0.874-0.251l0,0c0.253-0.003,0.479,0.097,0.657,0.282l0,0c0.182,0.189,0.271,0.439,0.271,0.732l0,0
				c0,0.263-0.055,0.574-0.164,0.938l0,0l-0.863,2.877c-0.072,0.245-0.107,0.413-0.105,0.47l0,0c0,0.023,0.007,0.042,0.028,0.066
				l0,0c0.026,0.025,0.041,0.027,0.047,0.029l0,0c0.024,0,0.055-0.011,0.091-0.037l0,0c0.149-0.122,0.304-0.302,0.464-0.534l0,0
				c0.042-0.063,0.106-0.159,0.197-0.286l0,0l0.041-0.059l0.065,0.036l0.323,0.196l-0.041,0.068
				c-0.664,1.116-1.375,1.701-2.148,1.701l0,0c-0.292,0-0.532-0.074-0.708-0.234l0,0c-0.172-0.156-0.263-0.362-0.261-0.598l0,0
				c0-0.204,0.054-0.488,0.164-0.865l0,0l0.842-2.877c0.06-0.186,0.085-0.32,0.085-0.393l0,0c-0.002-0.027-0.009-0.048-0.037-0.074
				l0,0c-0.028-0.027-0.05-0.035-0.085-0.037l0,0c-0.133,0-0.33,0.101-0.565,0.33l0,0c-0.61,0.582-1.208,1.457-1.776,2.609l0,0
				l-0.57,2.06h-1.883l1.29-4.427c0.12-0.422,0.179-0.722,0.179-0.887l0,0c0-0.063-0.014-0.111-0.041-0.145l0,0
				c-0.021-0.034-0.065-0.066-0.136-0.094l0,0c-0.061-0.023-0.211-0.039-0.431-0.039l0,0h-0.105l0.027-0.102l0.139-0.313
				l2.284-0.397H223.612z"/>
		</g>
		<g>
			<path fill="#004280" d="M229.744,22.504l0.027-0.104l0.093-0.305h0.059c0.445,0,0.76-0.088,0.948-0.242l0,0
				c0.187-0.151,0.379-0.518,0.546-1.097l0,0l1.684-5.845c0.103-0.356,0.153-0.624,0.151-0.795l0,0c0-0.146-0.052-0.244-0.158-0.328
				l0,0c-0.092-0.07-0.389-0.141-0.86-0.172l0,0l0.007-0.078l0.077,0.021l-0.077-0.021l-0.007,0.078l-0.097-0.006l0.027-0.095
				l0.09-0.308h4.631l-0.036,0.107l-0.107,0.301h-0.055c-0.395,0-0.683,0.09-0.875,0.252l0,0c-0.193,0.158-0.38,0.521-0.537,1.086
				l0,0l-1.671,5.846c-0.12,0.41-0.18,0.688-0.18,0.809l0,0c0.002,0.141,0.051,0.234,0.156,0.311l0,0
				c0.134,0.1,0.429,0.166,0.872,0.176l0,0l0.101,0.002l-0.027,0.099l-0.082,0.308H229.744L229.744,22.504z"/>
		</g>
		<g>
			<path fill="#004280" d="M239.556,22.348c-0.171-0.156-0.263-0.362-0.26-0.598l0,0c0-0.204,0.056-0.488,0.163-0.865l0,0
				l0.842-2.877c0.06-0.186,0.085-0.32,0.085-0.393l0,0c-0.001-0.027-0.009-0.048-0.035-0.074l0,0
				c-0.027-0.027-0.052-0.035-0.086-0.037l0,0c-0.134,0-0.33,0.101-0.566,0.33l0,0c-0.61,0.582-1.205,1.457-1.776,2.609l0,0
				l-0.567,2.06h-1.888l1.292-4.427c0.12-0.422,0.179-0.722,0.179-0.887l0,0c0-0.063-0.016-0.111-0.04-0.145l0,0
				c-0.024-0.034-0.067-0.066-0.137-0.094l0,0c-0.062-0.023-0.213-0.039-0.43-0.039l0,0h-0.106l0.027-0.102l0.138-0.313l2.285-0.397
				h0.411v0.079v-0.079h0.105l-0.725,2.504c0.421-0.62,0.75-1.06,0.984-1.32l0,0c0.411-0.452,0.768-0.763,1.078-0.933l0,0
				c0.305-0.166,0.595-0.251,0.872-0.251l0,0c0.253-0.003,0.479,0.097,0.658,0.282l0,0c0.18,0.189,0.272,0.439,0.27,0.732l0,0
				c0,0.263-0.054,0.574-0.164,0.938l0,0l-0.861,2.877c-0.071,0.245-0.104,0.413-0.104,0.47l0,0c0,0.023,0.007,0.042,0.027,0.066
				l0,0c0.027,0.025,0.039,0.027,0.048,0.029l0,0c0.022,0,0.054-0.011,0.09-0.037l0,0c0.147-0.122,0.305-0.302,0.462-0.534l0,0
				c0.042-0.063,0.107-0.159,0.197-0.286l0,0l0.043-0.059l0.063,0.036l0.323,0.196l-0.039,0.068
				c-0.666,1.116-1.378,1.701-2.149,1.701l0,0C239.972,22.582,239.732,22.508,239.556,22.348L239.556,22.348z"/>
		</g>
		<g>
			<path fill="#004280" d="M246.723,14.457h0.104l-0.538,1.832h0.883l-0.03,0.102l-0.253,0.833h-0.06h-0.808l-1.109,3.85
				c-0.07,0.235-0.105,0.417-0.105,0.528l0,0c0.002,0.039,0.013,0.066,0.038,0.096l0,0c0.032,0.033,0.054,0.041,0.078,0.041l0,0
				c0.055,0,0.115-0.023,0.188-0.08l0,0c0.196-0.148,0.433-0.416,0.705-0.803l0,0l0.043-0.062l0.063,0.04l0.3,0.189l-0.037,0.064
				c-0.315,0.547-0.664,0.953-1.048,1.213l0,0c-0.383,0.257-0.764,0.39-1.142,0.39l0,0c-0.004,0-0.008,0-0.012,0l0,0
				c-0.313,0-0.568-0.082-0.755-0.253l0,0c-0.183-0.168-0.276-0.391-0.276-0.646l0,0c0-0.273,0.061-0.611,0.179-1.027l0,0
				l1.032-3.54h-0.913l0.026-0.101l0.185-0.553c0.567-0.209,1.047-0.453,1.436-0.732l0,0c0.387-0.277,0.858-0.729,1.474-1.381l0,0
				H246.723"/>
		</g>
		<g>
			<path fill="#004280" d="M246.969,22.121c-0.299-0.371-0.449-0.808-0.449-1.293l0,0c0-0.753,0.22-1.506,0.654-2.251l0,0
				c0.435-0.747,1.03-1.35,1.777-1.799l0,0c0.75-0.452,1.507-0.68,2.27-0.68l0,0c0.389,0,0.697,0.095,0.912,0.29l0,0
				c0.208,0.195,0.314,0.449,0.312,0.741l0,0c0,0.343-0.097,0.677-0.293,0.999l0,0c-0.266,0.432-0.603,0.779-1.008,1.044l0,0
				c-0.403,0.263-0.853,0.464-1.35,0.6l0,0c-0.322,0.088-0.746,0.152-1.271,0.198l0,0c-0.034,0.262-0.05,0.479-0.05,0.648l0,0
				c0,0.32,0.09,0.565,0.27,0.751l0,0c0.179,0.186,0.416,0.277,0.727,0.279l0,0c0.301,0,0.605-0.071,0.911-0.22l0,0
				c0.306-0.148,0.667-0.41,1.083-0.789l0,0l0.052-0.05l0.056,0.05l0.257,0.232l-0.049,0.059c-0.521,0.628-1.029,1.08-1.532,1.351
				l0,0c-0.5,0.273-1.056,0.409-1.66,0.409l0,0C247.825,22.691,247.278,22.508,246.969,22.121L246.969,22.121z M249.807,17.127
				c-0.465,0.516-0.862,1.291-1.183,2.321l0,0c0.332-0.056,0.591-0.128,0.776-0.212l0,0c0.205-0.098,0.411-0.253,0.613-0.467l0,0
				c0.204-0.217,0.378-0.49,0.528-0.82l0,0c0.149-0.332,0.222-0.639,0.222-0.92l0,0c0-0.113-0.03-0.188-0.083-0.242l0,0
				c-0.054-0.057-0.117-0.084-0.207-0.084l0,0c-0.001,0-0.003,0-0.005,0l0,0C250.293,16.703,250.065,16.836,249.807,17.127
				L249.807,17.127z"/>
		</g>
		<g>
			<path fill="#004280" d="M252.528,22.432c-0.19-0.171-0.29-0.389-0.29-0.633l0,0c0-0.184,0.056-0.453,0.166-0.826l0,0l1.82-6.209
				c0.097-0.338,0.146-0.566,0.144-0.658l0,0c0-0.084-0.029-0.138-0.108-0.191l0,0c-0.091-0.065-0.233-0.104-0.43-0.104l0,0
				c-0.031,0-0.061,0-0.088,0.003l0,0l-0.117,0.013l0.034-0.113l0.135-0.313l2.285-0.4h0.405v0.081V13h0.105l-2.26,7.688
				c-0.129,0.443-0.193,0.729-0.191,0.818l0,0c0,0.042,0.012,0.069,0.033,0.093l0,0c0.031,0.03,0.051,0.037,0.071,0.037l0,0
				c0.056,0,0.113-0.021,0.175-0.077l0,0c0.206-0.166,0.443-0.454,0.706-0.871l0,0l0.038-0.058l0.063,0.029l0.343,0.158
				l-0.048,0.077c-0.429,0.688-0.855,1.183-1.281,1.486l0,0c-0.294,0.203-0.613,0.31-0.948,0.31l0,0
				C252.977,22.691,252.719,22.607,252.528,22.432L252.528,22.432z"/>
		</g>
		<g>
			<path fill="#004280" d="M256.056,22.431c-0.188-0.17-0.289-0.388-0.289-0.632l0,0c0-0.184,0.058-0.452,0.166-0.826l0,0
				l1.819-6.209c0.097-0.338,0.146-0.566,0.143-0.658l0,0c-0.002-0.084-0.029-0.139-0.106-0.192l0,0
				c-0.092-0.063-0.235-0.103-0.431-0.103l0,0c-0.03,0-0.062,0-0.086,0.002l0,0l-0.119,0.013l0.033-0.113l0.136-0.312l2.286-0.398
				h0.404v0.078v-0.078h0.104l-2.26,7.687c-0.128,0.443-0.191,0.729-0.191,0.819l0,0c0.001,0.039,0.013,0.068,0.034,0.092l0,0
				c0.031,0.031,0.051,0.037,0.068,0.037l0,0c0.058,0,0.114-0.021,0.179-0.077l0,0c0.203-0.166,0.44-0.454,0.704-0.871l0,0
				l0.037-0.058l0.063,0.029l0.342,0.158l-0.046,0.077c-0.431,0.688-0.856,1.183-1.283,1.486l0,0
				c-0.292,0.203-0.612,0.311-0.949,0.309l0,0c-0.004,0-0.008,0-0.012,0l0,0C256.5,22.69,256.245,22.605,256.056,22.431
				L256.056,22.431z"/>
		</g>
		<g>
			<path fill="#004280" d="M259.656,22.425c-0.188-0.181-0.285-0.413-0.285-0.681l0,0c0-0.18,0.039-0.396,0.119-0.658l0,0
				l0.936-3.219c0.088-0.305,0.13-0.535,0.13-0.678l0,0c0-0.074-0.028-0.137-0.101-0.203l0,0c-0.066-0.061-0.161-0.094-0.297-0.094
				l0,0c-0.065,0-0.146,0.002-0.238,0.006l0,0l-0.118,0.006l0.037-0.109l0.151-0.324l2.298-0.372h0.402v0.081v-0.081h0.105
				l-1.409,4.892c-0.077,0.27-0.113,0.452-0.113,0.518l0,0c0.002,0.028,0.009,0.05,0.042,0.084l0,0
				c0.028,0.029,0.052,0.039,0.069,0.039l0,0c0.049,0,0.108-0.024,0.176-0.084l0,0c0.191-0.157,0.432-0.453,0.712-0.885l0,0
				l0.042-0.064l0.065,0.037l0.296,0.176l-0.04,0.069c-0.68,1.19-1.419,1.81-2.229,1.811l0,0c-0.002,0-0.007,0-0.01,0l0,0
				C260.096,22.69,259.842,22.602,259.656,22.425L259.656,22.425z M262.273,13.001c0.297,0,0.556,0.107,0.761,0.314l0,0
				c0.202,0.206,0.31,0.464,0.307,0.757l0,0c0.003,0.291-0.105,0.549-0.312,0.757l0,0c-0.206,0.204-0.464,0.313-0.756,0.313l0,0
				c-0.289,0-0.545-0.108-0.75-0.313l0,0c-0.208-0.206-0.314-0.464-0.314-0.757l0,0c0-0.293,0.106-0.551,0.31-0.757l0,0
				C261.722,13.108,261.98,13.001,262.273,13.001L262.273,13.001"/>
		</g>
		<g>
			<path fill="#004280" d="M262.502,24.926c-0.385-0.268-0.595-0.605-0.591-0.994l0,0c-0.004-0.299,0.137-0.576,0.392-0.818l0,0
				c0.246-0.232,0.715-0.424,1.416-0.594l0,0c-0.187-0.117-0.321-0.229-0.406-0.34l0,0c-0.139-0.179-0.211-0.375-0.209-0.578l0,0
				c-0.002-0.321,0.13-0.613,0.384-0.854l0,0c0.226-0.215,0.576-0.422,1.057-0.623l0,0c-0.36-0.168-0.63-0.378-0.811-0.631l0,0
				c-0.206-0.289-0.308-0.63-0.308-1.012l0,0c0-0.406,0.125-0.795,0.37-1.158l0,0c0.24-0.366,0.604-0.662,1.072-0.887l0,0
				c0.474-0.225,1.016-0.337,1.623-0.337l0,0c0.388,0,0.733,0.042,1.037,0.132l0,0c0.16,0.046,0.337,0.14,0.534,0.277l0,0h1.875
				l-0.031,0.104l-0.233,0.799h-0.058h-0.8c0.11,0.232,0.165,0.456,0.165,0.674l0,0c0.002,0.422-0.114,0.818-0.346,1.174l0,0
				c-0.23,0.361-0.571,0.646-1.014,0.858l0,0c-0.447,0.212-0.942,0.317-1.48,0.317l0,0c-0.143,0-0.301-0.012-0.472-0.031l0,0
				c-0.171-0.021-0.354-0.051-0.504-0.092l0,0c-0.293,0.149-0.478,0.271-0.533,0.344l0,0c-0.047,0.052-0.062,0.096-0.063,0.145l0,0
				c0.002,0.057,0.022,0.1,0.074,0.148l0,0c0.102,0.09,0.262,0.162,0.482,0.21l0,0c0.92,0.196,1.524,0.356,1.828,0.483l0,0
				c0.409,0.17,0.723,0.389,0.937,0.664l0,0c0.216,0.274,0.326,0.611,0.326,0.992l0,0c0,0.587-0.277,1.104-0.807,1.535l0,0
				c-0.539,0.436-1.354,0.646-2.446,0.646l0,0C263.861,25.48,263.042,25.301,262.502,24.926L262.502,24.926z M263.497,23.294
				c-0.145,0.186-0.213,0.371-0.213,0.579l0,0c0,0.26,0.134,0.498,0.429,0.725l0,0c0.285,0.221,0.76,0.338,1.424,0.338l0,0
				c0.551,0,0.941-0.102,1.168-0.286l0,0c0.24-0.196,0.349-0.407,0.349-0.656l0,0c-0.002-0.217-0.095-0.384-0.314-0.527l0,0
				c-0.212-0.142-0.652-0.304-1.305-0.467l0,0c-0.292-0.075-0.532-0.146-0.722-0.208l0,0
				C263.906,22.951,263.635,23.123,263.497,23.294L263.497,23.294z M266.63,16.588c-0.203,0-0.365,0.066-0.505,0.196l0,0
				c-0.226,0.205-0.436,0.562-0.615,1.071l0,0c-0.182,0.51-0.269,0.992-0.269,1.441l0,0c0.002,0.206,0.057,0.355,0.168,0.467l0,0
				c0.116,0.113,0.25,0.168,0.419,0.168l0,0c0.166,0,0.303-0.055,0.423-0.166l0,0c0.244-0.234,0.462-0.617,0.648-1.151l0,0
				c0.186-0.534,0.277-1.017,0.277-1.443l0,0c-0.002-0.182-0.053-0.317-0.159-0.422l0,0C266.91,16.641,266.79,16.591,266.63,16.588
				L266.63,16.588"/>
		</g>
		<g>
			<path fill="#004280" d="M269.97,22.123c-0.3-0.371-0.45-0.809-0.45-1.295l0,0c0-0.754,0.22-1.505,0.653-2.251l0,0
				c0.436-0.747,1.031-1.349,1.779-1.799l0,0c0.75-0.452,1.508-0.68,2.27-0.68l0,0c0.39,0,0.696,0.095,0.91,0.292l0,0
				c0.209,0.193,0.316,0.447,0.313,0.739l0,0c0,0.342-0.098,0.677-0.292,0.997l0,0c-0.266,0.434-0.602,0.781-1.01,1.045l0,0
				c-0.4,0.264-0.852,0.465-1.348,0.601l0,0c-0.322,0.089-0.746,0.154-1.271,0.199l0,0c-0.034,0.261-0.052,0.478-0.052,0.646l0,0
				c0,0.322,0.091,0.567,0.272,0.754l0,0c0.18,0.186,0.415,0.277,0.728,0.277l0,0c0.298,0,0.603-0.072,0.91-0.221l0,0
				c0.307-0.146,0.67-0.41,1.084-0.788l0,0l0.051-0.049l0.056,0.049l0.256,0.231l-0.046,0.06c-0.521,0.63-1.031,1.081-1.533,1.353
				l0,0c-0.502,0.272-1.057,0.408-1.662,0.408l0,0C270.827,22.691,270.281,22.51,269.97,22.123L269.97,22.123z M272.807,17.129
				c-0.465,0.514-0.861,1.289-1.179,2.319l0,0c0.331-0.056,0.587-0.128,0.773-0.212l0,0c0.207-0.096,0.412-0.251,0.615-0.469l0,0
				c0.201-0.215,0.376-0.485,0.527-0.818l0,0c0.149-0.331,0.223-0.637,0.223-0.92l0,0c0-0.113-0.028-0.187-0.081-0.242l0,0
				c-0.057-0.059-0.119-0.082-0.208-0.084l0,0c-0.003,0-0.003,0-0.005,0l0,0C273.295,16.703,273.066,16.838,272.807,17.129
				L272.807,17.129z"/>
		</g>
		<g>
			<path fill="#004280" d="M279.274,22.347c-0.174-0.155-0.264-0.361-0.261-0.597l0,0c0-0.204,0.055-0.488,0.165-0.865l0,0
				l0.84-2.877c0.061-0.184,0.086-0.32,0.086-0.395l0,0c0-0.025-0.009-0.046-0.035-0.072l0,0c-0.028-0.025-0.054-0.035-0.088-0.036
				l0,0c-0.133-0.003-0.33,0.101-0.566,0.328l0,0c-0.609,0.583-1.205,1.458-1.775,2.611l0,0l-0.568,2.058h-1.884l1.289-4.426
				c0.121-0.421,0.18-0.723,0.18-0.886l0,0c0-0.063-0.017-0.112-0.04-0.146l0,0c-0.023-0.036-0.066-0.068-0.137-0.094l0,0
				c-0.061-0.023-0.21-0.039-0.431-0.039l0,0h-0.108l0.031-0.1l0.138-0.314l2.282-0.398h0.413v0.08V16.1h0.106l-0.727,2.508
				c0.424-0.621,0.751-1.062,0.986-1.322l0,0c0.413-0.454,0.77-0.766,1.079-0.934l0,0c0.305-0.166,0.596-0.252,0.875-0.252l0,0
				c0.251,0,0.477,0.098,0.653,0.284l0,0c0.185,0.189,0.274,0.438,0.274,0.733l0,0c0,0.264-0.058,0.572-0.166,0.937l0,0
				l-0.864,2.877c-0.069,0.245-0.104,0.411-0.104,0.469l0,0c0.003,0.024,0.009,0.043,0.029,0.067l0,0
				c0.028,0.027,0.038,0.027,0.048,0.029l0,0c0.022,0,0.053-0.011,0.091-0.037l0,0c0.149-0.123,0.304-0.303,0.461-0.534l0,0
				c0.041-0.063,0.108-0.161,0.196-0.285l0,0l0.042-0.061l0.065,0.038l0.325,0.195l-0.042,0.067
				c-0.664,1.117-1.378,1.702-2.149,1.702l0,0c-0.004,0-0.008,0-0.011,0l0,0C279.683,22.582,279.446,22.504,279.274,22.347
				L279.274,22.347z"/>
		</g>
		<g>
			<path fill="#004280" d="M286.442,14.457h0.104l-0.539,1.832h0.883l-0.031,0.102l-0.25,0.833h-0.061h-0.809l-1.108,3.85
				c-0.072,0.235-0.104,0.417-0.104,0.528l0,0c0.002,0.041,0.013,0.066,0.038,0.096l0,0c0.031,0.033,0.052,0.041,0.077,0.041l0,0
				c0.054,0,0.117-0.023,0.189-0.08l0,0c0.195-0.147,0.429-0.416,0.703-0.803l0,0l0.044-0.062l0.063,0.04l0.299,0.189l-0.036,0.064
				c-0.314,0.546-0.664,0.952-1.049,1.213l0,0c-0.381,0.256-0.763,0.39-1.142,0.39l0,0c-0.004,0-0.009,0-0.013,0l0,0
				c-0.313,0-0.567-0.082-0.752-0.252l0,0c-0.183-0.169-0.28-0.393-0.277-0.647l0,0c0-0.273,0.061-0.615,0.178-1.027l0,0l1.035-3.54
				h-0.916l0.027-0.101l0.184-0.553c0.569-0.211,1.048-0.453,1.437-0.733l0,0c0.386-0.276,0.859-0.728,1.474-1.38l0,0H286.442"/>
		</g>
		<g>
			<path fill="#004280" d="M288.642,22.503l0.031-0.104l0.093-0.303l0.057-0.001c0.374-0.005,0.634-0.045,0.771-0.107l0,0
				c0.142-0.063,0.26-0.16,0.36-0.313l0,0c0.059-0.077,0.179-0.397,0.33-0.923l0,0l1.691-5.802c0.116-0.382,0.171-0.657,0.171-0.804
				l0,0c-0.002-0.143-0.057-0.254-0.188-0.359l0,0c-0.124-0.096-0.38-0.161-0.762-0.168l0,0l-0.107-0.004l0.032-0.1l0.09-0.305
				h3.677c0.999,0,1.724,0.123,2.183,0.387l0,0c0.696,0.406,1.053,1.036,1.049,1.848l0,0c0,0.787-0.348,1.486-1.033,2.078l0,0
				c-0.689,0.597-1.615,0.891-2.765,0.891l0,0c-0.33,0-0.726-0.031-1.187-0.1l0,0l-0.725,2.48c-0.1,0.355-0.151,0.608-0.151,0.74
				l0,0c0.002,0.19,0.06,0.313,0.172,0.404l0,0c0.1,0.082,0.398,0.148,0.868,0.156l0,0h0.111l-0.035,0.104l-0.108,0.304H288.642
				L288.642,22.503z M293.063,18.304l0.015-0.077L293.063,18.304L293.063,18.304z M293.939,17.683
				c0.593-0.003,1.047-0.264,1.391-0.813l0,0c0.35-0.552,0.522-1.128,0.522-1.728l0,0c-0.001-0.404-0.109-0.703-0.323-0.918l0,0
				c-0.212-0.215-0.502-0.322-0.892-0.324l0,0c-0.068,0-0.155,0.006-0.256,0.012l0,0l-1.069,3.729
				C293.56,17.668,293.768,17.683,293.939,17.683L293.939,17.683z"/>
		</g>
		<g>
			<path fill="#004280" d="M297.695,22.431c-0.188-0.17-0.29-0.389-0.29-0.632l0,0c0-0.186,0.059-0.453,0.167-0.826l0,0l1.819-6.21
				c0.098-0.336,0.146-0.565,0.146-0.657l0,0c-0.003-0.084-0.031-0.139-0.108-0.191l0,0c-0.093-0.064-0.235-0.104-0.431-0.104l0,0
				c-0.029,0-0.06,0-0.088,0.004l0,0l-0.117,0.011l0.032-0.111l0.137-0.313l2.286-0.399h0.405v0.079v-0.079h0.101l-2.256,7.687
				c-0.13,0.445-0.193,0.73-0.193,0.82l0,0c0.002,0.039,0.012,0.066,0.035,0.093l0,0c0.03,0.029,0.05,0.035,0.068,0.038l0,0
				c0.059-0.003,0.114-0.021,0.178-0.08l0,0c0.205-0.165,0.441-0.455,0.705-0.869l0,0l0.037-0.059l0.063,0.029l0.343,0.158
				l-0.046,0.077c-0.43,0.688-0.855,1.183-1.283,1.483l0,0c-0.293,0.206-0.611,0.313-0.947,0.313l0,0
				C298.145,22.691,297.886,22.607,297.695,22.431L297.695,22.431z"/>
		</g>
		<g>
			<path fill="#004280" d="M301.289,22.143c-0.191-0.352-0.287-0.751-0.287-1.188l0,0c0-0.649,0.198-1.387,0.587-2.213l0,0
				c0.391-0.828,0.906-1.498,1.545-2.006l0,0c0.526-0.419,1.027-0.638,1.507-0.638l0,0c0.266,0,0.49,0.081,0.658,0.242l0,0
				c0.129,0.122,0.222,0.303,0.292,0.544l0,0l0.175-0.592l1.652-0.1l0.111-0.006l-1.336,4.585l-0.136,0.539
				c-0.013,0.067-0.019,0.114-0.019,0.136l0,0c0,0.033,0.01,0.059,0.036,0.086l0,0c0.029,0.031,0.046,0.035,0.06,0.035l0,0
				c0.056,0.004,0.18-0.057,0.337-0.196l0,0c0.053-0.043,0.22-0.253,0.473-0.606l0,0l0.039-0.057l0.063,0.033l0.308,0.157
				l-0.038,0.073c-0.322,0.592-0.669,1.026-1.044,1.301l0,0c-0.372,0.277-0.78,0.418-1.213,0.418l0,0
				c-0.271,0-0.491-0.07-0.643-0.223l0,0c-0.152-0.145-0.226-0.338-0.226-0.557l0,0c0.002-0.191,0.072-0.508,0.212-0.973l0,0
				c-0.413,0.637-0.814,1.105-1.208,1.412l0,0c-0.291,0.225-0.607,0.34-0.938,0.34l0,0c-0.003,0-0.005,0-0.008,0l0,0
				C301.816,22.691,301.479,22.502,301.289,22.143L301.289,22.143z M304.39,16.857c-0.284,0.261-0.608,0.818-0.954,1.665l0,0
				c-0.346,0.844-0.516,1.57-0.516,2.177l0,0c0,0.229,0.041,0.386,0.103,0.467l0,0c0.069,0.094,0.131,0.126,0.195,0.128l0,0
				c0.168,0,0.354-0.1,0.554-0.327l0,0c0.291-0.322,0.555-0.725,0.789-1.199l0,0c0.42-0.836,0.627-1.576,0.627-2.213l0,0
				c0-0.357-0.057-0.605-0.155-0.743l0,0c-0.07-0.093-0.146-0.134-0.265-0.135l0,0C304.656,16.677,304.53,16.731,304.39,16.857
				L304.39,16.857z"/>
		</g>
		<g>
			<path fill="#004280" d="M311.562,22.347c-0.171-0.155-0.261-0.363-0.259-0.597l0,0c0-0.204,0.054-0.488,0.165-0.863l0,0
				l0.84-2.879c0.059-0.185,0.085-0.32,0.085-0.395l0,0c-0.002-0.025-0.01-0.045-0.035-0.072l0,0
				c-0.03-0.025-0.055-0.035-0.089-0.036l0,0c-0.134-0.003-0.329,0.101-0.563,0.327l0,0c-0.611,0.586-1.207,1.457-1.777,2.612l0,0
				l-0.568,2.059h-1.885l1.29-4.427c0.12-0.422,0.179-0.723,0.179-0.887l0,0c0-0.063-0.015-0.109-0.04-0.146l0,0
				c-0.023-0.034-0.067-0.067-0.137-0.094l0,0c-0.061-0.021-0.211-0.038-0.432-0.038l0,0h-0.108l0.032-0.1l0.137-0.313l2.285-0.401
				h0.409v0.081v-0.081h0.106l-0.722,2.501c0.421-0.617,0.748-1.055,0.984-1.314l0,0c0.41-0.454,0.766-0.764,1.076-0.934l0,0
				c0.303-0.164,0.594-0.253,0.874-0.253l0,0c0.253,0,0.478,0.099,0.655,0.286l0,0c0.182,0.187,0.271,0.438,0.27,0.73l0,0
				c0,0.265-0.054,0.576-0.165,0.938l0,0l-0.862,2.874c-0.069,0.248-0.105,0.417-0.104,0.472l0,0c0,0.024,0.008,0.041,0.031,0.067
				l0,0c0.023,0.025,0.037,0.029,0.044,0.029l0,0c0.024,0,0.056-0.012,0.091-0.037l0,0c0.148-0.122,0.305-0.303,0.463-0.535l0,0
				c0.043-0.061,0.106-0.158,0.197-0.283l0,0l0.04-0.062l0.064,0.038l0.326,0.195l-0.042,0.067
				c-0.663,1.119-1.375,1.701-2.148,1.705l0,0C311.976,22.585,311.738,22.508,311.562,22.347L311.562,22.347z"/>
		</g>
		<g>
			<path fill="#004280" d="M315.447,22.121C315.15,21.752,315,21.314,315,20.826l0,0c0-0.752,0.218-1.504,0.652-2.248l0,0
				c0.436-0.748,1.03-1.349,1.781-1.8l0,0c0.749-0.452,1.505-0.679,2.269-0.679l0,0c0.388,0,0.696,0.094,0.909,0.291l0,0
				c0.208,0.194,0.314,0.447,0.313,0.739l0,0c0,0.342-0.096,0.677-0.292,0.997l0,0c-0.267,0.432-0.604,0.781-1.009,1.045l0,0
				c-0.402,0.263-0.855,0.465-1.349,0.603l0,0c-0.325,0.086-0.746,0.152-1.271,0.196l0,0c-0.036,0.262-0.052,0.479-0.052,0.648l0,0
				c0,0.32,0.091,0.566,0.27,0.752l0,0c0.181,0.185,0.417,0.276,0.728,0.276l0,0c0.3,0,0.604-0.068,0.912-0.22l0,0
				c0.305-0.146,0.667-0.408,1.084-0.787l0,0l0.05-0.049l0.055,0.049l0.257,0.23l-0.048,0.06c-0.52,0.63-1.029,1.081-1.531,1.353
				l0,0c-0.501,0.271-1.058,0.408-1.66,0.408l0,0C316.305,22.691,315.758,22.51,315.447,22.121L315.447,22.121z M318.285,17.129
				c-0.467,0.516-0.861,1.289-1.18,2.319l0,0c0.331-0.054,0.591-0.128,0.774-0.212l0,0c0.206-0.098,0.413-0.253,0.615-0.47l0,0
				c0.203-0.214,0.377-0.485,0.528-0.817l0,0c0.146-0.332,0.224-0.639,0.224-0.92l0,0c-0.002-0.112-0.03-0.188-0.085-0.242l0,0
				c-0.055-0.056-0.116-0.082-0.208-0.084l0,0c-0.001,0-0.001,0-0.003,0l0,0C318.772,16.703,318.544,16.836,318.285,17.129
				L318.285,17.129z"/>
		</g>
		<g>
			<path fill="#004280" d="M321.056,22.438c-0.183-0.17-0.278-0.392-0.278-0.647l0,0c0-0.273,0.062-0.611,0.178-1.027l0,0
				l1.036-3.541h-0.917l0.03-0.101l0.183-0.554c0.567-0.207,1.048-0.451,1.437-0.729l0,0c0.386-0.277,0.858-0.73,1.475-1.382l0,0
				h0.349v0.078v-0.078h0.104l-0.538,1.832H325l-0.031,0.102l-0.251,0.832h-0.06h-0.81l-1.107,3.851
				c-0.074,0.235-0.106,0.417-0.106,0.528l0,0c0.002,0.041,0.011,0.066,0.04,0.097l0,0c0.03,0.032,0.051,0.037,0.077,0.04l0,0
				c0.054,0,0.113-0.023,0.188-0.078l0,0c0.193-0.149,0.431-0.418,0.704-0.805l0,0l0.041-0.062l0.065,0.04l0.298,0.189l-0.037,0.064
				c-0.312,0.547-0.662,0.952-1.048,1.213l0,0c-0.382,0.256-0.764,0.391-1.141,0.391l0,0
				C321.502,22.691,321.242,22.609,321.056,22.438L321.056,22.438z"/>
		</g>
	</g>
	<g>
		<g>
			<rect fill="#004280" width="147.395" height="30"/>
			<g>
				<path fill="#FFFFFF" d="M33.238,9.828v15.756h3.433c5.409,0,8.622-3.354,8.622-7.742c0-4.395-2.951-8.014-9.308-8.014H33.238z
					 M36.781,22.369v-9.479c3.446-0.188,4.993,2.243,4.993,5.015C41.774,20.559,40.154,22.586,36.781,22.369z"/>
				<polygon fill="#FFFFFF" points="81.105,9.828 77.554,9.828 77.554,18.572 67.862,9.559 67.862,25.584 71.407,25.584 
					71.407,17.367 81.105,26.225 				"/>
				<polygon fill="#FFFFFF" points="82.617,12.887 86.942,12.887 86.942,25.584 90.751,25.584 90.751,12.887 95.025,12.887 
					95.025,9.828 82.617,9.828 				"/>
				<polygon fill="#FFFFFF" points="96.418,25.584 96.418,9.828 105.707,9.828 105.707,12.818 99.991,12.818 99.991,16.175 
					105.136,16.175 105.136,19.209 99.991,19.209 99.991,22.564 105.707,22.564 105.707,25.584 				"/>
				<polygon fill="#FFFFFF" points="130.396,9.828 130.396,16.197 124.308,16.197 124.308,9.828 120.753,9.828 120.753,25.584 
					124.308,25.584 124.308,19.209 130.396,19.209 130.396,25.584 133.948,25.584 133.948,9.828 				"/>
				<polygon fill="#FFFFFF" points="43.579,9.828 51.645,26.016 53.586,21.907 47.704,9.828 				"/>
				<polygon fill="#FFFFFF" points="59.642,9.283 57.687,13.372 59.349,17.58 55.666,17.58 54.428,20.185 60.362,20.185 
					62.603,25.584 66.725,25.584 				"/>
				<path fill="#FFFFFF" d="M106.469,17.738c0,5.166,3.893,8.038,8.694,8.038c1.895,0,2.942-0.544,3.729-0.948v-3.736
					c-0.729,0.967-2.186,1.612-3.659,1.612c-2.875,0-5.156-1.942-5.156-5.062c0-3.089,2.53-4.941,5.156-4.941
					c1.474,0,2.931,0.645,3.659,1.612V10.85c-0.672-0.591-1.881-1.098-3.771-1.098C110.323,9.752,106.469,13.154,106.469,17.738z"/>
				<path fill="#FFFFFF" d="M20.955,19.41l2.265-5.567l2.265,5.567H20.955z M32.378,25.584L23.351,5.902l-9.112,19.682h4.46
					l1.286-3.293h6.461l1.295,3.293H32.378z"/>
			</g>
		</g>
	</g>
</g>
</svg>
