<svg width="123" height="26" viewBox="0 0 123 26" fill="none" xmlns="http://www.w3.org/2000/svg">
<g clip-path="url(#clip0_18_562)">
<path d="M15.6198 9.64737V6.99737H18.2898V25.0874H15.6198V22.3874C14.6198 24.2274 12.4498 25.6274 9.17977 25.6274C7.96172 25.6526 6.75195 25.4218 5.62879 24.9498C4.50563 24.4778 3.49412 23.7751 2.65977 22.8874C1.78209 21.9724 1.09496 20.8921 0.638325 19.7093C0.181686 18.5265 -0.0353689 17.2648 -0.000229955 15.9974C-0.0310346 14.741 0.188268 13.4911 0.644924 12.3203C1.10158 11.1494 1.78647 10.0811 2.65977 9.17737C3.49263 8.28566 4.50316 7.57843 5.62618 7.10132C6.7492 6.62421 7.95976 6.38781 9.17977 6.40737C12.4498 6.40737 14.5798 7.80737 15.6198 9.64737ZM13.9998 21.1274C14.6575 20.4482 15.1731 19.6447 15.5165 18.7638C15.8599 17.883 16.0242 16.9425 15.9998 15.9974C16.021 15.0632 15.855 14.1341 15.5115 13.2651C15.168 12.3961 14.654 11.6046 13.9998 10.9374C13.3871 10.2774 12.6395 9.75721 11.8077 9.4121C10.976 9.06698 10.0797 8.90506 9.17977 8.93737C8.30151 8.91279 7.42835 9.07886 6.62043 9.42412C5.81251 9.76939 5.08902 10.2857 4.49977 10.9374C3.25876 12.3248 2.59982 14.1369 2.65977 15.9974C2.59713 17.8793 3.25526 19.7142 4.49977 21.1274C5.09354 21.7734 5.81786 22.2858 6.62471 22.6306C7.43156 22.9754 8.3025 23.1447 9.17977 23.1274C10.0787 23.1519 10.9727 22.9865 11.8032 22.6418C12.6338 22.2972 13.3823 21.7811 13.9998 21.1274V21.1274Z" fill="#1B1B25"/>
<path d="M27.5795 25.09V5H20.7695V0H39.7695V5H33.1195V25.09H27.5795Z" fill="#1B1B25"/>
<path d="M52.9203 9.31633V6.99633H58.2803V25.0863H52.9203V22.7063C52.3803 24.2963 50.2503 25.4063 47.5203 25.4063C46.3174 25.4342 45.1221 25.2081 44.0125 24.7429C42.9028 24.2777 41.9037 23.5837 41.0803 22.7063C39.38 20.892 38.4606 18.4822 38.5203 15.9963C38.4608 13.5254 39.3811 11.1313 41.0803 9.33633C41.8957 8.44609 42.8924 7.7409 44.0033 7.26826C45.1142 6.79562 46.3134 6.5665 47.5203 6.59633C50.2503 6.61633 52.3803 7.73633 52.9203 9.31633ZM51.8403 19.2563C52.2896 18.8418 52.6465 18.3373 52.8878 17.7755C53.129 17.2138 53.2491 16.6076 53.2403 15.9963C53.249 15.3924 53.1287 14.7936 52.8872 14.24C52.6458 13.6864 52.2888 13.1908 51.8403 12.7863C51.4023 12.3477 50.8791 12.0034 50.303 11.7746C49.7268 11.5459 49.1099 11.4376 48.4903 11.4563C47.883 11.4402 47.2789 11.5501 46.7161 11.779C46.1533 12.0079 45.644 12.3509 45.2203 12.7863C44.7857 13.1985 44.442 13.697 44.2112 14.2498C43.9805 14.8026 43.8678 15.3975 43.8803 15.9963C43.8703 16.5993 43.984 17.1979 44.2145 17.7552C44.445 18.3125 44.7873 18.8166 45.2203 19.2363C45.6519 19.6584 46.1635 19.9899 46.7251 20.2114C47.2866 20.433 47.8868 20.54 48.4903 20.5263C49.1048 20.5456 49.7171 20.4433 50.2919 20.2254C50.8668 20.0074 51.393 19.6781 51.8403 19.2563V19.2563Z" fill="#1B1B25"/>
<path d="M61.8496 25.09V0H67.2096V25.09H61.8496Z" fill="#1B1B25"/>
<path d="M69.9993 15.9966C69.9424 14.7307 70.1536 13.467 70.6188 12.2883C71.0841 11.1096 71.7931 10.0424 72.6993 9.15664C73.6202 8.28417 74.7053 7.60329 75.8915 7.15353C77.0777 6.70377 78.3414 6.49408 79.6093 6.53664C80.8372 6.49389 82.0605 6.70845 83.2006 7.16655C84.3407 7.62465 85.3723 8.31615 86.2293 9.19664C87.0689 10.056 87.728 11.0747 88.1677 12.1927C88.6073 13.3108 88.8187 14.5056 88.7893 15.7066C88.7901 16.2984 88.7533 16.8896 88.6793 17.4766H75.3793C75.4893 19.6366 77.3793 21.0066 80.1693 21.0066C82.4475 21.0983 84.698 20.4798 86.6093 19.2366V23.8966C84.575 25.0923 82.2363 25.6691 79.8793 25.5566C77.2512 25.6623 74.6846 24.7446 72.7193 22.9966C71.8095 22.1126 71.0968 21.0462 70.628 19.8674C70.1593 18.6886 69.945 17.4241 69.9993 16.1566V15.9966ZM83.3893 13.9966C83.3893 12.3766 81.7293 10.9966 79.6093 10.9966C78.5702 10.9729 77.5496 11.2735 76.6893 11.8566C76.3237 12.0878 76.0181 12.4022 75.7973 12.7742C75.5766 13.1461 75.4471 13.565 75.4193 13.9966H83.3893Z" fill="#1B1B25"/>
<path d="M91.4395 25.0869V6.99687H96.7995V9.20687C97.5595 7.62687 99.6094 6.54688 102.089 6.54688C106.519 6.54688 109.089 9.35687 109.089 14.0669V25.0669H103.729V14.7169C103.781 14.2647 103.732 13.8067 103.586 13.3758C103.439 12.9449 103.199 12.5517 102.883 12.2247C102.566 11.8977 102.181 11.6449 101.755 11.4844C101.329 11.324 100.873 11.2599 100.419 11.2969C99.9435 11.2798 99.4692 11.3615 99.0263 11.5368C98.5835 11.7121 98.1817 11.9772 97.8464 12.3154C97.511 12.6536 97.2493 13.0575 97.0777 13.5018C96.9062 13.9461 96.8284 14.4211 96.8494 14.8969V25.0869H91.4395Z" fill="#1B1B25"/>
<path d="M113.65 25.09V11.81H111.24V7H113.65V0H118.87V7H122.87V11.86H118.87V25.09H113.65Z" fill="#1B1B25"/>
</g>
<defs>
<clipPath id="clip0_18_562">
<rect width="122.87" height="25.63" fill="white"/>
</clipPath>
</defs>
</svg>
