<?xml version="1.0" encoding="UTF-8"?>
<svg width="3483px" height="1935px" viewBox="0 0 3483 1935" version="1.1" xmlns="http://www.w3.org/2000/svg" xmlns:xlink="http://www.w3.org/1999/xlink">
    <title>svg横版</title>
    <g id="svg横版" stroke="none" stroke-width="1" fill="none" fill-rule="evenodd">
        <g id="编组备份-4" transform="translate(742.000000, 708.500000)" fill="#396AFF">
            <path d="M649.652831,286.751044 L689.540611,158.531551 L729.425777,286.751044 L649.652831,286.751044 Z M705.900271,105.937594 L673.178337,105.937594 L655.979786,105.937594 L555.310379,414.999284 L609.757211,414.999284 L634.427371,335.696744 L744.653851,335.696744 L769.321396,414.999284 L823.768228,414.999284 L723.098822,105.937594 L705.900271,105.937594 Z" id="Fill-1"></path>
            <polygon id="Fill-2" points="1151.41355 129.498903 1102.46524 129.498903 1102.46524 177.529925 1067.36253 177.529925 1067.36253 226.478239 1102.46524 226.478239 1102.46524 412.839861 1151.41355 412.839861 1151.41355 226.478239 1186.51626 226.478239 1186.51626 177.529925 1151.41355 177.529925"></polygon>
            <polygon id="Fill-3" points="1463.06639 412.838293 1512.01209 412.838293 1512.01209 183.557389 1463.06639 183.557389"></polygon>
            <path d="M988.984336,313.684899 L988.984336,320.558047 C988.984336,349.237107 965.65222,372.569224 936.97316,372.569224 C908.2941,372.569224 884.961983,349.237107 884.961983,320.558047 L884.961983,313.684899 L885.225933,177.363977 L836.280233,177.363977 L836.544183,313.684899 L836.544183,320.558047 C836.544183,375.935237 881.59597,420.987025 936.97316,420.987025 C992.347736,420.987025 1037.39952,375.935237 1037.39952,320.558047 L1037.39952,313.684899 L1037.66609,177.363977 L988.717773,177.363977 L988.984336,313.684899 Z" id="Fill-4"></path>
            <path d="M1894.52762,362.996732 C1864.70129,362.996732 1840.52244,335.783769 1840.52244,288.779799 C1840.52244,244.023322 1864.70129,214.562866 1894.52762,214.562866 C1924.35656,214.562866 1949.01365,243.87436 1949.01365,288.779799 C1949.01365,337.218506 1924.35656,362.996732 1894.52762,362.996732 L1894.52762,362.996732 Z M1997.95935,330.19117 L1997.95935,177.706589 L1949.01365,177.706589 L1949.01365,202.894194 C1931.55376,183.474284 1907.88191,172.485087 1882.00176,172.485087 C1829.03148,172.485087 1786.0939,218.650167 1786.0939,288.779799 C1786.0939,362.434859 1829.03148,405.074511 1882.00176,405.074511 C1907.88191,405.074511 1931.55376,395.405063 1949.01365,376.690761 L1949.01365,401.781672 L1949.05546,401.781672 L1949.05546,415.318899 C1949.05546,443.707875 1925.95593,466.807403 1897.56434,466.807403 C1869.17275,466.807403 1846.07584,443.707875 1846.07584,415.318899 L1796.61792,415.318899 C1796.61792,470.980945 1841.89968,516.265322 1897.56434,516.265322 C1953.229,516.265322 1998.51338,470.980945 1998.51338,415.318899 L1998.51338,330.19117 L1997.95935,330.19117 Z" id="Fill-6"></path>
            <path d="M1487.53977,95.1984959 C1469.83422,95.1984959 1455.47901,109.553706 1455.47901,127.261863 C1455.47901,144.967406 1469.83422,159.322616 1487.53977,159.322616 C1505.24792,159.322616 1519.60313,144.967406 1519.60313,127.261863 C1519.60313,109.553706 1505.24792,95.1984959 1487.53977,95.1984959" id="Fill-8"></path>
            <path d="M1679.51986,169.563084 L1668.45749,169.563084 C1642.3343,169.563084 1603.15213,188.387147 1603.15213,224.454188 L1603.15213,188.083997 L1554.20643,188.083997 L1554.20643,412.161693 L1603.15213,412.161693 L1603.15213,271.850163 C1603.15213,240.983717 1628.17771,215.960754 1659.04415,215.960754 C1686.71968,215.960754 1709.15541,238.396487 1709.15541,266.072015 L1709.15541,412.838555 L1763.31216,412.838555 L1763.31216,253.355384 C1763.31216,207.077929 1725.7947,169.563084 1679.51986,169.563084" id="Fill-10"></path>
            <path d="M1341.18875,169.563084 L1330.12638,169.563084 C1306.38658,169.563084 1275.95395,181.111541 1267.72447,207.757404 L1267.72447,88.9982891 L1218.77615,88.9982891 L1218.77615,411.111121 L1267.72447,411.111121 L1267.72447,254.16814 C1275.12813,231.975451 1296.03243,215.960754 1320.71043,215.960754 C1348.38857,215.960754 1370.8243,238.396487 1370.8243,266.072015 L1370.8243,412.838555 L1424.98105,412.838555 L1424.98105,253.355384 C1424.98105,207.077929 1387.46359,169.563084 1341.18875,169.563084" id="Fill-12"></path>
            <path d="M222.727626,464.784136 C117.100667,409.132543 45.0763467,298.284082 45.0763467,170.595102 C45.0763467,167.367597 45.1547476,164.158385 45.2462153,160.954401 L222.756373,52.7088509 L400.21165,160.954401 C400.300504,164.158385 400.381519,167.367597 400.381519,170.595102 C400.381519,298.284082 328.354585,409.132543 222.727626,464.784136 M445.208557,136.1588 L445.208557,136.1588 L222.756373,0.47031162 L0.246695214,136.1588 C0.131707184,140.178154 0.0350127044,144.200122 0.0350127044,148.24561 C0.0350127044,308.308948 90.3189097,447.258915 222.727626,517.022675 C355.136342,447.258915 445.420239,308.308948 445.420239,148.24561 C445.420239,144.200122 445.323545,140.178154 445.208557,136.1588" id="Fill-14"></path>
            <path d="M262.461478,116.791941 L223.078078,189.929555 L268.487896,272.728776 L223.057171,344.324505 L177.629059,272.728776 L223.038878,189.929555 L184.483914,116.38687 L85.6961295,181.454414 L85.6961295,189.148159 C85.6961295,288.814034 141.755407,375.285032 224.196598,418.523145 C306.640402,374.919161 362.69968,288.448163 362.69968,189.148159 C362.69968,186.587062 362.69968,184.020738 362.69968,181.454414 L262.461478,116.791941 Z" id="Fill-16"></path>
        </g>
    </g>
</svg>