<svg id="图层_1" data-name="图层 1" xmlns="http://www.w3.org/2000/svg" viewBox="0 0 100 39.07"><defs><style>.cls-1{fill:#1e528d;}.cls-2{fill:#4673b8;}.cls-3{fill:#218536;}.cls-4{fill:#44af35;}.cls-5{fill:#231815;}.cls-6{fill:#717071;}.cls-7{fill:#b4b4b5;}</style></defs><title>矢量智能对象21</title><path class="cls-1" d="M26.12,15.42a9.1,9.1,0,0,0,.5-2.21,10,10,0,0,0-1.05-6.36,11.73,11.73,0,0,0-5-1.94,6,6,0,0,1,.95.85,5.59,5.59,0,0,1,.71,1,6.69,6.69,0,0,1,.93,3.15A7.77,7.77,0,0,1,22.86,12a5.55,5.55,0,0,1-5.05,4.29c.92.09,1.82.14,2.66.14A13.36,13.36,0,0,0,26.12,15.42Z"/><path class="cls-2" d="M15.75,3.59a8.6,8.6,0,0,1,1.58-.14,17.56,17.56,0,0,1,6.93,1.68,10.73,10.73,0,0,0-1.19-1.3,13.48,13.48,0,0,0-4-2.56A6,6,0,0,0,16.8.82l-.42,0a8.08,8.08,0,0,0-6,2.85,6.27,6.27,0,0,0,0,7.59,10,10,0,0,1-.05-2.06A6.13,6.13,0,0,1,15.75,3.59Z"/><path class="cls-3" d="M1.83,18.5A3.5,3.5,0,0,0,.48,20.36a.55.55,0,0,0,0,.38,5.17,5.17,0,0,0,.9,1.71,7.87,7.87,0,0,0,1.32,1.33,7.62,7.62,0,0,0,2,1.18h0a3.58,3.58,0,0,0,1.43-.18A1.4,1.4,0,0,0,7,23.9a2.48,2.48,0,0,0,.08-1,.28.28,0,0,0-.19-.22c-1.66-.63-3.81-1.83-4.64-4.06A.3.3,0,0,0,1.83,18.5Z"/><path class="cls-4" d="M25,17.36l.05-.05.09-.08s0,0,0-.05a17.67,17.67,0,0,1-4.57.59A16.16,16.16,0,0,1,17,17.4a9.57,9.57,0,0,1-4.14-2,10.85,10.85,0,0,1-.91-.75l-.15-.22-1.69-2.08A7.37,7.37,0,0,1,7.77,6.68a6.53,6.53,0,0,1,3.65-5.3A10.86,10.86,0,0,1,15.7.26,10.69,10.69,0,0,0,13.36,0,9.74,9.74,0,0,0,4.77,4.64,11.8,11.8,0,0,0,3.38,8.17c0,.25-.1.51-.14.76a10.71,10.71,0,0,0,.48,5,9.69,9.69,0,0,0,.37,1,.17.17,0,0,1,0,.12A.11.11,0,0,1,4,15,4.17,4.17,0,0,0,1.55,16a4.24,4.24,0,0,0-1.26,2.4l0,.23s0,0,0,.07,0,.22,0,.26a.06.06,0,0,1,0,0v0a1.21,1.21,0,0,0,0,.2h0A3.14,3.14,0,0,1,2,17.44a.05.05,0,0,1,0,0,1.84,1.84,0,0,1,.63-.12h.05a9.27,9.27,0,0,1,3.1.76s0,0,.06.06a12.6,12.6,0,0,1,1.85,4.18v0l0,.18a2.87,2.87,0,0,1,0,.31.13.13,0,0,1,0,.06,3.5,3.5,0,0,1-.11,1.34,1.54,1.54,0,0,1-1,1.11,11.11,11.11,0,0,0,1.54,0,8.24,8.24,0,0,0,4.21-1.73A4.6,4.6,0,0,0,14,20.66a.14.14,0,0,1,.05-.09.16.16,0,0,1,.1,0,23.76,23.76,0,0,0,3.42.34,8.91,8.91,0,0,0,7.36-3.5S25,17.36,25,17.36Z"/><path class="cls-5" d="M48.92,20.72a5.82,5.82,0,0,1-4.29-1.86,6.29,6.29,0,0,1-1.77-4.49,6.31,6.31,0,0,1,1.77-4.51,5.84,5.84,0,0,1,8.59,0A6.23,6.23,0,0,1,55,14.37a6.26,6.26,0,0,1-1.78,4.49A5.81,5.81,0,0,1,48.92,20.72Zm0-10.78A3.74,3.74,0,0,0,46,11.21a4.65,4.65,0,0,0,0,6.28,3.78,3.78,0,0,0,2.9,1.27,3.87,3.87,0,0,0,2.9-1.27,4.64,4.64,0,0,0,0-6.28A3.83,3.83,0,0,0,48.94,9.94Z"/><path class="cls-5" d="M64.8,20.72V14.18a4.3,4.3,0,0,0-.95-2.95,3.72,3.72,0,0,0-5.2,0,4.3,4.3,0,0,0-.95,2.95v6.54h-2V14.18a6.22,6.22,0,0,1,1.49-4.29,5.13,5.13,0,0,1,4-1.66,5.2,5.2,0,0,1,4,1.66,6.22,6.22,0,0,1,1.49,4.29v6.54Z"/><path class="cls-5" d="M67.52,20.72V14.6a6.27,6.27,0,0,1,1.78-4.51,5.81,5.81,0,0,1,4.3-1.86H74v1.94H73.6a3.72,3.72,0,0,0-2.89,1.29,4.5,4.5,0,0,0-1.23,3.14v6.12Z"/><path class="cls-5" d="M80.32,20.72A5.81,5.81,0,0,1,76,18.86a6.23,6.23,0,0,1-1.77-4.49A6.26,6.26,0,0,1,76,9.86,5.73,5.73,0,0,1,80.32,8,5.81,5.81,0,0,1,84.6,9.84a6.23,6.23,0,0,1,1.77,4.49v.38H76.21a4.41,4.41,0,0,0,1.21,2.78,3.73,3.73,0,0,0,2.9,1.29,3.82,3.82,0,0,0,2.12-.64,4.47,4.47,0,0,0,1.5-1.73v0l.13-.2h2L86,16.7h0a6.38,6.38,0,0,1-2.22,2.89A5.65,5.65,0,0,1,80.32,20.72Zm3.84-7.95a4.45,4.45,0,0,0-1.32-1.91,4,4,0,0,0-2.55-.92,3.92,3.92,0,0,0-2.52.92,4.37,4.37,0,0,0-1.32,1.91Z"/><path class="cls-5" d="M93.71,20.72a5.81,5.81,0,0,1-4.3-1.86,6.23,6.23,0,0,1-1.77-4.49,6.26,6.26,0,0,1,1.77-4.51A5.72,5.72,0,0,1,93.71,8,5.82,5.82,0,0,1,98,9.84a6.23,6.23,0,0,1,1.77,4.49v.38H89.61a4.41,4.41,0,0,0,1.21,2.78,3.72,3.72,0,0,0,2.89,1.29,3.86,3.86,0,0,0,2.13-.64,4.47,4.47,0,0,0,1.5-1.73v0l.13-.2h2l-.15.51h0a6.38,6.38,0,0,1-2.22,2.89A5.66,5.66,0,0,1,93.71,20.72Zm3.85-7.95a4.39,4.39,0,0,0-1.33-1.91,3.94,3.94,0,0,0-5.06,0,4.48,4.48,0,0,0-1.33,1.91Z"/><path class="cls-5" d="M39.85,12.52a2.76,2.76,0,0,0,.49-.28,3.52,3.52,0,0,0,1.5-3,4.22,4.22,0,0,0-.78-2.45A4.37,4.37,0,0,0,37.6,5.21c-.35,0-.69,0-1,0H30.13V21h6.93a6,6,0,0,0,3-.62,4.35,4.35,0,0,0,2.23-4A4,4,0,0,0,39.85,12.52Zm-7.67,1H36a5.64,5.64,0,0,1,2.94.52h0a2.75,2.75,0,0,1,1.38,2.45A2.39,2.39,0,0,1,38.35,19a9.07,9.07,0,0,1-2.18.12h-4Zm7.08-2.78c-.72.92-2,.92-3.12.92h-4V7.1h4.25c1.06,0,2.25,0,2.89.87h0a2.15,2.15,0,0,1,.4,1.31A2.33,2.33,0,0,1,39.26,10.72Z"/><path class="cls-6" d="M38.31,38.67a.29.29,0,0,1-.07-.38,4.84,4.84,0,0,0,.4-2.41v-3a.32.32,0,0,1,.31-.32H40.2a.32.32,0,0,1,.33.32v4.94c0,.5-.2.74-.66.74h-.38c-.14,0-.22-.06-.23-.24a.22.22,0,0,1,.18-.23h.28c.25,0,.37-.08.35-.35V36.44h-1a4.94,4.94,0,0,1-.43,2.15A.31.31,0,0,1,38.31,38.67Zm.79-5.47v1.11h1V33.2c0-.09,0-.14-.12-.14h-.72A.12.12,0,0,0,39.1,33.2Zm0,1.54V36h1V34.74ZM41,38.69a.29.29,0,0,1-.39-.1c-.06-.18,0-.3.11-.35a8,8,0,0,0,1.43-.79,4.89,4.89,0,0,1-.92-1.54.17.17,0,0,1,0-.14h-.11a.23.23,0,0,1-.22-.24.24.24,0,0,1,.22-.24h2.58a.24.24,0,0,1,.26.27,1.14,1.14,0,0,1-.1.45,5.54,5.54,0,0,1-1,1.46,4.93,4.93,0,0,0,1.4.67c.14.07.18.19.13.37a.35.35,0,0,1-.41.1,5.37,5.37,0,0,1-1.48-.79A9.65,9.65,0,0,1,41,38.69ZM41.12,35a.28.28,0,0,1-.38,0,.24.24,0,0,1,0-.34,1.31,1.31,0,0,0,.67-1.41V33a.3.3,0,0,1,.33-.31h1.5a.32.32,0,0,1,.34.31v1c0,.28.11.41.38.4h.28a.18.18,0,0,1,.18.23.24.24,0,0,1-.26.24h-.4c-.46,0-.69-.23-.67-.74v-.82c0-.09,0-.14-.13-.14H42c-.09,0-.13,0-.13.14v.08A1.75,1.75,0,0,1,41.12,35Zm.54.74a4.58,4.58,0,0,0,.81,1.36,4.35,4.35,0,0,0,.87-1.22c0-.09,0-.14-.08-.14Z"/><path class="cls-6" d="M45.3,37.05a.22.22,0,0,1-.2-.22.22.22,0,0,1,.2-.21h5.77a.22.22,0,0,1,0,.43H48.52v.79a.67.67,0,0,1-.72.77,5,5,0,0,1-.66,0,.25.25,0,0,1-.25-.24c0-.16.09-.25.22-.26l.49,0c.29,0,.42-.13.41-.4v-.71Zm0-4a.22.22,0,0,1-.21-.21.23.23,0,0,1,.21-.21H51a.22.22,0,0,1,.2.21.2.2,0,0,1-.2.21H49.21v.64h1.27c.21,0,.31.1.31.29v1a.3.3,0,0,1-.31.29H45.86a.29.29,0,0,1-.3-.29V34a.26.26,0,0,1,.3-.29h1.28v-.64Zm.2,5.47a.22.22,0,0,1-.33-.1.25.25,0,0,1,.1-.35,8.84,8.84,0,0,0,1.41-.77c.17-.07.29,0,.35.08a.23.23,0,0,1-.05.32A13.47,13.47,0,0,1,45.53,38.53Zm.36-2.39a.22.22,0,0,1-.21-.21.23.23,0,0,1,.21-.21h4.62a.23.23,0,0,1,.18.21q0,.2-.18.21ZM46,34.21v.53c0,.07.05.1.1.1h1V34.1h-1S46.06,34.14,46,34.21Zm1.59-1.15v.64h1.12v-.64Zm0,1v.74h1.12V34.1Zm3.14,4.41q-.29-.16-.87-.45l-.62-.3c-.13-.09-.17-.18-.1-.29a.24.24,0,0,1,.33-.1c.48.21,1,.45,1.49.71a.28.28,0,0,1,.1.35A.23.23,0,0,1,50.77,38.51ZM50.2,34.1h-1v.74h1c.09,0,.13,0,.13-.13v-.5C50.33,34.14,50.29,34.1,50.2,34.1Z"/><path class="cls-6" d="M52,35.72a.34.34,0,0,1,0-.43,10.67,10.67,0,0,0,1.38-2.81.33.33,0,0,1,.38-.16c.14,0,.19.17.15.35a6.75,6.75,0,0,1-.38.92c-.07.16-.12.29-.15.38v4.56a.28.28,0,0,1-.28.27.27.27,0,0,1-.26-.27V35a2.8,2.8,0,0,1-.3.5,2,2,0,0,0-.13.22C52.23,35.81,52.1,35.83,52,35.72Zm2-.61a.29.29,0,0,1-.31-.24.25.25,0,0,1,.21-.29l1.27-.16c0-.09,0-.23,0-.43,0-.62,0-1.1,0-1.46a.26.26,0,0,1,.25-.29.29.29,0,0,1,.26.29c0,.14,0,.35,0,.61,0,.55,0,1,.05,1.23l2.1-.24a.22.22,0,0,1,.28.21c0,.18-.05.27-.21.29l-2.14.27a7,7,0,0,0,.56,2.44c.24.51.5.77.79.77s.35-.13.43-.45a1,1,0,0,1,.06-.27,2.68,2.68,0,0,1,.05-.4c0-.16.14-.22.28-.18s.22.14.2.32a5.59,5.59,0,0,1-.15.74c-.12.53-.4.8-.84.8s-1-.35-1.28-1A7.86,7.86,0,0,1,55.23,35Zm3.11-1.33-.23-.21L56.33,33a.23.23,0,0,1,0-.35.26.26,0,0,1,.35,0l.46.4a4.64,4.64,0,0,0,.36.32.27.27,0,0,1,0,.37A.27.27,0,0,1,57.14,33.78Z"/><path class="cls-6" d="M59.13,33.33a.25.25,0,0,1-.23-.24.24.24,0,0,1,.23-.21h2a.22.22,0,0,1,.2.21c0,.16-.06.24-.2.24h-.74v0a7.85,7.85,0,0,1-.54,1.48h.95a.31.31,0,0,1,.28.32v2.63a.32.32,0,0,1-.31.32H59.69a.32.32,0,0,1-.31-.32v-2.1l-.2.32a.2.2,0,0,1-.31,0,.28.28,0,0,1-.07-.19.33.33,0,0,1,.05-.21,6.33,6.33,0,0,0,1-2.31Zm1.4,4.35c.09,0,.13,0,.13-.13V35.4c0-.09,0-.13-.13-.13H60c-.06,0-.09,0-.11.13v2.15c0,.09,0,.13.11.13Zm1-.53a.24.24,0,0,1-.23-.24.26.26,0,0,1,.23-.24H63.7a.26.26,0,0,1,.23.24.24.24,0,0,1-.23.24ZM63,38.61c-.17,0-.27-.09-.3-.24a.26.26,0,0,1,.2-.29h.31l.43,0a.52.52,0,0,0,.59-.56c0-.18,0-.45,0-.82s0-.6,0-.8a.12.12,0,0,0-.13-.16H62a.27.27,0,0,1-.28-.32l.13-1.8a.26.26,0,0,1,.28-.24.26.26,0,0,1,.23.26l-.13,1.46c0,.11,0,.16.13.16h1.28l.18-2c0-.07,0-.11-.13-.13H61.76a.24.24,0,0,1,0-.48h2.32c.19,0,.28.11.28.32l-.23,2.28h.36c.19,0,.28.11.28.32,0,1-.06,1.63-.08,2a.87.87,0,0,1-1,1Z"/><path class="cls-6" d="M66.76,35.48a.38.38,0,1,1,.76,0,.38.38,0,1,1-.76,0Zm0,2.52a.38.38,0,1,1,.76,0,.38.38,0,1,1-.76,0Z"/><path class="cls-6" d="M71.22,34.86l0,0a1.35,1.35,0,0,1,.37-.13,1.84,1.84,0,0,1,.39,0,1.77,1.77,0,0,1,.69.13,1.47,1.47,0,0,1,.54.38,1.83,1.83,0,0,1,.36.59,2.19,2.19,0,0,1,.12.75,1.89,1.89,0,0,1-.14.77,1.72,1.72,0,0,1-.4.58,1.78,1.78,0,0,1-.61.37,2.2,2.2,0,0,1-1.49,0,1.78,1.78,0,0,1-.61-.37,1.72,1.72,0,0,1-.4-.58,1.89,1.89,0,0,1-.14-.77,2.5,2.5,0,0,1,.15-.9,5.39,5.39,0,0,1,.38-.76L72,32.41h.78Zm.6.45a1.21,1.21,0,0,0-.48.08,1.14,1.14,0,0,0-.39.25,1.11,1.11,0,0,0-.26.4,1.24,1.24,0,0,0-.1.52,1.27,1.27,0,0,0,.1.52,1.16,1.16,0,0,0,.26.39,1.14,1.14,0,0,0,.39.25,1.21,1.21,0,0,0,.48.09,1.28,1.28,0,0,0,.48-.09,1.14,1.14,0,0,0,.39-.25,1.3,1.3,0,0,0,.25-.39,1.27,1.27,0,0,0,.1-.52,1.37,1.37,0,0,0-.35-.92,1.14,1.14,0,0,0-.39-.25A1.27,1.27,0,0,0,71.82,35.31Z"/><path class="cls-6" d="M75.45,33.85a1.47,1.47,0,0,1,.13-.64,1.36,1.36,0,0,1,.34-.48,1.45,1.45,0,0,1,.51-.31,1.69,1.69,0,0,1,.64-.11,1.66,1.66,0,0,1,.64.11,1.6,1.6,0,0,1,.52.31,1.67,1.67,0,0,1,.34.48,1.62,1.62,0,0,1,.12.64,1.4,1.4,0,0,1-.06.41,1.76,1.76,0,0,1-.19.39,1.7,1.7,0,0,1-.29.31,1.18,1.18,0,0,1-.39.19h0a1.52,1.52,0,0,1,.47.2,1.26,1.26,0,0,1,.35.34,1.35,1.35,0,0,1,.22.45,1.59,1.59,0,0,1,.08.53,1.65,1.65,0,0,1-.14.72,1.55,1.55,0,0,1-.38.55,1.68,1.68,0,0,1-.58.34,2.16,2.16,0,0,1-1.42,0,1.63,1.63,0,0,1-.57-.34,1.45,1.45,0,0,1-.39-.55,1.81,1.81,0,0,1-.14-.72,1.89,1.89,0,0,1,.08-.53,1.59,1.59,0,0,1,.23-.45,1.14,1.14,0,0,1,.35-.34,1.46,1.46,0,0,1,.46-.2h0A1.41,1.41,0,0,1,76,35a1.7,1.7,0,0,1-.29-.31,1.38,1.38,0,0,1-.18-.39A1.14,1.14,0,0,1,75.45,33.85Zm.48,2.78a1.28,1.28,0,0,0,.09.48,1.15,1.15,0,0,0,.25.37,1.13,1.13,0,0,0,.36.24,1,1,0,0,0,.44.09,1.13,1.13,0,0,0,.45-.09,1.41,1.41,0,0,0,.36-.24,1.31,1.31,0,0,0,.24-.37,1.28,1.28,0,0,0,.09-.48,1.19,1.19,0,0,0-.09-.47,1.08,1.08,0,0,0-.24-.37,1.23,1.23,0,0,0-.36-.25,1.33,1.33,0,0,0-.45-.08,1.23,1.23,0,0,0-.44.08,1,1,0,0,0-.36.25,1,1,0,0,0-.25.37A1.19,1.19,0,0,0,75.93,36.63Zm.2-2.75a1,1,0,0,0,.26.7.9.9,0,0,0,.68.28.93.93,0,0,0,.69-.28,1.07,1.07,0,0,0,0-1.4.92.92,0,0,0-.69-.27.9.9,0,0,0-.68.27A1,1,0,0,0,76.13,33.88Z"/><path class="cls-6" d="M80.71,33.85a1.62,1.62,0,0,1,.12-.64,1.67,1.67,0,0,1,.34-.48,1.6,1.6,0,0,1,.52-.31,1.92,1.92,0,0,1,1.28,0,1.45,1.45,0,0,1,.51.31,1.36,1.36,0,0,1,.34.48,1.47,1.47,0,0,1,.13.64,1.14,1.14,0,0,1-.07.41,1.38,1.38,0,0,1-.18.39,1.7,1.7,0,0,1-.29.31,1.41,1.41,0,0,1-.39.19h0a1.46,1.46,0,0,1,.46.2,1.29,1.29,0,0,1,.36.34,1.57,1.57,0,0,1,.22.45,1.89,1.89,0,0,1,.08.53,1.81,1.81,0,0,1-.14.72,1.55,1.55,0,0,1-.38.55,1.77,1.77,0,0,1-.58.34,2.16,2.16,0,0,1-1.42,0A1.77,1.77,0,0,1,81,38a1.55,1.55,0,0,1-.38-.55,1.81,1.81,0,0,1-.14-.72,1.71,1.71,0,0,1,.3-1,1.41,1.41,0,0,1,.35-.34,1.52,1.52,0,0,1,.47-.2h0a1.41,1.41,0,0,1-.39-.19,1.7,1.7,0,0,1-.29-.31,1.76,1.76,0,0,1-.19-.39A1.4,1.4,0,0,1,80.71,33.85Zm.48,2.78a1.28,1.28,0,0,0,.09.48,1.06,1.06,0,0,0,.61.61,1.12,1.12,0,0,0,.88,0,1.13,1.13,0,0,0,.36-.24,1.15,1.15,0,0,0,.25-.37,1.28,1.28,0,0,0,.09-.48,1.19,1.19,0,0,0-.09-.47,1,1,0,0,0-.25-.37,1,1,0,0,0-.36-.25,1.25,1.25,0,0,0-.88,0,1.15,1.15,0,0,0-.37.25,1.08,1.08,0,0,0-.24.37A1.19,1.19,0,0,0,81.19,36.63Zm.19-2.75a1,1,0,0,0,.26.7.94.94,0,0,0,.69.28.9.9,0,0,0,.68-.28,1.07,1.07,0,0,0,0-1.4.9.9,0,0,0-.68-.27.93.93,0,0,0-.69.27A1,1,0,0,0,81.38,33.88Z"/><path class="cls-6" d="M85.76,37.51l2.14-2.17.35-.37a2.25,2.25,0,0,0,.25-.34,1.09,1.09,0,0,0,.15-.33,1.6,1.6,0,0,0,0-.39,1.08,1.08,0,0,0-.08-.42.87.87,0,0,0-.22-.31.79.79,0,0,0-.33-.2,1.05,1.05,0,0,0-.4-.07,1,1,0,0,0-.72.25,1.31,1.31,0,0,0-.36.69l-.73-.07a1.87,1.87,0,0,1,.22-.64,1.45,1.45,0,0,1,.39-.46A1.92,1.92,0,0,1,87,32.4a2.2,2.2,0,0,1,.64-.09,2.09,2.09,0,0,1,.67.1,1.72,1.72,0,0,1,.55.3,1.55,1.55,0,0,1,.37.5,1.54,1.54,0,0,1,.14.7,2.08,2.08,0,0,1-.09.63,1.92,1.92,0,0,1-.25.52,3,3,0,0,1-.35.45l-.41.42-1.75,1.71v0h2.89v.65H85.76Z"/><path class="cls-6" d="M91,37.51l2.14-2.17.35-.37a3.25,3.25,0,0,0,.25-.34,1.09,1.09,0,0,0,.15-.33,1.6,1.6,0,0,0,0-.39,1.08,1.08,0,0,0-.08-.42,1,1,0,0,0-.22-.31.94.94,0,0,0-.33-.2,1.1,1.1,0,0,0-.41-.07,1,1,0,0,0-.71.25,1.19,1.19,0,0,0-.36.69l-.73-.07a2.09,2.09,0,0,1,.21-.64,1.62,1.62,0,0,1,.4-.46,1.78,1.78,0,0,1,.53-.28,2.2,2.2,0,0,1,.64-.09,2,2,0,0,1,.66.1,1.62,1.62,0,0,1,.55.3,1.45,1.45,0,0,1,.38.5,1.68,1.68,0,0,1,.14.7,2.08,2.08,0,0,1-.09.63,2.27,2.27,0,0,1-.25.52,3,3,0,0,1-.35.45q-.19.21-.42.42l-1.74,1.71v0h2.89v.65H91Z"/><path class="cls-6" d="M98.69,35.85v0a1.07,1.07,0,0,1-.38.13,1.89,1.89,0,0,1-.38,0,1.74,1.74,0,0,1-.69-.14,1.47,1.47,0,0,1-.54-.38,1.72,1.72,0,0,1-.36-.58,2,2,0,0,1-.13-.75,1.94,1.94,0,0,1,.15-.78,1.59,1.59,0,0,1,.4-.58,1.84,1.84,0,0,1,.6-.37,2.4,2.4,0,0,1,1.5,0,1.84,1.84,0,0,1,.6.37,1.61,1.61,0,0,1,.41.58,2.13,2.13,0,0,1,.14.78,2.29,2.29,0,0,1,0,.47,2.88,2.88,0,0,1-.11.42c0,.13-.11.26-.17.38s-.14.26-.22.38L98,38.31h-.79Zm-.59-.44a1.28,1.28,0,0,0,.48-.09,1.14,1.14,0,0,0,.39-.25,1.16,1.16,0,0,0,.26-.39,1.46,1.46,0,0,0,.1-.52,1.42,1.42,0,0,0-.1-.52,1.11,1.11,0,0,0-.26-.4,1.14,1.14,0,0,0-.39-.25,1.48,1.48,0,0,0-1,0,1.14,1.14,0,0,0-.39.25,1.11,1.11,0,0,0-.26.4,1.42,1.42,0,0,0-.1.52,1.46,1.46,0,0,0,.1.52,1.16,1.16,0,0,0,.26.39,1.14,1.14,0,0,0,.39.25A1.28,1.28,0,0,0,98.1,35.41Z"/><path class="cls-6" d="M.23,34.63a.24.24,0,0,1,0-.48H.66V32.48a.26.26,0,0,1,.23-.24.26.26,0,0,1,.26.24v1.67h.41a.24.24,0,0,1,0,.48H1.15v3.93a.27.27,0,0,1-.26.27.27.27,0,0,1-.23-.27V34.63Zm1.48,2.55a.21.21,0,0,1-.2-.19.22.22,0,0,1,.2-.21H4.8v-.26a.27.27,0,0,1,.25-.27.26.26,0,0,1,.23.27v.26h.8a.18.18,0,0,1,.2.21c0,.11-.07.17-.2.19h-.8v.69c0,.51-.23.76-.76.74a5.08,5.08,0,0,1-.69,0,.28.28,0,0,1-.28-.27.18.18,0,0,1,.18-.23l.66,0c.29,0,.43-.11.41-.4v-.58ZM5.08,33a3.36,3.36,0,0,0-.36-.42c0-.11,0-.2.11-.27a.23.23,0,0,1,.3.08,3.37,3.37,0,0,0,.33.37.21.21,0,0,1,0,.24H6a.23.23,0,0,1,.21.21.22.22,0,0,1-.21.19H4.14v.5h1.3a.33.33,0,0,1,.33.32v1.94c0,.16-.09.25-.23.27s-.21-.11-.23-.27V36H4.14v.27a.28.28,0,0,1-.26.27c-.14,0-.21-.11-.23-.27V36H2.45v.32a.24.24,0,0,1-.23.27c-.14,0-.21-.11-.23-.27V34.23a.33.33,0,0,1,.33-.32H3.65v-.5H1.86c-.13,0-.2-.08-.2-.19a.22.22,0,0,1,.2-.21H3.65v-.53a.25.25,0,0,1,.23-.24.27.27,0,0,1,.26.24V33ZM3,38.16l-.64-.5a.22.22,0,0,1,0-.32.26.26,0,0,1,.33,0l.34.24a3,3,0,0,1,.3.24.23.23,0,0,1,0,.35A.23.23,0,0,1,3,38.16Zm-.54-3.74v.34h1.2v-.47H2.58C2.49,34.29,2.45,34.33,2.45,34.42Zm0,.71v.48h1.2v-.48Zm2.73-.84h-1v.47H5.31v-.34C5.31,34.33,5.27,34.29,5.18,34.29Zm-1,.84v.48H5.31v-.48Z"/><path class="cls-6" d="M9.22,38.53a.32.32,0,0,1-.33-.32V36.44l-.23.08a2.48,2.48,0,0,1-.43.18.2.2,0,0,1-.31-.1c0-.16,0-.27.13-.32A9.41,9.41,0,0,0,10.6,34.9a.72.72,0,0,1,.38-.22.55.55,0,0,1,.36.22,8.56,8.56,0,0,0,2.6,1.3.24.24,0,0,1,.16.34c0,.11-.17.14-.36.11l-.33-.16-.36-.13v1.85c0,.22-.1.32-.31.32Zm-.84-2.84a.19.19,0,0,1-.28-.08.22.22,0,0,1,.07-.29,9.72,9.72,0,0,0,1.2-.61.2.2,0,0,1,.28.08A.16.16,0,0,1,9.6,35,13.82,13.82,0,0,1,8.38,35.69Zm0-.9c-.15,0-.24-.07-.25-.21v-.77c0-.18.09-.27.28-.27h2.17V32.45c0-.16.09-.24.23-.26s.25.09.25.26v.3h2.35a.16.16,0,0,1,.18.18.21.21,0,0,1-.18.19H11v.42h2.56c.17,0,.25.09.25.27v.77a.21.21,0,0,1-.23.21c-.15,0-.24-.09-.25-.21V34c0-.09,0-.13-.11-.13H8.69c-.07,0-.11,0-.11.13v.58C8.57,34.71,8.49,34.77,8.35,34.79Zm.92-.11a.2.2,0,0,1-.18-.18c0-.13.08-.19.18-.19h3.42c.12,0,.18.06.18.19a.17.17,0,0,1-.18.18ZM9.4,36.3v.32h3.17V36.3c0-.07-.05-.1-.13-.1H9.5C9.45,36.2,9.42,36.23,9.4,36.3Zm0,.67v.42h3.17V37ZM12.57,38v-.29H9.4V38c0,.09,0,.13.13.13h2.91A.12.12,0,0,0,12.57,38Zm-1.66-2.87a4,4,0,0,1-.92.67h2a5.1,5.1,0,0,1-1-.67S11,35.13,10.91,35.16Zm2.52.51c-.18-.11-.58-.32-1.2-.64-.1-.07-.12-.15-.05-.24a.2.2,0,0,1,.28-.08l.59.29c.27.13.47.22.59.29a.23.23,0,0,1,.07.3A.21.21,0,0,1,13.43,35.67Z"/><path class="cls-6" d="M16.15,38.69a.26.26,0,0,1-.34-.16c-.05-.16,0-.25.13-.29a8.64,8.64,0,0,0,1.35-.53c-.3-.16-.62-.31-.94-.45a.25.25,0,0,1-.08-.35c.09-.12.18-.26.28-.42h-.61a.22.22,0,0,1-.2-.21c0-.14.06-.22.2-.22h.87a2.48,2.48,0,0,1,.18-.31c.1-.16.21-.22.33-.16a.2.2,0,0,1,.13.26.23.23,0,0,0-.05.11.35.35,0,0,0-.08.1H18.6a.25.25,0,0,1,.23.22.82.82,0,0,1-.11.42,2.19,2.19,0,0,1-.58.9l.15.08a3.24,3.24,0,0,0,.33.14.26.26,0,0,1,.1.34.21.21,0,0,1-.3.11l-.21-.11-.46-.24A5.41,5.41,0,0,1,16.15,38.69ZM16,34.23a.21.21,0,0,1,0-.42h1.3v-1.3a.26.26,0,0,1,.23-.24.24.24,0,0,1,.23.24v1.3h1.13a.21.21,0,0,1,0,.42H17.75v1.06a.23.23,0,0,1-.23.24.24.24,0,0,1-.23-.24v-.66a4.31,4.31,0,0,1-1.14,1,.29.29,0,0,1-.34-.08.27.27,0,0,1,.11-.32,4.68,4.68,0,0,0,1.25-1Zm.9-.66a.23.23,0,0,1-.31,0,2.82,2.82,0,0,0-.23-.26,3,3,0,0,1-.26-.3.19.19,0,0,1,0-.29.24.24,0,0,1,.28,0,1.85,1.85,0,0,0,.18.16l.33.37A.2.2,0,0,1,16.89,33.57Zm0,3.45.38.19a4.51,4.51,0,0,1,.46.21,2,2,0,0,0,.56-.82c0-.06,0-.09-.07-.11H17.06a.61.61,0,0,0,0,.11c-.07.08-.13.17-.2.26S16.77,37,16.86,37Zm1.71-1.59-.31-.22-.43-.31a.19.19,0,0,1,0-.27.18.18,0,0,1,.26-.05c.31.19.55.36.74.5a0,0,0,0,1,0,0,.31.31,0,0,1,0-.11l0,0a9.59,9.59,0,0,0,1-2.5.26.26,0,0,1,.3-.21.23.23,0,0,1,.16.29c0,.12-.09.3-.16.53s-.08.28-.1.37h1.66a.25.25,0,0,1,.23.24c0,.16-.09.25-.23.27h-.33A8,8,0,0,1,20.61,37a5.18,5.18,0,0,0,1.15,1.14.27.27,0,0,1,0,.4.21.21,0,0,1-.35,0,6.38,6.38,0,0,1-1.13-1.14,4.61,4.61,0,0,1-1.15,1.2.26.26,0,0,1-.38,0,.29.29,0,0,1,.08-.4A5.9,5.9,0,0,0,20.05,37a6,6,0,0,1-.61-2.09.15.15,0,0,0-.05.1l-.16.24a.2.2,0,0,1-.3.08l0,0h0a.16.16,0,0,1,0,.08A.19.19,0,0,1,18.57,35.43Zm-.48-1.86a.19.19,0,0,1,0-.29c.25-.27.42-.45.51-.56a.22.22,0,0,1,.3,0c.1.11.12.21.05.29l-.12.14a2.44,2.44,0,0,1-.44.42A.19.19,0,0,1,18.09,33.57Zm1.68.61a7.88,7.88,0,0,0,.56,2.34A7.24,7.24,0,0,0,20.92,34H19.85C19.83,34,19.8,34.09,19.77,34.18Z"/><path class="cls-6" d="M23.81,34.07c-.16,0-.23-.08-.23-.24s.07-.24.23-.24h.56V32.51a.23.23,0,1,1,.46,0v1.08h.46a.25.25,0,0,1,.23.24c0,.15-.09.23-.23.24h-.46v1.38l.1-.05.31-.08a.23.23,0,0,1,.28.16.25.25,0,0,1-.15.32l-.26.08a1.38,1.38,0,0,1-.28.1v1.89c0,.51-.2.77-.64.77h-.33a.29.29,0,0,1-.31-.24c0-.16.09-.25.21-.26H24c.24,0,.35-.1.33-.35V36.14a1,1,0,0,0-.26.06l-.25.08a.27.27,0,0,1-.33-.19.31.31,0,0,1,.23-.34,2.64,2.64,0,0,0,.61-.16V34.07Zm1.25,4.62a.28.28,0,0,1-.08-.37A5.47,5.47,0,0,0,25.75,35V33a.31.31,0,0,1,.31-.31h3.11a.31.31,0,0,1,.31.31V34.1a.32.32,0,0,1-.31.32H27.94a.25.25,0,0,1,.21.24v.55h1.43a.25.25,0,0,1,.23.22.26.26,0,0,1-.23.24H28.15v.79h.94a.28.28,0,0,1,.31.32v1.43c0,.2-.1.3-.31.3H26.74a.27.27,0,0,1-.3-.3V36.78c0-.21.1-.32.3-.32h1v-.79H26.21a5.49,5.49,0,0,1-.79,3A.22.22,0,0,1,25.06,38.69Zm1.17-5.44V34h2.63c.09,0,.13,0,.13-.13v-.61c0-.09,0-.13-.13-.13h-2.5A.12.12,0,0,0,26.23,33.25Zm1.46,1.41c0-.16.07-.24.2-.24H26.23v.79h1.46ZM26.9,37V38c0,.09.05.13.15.13h1.76c.09,0,.13,0,.13-.13V37c0-.09,0-.13-.13-.13H27.05C27,36.89,26.9,36.93,26.9,37Z"/><path class="cls-7" d="M33.92,39.07a.21.21,0,0,1-.2-.21V32.57a.2.2,0,1,1,.4,0v6.29A.21.21,0,0,1,33.92,39.07Z"/></svg>