<svg width="200" height="40" viewBox="0 0 200 40" fill="none" xmlns="http://www.w3.org/2000/svg">
<path d="M13.0355 8.2045H22.3445L23.3335 3.9375H7.29348L3.06348 22.1945H9.79248L11.2885 15.7445H18.6905L19.6795 11.4775H12.2765L13.0355 8.2045Z" fill="#231C1D"/>
<path d="M30.4108 8.5C24.9048 8.698 21.5128 11.081 20.2298 15.644C19.3678 20.009 21.6878 22.259 27.1908 22.392C32.8308 22.259 36.2438 19.946 37.4368 15.447C38.1658 11.015 35.8218 8.698 30.4108 8.5ZM31.3808 15.446C30.8288 17.827 29.6928 19.017 27.9728 19.017C26.3418 18.952 25.7578 17.762 26.2208 15.446C26.7998 13.263 27.9578 12.138 29.6958 12.072C31.2658 12.072 31.8258 13.199 31.3808 15.446Z" fill="#231C1D"/>
<path d="M48.3306 8.5C42.7496 8.698 39.3206 11.081 38.0386 15.644C37.1756 20.009 39.5346 22.259 45.1116 22.392C50.2116 22.327 53.3926 20.54 54.6536 17.034H48.5976C48.1396 18.359 47.2406 19.017 45.8936 19.017C44.1136 18.952 43.4766 17.828 43.9826 15.644C44.6086 13.264 45.7816 12.072 47.5026 12.072C48.1756 12.072 48.6586 12.238 48.9576 12.569C49.2546 12.9 49.3346 13.362 49.1966 13.958H55.2536C55.5426 10.453 53.2346 8.634 48.3306 8.5Z" fill="#231C1D"/>
<path d="M67.8275 8.89844L66.3565 15.2484C65.8345 17.4974 64.8335 18.5894 63.3535 18.5234C61.8415 18.5894 61.3225 17.7634 61.7965 16.0424L63.4525 8.89844H57.3945L55.5095 17.0354C54.7705 20.5414 56.1525 22.3274 59.6525 22.3934C62.0905 22.5254 64.0905 21.7984 65.6545 20.2104L65.1955 22.1944H70.6915L73.7725 8.89844H67.8275V8.89844Z" fill="#231C1D"/>
<path d="M82.586 8.5C77.918 8.634 75.225 10.088 74.508 12.866C74.017 14.985 75.706 16.406 79.576 17.133C81.591 17.465 82.533 17.927 82.395 18.523C82.226 19.252 81.498 19.648 80.212 19.713C79.628 19.648 79.172 19.515 78.846 19.317C78.458 19.052 78.334 18.623 78.472 18.026H72.751C72.39 20.871 74.595 22.327 79.367 22.392C84.691 22.327 87.727 20.839 88.477 17.927C88.952 15.877 87.12 14.421 82.983 13.561C81.04 13.231 80.123 12.834 80.23 12.371C80.383 11.71 81.022 11.377 82.144 11.377C82.592 11.377 82.971 11.511 83.286 11.775C83.613 11.973 83.731 12.27 83.639 12.668H89.135C89.479 9.89 87.296 8.5 82.586 8.5Z" fill="#231C1D"/>
<path d="M135.361 10.5844C132.805 9.98941 131.605 9.36241 131.758 8.69941C131.927 7.97241 132.757 7.60841 134.254 7.60841C135.001 7.60841 135.53 7.74141 135.846 8.00541C136.398 8.20441 136.641 8.60141 136.579 9.19541H142.973C143.174 5.42441 140.662 3.50741 135.445 3.44141C129.655 3.57441 126.249 5.52441 125.228 9.29541C124.567 12.1404 126.762 14.1244 131.812 15.2484C134.305 15.7794 135.47 16.4074 135.3 17.1334C135.102 17.9944 134.029 18.4244 132.085 18.4244C131.336 18.4244 130.731 18.2914 130.271 18.0264C129.822 17.6964 129.564 17.2004 129.494 16.5374H122.988C122.788 20.3084 125.392 22.2934 130.806 22.4914C137.103 22.4254 140.792 20.3754 141.878 16.3404C142.507 13.6284 140.332 11.7114 135.361 10.5844Z" fill="#231C1D"/>
<path d="M150.808 19.316C148.97 19.184 148.16 18.323 148.378 16.735H159.819C160.879 11.51 158.561 8.765 152.865 8.5C147.42 8.766 144.025 11.147 142.685 15.644C141.898 20.009 144.218 22.259 149.647 22.392C154.298 22.327 157.386 20.938 158.914 18.224H153.306C152.612 18.952 151.78 19.316 150.808 19.316ZM152.332 11.775C153.945 11.908 154.667 12.668 154.495 14.057H148.999C149.425 12.536 150.537 11.775 152.332 11.775Z" fill="#231C1D"/>
<path d="M173.253 8.49965C171.248 8.43465 169.375 9.26065 167.629 10.9806L168.112 8.89665H162.616L159.535 22.1927H165.592L167.156 15.4457C167.525 13.5267 168.486 12.6017 170.044 12.6677C171.463 12.6677 171.983 13.4946 171.601 15.1476L169.968 22.1927H175.912L177.752 14.2547C178.641 10.4187 177.14 8.49965 173.253 8.49965Z" fill="#231C1D"/>
<path d="M192.119 3.9375L190.671 10.1895C189.899 8.9985 188.534 8.4375 186.574 8.5015C182.46 8.8345 179.769 11.2475 178.502 15.7445C177.731 20.0465 179.499 22.2605 183.805 22.3935C185.659 22.4575 187.382 21.7985 188.976 20.4085L188.563 22.1955H193.834L198.063 3.9375H192.119ZM189.631 15.6455C189.08 17.6965 187.944 18.7215 186.226 18.7215C184.656 18.7215 184.101 17.7295 184.56 15.7435C185.109 13.6945 186.178 12.6355 187.764 12.5695C189.407 12.5705 190.03 13.5965 189.631 15.6455Z" fill="#231C1D"/>
<path d="M117.109 21.1591C117.109 21.4521 116.871 21.6911 116.576 21.6911H97.1326C96.8386 21.6911 96.6006 21.4521 96.6006 21.1591V6.94706C96.6006 6.65306 96.8386 6.41406 97.1326 6.41406H116.576C116.871 6.41406 117.109 6.65306 117.109 6.94706V21.1591Z" fill="#F4B132"/>
<path d="M110.498 15.1865C113.356 12.5985 115.502 7.9375 115.502 7.9375C115.502 7.9375 110.855 15.7535 106.981 15.7535C103.106 15.7535 98.458 7.9375 98.458 7.9375C98.458 7.9375 100.604 12.5985 103.463 15.1865C100.965 16.9615 99.122 19.8915 99.122 19.8915C99.122 19.8915 101.366 17.1365 103.958 15.6085C104.915 16.3675 105.937 16.8735 106.981 16.8735C108.023 16.8735 109.045 16.3675 110.002 15.6085C112.594 17.1365 114.837 19.8915 114.837 19.8915C114.837 19.8915 112.995 16.9635 110.498 15.1865Z" fill="#EF823C"/>
<path d="M98.2166 16.8417H102.266L95.8006 11.7617L89.3076 16.8417H93.6956C93.6956 16.8417 92.7236 26.7987 105.18 23.2757C105.181 23.2757 97.4786 25.0867 98.2166 16.8417Z" fill="#418ECD"/>
<path d="M115.607 11.2673H111.558L118.022 16.3473L124.515 11.2673H120.127C120.127 11.2673 121.099 1.31029 108.643 4.83229C108.644 4.83329 116.347 3.02329 115.607 11.2673Z" fill="#749C36"/>
<path d="M6.73794 34.9777H6.71194L4.45294 29.8047H3.58594V35.8677H4.28294V31.0437H4.30894L6.40694 35.8677H7.03494L9.13294 31.0437H9.15794V35.8677H9.85494V29.8047H8.98794L6.73794 34.9777Z" fill="black"/>
<path d="M12.9042 31.3594C12.3492 31.3594 11.9132 31.4724 11.5962 31.6994C11.2342 31.9424 11.0192 32.3164 10.9502 32.8204H11.6212C11.6722 32.5194 11.8082 32.2934 12.0292 32.1404C12.2272 31.9934 12.5052 31.9194 12.8622 31.9194C13.6262 31.9194 14.0082 32.2864 14.0082 33.0234V33.1684L12.9552 33.1764C12.3442 33.1764 11.8572 33.2844 11.4952 33.4994C11.0472 33.7554 10.8242 34.1624 10.8242 34.7234C10.8242 35.1084 10.9602 35.4164 11.2322 35.6484C11.4922 35.8754 11.8432 35.9884 12.2852 35.9884C12.6762 35.9884 13.0382 35.9014 13.3722 35.7254C13.6502 35.5724 13.8762 35.3744 14.0522 35.1304V35.8684H14.6892V33.0494C14.6892 32.5454 14.5592 32.1464 14.2992 31.8524C13.9912 31.5234 13.5262 31.3594 12.9042 31.3594ZM14.0082 34.0854C14.0082 34.4424 13.8582 34.7574 13.5582 35.0284C13.2472 35.2994 12.8702 35.4364 12.4292 35.4364C12.1462 35.4364 11.9222 35.3714 11.7582 35.2414C11.5992 35.1044 11.5202 34.9284 11.5202 34.7144C11.5202 34.0454 12.0122 33.7114 12.9982 33.7114L14.0082 33.7034V34.0854V34.0854Z" fill="black"/>
<path d="M16.8702 31.6433C16.6832 31.7853 16.5312 31.9863 16.4122 32.2463V31.4823H15.7412V35.8723H16.4122V33.5463C16.4122 33.1333 16.5282 32.7843 16.7602 32.5023C16.9872 32.2013 17.2732 32.0523 17.6182 32.0523C17.8502 32.0523 18.0682 32.0833 18.2722 32.1453V31.4653C18.1132 31.3983 17.9122 31.3633 17.6692 31.3633C17.3682 31.3623 17.1022 31.4553 16.8702 31.6433Z" fill="black"/>
<path d="M22.6198 31.4795H21.7198L19.5198 33.5175V29.6875H18.8398V35.8685H19.5198V34.3145L20.2158 33.6875L21.9318 35.8685H22.8068L20.6828 33.2445L22.6198 31.4795Z" fill="black"/>
<path d="M26.7391 32.0724C26.3831 31.5974 25.8501 31.3594 25.1421 31.3594C24.5081 31.3594 24.0041 31.5884 23.6301 32.0474C23.2621 32.4714 23.0781 33.0124 23.0781 33.6684C23.0781 34.3824 23.2701 34.9484 23.6551 35.3674C24.0341 35.7804 24.5391 35.9864 25.1671 35.9864C25.7281 35.9864 26.1951 35.8234 26.5681 35.4944C26.8631 35.2234 27.0611 34.8774 27.1631 34.4584H26.4831C26.3701 34.7704 26.2221 34.9984 26.0421 35.1464C25.8151 35.3274 25.5231 35.4174 25.1671 35.4174C24.7481 35.4174 24.4191 35.2824 24.1821 35.0114C23.9501 34.7444 23.8171 34.3634 23.7831 33.8644H27.2481C27.2311 33.0954 27.0621 32.4984 26.7391 32.0724ZM23.8001 33.3384C23.8451 32.9014 23.9841 32.5604 24.2161 32.3114C24.4541 32.0564 24.7681 31.9294 25.1591 31.9294C25.9971 31.9294 26.4591 32.3994 26.5441 33.3384H23.8001Z" fill="black"/>
<path d="M29.219 30.0625L28.548 30.3425V31.4815H27.665V32.0505H28.548V34.8435C28.548 35.1785 28.619 35.4265 28.76 35.5915C28.913 35.7785 29.171 35.8705 29.533 35.8705H30.196V35.3025H29.635C29.482 35.3025 29.375 35.2655 29.312 35.1925C29.25 35.1305 29.219 35.0145 29.219 34.8435V32.0505H30.306V31.4815H29.219V30.0625Z" fill="black"/>
<path d="M31.9632 31.4805H31.2832V35.8705H31.9632V31.4805Z" fill="black"/>
<path d="M31.6233 29.8242C31.4763 29.8242 31.3543 29.8742 31.2583 29.9702C31.1613 30.0482 31.1133 30.1672 31.1133 30.3252C31.1133 30.4722 31.1613 30.5952 31.2583 30.6902C31.3653 30.7872 31.4873 30.8362 31.6233 30.8362C31.7593 30.8362 31.8803 30.7872 31.9883 30.6902C32.0903 30.5882 32.1413 30.4662 32.1413 30.3252C32.1413 30.1732 32.0903 30.0542 31.9883 29.9702C31.8913 29.8742 31.7703 29.8242 31.6233 29.8242Z" fill="black"/>
<path d="M35.2914 31.3594C35.0024 31.3594 34.7394 31.4254 34.5014 31.5624C34.2634 31.6874 34.0684 31.8744 33.9154 32.1244V31.4784H33.2354V35.8684H33.9154V33.2184C33.9434 32.8184 34.0734 32.5004 34.3064 32.2694C34.5264 32.0484 34.7894 31.9374 35.0964 31.9374C35.8664 31.9374 36.2514 32.3654 36.2514 33.2184V35.8684H36.9304V33.1684C36.9304 31.9634 36.3844 31.3594 35.2914 31.3594Z" fill="black"/>
<path d="M41.2695 32.2344C40.9475 31.6504 40.4545 31.3594 39.7915 31.3594C39.1805 31.3594 38.6955 31.5744 38.3395 32.0054C37.9885 32.4064 37.8135 32.9304 37.8135 33.5764C37.8135 34.2174 37.9885 34.7364 38.3395 35.1394C38.6955 35.5584 39.1805 35.7674 39.7915 35.7674C40.4545 35.7674 40.9465 35.4734 41.2695 34.8844V35.6574C41.2695 36.6304 40.8285 37.1174 39.9445 37.1174C39.5485 37.1174 39.2505 37.0444 39.0525 36.8964C38.8545 36.7594 38.7295 36.5424 38.6785 36.2434H38.0005C38.0805 36.7184 38.2745 37.0754 38.5865 37.3124C38.8925 37.5504 39.3455 37.6684 39.9455 37.6684C41.2815 37.6684 41.9495 36.9674 41.9495 35.5634V31.4784H41.2695V32.2344ZM40.9215 34.7394C40.6665 35.0454 40.3215 35.1974 39.8855 35.1974C39.4215 35.1974 39.0675 35.0334 38.8235 34.7064C38.6145 34.4224 38.5095 34.0454 38.5095 33.5764C38.5095 33.0784 38.6285 32.6834 38.8655 32.3954C39.1095 32.0794 39.4515 31.9194 39.8935 31.9194C40.3295 31.9194 40.6715 32.0784 40.9215 32.3954C41.1595 32.6834 41.2775 33.0784 41.2775 33.5764C41.2785 34.0514 41.1595 34.4394 40.9215 34.7394Z" fill="black"/>
<path d="M49.6451 32.9995C49.3901 32.8465 48.8641 32.6505 48.0651 32.4125C47.4711 32.2425 47.1001 32.1155 46.9531 32.0295C46.6081 31.8425 46.4341 31.5975 46.4341 31.2915C46.4341 30.9455 46.5791 30.6875 46.8681 30.5195C47.1121 30.3725 47.4621 30.2985 47.9211 30.2985C48.4201 30.2985 48.8011 30.4055 49.0681 30.6205C49.3341 30.8365 49.5041 31.1605 49.5771 31.5985H50.2651C50.2021 30.9575 49.9701 30.4765 49.5681 30.1545C49.1831 29.8425 48.6461 29.6875 47.9551 29.6875C47.3261 29.6875 46.8111 29.8225 46.4091 30.0935C45.9621 30.3835 45.7381 30.7935 45.7381 31.3255C45.7381 31.8345 45.9701 32.2245 46.4341 32.4985C46.6501 32.6115 47.1141 32.7745 47.8281 32.9895C48.5301 33.1935 48.9571 33.3415 49.1101 33.4315C49.5121 33.6475 49.7131 33.9445 49.7131 34.3245C49.7131 34.6455 49.5601 34.9015 49.2551 35.0885C48.9501 35.2755 48.5471 35.3685 48.0491 35.3685C47.5161 35.3685 47.1061 35.2555 46.8181 35.0285C46.5121 34.7785 46.3281 34.3905 46.2661 33.8645H45.5781C45.6291 34.6065 45.8921 35.1605 46.3681 35.5295C46.7761 35.8355 47.3361 35.9875 48.0501 35.9875C48.7641 35.9875 49.3361 35.8375 49.7651 35.5375C50.1901 35.2315 50.4031 34.8125 50.4031 34.2805C50.4011 33.7315 50.1491 33.3055 49.6451 32.9995Z" fill="black"/>
<path d="M53.1613 31.3594C52.4983 31.3594 51.9743 31.5864 51.5893 32.0394C51.2163 32.4694 51.0293 33.0154 51.0293 33.6794C51.0293 34.3344 51.2163 34.8754 51.5893 35.3004C51.9803 35.7594 52.5043 35.9884 53.1613 35.9884C53.8173 35.9884 54.3443 35.7594 54.7413 35.3004C55.1093 34.8704 55.2933 34.3294 55.2933 33.6794C55.2933 33.0154 55.1063 32.4694 54.7323 32.0394C54.3473 31.5864 53.8243 31.3594 53.1613 31.3594ZM54.2563 34.8844C53.9843 35.2414 53.6193 35.4184 53.1613 35.4184C52.6913 35.4184 52.3283 35.2414 52.0743 34.8844C51.8423 34.5674 51.7263 34.1644 51.7263 33.6794C51.7263 33.1864 51.8423 32.7814 52.0743 32.4644C52.3293 32.1074 52.6913 31.9294 53.1613 31.9294C53.6193 31.9294 53.9843 32.1074 54.2563 32.4644C54.4883 32.7914 54.6053 33.1974 54.6053 33.6794C54.6053 34.1534 54.4883 34.5564 54.2563 34.8844Z" fill="black"/>
<path d="M56.9825 29.6875H56.3115V35.8695H56.9825V29.6875Z" fill="black"/>
<path d="M61.1949 34.1555C61.1439 34.5295 60.9989 34.8355 60.7619 35.0725C60.5239 35.2995 60.2629 35.4125 59.9799 35.4125C59.5839 35.4125 59.2949 35.3085 59.1139 35.0985C58.9379 34.9015 58.8509 34.5885 58.8509 34.1645V31.4805H58.1709V34.1975C58.1709 35.3925 58.7029 35.9895 59.7679 35.9895C60.3569 35.9895 60.8319 35.7235 61.1949 35.1915V35.8705H61.8739V31.4805H61.1949V34.1555Z" fill="black"/>
<path d="M64.0999 30.0625L63.4289 30.3425V31.4815H62.5459V32.0505H63.4289V34.8435C63.4289 35.1785 63.4999 35.4265 63.6409 35.5915C63.7939 35.7785 64.0519 35.8705 64.4139 35.8705H65.0759V35.3025H64.5159C64.3629 35.3025 64.2549 35.2655 64.1929 35.1925C64.1299 35.1305 64.0989 35.0145 64.0989 34.8435V32.0505H65.1859V31.4815H64.0989V30.0625H64.0999Z" fill="black"/>
<path d="M66.5031 29.8242C66.3561 29.8242 66.2341 29.8742 66.1381 29.9702C66.0421 30.0482 65.9941 30.1672 65.9941 30.3252C65.9941 30.4722 66.0421 30.5952 66.1381 30.6902C66.2461 30.7872 66.3671 30.8362 66.5031 30.8362C66.6401 30.8362 66.7611 30.7872 66.8691 30.6902C66.9711 30.5882 67.0221 30.4662 67.0221 30.3252C67.0221 30.1732 66.9711 30.0542 66.8691 29.9702C66.7721 29.8742 66.6501 29.8242 66.5031 29.8242Z" fill="black"/>
<path d="M66.8431 31.4805H66.1641V35.8705H66.8431V31.4805Z" fill="black"/>
<path d="M70.0793 31.3594C69.4163 31.3594 68.8933 31.5864 68.5083 32.0394C68.1343 32.4694 67.9473 33.0154 67.9473 33.6794C67.9473 34.3344 68.1343 34.8754 68.5083 35.3004C68.8993 35.7594 69.4233 35.9884 70.0793 35.9884C70.7363 35.9884 71.2633 35.7594 71.6593 35.3004C72.0273 34.8704 72.2113 34.3294 72.2113 33.6794C72.2113 33.0154 72.0243 32.4694 71.6513 32.0394C71.2653 31.5864 70.7413 31.3594 70.0793 31.3594ZM71.1753 34.8844C70.9033 35.2414 70.5383 35.4184 70.0793 35.4184C69.6093 35.4184 69.2473 35.2414 68.9923 34.8844C68.7603 34.5674 68.6443 34.1644 68.6443 33.6794C68.6443 33.1864 68.7603 32.7814 68.9923 32.4644C69.2473 32.1074 69.6093 31.9294 70.0793 31.9294C70.5383 31.9294 70.9033 32.1074 71.1753 32.4644C71.4073 32.7914 71.5233 33.1974 71.5233 33.6794C71.5233 34.1534 71.4073 34.5564 71.1753 34.8844Z" fill="black"/>
<path d="M75.1488 31.3594C74.8598 31.3594 74.5968 31.4254 74.3588 31.5624C74.1208 31.6874 73.9258 31.8744 73.7728 32.1244V31.4784H73.0928V35.8684H73.7728V33.2184C73.8008 32.8184 73.9308 32.5004 74.1638 32.2694C74.3838 32.0484 74.6478 31.9374 74.9538 31.9374C75.7248 31.9374 76.1088 32.3654 76.1088 33.2184V35.8684H76.7888V33.1684C76.7888 31.9634 76.2418 31.3594 75.1488 31.3594Z" fill="black"/>
<path d="M80.8059 33.7323C80.5739 33.5863 80.1979 33.4493 79.6759 33.3243C79.2119 33.2013 78.9089 33.1033 78.7669 33.0363C78.5179 32.9113 78.3929 32.7533 78.3929 32.5603C78.3929 32.3623 78.4869 32.2093 78.6739 32.1013C78.8379 31.9883 79.0759 31.9323 79.3869 31.9323C79.7379 31.9323 80.0079 31.9983 80.1939 32.1353C80.3589 32.2483 80.4719 32.4473 80.5339 32.7303H81.1969C81.0779 31.8193 80.4779 31.3633 79.3959 31.3633C78.8979 31.3633 78.4959 31.4733 78.1899 31.6933C77.8619 31.9153 77.6979 32.2103 77.6979 32.5783C77.6979 32.9513 77.8649 33.2373 78.1989 33.4353C78.3969 33.5663 78.7589 33.6953 79.2859 33.8253C79.7669 33.9443 80.0779 34.0383 80.2199 34.1063C80.4969 34.2413 80.6359 34.4313 80.6359 34.6753C80.6359 35.1733 80.2419 35.4213 79.4559 35.4213C79.0819 35.4213 78.8019 35.3543 78.6149 35.2183C78.4229 35.0603 78.3009 34.8103 78.2499 34.4713H77.5869C77.6899 35.4853 78.3179 35.9913 79.4729 35.9913C80.7129 35.9913 81.3329 35.5393 81.3329 34.6343C81.3329 34.2533 81.1569 33.9523 80.8059 33.7323Z" fill="black"/>
<path d="M87.091 31.3605C86.462 31.3605 85.978 31.6695 85.638 32.2865V29.6875H84.959V35.8695H85.596V35.1485C85.896 35.7095 86.383 35.9885 87.057 35.9885C87.691 35.9885 88.192 35.7575 88.56 35.2925C88.888 34.8625 89.053 34.3185 89.053 33.6615C89.053 33.0275 88.888 32.4955 88.56 32.0645C88.209 31.5955 87.719 31.3605 87.091 31.3605ZM88.042 34.9105C87.799 35.2565 87.442 35.4285 86.972 35.4285C86.525 35.4285 86.182 35.2585 85.944 34.9195C85.724 34.6135 85.613 34.2145 85.613 33.7225V33.6365C85.613 33.1155 85.738 32.7025 85.987 32.3975C86.219 32.0815 86.539 31.9215 86.946 31.9215C87.422 31.9215 87.781 32.0915 88.025 32.4315C88.246 32.7265 88.356 33.1355 88.356 33.6615C88.356 34.1775 88.251 34.5935 88.042 34.9105Z" fill="black"/>
<path d="M91.5332 34.9445L90.1902 31.4805H89.4512L91.1932 35.7685L90.4372 37.5525H91.1762L93.5792 31.4805H92.8322L91.5332 34.9445Z" fill="black"/>
<path d="M100.213 34.9777H100.187L97.9275 29.8047H97.0615V35.8677H97.7575V31.0437H97.7835L99.8805 35.8677H100.51L102.608 31.0437H102.633V35.8677H103.329V29.8047H102.463L100.213 34.9777Z" fill="black"/>
<path d="M106.378 31.3594C105.823 31.3594 105.388 31.4724 105.07 31.6994C104.708 31.9424 104.492 32.3164 104.424 32.8204H105.096C105.147 32.5194 105.283 32.2934 105.504 32.1404C105.701 31.9934 105.979 31.9194 106.336 31.9194C107.101 31.9194 107.482 32.2864 107.482 33.0234V33.1684L106.428 33.1764C105.817 33.1764 105.33 33.2844 104.968 33.4994C104.52 33.7554 104.296 34.1624 104.296 34.7234C104.296 35.1084 104.433 35.4164 104.704 35.6484C104.965 35.8754 105.315 35.9884 105.757 35.9884C106.149 35.9884 106.511 35.9014 106.845 35.7254C107.122 35.5724 107.349 35.3744 107.524 35.1304V35.8684H108.161V33.0494C108.161 32.5454 108.031 32.1464 107.77 31.8524C107.465 31.5234 107.001 31.3594 106.378 31.3594ZM107.482 34.0854C107.482 34.4424 107.332 34.7574 107.032 35.0284C106.72 35.2994 106.344 35.4364 105.902 35.4364C105.62 35.4364 105.396 35.3714 105.232 35.2414C105.073 35.1044 104.993 34.9284 104.993 34.7144C104.993 34.0454 105.486 33.7114 106.472 33.7114L107.483 33.7034V34.0854H107.482Z" fill="black"/>
<path d="M110.345 31.6433C110.158 31.7853 110.005 31.9863 109.886 32.2463V31.4823H109.215V35.8723H109.886V33.5463C109.886 33.1333 110.002 32.7843 110.235 32.5023C110.462 32.2013 110.747 32.0523 111.092 32.0523C111.324 32.0523 111.542 32.0833 111.746 32.1453V31.4653C111.587 31.3983 111.386 31.3633 111.143 31.3633C110.843 31.3623 110.577 31.4553 110.345 31.6433Z" fill="black"/>
<path d="M116.094 31.4795H115.193L112.993 33.5175V29.6875H112.314V35.8685H112.993V34.3145L113.69 33.6875L115.406 35.8685H116.28L114.157 33.2445L116.094 31.4795Z" fill="black"/>
<path d="M120.214 32.0724C119.858 31.5974 119.325 31.3594 118.617 31.3594C117.982 31.3594 117.479 31.5884 117.104 32.0474C116.737 32.4714 116.553 33.0124 116.553 33.6684C116.553 34.3824 116.745 34.9484 117.13 35.3674C117.51 35.7804 118.013 35.9864 118.642 35.9864C119.203 35.9864 119.669 35.8234 120.042 35.4944C120.337 35.2234 120.535 34.8774 120.638 34.4584H119.957C119.845 34.7704 119.697 34.9984 119.517 35.1464C119.29 35.3274 118.998 35.4174 118.642 35.4174C118.223 35.4174 117.895 35.2824 117.657 35.0114C117.426 34.7444 117.292 34.3634 117.258 33.8644H120.723C120.707 33.0954 120.536 32.4984 120.214 32.0724ZM117.275 33.3384C117.32 32.9014 117.459 32.5604 117.691 32.3114C117.929 32.0564 118.243 31.9294 118.633 31.9294C119.471 31.9294 119.933 32.3994 120.018 33.3384H117.275Z" fill="black"/>
<path d="M122.693 30.0625L122.021 30.3425V31.4815H121.138V32.0505H122.021V34.8435C122.021 35.1785 122.092 35.4265 122.234 35.5915C122.387 35.7785 122.645 35.8705 123.006 35.8705H123.67V35.3025H123.108C122.956 35.3025 122.847 35.2655 122.785 35.1925C122.723 35.1305 122.692 35.0145 122.692 34.8435V32.0505H123.779V31.4815H122.692V30.0625H122.693Z" fill="black"/>
<path d="M127.942 32.0724C127.587 31.5974 127.053 31.3594 126.345 31.3594C125.71 31.3594 125.206 31.5884 124.833 32.0474C124.465 32.4714 124.281 33.0124 124.281 33.6684C124.281 34.3824 124.473 34.9484 124.858 35.3674C125.237 35.7804 125.741 35.9864 126.371 35.9864C126.931 35.9864 127.398 35.8234 127.77 35.4944C128.066 35.2234 128.263 34.8774 128.366 34.4584H127.686C127.573 34.7704 127.425 34.9984 127.245 35.1464C127.018 35.3274 126.727 35.4174 126.371 35.4174C125.951 35.4174 125.622 35.2824 125.386 35.0114C125.153 34.7444 125.02 34.3634 124.986 33.8644H128.452C128.435 33.0954 128.265 32.4984 127.942 32.0724ZM125.004 33.3384C125.049 32.9014 125.188 32.5604 125.42 32.3114C125.657 32.0564 125.972 31.9294 126.362 31.9294C127.2 31.9294 127.661 32.3994 127.748 33.3384H125.004Z" fill="black"/>
<path d="M130.38 31.6433C130.193 31.7853 130.04 31.9863 129.921 32.2463V31.4823H129.249V35.8723H129.921V33.5463C129.921 33.1333 130.037 32.7843 130.269 32.5023C130.496 32.2013 130.782 32.0523 131.128 32.0523C131.359 32.0523 131.577 32.0833 131.781 32.1453V31.4653C131.621 31.3983 131.421 31.3633 131.178 31.3633C130.878 31.3623 130.612 31.4553 130.38 31.6433Z" fill="black"/>
<path d="M135.314 33.7323C135.083 33.5863 134.706 33.4493 134.186 33.3243C133.721 33.2013 133.418 33.1033 133.276 33.0363C133.027 32.9113 132.902 32.7533 132.902 32.5603C132.902 32.3623 132.996 32.2093 133.182 32.1013C133.347 31.9883 133.584 31.9323 133.896 31.9323C134.247 31.9323 134.516 31.9983 134.703 32.1353C134.868 32.2483 134.98 32.4473 135.043 32.7303H135.706C135.587 31.8193 134.987 31.3633 133.905 31.3633C133.406 31.3633 133.006 31.4733 132.699 31.6933C132.371 31.9153 132.207 32.2103 132.207 32.5783C132.207 32.9513 132.373 33.2373 132.707 33.4353C132.906 33.5663 133.269 33.6953 133.795 33.8253C134.275 33.9443 134.587 34.0383 134.73 34.1063C135.006 34.2413 135.146 34.4313 135.146 34.6753C135.146 35.1733 134.752 35.4213 133.965 35.4213C133.591 35.4213 133.311 35.3543 133.124 35.2183C132.931 35.0603 132.811 34.8103 132.759 34.4713H132.096C132.199 35.4853 132.826 35.9913 133.982 35.9913C135.222 35.9913 135.841 35.5393 135.841 34.6343C135.84 34.2533 135.666 33.9523 135.314 33.7323Z" fill="black"/>
<path d="M137.2 34.8672C137.047 34.8672 136.922 34.9122 136.825 35.0022C136.735 35.0882 136.69 35.2132 136.69 35.3762C136.69 35.5232 136.738 35.6432 136.834 35.7332C136.937 35.8242 137.058 35.8682 137.2 35.8682C137.239 35.8682 137.286 35.8632 137.344 35.8522C137.31 36.2872 137.071 36.6532 136.622 36.9472L136.851 37.3122C137.491 36.9612 137.811 36.4212 137.811 35.6902C137.812 35.1422 137.607 34.8672 137.2 34.8672Z" fill="black"/>
<path d="M141.794 35.8677H142.49V33.0487H145.677V32.4447H142.49V30.4077H145.854V29.8047H141.794V35.8677Z" fill="black"/>
<path d="M148.572 31.3594C147.908 31.3594 147.384 31.5864 146.999 32.0394C146.626 32.4694 146.439 33.0154 146.439 33.6794C146.439 34.3344 146.626 34.8754 146.999 35.3004C147.392 35.7594 147.914 35.9884 148.572 35.9884C149.227 35.9884 149.755 35.7594 150.15 35.3004C150.518 34.8704 150.703 34.3294 150.703 33.6794C150.703 33.0154 150.515 32.4694 150.142 32.0394C149.758 31.5864 149.233 31.3594 148.572 31.3594ZM149.666 34.8844C149.395 35.2414 149.03 35.4184 148.572 35.4184C148.1 35.4184 147.739 35.2414 147.484 34.8844C147.252 34.5674 147.135 34.1644 147.135 33.6794C147.135 33.1864 147.251 32.7814 147.484 32.4644C147.739 32.1074 148.1 31.9294 148.572 31.9294C149.03 31.9294 149.394 32.1074 149.666 32.4644C149.898 32.7914 150.015 33.1974 150.015 33.6794C150.015 34.1534 149.898 34.5564 149.666 34.8844Z" fill="black"/>
<path d="M152.716 31.6433C152.529 31.7853 152.376 31.9863 152.258 32.2463V31.4823H151.588V35.8723H152.258V33.5463C152.258 33.1333 152.373 32.7843 152.607 32.5023C152.833 32.2013 153.12 32.0523 153.464 32.0523C153.696 32.0523 153.915 32.0833 154.118 32.1453V31.4653C153.959 31.3983 153.759 31.3633 153.514 31.3633C153.215 31.3623 152.948 31.4553 152.716 31.6433Z" fill="black"/>
<path d="M160.75 34.9777H160.726L158.465 29.8047H157.6V35.8677H158.296V31.0437H158.322L160.42 35.8677H161.048L163.146 31.0437H163.172V35.8677H163.867V29.8047H163.001L160.75 34.9777Z" fill="black"/>
<path d="M166.917 31.3594C166.362 31.3594 165.926 31.4724 165.609 31.6994C165.246 31.9424 165.031 32.3164 164.963 32.8204H165.634C165.685 32.5194 165.821 32.2934 166.041 32.1404C166.239 31.9934 166.518 31.9194 166.874 31.9194C167.638 31.9194 168.02 32.2864 168.02 33.0234V33.1684L166.967 33.1764C166.354 33.1764 165.867 33.2844 165.505 33.4994C165.058 33.7554 164.835 34.1624 164.835 34.7234C164.835 35.1084 164.97 35.4164 165.242 35.6484C165.502 35.8754 165.853 35.9884 166.296 35.9884C166.686 35.9884 167.048 35.9014 167.382 35.7254C167.659 35.5724 167.886 35.3744 168.062 35.1304V35.8684H168.7V33.0494C168.7 32.5454 168.57 32.1464 168.309 31.8524C168.004 31.5234 167.54 31.3594 166.917 31.3594ZM168.022 34.0854C168.022 34.4424 167.872 34.7574 167.571 35.0284C167.26 35.2994 166.883 35.4364 166.442 35.4364C166.158 35.4364 165.934 35.3714 165.771 35.2414C165.612 35.1044 165.534 34.9284 165.534 34.7144C165.534 34.0454 166.026 33.7114 167.012 33.7114L168.023 33.7034V34.0854H168.022Z" fill="black"/>
<path d="M170.883 31.6433C170.695 31.7853 170.543 31.9863 170.425 32.2463V31.4823H169.754V35.8723H170.425V33.5463C170.425 33.1333 170.54 32.7843 170.773 32.5023C171 32.2013 171.287 32.0523 171.63 32.0523C171.863 32.0523 172.081 32.0833 172.284 32.1453V31.4653C172.126 31.3983 171.926 31.3633 171.681 31.3633C171.382 31.3623 171.114 31.4553 170.883 31.6433Z" fill="black"/>
<path d="M176.632 31.4795H175.732L173.532 33.5175V29.6875H172.853V35.8685H173.532V34.3145L174.229 33.6875L175.944 35.8685H176.819L174.696 33.2445L176.632 31.4795Z" fill="black"/>
<path d="M180.751 32.0724C180.396 31.5974 179.862 31.3594 179.155 31.3594C178.52 31.3594 178.017 31.5884 177.643 32.0474C177.274 32.4714 177.09 33.0124 177.09 33.6684C177.09 34.3824 177.283 34.9484 177.669 35.3674C178.047 35.7804 178.551 35.9864 179.18 35.9864C179.741 35.9864 180.207 35.8234 180.581 35.4944C180.876 35.2234 181.073 34.8774 181.177 34.4584H180.496C180.384 34.7704 180.235 34.9984 180.054 35.1464C179.827 35.3274 179.537 35.4174 179.18 35.4174C178.761 35.4174 178.433 35.2824 178.195 35.0114C177.963 34.7444 177.831 34.3634 177.797 33.8644H181.262C181.244 33.0954 181.074 32.4984 180.751 32.0724ZM177.813 33.3384C177.859 32.9014 177.998 32.5604 178.229 32.3114C178.467 32.0564 178.783 31.9294 179.173 31.9294C180.01 31.9294 180.471 32.3994 180.556 33.3384H177.813Z" fill="black"/>
<path d="M183.232 30.0625L182.561 30.3425V31.4815H181.677V32.0505H182.561V34.8435C182.561 35.1785 182.631 35.4265 182.774 35.5915C182.926 35.7785 183.183 35.8705 183.546 35.8705H184.207V35.3025H183.646C183.494 35.3025 183.387 35.2655 183.324 35.1925C183.261 35.1305 183.231 35.0145 183.231 34.8435V32.0505H184.318V31.4815H183.231V30.0625H183.232Z" fill="black"/>
<path d="M188.48 32.0724C188.124 31.5974 187.591 31.3594 186.883 31.3594C186.249 31.3594 185.745 31.5884 185.372 32.0474C185.003 32.4714 184.818 33.0124 184.818 33.6684C184.818 34.3824 185.01 34.9484 185.395 35.3674C185.775 35.7804 186.28 35.9864 186.908 35.9864C187.469 35.9864 187.936 35.8234 188.309 35.4944C188.604 35.2234 188.802 34.8774 188.904 34.4584H188.225C188.111 34.7704 187.964 34.9984 187.783 35.1464C187.556 35.3274 187.265 35.4174 186.908 35.4174C186.488 35.4174 186.16 35.2824 185.923 35.0114C185.691 34.7444 185.558 34.3634 185.524 33.8644H188.99C188.973 33.0954 188.804 32.4984 188.48 32.0724ZM185.542 33.3384C185.587 32.9014 185.726 32.5604 185.958 32.3114C186.195 32.0564 186.511 31.9294 186.9 31.9294C187.738 31.9294 188.2 32.3994 188.285 33.3384H185.542Z" fill="black"/>
<path d="M190.918 31.6433C190.73 31.7853 190.577 31.9863 190.459 32.2463V31.4823H189.789V35.8723H190.459V33.5463C190.459 33.1333 190.575 32.7843 190.808 32.5023C191.035 32.2013 191.321 32.0523 191.665 32.0523C191.897 32.0523 192.116 32.0833 192.319 32.1453V31.4653C192.161 31.3983 191.961 31.3633 191.715 31.3633C191.416 31.3623 191.149 31.4553 190.918 31.6433Z" fill="black"/>
<path d="M195.853 33.7323C195.621 33.5863 195.245 33.4493 194.723 33.3243C194.259 33.2013 193.956 33.1033 193.815 33.0363C193.566 32.9113 193.442 32.7533 193.442 32.5603C193.442 32.3623 193.535 32.2093 193.722 32.1013C193.885 31.9883 194.123 31.9323 194.435 31.9323C194.786 31.9323 195.054 31.9983 195.242 32.1353C195.406 32.2483 195.519 32.4473 195.582 32.7303H196.244C196.125 31.8193 195.524 31.3633 194.443 31.3633C193.946 31.3633 193.543 31.4733 193.238 31.6933C192.909 31.9153 192.745 32.2103 192.745 32.5783C192.745 32.9513 192.912 33.2373 193.246 33.4353C193.444 33.5663 193.807 33.6953 194.334 33.8253C194.815 33.9443 195.127 34.0383 195.268 34.1063C195.546 34.2413 195.684 34.4313 195.684 34.6753C195.684 35.1733 195.29 35.4213 194.504 35.4213C194.13 35.4213 193.85 35.3543 193.662 35.2183C193.47 35.0603 193.348 34.8103 193.297 34.4713H192.635C192.737 35.4853 193.366 35.9913 194.521 35.9913C195.76 35.9913 196.381 35.5393 196.381 34.6343C196.38 34.2533 196.203 33.9523 195.853 33.7323Z" fill="black"/>
</svg>
