<svg width="1299" height="656" viewBox="0 0 1299 656" fill="none" xmlns="http://www.w3.org/2000/svg">
<path fill-rule="evenodd" clip-rule="evenodd" d="M168.447 269.049H363.864C380.267 269.049 393.563 282.407 393.563 298.885C393.563 307.177 390.128 315.096 384.081 320.741L192.376 499.704C180.361 510.921 161.569 510.229 150.403 498.158C145.298 492.638 142.46 485.383 142.46 477.848V295.156C142.46 280.737 154.095 269.049 168.447 269.049Z" fill="#042DCB"/>
<path fill-rule="evenodd" clip-rule="evenodd" d="M172.092 149H407.728C424.094 149 437.361 162.407 437.361 178.944C437.361 188.47 432.876 197.427 425.282 203.069L183.748 382.54C172.211 391.113 155.982 388.611 147.499 376.953C144.226 372.454 142.46 367.016 142.46 361.431V178.944C142.46 162.407 155.727 149 172.092 149Z" fill="#1FE39A"/>
<path fill-rule="evenodd" clip-rule="evenodd" d="M336.167 269.049L183.274 382.547C171.742 391.108 155.518 388.61 147.038 376.967C143.765 372.474 142 367.042 142 361.465V295.217C142 280.765 153.605 269.05 167.92 269.05L336.167 269.049Z" fill="#1C92FF"/>
<path fill-rule="evenodd" clip-rule="evenodd" d="M1050.3 210C1052.15 210 1053.67 211.436 1053.81 213.258L1053.82 213.521V338.515C1053.82 339.596 1054.31 340.617 1055.16 341.284C1056.62 342.425 1058.69 342.242 1059.92 340.909L1060.11 340.689L1112.56 273.861C1113.17 273.088 1114.07 272.608 1115.04 272.526L1115.33 272.514H1149.98C1150.8 272.514 1151.58 272.795 1152.21 273.31C1153.64 274.479 1153.91 276.54 1152.88 278.034L1152.71 278.265L1101.44 340.958C1100.57 342.017 1100.4 343.472 1100.98 344.693L1101.12 344.951L1155.99 439.795C1156.3 440.331 1156.46 440.939 1156.46 441.559C1156.46 443.415 1155.03 444.936 1153.2 445.07L1152.94 445.08H1118.6C1117.44 445.08 1116.35 444.506 1115.7 443.558L1115.55 443.313L1076.6 375.564C1076.4 375.201 1076.12 374.877 1075.8 374.609C1074.38 373.429 1072.3 373.557 1071.04 374.856L1070.84 375.071L1054.63 394.611C1054.17 395.164 1053.89 395.842 1053.83 396.553L1053.82 396.86V441.559C1053.82 443.415 1052.38 444.936 1050.56 445.07L1050.3 445.08H1020.41C1018.55 445.08 1017.03 443.643 1016.9 441.821L1016.89 441.559V213.521C1016.89 211.665 1018.33 210.144 1020.15 210.01L1020.41 210H1050.3ZM683.635 217.301C685.491 217.301 687.012 218.737 687.146 220.559L687.156 220.822V248.597C687.156 250.454 685.72 251.974 683.898 252.109L683.635 252.118H585.931C584.074 252.118 582.554 253.555 582.419 255.377L582.41 255.64V312.701C582.41 314.557 583.846 316.078 585.668 316.212L585.931 316.222H671.924C673.78 316.222 675.301 317.658 675.436 319.48L675.445 319.743V347.193C675.445 349.049 674.009 350.57 672.187 350.705L671.924 350.714H585.931C584.074 350.714 582.554 352.151 582.419 353.973L582.41 354.236V441.559C582.41 443.415 580.973 444.936 579.151 445.07L578.888 445.08H548.521C546.665 445.08 545.144 443.643 545.01 441.821L545 441.559V220.822C545 218.966 546.436 217.445 548.258 217.31L548.521 217.301H683.635ZM783.169 269.865C805.989 269.865 824.952 278.124 840.057 294.642C854.914 310.889 862.465 331.367 862.708 356.074L862.714 357.313V360.228C862.714 385.491 855.107 406.435 839.894 423.061C824.68 439.687 805.555 448 782.517 448C759.697 448 740.734 439.741 725.629 423.223C710.772 406.976 703.221 386.499 702.978 361.791L702.972 360.552V357.637C702.972 332.374 710.578 311.43 725.792 294.804C741.006 278.178 760.131 269.865 783.169 269.865ZM982.78 269.876L981.77 269.865C959.438 269.823 943.074 281.125 932.677 303.771C932.286 304.623 931.529 304.31 931.529 303.013V276.035L931.52 275.772C931.385 273.95 929.864 272.513 928.008 272.513H898.182L897.92 272.523C896.098 272.658 894.661 274.178 894.661 276.035V441.559L894.671 441.822C894.805 443.644 896.326 445.08 898.182 445.08H928.008L928.271 445.07C930.093 444.936 931.529 443.415 931.529 441.559V369.216L931.534 368.106C931.707 349.333 936.273 334.997 945.233 325.097C954.368 315.004 966.657 309.957 982.101 309.957C983.182 309.957 984.058 309.081 984.058 308V271.361L984.048 271.114C983.958 270.028 983.26 269.897 982.78 269.876ZM751.547 317.314C759.371 307.057 769.694 301.929 782.517 301.929C795.123 301.929 805.501 307.165 813.651 317.637C821.801 328.11 825.876 341.443 825.876 357.637V360.876L825.87 361.986C825.692 377.465 821.782 390.266 814.14 400.389C806.316 410.753 795.992 415.936 783.169 415.936C770.564 415.936 760.186 410.646 752.036 400.065C743.886 389.485 739.811 376.206 739.811 360.228V356.989L739.817 355.89C739.99 340.195 743.9 327.337 751.547 317.314Z" fill="#121C43"/>
</svg>
