<?xml version="1.0" encoding="UTF-8"?>
<svg width="554px" height="165px" viewBox="0 0 554 165" version="1.1" xmlns="http://www.w3.org/2000/svg" xmlns:xlink="http://www.w3.org/1999/xlink">
    <title>glueup-logo-cn</title>
    <g id="Def-Visual-Glueup" stroke="none" stroke-width="1" fill="none" fill-rule="evenodd">
        <g id="glueup-2" transform="translate(-406.000000, -488.000000)" fill-rule="nonzero">
            <g id="glueup-logo-cn" transform="translate(406.000000, 488.000000)">
                <g id="glueup-logo-en" transform="translate(213.000000, 82.000000)" fill="#212121">
                    <path d="M47.4854651,82.9117021 L47.4854651,54.8329787 C55.4876453,64.8989362 65.6882267,73.7287234 76.0646802,79.1148936 C77.8234012,76.3776596 81.1649709,72.1393617 83.6271802,70.0202128 C71.931686,64.8989362 59.9723837,55.5393617 52.3219477,45.7382979 L81.340843,45.7382979 L81.340843,35.3191489 L47.4854651,35.3191489 L47.4854651,24.0170213 L75.0094477,24.0170213 L75.0094477,13.5978723 L47.4854651,13.5978723 L47.4854651,0.441489362 L36.3175872,0.441489362 L36.3175872,13.5978723 L9.58502907,13.5978723 L9.58502907,24.0170213 L36.3175872,24.0170213 L36.3175872,35.3191489 L2.98982558,35.3191489 L2.98982558,45.7382979 L31.4811047,45.7382979 C23.7427326,55.5393617 11.7834302,64.8989362 0,69.9319149 C2.55014535,72.1393617 5.97965116,76.3776596 7.73837209,79.0265957 C18.0268895,73.6404255 28.315407,65.0755319 36.3175872,55.362766 L36.3175872,82.9117021 L47.4854651,82.9117021 Z M133.422965,82.7351064 L133.422965,55.6276596 C141.337209,65.693617 151.625727,74.5234043 162.178052,79.8212766 C163.760901,77.2606383 167.102471,73.1106383 169.476744,70.9914894 C158.484738,66.4 147.228924,57.9234043 139.666424,48.7404255 L167.190407,48.7404255 L167.190407,38.6744681 L150.130814,38.6744681 C152.944767,34.7010638 156.286337,28.7851064 159.364099,23.0457447 L149.251453,20.043617 L163.848837,20.043617 L163.848837,9.97765957 L133.422965,9.97765957 L133.422965,0.353191489 L122.343023,0.353191489 L122.343023,9.97765957 L92.7085756,9.97765957 L92.7085756,20.043617 L107.657703,20.043617 L98.6002907,23.487234 C101.414244,28.2553191 104.228198,34.4361702 105.195494,38.6744681 L88.5755814,38.6744681 L88.5755814,48.7404255 L116.1875,48.7404255 C108.537064,57.8351064 97.193314,66.2234043 86.1133721,70.8148936 C88.5755814,72.9340426 91.8292151,77.0840426 93.5,79.6446809 C104.052326,74.3468085 114.340843,65.693617 122.343023,55.8042553 L122.343023,82.7351064 L133.422965,82.7351064 Z M122.343023,38.6744681 L107.130087,38.6744681 L115.484012,35.4074468 C114.340843,31.0808511 111.087209,24.8117021 108.009448,20.043617 L122.343023,20.043617 L122.343023,38.6744681 Z M148.196221,38.6744681 L133.422965,38.6744681 L133.422965,20.043617 L148.284157,20.043617 C146.525436,25.1648936 143.359738,31.787234 140.809593,36.1138298 L148.196221,38.6744681 Z M242.399709,69.0489362 L242.399709,57.2170213 L254.446948,57.2170213 L254.446948,48.0340426 L242.399709,48.0340426 L242.399709,39.7340426 L252.072674,39.7340426 L252.072674,31.1691489 L242.399709,31.1691489 L242.399709,21.8978723 L232.638808,21.8978723 L232.638808,31.1691489 L227.450581,31.1691489 C229.03343,27.4606383 230.792151,23.2223404 232.375,18.8957447 L253.567587,18.8957447 L253.567587,9.71276596 L235.364826,9.71276596 C236.15625,7.06382979 236.771802,4.50319149 237.387355,1.85425532 L227.010901,0 C226.571221,3.26702128 225.955669,6.53404255 225.25218,9.71276596 L215.930959,9.71276596 L215.930959,18.8957447 L222.965843,18.8957447 C221.91061,22.3393617 220.943314,25.0765957 220.415698,26.312766 C219.096657,29.4031915 217.953488,31.6106383 216.37064,32.0521277 C217.425872,34.612766 218.920785,39.2042553 219.448401,41.1468085 C220.239826,40.2638298 223.405523,39.7340426 226.483285,39.7340426 L232.638808,39.7340426 L232.638808,48.0340426 L216.37064,48.0340426 L216.37064,57.2170213 L232.638808,57.2170213 L232.638808,69.0489362 L242.399709,69.0489362 Z M182.954942,82.293617 L183.04071,82.1818757 C184.46498,80.3478145 187.102006,78.0252979 200.718023,67.9010638 C199.662791,66.1351064 198.34375,62.4265957 197.728198,59.8659574 L191.308866,64.6340426 L191.308866,52.2723404 L199.662791,52.2723404 L199.662791,43.3542553 L191.308866,43.3542553 L191.308866,34.1712766 L197.200581,34.1712766 L197.200581,25.3414894 L180.053052,25.3414894 C181.547965,23.0457447 182.867006,20.6617021 184.186047,18.012766 L199.311047,18.012766 L199.311047,9.00638298 L187.703488,9.00638298 C188.406977,6.97553191 189.022529,5.03297872 189.550145,3.09042553 L180.932413,0.618085106 C178.99782,8.21170213 175.920058,15.7170213 171.875,20.75 C173.369913,22.9574468 175.832122,28.0787234 176.53561,30.1978723 C177.063227,29.6680851 177.678779,28.9617021 178.118459,28.1670213 L178.118459,34.1712766 L182.163517,34.1712766 L182.163517,43.3542553 L174.337209,43.3542553 L174.337209,52.2723404 L182.163517,52.2723404 L182.163517,66.1351064 C182.163517,70.8148936 179.613372,74.0819149 177.766715,75.5829787 C179.349564,76.9074468 181.899709,80.4393617 182.77907,82.293617 C182.77907,82.1170213 182.77907,81.9404255 182.867006,81.7638298 L182.954942,82.293617 Z M204.763081,22.9574468 L213.820494,20.043617 C212.765262,15.187234 210.390988,8.03510638 208.280523,2.47234043 L199.662791,5.03297872 C201.68532,10.5957447 203.883721,18.1010638 204.763081,22.9574468 Z M202.56468,82.8234043 C205.114826,78.4085106 208.544331,73.1989362 210.654797,73.1989362 C212.325581,73.1989362 214.963663,75.406383 218.041424,77.2606383 C222.789971,80.1744681 228.066134,81.4989362 235.628634,81.4989362 C241.080669,81.4989362 248.994913,81.2340426 253.391715,80.8808511 C253.479651,78.2319149 254.798692,73.1106383 255.678052,70.3734043 C249.962209,71.1680851 240.992733,71.6978723 235.71657,71.6978723 C228.945494,71.6978723 223.493459,70.9031915 219.096657,68.2542553 C216.986192,67.0180851 215.403343,65.7819149 213.90843,64.987234 L213.90843,28.9617021 L199.398983,28.9617021 L199.398983,38.4095745 L204.499273,38.4095745 L204.499273,66.1351064 C201.68532,67.7244681 198.78343,70.1968085 196.145349,73.0223404 L202.56468,82.8234043 Z M274.344477,80.262766 C276.982558,78.5851064 277.861919,76.0244681 277.861919,71.1680851 L277.861919,49.8882979 C280.5,49.1819149 283.050145,48.387234 285.600291,47.5925532 L284.193314,38.056383 L277.861919,39.8223404 L277.861919,26.7542553 L285.072674,26.7542553 L285.072674,17.0414894 L277.861919,17.0414894 L277.861919,0.441489362 L268.188953,0.441489362 L268.188953,17.0414894 L259.307413,17.0414894 L259.307413,26.7542553 L268.188953,26.7542553 L268.188953,42.4712766 C264.319767,43.5308511 260.802326,44.4138298 257.900436,45.0319149 L260.186773,55.0978723 C262.736919,54.3914894 265.375,53.5968085 268.188953,52.8021277 L268.188953,71.0797872 C268.188953,72.2276596 267.837209,72.5808511 266.781977,72.5808511 C265.726744,72.6691489 262.824855,72.6691489 259.747093,72.4925532 C261.066134,75.3180851 262.209302,79.6446809 262.47311,82.2053191 C267.925145,82.293617 271.706395,81.9404255 274.344477,80.262766 Z M332.55814,83 L338.889535,75.0531915 C335.108285,72.6691489 330.09593,70.0202128 324.555959,67.5478723 C327.457849,63.8393617 329.744186,59.4244681 331.327035,53.95 L341,53.95 L341,45.2085106 L312.244913,45.2085106 C313.388081,43.0010638 314.355378,40.8819149 315.234738,38.762766 L308.199855,37.35 L339.768895,37.35 L339.768895,28.4319149 L325.699128,28.4319149 C327.369913,25.6946809 329.21657,22.5159574 331.063227,19.337234 L323.588663,17.1297872 L338.010174,17.1297872 L338.010174,8.3 L318.840116,8.3 C317.784884,5.91595745 316.465843,3.35531915 315.058866,1.23617021 L305.210029,2.5606383 C306.177326,4.23829787 307.232558,6.26914894 308.111919,8.3 L289.557413,8.3 L289.557413,17.1297872 L301.164971,17.1297872 L295.449128,19.337234 C297.119913,22.0744681 298.878634,25.606383 299.757994,28.4319149 L286.919331,28.4319149 L286.919331,37.35 L305.385901,37.35 C304.330669,39.9106383 303.011628,42.5595745 301.604651,45.2085106 L285.688227,45.2085106 L285.688227,53.95 L296.680233,53.95 C294.305959,57.5702128 291.931686,61.0138298 289.821221,63.662766 C294.833576,65.2521277 300.373547,67.3712766 306.001453,69.5787234 C300.373547,71.8744681 293.250727,73.1989362 284.105378,73.9053191 C285.688227,76.0244681 287.359012,79.7329787 288.150436,82.6468085 C300.549419,80.8808511 309.782703,78.4085106 316.729651,74.2585106 C322.97311,77.2606383 328.601017,80.262766 332.55814,83 Z M315.762355,28.4319149 L303.890988,28.4319149 L308.815407,26.4010638 C308.023983,23.9287234 306.001453,20.1319149 304.06686,17.1297872 L321.21439,17.1297872 C319.895349,20.6617021 317.696948,25.2531915 315.762355,28.4319149 Z M315.146802,63.5744681 C311.365552,62.1617021 307.672238,60.7489362 303.978924,59.512766 C305.122093,57.7468085 306.353198,55.8925532 307.496366,53.95 L320.862645,53.95 C319.455669,57.8351064 317.609012,61.0138298 315.146802,63.5744681 Z" id="未来链接"></path>
                </g>
                <path d="M441.104034,19 C444.351026,19 447.257608,19.5050224 449.823779,20.5150672 C452.38995,21.525112 454.576433,22.9737289 456.383227,24.8609179 C458.190021,26.7481069 459.577849,29.0339978 460.546709,31.7185906 C461.51557,34.4031834 462,37.4200278 462,40.7691238 C462,43.958739 461.594126,46.8825529 460.782378,49.5405656 C459.97063,52.1985783 458.805379,54.4844692 457.286624,56.3982383 C455.76787,58.3120074 453.869427,59.8004945 451.591295,60.8636996 C449.313163,61.9269047 446.7339,62.4585072 443.853503,62.4585072 C441.915782,62.4585072 440.135173,62.219286 438.511677,61.7408438 C437.035772,61.3058962 435.797915,60.8270146 434.798108,60.3041989 L434.505308,60.1460362 L434.505308,73 L425,73 L425,21.2327306 C426.937721,20.7011281 429.320594,20.1961057 432.14862,19.7176634 C434.976645,19.2392211 437.961783,19 441.104034,19 Z M384.983547,7 L384.983547,40.8940678 L384.987758,41.4290795 C385.024256,43.7234341 385.297989,45.7054076 385.808958,47.375 C386.359232,49.1730226 387.145338,50.6355932 388.167276,51.7627119 C389.189214,52.8898305 390.394576,53.7217514 391.783364,54.2584746 C393.172151,54.7951977 394.731261,55.0635593 396.460695,55.0635593 C398.190128,55.0635593 399.76234,54.7951977 401.177331,54.2584746 C402.592322,53.7217514 403.810786,52.8898305 404.832724,51.7627119 C405.854662,50.6355932 406.640768,49.1730226 407.191042,47.375 C407.741316,45.5769774 408.016453,43.4166667 408.016453,40.8940678 L408.016453,40.8940678 L408.016453,7 L418,7 L418,41.8601695 L417.994235,42.5006591 C417.940431,45.4729127 417.509994,48.2113936 416.702925,50.7161017 C415.838208,53.3997175 414.528032,55.7344633 412.772395,57.720339 C411.016758,59.7062147 408.776356,61.2492938 406.051188,62.3495763 C403.326021,63.4498588 400.102986,64 396.382084,64 C392.661182,64 389.464351,63.4498588 386.79159,62.3495763 C384.11883,61.2492938 381.904631,59.7062147 380.148995,57.720339 C378.393358,55.7344633 377.096283,53.3997175 376.25777,50.7161017 C375.419257,48.0324859 375,45.0805085 375,41.8601695 L375,41.8601695 L375,7 L384.983547,7 Z M344.048729,20 C349.692797,20 354.095692,21.749241 357.257415,25.2477231 C360.419138,28.7462052 362,33.9678203 362,40.9125683 C362,41.4347298 361.986935,42.0221615 361.960805,42.6748634 C361.939901,43.1970249 361.910636,43.6774135 361.873008,44.1160291 L361.84322,44.4371585 L334.798729,44.4371585 L334.834412,44.828341 C335.154493,47.9292284 336.305381,50.3443716 338.287076,52.0737705 C340.351342,53.8752277 343.34322,54.7759563 347.262712,54.7759563 C349.562147,54.7759563 351.665607,54.5670917 353.573093,54.1493625 C355.333849,53.7637663 356.749505,53.3559242 357.820059,52.9258361 L358.080508,52.8178506 L359.334746,60.571949 L359.153288,60.6594594 C358.650044,60.8941098 357.991957,61.1390744 357.179025,61.3943534 C356.264477,61.6815422 355.21928,61.942623 354.043432,62.1775956 C352.867585,62.4125683 351.600282,62.6083789 350.241525,62.7650273 C348.882768,62.9216758 347.497881,63 346.086864,63 C342.480932,63 339.345339,62.4647845 336.680085,61.3943534 C334.014831,60.3239223 331.819915,58.835762 330.095339,56.9298725 C328.370763,55.023983 327.090395,52.7786885 326.254237,50.1939891 C325.418079,47.6092896 325,44.7765634 325,41.6958106 C325,38.0928962 325.535664,34.9338191 326.606992,32.2185792 C327.678319,29.5033394 329.102401,27.2449909 330.879237,25.4435337 C332.656073,23.6420765 334.694209,22.2844566 336.993644,21.370674 C339.293079,20.4568913 341.644774,20 344.048729,20 Z M239.4,5 C241.892035,5 244.111504,5.17081604 246.058407,5.51244813 C248.00531,5.85408022 249.679646,6.2351314 251.081416,6.65560166 C252.483186,7.07607192 253.638348,7.52282158 254.546903,7.99585062 C255.455457,8.46887967 256.091445,8.81051176 256.454867,9.02074689 L256.454867,9.02074689 L253.495575,17.1410788 C251.938053,16.1950207 250.00413,15.3934993 247.693805,14.7365145 C245.383481,14.0795297 242.956342,13.7510373 240.412389,13.7510373 C234.857227,13.7510373 230.612979,15.4986169 227.679646,18.9937759 C224.746313,22.488935 223.279646,27.3374827 223.279646,33.5394191 C223.279646,36.4827109 223.630088,39.1763485 224.330973,41.620332 C225.031858,44.0643154 226.070206,46.153527 227.446018,47.8879668 C228.821829,49.6224066 230.535103,50.9757953 232.585841,51.9481328 C234.636578,52.9204703 237.037758,53.406639 239.789381,53.406639 C241.502655,53.406639 242.982301,53.3409405 244.228319,53.2095436 C245.474336,53.0781466 246.460767,52.9073306 247.187611,52.6970954 L247.187611,52.6970954 L247.187611,40.06639 C247.187611,36.2003968 250.321617,33.06639 254.187611,33.06639 L254.187611,33.06639 L257,33.06639 L257,59.3195021 C255.650147,59.8450899 253.365782,60.4232365 250.146903,61.0539419 C246.928024,61.6846473 243.215929,62 239.010619,62 C235.116814,62 231.560472,61.3692946 228.341593,60.1078838 C225.122714,58.846473 222.384071,57.0069156 220.125664,54.5892116 C217.867257,52.1715076 216.115044,49.2019364 214.869027,45.6804979 C213.623009,42.1590595 213,38.1120332 213,33.5394191 C213,28.966805 213.687906,24.9197787 215.063717,21.3983402 C216.439528,17.8769018 218.321534,14.8941909 220.709735,12.4502075 C223.097935,10.0062241 225.901475,8.15352697 229.120354,6.89211618 C232.339233,5.63070539 235.765782,5 239.4,5 Z M274.631841,0 L274.631841,47.2493639 C274.631841,48.4062765 274.72471,49.3791349 274.910448,50.1679389 C275.096186,50.956743 275.427861,51.6272265 275.905473,52.1793893 C276.383085,52.7315522 277.033167,53.1522477 277.855721,53.4414758 C278.678275,53.730704 279.726368,53.9541985 281,54.1119593 L281,54.1119593 L279.646766,62 C276.781095,61.9474131 274.406302,61.6318914 272.522388,61.0534351 C270.638474,60.4749788 269.139303,59.6467345 268.024876,58.5687023 C266.910448,57.4906701 266.127695,56.1497031 265.676617,54.5458015 C265.225539,52.9418999 265,51.1145038 265,49.0636132 L265,49.0636132 L265,1.57760814 L274.631841,0 Z M294.735632,20 L294.735632,41.5102804 L294.738147,41.976502 C294.783405,46.129239 295.439655,49.1140187 296.706897,50.9308411 C298.021073,52.8149533 300.314176,53.7570093 303.586207,53.7570093 C304.766284,53.7570093 306.01341,53.7046729 307.327586,53.6 C308.641762,53.4953271 309.62069,53.364486 310.264368,53.2074766 L310.264368,53.2074766 L310.264368,20 L320,20 L320,59.8018692 L319.641388,59.8903402 C317.815329,60.3334623 315.494253,60.7880841 312.678161,61.2542056 C309.67433,61.7514019 306.375479,62 302.781609,62 C299.402299,62 296.572797,61.528972 294.293103,60.5869159 C292.01341,59.6448598 290.189655,58.3364486 288.821839,56.6616822 C287.454023,54.9869159 286.475096,52.9850467 285.885057,50.6560748 C285.295019,48.3271028 285,45.7757009 285,43.0018692 L285,43.0018692 L285,20 L294.735632,20 Z M440.161359,27.2929995 C439.271054,27.2929995 438.341472,27.3328697 437.372611,27.4126101 C436.565228,27.4790604 435.766936,27.6101152 434.977736,27.8057745 L434.505308,27.9309226 L434.505308,51.7732962 C435.343241,52.358059 436.456122,52.9029516 437.843949,53.407974 C439.231776,53.9129964 440.711253,54.1655076 442.282378,54.1655076 C445.738854,54.1655076 448.265747,52.9694019 449.863057,50.5771905 C451.460368,48.1849791 452.259023,44.9687838 452.259023,40.9286045 C452.259023,36.622624 451.303255,33.273528 449.39172,30.8813166 C447.480184,28.4891052 444.403397,27.2929995 440.161359,27.2929995 Z M344.127119,27.9107468 C342.663842,27.9107468 341.383475,28.1848816 340.286017,28.7331512 C339.188559,29.2814208 338.260946,29.9993928 337.503178,30.8870674 C336.74541,31.774742 336.157486,32.7929569 335.739407,33.9417122 C335.381053,34.9263596 335.118687,35.9301885 334.952309,36.9531988 L334.877119,37.4663024 L352.514831,37.4663024 C352.514831,36.1608986 352.331921,34.920765 351.966102,33.7459016 C351.600282,32.5710383 351.064619,31.5528233 350.35911,30.6912568 C349.653602,29.8296903 348.791314,29.1508804 347.772246,28.654827 C346.753178,28.1587735 345.538136,27.9107468 344.127119,27.9107468 Z" id="Combined-Shape" fill="#202020"></path>
                <g id="glueup-symbol">
                    <path d="M88.8341051,0 C67.2033786,0 49.6682102,17.6034856 49.6682102,39.3184856 C49.6682102,41.5347165 49.8509262,43.7287828 50.2116395,45.8857125 L50.2803294,46.2784948 L50.3279408,46.5306707 C50.6915997,48.647727 50.8769259,50.8162075 50.8769259,53.0086181 L50.8739508,53.4872879 C50.6797466,69.1049655 40.9944866,82.8516861 26.7089372,88.3841031 L26.4378718,88.4860482 C10.7480544,93.8957437 0,108.758229 0,125.681514 C0,147.396514 17.5351684,165 39.1658949,165 C60.7966214,165 78.3317898,147.396514 78.3317898,125.681514 C78.3317898,123.190434 78.100942,120.728121 77.6460679,118.316177 C77.2997541,116.249929 77.1230741,114.132041 77.1230741,111.991382 C77.1230741,96.0944686 86.9610411,82.0544804 101.528733,76.5250708 C117.225269,71.1396199 128,56.2628218 128,39.3184856 C128,17.6034856 110.464832,0 88.8341051,0 Z" id="Path" fill="#001D71"></path>
                    <path d="M140,86 C118.460895,86 101,103.460895 101,125 C101,146.539105 118.460895,164 140,164 C161.539105,164 179,146.539105 179,125 C179,103.460895 161.539105,86 140,86 Z" id="Path" fill="#0064FF"></path>
                </g>
            </g>
        </g>
    </g>
</svg>