<svg width="172" height="22" viewBox="0 0 172 22" fill="none" xmlns="http://www.w3.org/2000/svg">
<g clip-path="url(#clip0_18_459)">
<path d="M127.322 20.8491H130.793V9.90714H134.646L134.727 7.75314H130.793V0.328125H127.322V7.75314H123.388L123.307 9.90714H127.322V20.8491Z" fill="#FC4B42"/>
<path d="M131.594 10.9375L131.894 20.8495H134.731L134.431 10.9375H131.594Z" fill="#FC4B42"/>
<path d="M126.226 20.8495L126.526 10.9375H123.689L123.389 20.8495H126.226Z" fill="#FC4B42"/>
<path d="M171.539 2.92993L171.624 0.335938H149.152V20.8559H171.54L171.64 18.2439H162.493L162.946 15.2439H170.277V6.16293H162.451L162.969 2.93195L171.539 2.92993ZM152.732 2.92993H159.403L158.885 6.16095H152.732V2.92993ZM158.926 18.2449H152.751L152.732 15.2449H159.38L158.926 18.2449ZM166.7 8.75494V12.6489H152.732V8.75394L166.7 8.75494Z" fill="#FC4B42"/>
<path d="M134.727 1.3125H131.894L131.594 6.71249H134.431L134.727 1.3125Z" fill="#FC4B42"/>
<path d="M126.524 6.70471L126.224 1.30469H123.387L123.687 6.70471H126.524Z" fill="#FC4B42"/>
<path d="M143.216 6.71011H146.758L146.839 4.54611H143.216V3.47214H147.056L147.137 1.30814H143.216V0.328125H139.746V1.30814H135.825L135.746 3.47614H139.746V4.55014H136.123L136.042 6.71411H139.746V7.78812H135.825L135.746 9.95212H147.059L147.14 7.78912H143.216V6.71011Z" fill="#FC4B42"/>
<path d="M147.126 20.8573V10.9453H136.111V20.8573H139.582V19.5863H143.66V20.8583L147.126 20.8573ZM139.582 13.1093H143.66V14.1863H139.587L139.582 13.1093ZM139.582 17.4213V16.3463H143.66V17.4203L139.582 17.4213Z" fill="#FC4B42"/>
<path d="M17.125 20.8392V0.53125H11.852V10.6972L4.54504 0.53125H-0.00195312V20.8392H5.27103V10.7043L12.5461 20.8392H17.125Z" fill="#FC4B42"/>
<path d="M26.8975 0.53125H21.0645V20.8393H26.8975V0.53125Z" fill="#FC4B42"/>
<path d="M36.6689 0.53125H30.8359V20.8393H36.6689V0.53125Z" fill="#FC4B42"/>
<path d="M62.0624 20.8392V0.53125H57.4984L51.3553 9.58325L45.1783 0.53125H40.6113V20.8392H46.0114V11.1393L51.3474 18.8962L56.6544 11.1242V20.8392H62.0624Z" fill="#FC4B42"/>
<path d="M77.2728 20.4017C78.0985 20.154 78.8647 19.7395 79.5238 19.1837C80.1234 18.6621 80.5987 18.0129 80.9148 17.2837V17.2837C81.2534 16.4818 81.4217 15.6182 81.4088 14.7477C81.4299 14.0605 81.3119 13.3761 81.0618 12.7357C80.8575 12.236 80.5886 11.7654 80.2618 11.3357C79.9445 10.9452 79.5671 10.6077 79.1438 10.3357L78.2168 9.74872L79.0508 9.03573C79.3112 8.80715 79.5342 8.53924 79.7118 8.24173C79.9101 7.89758 80.0742 7.53484 80.2018 7.15872C80.3586 6.6681 80.4316 6.15461 80.4178 5.63974C80.4365 4.87288 80.2788 4.11197 79.9568 3.41574C79.656 2.80547 79.2174 2.27346 78.6758 1.86172C78.0548 1.40685 77.353 1.07429 76.6078 0.881742C75.6943 0.640398 74.7526 0.522676 73.8078 0.531736H66.0078V20.8397H74.1628C75.2157 20.8531 76.2645 20.7054 77.2728 20.4017ZM71.1728 4.07171H72.7798C73.0971 4.05196 73.4151 4.0974 73.7141 4.20523C74.0132 4.31306 74.2869 4.481 74.5186 4.6987C74.7503 4.91639 74.9349 5.17923 75.0612 5.47101C75.1874 5.76278 75.2524 6.07733 75.2524 6.39523C75.2524 6.71313 75.1874 7.02768 75.0612 7.31946C74.9349 7.61123 74.7503 7.87407 74.5186 8.09176C74.2869 8.30946 74.0132 8.47737 73.7141 8.5852C73.4151 8.69303 73.0971 8.73847 72.7798 8.71872H71.1728V4.07171ZM71.1728 17.2997V11.8637H72.7798C75.7798 11.8637 76.1038 13.7637 76.1038 14.5817C76.1038 15.3997 75.7798 17.2997 72.7798 17.2997H71.1728Z" fill="#FC4B42"/>
<path d="M102.202 3.13336C101.216 2.15769 100.053 1.3791 98.7751 0.839355C97.4554 0.285334 96.0385 0 94.6072 0C93.1759 0 91.7589 0.285334 90.4391 0.839355C87.8556 1.9197 85.7978 3.9686 84.7062 6.54736C84.1512 7.86056 83.8652 9.27171 83.8652 10.6974C83.8652 12.123 84.1512 13.5342 84.7062 14.8474C85.53 16.7918 86.9082 18.4505 88.6688 19.6167C90.4294 20.7828 92.4944 21.4047 94.6061 21.4047C96.7179 21.4047 98.7829 20.7828 100.544 19.6167C102.304 18.4505 103.682 16.7918 104.506 14.8474C105.061 13.5342 105.347 12.123 105.347 10.6974C105.347 9.27169 105.061 7.86051 104.506 6.54736C103.962 5.27319 103.18 4.11448 102.202 3.13336ZM99.6141 12.8134C99.0605 14.1083 98.0264 15.1382 96.7291 15.6864C96.057 15.9689 95.3352 16.1145 94.6061 16.1145C93.877 16.1145 93.1553 15.9689 92.4832 15.6864C91.1857 15.1393 90.1516 14.1095 89.5991 12.8144C89.316 12.1455 89.1702 11.4267 89.1702 10.7004C89.1702 9.97409 89.316 9.25519 89.5991 8.58636C90.1525 7.29057 91.1877 6.26045 92.4861 5.71338C93.1579 5.43087 93.8794 5.28534 94.6082 5.28534C95.3369 5.28534 96.0584 5.43087 96.7302 5.71338C98.0276 6.26132 99.0618 7.29124 99.6152 8.58636C99.8989 9.25505 100.045 9.97401 100.045 10.7004C100.045 11.4267 99.8989 12.1457 99.6152 12.8144L99.6141 12.8134Z" fill="#FC4B42"/>
<path d="M120.965 0.53125H103.695C103.895 0.70825 104.095 0.889235 104.274 1.07224C105.317 2.12303 106.184 3.33571 106.839 4.66324H110.705V20.8392H116.34V4.66324H120.965V0.53125Z" fill="#FC4B42"/>
</g>
<defs>
<clipPath id="clip0_18_459">
<rect width="171.643" height="21.397" fill="white"/>
</clipPath>
</defs>
</svg>
