<svg id="Layer_1" data-name="Layer 1" xmlns="http://www.w3.org/2000/svg" viewBox="0 0 120 36.17"><defs><style>.cls-1{fill:#fd5e0f;}.cls-2{fill:#585c61;}</style></defs><title>New Logo用于屏显(1)</title><path class="cls-1" d="M12.48,19.48a4.39,4.39,0,1,1,0-2.79h4.21v-5a2,2,0,0,0-2-2H2a2,2,0,0,0-2,2V24.44a2,2,0,0,0,2,2H14.7a2,2,0,0,0,2-2v-5Z"/><path class="cls-1" d="M34.18,0H21.47a2,2,0,0,0-2,2V14.72l4.43-4.43a4.43,4.43,0,1,1,2,2l-4.43,4.43H34.18a2,2,0,0,0,2-2V2a2,2,0,0,0-2-2"/><path class="cls-1" d="M34.18,19.48H21.45l4.43,4.43a4.43,4.43,0,1,1-2,2l-4.43-4.43V34.18a2,2,0,0,0,2,2H34.18a2,2,0,0,0,2-2V21.47a2,2,0,0,0-2-2"/><polygon class="cls-2" points="64.08 7.72 77.37 7.72 77.37 10.3 72.25 10.3 72.25 28.47 69.21 28.47 69.21 10.3 64.08 10.3 64.08 7.72"/><path class="cls-2" d="M53.62,13.65a7.55,7.55,0,1,0,7.54,7.55,7.55,7.55,0,0,0-7.54-7.55m0,12.18a4.63,4.63,0,1,1,4.63-4.63,4.63,4.63,0,0,1-4.63,4.63"/><path class="cls-2" d="M112.4,19.1c.23.13,2.89,1.55,3.73,2.15a2.69,2.69,0,0,1,.32.27,2.54,2.54,0,0,1-1.76,4.37H106.5v2.58h8.29A5,5,0,0,0,120,23.23a5.18,5.18,0,0,0-1.74-3.84c-.06-.06-.24-.22-.38-.33a24.33,24.33,0,0,0-3-1.84c-.28-.15-3.62-2.07-3.62-2.07a4.91,4.91,0,0,1-.71-.48,2.57,2.57,0,0,1-.79-1.84,2.53,2.53,0,0,1,2.53-2.53h6.77V7.72h-7.3a5.13,5.13,0,0,0-4.9,5.25,5.23,5.23,0,0,0,1.89,3.92l.31.25A28.43,28.43,0,0,0,112.4,19.1Z"/><path class="cls-2" d="M98.58,11.89l1.81,16.58h3L101.13,9.83l0-.18c0-.05,0-.09,0-.14A2.45,2.45,0,0,0,96.45,9l0,.07a6.5,6.5,0,0,0-.38,1L92.1,23.54a.09.09,0,0,1-.17,0L87.82,9.89a4.79,4.79,0,0,0-.43-1,1.93,1.93,0,0,0-.13-.21,2.45,2.45,0,0,0-.48-.53,3.33,3.33,0,0,0-.32-.24,2.44,2.44,0,0,0-3.37.86,2.6,2.6,0,0,0-.16.34c0,.08-.06.15-.08.22a3.39,3.39,0,0,0-.15.77L80.36,28.47h3l1.81-16.6a.09.09,0,0,1,.18,0l4.8,15.42a2.13,2.13,0,0,0,.14.35,2.52,2.52,0,0,0,.15.24l0,0a2.11,2.11,0,0,0,.39.4h0a1.77,1.77,0,0,0,.49.26h0a1.28,1.28,0,0,0,.28.07h0l.29,0h.18l.17,0,.16,0,.15-.05.15-.06a.61.61,0,0,0,.14-.07l.14-.08.13-.09.12-.11.11-.11a.63.63,0,0,0,.1-.12l.09-.12a1,1,0,0,0,.08-.14.91.91,0,0,0,.07-.14l.06-.15,0-.09a1.47,1.47,0,0,1,.06-.19l4.48-15.23A.09.09,0,0,1,98.58,11.89Z"/></svg>