<svg width="155" height="32" viewBox="0 0 155 32" fill="none" xmlns="http://www.w3.org/2000/svg">
<g clip-path="url(#clip0_5_1162)">
<path d="M3.2 8.7L9.2 14.7C11.6 17.1 11.6 20.9 9.2 23.3L1.3 15.4C-0.1 14 -0.1 11.8 1.3 10.4L3 8.7C3 8.6 3.1 8.6 3.2 8.7Z" fill="url(#paint0_linear_5_1162)"/>
<path d="M3.7002 8.39844L1.3002 10.7984C1.2002 10.8984 1.2002 10.8984 1.1002 10.9984C-0.0998047 12.1984 -0.0998047 14.0984 1.1002 15.2984L5.4002 19.5984C4.2002 18.3984 4.2002 16.3984 5.2002 15.2984L7.4002 12.8984" fill="url(#paint1_linear_5_1162)"/>
<path d="M12 0.3L11.7 0H11.6L3.4 8.2L1 10.6C1 10.6 1 10.7 0.9 10.7C-0.3 11.9 -0.3 13.8 0.9 15L5.2 19.3C4 18.1 4 16.2 5.2 15L7.4 12.8L11.1 9.1L12 8.3C14.2 6.1 14.2 2.5 12 0.3Z" fill="url(#paint2_linear_5_1162)"/>
<path d="M23.7004 22.9984L17.7004 16.9984C15.3004 14.5984 15.3004 10.7984 17.7004 8.39844L25.6004 16.2984C27.0004 17.6984 27.0004 19.8984 25.6004 21.2984L24.0004 22.9984C23.9004 23.0984 23.8004 23.0984 23.7004 22.9984Z" fill="url(#paint3_linear_5_1162)"/>
<path d="M23.2 23.3016L25.6 20.9016C25.7 20.8016 25.7 20.8016 25.8 20.7016C27 19.5016 27 17.6016 25.8 16.4016L21.5 12.1016C22.7 13.3016 22.7 15.3016 21.7 16.4016L19.5 18.8016" fill="url(#paint4_linear_5_1162)"/>
<path d="M14.9004 31.4008L15.2004 31.7008H15.3004L23.5004 23.5008L25.9004 21.1008C26.0004 21.0008 26.0004 21.0008 26.1004 20.9008C27.3004 19.7008 27.3004 17.8008 26.1004 16.6008L21.8004 12.3008C23.0004 13.5008 23.0004 15.4008 21.8004 16.6008L19.6004 18.8008L15.9004 22.5008L15.0004 23.4008C12.7004 25.6008 12.7004 29.2008 14.9004 31.4008Z" fill="url(#paint5_linear_5_1162)"/>
<path d="M35.4004 6.20312H42.7004C43.8004 6.20312 44.9004 6.40313 45.9004 7.00313C46.8004 7.50313 47.6004 8.20313 48.2004 9.10313C49.3004 11.0031 49.3004 13.3031 48.2004 15.2031C47.6004 16.1031 46.8004 16.8031 45.9004 17.3031C44.9004 17.8031 43.8004 18.1031 42.7004 18.1031H38.4004V25.6031H35.4004V6.20312ZM42.8004 15.2031C43.4004 15.2031 44.0004 15.1031 44.5004 14.8031C45.9004 14.0031 46.4004 12.2031 45.6004 10.7031C45.3004 10.2031 45.0004 9.80313 44.5004 9.60313C44.0004 9.30313 43.4004 9.20312 42.8004 9.20312H38.5004V15.3031H42.8004V15.2031Z" fill="#494949"/>
<path d="M51.2006 9.60156C50.4006 8.80156 50.4006 7.50156 51.2006 6.70156C52.0006 5.90156 53.3006 5.90156 54.1006 6.70156C54.9006 7.50156 54.9006 8.80156 54.1006 9.60156C53.7006 10.0016 53.2006 10.2016 52.7006 10.2016C52.1006 10.2016 51.6006 10.0016 51.2006 9.60156Z" fill="#494949"/>
<path d="M54.2002 11.8008H51.2002V25.6008H54.2002V11.8008Z" fill="#494949"/>
<path d="M57.8008 11.6031H60.7008V13.5031H60.8008C61.2008 12.8031 61.9008 12.2031 62.6008 11.9031C63.4008 11.5031 64.2008 11.2031 65.1008 11.2031C66.8008 11.2031 68.1008 11.7031 69.0008 12.7031C69.9008 13.7031 70.3008 15.1031 70.3008 16.8031V25.7031H67.3008V17.2031C67.3008 16.1031 67.0008 15.3031 66.5008 14.8031C66.0008 14.2031 65.2008 14.0031 64.3008 14.0031C63.7008 14.0031 63.0008 14.2031 62.5008 14.6031C62.0008 15.0031 61.5008 15.5031 61.3008 16.1031C61.0008 16.7031 60.9008 17.4031 60.9008 18.1031V25.7031H57.9008V11.6031H57.8008Z" fill="#494949"/>
<path d="M75.4002 30.5C74.4002 29.8 73.6002 28.9 73.2002 27.7H76.7002C76.9002 27.9 77.1002 28.1 77.4002 28.3C78.1002 28.7 78.9002 29 79.7002 29C81.0002 29 82.0002 28.6 82.7002 27.9C83.4002 27.1 83.8002 26.1 83.8002 24.7V23.4H83.6002C83.1002 24.1 82.5002 24.6 81.8002 24.9C81.0002 25.3 80.1002 25.5 79.2002 25.5C78.1002 25.5 76.9002 25.2 76.0002 24.6C75.0002 24 74.2002 23.1 73.6002 22.1C73.0002 20.9 72.7002 19.6 72.7002 18.3C72.7002 17 73.0002 15.7 73.6002 14.5C74.1002 13.4 75.0002 12.6 76.0002 11.9C77.0002 11.3 78.1002 11 79.2002 11C80.1002 11 81.0002 11.2 81.8002 11.6C82.5002 12 83.2002 12.5 83.6002 13.1H83.8002V11.4H86.6002V24.5C86.6002 25.8 86.3002 27.2 85.7002 28.3C85.2002 29.3 84.3002 30.2 83.3002 30.7C82.2002 31.3 80.9002 31.5 79.7002 31.5C77.9002 31.7 76.5002 31.3 75.4002 30.5ZM81.7002 22.3C82.3002 21.9 82.8002 21.4 83.2002 20.8C83.6002 20.1 83.8002 19.2 83.7002 18.4C83.7002 17 83.3002 15.9 82.5002 15.1C81.8002 14.3 80.7002 13.9 79.6002 13.9C78.9002 13.9 78.2002 14.1 77.6002 14.4C77.0002 14.8 76.5002 15.3 76.1002 15.9C75.4002 17.4 75.4002 19.2 76.1002 20.7C76.4002 21.3 76.9002 21.9 77.6002 22.2C78.2002 22.6 78.9002 22.7 79.6002 22.7C80.3002 22.8 81.0002 22.7 81.7002 22.3Z" fill="#494949"/>
<path d="M128.401 24.7031C127.401 24.1031 126.601 23.2031 126.001 22.1031C124.801 19.8031 124.801 17.0031 126.001 14.7031C126.601 13.6031 127.401 12.8031 128.401 12.1031C129.401 11.5031 130.601 11.2031 131.801 11.2031C132.701 11.2031 133.601 11.4031 134.401 11.8031C135.101 12.2031 135.701 12.7031 136.201 13.4031V6.20312H139.201V25.6031H136.401V23.4031H136.301C135.801 24.1031 135.201 24.6031 134.501 24.9031C133.701 25.3031 132.801 25.6031 131.901 25.5031C130.601 25.6031 129.401 25.3031 128.401 24.7031ZM134.201 22.4031C134.801 22.0031 135.401 21.5031 135.701 20.8031C136.101 20.1031 136.301 19.3031 136.301 18.4031C136.301 17.6031 136.101 16.8031 135.701 16.1031C135.401 15.4031 134.801 14.9031 134.201 14.5031C133.601 14.1031 132.901 13.9031 132.201 13.9031C131.501 13.9031 130.801 14.1031 130.201 14.5031C129.601 14.9031 129.001 15.4031 128.701 16.1031C128.301 16.8031 128.101 17.6031 128.101 18.4031C128.101 19.2031 128.301 20.0031 128.701 20.8031C129.101 21.5031 129.601 22.0031 130.201 22.4031C130.801 22.8031 131.501 23.0031 132.201 23.0031C132.901 22.9031 133.601 22.7031 134.201 22.4031Z" fill="#494949"/>
<path d="M116.401 11.1016C112.401 11.1016 109.101 14.3016 109.101 18.3016C109.101 22.3016 112.301 25.6016 116.301 25.6016C117.201 25.6016 118.101 25.5016 118.901 25.1016L123.201 20.8016C124.601 17.1016 122.701 13.0016 119.001 11.6016C118.201 11.3016 117.301 11.1016 116.401 11.1016ZM120.601 19.2016L117.301 22.5016C117.001 22.6016 116.701 22.6016 116.501 22.6016C114.201 22.6016 112.301 20.7016 112.301 18.4016C112.301 16.1016 114.201 14.2016 116.501 14.2016C118.801 14.2016 120.701 16.1016 120.701 18.4016C120.701 18.6016 120.601 18.9016 120.601 19.2016Z" fill="#494949"/>
<path d="M98.8006 6.20312C102.801 6.20312 106.201 8.20312 107.601 11.9031H103.901C102.901 9.90312 101.101 8.90312 98.8006 8.90312C95.0006 8.90312 92.3006 11.6031 92.3006 15.9031C92.3006 20.2031 95.0006 22.9031 98.8006 22.9031C101.101 22.9031 102.901 21.9031 103.901 19.9031H107.601C106.201 23.6031 102.701 25.6031 98.8006 25.6031C93.4006 25.6031 89.1006 21.6031 89.1006 15.9031C89.1006 10.2031 93.5006 6.20312 98.8006 6.20312Z" fill="#494949"/>
<path d="M144.701 24.7031C143.601 24.1031 142.801 23.2031 142.201 22.1031C141.601 21.0031 141.301 19.7031 141.301 18.4031C141.301 17.1031 141.601 15.9031 142.201 14.8031C142.801 13.7031 143.601 12.8031 144.601 12.2031C145.701 11.5031 146.901 11.2031 148.101 11.2031C149.301 11.2031 150.601 11.5031 151.701 12.1031C152.701 12.7031 153.501 13.6031 154.001 14.6031C154.501 15.7031 154.801 16.9031 154.801 18.2031C154.801 18.6031 154.801 19.0031 154.801 19.4031H144.301C144.301 20.4031 144.801 21.4031 145.601 22.0031C146.401 22.7031 147.301 23.0031 148.401 23.0031C149.101 23.0031 149.701 22.8031 150.301 22.4031C150.901 22.0031 151.401 21.5031 151.801 20.8031H154.801C154.601 21.3031 154.501 21.7031 154.201 22.1031C153.601 23.1031 152.801 24.0031 151.801 24.6031C150.801 25.3031 149.601 25.6031 148.401 25.6031C147.001 25.6031 145.801 25.3031 144.701 24.7031ZM151.801 16.8031C151.801 16.3031 151.601 15.8031 151.301 15.4031C151.001 14.9031 150.601 14.5031 150.101 14.2031C149.501 13.9031 148.801 13.7031 148.101 13.7031C147.201 13.7031 146.401 14.0031 145.701 14.5031C145.001 15.1031 144.601 15.9031 144.301 16.8031H151.801Z" fill="#494949"/>
</g>
<defs>
<linearGradient id="paint0_linear_5_1162" x1="4.90301" y1="11.3243" x2="6.64714" y2="23.3459" gradientUnits="userSpaceOnUse">
<stop offset="0.32" stop-color="#1369C8"/>
<stop offset="1" stop-color="#45A2FF"/>
</linearGradient>
<linearGradient id="paint1_linear_5_1162" x1="5.0493" y1="12.3902" x2="2.4374" y2="16.5301" gradientUnits="userSpaceOnUse">
<stop stop-color="#5FABF5"/>
<stop offset="0.75" stop-color="#77CBFF"/>
<stop offset="0.99" stop-color="#5EBDFF"/>
</linearGradient>
<linearGradient id="paint2_linear_5_1162" x1="10.7948" y1="-3.9186" x2="4.2703" y2="16.9502" gradientUnits="userSpaceOnUse">
<stop offset="0.04" stop-color="#226DBD"/>
<stop offset="0.9" stop-color="#56ABFB"/>
</linearGradient>
<linearGradient id="paint3_linear_5_1162" x1="21.9229" y1="20.3434" x2="20.1788" y2="8.32181" gradientUnits="userSpaceOnUse">
<stop offset="0.32" stop-color="#1369C8"/>
<stop offset="1" stop-color="#45A2FF"/>
</linearGradient>
<linearGradient id="paint4_linear_5_1162" x1="21.8535" y1="19.3219" x2="24.4658" y2="15.1793" gradientUnits="userSpaceOnUse">
<stop stop-color="#5FABF5"/>
<stop offset="0.75" stop-color="#77CBFF"/>
<stop offset="0.99" stop-color="#5EBDFF"/>
</linearGradient>
<linearGradient id="paint5_linear_5_1162" x1="16.1068" y1="35.6277" x2="22.6342" y2="14.7591" gradientUnits="userSpaceOnUse">
<stop offset="0.04" stop-color="#226DBD"/>
<stop offset="0.9" stop-color="#56ABFB"/>
</linearGradient>
<clipPath id="clip0_5_1162">
<rect width="154.8" height="31.7" fill="white"/>
</clipPath>
</defs>
</svg>
