<svg width="100" height="36" viewBox="0 0 100 36" fill="none" xmlns="http://www.w3.org/2000/svg">
<path fill-rule="evenodd" clip-rule="evenodd" d="M76.2799 23.8387H74.8918V23.8391H69.6696V19.779H75.1918L74.9304 18.8043L75.1845 17.8056H74.0201V17.8094H69.6696V13.7695H76.2663L76.7888 11.8203H76.7377H74.8918H67.4883V25.7882H74.8918H76.7377H76.8004L76.7962 25.765L76.2799 23.8387Z" fill="#595757"/>
<path fill-rule="evenodd" clip-rule="evenodd" d="M13.9277 25.7882H16.0649V11.8203H13.9277V25.7882Z" fill="#595757"/>
<mask id="mask0_27_2564" style="mask-type:alpha" maskUnits="userSpaceOnUse" x="0" y="11" width="11" height="15">
<path d="M0 25.7847V11.7969H10.6283V25.7847H0H0Z" fill="white"/>
</mask>
<g mask="url(#mask0_27_2564)">
<path fill-rule="evenodd" clip-rule="evenodd" d="M5.6356 19.1726H2.18164V13.7659H5.6356C7.59764 13.7659 8.49138 15.1724 8.49138 16.4792C8.49138 17.7763 7.59764 19.1726 5.6356 19.1726ZM5.6356 11.7969H0V25.7847H2.18164V21.1018H5.6356C9.06606 21.1018 10.6284 18.6953 10.6284 16.4593C10.6284 14.2137 9.06606 11.7969 5.6356 11.7969Z" fill="#595757"/>
</g>
<path fill-rule="evenodd" clip-rule="evenodd" d="M41.7628 19.817L43.773 14.7018L45.7377 19.817H41.7628ZM42.9564 11.6172L36.7617 25.7858H39.0905C39.4692 24.8823 40.0584 23.5712 40.8913 21.7801L40.9538 21.6459H46.5698L48.432 25.7858H50.7393L44.5446 11.6172H42.9564Z" fill="#595757"/>
<path fill-rule="evenodd" clip-rule="evenodd" d="M25.2885 11.8203H22.3643L16.4766 18.8189L22.3643 25.8175H25.2885L19.408 18.8189L25.2885 11.8203Z" fill="#595757"/>
<path fill-rule="evenodd" clip-rule="evenodd" d="M64.8447 25.814L60.3424 20.4588L60.4441 20.4368C62.6914 19.9536 64.0874 18.3448 64.0874 16.2382C64.0874 14.031 62.3648 11.7969 59.0723 11.7969H53.459V25.7847H55.5958V13.7659H59.0723C61.0342 13.7659 61.9277 15.0476 61.9277 16.2382C61.9277 17.4385 61.0342 18.7305 59.0723 18.7305H56.4963V18.7341H55.9609L61.711 25.5651L61.8932 25.7847H61.8958L61.9205 25.814H64.8447Z" fill="#595757"/>
<path fill-rule="evenodd" clip-rule="evenodd" d="M35.4433 18.809L35.7255 17.8094H30.185V13.7695L35.9166 13.7703H36.7856L37.3083 11.8203H35.9166H28.0195V25.7882H30.1895V19.779H35.6845L35.4433 18.809Z" fill="#595757"/>
<mask id="mask1_27_2564" style="mask-type:alpha" maskUnits="userSpaceOnUse" x="81" y="0" width="15" height="12">
<path d="M81.625 0.140625H95.1986V11.9481H81.625V0.140625Z" fill="white"/>
</mask>
<g mask="url(#mask1_27_2564)">
<path fill-rule="evenodd" clip-rule="evenodd" d="M85.2607 0.140625L95.1986 11.9482H85.6231L82.5403 8.35393C81.3388 6.96822 81.3346 4.98782 82.4429 3.60365C82.4694 3.56626 85.2607 0.140625 85.2607 0.140625Z" fill="#4DE4A9"/>
</g>
<path fill-rule="evenodd" clip-rule="evenodd" d="M82.4413 31.7082C82.4676 31.7455 82.4835 31.7651 82.4835 31.7651L85.2591 35.1712L85.3388 35.0754L99.995 17.6623L99.9953 17.6621L95.197 11.9453L90.3338 17.7644C90.3338 17.7644 82.6412 26.8763 82.5666 26.9623C81.3651 28.3481 81.3328 30.3239 82.4413 31.7082Z" fill="#0078FF"/>
<path fill-rule="evenodd" clip-rule="evenodd" d="M85.623 11.9453L90.4109 17.6502L95.1986 11.9453H85.623Z" fill="#3FCB99"/>
</svg>
