<svg id="图层_1" data-name="图层 1" xmlns="http://www.w3.org/2000/svg" width="85px" height="31px" viewBox="0 0 85 31"><defs><style>.cls-1{fill:#62b9f4;}.cls-2{fill:#81d8d0;}.cls-3{fill:#ff865c;}.cls-4{fill:#ffc82c;}.cls-5{fill:#3b3b3b;}</style></defs><title>85x31logo </title><polygon class="cls-1" points="3.52 19.17 17.5 8.68 17.5 1.35 3.52 11.83 3.52 19.17"/><polygon class="cls-2" points="17.5 29.65 3.52 19.17 3.52 11.83 17.5 22.32 17.5 29.65"/><polygon class="cls-3" points="31.49 19.17 17.5 8.68 17.5 1.35 31.49 11.84 31.49 19.17"/><polygon class="cls-4" points="17.5 29.65 31.49 19.17 31.49 11.83 17.5 22.32 17.5 29.65"/><path class="cls-5" d="M50.62,12.42A5.43,5.43,0,0,0,45.07,7H38.78V24.91h2.56V9.41h3.73a3,3,0,1,1,.18,6H42.7v1.23l5.52,8.27h3.35L46.82,17.6A5.4,5.4,0,0,0,50.62,12.42Z"/><path class="cls-5" d="M62.29,18.79a3.31,3.31,0,0,1-2.92,3.45,3.83,3.83,0,0,1-.76,0,3.37,3.37,0,0,1-3-3.45V12.1H53.06v7.18a6,6,0,0,0,5.63,5.63h0.55a5.88,5.88,0,0,0,5.63-5.63V12.1H62.29v6.69Z"/><path class="cls-5" d="M70.83,11.33c0-1.36.43-1.83,1.17-1.83h1.36V7h-1.2a4,4,0,0,0-2.65,1.09,4.41,4.41,0,0,0-1.21,3.28v0.8h-1v2.5h1v10.3h2.53V14.63h2.6v-2.5h-2.6v-0.8Z"/><path class="cls-5" d="M78.88,11.33c0-1.36.43-1.83,1.17-1.83h1.36V7h-1.2a4,4,0,0,0-2.65,1.09,4.41,4.41,0,0,0-1.21,3.28v0.8h-1v2.5h1v10.3h2.53V14.63h2.6v-2.5h-2.6v-0.8Z"/></svg>