<?xml version="1.0" encoding="utf-8"?>
<!-- Generator: Adobe Illustrator 24.1.0, SVG Export Plug-In . SVG Version: 6.00 Build 0)  -->
<svg version="1.2" baseProfile="tiny-ps"
    width="201" height="29"
	 id="svg22" xmlns:cc="http://creativecommons.org/ns#" xmlns:dc="http://purl.org/dc/elements/1.1/" xmlns:inkscape="http://www.inkscape.org/namespaces/inkscape" xmlns:rdf="http://www.w3.org/1999/02/22-rdf-syntax-ns#" xmlns:sodipodi="http://sodipodi.sourceforge.net/DTD/sodipodi-0.dtd" xmlns:svg="http://www.w3.org/2000/svg"
	 xmlns="http://www.w3.org/2000/svg" xmlns:xlink="http://www.w3.org/1999/xlink"
	 xml:space="preserve">
   <title>SendCloud Logo</title>
    <g fill="none" fill-rule="evenodd">
    <path d="M59.698 28.035c1.358 0 2.588-.151 3.692-.454 1.103-.303 2.043-.737 2.82-1.304a5.935 5.935 0 0 0 1.794-2.05c.42-.801.63-1.695.63-2.681 0-.645-.113-1.213-.337-1.707a4.56 4.56 0 0 0-.886-1.303 6.342 6.342 0 0 0-1.245-.99c-.464-.282-.94-.544-1.429-.783a68.18 68.18 0 0 0-1.428-.681 10.49 10.49 0 0 1-1.245-.674 3.657 3.657 0 0 1-.886-.769 1.505 1.505 0 0 1-.337-.974c0-.322.076-.627.227-.915.151-.289.388-.538.71-.748.323-.21.733-.376 1.23-.498.499-.122 1.095-.183 1.788-.183.351 0 .723.017 1.113.052.39.034.779.083 1.165.146.385.064.757.137 1.113.22.356.083.676.173.96.27l.63-3.178a16.739 16.739 0 0 0-2.132-.417 24.33 24.33 0 0 0-1.245-.132 15.793 15.793 0 0 0-1.267-.052c-1.445 0-2.693.169-3.743.506-1.05.337-1.914.788-2.593 1.355-.678.566-1.181 1.213-1.508 1.94a5.46 5.46 0 0 0-.491 2.264c0 .654.11 1.223.33 1.706.22.484.512.909.878 1.275.367.366.78.683 1.238.952.46.269.93.518 1.414.747.483.23.957.452 1.42.667.464.214.88.444 1.246.688.366.244.659.515.879.813.22.298.33.652.33 1.062 0 .352-.084.686-.25 1.003-.166.318-.427.599-.783.843-.357.244-.811.437-1.363.578-.552.142-1.213.213-1.985.213-.44 0-.893-.025-1.362-.073a17.423 17.423 0 0 1-4.102-.938L54 27.215a17 17 0 0 0 2.68.615c.928.137 1.934.205 3.018.205zm18.302 0c.938 0 1.877-.068 2.82-.205a24.11 24.11 0 0 0 2.644-.527V24.52a17.79 17.79 0 0 1-2.417.49c-.84.113-1.626.169-2.359.169-1.093 0-1.92-.242-2.482-.725-.562-.484-.843-1.17-.843-2.058 0-.186.005-.354.015-.506.01-.151.024-.286.044-.403h1.948c1.543 0 2.854-.12 3.933-.359 1.08-.239 1.956-.576 2.63-1.01.673-.435 1.162-.957 1.464-1.568.303-.61.455-1.291.455-2.043 0-.596-.12-1.14-.36-1.633a3.548 3.548 0 0 0-1.04-1.268c-.453-.351-1.01-.625-1.67-.82-.658-.195-1.413-.293-2.262-.293-1.31 0-2.496.266-3.56.799a8.374 8.374 0 0 0-2.732 2.167c-.757.914-1.343 1.976-1.758 3.187a11.755 11.755 0 0 0-.622 3.837c0 .928.141 1.739.424 2.432.284.693.689 1.27 1.216 1.729.528.459 1.172.805 1.934 1.04.762.234 1.621.351 2.578.351zm-.454-9.097h-1.553a7.135 7.135 0 0 1 .593-1.464c.25-.46.547-.86.894-1.202a4.012 4.012 0 0 1 1.194-.813c.449-.2.942-.3 1.48-.3.663 0 1.196.152 1.596.454.4.303.6.713.6 1.23 0 .274-.058.538-.175.792-.117.254-.35.476-.696.666-.347.19-.833.345-1.458.462-.625.117-1.45.175-2.475.175zm13.805 8.76 1.26-6.357a7.55 7.55 0 0 1 .41-1.348 10.325 10.325 0 0 1 1.501-2.57c.308-.386.625-.723.952-1.011a4.67 4.67 0 0 1 .989-.682c.332-.166.644-.249.937-.249.498 0 .848.218 1.048.652.2.435.222 1.057.066 1.868l-1.949 9.697h3.575l1.948-9.624c.176-.86.225-1.633.146-2.322-.078-.688-.273-1.274-.586-1.757a3.044 3.044 0 0 0-1.296-1.114c-.552-.258-1.223-.388-2.014-.388-.635 0-1.228.095-1.78.286a6.956 6.956 0 0 0-2.71 1.699 7.163 7.163 0 0 0-.857 1.047l.132-2.71h-2.915c-.107 1.065-.2 1.968-.278 2.71a123.6 123.6 0 0 1-.213 1.897 52.42 52.42 0 0 1-.175 1.326c-.054.361-.11.693-.169.996l-1.597 7.954h3.575zm17.058.337c.645 0 1.243-.095 1.795-.285a6.956 6.956 0 0 0 1.508-.726 6.604 6.604 0 0 0 1.194-.974c.342-.356.625-.705.85-1.047l-.117 2.695h2.915c.097-1.064.185-1.968.263-2.71.079-.742.15-1.374.213-1.897a32.523 32.523 0 0 1 .359-2.321L120.143 7h-3.56l-1.172 5.786a20.95 20.95 0 0 0-1.099-.161c-.4-.049-.864-.073-1.391-.073-1.406 0-2.664.256-3.772.769a7.945 7.945 0 0 0-2.805 2.138c-.762.914-1.343 2.002-1.743 3.267-.4 1.265-.601 2.644-.601 4.138 0 1.65.374 2.925 1.12 3.823.748.899 1.844 1.348 3.29 1.348zm.938-3.003c-.547 0-.955-.205-1.223-.615-.269-.41-.403-1.006-.403-1.787 0-.4.029-.862.088-1.384.058-.523.16-1.053.307-1.59a9.27 9.27 0 0 1 .593-1.582 5.47 5.47 0 0 1 .945-1.384 4.49 4.49 0 0 1 1.355-.982c.523-.249 1.13-.373 1.824-.373.42 0 .806.037 1.157.11.352.073.635.149.85.227l-.689 3.5a7.864 7.864 0 0 1-.71 2.037 10.37 10.37 0 0 1-1.209 1.89 7.43 7.43 0 0 1-1.45 1.391c-.508.362-.986.542-1.435.542zm18.83 2.64c.86 0 1.71-.087 2.55-.263.84-.176 1.718-.434 2.636-.776v-3.237a15.477 15.477 0 0 1-2.278.74c-.385.092-.766.165-1.142.219-.376.054-.725.08-1.047.08-.899 0-1.612-.129-2.14-.388-.527-.258-.927-.586-1.2-.981a3.092 3.092 0 0 1-.52-1.296 8.735 8.735 0 0 1-.11-1.348c0-.381.039-.877.117-1.487.078-.61.212-1.257.403-1.94.19-.684.451-1.373.783-2.066a7.675 7.675 0 0 1 1.253-1.868 6.158 6.158 0 0 1 1.802-1.355c.698-.352 1.516-.527 2.453-.527.762 0 1.502.083 2.22.249.717.166 1.379.361 1.984.586l.689-3.326a15.385 15.385 0 0 0-2.249-.505A16.858 16.858 0 0 0 131.854 8c-1.19 0-2.258.144-3.2.432a9.254 9.254 0 0 0-2.505 1.172 9.257 9.257 0 0 0-1.904 1.707 11.937 11.937 0 0 0-1.385 2.028c-.38.708-.69 1.429-.93 2.161-.24.732-.43 1.43-.571 2.095a15.633 15.633 0 0 0-.359 3.15c0 .878.117 1.733.352 2.563.234.83.627 1.57 1.179 2.219.552.65 1.286 1.17 2.204 1.56.918.39 2.066.586 3.443.586zm14.165.363c1.035 0 2.044-.107 3.025-.322a17.343 17.343 0 0 0 2.952-.938v-2.797c-1.074.41-2.017.722-2.827.937a8.939 8.939 0 0 1-2.285.322c-.645 0-1.09-.173-1.333-.52-.245-.346-.298-.871-.162-1.574L144.92 7h-3.603l-3.12 15.571c-.371 1.875-.218 3.255.461 4.138.679.884 1.907 1.326 3.684 1.326zm13.997 0c.928 0 1.792-.127 2.593-.38a8.09 8.09 0 0 0 2.182-1.063 8.429 8.429 0 0 0 1.743-1.618 9.765 9.765 0 0 0 1.275-2.037 11.444 11.444 0 0 0 1.055-4.805c0-.956-.142-1.789-.425-2.497a4.582 4.582 0 0 0-1.209-1.758c-.522-.463-1.157-.81-1.904-1.04-.747-.23-1.58-.344-2.498-.344-.927 0-1.79.127-2.585.381a8.233 8.233 0 0 0-3.926 2.673 9.919 9.919 0 0 0-1.274 2.036c-.347.738-.61 1.514-.791 2.33a11.42 11.42 0 0 0-.271 2.483c0 .957.141 1.79.425 2.497a4.582 4.582 0 0 0 1.208 1.758c.522.464 1.155.81 1.897 1.04.742.23 1.577.344 2.505.344zm.483-3.09c-.888 0-1.572-.245-2.05-.733-.479-.488-.718-1.216-.718-2.183 0-.43.041-.886.124-1.37a9.09 9.09 0 0 1 .374-1.442c.166-.479.376-.938.63-1.377a5.18 5.18 0 0 1 .9-1.157 4.298 4.298 0 0 1 1.165-.799c.43-.2.908-.3 1.436-.3.888 0 1.57.242 2.043.725.474.483.71 1.209.71 2.175 0 .43-.041.889-.124 1.377a9.041 9.041 0 0 1-.374 1.45 7.732 7.732 0 0 1-.63 1.37c-.253.435-.551.82-.893 1.157a4.11 4.11 0 0 1-1.157.806c-.43.2-.908.3-1.436.3zm14.114 3.275c.645 0 1.243-.095 1.795-.286a6.956 6.956 0 0 0 1.508-.725 6.604 6.604 0 0 0 1.194-.974c.342-.357.625-.706.85-1.047l-.117 2.695h2.915c.097-1.065.185-1.968.263-2.71.078-.742.15-1.375.213-1.897a32.523 32.523 0 0 1 .359-2.322L181.498 13h-3.56l-1.26 6.357a7.865 7.865 0 0 1-.71 2.037 10.37 10.37 0 0 1-1.209 1.89 7.43 7.43 0 0 1-1.45 1.39c-.508.362-.986.543-1.435.543-.498 0-.845-.217-1.04-.652-.196-.435-.22-1.057-.074-1.868L172.71 13h-3.56l-1.963 9.639c-.176.85-.227 1.618-.154 2.307.074.688.269 1.274.586 1.758.318.483.752.857 1.304 1.12.552.264 1.223.396 2.014.396zm17.473-.185c.645 0 1.243-.095 1.795-.285a6.956 6.956 0 0 0 1.508-.726 6.604 6.604 0 0 0 1.194-.974c.342-.356.625-.705.85-1.047l-.117 2.695h2.915c.097-1.064.185-1.968.263-2.71.079-.742.15-1.374.213-1.897a32.523 32.523 0 0 1 .359-2.321L200.143 7h-3.56l-1.172 5.786a20.95 20.95 0 0 0-1.099-.161c-.4-.049-.864-.073-1.391-.073-1.406 0-2.664.256-3.772.769a7.945 7.945 0 0 0-2.805 2.138c-.762.914-1.343 2.002-1.743 3.267-.4 1.265-.601 2.644-.601 4.138 0 1.65.374 2.925 1.12 3.823.748.899 1.844 1.348 3.29 1.348zm.938-3.003c-.547 0-.955-.205-1.223-.615-.269-.41-.403-1.006-.403-1.787 0-.4.029-.862.088-1.384.058-.523.16-1.053.307-1.59a9.27 9.27 0 0 1 .593-1.582 5.47 5.47 0 0 1 .945-1.384 4.49 4.49 0 0 1 1.355-.982c.523-.249 1.13-.373 1.824-.373.42 0 .806.037 1.157.11.352.073.635.149.85.227l-.689 3.5a7.864 7.864 0 0 1-.71 2.037 10.37 10.37 0 0 1-1.209 1.89 7.43 7.43 0 0 1-1.45 1.391c-.508.362-.986.542-1.435.542z" fill="#181d38" fill-rule="nonzero"/>
    <path d="M8.798.152a1 1 0 0 1 1.378.319l17.24 27.648-23.662.132a3 3 0 0 1-2.876-3.907L8.374.698a1 1 0 0 1 .424-.546zm33.725.667a1 1 0 0 1 1.605 1.05l-7.225 24.048a3 3 0 0 1-2.873 2.137h-5.812l-5.246-8.4a2 2 0 0 1 .402-2.584z" fill="#0044e9"/>
    </g>
</svg>