<svg xmlns="http://www.w3.org/2000/svg" width="120" height="35" viewBox="0 0 120 35">
  <g fill="none" fill-rule="evenodd">
    <path fill="#FFF" d="M53.7410359,10.9123506 L51.0318725,10.9123506 L51.0318725,12.187251 C51.0318725,13.1035857 50.5338645,13.8007968 49.498008,13.8007968 L49,13.8007968 L49,16.4501992 L50.752988,16.4501992 L50.752988,20.6932271 C50.752988,22.6653386 52.0079681,23.8804781 54.059761,23.8804781 C55.0159363,23.8804781 55.5139442,23.6613546 55.6334661,23.6015936 L55.6334661,21.0916335 C55.4541833,21.1314741 55.1553785,21.1912351 54.8366534,21.1912351 C54.1792829,21.1912351 53.7410359,20.9721116 53.7410359,20.1553785 L53.7410359,16.4501992 L55.6733068,16.4501992 L55.6733068,13.8007968 L53.7410359,13.8007968 L53.7410359,10.9123506 Z M60.0159363,17.5657371 L63.9800797,17.5657371 C63.940239,16.8087649 63.4223108,15.8924303 61.9880478,15.8924303 C60.7131474,15.8924303 60.0756972,16.8286853 60.0159363,17.5657371 Z M64.1992032,20.1354582 L66.7290837,20.8525896 C66.250996,22.5657371 64.6772908,24 62.1673307,24 C59.438247,24 57.0079681,22.0478088 57.0079681,18.7211155 C57.0079681,15.5338645 59.3784861,13.501992 61.9482072,13.501992 C65.0159363,13.501992 66.9083665,15.3944223 66.9083665,18.5816733 C66.9083665,19 66.8685259,19.4581673 66.8486056,19.5179283 L59.9561753,19.5179283 C60.0159363,20.6334661 61.0318725,21.4302789 62.2071713,21.4302789 C63.3027888,21.4302789 63.9203187,20.9123506 64.1992032,20.1354582 Z M75.1553785,13.8007968 C74.9561753,13.7410359 74.6573705,13.7011952 74.3585657,13.7011952 C73.561753,13.7011952 72.3067729,14.0199203 71.7888446,15.1354582 L71.7888446,13.8007968 L68.8605578,13.8007968 L68.8605578,23.7011952 L71.8884462,23.7011952 L71.8884462,19.3784861 C71.8884462,17.4063745 72.9840637,16.689243 74.1992032,16.689243 C74.498008,16.689243 74.8167331,16.7091633 75.1553785,16.7888446 L75.1553785,13.8007968 Z M79.9163347,23.7011952 L79.9163347,18.0039841 C79.9163347,17.1075697 80.4940239,16.2908367 81.5498008,16.2908367 C82.6454183,16.2908367 83.1434263,17.0278884 83.1434263,17.9641434 L83.1434263,23.7011952 L86.1314741,23.7011952 L86.1314741,17.9840637 C86.1314741,17.1075697 86.7091633,16.2908367 87.7848606,16.2908367 C88.8605578,16.2908367 89.3585657,17.0278884 89.3585657,17.9641434 L89.3585657,23.7011952 L92.2868526,23.7011952 L92.2868526,17.2868526 C92.2868526,14.5976096 90.4940239,13.501992 88.6215139,13.501992 C87.2868526,13.501992 86.3306773,13.940239 85.5537849,15.0557769 C85.0557769,14.0796813 84.0398406,13.501992 82.625498,13.501992 C81.5498008,13.501992 80.2749004,14.059761 79.7768924,14.936255 L79.7768924,13.8007968 L76.8884462,13.8007968 L76.8884462,23.7011952 L79.9163347,23.7011952 Z M97.8645418,23.7011952 L97.8645418,13.8007968 L94.8366534,13.8007968 L94.8366534,23.7011952 L97.8645418,23.7011952 Z M94.5776892,10.7729084 C94.5776892,11.749004 95.374502,12.5458167 96.3306773,12.5458167 C97.3266932,12.5458167 98.123506,11.749004 98.123506,10.7729084 C98.123506,9.79681275 97.3266932,9 96.3306773,9 C95.374502,9 94.5776892,9.79681275 94.5776892,10.7729084 Z M106.908367,23.7011952 L109.816733,23.7011952 C109.796813,23.5418327 109.717131,22.8247012 109.717131,21.9282869 L109.717131,13.8007968 L106.689243,13.8007968 L106.689243,19.438247 C106.689243,20.4342629 106.051793,21.1314741 105.035857,21.1314741 C103.960159,21.1314741 103.442231,20.374502 103.442231,19.4183267 L103.442231,13.8007968 L100.414343,13.8007968 L100.414343,20.0557769 C100.414343,22.1673307 101.768924,23.9203187 104.179283,23.9203187 C105.175299,23.9203187 106.310757,23.561753 106.828685,22.7051793 C106.828685,22.9641434 106.868526,23.5219124 106.908367,23.7011952 Z M111.569721,20.8924303 C111.649402,21.9880478 112.645418,24 115.752988,24 C118.40239,24 119.697211,22.3466135 119.697211,20.6533865 C119.697211,19.1992032 118.701195,17.9641434 116.649402,17.5458167 L115.334661,17.2868526 C114.896414,17.2071713 114.557769,16.9681275 114.557769,16.5498008 C114.557769,16.0318725 115.055777,15.6932271 115.633466,15.6932271 C116.549801,15.6932271 116.968127,16.250996 117.047809,16.9083665 L119.557769,16.4501992 C119.458167,15.2948207 118.462151,13.501992 115.593625,13.501992 C113.38247,13.501992 111.788845,14.9760956 111.788845,16.7888446 C111.788845,18.1832669 112.625498,19.3784861 114.737052,19.8366534 L115.87251,20.0956175 C116.609562,20.2549801 116.848606,20.5537849 116.848606,20.9123506 C116.848606,21.3505976 116.47012,21.7689243 115.693227,21.7689243 C114.657371,21.7689243 114.179283,21.1115538 114.139442,20.4342629 L111.569721,20.8924303 Z"/>
    <path fill="#5A5E73" fill-rule="nonzero" d="M30.3906886,30.0944528 C30.248675,30.0944528 30.1062467,30.091552 29.9637103,30.0857715 C27.9512568,33.140977 24.5397399,35 20.839876,35 L20.839876,32.2135598 C23.8290505,32.2135598 26.5619152,30.5879169 27.9926285,27.9598388 L28.4482791,27.1228538 L29.3935116,27.2440854 C29.7243717,27.2865201 30.05977,27.3080126 30.3906886,27.3080126 C34.6753016,27.3080126 38.1633158,23.8199647 38.1633158,19.5353854 C38.1633158,17.2376263 37.0973279,14.9869533 35.3152924,13.5225438 L34.7657559,13.0709554 L34.8092224,12.3610025 C34.8182377,12.2137513 34.8227978,12.0639205 34.8227978,11.915563 C34.8227978,7.80385063 31.4752918,4.45637818 27.3634846,4.45637818 C25.8823949,4.45637818 24.455692,4.8887502 23.2249717,5.71020508 L22.1876447,6.40257797 L21.385087,5.44794258 C19.9602274,3.75308442 17.8863235,2.78644018 15.6732766,2.78644018 C11.5615307,2.78644018 8.2142202,6.13385126 8.2142202,10.245625 C8.2142202,10.3604532 8.21693685,10.4766172 8.22232359,10.5915702 L8.26667234,11.5379725 L7.40282259,11.927084 C4.5945697,13.1920304 2.78644018,15.9869869 2.78644018,19.0656712 C2.78644018,23.3791083 6.29779076,26.8905602 10.6110724,26.8905602 C11.0696226,26.8905602 11.5292512,26.8505412 11.9778049,26.7715705 L13.024007,26.5873799 L13.4785876,27.5474953 C14.8221206,30.385159 17.7058062,32.2135598 20.839876,32.2135598 L20.839876,35 C16.9715884,35 13.3969595,32.9336052 11.4419,29.6446954 C11.1655827,29.6661997 10.8882239,29.6770004 10.6110724,29.6770004 C4.75886435,29.6770004 0,24.9179988 0,19.0656712 C0,15.1988316 2.10242278,11.6633181 5.43734594,9.79981061 C5.67142804,4.35525451 10.171968,0 15.6732766,0 C18.3104446,0 20.8105916,1.0038097 22.7026778,2.79087177 C24.140645,2.05463483 25.7305168,1.669938 27.3634846,1.669938 C32.9860887,1.669938 37.5635026,6.21934079 37.6088974,11.8313271 C39.7159973,13.8155037 40.949756,16.6359904 40.949756,19.5353854 C40.949756,25.3588671 36.2142161,30.0944528 30.3906886,30.0944528 Z M26.1327206,21.0663011 C25.1864757,21.4282663 24.2548223,21.6115851 23.3586638,21.6115851 C22.4594501,21.6115851 21.5723786,21.4272253 20.724623,21.0646816 C20.6904298,21.0504511 20.6904298,21.0504511 20.6562917,21.0359241 C20.3438762,20.9014692 20.2100827,20.7395738 20.2100827,20.3843636 L20.2100827,19.9100268 C20.2100827,19.4929018 20.4504004,19.2244277 20.8420076,19.2244277 L20.929787,19.2363209 L20.953155,19.2454319 C21.7285766,19.5512461 22.5373157,19.7062122 23.3572513,19.7062122 C24.1804875,19.7062122 25.0424345,19.5501095 25.9188973,19.2417318 L25.9976923,19.2244277 L26.01965,19.2244277 C26.4113595,19.2244277 26.6517032,19.4928757 26.6517032,19.9100268 L26.6517032,20.3843636 C26.6517032,20.761896 26.5221434,20.8987848 26.1601197,21.0545563 L26.1327206,21.0663011 Z M14.5152784,16.5184662 L17.0765657,15.8461078 L14.5092296,15.1722231 C14.2430052,15.1025309 14.0509713,14.8924346 14.0509713,14.5247881 L14.0509713,13.7173625 C14.0509713,13.3644929 14.2628285,13.212561 14.5051803,13.212561 C14.5835157,13.212561 14.664738,13.2295786 14.7458743,13.2601803 L19.3171036,14.7390164 C19.6643577,14.8547677 19.8554344,15.1336152 19.8554344,15.5157079 L19.8554344,16.1763639 C19.8554344,16.5583485 19.6645784,16.8373589 19.3167913,16.9532807 L14.7359441,18.4351418 C14.6585384,18.4580009 14.5895617,18.4692382 14.5223869,18.4692382 C14.235394,18.4692382 14.0509713,18.2628935 14.0509713,17.9625105 L14.0509713,17.1672836 C14.0509713,16.7849728 14.2492883,16.5742931 14.5152784,16.5184662 Z"/>
  </g>
</svg>
