<svg xmlns="http://www.w3.org/2000/svg" viewBox="0 0 240 60"><defs><style>.cls-1{fill:#424242;}.cls-2{fill:#ff6d00;}</style></defs><g id="Layer_2" data-name="Layer 2"><g id="MODULE_3"><g id="graphic"><path class="cls-1" d="M167.08,12.35a7.09,7.09,0,0,1,3.52-.9,8.25,8.25,0,0,1,3.06.6,8.47,8.47,0,0,1,2.68,1.69l2.2-2.83a11.23,11.23,0,0,0-3.65-2.12A12.3,12.3,0,0,0,170.6,8a11.4,11.4,0,0,0-5.55,1.36,10.25,10.25,0,0,0-4,3.69,9.6,9.6,0,0,0-1.45,5.19,10,10,0,0,0,1.42,5.23,10.27,10.27,0,0,0,3.87,3.73,10.85,10.85,0,0,0,5.43,1.37,13.25,13.25,0,0,0,4.26-.73A13.46,13.46,0,0,0,178.4,26V18.35H175v5.52a10,10,0,0,1-2.19.93,7.87,7.87,0,0,1-2.19.33,7,7,0,0,1-6.07-3.4,6.79,6.79,0,0,1,2.52-9.38Z"/><path class="cls-1" d="M237.06,14.44a5.59,5.59,0,0,0-4.21-1.59c-2.66,0-4.53,1.06-5.59,3.07V7.07h-3.77V28.31h3.77V20.78a4.56,4.56,0,0,1,1.1-3.15,3.91,3.91,0,0,1,3-1.26,3.21,3.21,0,0,1,3.45,3.47v8.47h3.79V18.75A6,6,0,0,0,237.06,14.44Z"/><path class="cls-1" d="M217.56,14a8.94,8.94,0,0,0-4.25-1A9,9,0,0,0,209,14a7.11,7.11,0,0,0-2.89,2.73,7.92,7.92,0,0,0-1,4s0,0,0,.06h0V33.71h3.8V27.58l.12.07a9,9,0,0,0,4.28,1,8.94,8.94,0,0,0,4.25-1,7,7,0,0,0,2.87-2.75,8,8,0,0,0,1-4.09,7.92,7.92,0,0,0-1-4A7.12,7.12,0,0,0,217.56,14Zm-1.12,10.19a4.13,4.13,0,0,1-3.13,1.28,4.2,4.2,0,0,1-3.18-1.28,4.7,4.7,0,0,1-1.22-3.35h0a4.68,4.68,0,0,1,1.22-3.35,4.17,4.17,0,0,1,3.18-1.29,4.1,4.1,0,0,1,3.13,1.29,4.64,4.64,0,0,1,1.22,3.35A4.65,4.65,0,0,1,216.44,24.22Z"/><path class="cls-1" d="M189.86,12.85A8.73,8.73,0,0,0,181,21.49v6.82h3.76V21.49a5.11,5.11,0,0,1,5.09-5.07Z"/><path class="cls-1" d="M201.4,14.28a7,7,0,0,0-4.68-1.43h-4.1v3h3.26a4,4,0,0,1,2.61.74,2.59,2.59,0,0,1,.89,2.09v.4h-4.52a7,7,0,0,0-4.34,1.25,3.82,3.82,0,0,0-1.32,1.88,4.64,4.64,0,0,0-.22,1.48,4.87,4.87,0,0,0,0,.66c0,.1,0,.21,0,.31a6.09,6.09,0,0,0,.17.61,3.92,3.92,0,0,0,.41.85A4.39,4.39,0,0,0,191,27.53l.29.17a2.11,2.11,0,0,0,.3.16,2.87,2.87,0,0,0,.4.18,6.52,6.52,0,0,0,2.45.44h3.27a6.18,6.18,0,0,0,2.86-.62,4.46,4.46,0,0,0,2.56-4.13V18.29A5.09,5.09,0,0,0,201.4,14.28Zm-2,8.5v.72a1.85,1.85,0,0,1-.74,1.55,3.2,3.2,0,0,1-2,.57H195.3a4.79,4.79,0,0,1-.88-.08,2.82,2.82,0,0,1-1.14-.49,1.94,1.94,0,0,1-.32-.32,1.09,1.09,0,0,1-.13-.17,1.93,1.93,0,0,1-.29-1.06,2.34,2.34,0,0,1,.05-.47,1.62,1.62,0,0,1,.35-.72l.15-.14.16-.11a2.23,2.23,0,0,1,.41-.2l.24-.08a6.27,6.27,0,0,1,1.57-.17h3.91Z"/><polygon class="cls-2" points="88.75 11.81 95.07 11.81 95.07 28.44 98.98 28.44 98.98 11.81 105.3 11.81 105.3 8.41 88.75 8.41 88.75 11.81"/><rect class="cls-2" x="107.48" y="14.47" width="3.77" height="13.84"/><path class="cls-2" d="M149,21.49v6.82h3.76V21.49a5.11,5.11,0,0,1,5.09-5.07V12.85A8.73,8.73,0,0,0,149,21.49Z"/><path class="cls-2" d="M121.45,12.77a7.68,7.68,0,0,0-7.85,7.48,7.67,7.67,0,0,0,7.85,7.47,8.13,8.13,0,0,0,4.08-1.09v.3a3.63,3.63,0,0,1-1.23,2.9A5,5,0,0,1,121,30.88a8,8,0,0,1-4.84-1.6L114.63,32a11.46,11.46,0,0,0,6.55,2,9.91,9.91,0,0,0,4.28-.87,6.58,6.58,0,0,0,2.84-2.49,7.12,7.12,0,0,0,1-3.79v-6.6A7.69,7.69,0,0,0,121.45,12.77Zm0,11.89a4.45,4.45,0,1,1,4.39-4.45A4.52,4.52,0,0,1,121.45,24.66Z"/><path class="cls-2" d="M109.37,8.41a2.12,2.12,0,1,0,2.14,2.11A2.13,2.13,0,0,0,109.37,8.41Z"/><path class="cls-2" d="M139.3,12.88a8.34,8.34,0,0,0-4.09,1,7.08,7.08,0,0,0-2.8,2.76,8.2,8.2,0,0,0-1,4.07,8.15,8.15,0,0,0,1,4.05,6.88,6.88,0,0,0,2.8,2.73,8.66,8.66,0,0,0,4.18,1,9.57,9.57,0,0,0,3.7-.69,7.69,7.69,0,0,0,2.82-1.94l-2-2.09A5.66,5.66,0,0,1,142,25a5.94,5.94,0,0,1-2.28.45,4.48,4.48,0,0,1-2.88-.93A4.44,4.44,0,0,1,135.27,22h11.45c0-.24,0-.62,0-1.11A8.53,8.53,0,0,0,144.88,15,7.12,7.12,0,0,0,139.3,12.88Zm-4,6.18a4.16,4.16,0,0,1,1.3-2.3,4,4,0,0,1,2.77-1,4,4,0,0,1,2.84,1,3.63,3.63,0,0,1,1.1,2.29Z"/><path class="cls-1" d="M104,53.57a9.56,9.56,0,0,1-6.87-2.64,8.89,8.89,0,0,1-2.74-6.67,9,9,0,0,1,2.79-6.72,9.76,9.76,0,0,1,7-2.69,9.29,9.29,0,0,1,7,3l.39.41-2.41,2.6-.45-.41a7.3,7.3,0,0,0-2.1-1.45,6.36,6.36,0,0,0-2.46-.44A5.86,5.86,0,0,0,100,40.11a5.31,5.31,0,0,0-1.68,4A5.56,5.56,0,0,0,100,48.27a5.46,5.46,0,0,0,4,1.66,6,6,0,0,0,2.47-.47A8.46,8.46,0,0,0,108.48,48l.43-.38,2.44,2.47-.39.42A9.22,9.22,0,0,1,104,53.57Z"/><polygon class="cls-1" points="131.58 53.37 131.58 35.27 135.35 35.27 135.35 49.8 143.34 49.8 143.34 53.37 131.58 53.37"/><path class="cls-1" d="M168.21,53.55a9.53,9.53,0,0,1-6.85-2.68,9.42,9.42,0,0,1,0-13.34,10.09,10.09,0,0,1,13.7,0,9.39,9.39,0,0,1,0,13.34A9.52,9.52,0,0,1,168.21,53.55Zm0-15.23A5.58,5.58,0,0,0,164.1,40a6,6,0,0,0,0,8.34,5.79,5.79,0,0,0,8.22,0,6,6,0,0,0,0-8.34A5.56,5.56,0,0,0,168.21,38.32Z"/><path class="cls-1" d="M201.09,53.43a7.75,7.75,0,0,1-5.62-2.13,8,8,0,0,1-2.2-6V35.16H197v10a5.14,5.14,0,0,0,1.11,3.5,4.11,4.11,0,0,0,5.9,0,5.14,5.14,0,0,0,1.11-3.5v-10h3.76v10.1a8,8,0,0,1-2.2,6A7.75,7.75,0,0,1,201.09,53.43Z"/><path class="cls-1" d="M223.41,53.37V35.28h6.41c3.23,0,5.76.79,7.52,2.36a8.46,8.46,0,0,1,2.66,6.6,8.84,8.84,0,0,1-2.58,6.67c-1.7,1.63-4.33,2.46-7.8,2.46Zm6.64-3.54a6.78,6.78,0,0,0,4.61-1.4,5.24,5.24,0,0,0,1.55-4.12c0-3.73-2.12-5.54-6.49-5.54h-2.55V49.83Z"/><path class="cls-2" d="M33.55,26.5s-1.27,3.06-1.31,3.14,0,.27.18.11,6.09-5.48,6.09-5.48l-2.81.31C34.32,24.69,33.92,25.47,33.55,26.5Z"/><path class="cls-2" d="M66.17,23.2H65.8A19.44,19.44,0,0,0,46.51,0a19.63,19.63,0,0,0-19,14.53,13.76,13.76,0,0,0-2.15-.18A12.8,12.8,0,0,0,12.46,27.06a11.69,11.69,0,0,0,.12,1.69A15.79,15.79,0,0,0,16,60H42.46c4.79-7.29,10.37-20.06,2.37-29,0,0-.18-.25-.32-.17a.18.18,0,0,0-.06.24c.9,1.86,3.52,7,1.44,11.55a8.79,8.79,0,0,0-6.73-3.4c-3.93-.14-7.76,3.06-8.94,5.7a7.49,7.49,0,0,1-4.91-7.35l-4-5.37s7.92-8.74,8-8.75a16,16,0,0,1,6.45-4,18.05,18.05,0,0,1,4.58-.61,14.11,14.11,0,0,1,6.48-2.16l4.39,0-1.44,4.83c5.94,4.58,9.6,10.22,7.43,19.3,0,0-.06.3.09.32s.3-.19.3-.19c1.58-2.28,4.65-7.67,2.26-14a.26.26,0,0,1,.16-.31c.21-.06.46.17.46.17,10.11,7.75.92,20.13-3.16,24.56,0,0-.17.22,0,.29a.35.35,0,0,0,.33-.05C67,45.5,69.33,39.06,69,35c0,0,0-.25.11-.26s.26.16.26.16C76.66,47.79,66,54.77,54.7,59.43L53.32,60H67.75v-.07A18.39,18.39,0,0,0,66.17,23.2Z"/></g></g></g></svg>