<?xml version="1.0" encoding="utf-8"?>
<!-- Generator: Adobe Illustrator 23.1.1, SVG Export Plug-In . SVG Version: 6.00 Build 0)  -->
<svg version="1.1" id="Capa_1" xmlns="http://www.w3.org/2000/svg" xmlns:xlink="http://www.w3.org/1999/xlink" x="0px" y="0px"
	 viewBox="0 0 688.47 129.83" style="enable-background:new 0 0 688.47 129.83;" xml:space="preserve">
<style type="text/css">
	.st0{fill:#FF6B00;}
</style>
<g>
	<g>
		<path d="M669.67,73.47v41.04c-4.88,4.17-9.4,7.23-16.26,7.23c-8.32,0-19.16-7.05-19.16-27.48
			C634.24,72.2,651.41,56.31,669.67,73.47z M648.16,129.33c8.85,0,16.08-3.06,22.59-8.13l0.36,0.18v6.51h17.35V23.93h-18.8v41.41
			c-5.24-3.98-13.2-6.52-21.33-6.52c-10.31,0-34.89,6.33-34.89,36.16C613.44,117.23,632.97,129.33,648.16,129.33z"/>
		<path d="M603.19,128.16V90.74c0-25.32-19.34-31.65-30.72-31.65c-8.14,0-15.01,3.08-21.88,7.78l-0.36-0.17v-6.52h-17.35v67.97h18.8
			V73.39c5.6-4.9,11.03-6.88,15.72-6.88c9.94,0,16.81,9.58,16.81,20.06v41.58H603.19z"/>
		<path d="M449.98,60.16v37.42c0,25.31,19.34,31.64,30.73,31.64c8.14,0,15-3.07,21.88-7.77l0.36,0.17v6.51h17.35V60.16h-18.8v54.77
			c-5.6,4.89-11.03,6.87-15.72,6.87c-9.94,0-16.81-9.57-16.81-20.06V60.16H449.98z"/>
		<g>
			<path d="M449.98,45.13h-40.54v28.2h31.96v8.16h-31.96v46.67h-18.57V36.97h59.1V45.13z"/>
		</g>
		<path class="st0" d="M231.17,17.27c53.51,0,102.34,11.56,139.62,30.59C338.51,18.76,288,0,231.17,0
			c-56.82,0-107.32,18.76-139.6,47.86C128.84,28.83,177.67,17.27,231.17,17.27z"/>
	</g>
	<path d="M110.35,60H91.57v67.92h18.78V60z M122.04,78.61c-1.8,25.83,36.13,19.69,35.04,35.4c-0.55,6.32-5.96,8.49-11.74,8.31
		c-9.39-0.73-15.17-6.14-20.23-12.1l-5.6,12.46c7.58,4.34,15.89,6.51,23.11,7.05c16.26,1.08,29.99-5.97,30.89-21.67
		c1.62-24.38-37.57-21.31-36.84-33.78c0.36-5.42,6.5-8.13,12.82-7.77c6.51,0.54,11.56,4.15,17.16,9.21l5.06-11.2
		c-7.04-3.07-13.73-4.52-19.69-5.06C134.51,58.38,122.77,67.59,122.04,78.61 M40.27,127.91h7.95L87.96,36.7h-10.3l-27.63,64.12
		L22.75,36.7H0L40.27,127.91z M372.89,127.91V90.53c0-25.29-19.32-31.61-30.7-31.61c-8.13,0-15,3.07-21.86,7.76l-0.37-0.18V60
		h-17.33v67.91h18.78V73.19c5.6-4.88,11.02-6.87,15.72-6.87c9.93,0,16.8,9.58,16.8,20.05v41.54H372.89z M216.78,93.96
		c0,18.96,14.08,34.68,36.85,34.68c22.75,0,36.84-15.71,36.84-34.68c0-18.97-14.09-34.68-36.84-34.68
		C230.86,59.28,216.78,75,216.78,93.96 M270.6,93.96c0,15.71-5.24,28.17-16.98,28.17c-11.74,0-16.98-12.46-16.98-28.17
		c0-15.72,5.24-28.18,16.98-28.18C265.36,65.78,270.6,78.25,270.6,93.96"/>
	<rect x="185.69" y="60" width="18.78" height="67.92"/>
	<path d="M195.69,29.3c-5.6,0-9.94,4.34-9.94,9.93c0,5.59,4.33,9.93,9.94,9.93c5.6,0,9.93-4.34,9.93-9.93
		C205.62,33.64,201.29,29.3,195.69,29.3"/>
</g>
</svg>
