<svg width="224" height="50" viewBox="0 0 224 50" fill="none" xmlns="http://www.w3.org/2000/svg">
<g clip-path="url(#clip0_18_295)">
<path d="M68.7711 18.2686L51.3009 0.783895C50.9009 0.425572 50.4178 0.172844 49.8953 0.0486631C49.3729 -0.075518 48.8277 -0.0672184 48.3092 0.0728082C47.7908 0.212835 47.3155 0.480152 46.9266 0.850484C46.5378 1.22082 46.2475 1.68243 46.0823 2.1934C45.9647 2.51488 45.9101 2.85598 45.9214 3.19811C45.9224 4.03271 46.2457 4.83467 46.8237 5.43674L61.8162 20.4292C61.8162 20.4292 64.0987 22.7118 61.8162 24.9943L45.8434 40.9622L41.2783 36.4021L51.9545 25.7259C52.3839 25.3166 52.7209 24.8203 52.9429 24.2702C53.165 23.7201 53.267 23.1289 53.2421 22.5362C53.1985 21.4614 52.7364 20.4462 51.9545 19.7074L38.9958 6.73407C36.7132 4.45155 34.4307 6.73407 34.4307 6.73407L21.2623 19.9025C20.5833 20.6232 20.1898 21.5662 20.1552 22.5557C20.1373 23.1306 20.2386 23.7029 20.4527 24.2367C20.6667 24.7705 20.9888 25.2543 21.3988 25.6576L32.1287 36.3874L27.5636 40.9525L11.6103 24.9894C9.32777 22.7069 11.6103 20.4244 11.6103 20.4244L26.6028 5.43186C27.1804 4.82952 27.5035 4.02773 27.5051 3.19323C27.5166 2.85109 27.462 2.50994 27.3441 2.18853C27.1779 1.67697 26.8863 1.21512 26.496 0.845077C26.1056 0.47503 25.6288 0.208541 25.1091 0.0698867C24.5894 -0.0687677 24.0433 -0.07518 23.5204 0.051234C22.9976 0.177648 22.5147 0.43287 22.1158 0.793649L4.59201 18.3174C4.00808 18.9423 3.55462 19.6774 3.25817 20.4797C2.96172 21.282 2.82822 22.1353 2.86548 22.9898C2.96271 24.5358 3.58569 26.002 4.63103 27.1451L25.3006 47.8098C25.3006 47.8098 27.5831 50.0924 29.8657 47.8098L36.6937 40.9818L43.5218 47.8098C43.5218 47.8098 45.8043 50.0924 48.0869 47.8098L50.3694 45.5273L68.7467 27.15C69.7917 26.0067 70.4146 24.5405 70.5122 22.9947C70.5551 22.1303 70.423 21.2661 70.1238 20.454C69.8246 19.6419 69.3645 18.8986 68.7711 18.2686V18.2686ZM29.8657 24.9894C29.8657 24.9894 27.5831 22.7069 29.8657 20.4244L34.4307 15.8593C34.4307 15.8593 36.7132 13.5768 38.9958 15.8593L43.5608 20.4244C43.5608 20.4244 45.8433 22.7069 43.5608 24.9894L36.7327 31.8175L29.8657 24.9894Z" fill="#129A92"/>
<path d="M79.5254 40.9399H80.8276L81.9835 44.9782C82.2469 45.8658 82.4176 46.6315 82.6907 47.5338H82.7443C83.0077 46.6315 83.2028 45.8707 83.4564 44.9782L84.6123 40.9399H85.8609L83.4223 48.7434H81.9591L79.5254 40.9399ZM90.2894 46.495H87.5776L86.9095 48.7434H85.6609L88.2458 40.9399H89.6797L92.2646 48.7434H90.9478L90.2894 46.495ZM89.9919 45.5195L89.6797 44.4856C89.4163 43.6369 89.192 42.7688 88.9384 41.8909H88.8945C88.6701 42.7786 88.4068 43.6369 88.1727 44.4856L87.8556 45.5342L89.9919 45.5195ZM93.2742 40.9399H94.5569L97.1418 45.5147L97.9563 47.168H97.9709C97.9075 46.3633 97.81 45.4171 97.81 44.5734V40.9399H98.9757V48.7434H97.7125L95.1275 44.1442L94.3131 42.5152H94.2594C94.3228 43.3199 94.4204 44.2222 94.4204 45.0708V48.7434H93.2547L93.2742 40.9399ZM102.638 41.9543H100.351V40.9399H106.165V41.9689H103.867V48.7434H102.638V41.9543ZM110.652 46.495H107.92L107.238 48.7434H105.989L108.574 40.9399H109.993L112.578 48.7434H111.276L110.652 46.495ZM110.354 45.5195L110.047 44.4709C109.784 43.6223 109.559 42.7542 109.306 41.8763H109.262C109.037 42.7639 108.774 43.6223 108.54 44.4709L108.213 45.5342L110.354 45.5195ZM113.09 44.8416C113.09 42.3006 114.656 40.774 116.724 40.774C117.157 40.7656 117.588 40.848 117.988 41.016C118.388 41.184 118.748 41.4338 119.045 41.7495L118.377 42.5347C118.175 42.3099 117.926 42.1313 117.648 42.011C117.371 41.8906 117.07 41.8314 116.768 41.8373C115.305 41.8373 114.329 42.959 114.329 44.7928C114.329 46.6267 115.197 47.7679 116.807 47.7679C117.248 47.7837 117.681 47.6496 118.036 47.3875V45.5781H116.504V44.5685H119.162V47.9484C118.49 48.5616 117.604 48.8887 116.695 48.8604C114.592 48.8604 113.09 47.3973 113.09 44.8416V44.8416ZM120.923 40.9399H125.532V41.9689H122.152V44.1393H125.015V45.1781H122.152V47.6996H125.649V48.7434H120.923V40.9399ZM129.239 44.7928C129.239 42.2811 130.624 40.7789 132.653 40.7789C134.682 40.7789 136.067 42.2811 136.067 44.7928C136.067 47.3046 134.667 48.8604 132.653 48.8604C130.638 48.8604 129.239 47.2802 129.239 44.7928V44.7928ZM134.769 44.7928C134.769 42.959 133.921 41.8665 132.628 41.8665C131.336 41.8665 130.497 42.9785 130.497 44.7928C130.497 46.6072 131.336 47.7679 132.628 47.7679C133.921 47.7679 134.769 46.6267 134.769 44.7928ZM137.647 40.9399H142.266V41.9689H138.852V44.3539H141.734V45.383H138.852V48.7434H137.623L137.647 40.9399ZM145.602 44.8416C145.602 42.3006 147.148 40.774 149.118 40.774C149.535 40.7742 149.947 40.8611 150.328 41.029C150.709 41.1969 151.051 41.4423 151.332 41.7495L150.645 42.5445C150.453 42.3284 150.218 42.1548 149.955 42.0347C149.692 41.9146 149.407 41.8507 149.118 41.847C147.772 41.847 146.84 42.9688 146.84 44.8026C146.84 46.6364 147.718 47.7679 149.108 47.7679C149.439 47.7646 149.765 47.6892 150.063 47.5468C150.361 47.4044 150.625 47.1986 150.835 46.9437L151.493 47.7192C151.198 48.0782 150.825 48.3656 150.403 48.5599C149.98 48.7542 149.52 48.8503 149.055 48.8409C147.104 48.8604 145.602 47.3973 145.602 44.8416V44.8416ZM152.069 44.7928C152.069 42.2811 153.454 40.7789 155.483 40.7789C157.512 40.7789 158.897 42.2811 158.897 44.7928C158.897 47.3046 157.497 48.8604 155.483 48.8604C153.469 48.8604 152.069 47.2802 152.069 44.7928ZM157.6 44.7928C157.6 42.959 156.756 41.8665 155.463 41.8665C154.171 41.8665 153.332 42.9785 153.332 44.7928C153.332 46.6072 154.171 47.7679 155.463 47.7679C156.756 47.7679 157.6 46.6267 157.6 44.7928ZM160.482 40.9399H161.74L164.325 45.5147L165.14 47.168H165.193C165.13 46.3633 165.032 45.4171 165.032 44.5734V40.9399H166.198V48.7434H164.935L162.35 44.1247L161.535 42.4957H161.482C161.545 43.3004 161.643 44.2027 161.643 45.0513V48.7434H160.477L160.482 40.9399ZM167.227 40.9399H168.529L169.666 44.9635C169.929 45.8512 170.1 46.6169 170.373 47.5192H170.427C170.69 46.6169 170.885 45.8561 171.139 44.9635L172.29 40.9399H173.538L171.1 48.7434H169.636L167.227 40.9399ZM174.543 40.9399H179.152V41.9689H175.772V44.1393H178.635V45.1781H175.772V47.6996H179.269V48.7434H174.543V40.9399ZM185.156 48.7434L183.385 45.5976H182.122V48.7434H180.883V40.9399H183.434C185.044 40.9399 186.253 41.5105 186.253 43.198C186.283 43.7023 186.137 44.2013 185.838 44.6091C185.54 45.0168 185.109 45.3078 184.619 45.4318L186.526 48.7385L185.156 48.7434ZM182.127 44.6124H183.322C184.453 44.6124 185.068 44.1247 185.068 43.2029C185.068 42.2811 184.439 41.9153 183.322 41.9153H182.146L182.127 44.6124ZM187.409 44.8416C187.409 42.3006 188.975 40.774 191.043 40.774C191.476 40.7662 191.906 40.8489 192.306 41.0168C192.706 41.1848 193.066 41.4343 193.364 41.7495L192.696 42.5347C192.493 42.3097 192.245 42.1309 191.967 42.0105C191.689 41.8902 191.389 41.8311 191.086 41.8373C189.623 41.8373 188.648 42.959 188.648 44.7928C188.648 46.6267 189.531 47.7679 191.125 47.7679C191.566 47.7837 192 47.6496 192.354 47.3875V45.5781H190.808V44.5685H193.466V47.9484C192.793 48.5612 191.908 48.8882 190.999 48.8604C188.926 48.8604 187.409 47.3973 187.409 44.8416V44.8416ZM195.256 40.9399H199.865V41.9689H196.49V44.1393H199.353V45.1781H196.49V47.6996H199.987V48.7434H195.261L195.256 40.9399ZM201.611 40.9399H202.875L205.459 45.5147L206.274 47.168H206.328C206.264 46.3633 206.167 45.4171 206.167 44.5734V40.9399H207.332V48.7434H206.069L203.484 44.1442L202.67 42.5152H202.616C202.679 43.3199 202.777 44.2222 202.777 45.0708V48.7434H201.611V40.9399ZM208.961 44.8416C208.961 42.3006 210.507 40.774 212.478 40.774C212.894 40.7742 213.306 40.8611 213.687 41.029C214.069 41.1969 214.411 41.4423 214.692 41.7495L214.048 42.5445C213.856 42.3284 213.621 42.1548 213.359 42.0347C213.096 41.9146 212.811 41.8507 212.522 41.847C211.176 41.847 210.244 42.9688 210.244 44.8026C210.244 46.6364 211.093 47.7679 212.468 47.7679C212.798 47.7643 213.124 47.6887 213.422 47.5463C213.72 47.404 213.984 47.1983 214.195 46.9437L214.853 47.7192C214.558 48.0782 214.185 48.3656 213.762 48.5599C213.34 48.7542 212.879 48.8503 212.414 48.8409C210.463 48.8604 208.961 47.3973 208.961 44.8416V44.8416ZM216.228 40.9399H220.837V41.9689H217.462V44.1393H220.325V45.1781H217.462V47.6996H220.959V48.7434H216.233L216.228 40.9399Z" fill="#3E3A39"/>
<path d="M185.345 25.6765C185.211 25.102 184.905 24.5824 184.466 24.1881C184.027 23.7938 183.478 23.5437 182.893 23.4719C182.307 23.4 181.714 23.5098 181.193 23.7864C180.672 24.0629 180.249 24.4929 179.98 25.0181L176.239 33.4264C175.984 33.8693 175.616 34.2376 175.174 34.4943C174.731 34.751 174.229 34.8873 173.718 34.8895H159.154C159.016 34.8897 158.88 34.8559 158.757 34.7912C158.635 34.7266 158.53 34.6329 158.452 34.5184C158.374 34.4039 158.325 34.2721 158.31 34.1345C158.295 33.9968 158.313 33.8575 158.364 33.7287L164.905 18.9899H183.984C184.365 18.9899 184.731 18.8385 185 18.5692C185.269 18.2998 185.421 17.9345 185.421 17.5535C185.421 17.1726 185.269 16.8072 185 16.5379C184.731 16.2685 184.365 16.1172 183.984 16.1172H153.687C153.306 16.1172 152.941 16.2685 152.671 16.5379C152.402 16.8072 152.251 17.1726 152.251 17.5535C152.251 17.9345 152.402 18.2998 152.671 18.5692C152.941 18.8385 153.306 18.9899 153.687 18.9899H158.623L152.834 32.0315C152.039 33.5971 151.961 34.9578 152.951 36.2503C153.342 36.7426 153.842 37.1373 154.411 37.403C154.981 37.6688 155.605 37.7985 156.233 37.7817H178.839C179.346 37.7549 179.838 37.5965 180.266 37.322C180.693 37.0475 181.042 36.6663 181.277 36.2161L185.223 27.3689C185.438 26.8309 185.48 26.2397 185.345 25.6765Z" fill="#3E3A39"/>
<path d="M112.792 15.9865C112.745 15.3627 112.465 14.7796 112.008 14.3524C111.551 13.9252 110.95 13.6851 110.324 13.6796H90.7229L91.3814 8.80236H111.378C111.759 8.80236 112.124 8.65103 112.394 8.38166C112.663 8.1123 112.814 7.74696 112.814 7.36602C112.814 6.98508 112.663 6.61975 112.394 6.35038C112.124 6.08102 111.759 5.92969 111.378 5.92969H80.9637C80.5827 5.92969 80.2174 6.08102 79.948 6.35038C79.6787 6.61975 79.5273 6.98508 79.5273 7.36602C79.5273 7.74696 79.6787 8.1123 79.948 8.38166C80.2174 8.65103 80.5827 8.80236 80.9637 8.80236H86.036L84.1144 22.8438C83.6705 26.0823 83.0804 28.438 82.3537 29.8377C81.8764 30.8759 81.0755 31.7315 80.0712 32.2763L79.5298 32.5299V37.7778L80.7101 37.4754C82.8738 36.9356 84.7753 35.6443 86.075 33.8321C87.6698 31.6813 88.7379 28.4672 89.3476 23.9509L90.3377 16.5473H105.998C106.299 16.5761 106.578 16.7172 106.779 16.9424C106.943 17.1258 107.045 17.3561 107.071 17.6008V32.1105C107.071 33.2517 106.715 34.7832 104.74 34.9051H99.9213C99.5411 34.9051 99.1763 35.0562 98.9074 35.3251C98.6385 35.594 98.4875 35.9587 98.4875 36.339C98.4875 36.7193 98.6385 37.084 98.9074 37.3529C99.1763 37.6218 99.5411 37.7729 99.9213 37.7729H109.383C111.334 37.6998 112.914 36.539 112.797 33.4761L112.792 15.9865Z" fill="#3E3A39"/>
<path d="M218.841 31.6712C218.646 31.1152 217.866 25.5504 217.671 23.4288H219.519C219.708 23.4288 219.894 23.3917 220.068 23.3196C220.242 23.2476 220.4 23.142 220.533 23.0088C220.666 22.8757 220.772 22.7176 220.844 22.5436C220.916 22.3696 220.953 22.1832 220.953 21.9949C220.953 21.8066 220.916 21.6201 220.844 21.4461C220.772 21.2722 220.666 21.1141 220.533 20.9809C220.4 20.8478 220.242 20.7422 220.068 20.6701C219.894 20.5981 219.708 20.561 219.519 20.561H189.905C189.525 20.561 189.16 20.7121 188.891 20.981C188.622 21.2499 188.471 21.6146 188.471 21.9949C188.471 22.3752 188.622 22.7399 188.891 23.0088C189.16 23.2777 189.525 23.4288 189.905 23.4288H191.763C191.578 25.4577 190.788 31.2323 190.583 31.7834C190.451 32.2394 190.173 32.6393 189.791 32.9214C189.41 33.2035 188.946 33.352 188.471 33.3441V37.7824C189.618 37.7468 190.742 37.4517 191.758 36.9191C192.576 36.4732 193.289 35.8565 193.848 35.1109C194.407 34.3653 194.798 33.5083 194.997 32.5979C195.182 31.7493 195.972 25.682 196.201 23.4288H213.238C213.462 25.7649 214.247 31.6517 214.432 32.4857C214.63 33.3962 215.022 34.2534 215.581 34.999C216.14 35.7447 216.853 36.3613 217.671 36.8069C218.687 37.3395 219.811 37.6347 220.958 37.6702V33.2319C220.483 33.2409 220.018 33.0929 219.635 32.8107C219.252 32.5286 218.973 32.128 218.841 31.6712V31.6712ZM149.141 15.1766C149.049 14.0109 148.083 13.689 147.073 13.689H143.411V8.81181H147.717C147.906 8.81181 148.093 8.77466 148.267 8.70248C148.441 8.6303 148.6 8.5245 148.733 8.39112C148.866 8.25774 148.972 8.0994 149.044 7.92514C149.116 7.75087 149.154 7.5641 149.154 7.37548C149.154 7.18686 149.116 7.00008 149.044 6.82582C148.972 6.65155 148.866 6.49321 148.733 6.35984C148.6 6.22646 148.441 6.12066 148.267 6.04848C148.093 5.97629 147.906 5.93914 147.717 5.93914H135.378V4.35893C135.378 4.03167 135.248 3.71782 135.017 3.48641C134.785 3.255 134.471 3.125 134.144 3.125H130.891C130.566 3.12885 130.256 3.26055 130.028 3.49154C129.8 3.72253 129.672 4.03419 129.672 4.35893V5.91476H117.332C116.951 5.91476 116.586 6.06608 116.317 6.33545C116.047 6.60481 115.896 6.97015 115.896 7.35109C115.896 7.73203 116.047 8.09737 116.317 8.36673C116.586 8.6361 116.951 8.78743 117.332 8.78743H121.629V13.6646H117.479C117.076 13.6607 116.687 13.8108 116.391 14.0841C116.223 14.2372 116.088 14.424 115.997 14.6323C115.905 14.8407 115.858 15.066 115.859 15.2936V37.7775H121.59V17.6493C121.608 17.3723 121.723 17.1104 121.915 16.9097C122.106 16.709 122.363 16.5823 122.639 16.5519H126.667C126.346 17.6588 125.702 18.6452 124.819 19.3856C124.138 19.8008 123.373 20.059 122.58 20.1415V23.8189C124.911 23.5133 126.649 22.8955 127.794 21.9656C129.202 20.8211 130.285 19.0165 131.042 16.5519H133.968C134.726 19.0133 135.809 20.8178 137.217 21.9656C138.364 22.9085 140.107 23.5279 142.445 23.8238V20.1415C141.652 20.059 140.887 19.8008 140.206 19.3856C139.323 18.6452 138.68 17.6588 138.358 16.5519H142.377C142.66 16.5918 142.921 16.7299 143.113 16.9421C143.304 17.1538 143.412 17.4277 143.416 17.7127V32.2906C143.386 33.4124 142.825 34.8756 141.333 34.9829C140.968 35.0008 140.624 35.1543 140.367 35.4133C140.109 35.6722 139.958 36.018 139.943 36.3826C139.943 36.75 140.088 37.1026 140.346 37.3638C140.605 37.625 140.956 37.7736 141.323 37.7775H145.713C147.59 37.7775 149.263 36.802 149.127 33.6465L149.141 15.1766ZM139.041 13.6793H125.994V8.80206H139.036L139.041 13.6793Z" fill="#3E3A39"/>
<path d="M219.705 11.9001C220.022 11.8803 220.32 11.7403 220.537 11.5088C220.755 11.2773 220.876 10.9716 220.876 10.654C220.876 10.3364 220.755 10.0307 220.537 9.79914C220.32 9.56763 220.022 9.42771 219.705 9.40786H207.961V8.40804H219.705C220.036 8.40804 220.353 8.27675 220.586 8.04306C220.82 7.80936 220.951 7.49241 220.951 7.16191C220.951 6.83142 220.82 6.51447 220.586 6.28077C220.353 6.04708 220.036 5.91579 219.705 5.91579H207.961V4.35509C207.956 4.03206 207.824 3.72393 207.594 3.49686C207.365 3.26979 207.055 3.1419 206.732 3.14066H203.484C203.158 3.13805 202.845 3.26423 202.612 3.49171C202.379 3.71919 202.245 4.02952 202.24 4.35509V5.91579H194.437C194.359 5.91638 194.284 5.89136 194.222 5.84461C194.16 5.79785 194.116 5.732 194.095 5.6573L193.49 3.46256C193.47 3.37986 193.423 3.30602 193.357 3.2523C193.291 3.19859 193.21 3.16795 193.125 3.16505C192.381 3.20445 191.657 3.41349 191.007 3.77616C190.356 4.13883 189.798 4.64551 189.374 5.25737C188.795 6.09141 188.483 7.08088 188.477 8.0959V17.8698C188.482 18.1497 188.591 18.4176 188.784 18.6209C188.996 18.8466 189.289 18.9797 189.598 18.9916H202.245V37.7736H207.971V18.9867H219.705C220.022 18.9668 220.32 18.8269 220.537 18.5954C220.755 18.3639 220.876 18.0582 220.876 17.7406C220.876 17.4229 220.755 17.1172 220.537 16.8857C220.32 16.6542 220.022 16.5143 219.705 16.4944H207.961V15.4605H219.705C220.022 15.4406 220.32 15.3007 220.537 15.0692C220.755 14.8377 220.876 14.532 220.876 14.2143C220.876 13.8967 220.755 13.591 220.537 13.3595C220.32 13.128 220.022 12.9881 219.705 12.9682H207.961V11.9001H219.705ZM202.235 16.4749H193.344C193.207 16.4693 193.077 16.4138 192.978 16.3189C192.89 16.2231 192.839 16.0981 192.837 15.9677V15.48H202.235V16.4749ZM202.235 12.9682H192.837V11.9001H202.235V12.9682ZM202.235 9.40786H192.837V8.40804H202.235V9.40786Z" fill="#3E3A39"/>
<path d="M165.203 11.339C161.559 13.919 157.448 13.1826 155.975 11.4024C152.951 7.77863 161.945 6.17891 161.403 9.06621C161.335 9.67586 160.881 10.1343 159.106 10.5294C159.072 10.5455 159.043 10.5722 159.025 10.6054C159.007 10.6387 158.999 10.677 159.004 10.7147C159.004 10.7147 159.004 10.8269 159.106 10.8464C163.154 11.7779 167.002 7.92007 162.881 6.42277C157.916 4.57919 152.639 8.26635 153.81 11.5194C156.136 16.4942 165.593 14.3433 168.929 12.6266C174.591 9.80267 179.088 10.2904 183.97 11.5828C177.761 6.17891 171.87 6.66663 165.203 11.339V11.339ZM132.516 22.1664C131.183 22.1654 129.88 22.5597 128.772 23.2995C127.663 24.0392 126.799 25.0911 126.289 26.322C125.779 27.5529 125.645 28.9076 125.905 30.2146C126.164 31.5216 126.806 32.7222 127.748 33.6644C128.69 34.6067 129.891 35.2483 131.198 35.508C132.505 35.7677 133.86 35.6339 135.091 35.1235C136.322 34.6132 137.373 33.7491 138.113 32.6407C138.853 31.5323 139.247 30.2294 139.246 28.8969C139.245 27.1122 138.535 25.4011 137.273 24.1391C136.012 22.8772 134.3 22.1677 132.516 22.1664V22.1664ZM135.608 31.9988C135.585 32.0141 135.558 32.0223 135.53 32.0223C135.502 32.0223 135.475 32.0141 135.452 31.9988C134.583 31.4704 133.587 31.1861 132.57 31.1758C131.553 31.1655 130.552 31.4296 129.672 31.9403C129.648 31.9577 129.619 31.9671 129.589 31.9671C129.56 31.9671 129.531 31.9577 129.506 31.9403C129.483 31.919 129.468 31.8903 129.464 31.8593C129.459 31.8282 129.466 31.7965 129.482 31.7696C129.99 30.8872 130.25 29.884 130.236 28.866C130.221 27.8479 129.932 26.8527 129.399 25.9852C129.386 25.9588 129.382 25.9289 129.387 25.8999C129.392 25.8709 129.407 25.8443 129.428 25.8243C129.453 25.8075 129.482 25.7985 129.511 25.7985C129.541 25.7985 129.57 25.8075 129.594 25.8243C130.46 26.3559 131.454 26.6442 132.47 26.6588C133.486 26.6734 134.488 26.4138 135.369 25.9072C135.396 25.891 135.427 25.8846 135.459 25.889C135.49 25.8935 135.518 25.9085 135.54 25.9316C135.557 25.9557 135.566 25.9847 135.566 26.0145C135.566 26.0443 135.557 26.0733 135.54 26.0974C135.033 26.9782 134.773 27.9793 134.786 28.9954C134.8 30.0115 135.087 31.0052 135.618 31.872C135.626 31.8923 135.63 31.9145 135.628 31.9366C135.627 31.9587 135.62 31.98 135.608 31.9988V31.9988Z" fill="#3E3A39"/>
</g>
<defs>
<clipPath id="clip0_18_295">
<rect width="223.047" height="50" fill="white"/>
</clipPath>
</defs>
</svg>
