<svg id="图层_1" data-name="图层 1" xmlns="http://www.w3.org/2000/svg" viewBox="0 0 94.05 43.33"><defs><style>.cls-1{fill:#00a664;}.cls-2{fill:#ff6432;}.cls-3{fill:#848484;}</style></defs><title>logo</title><g id="_编组_" data-name="&lt;编组&gt;"><g id="_编组_2" data-name="&lt;编组&gt;"><g id="_编组_3" data-name="&lt;编组&gt;"><g id="_编组_4" data-name="&lt;编组&gt;"><polygon id="_路径_" data-name="&lt;路径&gt;" class="cls-1" points="19.14 15.15 28.46 15.15 28.46 12.06 19.14 12.06 19.14 4.52 14.99 4.11 14.99 25.87 5.77 25.87 5.77 28.97 29.7 28.97 30.43 25.87 19.14 25.87 19.14 15.15"/><polygon id="_路径_2" data-name="&lt;路径&gt;" class="cls-1" points="71.17 25.87 69.17 23.87 65.95 20.65 63.58 23.03 66.42 25.87 60.46 25.87 60.46 28.97 85.12 28.97 85.12 25.87 71.17 25.87"/><polygon id="_路径_3" data-name="&lt;路径&gt;" class="cls-1" points="46.48 15.15 55.8 15.15 55.8 12.06 46.48 12.06 46.48 4.52 42.34 4.11 42.34 25.87 33.12 25.87 33.12 28.97 57.04 28.97 57.77 25.87 46.48 25.87 46.48 15.15"/><path id="_路径_4" data-name="&lt;路径&gt;" class="cls-1" d="M76.8,8.36l4,3.94,2-2-2.1-2.1h4V6H78.16c.25-.51.49-1,.72-1.55l-3.22-.32A25.68,25.68,0,0,1,73,8.45l2.19,2.19C75.79,9.9,76.31,9.14,76.8,8.36Z"/><path id="_路径_5" data-name="&lt;路径&gt;" class="cls-1" d="M65.45,8.81l3.25,3.24,2-2L68.8,8.25h3.94V6H67.09c.26-.51.5-1,.73-1.56l-.67-.06L64.6,4.07A27.38,27.38,0,0,1,59.91,11l2.17,2.17A30.48,30.48,0,0,0,65.45,8.81Z"/><path id="_复合路径_" data-name="&lt;复合路径&gt;" class="cls-1" d="M66.15,18.65h0l.54-.31h0l1,1H78.8l1.11-1.11h0l1.67-1.67q-.4-.19-.78-.42a27.48,27.48,0,0,1-6.14-4.73,28.62,28.62,0,0,1-2-2.35h0a26.83,26.83,0,0,1-2,2.35,27.43,27.43,0,0,1-6.13,4.73,27.08,27.08,0,0,1-5,2.19l2.4,2.4A31.23,31.23,0,0,0,66.15,18.65Zm6.47-5A31.19,31.19,0,0,0,76.53,17H68.71A30.49,30.49,0,0,0,72.62,13.66Z"/></g><polygon id="_路径_6" data-name="&lt;路径&gt;" class="cls-2" points="88.28 15.93 85.9 13.55 76.27 23.18 73.08 19.99 70.71 22.36 76.27 27.93 76.27 27.93 76.27 27.93 88.28 15.93"/></g><g id="_编组_5" data-name="&lt;编组&gt;"><rect id="_路径_7" data-name="&lt;路径&gt;" class="cls-3" x="5.77" y="35.96" width="7.35" height="0.35"/><rect id="_路径_8" data-name="&lt;路径&gt;" class="cls-3" x="77.77" y="35.96" width="7.35" height="0.35"/><path id="_路径_9" data-name="&lt;路径&gt;" class="cls-3" d="M28.18,35.57A11.71,11.71,0,0,0,30,34.19h0v-.56h-4.4v.56h3.6a10.17,10.17,0,0,1-1.65,1.06v.83H24.87v.56h2.69v1.79a.27.27,0,0,1-.26.27h-.83l-.13.57h1.05a.78.78,0,0,0,.78-.74h0V36.63h2.57v-.56H28.18Z"/><path id="_复合路径_2" data-name="&lt;复合路径&gt;" class="cls-3" d="M21.3,38.42a.27.27,0,0,1-.27.27H19a.27.27,0,0,1-.27-.27v-.71h2.13V34.35H18.75v-1h-.61v1H16.05V38.2h.62v-.49h1.47v.76a.79.79,0,0,0,.78.79h2.21a.8.8,0,0,0,.79-.79V38l-.62-.14Zm-2.55-1.27v-.84h1.52v.84Zm1.52-2.23v.83H18.75v-.83Zm-2.13,0v.83H16.67v-.83Zm-1.47,1.39h1.47v.84H16.67Z"/><path id="_复合路径_3" data-name="&lt;复合路径&gt;" class="cls-3" d="M73.46,36.56H69.54v2.69h.61V39h3.31v.24h.61V36.56h-.61Zm-3.31,1.88V37.12h3.31v1.32Z"/><path id="_路径_10" data-name="&lt;路径&gt;" class="cls-3" d="M72.7,34.3s.28.34.65.84c-.93.11-2.31.18-3.28.22a6.37,6.37,0,0,0,1.58-2H71a6.84,6.84,0,0,1-2,2L69,36c.13,0,3.3-.11,4.76-.31.17.23.34.49.51.75l.53-.32c-.68-1.06-1.37-1.94-1.56-2.18Z"/><rect id="_路径_11" data-name="&lt;路径&gt;" class="cls-3" x="51.81" y="33.79" width="4.9" height="0.56"/><path id="_路径_12" data-name="&lt;路径&gt;" class="cls-3" d="M51.32,36.07h2.09a12.77,12.77,0,0,1-1.71,2.45l0,.62a36.17,36.17,0,0,0,4.44-.43c.1.17.19.35.29.54l.53-.33c-.54-1-1.1-1.94-1.28-2.21l-.53.33c.06.09.33.51.67,1.1a28.56,28.56,0,0,1-3.19.33,13,13,0,0,0,1.49-2.4H57.2v-.56H51.32Z"/><path id="_复合路径_4" data-name="&lt;复合路径&gt;" class="cls-3" d="M36.77,34.93l-.21-.18-.2.2a3.48,3.48,0,0,1-.64.46,8.28,8.28,0,0,1-2.07.87l.13.58a11.43,11.43,0,0,0,1.13-.38v.39h3.43v-.39c.33.13.71.26,1.13.38l.14-.58a9.74,9.74,0,0,1-2.14-.87A4.75,4.75,0,0,1,36.77,34.93ZM35.3,36.31a6.27,6.27,0,0,0,1.28-.77,7.45,7.45,0,0,0,1.35.77Z"/><path id="_路径_13" data-name="&lt;路径&gt;" class="cls-3" d="M38.69,37.26l0,0-.57-.13a8.56,8.56,0,0,1-.72,1.58H33.69v.56h5.87v-.56H38.08A9.46,9.46,0,0,0,38.69,37.26Z"/><path id="_路径_14" data-name="&lt;路径&gt;" class="cls-3" d="M36.63,37.07l-.59.14a9.18,9.18,0,0,1,.43,1.24l.58-.15A10.89,10.89,0,0,0,36.63,37.07Z"/><path id="_路径_15" data-name="&lt;路径&gt;" class="cls-3" d="M35.12,37.18l-.6.14A10,10,0,0,1,35,38.51l.56-.19A10.4,10.4,0,0,0,35.12,37.18Z"/><path id="_路径_16" data-name="&lt;路径&gt;" class="cls-3" d="M34.7,34.43h.45l.32.73.51-.23-.22-.5h.87v-.57H35a2.87,2.87,0,0,0,.18-.49H34.5a5.76,5.76,0,0,1-.84,1.53l.5.37A5.58,5.58,0,0,0,34.7,34.43Z"/><path id="_路径_17" data-name="&lt;路径&gt;" class="cls-3" d="M37.18,34.92c.11-.17.21-.34.29-.49H38l.36.81L38.9,35l-.25-.58h.92v-.57H37.74c.09-.22.15-.4.18-.49h-.66a6.11,6.11,0,0,1-.58,1.18l.09.08S36.91,34.75,37.18,34.92Z"/><path id="_路径_18" data-name="&lt;路径&gt;" class="cls-3" d="M47.77,34.35H46.33a5.25,5.25,0,0,0,.28-1H46a4.58,4.58,0,0,1-.17.6,6,6,0,0,1-1,1.78l.49.39a7.78,7.78,0,0,0,.79-1.22h1.69v3.37h0v.13a.27.27,0,0,1-.27.27h-1l-.13.57h1.17a.79.79,0,0,0,.79-.79V34.35h-.61Z"/><path id="_路径_19" data-name="&lt;路径&gt;" class="cls-3" d="M47.16,37.52A12.08,12.08,0,0,0,46,36l-.46.43a10.13,10.13,0,0,1,1.05,1.44Z"/><path id="_路径_20" data-name="&lt;路径&gt;" class="cls-3" d="M43.44,37.05a11.4,11.4,0,0,0,1.5-2.25l-.59-.14c-.06.12-.18.34-.36.64l-.12,0-.6.1a11.79,11.79,0,0,0,.91-2.05h-.63a10,10,0,0,1-1,2.13h0v.59s.5,0,1-.11a15.12,15.12,0,0,1-1,1.23h0v.6l.11,0a20.27,20.27,0,0,0,2.26-.46v-.61h0C44.38,36.85,43.87,37,43.44,37.05Z"/><path id="_路径_21" data-name="&lt;路径&gt;" class="cls-3" d="M42.51,39.11h.08a17.1,17.1,0,0,0,2.29-.5V38a17,17,0,0,1-2.37.54Z"/><polygon id="_路径_22" data-name="&lt;路径&gt;" class="cls-3" points="63.38 34.18 65.77 34.18 65.77 33.62 60.38 33.62 60.38 34.18 62.77 34.18 62.77 36.56 60.13 36.56 60.13 37.12 62.77 37.12 62.77 39.25 63.38 39.25 63.38 37.12 66.01 37.12 66.01 36.56 63.38 36.56 63.38 34.18"/><path id="_路径_23" data-name="&lt;路径&gt;" class="cls-3" d="M61.32,34.5l-.53.33c.08.17.42.83.65,1.39l.53-.33C61.7,35.25,61.34,34.54,61.32,34.5Z"/><path id="_路径_24" data-name="&lt;路径&gt;" class="cls-3" d="M64.69,36.25a9,9,0,0,0,.73-1.43l-.54-.34a7.24,7.24,0,0,1-.72,1.44Z"/></g></g></g></svg>