<?xml version="1.0" encoding="UTF-8"?>
<svg width="125px" height="28px" viewBox="0 0 125 28" version="1.1" xmlns="http://www.w3.org/2000/svg" xmlns:xlink="http://www.w3.org/1999/xlink">
    <title>logo</title>
    <g id="logo" stroke="none" stroke-width="1" fill="none" fill-rule="evenodd">
        <g id="编组-12">
            <g id="编组-10">
                <path d="M17.7425352,18.9362028 L11.7876056,22.3734986 C11.6298592,22.4642028 11.4326761,22.3506254 11.4326761,22.1684282 L11.4326761,14.4842028 C11.4326761,14.3150197 11.3427606,14.1588507 11.1960563,14.074062 L6.61076056,11.4282592 C6.45340845,11.3371606 6.25622535,11.4511324 6.25622535,11.6333296 L6.25622535,18.3915831 C6.25622535,18.5737803 6.05904225,18.6877521 5.90129577,18.5970479 L0.354929577,15.3959775 C0.197183099,15.3052732 6.44492284e-14,15.4188507 6.44492284e-14,15.6010479 L6.44492284e-14,20.1315268 C6.44492284e-14,20.5546817 0.225577465,20.9451042 0.591549296,21.1564845 L11.531662,27.4726535 C11.8976338,27.6840338 12.3487887,27.6840338 12.7147606,27.4726535 L17.8608451,24.5011042 C18.0071549,24.4167099 18.0974648,24.2605408 18.0974648,24.0913577 L18.0974648,19.1412732 C18.0974648,18.9590761 17.9002817,18.8451042 17.7425352,18.9362028" id="Fill-1" fill="#0A74F2"></path>
                <path d="M4.87882254,16.1220845 L4.87961127,9.24591549 C4.87961127,9.06411268 5.07679437,8.94974648 5.23454085,9.04084507 L11.8890761,12.8835493 C12.0357803,12.9679437 12.2160056,12.9679437 12.3627099,12.8835493 L16.9468225,10.2357746 C17.1041746,10.1442817 17.1041746,9.91673239 16.9468225,9.8256338 L11.0936394,6.44630986 C10.935893,6.35521127 10.935893,6.12766197 11.0936394,6.03656338 L16.6384282,2.83391549 C16.7961746,2.7428169 16.7961746,2.51526761 16.6384282,2.42416901 L12.7148789,0.158535211 C12.3485127,-0.0528450704 11.8977521,-0.0528450704 11.5317803,0.158535211 L0.591667606,6.47470423 C0.225695775,6.68608451 0.000118309859,7.07650704 0.000118309859,7.49926761 L0.000118309859,13.4419718 C0.000118309859,13.6107606 0.090428169,13.7669296 0.236738028,13.8517183 L4.52389296,16.3271549 C4.68163944,16.4178592 4.87882254,16.3038873 4.87882254,16.1220845" id="Fill-3" fill="#FF7300"></path>
                <path d="M13.7474479,6.39082254 L19.7023775,9.82851268 C19.8601239,9.91961127 19.8601239,10.1471606 19.7023775,10.2382592 L13.0482366,14.0813577 C12.9015324,14.1657521 12.8112225,14.3219211 12.8116156,14.4911042 L12.8135887,19.7850761 C12.8135887,19.9672732 13.0107718,20.0812451 13.1685183,19.9897521 L19.0209127,16.6096394 C19.1786592,16.5189352 19.3758423,16.6325127 19.3758423,16.8147099 L19.3782085,23.2180338 C19.3782085,23.400231 19.5753915,23.5138085 19.733138,23.4227099 L23.656293,21.1566817 C24.0226592,20.9453014 24.2478423,20.5548789 24.2478423,20.1321183 L24.2458704,7.50017465 C24.2458704,7.07741408 24.020293,6.68659718 23.6543211,6.4752169 L18.5074479,3.50524507 C18.361138,3.42045634 18.1805183,3.42045634 18.0342085,3.50524507 L13.7474479,5.98107606 C13.5897014,6.07217465 13.5897014,6.29972394 13.7474479,6.39082254" id="Fill-5" fill="#11C98C"></path>
            </g>
            <path d="M61.576338,5.92420845 C61.6595493,5.92420845 61.7171268,6.00820845 61.6863662,6.08589859 L61.6863662,6.08589859 L60.6061972,8.86144789 C60.5762254,8.93874366 60.6334085,9.0223493 60.7166197,9.0223493 L60.7166197,9.0223493 L63.6917183,9.0223493 C63.7571831,9.0223493 63.8100282,9.07558873 63.8100282,9.14065915 L63.8100282,9.14065915 L63.8100282,10.8155324 C63.8100282,10.8806028 63.7571831,10.9338423 63.6917183,10.9338423 L63.6917183,10.9338423 L57.7190423,10.9338423 C57.6634366,10.9338423 57.6157183,10.9736732 57.6042817,11.0277014 C57.364507,12.1780676 57.0632113,13.2570535 56.7256338,14.2563775 C56.7,14.3328845 56.7563944,14.4097859 56.8372394,14.4097859 L56.8372394,14.4097859 L64.8476056,14.4097859 C64.9130704,14.4097859 64.9663099,14.462631 64.9663099,14.5280958 L64.9663099,14.5280958 L64.9663099,16.2025746 C64.9663099,16.2680394 64.9130704,16.3208845 64.8476056,16.3208845 L64.8476056,16.3208845 L60.7532958,16.3208845 C60.6665352,16.3208845 60.6073803,16.4104056 60.6444507,16.4888845 C61.508507,18.3250535 62.684507,20.3481521 64.2663099,22.2103493 C64.3309859,22.2868563 64.2793239,22.4035887 64.1787606,22.4035887 L64.1787606,22.4035887 L62.0377465,22.4035887 C62.0026479,22.4035887 61.9707042,22.3893915 61.9482254,22.362969 C61.6828169,22.0458986 59.9385352,19.8973915 58.4332394,16.3930535 C58.4147042,16.3496732 58.3721127,16.3208845 58.3251831,16.3208845 L58.3251831,16.3208845 L56.0153803,16.3208845 C55.9684507,16.3208845 55.9258592,16.3496732 55.9073239,16.3930535 C54.4016338,19.8997577 52.6549859,22.0466873 52.3895775,22.362969 C52.3670986,22.3893915 52.3347606,22.4035887 52.3000563,22.4035887 L52.3000563,22.4035887 L50.1590423,22.4035887 C50.0588732,22.4035887 50.0064225,22.2868563 50.071493,22.2103493 C51.652507,20.3493352 52.8324507,18.3246592 53.6969014,16.4888845 C53.7339718,16.4104056 53.6748169,16.3208845 53.5880563,16.3208845 L53.5880563,16.3208845 L49.3099718,16.3208845 C49.244507,16.3208845 49.1912676,16.2680394 49.1912676,16.2025746 L49.1912676,16.2025746 L49.1912676,14.5280958 C49.1912676,14.462631 49.2429296,14.4097859 49.3083944,14.4097859 L49.3083944,14.4097859 L54.504169,14.4097859 C54.5534648,14.4097859 54.595662,14.3778423 54.6134085,14.3320958 C55.155662,12.9096169 55.4818028,11.7454479 55.6490141,11.078969 C55.6675493,11.0044338 55.6103662,10.9338423 55.5334648,10.9338423 L55.5334648,10.9338423 L50.4658592,10.9338423 C50.4003944,10.9338423 50.3471549,10.8806028 50.3471549,10.8155324 L50.3471549,10.8155324 L50.3471549,9.14065915 C50.3471549,9.07558873 50.4003944,9.0223493 50.4658592,9.0223493 L50.4658592,9.0223493 L58.4407324,9.0223493 C58.4896338,9.0223493 58.5334085,8.99237746 58.5511549,8.94702535 L58.5511549,8.94702535 L59.6979718,5.99992676 C59.7157183,5.95457465 59.759493,5.92420845 59.8083944,5.92420845 L59.8083944,5.92420845 Z M38.6967887,5.92424789 C38.7622535,5.92424789 38.8150986,5.97748732 38.8150986,6.04295211 L38.8150986,6.04295211 L38.8150986,9.10836056 C38.8150986,9.17343099 38.8679437,9.22667042 38.9334085,9.22667042 L38.9334085,9.22667042 L44.9577465,9.22667042 C45.3935211,9.22667042 45.7464789,9.57962817 45.7464789,10.0154028 L45.7464789,10.0154028 L45.7464789,16.8533183 C45.7464789,17.2886986 45.3935211,17.6420507 44.9577465,17.6420507 L44.9577465,17.6420507 L38.9334085,17.6420507 C38.8679437,17.6420507 38.8150986,17.6948958 38.8150986,17.7599662 L38.8150986,17.7599662 L38.8150986,22.2790085 C38.8150986,22.3444732 38.7622535,22.3973183 38.6967887,22.3973183 L38.6967887,22.3973183 L37.0219155,22.3973183 C36.9564507,22.3973183 36.9036056,22.3444732 36.9036056,22.2790085 L36.9036056,22.2790085 L36.9036056,17.7599662 C36.9036056,17.6948958 36.8507606,17.6420507 36.7852958,17.6420507 L36.7852958,17.6420507 L30.7605634,17.6420507 C30.3251831,17.6420507 29.971831,17.2886986 29.971831,16.8533183 L29.971831,16.8533183 L29.971831,10.0154028 C29.971831,9.57962817 30.3251831,9.22667042 30.7605634,9.22667042 L30.7605634,9.22667042 L36.7852958,9.22667042 C36.8507606,9.22667042 36.9036056,9.17343099 36.9036056,9.10836056 L36.9036056,9.10836056 L36.9036056,6.04295211 C36.9036056,5.97748732 36.9564507,5.92424789 37.0219155,5.92424789 L37.0219155,5.92424789 Z M73.0125239,5.92432676 C73.0779887,5.92432676 73.1312282,5.97717183 73.1312282,6.04263662 L73.1312282,6.04263662 L73.1312282,8.90415775 C73.1312282,8.96962254 73.1840732,9.02246761 73.249538,9.02246761 L73.249538,9.02246761 L75.3668901,9.02246761 C75.4323549,9.02246761 75.4852,9.07531268 75.4852,9.14077746 L75.4852,9.14077746 L75.4852,10.8152563 C75.4852,10.8807211 75.4323549,10.9339606 75.3668901,10.9339606 L75.3668901,10.9339606 L73.249538,10.9339606 C73.1840732,10.9339606 73.1312282,10.9868056 73.1312282,11.0518761 L73.1312282,11.0518761 L73.1312282,22.2790873 C73.1312282,22.3445521 73.0779887,22.3973972 73.0125239,22.3973972 L73.0125239,22.3973972 L71.4748901,22.3973972 C71.4094254,22.3973972 71.3565803,22.3445521 71.3565803,22.2790873 L71.3565803,22.2790873 L71.3565803,11.0518761 C71.3565803,10.9868056 71.3033408,10.9339606 71.2378761,10.9339606 L71.2378761,10.9339606 L68.529369,10.9339606 C68.4639042,10.9339606 68.4106648,10.8807211 68.4106648,10.8152563 L68.4106648,10.8152563 L68.4106648,9.14077746 C68.4106648,9.07531268 68.4639042,9.02246761 68.529369,9.02246761 L68.529369,9.02246761 L71.2378761,9.02246761 C71.3033408,9.02246761 71.3565803,8.96962254 71.3565803,8.90415775 L71.3565803,8.90415775 L71.3565803,6.04263662 C71.3565803,5.97717183 71.4094254,5.92432676 71.4748901,5.92432676 L71.4748901,5.92432676 Z M82.3071437,5.92432676 C82.3726085,5.92432676 82.4254535,5.97717183 82.4254535,6.04263662 L82.4254535,6.04263662 L82.4258479,8.90415775 C82.4258479,8.96962254 82.478693,9.02246761 82.5441577,9.02246761 L82.5441577,9.02246761 L84.0672,9.02246761 C84.1326648,9.02246761 84.1855099,9.07531268 84.1855099,9.14077746 L84.1855099,9.14077746 L84.1855099,10.8152563 C84.1855099,10.8807211 84.1326648,10.9339606 84.0672,10.9339606 L84.0672,10.9339606 L82.5441577,10.9339606 C82.4790873,10.9339606 82.4258479,10.9868056 82.4258479,11.0518761 L82.4258479,11.0518761 L82.4266366,19.3414535 C82.4266366,20.3419606 82.3004394,21.3385239 82.0508056,22.3078761 C82.0370028,22.3603268 81.9884958,22.3973972 81.9340732,22.3973972 L81.9340732,22.3973972 L80.2607775,22.3973972 C80.1811155,22.3973972 80.1243268,22.3212845 80.1475944,22.2447775 C80.4855662,21.1251718 80.6575099,19.9621859 80.6575099,18.7928901 L80.6575099,18.7928901 L80.6575099,11.0518761 C80.6575099,10.9868056 80.6046648,10.9339606 80.5392,10.9339606 L80.5392,10.9339606 L76.4168901,10.9339606 C76.3514254,10.9339606 76.2981859,10.8807211 76.2981859,10.8152563 L76.2981859,10.8152563 L76.2981859,9.14077746 C76.2981859,9.07531268 76.3514254,9.02246761 76.4168901,9.02246761 L76.4168901,9.02246761 L80.5392,9.02246761 C80.6046648,9.02246761 80.6575099,8.96962254 80.6575099,8.90415775 L80.6575099,8.90415775 L80.6575099,6.04263662 C80.6575099,5.97717183 80.7103549,5.92432676 80.7754254,5.92432676 L80.7754254,5.92432676 Z M94.5705915,6.20913803 C94.6419718,6.19927887 94.7050704,6.25449014 94.7050704,6.32626479 L94.7050704,6.32626479 L94.7050704,7.99877183 C94.7050704,8.05792676 94.6612958,8.10801127 94.6025352,8.11589859 L94.6025352,8.11589859 L92.2178028,8.43809577 C92.1594366,8.4459831 92.115662,8.49606761 92.115662,8.55522254 L92.115662,8.55522254 L92.115662,10.3208 C92.115662,10.3862648 92.168507,10.4391099 92.2335775,10.4391099 L92.2335775,10.4391099 L94.5863662,10.4391099 C94.651831,10.4391099 94.7050704,10.4919549 94.7050704,10.5574197 L94.7050704,10.5574197 L94.7050704,12.232293 C94.7050704,12.2977577 94.651831,12.3506028 94.5863662,12.3506028 L94.5863662,12.3506028 L92.2335775,12.3506028 C92.168507,12.3506028 92.115662,12.4034479 92.115662,12.4689127 L92.115662,12.4689127 L92.115662,22.2791662 C92.115662,22.344631 92.0628169,22.3974761 91.9973521,22.3974761 L91.9973521,22.3974761 L90.4589296,22.3974761 C90.3938592,22.3974761 90.3410141,22.344631 90.3410141,22.2791662 L90.3410141,22.2791662 L90.3410141,12.4689127 C90.3410141,12.4034479 90.288169,12.3506028 90.2227042,12.3506028 L90.2227042,12.3506028 L87.7488451,12.3506028 C87.6833803,12.3506028 87.6309296,12.2977577 87.6309296,12.232293 L87.6309296,12.232293 L87.6309296,10.5574197 C87.6309296,10.4919549 87.6833803,10.4391099 87.7488451,10.4391099 L87.7488451,10.4391099 L90.2227042,10.4391099 C90.288169,10.4391099 90.3410141,10.3862648 90.3410141,10.3208 L90.3410141,10.3208 L90.3410141,8.82694085 C90.3410141,8.75556056 90.2775211,8.69995493 90.2069296,8.70981408 L90.2069296,8.70981408 L87.7646197,9.03950423 C87.6940282,9.04936338 87.6309296,8.99415211 87.6309296,8.92237746 L87.6309296,8.92237746 L87.6309296,7.24987042 C87.6309296,7.19071549 87.6747042,7.14063099 87.7330704,7.13274366 L87.7330704,7.13274366 Z M101.669775,5.91549296 C101.735239,5.91549296 101.788085,5.96873239 101.788085,6.03380282 L101.788085,6.03380282 L101.788085,15.1752113 C101.788085,15.2458028 101.849606,15.3002254 101.919408,15.2927324 L101.919408,15.2927324 L103.273662,15.1416901 C103.343859,15.1338028 103.404986,15.1890141 103.404986,15.2596056 L103.404986,15.2596056 L103.404986,16.932507 C103.404986,16.9928451 103.359634,17.0433239 103.29969,17.0504225 L103.29969,17.0504225 L101.89338,17.2065915 C101.833437,17.2136901 101.788085,17.264169 101.788085,17.324507 L101.788085,17.324507 L101.788085,22.2793239 C101.788085,22.3447887 101.735239,22.3972394 101.669775,22.3972394 L101.669775,22.3972394 L100.131746,22.3972394 C100.066282,22.3972394 100.013437,22.3447887 100.013437,22.2793239 L100.013437,22.2793239 L100.013437,17.548507 C100.013437,17.4779155 99.9519155,17.4230986 99.8817183,17.4309859 L99.8817183,17.4309859 L95.6403099,17.9030423 C95.5701127,17.9109296 95.5089859,17.8561127 95.5089859,17.7855211 L95.5089859,17.7855211 L95.5089859,16.1122254 C95.5089859,16.0522817 95.5539437,16.0014085 95.6138873,15.9947042 L95.6138873,15.9947042 L99.9081408,15.516338 C99.9680845,15.5100282 100.013437,15.4595493 100.013437,15.3988169 L100.013437,15.3988169 L100.013437,6.03380282 C100.013437,5.96873239 100.066282,5.91549296 100.131746,5.91549296 L100.131746,5.91549296 Z M114.665829,5.92946959 L114.707837,5.93824789 C114.918034,6.02698028 115.911837,6.43869859 116.252175,6.57988169 C116.324344,6.60985352 116.328682,6.66979718 116.272287,6.73052958 C116.207217,6.80112113 116.118485,6.89695211 116.039217,6.97976901 C115.993076,7.02827606 115.991104,7.1047831 116.039611,7.15171268 C117.35009,8.40895211 119.650823,10.3878817 122.562428,11.9515437 C122.600287,11.9720507 122.624738,12.0114873 122.624738,12.0544732 L122.624738,12.0544732 L122.624738,13.9565014 C122.624738,14.0464169 122.526541,14.1039944 122.447273,14.0614028 C121.656175,13.6323324 120.904118,13.1792056 120.192682,12.7170085 C120.140231,12.683093 120.072794,12.7205577 120.072794,12.7828676 L120.072794,12.7828676 L120.072794,13.5499099 C120.072794,13.6153746 120.019555,13.6682197 119.95409,13.6682197 L119.95409,13.6682197 L115.757245,13.6682197 C115.692175,13.6682197 115.63933,13.7210648 115.63933,13.7865296 L115.63933,13.7865296 L115.63933,15.2255718 C115.63933,15.2910366 115.692175,15.3438817 115.757245,15.3438817 L115.757245,15.3438817 L120.923048,15.3438817 C120.988118,15.3438817 121.041358,15.3971211 121.041358,15.4621915 L121.041358,15.4621915 L121.041358,17.1197127 C121.041358,17.1851775 120.988118,17.2380225 120.923048,17.2380225 L120.923048,17.2380225 L115.757245,17.2380225 C115.692175,17.2380225 115.63933,17.291262 115.63933,17.3563324 L115.63933,17.3563324 L115.63933,20.3838817 C115.63933,20.4493465 115.692175,20.5025859 115.757245,20.5025859 L115.757245,20.5025859 L117.381639,20.5025859 C117.433696,20.5025859 117.480231,20.4678817 117.495217,20.4174028 L117.495217,20.4174028 L118.182992,18.0768394 C118.197583,18.0263606 118.243724,17.9920507 118.296175,17.9920507 L118.296175,17.9920507 L119.874034,17.9920507 C119.952907,17.9920507 120.009696,18.067769 119.987611,18.1434873 L119.987611,18.1434873 L119.338879,20.3507549 C119.316794,20.4268676 119.373189,20.5025859 119.452456,20.5025859 L119.452456,20.5025859 L121.970879,20.5025859 C122.036344,20.5025859 122.089583,20.555431 122.089583,20.6208958 L122.089583,20.6208958 L122.089583,22.2784169 C122.089583,22.3434873 122.036344,22.3967268 121.970879,22.3967268 L121.970879,22.3967268 L107.492513,22.3967268 C107.427048,22.3967268 107.374597,22.3434873 107.374597,22.2784169 L107.374597,22.2784169 L107.374597,20.6208958 C107.374597,20.555431 107.427048,20.5025859 107.492513,20.5025859 L107.492513,20.5025859 L110.01133,20.5025859 C110.090203,20.5025859 110.146992,20.4268676 110.124907,20.3507549 L110.124907,20.3507549 L109.476175,18.1434873 C109.45409,18.067769 109.510879,17.9920507 109.589752,17.9920507 L109.589752,17.9920507 L111.166823,17.9920507 C111.219668,17.9920507 111.265808,18.0263606 111.2804,18.0768394 L111.2804,18.0768394 L111.968963,20.4174028 C111.983555,20.4678817 112.029696,20.5025859 112.082146,20.5025859 L112.082146,20.5025859 L113.706146,20.5025859 C113.771611,20.5025859 113.824456,20.4493465 113.824456,20.3838817 L113.824456,20.3838817 L113.824456,17.3563324 C113.824456,17.291262 113.771611,17.2380225 113.706146,17.2380225 L113.706146,17.2380225 L108.540738,17.2380225 C108.475668,17.2380225 108.422428,17.1851775 108.422428,17.1197127 L108.422428,17.1197127 L108.422428,15.4621915 C108.422428,15.3971211 108.475668,15.3438817 108.540738,15.3438817 L108.540738,15.3438817 L113.706146,15.3438817 C113.771611,15.3438817 113.824456,15.2910366 113.824456,15.2255718 L113.824456,15.2255718 L113.824456,13.7865296 C113.824456,13.7210648 113.771611,13.6682197 113.706146,13.6682197 L113.706146,13.6682197 L109.509696,13.6682197 C109.444231,13.6682197 109.391386,13.6153746 109.391386,13.5499099 L109.391386,13.5499099 L109.391386,12.7891775 C109.391386,12.7264732 109.323555,12.6890085 109.271104,12.7229239 C108.560851,13.183938 107.810372,13.6362761 107.020456,14.0641634 C106.941583,14.1071493 106.84378,14.0495718 106.84378,13.9596563 L106.84378,13.9596563 L106.84378,12.0548676 C106.84378,12.0114873 106.867442,11.9720507 106.905696,11.9515437 C111.203893,9.64331831 114.180963,6.42095211 114.591104,5.96388169 C114.621865,5.9299662 114.666034,5.92050141 114.707837,5.93824789 Z M89.4978197,12.9723606 C89.5632845,12.9723606 89.6165239,13.0256 89.6165239,13.0910648 L89.6165239,13.0910648 L89.6165239,16.7669521 C89.6165239,18.4493183 89.5222704,20.1297127 89.3444113,21.801431 C89.3384958,21.8621634 89.2868338,21.9079099 89.2261014,21.9079099 L89.2261014,21.9079099 L87.7630028,21.9079099 C87.6924113,21.9079099 87.6379887,21.8471775 87.6466648,21.7769803 C87.8166366,20.337938 87.9041859,18.889431 87.9041859,17.4393465 L87.9041859,17.4393465 L87.9041859,13.0910648 C87.9041859,13.0256 87.9574254,12.9723606 88.0228901,12.9723606 L88.0228901,12.9723606 Z M94.2768676,12.9724789 C94.3399662,12.9724789 94.3920225,13.022169 94.3951775,13.0848732 L94.3951775,13.0848732 L94.7690366,20.6594648 C94.7725859,20.7272958 94.7185577,20.7836901 94.6507268,20.7836901 L94.6507268,20.7836901 L93.2049803,20.7836901 C93.1418817,20.7836901 93.0898254,20.734 93.0866704,20.6712958 L93.0866704,20.6712958 L92.7128113,13.0967042 C92.709262,13.0292676 92.7632901,12.9724789 92.8311211,12.9724789 L92.8311211,12.9724789 Z M70.5204845,11.6209859 C70.5855549,11.6209859 70.6387944,11.6742254 70.6387944,11.7392958 L70.6387944,11.7392958 L70.6387944,15.4155775 C70.6387944,17.0979437 70.5445408,18.7779437 70.3670761,20.4500563 C70.3607662,20.5103944 70.3091042,20.5565352 70.2483718,20.5565352 L70.2483718,20.5565352 L68.7852732,20.5565352 C68.7146817,20.5565352 68.6606535,20.4958028 68.6689352,20.4256056 C68.8393014,18.9865634 68.9268507,17.5380563 68.9268507,16.0879718 L68.9268507,16.0879718 L68.9268507,11.7392958 C68.9268507,11.6742254 68.9796958,11.6209859 69.0451606,11.6209859 L69.0451606,11.6209859 Z M75.2991775,11.6210648 C75.3622761,11.6210648 75.4143324,11.6707549 75.4174873,11.7334592 L75.4174873,11.7334592 L75.7913465,19.3080507 C75.7948958,19.3758817 75.7408676,19.4322761 75.673431,19.4322761 L75.673431,19.4322761 L74.2276845,19.4322761 C74.1645859,19.4322761 74.1125296,19.3825859 74.1093746,19.3194873 L74.1093746,19.3194873 L73.7351211,11.7452901 C73.7319662,11.6778535 73.7859944,11.6210648 73.853431,11.6210648 L73.853431,11.6210648 Z M78.4069803,11.6211831 C78.4653465,11.6211831 78.5150366,11.6637746 78.5237127,11.7213521 L78.5237127,11.7213521 L79.439431,17.7129577 C79.4508676,17.784338 79.395262,17.8490141 79.3223042,17.8490141 L79.3223042,17.8490141 L77.8312056,17.8490141 C77.7728394,17.8490141 77.7231493,17.8064225 77.7140789,17.7484507 L77.7140789,17.7484507 L76.7983606,11.7572394 C76.7873183,11.6854648 76.8425296,11.6211831 76.915093,11.6211831 L76.915093,11.6211831 Z M43.7170704,11.137769 L38.9334085,11.137769 C38.8679437,11.137769 38.8150986,11.1906141 38.8150986,11.2560789 L38.8150986,11.2560789 L38.8150986,15.6122479 C38.8150986,15.6777127 38.8679437,15.7305577 38.9334085,15.7305577 L38.9334085,15.7305577 L43.7170704,15.7305577 C43.7825352,15.7305577 43.8353803,15.6777127 43.8353803,15.6122479 L43.8353803,15.6122479 L43.8353803,11.2560789 C43.8353803,11.1906141 43.7825352,11.137769 43.7170704,11.137769 L43.7170704,11.137769 Z M36.7852958,11.137769 L32.0016338,11.137769 C31.936169,11.137769 31.8833239,11.1906141 31.8833239,11.2560789 L31.8833239,11.2560789 L31.8833239,15.6122479 C31.8833239,15.6777127 31.936169,15.7305577 32.0016338,15.7305577 L32.0016338,15.7305577 L36.7852958,15.7305577 C36.8507606,15.7305577 36.9036056,15.6777127 36.9036056,15.6122479 L36.9036056,15.6122479 L36.9036056,11.2560789 C36.9036056,11.1906141 36.8507606,11.137769 36.7852958,11.137769 L36.7852958,11.137769 Z M97.990062,7.14650704 C98.0436958,7.14650704 98.0906254,7.18239437 98.1044282,7.23405634 L98.1044282,7.23405634 L99.0753577,10.8645915 C99.0954704,10.9399155 99.0386817,11.013662 98.9609915,11.013662 L98.9609915,11.013662 L97.746738,11.013662 C97.6954704,11.013662 97.6584,11.062169 97.6714141,11.1118592 L97.6714141,11.1118592 L98.6194704,14.6572113 C98.6395831,14.7325352 98.5827944,14.8062817 98.5051042,14.8062817 L98.5051042,14.8062817 L96.8286535,14.8062817 C96.7750197,14.8062817 96.7284845,14.77 96.7146817,14.718338 L96.7146817,14.718338 L95.7429634,11.0878028 C95.7228507,11.0128732 95.7796394,10.9391268 95.8573296,10.9391268 L95.8573296,10.9391268 L97.090907,10.9391268 C97.1421746,10.9391268 97.1796394,10.8902254 97.1658366,10.8409296 L97.1658366,10.8409296 L96.2177803,7.29557746 C96.1976676,7.22025352 96.2544563,7.14650704 96.3321465,7.14650704 L96.3321465,7.14650704 Z M114.805639,8.63019155 C114.764231,8.5911493 114.703499,8.5911493 114.661696,8.63019155 C113.713639,9.51357183 112.417752,10.5203887 110.852118,11.6392056 C110.789808,11.683769 110.81702,11.7831493 110.893527,11.7831493 L110.893527,11.7831493 L118.578146,11.7831493 C118.654654,11.7831493 118.682259,11.683769 118.619949,11.6392056 C117.051949,10.5192056 115.754485,9.5139662 114.805639,8.63019155 Z M54.7739549,5.92452394 C54.822462,5.92452394 54.8662366,5.95449577 54.8839831,5.99984789 L54.8839831,5.99984789 L55.8012789,8.35697465 C55.8316451,8.43466479 55.774462,8.51827042 55.6912507,8.51827042 L55.6912507,8.51827042 L53.9229127,8.51827042 C53.8744056,8.51827042 53.830631,8.48829859 53.8128845,8.44294648 L53.8128845,8.44294648 L52.8951944,6.08581972 C52.8652225,6.00812958 52.9224056,5.92452394 53.0056169,5.92452394 L53.0056169,5.92452394 Z" id="形状结合" fill="#424242"></path>
        </g>
    </g>
</svg>