<?xml version="1.0" encoding="UTF-8"?>
<svg width="154px" height="49px" viewBox="0 0 154 49" version="1.1" xmlns="http://www.w3.org/2000/svg" xmlns:xlink="http://www.w3.org/1999/xlink">
    <title>logo 黑字</title>
    <g id="控件" stroke="none" stroke-width="1" fill="none" fill-rule="evenodd">
        <g id="导航/顶部导航/白底-解决方案" transform="translate(-200.000000, -15.000000)">
            <g id="logo-黑字" transform="translate(199.997354, 16.000000)">
                <polyline id="Fill-132" fill="#343534" points="20.6970692 20.1163999 27.5957597 16.1335273 20.6970692 12.1491582 20.6970692 20.1163999"></polyline>
                <polyline id="Fill-133" fill="#286AA6" points="27.5957597 16.1335273 20.6980669 12.1491582 27.5957597 8.16828102 27.5957597 16.1335273"></polyline>
                <polyline id="Fill-134" fill="#35A0CD" points="20.6970692 12.1491582 27.5957597 8.16828102 20.6970692 4.18441073 20.6970692 12.1491582"></polyline>
                <polyline id="Fill-135" fill="#FFFFFE" points="20.6970692 20.1163999 27.5957597 16.1335273 20.6970692 12.1491582 20.6970692 20.1163999"></polyline>
                <polyline id="Fill-136" fill="#FFFFFE" points="20.6970692 28.0841405 27.5957597 24.1007691 20.6970692 20.1163999 20.6970692 28.0841405"></polyline>
                <polyline id="Fill-137" fill="#FFFFFE" points="20.6970692 36.0498857 27.5957597 32.0665142 20.6970692 28.0841405 20.6970692 36.0498857"></polyline>
                <polyline id="Fill-138" fill="#35A0CD" points="20.6980669 44.0166286 27.5957597 40.0322594 20.6980669 36.0498857 20.6980669 44.0166286"></polyline>
                <polyline id="Fill-139" fill="#35A0CD" points="13.7988776 8.16828102 20.6970692 4.18441073 13.7988776 0.200540428 13.7988776 8.16828102"></polyline>
                <polyline id="Fill-140" fill="#35A0CD" points="13.7988776 16.1335273 20.6970692 12.1491582 13.7988776 8.16828102 13.7988776 16.1335273"></polyline>
                <polyline id="Fill-141" fill="#FFFFFE" points="13.7988776 24.1007691 20.6970692 20.1163999 13.7988776 16.1335273 13.7988776 24.1007691"></polyline>
                <polyline id="Fill-142" fill="#35A0CD" points="13.7988776 32.0665142 20.6970692 28.0841405 13.7988776 24.1007691 13.7988776 32.0665142"></polyline>
                <polyline id="Fill-143" fill="#FFFFFE" points="13.7988776 40.0322594 20.6970692 36.0498857 13.7988776 32.0665142 13.7988776 40.0322594"></polyline>
                <polyline id="Fill-144" fill="#E4E4E3" points="27.5957597 24.1007691 20.6980669 20.1163999 27.5957597 16.1335273 27.5957597 24.1007691"></polyline>
                <polyline id="Fill-145" fill="#E4E4E3" points="27.5957597 32.0665142 20.6980669 28.0841405 27.5957597 24.1007691 27.5957597 32.0665142"></polyline>
                <polyline id="Fill-146" fill="#286AA6" points="20.6970692 12.1491582 13.7988776 8.16828102 20.6970692 4.18441073 20.6970692 12.1491582"></polyline>
                <polyline id="Fill-147" fill="#E4E4E3" points="20.6970692 20.1163999 13.7988776 16.1335273 20.6970692 12.1491582 20.6970692 20.1163999"></polyline>
                <polyline id="Fill-148" fill="#286AA6" points="20.6970692 28.0841405 13.7988776 24.1007691 20.6970692 20.1163999 20.6970692 28.0841405"></polyline>
                <polyline id="Fill-149" fill="#E4E4E3" points="20.6970692 36.0498857 13.7988776 32.0665142 20.6970692 28.0841405 20.6970692 36.0498857"></polyline>
                <polyline id="Fill-150" fill="#343534" points="6.89968821 20.1163999 0 16.1335273 6.89968821 12.1491582 6.89968821 20.1163999"></polyline>
                <polyline id="Fill-151" fill="#35A0CD" points="0 16.1335273 6.8986905 12.1491582 0 8.16828102 0 16.1335273"></polyline>
                <polyline id="Fill-152" fill="#286AA6" points="6.89968821 12.1491582 0 8.16828102 6.89968821 4.18441073 6.89968821 12.1491582"></polyline>
                <polyline id="Fill-153" fill="#286AA6" points="6.89968821 20.1163999 0 16.1335273 6.89968821 12.1491582 6.89968821 20.1163999"></polyline>
                <polyline id="Fill-154" fill="#286AA6" points="6.89968821 28.0841405 0 24.1007691 6.89968821 20.1163999 6.89968821 28.0841405"></polyline>
                <polyline id="Fill-155" fill="#286AA6" points="6.89968821 36.0498857 0 32.0665142 6.89968821 28.0841405 6.89968821 36.0498857"></polyline>
                <polyline id="Fill-156" fill="#286AA6" points="13.7978799 8.16828102 6.89968821 4.18441073 13.7978799 0.200540428 13.7978799 8.16828102"></polyline>
                <polyline id="Fill-157" fill="#E4E4E3" points="13.7978799 16.1335273 6.89968821 12.1491582 13.7978799 8.16828102 13.7978799 16.1335273"></polyline>
                <polyline id="Fill-158" fill="#E4E4E3" points="13.7978799 24.1007691 6.89968821 20.1163999 13.7978799 16.1335273 13.7978799 24.1007691"></polyline>
                <polyline id="Fill-159" fill="#E4E4E3" points="13.7978799 32.0665142 6.89968821 28.0841405 13.7978799 24.1007691 13.7978799 32.0665142"></polyline>
                <polyline id="Fill-160" fill="#E4E4E3" points="13.7978799 40.0322594 6.89968821 36.0498857 13.7978799 32.0665142 13.7978799 40.0322594"></polyline>
                <polyline id="Fill-161" fill="#286AA6" points="6.89968821 44.0166286 0 40.0322594 6.89968821 36.0498857 6.89968821 44.0166286"></polyline>
                <polyline id="Fill-162" fill="#286AA6" points="13.7978799 48 6.89968821 44.0166286 13.7978799 40.0322594 13.7978799 48"></polyline>
                <polyline id="Fill-163" fill="#286AA6" points="27.5957597 40.0322594 20.6970692 36.0498857 27.5957597 32.0665142 27.5957597 40.0322594"></polyline>
                <polyline id="Fill-164" fill="#286AA6" points="20.6970692 44.0166286 13.7978799 40.0322594 20.6970692 36.0498857 20.6970692 44.0166286"></polyline>
                <polyline id="Fill-165" fill="#35A0CD" points="0 24.1007691 6.8986905 20.1163999 0 16.1335273 0 24.1007691"></polyline>
                <polyline id="Fill-166" fill="#35A0CD" points="0 32.0665142 6.8986905 28.0841405 0 24.1007691 0 32.0665142"></polyline>
                <polygon id="Fill-167" fill="#35A0CD" points="13.7978799 8.16828102 6.89968821 4.18441073 6.89968821 12.1491582"></polygon>
                <polyline id="Fill-168" fill="#FFFFFE" points="6.89968821 20.1163999 13.7978799 16.1335273 6.89968821 12.1491582 6.89968821 20.1163999"></polyline>
                <polyline id="Fill-169" fill="#FFFFFE" points="6.89968821 28.0841405 13.7978799 24.1007691 6.89968821 20.1163999 6.89968821 28.0841405"></polyline>
                <polyline id="Fill-170" fill="#FFFFFE" points="6.89968821 36.0498857 13.7978799 32.0665142 6.89968821 28.0841405 6.89968821 36.0498857"></polyline>
                <polyline id="Fill-171" fill="#35A0CD" points="13.7988776 48 20.6970692 44.0166286 13.7988776 40.0322594 13.7988776 48"></polyline>
                <polyline id="Fill-172" fill="#35A0CD" points="6.89968821 44.0166286 13.7978799 40.0322594 6.89968821 36.0498857 6.89968821 44.0166286"></polyline>
                <polyline id="Fill-173" fill="#35A0CD" points="0 40.0322594 6.8986905 36.0498857 0 32.0665142 0 40.0322594"></polyline>
                <path d="M39.5827894,40.4403243 C39.9384743,40.6273956 40.5071711,40.8129703 41.0838495,40.8129703 C41.7064228,40.8129703 42.0346705,40.5555602 42.0346705,40.165953 C42.0346705,39.7928081 41.7503222,39.5802952 41.0304718,39.3308668 C40.0362503,38.9756807 39.378757,38.424444 39.378757,37.5539389 C39.378757,36.5332779 40.2407815,35.7605487 41.6435668,35.7605487 C42.3279983,35.7605487 42.8163791,35.8932446 43.1710663,36.062856 L42.8697568,37.1453752 C42.6387861,37.0301393 42.2032841,36.8615257 41.625608,36.8615257 C41.0399501,36.8615257 40.7561006,37.1363958 40.7561006,37.438703 C40.7561006,37.8213261 41.0838495,37.9899397 41.866057,38.2822698 C42.9226356,38.6733735 43.4115153,39.2246103 43.4115153,40.0676782 C43.4115153,41.0708792 42.6472667,41.9239243 41.0040324,41.9239243 C40.3205986,41.9239243 39.6456454,41.7373519 39.3084182,41.5512783 L39.5827894,40.4403243" id="Fill-174" fill="#343534"></path>
                <polygon id="Fill-175" fill="#343534" points="49.3119933 41.834629 50.6618998 41.834629 50.6618998 35.8488464 49.3119933 35.8488464"></polygon>
                <path d="M56.8033257,41.834629 L56.8033257,35.8488464 L58.3842029,35.8488464 L59.627354,38.0433174 C59.9830389,38.6733735 60.3287466,39.4186656 60.6046144,40.0951154 L60.6225733,40.0951154 C60.5417585,39.3039285 60.5153191,38.4962794 60.5153191,37.5898566 L60.5153191,35.8488464 L61.7594679,35.8488464 L61.7594679,41.834629 L60.3372272,41.834629 L59.0586572,39.5264186 C58.7034712,38.8863854 58.3043858,38.1136562 58.0200374,37.4127624 L57.9841197,37.4127624 C58.0290168,38.211931 58.0464768,39.054999 58.0464768,40.0317605 L58.0464768,41.834629 L56.8033257,41.834629" id="Fill-176" fill="#343534"></path>
                <path d="M69.0527541,38.8504677 C69.0527541,40.0317605 69.6044897,40.8578674 70.5099148,40.8578674 C71.4248181,40.8578674 71.9481189,39.9873623 71.9481189,38.8245271 C71.9481189,37.7410102 71.442777,36.8171274 70.5099148,36.8171274 C69.586032,36.8171274 69.0527541,37.6876325 69.0527541,38.8504677 Z M73.3788402,38.77963 C73.3788402,40.751112 72.1970484,41.9324049 70.4385783,41.9324049 C68.6716275,41.9324049 67.6235294,40.5914779 67.6235294,38.8774059 C67.6235294,37.0835169 68.777884,35.742091 70.536853,35.742091 C72.3751403,35.742091 73.3788402,37.1194346 73.3788402,38.77963 L73.3788402,38.77963 Z" id="Fill-177" fill="#343534"></path>
                <polygon id="Fill-178" fill="#343534" points="79.0204116 39.9529412 81.3475785 39.9529412 81.3475785 39.054999 79.0204116 39.054999"></polygon>
                <path d="M88.5106631,38.647433 C88.625899,38.6733735 88.7595926,38.6823529 88.963625,38.6823529 C89.6834754,38.6823529 90.1264602,38.3176886 90.1264602,37.7135731 C90.1264602,37.1638329 89.7453336,36.8345874 89.0618998,36.8345874 C88.7955103,36.8345874 88.608439,36.8530451 88.5106631,36.8794845 L88.5106631,38.647433 Z M87.169736,35.9291623 C87.5867803,35.8588235 88.1739347,35.8054459 89.0000416,35.8054459 C89.8341301,35.8054459 90.4292663,35.9655789 90.8293494,36.2843484 C91.2194554,36.5871544 91.468385,37.0835169 91.468385,37.6706714 C91.468385,38.2558304 91.2828102,38.7626689 90.9181459,39.0904178 C90.4557057,39.5169403 89.7712742,39.7209728 88.9726044,39.7209728 C88.7955103,39.7209728 88.6343795,39.7124922 88.5106631,39.6865517 L88.5106631,41.834629 L87.169736,41.834629 L87.169736,35.9291623 L87.169736,35.9291623 Z" id="Fill-179" fill="#343534"></path>
                <path d="M99.6790688,39.2864685 L99.3064228,38.0158803 C99.1996674,37.6606942 99.0929121,37.2172106 99.0036167,36.8615257 L98.9866556,36.8615257 C98.8973602,37.2172106 98.8085637,37.6706714 98.7102889,38.0158803 L98.354604,39.2864685 L99.6790688,39.2864685 Z M98.1605487,40.2991478 L97.7330285,41.834629 L96.3387238,41.834629 L98.1605487,35.8488464 L99.93598,35.8488464 L101.801704,41.834629 L100.336562,41.834629 L99.8741218,40.2991478 L98.1605487,40.2991478 L98.1605487,40.2991478 Z" id="Fill-180" fill="#343534"></path>
                <path d="M108.900436,38.5047599 L109.432717,38.5047599 C110.108169,38.5047599 110.508252,38.1670339 110.508252,37.6432343 C110.508252,37.1019746 110.135606,36.8171274 109.51403,36.8171274 C109.185284,36.8171274 108.998212,36.8345874 108.900436,36.8615257 L108.900436,38.5047599 Z M107.560008,35.9291623 C107.99551,35.8588235 108.634546,35.8054459 109.362877,35.8054459 C110.250343,35.8054459 110.871919,35.9381418 111.298441,36.2763667 C111.663105,36.5597173 111.858158,36.985741 111.858158,37.5364789 C111.858158,38.2922469 111.316899,38.8155477 110.80158,39.0016213 L110.80158,39.0285596 C111.219123,39.1971731 111.449096,39.5882769 111.600249,40.1385159 C111.787321,40.8234463 111.964415,41.604656 112.080649,41.834629 L110.695323,41.834629 C110.606028,41.6580337 110.454874,41.1786323 110.286261,40.4403243 C110.118146,39.6865517 109.860237,39.4905009 109.30052,39.4820204 L108.900436,39.4820204 L108.900436,41.834629 L107.560008,41.834629 L107.560008,35.9291623 L107.560008,35.9291623 Z" id="Fill-181" fill="#343534"></path>
                <path d="M117.837456,40.4403243 C118.193141,40.6273956 118.761837,40.8129703 119.340012,40.8129703 C119.961588,40.8129703 120.289836,40.5555602 120.289836,40.165953 C120.289836,39.7928081 120.004989,39.5802952 119.285138,39.3308668 C118.290917,38.9756807 117.63492,38.424444 117.63492,37.5539389 C117.63492,36.5332779 118.494949,35.7605487 119.898233,35.7605487 C120.583164,35.7605487 121.071046,35.8932446 121.426232,36.062856 L121.124423,37.1453752 C120.893951,37.0301393 120.457951,36.8615257 119.881272,36.8615257 C119.295115,36.8615257 119.010767,37.1363958 119.010767,37.438703 C119.010767,37.8213261 119.340012,37.9899397 120.121222,38.2822698 C121.177302,38.6733735 121.666681,39.2246103 121.666681,40.0676782 C121.666681,41.0708792 120.902931,41.9239243 119.259697,41.9239243 C118.575764,41.9239243 117.900811,41.7373519 117.562586,41.5512783 L117.837456,40.4403243" id="Fill-182" fill="#343534"></path>
                <path d="M128.713033,38.8504677 C128.713033,40.0317605 129.263771,40.8578674 130.169196,40.8578674 C131.084099,40.8578674 131.608397,39.9873623 131.608397,38.8245271 C131.608397,37.7410102 131.101559,36.8171274 130.169196,36.8171274 C129.245313,36.8171274 128.713033,37.6876325 128.713033,38.8504677 Z M133.03862,38.77963 C133.03862,40.751112 131.857327,41.9324049 130.098358,41.9324049 C128.331407,41.9324049 127.28281,40.5914779 127.28281,38.8774059 C127.28281,37.0835169 128.437664,35.742091 130.196633,35.742091 C132.033922,35.742091 133.03862,37.1194346 133.03862,38.77963 L133.03862,38.77963 Z" id="Fill-183" fill="#343534"></path>
                <path d="M138.892205,41.834629 L138.892205,35.8488464 L140.47408,35.8488464 L141.717231,38.0433174 C142.072417,38.6733735 142.418125,39.4186656 142.693993,40.0951154 L142.711453,40.0951154 C142.631137,39.3039285 142.605196,38.4962794 142.605196,37.5898566 L142.605196,35.8488464 L143.848348,35.8488464 L143.848348,41.834629 L142.428102,41.834629 L141.149033,39.5264186 C140.793349,38.8863854 140.393265,38.1136562 140.109915,37.4127624 L140.073498,37.4127624 C140.118395,38.211931 140.135855,39.054999 140.135855,40.0317605 L140.135855,41.834629 L138.892205,41.834629" id="Fill-184" fill="#343534"></path>
                <path d="M150.031179,40.4403243 C150.386863,40.6273956 150.955061,40.8129703 151.533236,40.8129703 C152.154812,40.8129703 152.48306,40.5555602 152.48306,40.165953 C152.48306,39.7928081 152.198212,39.5802952 151.47936,39.3308668 C150.484141,38.9756807 149.828144,38.424444 149.828144,37.5539389 C149.828144,36.5332779 150.689171,35.7605487 152.091956,35.7605487 C152.776387,35.7605487 153.264768,35.8932446 153.620453,36.062856 L153.317647,37.1453752 C153.087674,37.0301393 152.651673,36.8615257 152.074496,36.8615257 C151.488838,36.8615257 151.203991,37.1363958 151.203991,37.438703 C151.203991,37.8213261 151.533236,37.9899397 152.314446,38.2822698 C153.371524,38.6733735 153.860403,39.2246103 153.860403,40.0676782 C153.860403,41.0708792 153.096155,41.9239243 151.45292,41.9239243 C150.769487,41.9239243 150.094533,41.7373519 149.756807,41.5512783 L150.031179,40.4403243" id="Fill-185" fill="#343534"></path>
                <path d="M52.0721679,22.5393473 L55.9702349,22.5393473 L55.9702349,12.9617959 L52.0721679,12.9617959 L52.0721679,22.5393473 Z M42.6367907,22.5393473 L46.5917273,22.5393473 L46.5917273,12.9617959 L42.6367907,12.9617959 L42.6367907,22.5393473 Z M52.0721679,25.2511328 L52.0721679,31.0987321 L46.5917273,31.0987321 L46.5917273,25.2511328 L37.3823322,25.2511328 L37.3823322,10.2500104 L46.5917273,10.2500104 L46.5917273,6.09802536 L52.0721679,6.09802536 L52.0721679,10.2500104 L61.3379339,10.2500104 L61.3379339,25.2511328 L52.0721679,25.2511328 L52.0721679,25.2511328 Z" id="Fill-186" fill="#343534"></path>
                <path d="M80.5718562,22.0300145 L79.0752858,14.8554562 L83.9905217,14.8554562 L85.5718977,22.0300145 L80.5718562,22.0300145 Z M80.4591145,13.5549366 L79.0463521,7.02939098 L84.0753274,7.02939098 L85.4870921,13.5549366 L80.4591145,13.5549366 Z M90.9959676,24.9677822 L90.9959676,31.0413635 L85.9969237,31.0413635 L85.9969237,25.7874039 L79.0179173,26.9168156 L79.0179173,24.2045313 L85.9969237,23.1035544 L85.9969237,6.21026814 L90.9959676,6.21026814 L90.9959676,22.2839327 L92.5219705,22.0300145 L92.5219705,24.7422989 L90.9959676,24.9677822 Z M76.3345666,29.4031179 L75.7977967,17.0868427 L78.1987944,17.0868427 L78.7929329,29.4031179 L76.3345666,29.4031179 Z M77.6620245,10.0514654 L75.1762212,10.0514654 L75.1762212,13.215714 L78.5943879,13.215714 L78.5943879,15.8152567 L75.1762212,15.8152567 L75.1762212,31.0413635 L70.6565787,31.0413635 L70.6565787,15.8152567 L67.238412,15.8152567 L67.238412,13.215714 L70.6565787,13.215714 L70.6565787,10.0514654 L67.6060694,10.0514654 L67.6060694,7.45341925 L72.8884639,7.45341925 L73.3119933,6.21026814 L78.9615465,6.21026814 L77.6620245,10.0514654 Z M69.5551029,29.3751819 L67.1815423,29.3751819 L67.746747,17.0868427 L70.035502,17.0868427 L69.5551029,29.3751819 L69.5551029,29.3751819 Z" id="Fill-187" fill="#343534"></path>
                <path d="M113.876533,28.3585117 L117.576554,28.3585117 L117.576554,21.3241322 L113.876533,21.3241322 L113.876533,28.3585117 Z M113.876533,18.5839119 L117.576554,18.5839119 L117.576554,11.8598212 L113.876533,11.8598212 L113.876533,18.5839119 Z M108.819123,31.0413635 L108.819123,9.20490543 L111.898566,9.20490543 L112.858366,6.12496363 L118.705467,6.12496363 L117.71773,9.20490543 L122.632467,9.20490543 L122.632467,31.0413635 L108.819123,31.0413635 Z M106.446061,28.9511536 L105.853419,13.7250468 L107.802453,13.7250468 L108.367159,28.9511536 L106.446061,28.9511536 Z M99.8077739,28.9511536 L97.8013719,28.9511536 L98.0567865,13.7250468 L99.9768863,13.7250468 L99.8077739,28.9511536 Z M105.400956,12.39709 L105.400956,31.0413635 L100.542091,31.0413635 L100.542091,12.39709 L97.8013719,12.39709 L97.8013719,9.82648098 L100.542091,9.82648098 L100.542091,6.1818333 L105.400956,6.1818333 L105.400956,9.82648098 L108.141675,9.82648098 L108.141675,12.39709 L105.400956,12.39709 L105.400956,12.39709 Z" id="Fill-188" fill="#343534"></path>
                <path d="M142.0365,24.3741426 L142.940428,24.3741426 L142.940428,17.7358553 L142.0365,17.7358553 L142.0365,24.3741426 Z M145.793889,11.9451258 L142.0365,11.9451258 L142.0365,15.0525047 L145.821326,15.0525047 L145.821326,24.5726876 L146.753689,22.7074621 L145.793889,11.9451258 Z M150.906672,20.335398 L151.669424,28.4428185 L153.815506,28.4428185 L153.052754,31.0697984 L147.515943,31.0697984 L147.234089,27.566826 L145.737019,30.4771565 L142.826689,30.4771565 L144.521804,27.1143629 L142.855623,27.1143629 L142.0365,24.7991686 L142.0365,28.131033 L141.188443,31.0697984 L136.51615,31.0697984 L136.668302,30.5325296 L137.572729,27.3687799 L137.572729,9.20490543 L145.595843,9.20490543 L145.341925,6.12496363 L149.747828,6.12496363 L149.974309,9.20490543 L150.680191,9.20490543 L150.397838,6.77547287 L152.65766,6.77547287 L152.82777,9.20490543 L153.477281,9.20490543 L153.477281,11.9451258 L150.285097,11.9451258 L150.483642,15.3632925 L151.132155,14.1765122 L154.041987,14.1765122 L150.906672,20.335398 L150.906672,20.335398 Z" id="Fill-189" fill="#343534"></path>
                <polyline id="Fill-190" fill="#343534" points="135.612222 11.8987321 135.612222 27.5009769 137.027978 27.4979838 136.006818 31.0413635 131.096072 31.0413635 131.096072 15.7025151 129.367533 15.7025151 129.367533 11.8987321 135.612222 11.8987321"></polyline>
                <polyline id="Fill-191" fill="#343534" points="135.601746 10.5583039 130.665059 10.5583039 129.869383 6.12496363 134.806568 6.12496363 135.601746 10.5583039"></polyline>
                <path d="M35.0287258,2.97218873 C35.0287258,4.61392642 33.6982748,5.94487633 32.0565371,5.94487633 C30.4147994,5.94487633 29.0838495,4.61392642 29.0838495,2.97218873 C29.0838495,1.33144876 30.4147994,0 32.0565371,0 C33.6982748,0 35.0287258,1.33144876 35.0287258,2.97218873 Z" id="Stroke-252" stroke="#343534"></path>
                <path d="M31.1401372,2.79758886 L32.2475993,2.79758886 C32.3997506,2.79758886 32.5314488,2.78661401 32.6416961,2.76316774 C32.7519435,2.74022033 32.8422365,2.70380378 32.9130742,2.65292039 C32.983413,2.60253586 33.0352941,2.5361879 33.0687175,2.45287882 C33.1016421,2.37106631 33.1181043,2.26979838 33.1181043,2.15007275 C33.1181043,1.93556433 33.0517564,1.77692787 32.9200582,1.67466223 C32.7873623,1.57289545 32.5873207,1.52251091 32.3189358,1.52251091 L31.1401372,1.52251091 L31.1401372,2.79758886 Z M33.7571399,4.83591769 L33.2198711,4.83591769 L32.8701725,3.83620869 C32.8387445,3.74990646 32.7968406,3.67058824 32.7444606,3.59775514 C32.6920806,3.52492205 32.6307213,3.46306381 32.5603825,3.41068385 C32.4895448,3.35830389 32.4112243,3.31689877 32.3259198,3.28796508 C32.2411141,3.25853253 32.1503222,3.24406568 32.0545417,3.24406568 L31.1401372,3.24406568 L31.1401372,4.83591769 L30.6467678,4.83591769 L30.6467678,1.10845978 L32.2969861,1.10845978 C32.398254,1.10845978 32.4940345,1.11095406 32.5848264,1.11544377 C32.6761172,1.1209312 32.7624195,1.13040948 32.8437331,1.14786947 C32.9255456,1.16383288 33.0028684,1.18877572 33.0752027,1.22070256 C33.1480358,1.25262939 33.2173768,1.29553107 33.2832259,1.35140303 C33.3954687,1.45067554 33.4807732,1.57090002 33.5396383,1.7130742 C33.5980046,1.8562461 33.6274371,2.00141343 33.6274371,2.15007275 C33.6274371,2.28077323 33.6084806,2.40049886 33.5695697,2.50974849 C33.5311578,2.61949699 33.4757847,2.71577635 33.4034504,2.800582 C33.3306173,2.8848888 33.2423197,2.95672417 33.1385575,3.0140927 C33.0347953,3.07196009 32.9190605,3.1133652 32.7903554,3.13930576 L32.7903554,3.14678861 C33.0512575,3.23009769 33.2503014,3.4550821 33.3879859,3.8222407 L33.7571399,4.83591769 L33.7571399,4.83591769 Z" id="Fill-253" fill="#343534"></path>
            </g>
        </g>
    </g>
</svg>