<?xml version="1.0" encoding="utf-8"?>
<!-- Generator: Adobe Illustrator 25.0.1, SVG Export Plug-In . SVG Version: 6.00 Build 0)  -->
<svg version="1.1" id="图层_1" xmlns="http://www.w3.org/2000/svg" xmlns:xlink="http://www.w3.org/1999/xlink" x="0px" y="0px"
	 viewBox="0 0 167.9 26.6" style="enable-background:new 0 0 167.9 26.6;" xml:space="preserve">
<style type="text/css">
	.st0{fill:#E81C1D;}
	.st1{fill-rule:evenodd;clip-rule:evenodd;fill:#231815;}
</style>
<g>
	<g>
		<rect x="16.3" y="5.8" width="3.3" height="20.2"/>
		<path d="M35.2,15c-0.4-1-0.9-1.8-1.6-2.5c-0.7-0.7-1.5-1.3-2.4-1.7c-0.9-0.4-1.9-0.6-3-0.6c-1.1,0-2.1,0.2-3,0.6
			c-0.9,0.4-1.7,1-2.4,1.7C22,13.2,21.5,14,21.1,15c-0.4,1-0.6,2-0.6,3.1c0,1.1,0.2,2.2,0.6,3.1c0.4,1,0.9,1.8,1.6,2.5
			c0.7,0.7,1.5,1.3,2.4,1.7c0.9,0.4,1.9,0.6,3,0.6c1.1,0,2.1-0.2,3-0.6c0.9-0.4,1.7-1,2.4-1.7c0.7-0.7,1.2-1.6,1.6-2.5
			c0.4-1,0.6-2,0.6-3.1C35.8,17,35.6,15.9,35.2,15z M32.5,18.1c0,0.7-0.1,1.3-0.3,1.8c-0.2,0.6-0.5,1-0.9,1.4
			c-0.4,0.4-0.8,0.7-1.4,0.9c-0.5,0.2-1.1,0.3-1.7,0.3c-0.6,0-1.2-0.1-1.7-0.3c-0.5-0.2-1-0.6-1.4-0.9c-0.4-0.4-0.7-0.9-0.9-1.4
			c-0.2-0.6-0.3-1.2-0.3-1.8c0-0.7,0.1-1.3,0.3-1.8c0.2-0.6,0.5-1,0.9-1.4c0.4-0.4,0.8-0.7,1.4-0.9c0.5-0.2,1.1-0.3,1.7-0.3
			c0.6,0,1.2,0.1,1.7,0.3c0.5,0.2,1,0.6,1.4,0.9c0.4,0.4,0.7,0.9,0.9,1.4C32.4,16.8,32.5,17.5,32.5,18.1z"/>
		<path d="M47.4,10.4v8.5c0,1.2-0.3,2.2-0.9,2.8c-0.6,0.6-1.5,0.9-2.7,0.9c-0.5,0-0.9-0.1-1.4-0.2c-0.4-0.1-0.8-0.3-1.1-0.6
			c-0.3-0.3-0.6-0.7-0.7-1.2c-0.2-0.5-0.3-1.3-0.3-2.2v-8H37v8c0,1.3,0.2,2.5,0.6,3.4c0.4,1,0.9,1.9,1.7,2.5c0.5,0.4,1,0.7,1.5,1
			c0.5,0.2,1,0.4,1.4,0.5c0.4,0.1,0.8,0.1,1.1,0.1c0.3,0,0.5,0,0.6,0c0.9,0,1.8-0.2,2.6-0.5c0.3-0.1,0.6-0.2,0.8-0.4l0,0.6h3.3V10.4
			H47.4z"/>
		<path d="M63.7,5.4v6c-0.3-0.2-0.6-0.4-0.8-0.5c-1-0.5-2.1-0.8-3.4-0.8c-1.2,0-2.2,0.2-3.2,0.7c-0.9,0.4-1.7,1-2.4,1.8
			c-0.7,0.7-1.2,1.6-1.5,2.5c-0.4,0.9-0.5,1.9-0.5,3c0,1,0.2,2,0.5,2.9c0.3,1,0.9,1.8,1.5,2.6c0.7,0.8,1.5,1.4,2.4,1.8
			c0.9,0.5,2,0.7,3.2,0.7c0.7,0,1.3,0,1.9,0c0.6,0,1.2-0.1,1.7-0.2c0.6-0.1,1.1-0.3,1.7-0.5c0.6-0.2,1.2-0.5,1.8-0.9l0.5-0.3V5.4
			H63.7z M63.7,17.9c0,0.8,0,1.6,0,2.4c0,0.6,0,1.2,0,1.8c-0.6,0.2-1.2,0.3-1.7,0.4c-0.7,0.1-1.3,0.2-1.9,0.2c-1,0-1.8-0.2-2.4-0.5
			c-0.6-0.3-1.2-0.7-1.5-1.2c-0.4-0.5-0.6-1-0.8-1.5c-0.2-0.6-0.2-1.1-0.2-1.5c0-0.7,0.1-1.3,0.3-1.9c0.2-0.6,0.5-1,0.9-1.4
			c0.4-0.4,0.9-0.7,1.4-0.9c0.5-0.2,1.1-0.3,1.7-0.3c0.6,0,1.2,0.1,1.7,0.4c0.5,0.2,1,0.6,1.4,1c0.4,0.4,0.7,0.9,0.9,1.4
			C63.7,16.7,63.8,17.3,63.7,17.9z"/>
		<g>
			<rect x="85.7" y="10.7" width="3.3" height="15.2"/>
			<rect x="85.7" y="4.1" width="3.3" height="4.9"/>
		</g>
		<g>
			<g>
				<path d="M101.3,25v-7c0-1-0.1-1.8-0.4-2.5c-0.2-0.6-0.6-1.2-1-1.6c-0.3-0.3-0.7-0.5-1.1-0.7c-0.5-0.2-1.1-0.3-2-0.3l-4.4,0V25
					H91l0-13.7h5.9c0.2,0,0.5,0,0.8,0c0.3,0,0.7,0.1,1,0.2c0.4,0.1,0.7,0.2,1.1,0.4c0.4,0.2,0.8,0.4,1.2,0.7
					c1.3,1.1,1.9,2.9,1.9,5.3v7H101.3z"/>
				<path d="M103.3,25.4h-2.4v-7.5c0-1-0.1-1.7-0.3-2.3c-0.2-0.6-0.5-1.1-0.9-1.4c-0.2-0.2-0.6-0.4-1-0.6c-0.4-0.2-1-0.3-1.8-0.3
					l-4,0v12.1h-2.3l0-14.5h6.3c0.2,0,0.5,0,0.8,0c0.3,0,0.7,0.1,1.1,0.2c0.4,0.1,0.8,0.2,1.2,0.4c0.4,0.2,0.8,0.5,1.3,0.8
					c1.4,1.2,2.1,3.1,2.1,5.6V25.4z M101.7,24.6h0.7v-6.6c0-2.3-0.6-3.9-1.8-5c-0.3-0.3-0.7-0.5-1.1-0.7c-0.4-0.2-0.7-0.3-1.1-0.4
					c-0.3-0.1-0.6-0.1-0.9-0.2c-0.3,0-0.6,0-0.8,0h-5.5l0,12.8h0.7V12.4l4.8,0c0.9,0,1.6,0.1,2.1,0.4c0.5,0.2,0.9,0.5,1.2,0.8
					c0.5,0.4,0.8,1,1.1,1.7c0.3,0.7,0.4,1.6,0.4,2.6V24.6z"/>
			</g>
		</g>
		<path d="M101.5,12c-0.4-0.4-0.9-0.7-1.4-0.9c-0.4-0.2-0.9-0.3-1.3-0.5c-0.4-0.1-0.8-0.2-1.2-0.2c-0.3,0-0.6,0-0.9,0h-6.8l0,15.5
			h3.3V13.8l3.5,0c0.7,0,1.2,0.1,1.6,0.3c0.4,0.2,0.7,0.4,0.9,0.6c0.3,0.3,0.6,0.7,0.7,1.2c0.2,0.5,0.3,1.3,0.3,2.2v8h3.3v-8
			C103.7,15.3,103,13.3,101.5,12z"/>
		<g>
			<g>
				<path d="M113.9,25l-4.2-5.5c-0.4,0.5-0.7,1-1.1,1.5c-0.3,0.5-0.7,1-1.1,1.5V25h-1.5V6.7h1.5l0,13c1-1.4,2-2.7,2.9-4.1
					c1-1.3,2-2.7,2.9-4h2l-4.8,6.5c0.4,0.5,0.8,1.1,1.3,1.7c0.4,0.6,0.9,1.2,1.4,1.8c0.5,0.6,0.9,1.2,1.3,1.8
					c0.4,0.6,0.9,1.1,1.2,1.6H113.9z"/>
				<path d="M116.7,25.4h-3l-4-5.3c-0.3,0.4-0.5,0.7-0.7,1c-0.3,0.4-0.6,0.9-1,1.4v2.9h-2.3V6.3h2.3l0,12.2c0.7-1,1.5-2,2.2-3.1
					c1-1.3,2-2.7,2.9-4l0.1-0.2h3l-5.1,7c0.3,0.4,0.7,0.9,1.1,1.4c0.4,0.6,0.9,1.2,1.4,1.8c0.5,0.6,0.9,1.2,1.3,1.8
					c0.4,0.6,0.8,1.1,1.2,1.6L116.7,25.4z M114.1,24.6h1c-0.2-0.3-0.5-0.6-0.7-0.9c-0.4-0.6-0.9-1.2-1.3-1.7
					c-0.5-0.6-0.9-1.2-1.4-1.8c-0.4-0.6-0.9-1.1-1.3-1.7l-0.2-0.3l4.5-6.1h-1c-0.9,1.3-1.9,2.6-2.8,3.9c-1,1.3-2,2.7-2.9,4.1l-0.7,1
					l-0.1-13.9h-0.7v17.5h0.7v-2.3l0.1-0.1c0.4-0.5,0.7-1,1.1-1.5c0.3-0.5,0.7-0.9,1.1-1.5l0.3-0.4L114.1,24.6z"/>
			</g>
		</g>
		<path d="M116.2,24.4c-0.4-0.5-0.8-1-1.2-1.6c-0.4-0.6-0.9-1.2-1.3-1.8l-1.3-1.8c-0.3-0.4-0.6-0.8-0.8-1.1l5.4-7.4h-4.2l-0.3,0.4
			c-1,1.3-2,2.7-2.9,4c-0.5,0.6-0.9,1.3-1.4,1.9l0-11.2h-3.3v20.1h3.3v-3.2c0.3-0.4,0.6-0.9,0.9-1.3c0.1-0.2,0.2-0.3,0.4-0.5l3.7,5
			h4.2L116.2,24.4z"/>
		<path d="M83.7,24.5c-0.5-0.7-1-1.4-1.5-2.2c-0.5-0.8-1.1-1.5-1.6-2.3c-0.5-0.8-1.1-1.6-1.6-2.4L77.9,16c-0.1,0.1-0.2,0.3-0.3,0.4
			c0,0,0,0-0.1,0.1c0,0,0,0,0,0c0,0-0.1,0.1-0.1,0.1c0,0,0,0-0.1,0c0,0,0,0,0,0c0,0,0,0,0,0c-0.1,0-0.1,0.1-0.2,0.1c0,0,0,0-0.1,0
			c0,0,0,0,0,0c-0.1,0-0.1,0.1-0.2,0.1c0,0-0.1,0-0.1,0c0,0-0.1,0-0.1,0c0,0,0,0,0,0c-0.1,0-0.1,0-0.2,0c0,0-0.1,0-0.1,0
			c-0.1,0-0.2,0-0.3,0c-0.1,0-0.2,0-0.3,0c0,0-0.1,0-0.1,0c-0.1,0-0.1,0-0.2,0c0,0,0,0-0.1,0c0,0,0,0-0.1,0c0,0-0.1,0-0.1,0
			c-0.1,0-0.2-0.1-0.2-0.1c0,0,0,0-0.1,0c0,0,0,0,0,0c-0.1,0-0.2-0.1-0.2-0.1c0,0,0,0,0,0c0,0,0,0-0.1-0.1c0,0,0,0,0,0
			c0,0-0.1-0.1-0.1-0.1c0,0,0,0,0,0c0,0,0,0,0,0c-0.1-0.1-0.2-0.3-0.3-0.4l-6.6,9.9h4l0.3-0.4c0.8-1.2,1.7-2.5,2.6-3.8
			c0.6-0.9,1.3-1.9,1.9-2.8l4.7,7h4.1L83.7,24.5z"/>
		<path class="st0" d="M77.8,14.3c0,0,0.1-0.1,0.1-0.1l7.8-11.7l-4,0l-5.9,8.8l-3-4.5l-4,0l5,7.5l0,0c0.4,0.6,1.1,1,2,1
			C76.6,15.3,77.3,14.9,77.8,14.3L77.8,14.3L77.8,14.3z"/>
		<g>
			<rect x="156.3" y="18" transform="matrix(0.866 -0.5001 0.5001 0.866 10.8276 81.5055)" width="2.4" height="5"/>
			<polygon points="165,17.6 162.5,18.2 165.2,27.1 167.5,26.4 			"/>
			<path d="M153.1,23.6v-5.6h-2.4v5.6c0,1.8,1.6,3.2,3.4,3.2h8.2v-2.4h-8.2C153.6,24.5,153.1,24.1,153.1,23.6z"/>
			<path d="M146.8,18c-0.4,2.9-1.1,5.6-2,7.7l-0.1,0.3l2.2,1l0.1-0.3c1.1-2.5,1.8-5.3,2.2-8.2l0-0.3l-2.4-0.5L146.8,18z"/>
		</g>
		<g>
			<g>
				<rect x="140.6" y="17.5" class="st0" width="1.6" height="1.6"/>
				<path class="st0" d="M142.4,19.4h-2v-2h2V19.4z M140.8,19h1.3v-1.3h-1.3V19z"/>
			</g>
			<g>
				<path class="st0" d="M142.4,19.4h-2v-2h2V19.4z M140.8,19h1.3v-1.3h-1.3V19z"/>
				<path class="st0" d="M142.6,19.5h-2.3v-2.3h2.3V19.5z M140.6,19.2v-1.6h1.6h-1.6V19.2z M140.9,18.8h0.9v-0.9h-0.9V18.8z"/>
			</g>
		</g>
		<rect x="122.7" y="5" width="20.1" height="2.3"/>
		<path d="M143.7,14.3V12h-21.9v2.3h4l-2.8,12h16.1c1.9,0,3.4-1.5,3.4-3.4v-2h-2.3v2c0,0.6-0.5,1-1,1h-13.3l2.4-9.6H143.7z"/>
		<path d="M13.8,21.2c-1,0.8-2.3,1.3-3.7,1.3c-3.6,0-6.5-3.3-6.5-7.3c0-4,2.9-7.3,6.5-7.3c1.3,0,2.9,0.4,3.9,1.2l1.1-3.3
			c-1.4-0.8-3.3-1.2-5-1.2c-5.4,0-9.9,4.8-9.9,10.6s4.4,10.6,9.9,10.6c1.7,0,3.2-0.4,4.6-1.2L13.8,21.2
			C13.8,21.2,13.8,21.2,13.8,21.2z"/>
		<path d="M166.3,12.9V4.1h-19.6v12.3h16.2C165.3,16.5,166.4,15.4,166.3,12.9z M155.1,14.5h-5.8v-3.4h5.8V14.5z M155.1,9.4h-5.8V6.1
			h5.8V9.4z M163.7,12.8c0.1,1.2-0.5,1.8-1.7,1.7h-4.2v-3.4h5.8V12.8z M163.7,9.4h-5.8V6.1h5.8V9.4z"/>
	</g>
	<g>
		<path class="st1" d="M116.3,2.1h0.6c0.3,0,0.5,0.1,0.5,0.4c0,0.3-0.2,0.5-0.5,0.5h-0.6V2.1L116.3,2.1z M116.3,3.6h0.8
			c0.2,0,0.3,0.1,0.3,0.4c0,0.3,0.1,0.6,0.1,0.9h0.8c-0.1-0.1-0.1-0.4-0.2-0.8c0,0,0-0.1,0-0.1c0-0.5-0.2-0.7-0.6-0.7v0
			c0.4-0.1,0.7-0.4,0.7-0.8c0-0.6-0.4-0.9-1.2-0.9h-1.4v3.3h0.7V3.6L116.3,3.6z"/>
		<path class="st1" d="M116.7,0.2c1.7,0,3.1,1.4,3.1,3.1c0,1.7-1.4,3.1-3.1,3.1c-1.7,0-3.1-1.4-3.1-3.1C113.7,1.6,115,0.2,116.7,0.2
			L116.7,0.2z M116.7,0.9c1.3,0,2.4,1.1,2.4,2.4c0,1.3-1.1,2.4-2.4,2.4c-1.3,0-2.4-1.1-2.4-2.4C114.4,1.9,115.4,0.9,116.7,0.9
			L116.7,0.9z"/>
	</g>
</g>
</svg>
