<?xml version="1.0" standalone="no"?><!DOCTYPE svg PUBLIC "-//W3C//DTD SVG 1.1//EN" "http://www.w3.org/Graphics/SVG/1.1/DTD/svg11.dtd"><svg t="1633755975683" class="icon" viewBox="0 0 2709 1024" version="1.1" xmlns="http://www.w3.org/2000/svg" p-id="1035" xmlns:xlink="http://www.w3.org/1999/xlink" width="169.3125" height="64"><defs><style type="text/css"></style></defs><path d="M241.693222 533.676981c58.919389-3.733126 108.687288 21.065495 108.687288 51.687791 0.127993 1.237265 0.127993 2.495861 0 3.733126l-0.063996 1.653241c-0.277318 3.903783-1.258597 8.191544 0.05333 11.092717 1.49325 3.349147 3.47714 6.431642 5.877006 9.151491a72.070658 72.070658 0 0 0 17.919004 14.409865 421.971195 421.971195 0 0 0 45.650794 25.086604 468.944582 468.944582 0 0 0 54.674292 20.649518c10.48475 3.594467 21.289482 6.143658 32.264872 7.615577 6.559635 0.831954 12.713959 1.525248 20.233541 1.663907 7.519582 0.138659 19.817564-1.38659 29.246373-2.346536l7.295594-0.671963a252.465957 252.465957 0 0 1 21.961445-0.725292c31.315591-0.319982 62.44986 4.874396 91.994883 15.380477l0.682629 0.693295a138.978936 138.978936 0 0 1 47.570687 27.721125 63.804451 63.804451 0 0 0 22.825397 13.855229c17.513692 6.35698 36.157989 8.852841 54.684958 7.338259a418.878033 418.878033 0 0 0 38.40853-5.81301 78.310311 78.310311 0 0 0 20.777511-7.487584 127.971548 127.971548 0 0 1 37.181932-12.479306l5.365035-0.853286a170.870495 170.870495 0 0 1 43.304258-0.661296c40.733734 4.298428 71.900001 22.857395 75.313144 44.904169 4.650408 29.651684-39.357811 54.588963-94.042769 54.034327-26.025219 0.853286-51.762454-5.781012-74.235871-19.124269a66.449637 66.449637 0 0 0-15.988444-7.764902 137.080375 137.080375 0 0 0-41.000386-7.615576c-31.443584-1.38659-54.268981 16.073773-72.454636 26.323869-3.914449 2.229209-7.711571 4.67174-11.348702 7.348925a227.965986 227.965986 0 0 1-129.720784 34.920724 274.342073 274.342073 0 0 1-37.45925-2.495861 148.354414 148.354414 0 0 0-30.344979-0.693295h-0.959946a302.543171 302.543171 0 0 0-40.051106 6.644964 336.802599 336.802599 0 0 0-33.214152 10.122103c-10.527414 3.733126-20.638852 7.615576-30.078327 11.914004a218.259859 218.259859 0 0 0-47.975998 30.20632l-10.250097 8.458196c-3.306483 2.623854-6.090328 5.86634-8.212876 9.556802-2.165213 4.266429-3.157158 9.066162-2.858508 13.865895 4.650408 8.426198 6.015665 18.302982 3.82912 27.699793-7.658241 33.395476-59.463359 59.036716-121.93455 61.1166-79.974218 2.773179-145.719894-32.563522-139.576236-75.110489 4.789067-33.38481 54.823617-60.551299 117.294808-64.017772a242.781162 242.781162 0 0 1 51.805119 2.63452c7.636909-0.031998 15.252485-0.533304 22.825397-1.525248a96.357307 96.357307 0 0 0 18.046996-4.287762l16.127103-5.407699a293.956982 293.956982 0 0 0 57.276814-25.779899 233.82166 233.82166 0 0 0 22.558745-15.785789 132.685953 132.685953 0 0 0 19.273595-17.599021 64.721733 64.721733 0 0 0 12.852618-21.065495c1.845231-5.066385 2.858508-10.399422 2.997167-15.796454a25.118603 25.118603 0 0 0-0.959947-7.071607 46.461416 46.461416 0 0 1-1.226598-10.666073c0.05333-5.631687 1.066607-11.210043 3.007832-16.48975v-0.970613a25.129269 25.129269 0 0 0 0-11.775345 35.144712 35.144712 0 0 0-3.007832-10.815398 51.005163 51.005163 0 0 0-13.66324-17.172378 272.166194 272.166194 0 0 0-38.54719-28.969055 445.009913 445.009913 0 0 0-47.165376-24.382644 138.232311 138.232311 0 0 0-27.337146-10.122104c-5.333037-1.247931-11.071384-2.346536-17.364367-3.17849a137.037711 137.037711 0 0 0-20.905504-1.24793h-7.114271c-57.554132 0-103.482244-26.611853-96.922609-57.916778 5.066385-23.838674 41.277704-43.101602 86.128543-45.597464zM735.905732 533.303668C777.17277 533.303668 810.621576 552.5026 810.621576 576.042624S777.044777 618.632255 735.745741 618.632255C694.468037 618.632255 661.296549 599.433323 661.296549 575.893299S694.606696 533.303668 735.895066 533.303668z" fill="#F4F3F3" p-id="1036"></path><path d="M693.710746 170.657174A74.662514 74.662514 0 1 0 618.632255 95.856001 74.523855 74.523855 0 0 0 693.710746 170.657174z" fill="#2AA396" p-id="1037"></path><path d="M170.657174 0c57.362143 0 107.364695 45.11749 107.364694 101.924997l0.042665 5.685017C288.677276 203.615341 370.486058 277.317908 469.307228 277.317908h31.99822c55.484914 0 104.367528 28.243762 133.069932 71.142709l1.322593 2.495861 3.626465 6.079662 3.519804 5.610354a85.275257 85.275257 0 0 0 68.66818 34.632741 85.051269 85.051269 0 0 0 59.751343-24.414642l3.551803-3.626465C792.201267 351.745767 816.029275 341.314348 842.619796 341.314348a95.99466 95.99466 0 1 1-65.756342 165.932103 84.933942 84.933942 0 0 0-64.711067-29.779677 85.253924 85.253924 0 0 0-71.078713 38.10988l-1.877229 2.986501C611.336661 565.664535 560.011516 597.300109 501.305448 597.300109c-9.503471 0-18.814953-0.831954-27.859783-2.421199a145.218589 145.218589 0 0 0-31.432919-3.381145c-82.470079 0-149.325027 66.854948-149.325027 149.325027 0 13.748569 4.479751 26.611853 5.333037 39.699125 0.287984 4.266429 0.501305 7.1996 0.629298 8.767512 0 82.470079-66.854948 149.325027-149.325027 149.325027S0 871.759508 0 789.289429c0-80.742175 64.103101-146.530516 144.194646-149.239698L149.325027 639.964402v-0.426643c3.72246 0.234654 7.466251 0.35198 11.242041 0.35198 100.143763 0 181.323247-81.19015 181.323248-181.323247 0-3.551802-0.575968-17.673684-0.575968-21.257484v-31.99822c0-102.244979-79.750231-186.869605-180.523292-192.735946l-2.442531-0.127993L149.325027 211.188253c-49.170598-8.458196-85.328587-52.925056-85.328587-104.527519C63.99644 47.75201 111.748451 0 170.657174 0z" fill="#554F70" p-id="1038"></path><path d="M2580.315137 692.078836c14.708515 6.623632 21.236152 15.145824 24.105325 22.708071l0.469308 1.322593c0.213321 0.65063 0.405311 1.301261 0.575968 1.941225l0.29865 1.258597 0.245319 1.226598 0.19199 1.183934 0.149325 1.151936 0.10666 1.109272 0.074663 1.066607 0.042664 1.013277 0.021332 0.959947v0.938614l-0.031998 1.674574-0.042664 1.386589v40.307092c0 7.071607-1.109272 14.132547-3.711794 20.692182-3.23182 8.127548-9.215487 17.3857-20.244207 21.908115-22.046774 9.012832-42.600297 9.983445-68.796173 1.599911l4.37309-15.071162 2.666518 0.671963 2.122549 0.490639 2.645186 0.554636 2.271874 0.426643 2.506527 0.426643 1.781234 0.287984 2.815844 0.383978 1.962557 0.234654 2.026554 0.202655 1.023943 0.085329 2.09055 0.159991 2.133215 0.106661 2.154547 0.074662c10.868729 0.223988 22.526747-1.407922 30.355645-7.754235l0.778623-0.650631c5.717015-4.479751 7.487584-12.308649 7.999555-17.641685l0.117327-1.38659 0.063996-1.237264 0.021333-1.066607v-1.397256l-0.031999-0.565302v-36.029996c0-6.154324-1.1946-12.319315-3.999777-17.812342-4.117104-8.031553-12.308649-16.980389-28.425086-16.980389-29.299704 0-41.448361 19.892227-35.507358 41.768343 5.951669 21.886783 45.053494 26.72918 61.1166 12.873951v17.204376l-0.725293 0.383979-1.034609 0.501305-1.066607 0.479974-1.301261 0.533303-1.525248 0.586634-1.130604 0.405311-1.237265 0.405311-1.322593 0.405311-1.418588 0.40531-1.49325 0.373313a64.348421 64.348421 0 0 1-0.789289 0.191989l-1.63191 0.351981-1.706571 0.319982a66.108323 66.108323 0 0 1-2.709183 0.415977l-1.909227 0.213321c-9.706127 1.002611-22.142768 0.127993-35.987332-5.973001-32.29687-14.249874-28.009109-55.570242-13.588577-70.150764 14.431197-14.580522 42.888281-24.809287 72.059992-11.658019z m62.471191-4.853063v53.031717l0.053331 1.034609c0.319982 2.666518 0.853286 5.205044 1.706571 7.583578 0.874618 2.431865 2.197211 4.767735 3.946448 7.00761 1.621243 2.250541 4.149103 3.935781 7.60491 5.055719 3.434476 1.130604 7.636909 1.674574 12.639297 1.674574 3.797122 0 7.124937-0.511972 9.994111-1.567913 2.858508-1.066607 5.151713-2.730515 6.922281-4.981056 1.749236-2.229209 3.114493-4.639742 4.07444-7.188934 0.938614-2.559858 1.418588-5.333037 1.418588-8.330203V687.215107h20.884172v53.597019l0.05333 0.469307 0.159991 1.781234v1.599911c-0.138659 3.733126-0.906616 7.370257-2.303872 10.932725a36.435307 36.435307 0 0 1-6.474306 10.388756 30.931613 30.931613 0 0 1-10.67674 8.127548c-4.31976 2.069218-9.492805 3.519804-15.487138 4.405088v38.3552h-18.900282v-38.3552a71.142709 71.142709 0 0 1-13.428587-4.12777 67.1216 67.1216 0 0 1-11.412698-6.175657 25.950557 25.950557 0 0 1-8.138214-9.151491 33.38481 33.38481 0 0 1-3.519804-12.543302v-59.303368h20.884171z m-821.052995-0.746625c22.580077-2.773179 38.579187 7.338258 48.071992 16.361756l1.343926 1.311927c0.426643 0.426643 0.853286 0.853286 1.24793 1.279929l1.151936 1.258597 1.066608 1.205266 0.970612 1.151936 0.874618 1.098606 0.78929 1.013277 1.002611 1.365257 0.799955 1.14127 0.586634 0.89595 0.565302 0.917282-72.763953 33.491471-8.564856-13.097938 51.869114-25.065273-0.810621-0.639964-0.863952-0.629298-1.471918-0.981279-1.077274-0.661297-1.226598-0.693295-1.354592-0.714626-0.981278-0.479974-1.023943-0.469307-1.08794-0.458641-1.130604-0.447975-1.183934-0.426643a39.677793 39.677793 0 0 0-0.607966-0.191989l-1.24793-0.383979-1.301261-0.341314a37.085937 37.085937 0 0 0-0.661297-0.159992l-1.354591-0.277317c-9.396811-1.759902-21.502804-0.138659-33.406142 12.532636-10.324759 10.986056-8.287539 28.201098 0.490639 37.843228 7.530248 8.287539 15.764456 10.218098 24.286649 10.655407l2.047886 0.074663 3.093162 0.042664 3.103827-0.010666c14.868506-0.063996 22.398754-8.404866 26.18521-15.924447l0.639965-1.311927c0.383979-0.874618 0.735959-1.717238 1.034609-2.538526l0.426643-1.1946 0.35198-1.14127 0.309316-1.066607 0.24532-0.981279 0.213321-0.885284 0.213322-1.130604 0.213321-1.247931 0.031999-0.319982 18.708292 0.906616-0.117327 1.514583-0.159991 1.429254-0.149325 1.162602-0.191989 1.301261-0.24532 1.407921-0.29865 1.514583c-0.863952 4.138436-2.357202 9.04483-4.885061 12.82062-7.178267 10.719404-24.947946 23.188043-47.485359 23.742679-17.535025 0.426643-35.486026-6.95428-45.96011-21.310814-23.945335-32.798176 0.575968-69.45747 39.677793-74.257203z m-311.854653 0c22.580077-2.773179 38.579187 7.338258 48.071992 16.361756l1.343926 1.311927c0.426643 0.426643 0.853286 0.853286 1.24793 1.279929l1.151936 1.258597 0.54397 0.607966 1.023943 1.173268 0.917282 1.130604 0.831954 1.066607 0.746625 0.959947 0.639964 0.89595 1.215933 1.770568 0.554636 0.874618 0.181323 0.309316-72.753287 33.491471-8.575523-13.097938 51.879781-25.065273-0.65063-0.511971-1.066608-0.78929-0.89595-0.5973-1.450586-0.906616-0.831953-0.490639-0.906617-0.49064-1.471918-0.757291-1.055941-0.501305-1.119938-0.49064a41.597686 41.597686 0 0 0-1.173268-0.479973l-1.226598-0.458641-1.279929-0.426643-1.343925-0.383979c-9.727459-2.666518-23.145379-2.165213-36.31798 11.860674-10.335425 10.986056-8.298205 28.201098 0.479973 37.843228 7.540914 8.287539 15.775123 10.218098 24.286649 10.655407l2.047886 0.074663 3.093162 0.042664 3.114493-0.010666c17.481694-0.074663 24.830619-11.604688 27.849118-19.7749l0.426643-1.1946 0.181323-0.586634 0.330648-1.098606 0.394645-1.49325 0.29865-1.301261 0.24532-1.322593 0.127992-0.981279 18.708293 0.917282-0.05333 0.799956-0.106661 1.14127-0.181323 1.567913-0.170657 1.226598-0.223988 1.365257-0.266652 1.461253-0.319982 1.557246-0.394645 1.599911-0.447975 1.653242c-0.89595 3.050497-2.143881 6.186323-3.88245 8.778178-7.178267 10.719404-24.947946 23.188043-47.485359 23.742679-17.535025 0.426643-35.47536-6.95428-45.949444-21.310814-23.956001-32.798176 0.565302-69.45747 39.677793-74.257203z m-427.965528-40.595075v84.005994c0 6.100994 0.725293 11.252707 2.197211 15.433808 1.461252 4.170435 3.658463 7.49825 6.591633 9.99411 2.93317 2.378534 6.122326 4.181101 9.556802 5.439698 3.445142 1.237265 7.146269 1.855897 11.103382 1.855897 4.693072 0 8.799511-0.618632 12.319315-1.855897 3.509138-1.258597 6.442308-3.189156 8.788845-5.802344 2.346536-2.506527 4.170435-5.16238 5.493027-7.956891 1.151936-2.453197 2.133215-5.119715 2.453197-7.732903l0.19199-2.09055v-91.301588h22.633407v87.00316c0 7.988889-1.322593 14.825842-3.957113 20.585522a35.944667 35.944667 0 0 1-11.647352 14.217875 53.51169 53.51169 0 0 1-16.820398 8.223543 70.641404 70.641404 0 0 1-19.454918 2.623854 63.975108 63.975108 0 0 1-19.444251-2.901172 56.156876 56.156876 0 0 1-17.044386-8.884839 38.237873 38.237873 0 0 1-11.754012-14.036553 41.064382 41.064382 0 0 1-3.839787-17.951001v-88.869723h22.633408z m1177.086524 38.717846a2.485195 2.485195 0 0 0 0.991945 0.202655h3.413144a2.474529 2.474529 0 0 0 0.970612 0.170658h0.991945c5.86634 0.746625 11.476695 2.218543 16.820398 4.394422 5.333037 2.197211 10.506082 5.098383 15.508471 8.714182 4.821065 3.733126 8.490194 8.426198 10.986055 14.036552 2.474529 5.599689 3.733126 12.159324 3.733126 19.625575v1.493251c0 2.207877-0.319982 4.202433-0.661297 5.823676l-0.319982 1.482584a46.237428 46.237428 0 0 1-6.815621 15.807121c-2.709183 4.053108-6.207655 7.892894-10.452752 11.498027-4.106438 3.626465-9.002166 6.303649-14.719181 8.063551a65.68168 65.68168 0 0 1-19.124269 2.613188c-9.962113 0-18.5803-1.151936-25.83323-3.466474-7.25293-2.303872-13.161935-5.823676-17.695016-10.570078a48.509302 48.509302 0 0 1-10.228764-15.721793 49.49058 49.49058 0 0 1-3.370479-16.724403l-0.021333-2.154546c0-6.868951 1.375923-13.033942 4.170435-18.537636a41.789675 41.789675 0 0 1 12.308649-14.399199 63.143154 63.143154 0 0 1 17.705682-9.268818 62.481858 62.481858 0 0 1 19.657573-3.082495h1.983889z m171.233142 0a2.431865 2.431865 0 0 0 0.991945 0.202655h3.402478a2.474529 2.474529 0 0 0 0.991944 0.170658h0.991945c5.855674 0.746625 11.444697 2.218543 16.809732 4.394422 5.343703 2.197211 10.516748 5.098383 15.487138 8.714182 4.831731 3.733126 8.50086 8.426198 10.986056 14.036552 2.506527 5.599689 3.743792 12.159324 3.743792 19.625575v1.493251a3.754458 3.754458 0 0 1-0.213322 1.322593c0 0.490639-0.042664 0.991945-0.106661 1.49325a8.3942 8.3942 0 0 0-0.127992 1.49325 41.960333 41.960333 0 0 1-1.311927 5.973001 46.290758 46.290758 0 0 1-6.047664 12.831287 56.103546 56.103546 0 0 1-10.420754 11.498027 39.464471 39.464471 0 0 1-14.719181 8.063551 65.756342 65.756342 0 0 1-19.145602 2.613188c-9.962113 0-18.569634-1.151936-25.822563-3.466474-7.25293-2.303872-13.151268-5.823676-17.705682-10.570078a48.445305 48.445305 0 0 1-10.207432-15.721793 49.08527 49.08527 0 0 1-3.391812-16.724403l-0.031998-2.154546a40.531079 40.531079 0 0 1 4.181101-18.537636 41.597686 41.597686 0 0 1 12.319315-14.399199 62.85517 62.85517 0 0 1 17.684349-9.268818 62.567186 62.567186 0 0 1 19.678906-3.082495h1.983889z m-458.961137 4.117104v16.073773l-1.695905-0.021332-13.90856 0.031998c-17.577689 0.074663-36.499303 11.412699-34.526079 29.555689 1.919893 17.535025 12.831286 23.742679 21.716125 25.865228l1.279929 0.277318 1.258596 0.234654 1.205267 0.170657 1.151936 0.138659 1.599911 0.138659 0.991944 0.042664 1.33326 0.031998 1.130603-0.010666 1.354592-0.063996 0.607966-0.053331 16.489749-0.373312v16.265762l-1.962557 0.021332-5.226376 0.149325-4.447753 0.149325-2.303872 0.05333-2.346536 0.031999h-2.378534l-1.205266-0.010667-2.431865-0.074662c-12.212654-0.479973-25.331924-3.135826-36.328646-13.396588-18.313648-17.119048-18.025664-38.536523-3.349147-56.978164a47.69868 47.69868 0 0 1 24.019997-15.94578l1.514583-0.426643 1.450586-0.362646 1.386589-0.309316 1.301261-0.255986 1.226598-0.213322 1.130604-0.159991 1.525249-0.181323 1.642575-0.138659 1.535915-0.063996 25.246595-0.19199z m-242.461179-23.572022v22.078772h39.997775v16.095105h-39.997775v45.650794c0 1.749236 0.138659 3.306483 0.437309 4.67174 0.29865 1.375923 0.735959 2.68785 1.322593 3.925115 0.586634 1.258597 1.866563 2.165213 3.839786 2.709183 1.98389 0.565302 4.735737 0.853286 8.244875 0.853285l24.403976-0.373312v16.265762l-25.843896 0.191989h-3.167824c-4.981056 0-9.311482-0.618632-12.969945-1.877229a20.734847 20.734847 0 0 1-9.012832-5.802344 29.31037 29.31037 0 0 1-5.386367-8.404866 31.304925 31.304925 0 0 1-2.261208-8.895505l-0.266652-6.335647v-80.742176h20.660185z m-404.670824 22.078772v89.808338h-19.124269v-89.808338h19.124269z m79.792895-2.623854c1.173268 0 2.453197 0.074663 3.839786 0.202655a69.45747 69.45747 0 0 1 9.460807 1.493251c1.68524 0.362646 3.413143 0.853286 5.16238 1.49325 3.082495 1.119938 6.015665 2.559858 8.79951 4.309094 2.773179 1.727904 5.653019 3.690461 8.127548 6.346313 2.559858 2.751847 4.61841 5.311705 5.930337 8.799511 1.322593 3.487806 1.98389 7.487584 1.98389 11.967334v57.810118h-20.884172v-52.946388c0-2.741181-0.479973-5.439697-1.429254-8.138214a26.153212 26.153212 0 0 0-4.277095-7.572913 17.535025 17.535025 0 0 0-7.476918-5.610354 29.331702 29.331702 0 0 0-10.986055-1.877229c-3.967779 0-7.444919 0.565302-10.452752 1.695906a20.958834 20.958834 0 0 0-7.7969 5.045052c-2.197211 2.239875-3.925115 4.650408-5.173045 7.1996a28.105103 28.105103 0 0 0-2.52786 8.14888v54.05566h-19.124269v-54.428973c0-4.991722 1.023943-9.706127 3.082495-14.121881 2.047886-4.42642 5.119715-8.586189 9.226154-12.447307a43.122935 43.122935 0 0 1 14.953834-8.511527c5.717015-1.930559 12.233986-2.911838 19.561579-2.911838z m600.297275-38.717846v47.069381l0.650631-0.543969 0.693294-0.511972 0.949281-0.639964 0.767957-0.469307 0.885284-0.511972 0.49064-0.266652 1.066607-0.533303c4.693072-2.293206 12.511304-4.874396 23.966667-4.874396h1.013277l2.026554 0.042664 1.002611 0.042665 2.026554 0.095994c1.333259 0.085329 2.666518 0.191989 3.989111 0.330649l1.973224 0.245319c15.988444 2.133215 29.502359 9.332814 29.502358 27.070494v64.593741h-19.124269v-55.7409l-0.149325-1.130603-0.181323-0.981279-0.266652-1.205266-0.24532-0.906617-0.287984-0.981278-0.35198-1.03461-0.426643-1.066607c-2.410533-5.834342-7.807566-13.001943-19.7749-13.001943-20.201543 0-29.971666 9.311482-29.971666 21.225486v54.823617h-19.337591V645.884073h19.113603z m-364.875704 38.3552v16.265761h-0.319982c-4.469085 0-8.959502 0.511972-13.204599 1.941226a32.78751 32.78751 0 0 0-2.303872 0.863952 25.918558 25.918558 0 0 0-7.466251 4.682406c-1.909227 1.877229-3.487806 3.839786-4.735737 5.898338-1.237265 2.047886-2.239875 4.138436-2.965168 6.260986a32.446195 32.446195 0 0 0-1.322593 4.67174l-0.35198 1.759902c-0.159991 0.853286-0.287984 1.68524-0.287984 2.506527-0.063996 0.5973-0.074663 1.173268-0.074663 1.717238l0.042664 1.54658 0.021332 0.703961v43.965555h-19.124269v-89.797672h19.124269v8.799511a2.03722 2.03722 0 0 0 0.533304-0.341315l0.639965-0.639964c0.170657-0.170657 0.362646-0.341314 0.586634-0.533304a7.860896 7.860896 0 0 1 1.098605-1.109271l1.311927-1.130604c1.173268-0.991945 2.453197-1.919893 3.839787-2.794511 1.397256-0.863952 3.050497-1.68524 4.959724-2.453197 1.749236-0.735959 3.733126-1.322593 5.930336-1.759902 2.197211-0.447975 4.543747-0.661297 7.039609-0.661297l7.028942-0.362646z m714.381596-38.3552V777.023445h-20.660184V645.884073h20.660184z m-1121.24963 38.717846c1.173268 0 2.453197 0.074663 3.839786 0.202655a69.222816 69.222816 0 0 1 9.450141 1.493251c1.68524 0.362646 3.413143 0.853286 5.173046 1.49325 3.071829 1.119938 6.004999 2.559858 8.788844 4.309094 2.773179 1.727904 5.493028 3.850452 8.127548 6.346313 2.645186 2.378534 4.61841 5.311705 5.941003 8.799511 1.322593 3.487806 1.973224 7.487584 1.973223 11.967334v57.810118h-20.873505v-52.946388c0-2.741181-0.479973-5.439697-1.43992-8.138214a26.067883 26.067883 0 0 0-4.277095-7.572913 17.535025 17.535025 0 0 0-7.466252-5.610354 29.331702 29.331702 0 0 0-10.996721-1.877229c-3.957113 0-7.444919 0.565302-10.452752 1.695906a21.022831 21.022831 0 0 0-7.7969 5.045052c-2.197211 2.239875-3.925115 4.650408-5.16238 7.1996a28.105103 28.105103 0 0 0-2.527859 8.14888v54.05566h-19.124269v-54.428973c0-4.991722 1.023943-9.706127 3.071829-14.121881a40.531079 40.531079 0 0 1 9.236819-12.447307 43.048272 43.048272 0 0 1 14.953835-8.511527c5.706349-1.930559 12.22332-2.911838 19.561579-2.911838z m911.991937 0c1.173268 0 2.453197 0.074663 3.839786 0.202655a68.476191 68.476191 0 0 1 9.450141 1.493251c1.68524 0.362646 3.413143 0.853286 5.173046 1.49325 3.071829 1.119938 6.015665 2.559858 8.788844 4.309094 2.783845 1.727904 5.493028 3.850452 8.127548 6.346313 2.63452 2.378534 4.61841 5.311705 5.951669 8.799511 1.311927 3.487806 1.962557 7.487584 1.962558 11.967334v57.810118h-20.873506v-52.946388c0-2.741181-0.479973-5.439697-1.429254-8.138214a26.526524 26.526524 0 0 0-4.287761-7.572913 17.609687 17.609687 0 0 0-7.466252-5.610354 29.331702 29.331702 0 0 0-10.986055-1.877229c-3.978445 0-7.466251 0.565302-10.452752 1.695906a20.905504 20.905504 0 0 0-7.807566 5.045052c-2.186545 2.239875-3.925115 4.650408-5.162379 7.1996a28.585077 28.585077 0 0 0-2.52786 8.14888v54.05566h-19.124269v-54.428973c0-4.991722 1.023943-9.706127 3.082495-14.121881 2.058552-4.42642 5.119715-8.586189 9.226153-12.447307a43.133601 43.133601 0 0 1 14.953835-8.511527c5.717015-1.930559 12.233986-2.911838 19.561579-2.911838z m112.527074 16.276428c-5.26904 0-9.791455 0.5973-13.620576 1.781234a22.558745 22.558745 0 0 0-9.450141 5.525026 33.022163 33.022163 0 0 0-6.036997 7.658241 29.01172 29.01172 0 0 0-3.189156 8.426198l-0.437309 1.49325a5.439697 5.439697 0 0 0-0.213322 1.503916v5.333037c0 0.810622 0.063996 1.642575 0.213322 2.52786 0.095995 0.575968 0.213321 1.151936 0.341314 1.706571l0.213321 0.810622c0.202655 0.810622 0.394645 1.653241 0.533304 2.527859 0.735959 2.741181 1.919893 5.439697 3.519804 8.052886 1.621243 2.623854 3.605133 5.119715 5.941003 7.466251 2.495861 2.367868 5.578356 4.12777 9.23682 5.237042 3.669129 1.14127 7.978223 1.68524 12.959279 1.68524 4.693072 0 9.098161-0.54397 13.183267-1.68524a38.152544 38.152544 0 0 0 11.220709-5.034387c3.370479-2.250541 5.898339-5.525026 7.572912-9.834119 1.68524-4.298428 2.538525-9.567468 2.538525-15.807121 0-4.37309-0.725293-8.319537-2.197211-11.87134a26.846507 26.846507 0 0 0-6.602299-9.450141 29.267705 29.267705 0 0 0-10.868729-5.983667 48.89328 48.89328 0 0 0-14.847174-2.069218z m171.243808 0c-5.26904 0-9.812787 0.5973-13.631242 1.781234a22.548079 22.548079 0 0 0-9.450141 5.525026 32.616852 32.616852 0 0 0-6.047664 7.658241 29.01172 29.01172 0 0 0-3.189156 8.426198l-0.426643 1.49325a4.938392 4.938392 0 0 0-0.223987 1.503916v5.333037c0 0.810622 0.063996 1.642575 0.213321 2.52786 0.149325 0.863952 0.319982 1.706572 0.565302 2.517193 0.213321 0.810622 0.383979 1.653241 0.54397 2.527859 0.725293 2.741181 1.887895 5.439697 3.498472 8.052886 1.621243 2.623854 3.594467 5.119715 5.951669 7.466251 2.485195 2.367868 5.557024 4.12777 9.226153 5.237042 3.658463 1.14127 7.978223 1.68524 12.969946 1.68524 4.693072 0 9.076828-0.54397 13.193932-1.68524a37.821896 37.821896 0 0 0 11.199377-5.034387c3.381145-2.250541 5.898339-5.525026 7.594245-9.834119 1.68524-4.298428 2.527859-9.567468 2.527859-15.807121 0-4.37309-0.746625-8.319537-2.207877-11.87134a26.750512 26.750512 0 0 0-6.591633-9.450141 29.459695 29.459695 0 0 0-10.879395-5.983667 48.78662 48.78662 0 0 0-14.825842-2.069218z m-1113.314072-43.773565c6.676962 0 12.095327 4.405088 12.095327 9.844786s-5.418365 9.844786-12.095327 9.844785c-6.676962 0-12.084661-4.405088-12.084661-9.844785s5.407699-9.844786 12.084661-9.844786z m945.184757-454.236067v236.466847h26.494526v38.173877h-26.494526v65.969663h-38.323201v-65.969663h-143.128039v-38.184543h143.138705V202.868715h38.312535z m161.537681 0.597301v33.768788h45.576132v38.984498h-45.576132v70.161431c14.356535-7.327592 28.446418-12.52197 42.258983-15.583134v36.179321a258.630947 258.630947 0 0 0-42.258983 21.182822v99.941107c0 20.382866-7.167601 35.635351-21.524136 45.778787-8.916837 6.16499-21.545468 9.354146-37.885892 9.5888h-2.751847l-2.847842-0.031998-2.154547-0.05333-4.906393-0.181324-7.25293-0.319982v-36.797953l3.690461-0.191989 3.967779-0.159991 1.599911-0.031999h0.693295c12.287317-0.138659 20.564189-2.271874 24.851951-6.399644 4.138436-3.999778 6.207655-10.655407 6.207655-19.988221v-67.96422l-5.194378 1.877229-3.263818 1.151936-3.093162 1.066608-2.943836 0.991944-2.783845 0.917283-2.623854 0.831953-2.463863 0.757292-2.303872 0.682628-2.154547 0.5973-1.983889 0.511972-1.834565 0.447975-2.229209 0.479973-1.269263 0.24532-1.461252 0.255986-2.538526 0.405311-1.941225 0.266651-3.253152 0.426643-2.410533 0.29865-3.967779 0.458642-2.890506 0.309316v-38.973832c12.841952-1.471918 23.188043-3.72246 31.059606-6.794289l1.49325-0.5973 1.674573-0.703961 2.847842-1.237265 3.263818-1.471918 2.399867-1.109271 3.946447-1.845231 4.37309-2.079884 1.546581-0.746625v-92.549519h-51.36781v-38.984498h51.36781v-33.768788h38.312535zM2618.627672 202.655394v31.390254h93.616126v36.979276h-93.616126v55.175598l10.836731 0.021332 11.092716 0.085328 8.20221 0.117327 6.975612 0.170657 3.978446 0.138659 4.202433 0.213322 2.133214 0.127993 1.813233 0.159991 1.49325 0.159991c13.96189 1.461252 24.809287 7.391589 32.531524 17.79101 5.386367 7.1996 8.084884 15.188488 8.084883 23.987999 0 13.321926-7.25293 28.105103-21.748123 44.370866-11.615354 12.873951-26.377199 26.985166-44.296203 42.333645l-4.959724 4.213099a817.341202 817.341202 0 0 1-2.549191 2.133214l-5.194378 4.309094-2.666519 2.175879 3.989112 2.442531 3.839786 2.325204 3.72246 2.218543 3.573135 2.101217 1.749236 1.00261 3.381145 1.93056 3.242486 1.813232 1.578579 0.874618 3.050497 1.653242 2.911838 1.535914 2.773179 1.418588 1.354591 0.671962 2.58119 1.258597 1.237265 0.575968 1.215932 0.565302c11.178045 5.194378 25.673239 10.058107 43.485581 14.601854l-1.034609 37.171266c-24.649296-6.65563-45.224151-13.865895-61.735233-21.609465l-3.445141-1.642575-2.87984-1.418588-2.986501-1.535914-3.125159-1.631909-3.242487-1.749236-3.370479-1.855897-3.487806-1.962558-3.605132-2.069218-3.733126-2.186545-3.850453-2.28254-3.978445-2.3892-4.106438-2.506527-4.213099-2.602522-4.351758-2.719849a1081.006536 1081.006536 0 0 1-2.218543-1.397256l-5.151714 3.327815-5.045053 3.199822-4.917059 3.07183-4.810399 2.943836c-8.714182 5.26904-16.852396 9.88745-24.403976 13.844563l-4.053108 2.09055c-2.005222 1.013277-3.967779 1.98389-5.887673 2.890506-15.604465 7.338258-34.238096 14.057885-55.90089 20.190877v-38.387198c21.81212-6.922282 47.69868-18.846952 77.649014-35.77401l-3.914449-3.498472-3.797122-3.434476-3.669129-3.349147-5.279707-4.885061-3.370479-3.157158-3.253152-3.093161-3.12516-3.007833-3.007832-2.943836-2.87984-2.858508a476.538826 476.538826 0 0 1-1.397256-1.407922l-2.709183-2.751847-2.581189-2.666518-2.453197-2.613188-2.346536-2.517193-1.130604-1.237265-2.154547-2.421198-2.03722-2.33587-0.970613-1.14127-1.855896-2.218543a168.022654 168.022654 0 0 1-0.885284-1.08794l-1.674574-2.111883-2.453197-3.178489-1.749236-2.33587-1.845231-2.538526-1.941225-2.730515-2.026554-2.93317a391.775541 391.775541 0 0 1-1.045275-1.54658l-2.165213-3.221155c-0.362646-0.554636-0.746625-1.119938-1.109272-1.695905l-3.487806-5.354369a686.7458 686.7458 0 0 1-1.205266-1.887895h44.125546c11.732681 14.271206 22.633408 25.993221 32.723513 35.198042l2.538525 2.261208 3.871785 3.381145 5.653019 4.799733 5.141047 4.298427 5.717015 4.714405 6.271652 5.119715c23.188043-17.183044 42.877615-34.654072 59.02605-52.37042l1.962557-2.197211 1.834565-2.101217 1.706571-2.005222 1.567913-1.909227 1.450586-1.813232 1.311927-1.727904c3.946447-5.301038 5.919671-9.172823 5.919671-11.62602 0-2.538525-1.258597-4.394422-3.733126-5.599689a3.925115 3.925115 0 0 0-0.767957-0.277317l-0.714627-0.170658-0.89595-0.149325-1.055941-0.138659-1.226599-0.10666-1.386589-0.106661-2.421199-0.117327-2.794511-0.085328-2.079885-0.031999-3.434475-0.021332h-164.438853v-37.56591h93.594794V271.024924h-93.594794v-36.979276h93.594794V202.655394h38.323201z m-565.835192 124.942383v215.273359h-32.520858V327.597777h32.520858z m1.866563-119.737339v33.768788h-51.367809v28.393087h51.783786v36.371311h-51.783786v236.477512h-38.323202v-236.466846h-57.159487v-36.381977h57.170153v-28.393087h-56.551521v-33.768788h146.231866z m-286.448066-4.405089v30.782288h36.861949c17.119048 0 30.579632 4.735737 40.39242 14.196544 10.079439 9.460807 15.113826 21.790788 15.113826 36.979276v203.082037c0 16.127103-3.999778 28.457084-12.009999 36.979276a55.634239 55.634239 0 0 1-14.697849 11.412699c-7.466251 3.861119-13.951224 5.791678-19.47625 5.791678h-22.580077v-36.979277h9.951446c5.386367 0 10.420754-2.463863 15.113826-7.402254 3.999778-4.12777 6.004999-10.666073 6.005-19.593577V305.615c0-0.991945 0-1.951891-0.021332-2.87984l-0.053331-2.719848a144.642621 144.642621 0 0 0-0.05333-1.301261l-0.117327-2.474529c-0.479973-7.978223-1.642575-13.257929-3.47714-15.817787-4.42642-6.132992-11.466029-9.194155-21.118825-9.194155h-29.833007c0.138659 6.527637 0.213321 12.852618 0.213321 18.98561l-0.213321 19.390922c0 15.721792 1.727904 29.054384 5.173045 39.976443 4.149103 13.460585 10.356757 26.718514 18.644296 39.784453l3.007833 4.554414 5.407699 7.999555 6.794289 9.866117 2.186545 3.157158v51.762454c-13.247263-11.583356-23.753345-22.238763-31.475582-31.966222-10.922059-13.865895-21.129491-30.590298-30.654295-50.173209-11.050052 22.505415-22.932058 41.224374-35.624685 56.156876-7.594244 8.799511-16.916392 17.865673-27.966445 27.198488V415.76354c14.217876-18.014998 25.193265-35.454028 32.936835-52.381086 4.554413-9.716793 7.380923-21.652129 8.490194-35.784677l0.19199-3.253152 0.181323-3.445142 0.149325-3.647797 0.202655-5.845008 0.106661-4.138436 0.106661-6.570302 0.074662-7.018276 0.021332-7.455585V271.238246h-27.337146c-9.108827 0-15.881783 2.058552-20.297537 6.186322a19.625575 19.625575 0 0 0-6.420976 14.996499V542.689813h-38.323202V286.597391c0-15.711126 5.045053-28.371755 15.124492-37.971221 5.386367-5.194378 10.836731-8.724848 16.361757-10.602077 7.594244-2.527859 17.19371-3.797122 28.798398-3.797122h32.094214v-30.782288h42.045662z m147.053153 124.942384h34.803397l-1.066607 146.647843-0.05333 3.743791-0.085329 3.583801-0.042664 1.727904-0.127993 3.338481-0.159991 3.157158-0.170657 2.9865-0.213322 2.837176-0.234653 2.666518-0.266652 2.485195-0.287984 2.325204-0.319982 2.165213a78.288979 78.288979 0 0 1-0.159991 1.013277l-0.362647 1.909227a44.157544 44.157544 0 0 1-0.799955 3.306483c-4.842397 17.19371-18.793621 26.921169-41.843006 29.182377v-34.376755h1.045275c5.098383 0 7.786234-6.474307 8.074217-19.401587l2.271874-159.297806z m-477.818755-15.99911v36.37131h-298.447398l-33.352812 123.747783c-1.109272 4.12777-1.653241 7.999555-1.653241 11.583356 0 7.466251 3.029165 12.852618 9.108826 16.201765 3.594467 2.005222 7.178267 2.986501 10.772735 2.986501h238.280079l2.559857-0.021332 2.378535-0.042665 2.207877-0.05333 2.03722-0.085329 1.866563-0.095994 1.695905-0.106661 0.778624-0.074662 1.429253-0.138659 1.258597-0.170658 0.565302-0.085328 1.002611-0.191989 0.831954-0.213322a7.49825 7.49825 0 0 0 0.35198-0.117327c7.178267-2.666518 10.772734-8.106216 10.772734-16.393755 0-3.17849-0.35198-6.186323-1.034609-8.991499l-20.926836-83.750008h39.560466l18.644296 78.150319c2.474529 10.410088 3.733126 19.668239 3.733126 27.785121 0 13.727236-6.783623 24.926613-20.308204 33.576799-9.386145 6.004999-23.753345 9.012832-43.090936 9.012832h-246.460957c-15.604465 0-28.787732-3.669129-39.560466-10.986055-12.969945-8.810177-19.465584-21.150823-19.465584-37.011275 0-5.439697 1.045275-12.052663 3.103827-19.764234l33.352811-124.739728H1055.941263v-36.37131h381.504112z m176.256863-2.399867v36.979277h-55.708901v47.784008h55.708901v36.968611h-55.708901v53.373031c0 0.810622 0 1.599911 0.021332 2.346536l0.085328 2.175879c0.319982 5.887672 1.311927 9.64213 2.986501 11.263373 2.218543 2.005222 5.322371 3.007833 9.322148 3.007833h43.293592v36.979276h-57.575464c-10.772734 0-19.540246-3.199822-26.302537-9.5888-6.911616-6.666296-10.367423-15.860451-10.367423-27.593131v-71.963997h-41.000386v-36.968611h41.000386v-47.784008h-41.000386v-36.979277h135.24581z m579.914409 29.587688v38.771177h-114.318975v-38.771177h114.318975z m-642.257608-135.523128l-6.623632 21.780121h68.966831v36.989943h-80.571518c-5.525026 11.050052-12.500638 19.1776-20.91617 24.371978-8.703516 5.333037-19.956223 8.799511-33.758122 10.399421v-37.373921c5.51436-1.333259 9.802121-3.466474 12.841952-6.399644 2.485195-2.570524 5.119715-7.370257 7.882228-14.399199l0.927948-2.431865 0.469308-1.279929 0.94928-2.666518 0.959947-2.837175 0.959946-3.007833 0.703961-2.261208 3.871785-12.159323 2.741181-8.724848h40.595075z m642.257608 30.782287v38.781843h-114.318975v-38.781843h114.318975z m-762.592248-30.782287v35.77401H1063.194193v-35.77401h367.840872z" fill="#1F131A" p-id="1039"></path></svg>