<?xml version="1.0" encoding="UTF-8"?>
<svg width="106px" height="29px" viewBox="0 0 106 29" version="1.1" xmlns="http://www.w3.org/2000/svg" xmlns:xlink="http://www.w3.org/1999/xlink">
    <!-- Generator: Sketch 64 (93537) - https://sketch.com -->
    <title>zlb-logo</title>
    <desc>Created with Sketch.</desc>
    <defs>
        <polygon id="path-1" points="0.00928163262 0.896825471 5.27310871 0.896825471 5.27310871 4.48740749 0.00928163262 4.48740749"></polygon>
        <polygon id="path-3" points="0.0589196288 0.396770978 5.32274671 0.396770978 5.32274671 4.78520266 0.0589196288 4.78520266"></polygon>
        <polygon id="path-5" points="0.11163691 0.404527132 5.37546399 0.404527132 5.37546399 4.78520266 0.11163691 4.78520266"></polygon>
        <polygon id="path-7" points="0.0657583331 0.396770978 5.32958542 0.396770978 5.32958542 4.78520266 0.0657583331 4.78520266"></polygon>
        <polygon id="path-9" points="0.00924212723 0.396770978 5.27306921 0.396770978 5.27306921 4.78520266 0.00924212723 4.78520266"></polygon>
        <polygon id="path-11" points="0.0476680649 0.827373159 5.31149515 0.827373159 5.31149515 4.35073518 0.0476680649 4.35073518"></polygon>
        <polygon id="path-13" points="0.093945967 0.833208942 5.35777305 0.833208942 5.35777305 4.37518573 0.093945967 4.37518573"></polygon>
        <polygon id="path-15" points="0.0172652816 0.396770978 5.28109236 0.396770978 5.28109236 4.78520266 0.0172652816 4.78520266"></polygon>
        <polygon id="path-17" points="0.0420711113 0.404527132 5.30589819 0.404527132 5.30589819 4.78520266 0.0420711113 4.78520266"></polygon>
        <linearGradient x1="100%" y1="50%" x2="0%" y2="50%" id="linearGradient-19">
            <stop stop-color="#2F6AFF" offset="0%"></stop>
            <stop stop-color="#77A8FF" offset="100%"></stop>
        </linearGradient>
    </defs>
    <g id="7.26" stroke="none" stroke-width="1" fill="none" fill-rule="evenodd">
        <g id="zlb-logo">
            <g id="编组" transform="translate(37.000000, 4.000000)">
                <polygon id="Fill-1" fill="#333333" points="16.4814198 19.9242999 16.4814198 20.2959784 18.632395 20.2959784 16.4027256 23.0577559 16.4027256 23.3932989 19.4088446 23.3932989 19.4088446 23.0577559 17.100481 23.0577559 19.3301504 20.2959784 19.3301504 19.9242999"></polygon>
                <polygon id="Fill-2" fill="#333333" points="23.1525223 19.9242999 23.1525223 21.4213382 21.3268165 21.4213382 21.3268165 19.9242999 20.7602182 19.9242999 20.7602182 23.3932989 21.3268165 23.3932989 21.3268165 21.7878544 23.1525223 21.7878544 23.1525223 23.3932989 23.7191207 23.3932989 23.7191207 19.9242999"></polygon>
                <g>
                    <g transform="translate(24.941785, 18.930787)">
                        <mask id="mask-2" fill="white">
                            <use xlink:href="#path-1"></use>
                        </mask>
                        <g id="Clip-4"></g>
                        <path d="M1.74108074,4.1492392 C2.48328036,4.11821458 2.86227591,3.63733306 2.88333122,2.71693617 C2.85174826,1.79653928 2.47801653,1.31048699 1.75687222,1.26912084 C1.03046409,1.33117007 0.640940882,1.81722236 0.598830266,2.71693617 C0.630413228,3.61664999 1.00940878,4.09236074 1.74108074,4.1492392 M1.74108074,4.48533918 C0.651468537,4.42328996 0.0777113847,3.82865152 0.00928163262,2.71693617 C0.0671837305,1.55868391 0.64620471,0.953703931 1.75687222,0.896825471 C2.82542912,0.964045469 3.39392245,1.56902545 3.47287985,2.71693617 C3.41497775,3.83899305 2.8412206,4.43363149 1.74108074,4.48533918" id="Fill-3" fill="#333333" mask="url(#mask-2)"></path>
                    </g>
                    <g transform="translate(28.539979, 18.632992)">
                        <mask id="mask-4" fill="white">
                            <use xlink:href="#path-3"></use>
                        </mask>
                        <g id="Clip-6"></g>
                        <polygon id="Fill-5" fill="#333333" mask="url(#mask-4)" points="1.19853819 4.71953389 1.19853819 1.2447771 1.76703152 1.2447771 3.6304263 3.94908931 3.6304263 1.2447771 4.18312815 1.2447771 4.18312815 4.71953389 3.64621779 4.71953389 1.76703152 2.07727092 1.76703152 4.71953389"></polygon>
                    </g>
                    <g transform="translate(32.970990, 18.632992)">
                        <mask id="mask-6" fill="white">
                            <use xlink:href="#path-5"></use>
                        </mask>
                        <g id="Clip-8"></g>
                        <path d="M4.39112833,2.24015014 L3.78578821,2.24015014 C3.63313723,1.79029323 3.30677995,1.56795017 2.80671638,1.56795017 C2.10136355,1.61965786 1.72763182,2.10053938 1.68025738,2.99508242 C1.72763182,3.899967 2.12241886,4.38084852 2.8698823,4.44806852 C3.34362674,4.44806852 3.66998402,4.2670916 3.84895414,3.899967 L3.84895414,3.17605934 L2.72775897,3.17605934 L2.72775897,2.80376397 L4.39112833,2.80376397 L4.39112833,4.09128546 C4.12793697,4.5514839 3.62260957,4.78416851 2.8698823,4.78416851 C1.73289565,4.74280236 1.13808319,4.14816392 1.09597257,2.99508242 C1.14861085,1.85234246 1.722368,1.25253325 2.80671638,1.19565479 C3.63313723,1.20599633 4.16478376,1.55760863 4.39112833,2.24015014" id="Fill-7" fill="#333333" mask="url(#mask-6)"></path>
                    </g>
                    <g transform="translate(37.263198, 18.632992)">
                        <mask id="mask-8" fill="white">
                            <use xlink:href="#path-7"></use>
                        </mask>
                        <g id="Clip-10"></g>
                        <polygon id="Fill-9" fill="#333333" mask="url(#mask-8)" points="1.47383208 4.71953389 1.47383208 1.2447771 2.0423254 1.2447771 2.0423254 4.38343391 3.92151167 4.38343391 3.92151167 4.71953389"></polygon>
                    </g>
                    <g transform="translate(41.149675, 18.632992)">
                        <mask id="mask-10" fill="white">
                            <use xlink:href="#path-9"></use>
                        </mask>
                        <g id="Clip-12"></g>
                        <polygon id="Fill-11" fill="#333333" mask="url(#mask-10)" points="1.29624785 4.71953389 1.29624785 1.2447771 3.98606349 1.2447771 3.98606349 1.6119017 1.86474117 1.6119017 1.86474117 2.75464166 3.87025929 2.75464166 3.87025929 3.12693703 1.86474117 3.12693703 1.86474117 4.38343391 3.98606349 4.38343391 3.98606349 4.71953389"></polygon>
                    </g>
                    <g transform="translate(46.413502, 19.067459)">
                        <mask id="mask-12" fill="white">
                            <use xlink:href="#path-11"></use>
                        </mask>
                        <g id="Clip-14"></g>
                        <path d="M1.54785878,2.70953309 L0.61616139,2.70953309 L0.61616139,3.94534689 L1.60049705,3.94534689 C2.10582445,3.95568843 2.35848815,3.7591992 2.3479605,3.35070845 C2.3479605,2.92153462 2.08476915,2.70953309 1.54785878,2.70953309 L1.54785878,2.70953309 Z M0.61616139,1.17898545 L0.61616139,2.3062131 L1.51627582,2.3062131 C1.97422878,2.3062131 2.20057334,2.11489465 2.20057334,1.73225774 C2.211101,1.34962083 1.97422878,1.16864392 1.47942903,1.17898545 L0.61616139,1.17898545 Z M0.0476680649,4.28661765 L0.0476680649,0.827373159 L1.65839915,0.827373159 C2.41112642,0.827373159 2.78485815,1.10142392 2.78485815,1.66503774 C2.7953858,2.09421157 2.58483272,2.36826233 2.1531989,2.48201925 C2.66379012,2.5906054 2.92698148,2.86465616 2.93750913,3.30417153 C2.9690921,3.98154227 2.54798593,4.31247149 1.67945446,4.28661765 L0.0476680649,4.28661765 Z" id="Fill-13" fill="#333333" mask="url(#mask-12)"></path>
                    </g>
                    <g transform="translate(50.289301, 19.043008)">
                        <mask id="mask-14" fill="white">
                            <use xlink:href="#path-13"></use>
                        </mask>
                        <g id="Clip-16"></g>
                        <path d="M1.83627273,1.36579815 L1.19934965,3.00493194 L2.45740433,3.00493194 L1.83627273,1.36579815 Z M0.093945967,4.30796574 L1.4993878,0.833208942 L2.17842149,0.833208942 L3.58386332,4.30796574 L2.96273173,4.30796574 L2.60479149,3.37722731 L1.06775398,3.37722731 L0.694022254,4.30796574 L0.093945967,4.30796574 Z" id="Fill-15" fill="#333333" mask="url(#mask-14)"></path>
                    </g>
                    <g transform="translate(53.862742, 18.632992)">
                        <mask id="mask-16" fill="white">
                            <use xlink:href="#path-15"></use>
                        </mask>
                        <g id="Clip-18"></g>
                        <polygon id="Fill-17" fill="#333333" mask="url(#mask-16)" points="1.15688384 4.71953389 1.15688384 1.2447771 1.72537717 1.2447771 3.58877196 3.94908931 3.58877196 1.2447771 4.1414738 1.2447771 4.1414738 4.71953389 3.60456344 4.71953389 1.72537717 2.07727092 1.72537717 4.71953389"></polygon>
                    </g>
                    <g transform="translate(58.318506, 18.632992)">
                        <mask id="mask-18" fill="white">
                            <use xlink:href="#path-17"></use>
                        </mask>
                        <g id="Clip-20"></g>
                        <path d="M4.32419444,2.24015014 L3.71885433,2.24015014 C3.56620334,1.79029323 3.23984606,1.56795017 2.73978249,1.56795017 C2.02916583,1.61965786 1.65543411,2.10053938 1.6133235,2.99508242 C1.65543411,3.899967 2.05022114,4.38084852 2.80821224,4.44806852 C3.27669285,4.44806852 3.59778631,4.2670916 3.78202025,3.899967 L3.78202025,3.17605934 L2.66082508,3.17605934 L2.66082508,2.80376397 L4.32419444,2.80376397 L4.32419444,4.09128546 C4.06100309,4.5514839 3.55567569,4.78416851 2.80821224,4.78416851 C1.66069794,4.74280236 1.07114931,4.14816392 1.02377486,2.99508242 C1.08167696,1.85234246 1.65017028,1.25253325 2.73978249,1.19565479 C3.56620334,1.20599633 4.09784988,1.55760863 4.32419444,2.24015014" id="Fill-19" fill="#333333" mask="url(#mask-18)"></path>
                    </g>
                    <path d="M22.4033744,6.0780202 C22.3612638,7.313834 22.2454596,8.43072012 22.050698,9.42867854 C21.9506853,9.66653392 21.8243535,10.0284878 21.6769663,10.4990277 C21.3769282,11.5486938 21.1295283,12.3553338 20.9295029,12.9241184 C20.3610095,12.3553338 19.7661971,11.11952 19.129274,9.21150624 L18.0607171,9.21150624 C18.2081043,8.50311088 18.3502276,7.45861554 18.4923509,6.0780202 L16.1867947,6.0780202 C16.7973986,4.98181717 17.4448493,3.69946645 18.1502022,2.22579727 C18.7081678,1.79662344 19.524061,1.58462191 20.5978818,1.58462191 C22.2875702,1.58462191 23.4140292,2.27233419 23.9930502,3.64775876 C23.9930502,3.79771106 24.0456885,3.96317567 24.150965,4.14932335 C24.4667947,5.05420793 24.7247222,5.70055406 24.9352753,6.0780202 L22.4033744,6.0780202 Z M26.2091214,11.0005923 L24.5983903,11.0005923 C24.7457775,10.426637 24.8931647,9.87853545 25.0405518,9.35628778 C25.0879263,8.93228471 25.1353007,8.48242781 25.1826751,8.00154629 C25.2300496,7.57237246 25.277424,7.1483694 25.3247985,6.71919557 C25.7932791,7.62408015 27.3039975,7.98086321 29.8622174,7.78954476 C29.0884348,7.26212631 28.4673032,6.40894942 27.9935588,5.21967254 C27.7356313,4.8422064 27.4777038,4.22171412 27.2145124,3.36853723 C27.1618741,3.172048 27.1302912,3.03243724 27.1302912,2.9393634 C26.4565213,1.51223114 25.0405518,0.752128094 22.8929104,0.653883482 C20.5399797,0.653883482 19.1082187,0.865885013 18.6028913,1.29505884 C18.6502657,1.24852192 18.702904,1.12959423 18.7502784,0.943446549 C18.7976529,0.798665015 18.8766103,0.679737328 18.976623,0.586663485 L15.2919441,0.586663485 C14.6497572,2.62911726 13.9496682,4.26825104 13.1916771,5.50923561 C12.4863242,6.69334172 11.7757076,7.43276169 11.0650909,7.71715399 C13.3653833,7.95500937 14.8497826,7.74300783 15.507761,7.07080786 C13.3074812,15.1165245 7.61728417,19.4444582 0.000526382708,19.739192 L0.000526382708,19.7753874 C8.61741132,20.0959751 12.8495283,20.3648551 17.3869472,11.6417677 C17.3869472,11.7400123 17.4185302,11.8330861 17.4711685,11.92616 C17.5185429,12.0192338 17.576445,12.0916246 17.6238195,12.1433323 C18.0449256,13.2860722 19.0450528,13.7824661 20.6294647,13.6376845 C19.8767374,15.2095983 19.2240229,16.3058014 18.6660572,16.9211229 C20.0978182,16.9676598 21.0926815,16.874586 21.655911,16.6367306 C22.2665149,16.4454121 22.7455232,16.0420921 23.0981996,15.4267706 L23.0981996,15.2768183 C23.4982505,14.4236414 23.8035524,13.6376845 23.998314,12.9241184 C24.1035906,13.2602184 24.2878245,13.6893922 24.5510159,14.2064691 C24.8089434,14.7338876 25.0194965,15.0854999 25.1721475,15.2768183 C25.7459046,16.4195583 27.256623,16.895269 29.7095664,16.7091213 C28.3672905,15.4681368 27.2039847,13.5652938 26.2091214,11.0005923 L26.2091214,11.0005923 Z" id="Fill-21" fill="#333333"></path>
                    <path d="M33.6453299,10.4256028 C32.4978156,13.6625042 31.5450629,15.5394934 30.781808,16.0669118 C33.1347387,16.2065226 34.5612359,15.8497395 35.0665633,14.9965626 C35.5192524,14.4691442 36.1245925,12.9489381 36.8667921,10.4256028 L33.6453299,10.4256028 Z" id="Fill-23" fill="#333333"></path>
                    <path d="M46.7638398,10.3547633 L43.5423776,10.3547633 C44.2266751,12.5937063 44.8530706,14.1345954 45.4215639,14.9929431 C45.9426828,15.8047538 47.3797076,16.1356831 49.7273744,15.9909015 C48.9062174,15.5668985 47.9218818,13.6899093 46.7638398,10.3547633" id="Fill-25" fill="#333333"></path>
                    <path d="M48.3524628,8.00206336 L42.135883,8.00206336 L42.0990362,3.4362743 L38.7986167,3.4362743 L38.8407273,8.00206336 L36.4614774,8.00206336 C35.5403077,8.10030798 35.1244654,7.57288953 35.2192142,6.43014958 L35.1928951,3.3690543 C35.0823547,2.4176328 35.6403204,1.93675128 36.8667921,1.93675128 L43.9255842,1.93675128 C46.5838169,2.08153281 48.0629523,1.48689437 48.3577266,0.152835962 L43.6044908,0.152835962 C43.2518144,0.964646702 42.4359212,1.36796669 41.1568112,1.36796669 L34.9454952,1.36796669 C32.7452155,1.26972207 31.7240331,1.93675128 31.8924755,3.3690543 L31.9240585,6.85932341 C31.8345734,8.1468449 32.761007,8.76216641 34.7033592,8.72080026 L38.8459911,8.72080026 L38.8986294,14.279377 C38.9565315,15.0860169 38.5512168,15.4686539 37.6774215,15.4272877 C36.961541,15.4272877 36.293035,15.3031892 35.682431,15.0653339 C36.7141411,16.3476846 38.0248341,17.0405676 39.6145099,17.1388123 C41.4515855,17.2267153 42.320117,16.3011477 42.1937851,14.3517677 L42.1464107,8.72080026 L48.3577266,8.72080026 L48.3524628,8.00206336 Z" id="Fill-27" fill="#333333"></path>
                    <path d="M59.815499,11.2131109 L56.6677305,11.2131109 L56.6361475,7.43327877 L59.4733503,7.43327877 L59.4680865,6.79210341 L56.6308837,6.79210341 L56.5993007,3.36388354 L59.5891545,3.36388354 L59.5838907,2.72270817 L56.5940369,2.72270817 L56.5677177,0.0132251984 L53.4989065,0.0132251984 L53.5252257,2.72270817 L50.5301081,2.72270817 L50.5353719,3.36388354 L53.5304895,3.36388354 L53.5620725,6.79210341 L50.7196058,6.79210341 L50.7248697,7.43327877 L53.5673363,7.43327877 L53.5989193,11.2131109 L50.4564145,11.2131109 L50.4616783,11.9266771 L53.6041831,11.9266771 C53.5726001,14.2586939 52.8514558,15.9443646 51.4249587,16.98886 C54.3411189,17.0405676 55.8992117,16.4666123 56.0939733,15.2773354 C56.3940114,14.5637693 56.588773,13.4520539 56.6729943,11.9266771 L59.8207629,11.9266771 L59.815499,11.2131109 Z" id="Fill-29" fill="#333333"></path>
                    <path d="M65.4441093,5.71916883 C65.6020242,6.67576111 64.7913948,7.21869185 63.0016936,7.35830262 L62.9490553,1.65494437 C63.1017063,1.31884438 63.4807018,1.15337977 64.0965696,1.15337977 C64.9651011,1.15337977 65.4019987,1.48947976 65.4072626,2.15650897 L65.4441093,5.71916883 Z M65.5546497,9.64378253 L65.5862327,13.0668316 C65.6441348,13.8786424 65.2914584,14.2302547 64.5229396,14.1371808 C63.9597101,14.1371808 63.4701742,14.0647901 63.0648595,13.9251793 L63.0016936,7.72025645 C64.7966586,7.99947798 65.6493986,8.64065334 65.5546497,9.64378253 L65.5546497,9.64378253 Z M68.2813121,5.71916883 L68.2497292,2.22372896 C68.2339377,0.941378241 67.4654189,0.295032111 65.9336453,0.295032111 L64.7808671,0.295032111 C63.7070464,0.295032111 63.0964425,0.584595177 62.9437915,1.15337977 L62.9332638,0.227812114 L59.94341,0.227812114 L60.096061,17.0638361 L63.0911786,17.0638361 L63.0648595,14.1371808 C63.6859911,14.9955285 64.63348,15.4453854 65.9178538,15.4970931 C67.6022784,15.4970931 68.439227,14.8972839 68.4286993,13.708007 L68.3971163,9.64378253 C68.3339504,8.55275027 67.739138,7.88572106 66.612679,7.64786568 C67.7338741,7.45654723 68.2918398,6.81537187 68.2813121,5.71916883 L68.2813121,5.71916883 Z" id="Fill-31" fill="#333333"></path>
                </g>
            </g>
            <g id="形状结合-2" fill="url(#linearGradient-19)">
                <path d="M14.3489509,5.83044026 L14.6064192,5.8341358 C19.0524929,5.96193754 22.6125014,9.38837803 22.6125014,13.5959826 L22.6125014,13.5959826 L22.606841,13.8859412 C22.5127752,16.2913857 21.2531648,18.4184295 19.3418813,19.7818479 L19.3418813,19.7818479 L19.5339946,19.9751514 C20.8224607,21.2993534 22.2512993,23.2986131 22.9899941,23.8624396 L22.9899941,23.8624396 L23.1221295,23.9553959 C24.2099607,24.6642017 26.0010879,24.549758 26.0010879,24.549758 L26.0010879,24.549758 L26.0010879,28.9075874 C25.9455847,28.9235864 25.6849378,28.9922027 25.2284076,29 L25.2284076,29 L25.0691529,29 L24.9235977,28.9958554 C24.120523,28.9619977 22.890243,28.7317658 21.2942262,27.9054888 L21.2942262,27.9054888 L21.0312734,27.760385 C18.1012738,26.0442246 16.8485759,21.9547805 14.4993581,21.8986729 L14.4993581,21.8986729 L14.2948352,21.9139277 C12.0074057,22.2017483 10.7298242,26.3344754 7.70449003,27.9054888 L7.70449003,27.9054888 L7.40953787,28.0535284 C5.85947828,28.806861 4.6789973,28.9891279 3.92956332,29 L3.92956332,29 L3.7703086,29 L3.62532782,28.9953072 C3.21206182,28.975424 2.99467913,28.9075874 2.99467913,28.9075874 L2.99467913,28.9075874 L2.99467913,24.549758 C3.14898869,24.5581953 4.98382957,24.6414775 6.00872217,23.8624396 L6.00872217,23.8624396 L6.12637234,23.7657718 C6.9042793,23.0862897 8.291963,21.1625491 9.53591932,19.9060272 L9.53591932,19.9060272 L9.3150095,19.7513565 C7.35232855,18.3292675 6.08540037,16.1022605 6.08540037,13.5959826 C6.08540037,9.30746256 9.78659805,5.83044026 14.3489509,5.83044026 L14.3489509,5.83044026 Z M14.5,3.55170193e-14 C22.4962368,3.55170193e-14 29,6.6841733 29,14.8957452 L29,14.8957452 L28.9936145,15.3391436 C28.9170612,17.9954199 28.1534784,20.5729995 26.7730879,22.8214712 L26.7730879,22.8214712 L26.6935882,22.9339982 C26.4935717,23.1810342 26.1964504,23.3180922 25.8970708,23.3180922 L25.8970708,23.3180922 L25.7847754,23.3117632 C25.6343247,23.2947626 25.4823637,23.2430216 25.3455045,23.150627 L25.3455045,23.150627 L25.2470804,23.0786878 C24.8434184,22.7455756 24.7389501,22.1450105 25.0210537,21.6838624 L25.0210537,21.6838624 L25.2351211,21.3228695 C26.3441576,19.3802411 26.9294142,17.1648483 26.9294142,14.8957452 L26.9294142,14.8957452 L26.925811,14.585928 C26.7651769,7.68638155 21.2539547,2.12796359 14.5,2.12796359 L14.5,2.12796359 L14.1984283,2.13166426 C7.48248521,2.29664772 2.07058584,7.95710451 2.07058584,14.8957452 L2.07058584,14.8957452 L2.07733865,15.3180032 C2.14929501,17.5662974 2.79513473,19.7501993 3.95829943,21.6578764 L3.95829943,21.6578764 L4.01649075,21.7671184 C4.23889818,22.2492639 4.07691358,22.8350829 3.625,23.124641 L3.625,23.124641 L3.52085091,23.1850067 C3.05998011,23.4161142 2.48520865,23.2533335 2.20036615,22.7868232 L2.20036615,22.7868232 L1.97874506,22.4104198 C0.682988895,20.134117 0,17.5408451 0,14.8957452 L0,14.8957452 L0.00328131923,14.5765979 C0.169256256,6.51168578 6.6105217,3.55170193e-14 14.5,3.55170193e-14 Z M14.3577984,9.91103205 L14.1578574,9.91615505 C12.1715613,10.0181876 10.5917191,11.6314706 10.5917191,13.6017584 C10.5917191,15.6406103 12.2786395,17.2924847 14.3577984,17.2924847 L14.3577984,17.2924847 L14.5580157,17.2873704 C16.5469846,17.1855095 18.1268268,15.5748409 18.1268268,13.6017584 L18.1268268,13.6017584 L18.121604,13.4059624 C18.017582,11.4607574 16.3727416,9.91103205 14.3577984,9.91103205 L14.3577984,9.91103205 Z" id="形状结合"></path>
            </g>
        </g>
    </g>
</svg>