<svg width="129" height="24" viewBox="0 0 129 24" fill="none" xmlns="http://www.w3.org/2000/svg">
<path d="M28.0801 6.93578C26.3532 7.94735 24.565 8.61244 23.9811 8.83148C28.1659 10.305 23.0625 16.2112 19.3146 12.9893C19.0452 12.7543 18.8288 12.4596 18.739 12.1171C18.1306 9.8789 23.9689 10.078 29.1743 0.00210033C24.8385 -0.061621 21.9602 1.33627 19.9229 2.60273C19.8494 2.58281 17.6448 2.13278 14.9992 2.13676C12.3536 2.13278 10.149 2.58281 10.0755 2.60273C8.04231 1.34025 5.16401 -0.061621 0.828194 0.00608291C6.03362 10.078 11.8719 9.8789 11.2635 12.1171C11.1696 12.4596 10.9573 12.7543 10.6879 12.9893C6.93998 16.2112 1.83253 10.305 6.02137 8.83148C5.43755 8.61244 3.64933 7.94735 1.92235 6.93578C1.92235 6.93578 -0.743643 9.95856 0.203541 14.7257C1.15072 19.4929 6.49905 22.6789 6.49905 22.6789C6.49905 22.6789 7.7851 23.4555 8.71187 23.814C9.91218 23.2723 12.9456 21.3209 14.9992 17.9596C17.0528 21.3169 20.0862 23.2683 21.2866 23.814C22.2174 23.4555 23.4994 22.6789 23.4994 22.6789C23.4994 22.6789 28.8477 19.4929 29.7949 14.7257C30.7461 9.95856 28.0801 6.93578 28.0801 6.93578Z" fill="#FF5245"/>
<path d="M66 2.97672H67.5C68.3284 2.97672 69 3.64308 69 4.46509V20.8372H67.5C66.6716 20.8372 66 20.1708 66 19.3488V2.97672Z" fill="white"/>
<path fill-rule="evenodd" clip-rule="evenodd" d="M55.8 20.5163C55.2662 20.1997 54.776 19.7997 54.3452 19.3279C54.2981 19.2762 54.2518 19.2239 54.2062 19.1707C53.6864 18.5641 53.2707 17.8591 52.9796 17.0893C52.9626 17.0445 52.9461 16.9995 52.93 16.9543C52.646 16.1561 52.5 15.3064 52.5 14.4488C52.5 13.5912 52.646 12.7416 52.93 11.9433C52.9461 11.8981 52.9626 11.8531 52.9796 11.8083C53.1468 11.3662 53.3551 10.9455 53.6006 10.5525C54.6375 8.75706 56.5776 7.54883 58.8 7.54883H58.8C62.1137 7.54883 64.8 10.2351 64.8 13.5488V15.3488H61.7965L55.6988 15.3488L55.5035 15.3488C55.5517 16.3761 56.0919 17.2747 56.8938 17.8142C57.211 18.0717 57.5768 18.2729 57.974 18.4057C57.9993 18.4142 58.0247 18.4224 58.0502 18.4303C58.7337 18.6417 59.4699 18.6417 60.1533 18.4303C60.1788 18.4224 60.2042 18.4142 60.2295 18.4057C60.4177 18.3428 60.5989 18.2645 60.7712 18.1722C61.4774 17.7936 62.3732 17.6119 63.0322 18.0677L64.2 18.8755C63.6411 19.608 62.9184 20.2067 62.0895 20.6316C62.0017 20.6766 61.9127 20.7197 61.8225 20.7608C61.7881 20.7765 61.7535 20.7919 61.7188 20.807C61.5015 20.9014 61.278 20.9844 61.0491 21.0552C61.0236 21.0631 60.9981 21.0708 60.9725 21.0783C60.2662 21.2874 59.5308 21.3753 58.8 21.3419V21.3488C57.9727 21.3488 57.1534 21.1704 56.3891 20.8236C56.3426 20.8025 56.2963 20.7808 56.2503 20.7585C56.0971 20.6842 55.9469 20.6034 55.8 20.5163ZM58.65 9.94883C60.3394 9.94883 61.7182 11.2788 61.7965 12.9488H55.5035C55.5818 11.2788 56.9606 9.94883 58.65 9.94883Z" fill="white"/>
<path d="M70.2002 2.97672H71.7002C72.5286 2.97672 73.2002 3.64308 73.2002 4.46509V20.8372H71.7002C70.8718 20.8372 70.2002 20.1708 70.2002 19.3488V2.97672Z" fill="white"/>
<path fill-rule="evenodd" clip-rule="evenodd" d="M80.9999 17.8604C82.8638 17.8604 84.5999 16.254 84.5999 13.9907C84.5999 11.7274 82.8638 10.1209 80.9999 10.1209C79.136 10.1209 77.3999 11.7274 77.3999 13.9907C77.3999 16.254 79.136 17.8604 80.9999 17.8604ZM80.9999 20.8372C84.645 20.8372 87.5999 17.7719 87.5999 13.9907C87.5999 10.2095 84.645 7.14417 80.9999 7.14417C77.3548 7.14417 74.3999 10.2095 74.3999 13.9907C74.3999 17.7719 77.3548 20.8372 80.9999 20.8372Z" fill="white"/>
<path fill-rule="evenodd" clip-rule="evenodd" d="M39 6.34882C39 5.52039 39.6716 4.84882 40.5 4.84882H46.8C48.7882 4.84882 50.4 6.46059 50.4 8.44882V9.94882C50.4 11.2743 49.3255 12.3488 48 12.3488C49.9882 12.3488 51.6 13.9606 51.6 15.9488V16.8488C51.6 19.3341 49.5853 21.3488 47.1 21.3488H40.5C39.6716 21.3488 39 20.6772 39 19.8488V12.3488V6.34882ZM42 7.24882H45.9C46.7284 7.24882 47.4 7.92039 47.4 8.74882V9.64882C47.4 10.4772 46.7284 11.1488 45.9 11.1488H42V7.24882ZM42 14.1488H46.5C47.6598 14.1488 48.6 15.089 48.6 16.2488C48.6 17.4086 47.6598 18.3488 46.5 18.3488H42V14.1488Z" fill="white"/>
<path fill-rule="evenodd" clip-rule="evenodd" d="M99.6001 13.5488C98.7717 13.5488 98.1001 14.2204 98.1001 15.0488V15.9488V18.6488V21.0488V21.9488L100.5 21.0488H107.1C107.929 21.0488 108.6 20.3773 108.6 19.5488V18.6488V15.9488V13.5488H106.2H99.6001ZM106.2 18.6488V15.9488H100.5V18.6488H106.2Z" fill="white"/>
<path fill-rule="evenodd" clip-rule="evenodd" d="M102.49 3.09971L101.711 3.54971L102.288 4.54878H99C98.1716 4.54878 97.5 5.22035 97.5 6.04878V6.94878H108C108.828 6.94878 109.5 6.27721 109.5 5.44878V4.54878H105.059L104.539 3.64875C104.125 2.93131 103.208 2.6855 102.49 3.09971Z" fill="white"/>
<path fill-rule="evenodd" clip-rule="evenodd" d="M104.168 9.94879L105.9 6.94879L106.68 7.39879C107.397 7.81301 107.643 8.73039 107.229 9.44783L106.939 9.94879H110.1V10.8488C110.1 11.6772 109.429 12.3488 108.6 12.3488H96.6001V11.4488C96.6001 10.6204 97.2717 9.94879 98.1001 9.94879H99.7377L99.4501 9.45072C99.0359 8.73328 99.2817 7.81589 99.9991 7.40168L100.779 6.95168L102.509 9.94879H104.168Z" fill="white"/>
<path fill-rule="evenodd" clip-rule="evenodd" d="M95.1408 2.74884C94.167 5.08606 92.2401 8.67172 90 10.9119L90.6364 11.5482C91.2222 12.134 92.1752 12.136 92.7083 11.502C92.8065 11.3853 92.9037 11.2669 93 11.1472V20.4488C93 21.2773 93.6716 21.9488 94.5 21.9488H95.4V7.59848C95.9135 6.71074 96.3657 5.83808 96.7447 5.04042C97.1002 4.29214 96.7363 3.41362 95.9716 3.09499L95.1408 2.74884Z" fill="white"/>
<path fill-rule="evenodd" clip-rule="evenodd" d="M113.7 3.94879C112.872 3.94879 112.2 4.62036 112.2 5.44879V7.84879V10.2488H114.6H117H119.4H121.8H124.2H126.6H127.5C128.329 10.2488 129 9.57722 129 8.74879V6.34879V3.94879H126.6H124.2H121.8H119.4H117H114.6H113.7ZM126.6 7.84879V6.34879H124.2V7.84879H126.6ZM121.8 7.84879V6.34879H119.4V7.84879H121.8ZM117 7.84879V6.34879H114.6V7.84879H117Z" fill="white"/>
<path fill-rule="evenodd" clip-rule="evenodd" d="M112.401 14.3871C111.693 14.8183 111.388 15.7129 111.759 16.4538L112.161 17.2588C113.696 16.4914 115.292 15.4613 116.612 14.1488H124.262C123.901 14.6235 123.323 15.1989 122.418 15.8237C121.958 16.1408 121.424 16.463 120.806 16.7827C120.469 16.5096 120.122 16.2649 119.791 16.0509C119.464 15.8396 119.136 15.6479 118.824 15.4789C118.096 15.0841 117.221 15.4582 116.913 16.2274L116.579 17.063C116.961 17.2158 117.582 17.5101 118.228 17.9036C116.523 18.5285 114.425 19.1051 111.861 19.5679L112.021 20.4536C112.168 21.2689 112.95 21.813 113.76 21.6422C118.459 20.6523 121.674 19.2527 123.781 17.799C126.035 16.2438 127.225 14.4673 127.225 12.9488C127.225 12.2861 126.687 11.7488 126.025 11.7488H118.147C118.096 11.2996 117.806 10.8763 117.356 10.6513L116.551 10.2488C116.287 10.7765 115.952 11.2769 115.56 11.7488H115.525V11.7911C114.685 12.7901 113.593 13.66 112.401 14.3871Z" fill="white"/>
</svg>
