<svg id="图层_1" data-name="图层 1" xmlns="http://www.w3.org/2000/svg" viewBox="0 0 869.72 232.41"><defs><style>.cls-1{fill:#2d3033;}.cls-2{fill:#9c0;}.cls-3{fill:#2277ef;}</style></defs><title>logo-black</title><path class="cls-1" d="M438.35,359.61l.2.64h21l-.35-1.18c-4.81-15.72-9.23-32.2-13.15-49l-.16-.7h-20l.22,1.09C429.68,328,433.79,344.53,438.35,359.61Z" transform="translate(-77.28 -267.49)"/><path class="cls-1" d="M537.26,441c-7.67,0-11.86-4.36-12.82-13.22V384.85h50V366.1H503.47V303.29H482V366.1H412.38v18.75h48.9c-6.95,23.22-22.48,42.43-46.18,57.1l-.43.27v22.49l1.36-.77c35.54-20,58.07-46.62,67-79.09h20.32v44.68c1.3,18.71,11.09,28.74,29.14,29.82,22.93,0,37-.36,41.9-1.06l.78-.11v-18.6l-1,.15C568.71,440.54,556.3,441,537.26,441Z" transform="translate(-77.28 -267.49)"/><path class="cls-1" d="M548,359.5c3.81-9.64,8.12-26,12.82-48.65l.23-1.1H540.32l-.14.74a351.38,351.38,0,0,1-13.7,48.37l-.43,1.21H547.8Z" transform="translate(-77.28 -267.49)"/><path class="cls-1" d="M729.61,320.57C723.1,312.23,716.89,308,711.16,308H637.52l-.25.55c-12.57,28.88-26.7,48.28-42,57.68l-.43.26V388l1.3-.61a99.42,99.42,0,0,0,23-15.44H742.77c7.74,9.51,13.45,15.56,17.43,18.49l1.46,1.07V364.23l-.23-.26C751.72,352.89,741,338.31,729.61,320.57Zm-30.09,5.31c6.71,0,12,3.22,16,9.91,4.51,6.35,8.83,12.31,12.86,17.75h-92.7a197.19,197.19,0,0,0,16.5-27.66Z" transform="translate(-77.28 -267.49)"/><path class="cls-1" d="M720.53,387.74H612.4v70.73h113c20.29-1.67,30.59-13.36,30.59-34.76C755.94,400.55,744,388.45,720.53,387.74Zm-87.8,17.52h87.39c10,0,14.91,5.7,14.91,17.41s-4.38,17.47-13.38,17.58l-88.92-.18Z" transform="translate(-77.28 -267.49)"/><rect class="cls-1" x="716.27" y="46.09" width="144.11" height="18.75"/><path class="cls-1" d="M947,383.11V364.53H781.91v18.58h51.56c-40.3,54.71-40.31,60.11-40.31,61.89,0,8.21,4.4,12.68,13.13,13.3H915.12c11-1.46,16.62-8,16.62-19.57v-30.4H910.27v27.44c0,3.44-1.42,3.44-1.95,3.44H820.89a6.27,6.27,0,0,1-.15-1.62c.25-1.18,5.56-9.84,38.08-54.47Z" transform="translate(-77.28 -267.49)"/><path class="cls-2" d="M171.31,427.78l-.08,0c12.38-25.69,45.45-58.67,107-64.69-17.65-6.38-35.88-8.53-53.88-5.11-36.14,6.85-65.17,34-83.78,73,18.34,7.06,37.31,9.34,56.06,5.76,31.8-6.05,58-27.89,76.51-59.73,42.46-13.34,69.1,9.93,61.45,39.45-16.51,63.7-117.12,78.47-154.8,75.59a.63.63,0,0,0-.2,1.24c97.14,25.67,179.81-28.45,183.72-74.73C368.16,361.63,267.36,327.34,171.31,427.78Z" transform="translate(-77.28 -267.49)"/><path class="cls-3" d="M377.31,399.2c-9.87-27.8-47.85-59-97.88-58.35a4.77,4.77,0,0,1-4.65-3.64c-14.36-57-98.89-46.55-96,12.52a4.52,4.52,0,0,1-4.78,4.78c-37-2.39-65.65,17.93-65.65,54.16,0,41.08,72,101.09,178.17,9.88l23.94,14.11c-51.45,41.84-91.7,49.25-132.12,49.25-40.83,0-101.05-21.66-101.05-79.66,0-51.62,46.83-72.46,75.64-69.87a3.75,3.75,0,0,0,4.12-3.69c.38-67.66,116.24-91,133.37-8.64a5,5,0,0,0,4.56,4c58.32,3.65,83.68,47.4,83.92,74.89A.81.81,0,0,1,377.31,399.2Z" transform="translate(-77.28 -267.49)"/></svg>