<svg width="98" height="38" viewBox="0 0 98 38" fill="none" xmlns="http://www.w3.org/2000/svg">
<mask id="mask0_18_247" style="mask-type:alpha" maskUnits="userSpaceOnUse" x="0" y="0" width="98" height="38">
<path d="M0.164062 0H97.9699V37.9965H0.164062V0Z" fill="white"/>
</mask>
<g mask="url(#mask0_18_247)">
<path fill-rule="evenodd" clip-rule="evenodd" d="M26.0023 0.773146H12.7788C10.5946 0.773146 9.15485 2.1013 8.64757 2.88595L0.164062 16.8679C1.02146 16.8671 2.11207 16.8671 2.87126 16.8671C3.33463 16.8671 3.56377 16.5588 3.62537 16.4595L3.6333 16.4462C3.64022 16.4349 3.64306 16.4281 3.64306 16.4281V16.4298L10.9414 4.40143C11.0299 4.2827 11.6303 3.53893 12.7788 3.53893H26.0023C27.2529 3.53893 27.7905 4.05552 27.9092 4.18781L34.3681 12.4375C34.4777 12.555 34.7819 12.8235 35.2359 12.8235C36.0906 12.8235 37.3146 12.8239 38.1622 12.8239L30.1582 2.60228C29.8741 2.20462 28.665 0.773146 26.0023 0.773146ZM71.0848 23.858L72.972 23.8541V21.948H71.0848V23.858ZM71.0848 32.833H72.9718V24.6638H71.0848V32.833ZM62.8349 26.487V27.8643H62.8371C62.8593 28.8502 63.6591 29.646 64.6418 29.646H67.8416V30.9269H62.8349V32.833H67.9219C68.9184 32.833 69.7292 32.0141 69.7292 31.0096V29.5648C69.7292 28.5592 68.9184 27.7412 67.9219 27.7412H64.7235V26.5688H69.7292V24.6636H64.6418C63.6453 24.6636 62.8349 25.482 62.8349 26.487ZM51.5889 24.6636H48.3087C47.3128 24.6636 46.5016 25.482 46.5016 26.487V32.833H48.3896V26.5688H51.5081V32.833H53.3962V26.487C53.3962 25.482 52.5853 24.6636 51.5889 24.6636ZM59.7446 24.6636H56.4819C55.4855 24.6636 54.6756 25.482 54.6756 26.487V31.0096C54.6756 32.0141 55.4855 32.833 56.4819 32.833H58.6634V30.9269H56.5633V26.5688H59.6629V31.0096C59.6629 32.2341 59.1056 33.1403 59.0686 33.1989L56.13 37.9965H57.6781C58.1868 37.9965 58.4832 37.8188 58.6514 37.5401C59.257 36.5402 60.6516 34.2378 60.6516 34.2378C60.7777 34.0394 61.5499 32.7564 61.5499 31.0096V26.487C61.5499 25.482 60.739 24.6636 59.7446 24.6636ZM79.3985 24.6636H76.9058V26.5688H79.3178V30.9269H76.2171V21.948H74.3289V31.0096C74.3289 32.0141 75.1393 32.833 76.1352 32.833H79.3985C80.395 32.833 81.2058 32.0141 81.2058 31.0096V26.487C81.2058 25.482 80.395 24.6636 79.3985 24.6636ZM89.2514 30.8574V26.487C89.2514 25.482 88.4411 24.6636 87.4447 24.6636H84.1818C83.1855 24.6636 82.3747 25.482 82.3747 26.487V31.0096C82.3747 32.0141 83.1855 32.833 84.1818 32.833H86.942V30.9269H84.2623V26.5688H87.3643V30.8574C87.3643 31.3457 87.4101 31.9007 87.7513 32.3154C88.1768 32.833 88.8059 32.833 89.0432 32.833H89.6377V30.9269H89.2526C89.2514 30.9053 89.2514 30.8827 89.2514 30.8574ZM92.3196 30.9269H95.4209V26.5688H92.3196V30.9269ZM95.5016 24.6636H92.2383C91.2419 24.6636 90.4322 25.482 90.4322 26.487V31.0096C90.4322 32.0141 91.2419 32.833 92.2383 32.833H95.5016C96.497 32.833 97.3089 32.0141 97.3089 31.0096V26.487C97.3089 25.482 96.497 24.6636 95.5016 24.6636ZM40.4362 30.9269H43.5384V26.5688H40.4362V30.9269ZM43.6187 24.6636H40.3561C39.3596 24.6636 38.549 25.482 38.549 26.487V31.0096C38.549 32.0141 39.3596 32.833 40.3561 32.833H43.6187C44.615 32.833 45.4266 32.0141 45.4266 31.0096V26.487C45.4266 25.482 44.615 24.6636 43.6187 24.6636ZM90.6925 20.8788L92.0387 20.6241C92.0387 20.6241 91.8947 19.8487 91.7605 19.1265C91.6448 18.4951 91.692 18.786 91.6324 18.4522C91.5726 18.119 91.4122 17.9415 90.7466 18.0545C90.4511 18.1048 90.1882 18.1597 90.1882 18.1597C87.9828 18.576 85.7541 18.7827 83.5301 18.7827C79.3271 18.7827 75.1394 18.044 71.1695 16.5853C71.1695 16.5853 70.9994 16.5224 70.7834 16.4431C70.1912 16.1835 69.7447 16.4916 69.5745 16.9614C69.3012 17.7199 68.9446 18.71 68.9446 18.71L70.2324 19.1836C74.5044 20.7546 79.0085 21.5485 83.5305 21.5485C85.9228 21.5485 88.3208 21.3258 90.6925 20.8788ZM94.5698 0.773146H84.9025V0H82.1622V0.773146H72.496C70.6208 0.773146 69.0949 2.31245 69.0949 4.20506V5.56792H69.0959V8.03238H70.9979C71.6018 8.03238 71.8448 7.69901 71.8448 7.15222V5.14623H71.8354V4.20506C71.8354 3.83821 72.1318 3.53893 72.496 3.53893H94.5698C94.9331 3.53893 95.2293 3.83821 95.2293 4.20506V4.60005C95.2293 4.96752 94.9331 5.26639 94.5698 5.26639H74.2112V8.03197H82.1622V10.5989H70.4921V13.3653H82.1622V16.6265C82.1622 17.1762 82.405 17.5118 83.0064 17.5118H84.9025V13.3653H96.5727V10.5989H84.9025V8.03197H94.5698C96.444 8.03197 97.9699 6.49266 97.9699 4.60005V4.20506C97.9699 2.31245 96.444 0.773146 94.5698 0.773146ZM60.7736 5.38902H37.4325C37.9231 6.01632 38.5827 6.85643 39.1457 7.57165C39.5611 8.09996 40.2137 8.15234 40.3953 8.15521H60.7736V5.38902ZM66.7046 16.6777V4.61546C66.7046 2.28103 65.2371 0.773146 62.9668 0.773146H33.6988C34.1896 1.39963 34.8489 2.24036 35.4117 2.95517C35.8405 3.50052 36.5225 3.53893 36.6774 3.53893H62.9668C63.8053 3.53893 63.9643 3.9177 63.9643 4.61546V17.0178C63.9643 17.7172 63.6744 19.3712 61.5499 20.3766L62.3569 22.9173C65.5921 21.6432 66.7046 19.2405 66.7046 16.6777ZM42.9561 13.0915C43.0189 12.9617 43.4052 12.767 44.2075 12.767H58.0331V18.3029H50.2532V18.3035H47.9104C46.6602 18.3035 46.121 17.7863 46.0041 17.6538L43.7332 14.7565C43.6039 14.5869 43.4734 14.4156 43.339 14.2397C42.9459 13.725 42.8774 13.2503 42.9561 13.0915ZM41.5445 16.4215C41.7171 16.6475 41.8864 16.8693 42.0505 17.0834L42.8872 18.1796L42.9095 18.1622L43.7545 19.2397C44.0392 19.6363 45.2483 21.0686 47.9104 21.0686H58.5401C59.7714 21.0686 60.7736 20.0576 60.7736 18.8141V12.2559C60.7736 11.0124 59.7714 10.0012 58.5401 10.0012H44.2075C41.7714 10.0012 40.8373 11.1722 40.4968 11.8708C39.9145 13.0656 40.1712 14.6199 41.1677 15.9273C41.1728 15.9341 41.1777 15.9405 41.1828 15.9473L41.1767 15.9522L41.5445 16.4215ZM32.8151 24.6636H27.4723C26.1806 24.6636 25.544 25.5904 25.4771 25.6962L23.8229 28.4244H26.0365L27.0602 26.735C27.0754 26.7165 27.2178 26.5688 27.4723 26.5688H32.8151C33.1228 26.5688 33.2559 26.6663 33.2879 26.6945L35.3282 29.2957C35.4117 29.3783 35.5982 29.5235 35.8682 29.5235C36.4767 29.5235 37.3728 29.5244 37.915 29.5244L34.8103 25.5656C34.511 25.1383 33.8256 24.6636 32.8151 24.6636ZM35.4117 30.9269H29.4888V32.833H34.8931L33.0254 35.9164C33.0097 35.9336 32.8658 36.0821 32.6124 36.0821H27.2702C26.9577 36.0821 26.8251 35.9815 26.7957 35.955L24.119 32.4674H21.7318L25.2708 37.0798C25.5686 37.5091 26.255 37.9864 27.2702 37.9864H32.6124C33.9039 37.9864 34.5395 37.0599 34.6084 36.9551L36.6276 33.6228C36.7843 33.3613 37.2605 32.4479 36.8205 31.66C36.6685 31.3868 36.2821 30.9269 35.4117 30.9269ZM31.6062 18.6909C32.1885 17.4958 31.9315 15.9413 30.9352 14.6347C29.8038 13.1511 28.7551 11.7806 27.8165 10.5601C27.573 10.2004 26.5348 8.83613 24.8111 8.83613C22.9883 8.83613 21.8906 10.2304 21.6665 10.5453C20.8286 11.637 19.6343 13.9487 18.5759 15.4941H21.1119C21.6057 15.4941 21.928 15.2926 22.1573 15.0264L23.8949 12.1561C23.9455 12.0914 24.3383 11.6021 24.8111 11.6021C25.1327 11.6021 25.4655 11.9934 25.5507 12.1154L25.5703 12.1497L25.6227 12.2173C26.5653 13.4442 27.6222 14.8251 28.764 16.3223C29.1568 16.8367 29.2239 17.3107 29.1471 17.4697C29.0832 17.6 28.6971 17.7945 27.8936 17.7945H12.7217C11.8529 17.7945 11.5607 17.5852 11.5304 17.5299C11.4617 17.4026 11.506 16.8886 11.9265 16.2149C12.9179 14.6214 16.9019 8.00362 17.0713 7.72263L17.6931 6.69026C16.9609 6.68985 16.0006 6.68985 15.1349 6.68985C14.554 6.68985 14.1754 7.21712 14.0994 7.33297C12.9016 9.31986 10.3524 13.5444 9.60642 14.7424C8.68193 16.2256 8.5085 17.7287 9.13188 18.8671C9.55417 19.6388 10.521 20.5605 12.7217 20.5605H27.8936C30.3298 20.5605 31.265 19.3892 31.6062 18.6909Z" fill="#181919"/>
</g>
<mask id="mask1_18_247" style="mask-type:alpha" maskUnits="userSpaceOnUse" x="92" y="15" width="6" height="5">
<path d="M92.1895 15.0391H97.8466V19.8955H92.1895V15.0391Z" fill="white"/>
</mask>
<g mask="url(#mask1_18_247)">
<path fill-rule="evenodd" clip-rule="evenodd" d="M97.7649 17.2237C97.5107 16.577 96.7365 16.2439 96.0371 16.4792C95.7273 16.5835 95.4137 16.685 95.0979 16.7816L94.8317 15.9368C94.6231 15.2766 93.8747 14.8966 93.1603 15.0891C92.4455 15.2826 92.0353 15.9741 92.2437 16.6357L93.2715 19.8955L94.5645 19.5468C95.3701 19.3309 96.1759 19.0865 96.9603 18.8226C97.6597 18.5865 98.0193 17.8704 97.7649 17.2237Z" fill="#181919"/>
</g>
<path fill-rule="evenodd" clip-rule="evenodd" d="M35.3114 16C34.7609 16 34.5417 16.4338 34.5417 16.4338V16.4273L29.7268 24.306H32.9239L38 16H35.3114ZM27.206 28.4321C27.1503 28.5077 26.5505 29.2723 25.3833 29.2723H12.221C10.9752 29.2723 10.4395 28.7622 10.3221 28.6321L3.78818 20.3785C3.68598 20.2685 3.38058 19.9891 2.91693 19.9891C2.06429 19.9891 0.842717 19.9881 0 19.9881L8.08434 30.1958C8.36606 30.588 9.56962 32 12.221 32H25.3833C27.5577 32 28.9908 30.6902 29.4957 29.9166L30.9695 27.5034H27.7732L27.206 28.4321Z" fill="#F4D100"/>
</svg>
