<?xml version="1.0" encoding="utf-8"?>
<!-- Generator: Adobe Illustrator 23.0.1, SVG Export Plug-In . SVG Version: 6.00 Build 0)  -->
<svg version="1.1" id="图层_1" xmlns="http://www.w3.org/2000/svg" xmlns:xlink="http://www.w3.org/1999/xlink" x="0px" y="0px"
	 viewBox="0 0 499.7 109" style="enable-background:new 0 0 499.7 109;" xml:space="preserve">
<style type="text/css">
	.st0{fill:#FF942E;}
	.st1{fill:#FFAB31;}
	.st2{fill:#FF4436;}
	.st3{fill:#FF782B;}
	.st4{fill:#FF5C2C;}
</style>
<title>资源 1</title>
<g>
	<g id="图层_1-2">
		<path class="st0" d="M233,45.1c7.7-7.6,13.5-15.4,17.4-23l-9.9-4.1c-3.2,6.3-8.4,13.1-15,19.7c-6.1,6-12.8,11.4-20.1,16.1l5.2,9.2
			C218.8,57.9,226.2,51.9,233,45.1z"/>
		<path class="st0" d="M273.1,17.6l-10.5,5c2.7,6.9,7.7,15.2,14.1,23.4c5.9,7.6,12.4,14.2,17.8,18.1l7.2-9.2
			C292.4,48,278.1,30.6,273.1,17.6z"/>
		<path class="st0" d="M273.7,55.7h-49.2l-1.2,11.1h14c-1.2,5.3-3.3,10.4-6.3,15c-4.9,7.3-11.6,13.1-19.4,17l4.2,9.7
			c9.9-4.9,18.3-12.3,24.4-21.4c4-6.2,6.8-13.1,8.3-20.3h22.2c1,0,1.8,0.8,1.9,1.8c0,0.1,0,0.2,0,0.3l-2.1,18.7
			c-0.7,5.1-4.9,8.9-10,9h-7.1l-1.2,11.1h7.1c11.1,0,21.1-9,22.3-20.1l2.3-20.5c0.8-5.4-3-10.4-8.4-11.2
			C274.8,55.7,274.2,55.7,273.7,55.7z"/>
		<path class="st0" d="M333.2,33.3c0.2-1.3,1.2-2.2,2.5-2.3h46.4c1.1,0,2,0.9,2,2c0,0.1,0,0.2,0,0.3l-5,45.4h11.1l5-45.4
			c0.9-6.4-3.6-12.3-10-13.2c-0.6-0.1-1.2-0.1-1.8-0.1H337c-7.6,0.2-13.8,5.8-14.8,13.3l-5,45.4h11L333.2,33.3z"/>
		<path class="st0" d="M361.6,57l2-17.6h-11.1l-2,17.6c-1.1,9.6-2.9,17.3-8.5,23.6c-3.6,3.9-7.9,7-12.8,9
			c-6.4,2.9-14.6,5.1-24.4,6.5l0.4,11c21.2-3,35.8-9.5,44.8-19.7c0.1-0.1,0.1-0.2,0.2-0.2c8.9,4.3,30.2,14.8,41.5,21.8l6.6-9.6
			c-11.5-7.2-32.5-17.5-41.8-22C359.7,70.7,360.9,63.7,361.6,57z"/>
		<polygon class="st0" points="428.5,20.9 417.4,20.9 415.5,38.3 426.5,38.3 		"/>
		<path class="st0" d="M424.1,97c-2,0-3.6-1.5-3.6-3.5c0-0.2,0-0.4,0-0.5l5.5-49.3h-11.1L409.4,93c-1,7.3,4.1,14,11.3,15
			c0.7,0.1,1.4,0.1,2.1,0.1h70.3l1.2-11.1H424.1z"/>
		<path class="st0" d="M439.4,85.6h17l-0.8,6.8h11.1l0.8-6.8h17l-0.8,6.8h11.1l4.6-41.9c0.6-4.3-2.4-8.2-6.6-8.8
			c-0.4-0.1-0.8-0.1-1.3-0.1h-5.4l10.3-7.9c2.5-1.8,3.7-5,3-8c-0.7-2.9-3.3-4.9-6.3-4.8h-54.7L437.2,32H453l-6.4,5.3l3.5,4.3H442
			c-5,0.1-9.2,3.9-9.8,8.9l-4.6,41.9h11.1L439.4,85.6z M440.6,74.5l0.6-5.4h17l-0.6,5.4H440.6z M468.7,74.5l0.6-5.4h17l-0.6,5.4
			H468.7z M487.9,54.5l-0.4,3.6h-17l0.6-5.4h15.2c0.9,0,1.6,0.7,1.6,1.5C487.9,54.3,487.9,54.4,487.9,54.5L487.9,54.5z M457.4,32
			h22.8c0.3,0,0.5,0.2,0.5,0.5c0,0.2-0.1,0.3-0.2,0.4l-11.4,8.7h-3.7L457.4,32z M444.8,52.7H460l-0.6,5.4h-17l0.4-3.6
			C442.9,53.4,443.8,52.7,444.8,52.7z"/>
		<g>
			<path class="st1" d="M103.6,6L83.4,0.2c-3.3-0.9-6.7,1-7.6,4.3l0,0L59.3,62.6L103.6,6z"/>
			<path class="st0" d="M51.3,109l76.6-98l-9.5-7.5c-2.7-2.1-6.6-1.7-8.7,1l-79.8,102c-0.5,0.7-0.4,1.7,0.3,2.2
				c0.3,0.2,0.6,0.3,1,0.3H51.3z"/>
			<path class="st0" d="M183.5,54.6l-41.2-32.3L74.5,109h72c1.4,0,2.8-0.7,3.6-1.8l34.4-44C186.7,60.5,186.2,56.6,183.5,54.6z"/>
			<path class="st2" d="M33.1,96.5l4.8-6.1L15.6,42.7L1.8,56.5c-2.4,2.4-2.4,6.3,0,8.8L33.1,96.5z"/>
			<path class="st3" d="M50.1,74.3l2-2.4l18.2-65l-22,2.8c-3.4,0.4-5.8,3.5-5.4,6.9L50.1,74.3z"/>
			<path class="st4" d="M40.8,86.7l5.6-7.2l-7.3-58.2L21,29.8c-3.1,1.4-4.4,5.1-3,8.2L40.8,86.7z"/>
		</g>
	</g>
</g>
</svg>
