<?xml version="1.0" encoding="UTF-8"?>
<svg width="126px" height="44px" viewBox="0 0 126 44" version="1.1" xmlns="http://www.w3.org/2000/svg" xmlns:xlink="http://www.w3.org/1999/xlink">
    <title>彩</title>
    <defs>
        <path d="M17.869,0.18409509 C17.855,0.18409509 17.839,0.187096641 17.824,0.188097158 L17.824,0.188097158 C17.423,0.185095607 17.018,0.193099742 16.611,0.218112661 L16.611,0.218112661 C9.382,0.652336951 3.406,5.1346522 0.97,11.2057881 L0.97,11.2057881 C0.965,11.2157933 0.96,11.2257984 0.955,11.2368041 L0.955,11.2368041 C0.557,12.0962481 0.36,13.0557437 0.42,14.0562605 L0.42,14.0562605 C0.459,14.7146005 0.608,15.340924 0.846,15.9232248 L0.846,15.9232248 C0.854,15.9422346 0.863,15.9632455 0.872,15.9842563 L0.872,15.9842563 C0.899,16.0502904 0.928,16.113323 0.958,16.1783566 L0.958,16.1783566 C0.974,16.2133747 0.991,16.2493933 1.008,16.2854119 L1.008,16.2854119 C1.025,16.32043 1.043,16.3554481 1.061,16.3904661 L1.061,16.3904661 C1.92,18.0683328 3.574,19.3589995 5.686,19.6931721 L5.686,19.6931721 C6.996,19.9002791 8.35,19.9693147 9.734,19.8862718 L9.734,19.8862718 C16.127,19.5020734 21.542,15.9522398 24.393,10.9386501 L24.393,10.9386501 C24.41,10.9086346 24.423,10.8816207 24.439,10.8516052 L24.439,10.8516052 C24.462,10.8085829 24.486,10.7655607 24.507,10.721538 L24.507,10.721538 C24.667,10.39637 24.731,10.1322336 24.727,9.90911835 L24.727,9.90911835 C24.736,9.80206305 24.74,9.69400724 24.732,9.5849509 L24.732,9.5849509 C24.659,8.35931783 23.632,7.40882687 22.378,7.3447938 L22.378,7.3447938 C22.377,7.34279276 22.375,7.33779018 22.373,7.33478863 L22.373,7.33478863 C21.752,7.28376227 21.249,6.80751628 21.212,6.19620052 L21.212,6.19620052 C21.197,5.9390677 21.266,5.69794315 21.394,5.49483824 L21.394,5.49483824 C21.725,4.9205416 21.897,4.25519793 21.856,3.55383566 L21.856,3.55383566 C21.741,1.64484961 20.087,0.177091473 18.11,0.176090956 L18.11,0.176090956 C18.03,0.176090956 17.95,0.179092506 17.869,0.18409509 M16.15,10.3663545 C16.097,9.47689509 16.809,8.71149974 17.741,8.6554708 L17.741,8.6554708 C18.674,8.59944186 19.472,9.2747907 19.526,10.1632496 L19.526,10.1632496 C19.579,11.0537096 18.866,11.8181044 17.935,11.8741333 L17.935,11.8741333 C17.899,11.8761344 17.863,11.8781354 17.827,11.8781354 L17.827,11.8781354 C16.941,11.8781354 16.201,11.2207959 16.15,10.3663545" id="path-1"></path>
        <linearGradient x1="-0.000339317039%" y1="50.0027606%" x2="99.9995472%" y2="50.0027606%" id="linearGradient-3">
            <stop stop-color="#00C1FF" offset="0%"></stop>
            <stop stop-color="#0772FB" offset="100%"></stop>
        </linearGradient>
        <path d="M17.258,0.951491473 C17.043,0.956494057 16.819,1.02953178 16.6,1.17160517 L16.6,1.17160517 L0.473,9.60896331 C0.138,9.82607545 0.004,10.1532444 0,10.4844155 L0,10.4844155 L0,10.51243 C0.003,10.7515535 0.071,10.990677 0.18,11.1897798 L0.18,11.1897798 L6.025,22.4205809 L1.201,24.9738997 C0.632,25.2640496 0.4,25.9664124 0.683,26.5477127 L0.683,26.5477127 L1.815,28.8739142 C2.1,29.4592165 2.798,29.6983401 3.37,29.4061891 L3.37,29.4061891 L31.238,15.0517747 C31.833,14.7476176 32.053,13.99723 31.718,13.4109271 L31.718,13.4109271 L30.453,11.1967835 C30.146,10.6605065 29.481,10.4574016 28.936,10.7355452 L28.936,10.7355452 L24.415,12.9516899 C24.415,12.9516899 19.475,3.67489819 18.222,1.55880517 L18.222,1.55880517 C17.987,1.15959897 17.657,0.959495607 17.299,0.951491473 L17.299,0.951491473 L17.258,0.951491473 Z" id="path-4"></path>
        <linearGradient x1="0%" y1="50.0000309%" x2="99.9998285%" y2="50.0000309%" id="linearGradient-6">
            <stop stop-color="#00C1FF" offset="0%"></stop>
            <stop stop-color="#0772FB" offset="100%"></stop>
        </linearGradient>
        <path d="M21.2812558,0.33292945 L8.86425581,7.53182422 C8.67025581,7.61966025 8.45025581,7.61966025 8.25625581,7.53090926 L8.25625581,7.53090926 L1.06725581,4.85465517 C0.574255814,4.63049029 0.017255814,4.99921864 0.014255814,5.55276863 L0.014255814,5.55276863 L0.686255814,10.193439 C0.684255814,10.6188947 1.01925581,10.9656641 1.43425581,10.9656641 L1.43425581,10.9656641 L19.8612558,10.9656641 C20.2762558,10.9656641 20.6122558,10.6198097 20.6102558,10.1943539 L20.6102558,10.1943539 L22.3342558,1.03287283 C22.3322558,0.590032835 21.9792558,0.266137468 21.5852558,0.266137468 L21.5852558,0.266137468 C21.4852558,0.266137468 21.3822558,0.287181517 21.2812558,0.33292945" id="path-7"></path>
        <linearGradient x1="0.000767921147%" y1="49.9980785%" x2="99.9978696%" y2="49.9980785%" id="linearGradient-9">
            <stop stop-color="#00C1FF" offset="0%"></stop>
            <stop stop-color="#0772FB" offset="100%"></stop>
        </linearGradient>
    </defs>
    <g id="彩" stroke="none" stroke-width="1" fill="none" fill-rule="evenodd">
        <rect id="矩形" fill="#FFFFFF" opacity="0" x="0" y="0" width="126" height="44"></rect>
        <g id="编组" transform="translate(0.000000, -0.000000)">
            <g id="分组" transform="translate(6.000000, 17.008786)">
                <mask id="mask-2" fill="white">
                    <use xlink:href="#path-1"></use>
                </mask>
                <g id="Clip-2"></g>
                <path d="M17.869,0.18409509 C17.855,0.18409509 17.839,0.187096641 17.824,0.188097158 L17.824,0.188097158 C17.423,0.185095607 17.018,0.193099742 16.611,0.218112661 L16.611,0.218112661 C9.382,0.652336951 3.406,5.1346522 0.97,11.2057881 L0.97,11.2057881 C0.965,11.2157933 0.96,11.2257984 0.955,11.2368041 L0.955,11.2368041 C0.557,12.0962481 0.36,13.0557437 0.42,14.0562605 L0.42,14.0562605 C0.459,14.7146005 0.608,15.340924 0.846,15.9232248 L0.846,15.9232248 C0.854,15.9422346 0.863,15.9632455 0.872,15.9842563 L0.872,15.9842563 C0.899,16.0502904 0.928,16.113323 0.958,16.1783566 L0.958,16.1783566 C0.974,16.2133747 0.991,16.2493933 1.008,16.2854119 L1.008,16.2854119 C1.025,16.32043 1.043,16.3554481 1.061,16.3904661 L1.061,16.3904661 C1.92,18.0683328 3.574,19.3589995 5.686,19.6931721 L5.686,19.6931721 C6.996,19.9002791 8.35,19.9693147 9.734,19.8862718 L9.734,19.8862718 C16.127,19.5020734 21.542,15.9522398 24.393,10.9386501 L24.393,10.9386501 C24.41,10.9086346 24.423,10.8816207 24.439,10.8516052 L24.439,10.8516052 C24.462,10.8085829 24.486,10.7655607 24.507,10.721538 L24.507,10.721538 C24.667,10.39637 24.731,10.1322336 24.727,9.90911835 L24.727,9.90911835 C24.736,9.80206305 24.74,9.69400724 24.732,9.5849509 L24.732,9.5849509 C24.659,8.35931783 23.632,7.40882687 22.378,7.3447938 L22.378,7.3447938 C22.377,7.34279276 22.375,7.33779018 22.373,7.33478863 L22.373,7.33478863 C21.752,7.28376227 21.249,6.80751628 21.212,6.19620052 L21.212,6.19620052 C21.197,5.9390677 21.266,5.69794315 21.394,5.49483824 L21.394,5.49483824 C21.725,4.9205416 21.897,4.25519793 21.856,3.55383566 L21.856,3.55383566 C21.741,1.64484961 20.087,0.177091473 18.11,0.176090956 L18.11,0.176090956 C18.03,0.176090956 17.95,0.179092506 17.869,0.18409509 M16.15,10.3663545 C16.097,9.47689509 16.809,8.71149974 17.741,8.6554708 L17.741,8.6554708 C18.674,8.59944186 19.472,9.2747907 19.526,10.1632496 L19.526,10.1632496 C19.579,11.0537096 18.866,11.8181044 17.935,11.8741333 L17.935,11.8741333 C17.899,11.8761344 17.863,11.8781354 17.827,11.8781354 L17.827,11.8781354 C16.941,11.8781354 16.201,11.2207959 16.15,10.3663545" id="Fill-1" fill="url(#linearGradient-3)" mask="url(#mask-2)"></path>
            </g>
            <path d="M15.5935,19.3578989 C10.6245,22.0542917 6.2265,26.0743682 6.4005,31.2510421 L26.5475,18.1902958 C24.7705,16.3683547 20.3395,16.7815682 15.5935,19.3578989" id="Fill-3" fill="#0773FC"></path>
            <g id="分组">
                <mask id="mask-5" fill="white">
                    <use xlink:href="#path-4"></use>
                </mask>
                <g id="Clip-6"></g>
                <path d="M17.258,0.951491473 C17.043,0.956494057 16.819,1.02953178 16.6,1.17160517 L16.6,1.17160517 L0.473,9.60896331 C0.138,9.82607545 0.004,10.1532444 0,10.4844155 L0,10.4844155 L0,10.51243 C0.003,10.7515535 0.071,10.990677 0.18,11.1897798 L0.18,11.1897798 L6.025,22.4205809 L1.201,24.9738997 C0.632,25.2640496 0.4,25.9664124 0.683,26.5477127 L0.683,26.5477127 L1.815,28.8739142 C2.1,29.4592165 2.798,29.6983401 3.37,29.4061891 L3.37,29.4061891 L31.238,15.0517747 C31.833,14.7476176 32.053,13.99723 31.718,13.4109271 L31.718,13.4109271 L30.453,11.1967835 C30.146,10.6605065 29.481,10.4574016 28.936,10.7355452 L28.936,10.7355452 L24.415,12.9516899 C24.415,12.9516899 19.475,3.67489819 18.222,1.55880517 L18.222,1.55880517 C17.987,1.15959897 17.657,0.959495607 17.299,0.951491473 L17.299,0.951491473 L17.258,0.951491473 Z" id="Fill-5" fill="url(#linearGradient-6)" mask="url(#mask-5)"></path>
            </g>
            <g id="分组" transform="translate(7.976744, 32.016537)">
                <mask id="mask-8" fill="white">
                    <use xlink:href="#path-7"></use>
                </mask>
                <g id="Clip-8"></g>
                <path d="M21.2812558,-0.661341602 L8.86425581,7.21072455 C8.67025581,7.30677416 8.45025581,7.30677416 8.25625581,7.20972403 L8.25625581,7.20972403 L1.06725581,4.2832124 C0.574255814,4.03808579 0.017255814,4.44129406 0.014255814,5.04660672 L0.014255814,5.04660672 L0.686255814,10.1212279 C0.684255814,10.5864682 1.01925581,10.9656641 1.43425581,10.9656641 L1.43425581,10.9656641 L19.8612558,10.9656641 C20.2762558,10.9656641 20.6122558,10.5874687 20.6102558,10.1222284 L20.6102558,10.1222284 L22.3342558,0.104053747 C22.3322558,-0.380196382 21.9792558,-0.734379328 21.5852558,-0.734379328 L21.5852558,-0.734379328 C21.4852558,-0.734379328 21.3822558,-0.711367442 21.2812558,-0.661341602" id="Fill-7" fill="url(#linearGradient-9)" mask="url(#mask-8)"></path>
            </g>
            <path d="M50.3530659,10.2627521 L52.8797867,17.9943152 L57,17.9943152 L53.9015996,8.70482245 C53.7460616,8.27955537 53.3391905,7.99431525 52.8890572,7.99431525 L44.1099127,7.99431525 C43.6608095,7.99431525 43.2539384,8.27955537 43.0984004,8.70482245 L40,17.9943152 L44.1191832,17.9943152 L46.645904,10.2627521 L50.3530659,10.2627521 Z" id="Fill-9" fill="#1B2337"></path>
            <polygon id="Fill-11" fill="#1B2337" points="57 24.9943152 61 24.9943152 61 11.9943152 57 11.9943152"></polygon>
            <path d="M58,26.8289687 L58,27.9566915 C58,28.5289687 58.4711189,28.9943152 59.0504949,28.9943152 L64.9495051,28.9943152 C65.5288811,28.9943152 66,28.5289687 66,27.9566915 L66,7.99431525 L61.9834607,7.99431525 L61.9834607,26.8289687 L58,26.8289687 Z" id="Fill-13" fill="#1B2337"></path>
            <path d="M41,27.9096882 C41,28.507889 41.4745078,28.9943152 42.0580515,28.9943152 L53.9419485,28.9943152 C54.5254922,28.9943152 55,28.507889 55,27.9096882 L55,26.7308808 L45.0454316,26.7308808 L45.0454316,18.2587846 L50.6042403,18.2587846 L50.6042403,22.6252364 L47.7107521,22.6252364 L47.7107521,23.8040438 C47.7107521,24.4022446 48.1862696,24.8886708 48.7688036,24.8886708 L53.59263,24.8886708 C54.1761736,24.8886708 54.6506815,24.4022446 54.6506815,23.8040438 L54.6506815,16.9775172 L53.1443715,16.9775172 L53.1443715,15.9943152 L43.1564866,15.9943152 L43.1564866,16.9775172 L41,16.9775172 L41,27.9096882 Z" id="Fill-14" fill="#1B2337"></path>
            <polygon id="Fill-15" fill="#1B2337" points="81 9.99431525 85 9.99431525 85 7.99431525 81 7.99431525"></polygon>
            <polygon id="Fill-16" fill="#1B2337" points="75.2570499 11.9943152 72 16.9943152 75.7438991 16.9943152 79 11.9943152"></polygon>
            <path d="M73.8289369,18.7764935 L70,18.7764935 L70,19.9300857 C70,20.5170367 70.4768416,20.9943152 71.0632554,20.9943152 L73.8289369,20.9943152 C79.5652404,20.9943152 87.7344508,19.4507763 92.114292,16.0631144 C92.677371,15.6274709 93,14.9694358 93,14.2606265 L93,12.9943152 L76.32779,12.9943152 L76.32779,15.214168 L89.4368769,15.214168 L88.8748125,15.4832718 C84.0688575,17.7823325 76.5854874,18.7764935 73.8289369,18.7764935" id="Fill-17" fill="#1B2337"></path>
            <path d="M73,15.317008 C76.0219127,18.1665179 83.4705908,20.9943152 92.1496629,20.9943152 L94.9318222,20.9943152 C95.5204933,20.9943152 96,20.5083683 96,19.9107571 L96,18.737247 L92.1496629,18.737247 C89.378726,18.737247 81.8535309,17.723996 77.0196948,15.3831795 C75.5322037,14.6645984 73.6386622,15.125731 73,15.317008" id="Fill-18" fill="#1B2337"></path>
            <path d="M95,13.9943152 L95,10.0852623 C95,9.48346835 94.5243918,8.99431525 93.9394949,8.99431525 L72.0605051,8.99431525 C71.4756082,8.99431525 71,9.48346835 71,10.0852623 L71,13.9943152 L75.0558249,13.9943152 L75.0558249,11.2742485 L90.9441751,11.2742485 L90.9441751,13.9943152 L95,13.9943152 Z" id="Fill-19" fill="#1B2337"></path>
            <path d="M76.9426041,26.8499767 L90.0564119,26.8499767 L90.0564119,24.1396348 L76.9426041,24.1396348 L76.9426041,26.8499767 Z M92.9688422,21.9943152 L74.0311578,21.9943152 C73.4624467,21.9943152 73,22.4543769 73,23.0223422 L73,27.9672693 C73,28.5342536 73.4624467,28.9943152 74.0311578,28.9943152 L92.9688422,28.9943152 C93.5375533,28.9943152 94,28.5342536 94,27.9672693 L94,23.0223422 C94,22.4543769 93.5375533,21.9943152 92.9688422,21.9943152 L92.9688422,21.9943152 Z" id="Fill-20" fill="#1B2337"></path>
            <path d="M112,23.9943152 L112,10.0631213 C112,9.47364622 111.537136,8.99431525 110.967911,8.99431525 L101.032089,8.99431525 C100.462864,8.99431525 100,9.47364622 100,10.0631213 L100,23.9943152 L103.167173,23.9943152 L103.167173,11.2247341 L108.832827,11.2247341 L108.832827,23.9943152 L112,23.9943152 Z" id="Fill-21" fill="#1B2337"></path>
            <path d="M124.947338,12.9943152 C125.527909,12.9943152 126,12.5645027 126,12.0359248 L126,10.9943152 L119,10.9943152 L119,12.9943152 L124.947338,12.9943152 Z" id="Fill-22" fill="#1B2337"></path>
            <polygon id="Fill-23" fill="#1B2337" points="116 16.9943152 119 16.9943152 119 7.99431525 116 7.99431525"></polygon>
            <path d="M116.157585,26.8321977 L121.841433,26.8321977 L121.841433,19.1584119 L116.157585,19.1584119 L116.157585,26.8321977 Z M125,18.0313401 C125,17.4584036 124.538537,16.9943152 123.971036,16.9943152 L114.028964,16.9943152 C113.461463,16.9943152 113,17.4584036 113,18.0313401 L113,27.9572904 C113,28.5302268 113.461463,28.9943152 114.028964,28.9943152 L123.971036,28.9943152 C124.538537,28.9943152 125,28.5302268 125,27.9572904 L125,18.0313401 Z" id="Fill-24" fill="#1B2337"></path>
            <path d="M100.328527,26.7837889 C99.9963953,26.7888497 99.0198881,26.7837889 99.0198881,26.7837889 L99,27.9335865 C99,28.5186067 99.467371,28.9943152 100.042138,28.9943152 L100.328527,28.9943152 C102.63555,28.9943152 106.999006,27.9376351 106.999006,23.9335865 L107,12.9943152 L103.801989,12.9943152 L103.801989,23.9335865 C103.801989,25.923465 101.79826,26.7645582 100.328527,26.7837889" id="Fill-25" fill="#1B2337"></path>
            <path d="M110,24.9943152 C108.896761,24.9943152 108,25.8920885 108,26.9953274 C108,28.096542 108.896761,28.9943152 110,28.9943152 C111.102227,28.9943152 112,28.096542 112,26.9953274 C112,25.8920885 111.102227,24.9943152 110,24.9943152" id="Fill-26" fill="#1B2337"></path>
            <path d="M46.3974204,41.6056645 L49.8320561,41.6056645 L49.8320561,42.3899782 L42.9847313,42.3899782 L42.9847313,41.6056645 L45.5744246,41.6056645 L45.5744246,33.1198257 L46.3974204,33.1416122 L46.3974204,36.1917211 L49.2833922,36.1917211 L49.2833922,36.9760349 L46.3974204,36.9760349 L46.3974204,41.6056645 Z M43.050571,35.3420479 L42.4470407,35.962963 C42.1068692,35.3202614 41.2619268,34.2418301 40.8120225,33.7843137 L41.4045794,33.2723312 C41.8654571,33.7298475 42.7103994,34.7864924 43.050571,35.3420479 Z M43.566315,39.9172113 L43.88454,40.6797386 C43.6760477,40.8431373 42.5458002,41.8017429 42.2166019,42.1067538 C42.062976,42.2374728 41.8325372,42.4662309 41.6459915,42.6514161 L41.1631673,42.0413943 C41.4045794,41.8453159 41.4704191,41.671024 41.4704191,41.3769063 L41.4704191,37.4662309 L40,37.4662309 L40,36.671024 L42.2714683,36.671024 L42.2714683,41.1263617 C42.4909338,40.9411765 43.4565822,40.0152505 43.566315,39.9172113 Z M55.6169681,35.2004357 L54.9695448,35.8431373 C54.5964533,35.2440087 53.94903,34.328976 53.3893929,33.7734205 L53.9929231,33.2832244 C54.5086671,33.7625272 55.2658232,34.6666667 55.6169681,35.2004357 Z M57.8116235,35.0588235 C57.8116235,35.7124183 57.5263183,36.6165577 56.407044,37.3137255 L55.7925405,36.7037037 C56.802082,36.0501089 56.9557079,35.6034858 56.9557079,34.7211329 L56.9557079,33.664488 L60.686622,33.664488 L60.686622,35.4618736 C60.686622,35.875817 60.7853815,35.9956427 61.2462591,36.0065359 L62.2448273,36.0065359 L62.1460678,36.7690632 L60.9719272,36.7690632 C60.1489314,36.7690632 59.8197331,36.496732 59.8197331,35.832244 L59.8197331,34.3943355 L57.8116235,34.3943355 L57.8116235,35.0588235 Z M56.2204983,40.0915033 L56.5935897,40.8104575 L54.7720258,42.2156863 C54.6293732,42.3246187 54.464774,42.4553377 54.2233619,42.6732026 L53.6856714,42.0522876 C53.9929231,41.7472767 54.0368162,41.6601307 54.0368162,41.3986928 L54.0368162,37.379085 L52.5444506,37.379085 L52.5444506,36.6165577 L54.8707853,36.6165577 L54.8707853,41.1481481 C54.9037051,41.1263617 56.088819,40.2004357 56.2204983,40.0915033 Z M62.431373,42.2156863 L61.9814687,43 C60.6537022,42.5098039 59.6441607,41.9433551 58.8540848,41.3115468 C58.0420623,41.9433551 57.0105742,42.5206972 55.693781,42.9891068 L55.25485,42.248366 C56.5058035,41.8562092 57.4824252,41.3769063 58.2615278,40.8104575 C57.5263183,40.1023965 56.999601,39.3398693 56.5496966,38.5446623 L57.1861467,38.1960784 L56.209525,38.1960784 L56.209525,37.4335512 L61.3011255,37.4335512 L61.2901522,38.1960784 C60.9280341,39.0457516 60.368397,39.9389978 59.4795615,40.7777778 C60.2147711,41.3115468 61.1584729,41.7799564 62.431373,42.2156863 Z M57.2629596,38.1960784 C57.712864,38.9912854 58.1956881,39.6775599 58.8870046,40.2984749 C59.5454012,39.6993464 60.0391987,38.9912854 60.4452099,38.1960784 L57.2629596,38.1960784 Z M68.2601782,35.1132898 L67.6347014,35.6797386 C67.2506367,35.0479303 66.5702935,34.1982571 66.0435762,33.6318083 L66.6251599,33.1416122 C67.1409039,33.6427015 67.9200066,34.5686275 68.2601782,35.1132898 Z M74.8770641,36.7690632 L74.8770641,37.5969499 L71.980119,37.5969499 L71.980119,42.9019608 L71.1242034,42.9019608 L71.1242034,37.5969499 L68.4247773,37.5969499 L68.4247773,36.7690632 L71.1242034,36.7690632 L71.1242034,33.2069717 L71.980119,33.2396514 L71.980119,36.7690632 L74.8770641,36.7690632 Z M67.5139953,41.0827887 C67.8212471,40.8649237 69.1599869,39.8954248 69.4452921,39.6666667 L69.7415705,40.4727669 C69.3794524,40.7233115 67.7883273,41.8562092 67.4701022,42.0849673 C67.2725832,42.2265795 67.0092246,42.4444444 66.8336522,42.6296296 L66.3069349,42.0196078 C66.6032134,41.7690632 66.6580797,41.6383442 66.6580797,41.3660131 L66.6580797,37.3246187 L65.121821,37.3246187 L65.121821,36.5076253 L67.5139953,36.5076253 L67.5139953,41.0827887 Z M81.649571,34.6775599 C81.4630253,35.0479303 81.2545331,35.4183007 81.013121,35.745098 L82.0336357,35.745098 L82.0336357,41.8888889 C82.0336357,42.5206972 81.8690366,42.6514161 81.1228538,42.7603486 L80.7497623,42.8148148 L80.5083503,42.1394336 L80.9033882,42.0958606 C81.2984262,42.0522876 81.3752391,41.9978214 81.3752391,41.6601307 L81.3752391,40.1786492 L80.4754304,40.1786492 L80.4754304,41.9433551 L79.8389804,41.9433551 L79.8389804,40.1786492 L78.9062518,40.1786492 C78.8294389,41.4095861 78.5990001,42.0631808 78.2039621,42.9346405 L77.5016724,42.6840959 C78.1381225,41.4313725 78.2807751,40.7668845 78.2807751,38.4901961 L78.2807751,36.1917211 C78.160069,36.3333333 78.039363,36.4640523 77.9186569,36.5947712 L77.4248595,36.0718954 C78.3027216,35.1895425 78.994038,34.1111111 79.4000493,33 L80.1242856,33.1742919 C80.0145528,33.4684096 79.8828735,33.7407407 79.7511942,34.0130719 L81.649571,34.0130719 L81.649571,34.6775599 Z M87.5751405,42.5969499 L86.9167439,42.9346405 C86.8509043,42.6514161 86.7411715,42.2810458 86.6204655,41.8997821 C85.5231378,42.0087146 83.4491884,42.1938998 82.3957539,42.2701525 L82.2969944,41.5294118 C82.8456582,41.496732 83.6028143,41.453159 84.3599704,41.3986928 L84.3599704,39.1002179 L82.7359255,39.1002179 L82.7359255,34.9281046 L84.3599704,34.9281046 L84.3599704,33.0544662 L85.0842067,33.087146 L85.0842067,34.9281046 L86.7631181,34.9281046 L86.7631181,39.1002179 L85.0842067,39.1002179 L85.0842067,41.3442266 C85.5670309,41.3006536 86.0169352,41.2679739 86.3900266,41.2352941 C86.1815344,40.6579521 85.9510956,40.0915033 85.7755231,39.7320261 L86.4009999,39.4705882 C86.7521448,40.2331155 87.355675,41.7799564 87.5751405,42.5969499 Z M79.3781027,34.6884532 C79.1586372,35.0588235 78.9172251,35.4074074 78.6538665,35.745098 L80.2120718,35.745098 C80.4425106,35.4183007 80.6619761,35.0588235 80.8594951,34.6884532 L79.3781027,34.6884532 Z M83.4272419,38.3376906 L84.3599704,38.3376906 L84.3599704,35.6579521 L83.4272419,35.6579521 L83.4272419,38.3376906 Z M86.0608283,35.6579521 L85.0842067,35.6579521 L85.0842067,38.3376906 L86.0608283,38.3376906 L86.0608283,35.6579521 Z M79.8389804,36.3877996 L78.9391717,36.3877996 L78.9391717,37.6296296 L79.8389804,37.6296296 L79.8389804,36.3877996 Z M81.3752391,37.6296296 L81.3752391,36.3877996 L80.4754304,36.3877996 L80.4754304,37.6296296 L81.3752391,37.6296296 Z M78.9281984,39.5359477 L79.8389804,39.5359477 L79.8389804,38.2941176 L78.9391717,38.2941176 L78.9391717,38.8278867 C78.9391717,39.0784314 78.9391717,39.3180828 78.9281984,39.5359477 Z M80.4754304,39.5359477 L81.3752391,39.5359477 L81.3752391,38.2941176 L80.4754304,38.2941176 L80.4754304,39.5359477 Z M99.8452592,38.9368192 L99.8452592,39.7320261 L95.5217881,39.7320261 L95.5217881,41.4858388 C95.5217881,42.4880174 95.2035631,42.6623094 94.0733156,42.7603486 L93.2942129,42.8257081 L93.0089077,41.9869281 L93.7989837,41.9324619 C94.5232199,41.8779956 94.643926,41.8344227 94.643926,41.2026144 L94.643926,39.7320261 L90.2655885,39.7320261 L90.2655885,38.9368192 L94.643926,38.9368192 L94.643926,37.2701525 L91.1105308,37.2701525 L91.1105308,36.496732 L94.643926,36.496732 L94.643926,34.7211329 C93.3600526,34.8082789 92.0981257,34.8627451 91.1215041,34.8627451 L91.0227446,34.1002179 C93.3710259,34.0893246 96.9483141,33.8278867 98.8796108,33.5446623 L99.0003169,34.3180828 C98.0456418,34.4488017 96.8056615,34.5686275 95.5217881,34.6666667 L95.5217881,36.496732 L98.9344772,36.496732 L98.9344772,37.2701525 L95.5217881,37.2701525 L95.5217881,38.9368192 L99.8452592,38.9368192 Z M112.378736,33.795207 L112.378736,34.5577342 L110.95221,34.5577342 L110.95221,41.5076253 C110.95221,42.4771242 110.732745,42.6187364 109.81099,42.7058824 L108.768528,42.8039216 L108.483223,41.9978214 L109.536658,41.9106754 C110.096295,41.8671024 110.129215,41.7908497 110.129215,41.2244009 L110.129215,34.5577342 L103.007558,34.5577342 L103.007558,33.795207 L112.378736,33.795207 Z M104.137806,40.5708061 L104.137806,36.1263617 L108.186945,36.1263617 L108.186945,40.5708061 L104.137806,40.5708061 Z M104.927882,36.8997821 L104.927882,39.7973856 L107.396869,39.7973856 L107.396869,36.8997821 L104.927882,36.8997821 Z M118.361168,33.5991285 C117.768611,34.503268 116.693229,35.6688453 115.716608,36.4422658 L115.178917,35.7995643 C116.188459,35.0697168 117.187027,33.9803922 117.702771,33.1525054 L118.361168,33.5991285 Z M124.034352,33.6318083 L124.034352,37.0849673 L119.019564,37.0849673 L119.019564,33.6318083 L124.034352,33.6318083 Z M123.211356,34.2636166 L119.831587,34.2636166 L119.831587,35.0479303 L123.211356,35.0479303 L123.211356,34.2636166 Z M119.831587,36.453159 L123.211356,36.453159 L123.211356,35.6797386 L119.831587,35.6797386 L119.831587,36.453159 Z M118.317274,36.0718954 C118.053916,36.5620915 117.735691,37.0631808 117.384546,37.5533769 L117.384546,42.9455338 L116.638363,42.9455338 L116.638363,38.5010893 C116.265272,38.9368192 115.870234,39.3507625 115.486169,39.7211329 L114.970425,39.0675381 C115.903153,38.2832244 117.154107,36.7690632 117.702771,35.7015251 L118.317274,36.0718954 Z M125,39.3943355 L125,40.08061 L123.540554,40.08061 L123.540554,41.6492375 C123.540554,42.5969499 123.255249,42.8257081 122.135975,42.8910675 L121.587311,42.9346405 L121.302006,42.1285403 L121.993322,42.0849673 C122.673665,42.0413943 122.739505,41.9106754 122.739505,41.3333333 L122.739505,40.08061 L118.053916,40.08061 L118.053916,39.3943355 L122.739505,39.3943355 L122.739505,38.5010893 L118.580633,38.5119826 L118.580633,37.8039216 L124.659828,37.8039216 L124.659828,38.4901961 L123.540554,38.4901961 L123.540554,39.3943355 L125,39.3943355 Z M119.634068,40.1459695 C120.051052,40.4509804 120.830155,41.0501089 121.192273,41.4422658 L120.665556,42.0958606 C120.292464,41.627451 119.546281,41.0065359 119.14027,40.6906318 L119.634068,40.1459695 Z" id="让设计触手可得" fill="#1B2337" fill-rule="nonzero"></path>
        </g>
    </g>
</svg>