<?xml version="1.0" encoding="UTF-8"?>
<svg width="104px" height="26px" viewBox="0 0 104 26" version="1.1" xmlns="http://www.w3.org/2000/svg" xmlns:xlink="http://www.w3.org/1999/xlink">
    <title>编组</title>
    <defs>
        <polygon id="path-1" points="0.154302049 0.237176906 11.276696 0.237176906 11.276696 13.5652174 0.154302049 13.5652174"></polygon>
        <polygon id="path-3" points="0 24.8695652 104 24.8695652 104 0 0 0"></polygon>
    </defs>
    <g id="页面-1" stroke="none" stroke-width="1" fill="none" fill-rule="evenodd">
        <g id="框架" transform="translate(-74.000000, -16.000000)">
            <g id="编组" transform="translate(74.000000, 16.000000)">
                <path d="M18.0799542,6.43163853 C18.0799542,7.29009674 18.0677205,8.14855495 18.0847736,9.00701316 C18.0944123,9.48704745 17.891629,9.81317191 17.4971841,10.0537494 C17.3648375,10.1340664 17.2699335,10.1355607 17.1357332,10.0563644 C15.8582359,9.30474649 14.5677635,8.57404838 13.2987927,7.80860849 C12.7671819,7.48808754 12.2985932,7.49257035 11.7677237,7.81346487 C10.4672419,8.59945097 9.1448876,9.34882746 7.83476705,10.1183766 C7.70464472,10.1949579 7.60862853,10.189728 7.47702332,10.1187502 C6.98878655,9.85501148 6.77858894,9.45753561 6.7826087,8.8971843 C6.79675416,7.18026789 6.79267626,5.46335147 6.78489116,3.74680862 C6.7826087,3.31272314 6.95468041,3.02134046 7.33096008,2.80504485 C8.82866439,1.94546594 10.3208079,1.07617427 11.8066492,0.196422715 C12.2403903,-0.0602181855 12.6233429,-0.0706780766 13.0678349,0.196422715 C14.5039998,1.0586166 15.9527693,1.89951713 17.4082116,2.7273428 C17.8805075,2.99593786 18.1010852,3.35157416 18.0862565,3.90146558 C18.0629012,4.74423395 18.0799542,5.58812303 18.0799542,6.43163853" id="Fill-1" fill="#3061AC"></path>
                <path d="M0.0108661655,18.0364562 C0.0108661655,17.1055455 0.0186567662,16.1742398 0.00752733668,15.2433291 C0.00270458389,14.8104576 0.167791122,14.5154256 0.519110113,14.3009647 C2.02826075,13.3807177 3.53481453,12.4557313 5.03543261,11.5196862 C5.46094779,11.2542759 5.85789745,11.2112257 6.27784792,11.5208711 C6.39990066,11.610921 6.45888664,11.690702 6.45851566,11.8561885 C6.451838,13.4893306 6.45369291,15.1224726 6.45554781,16.7556147 C6.45591879,16.904908 6.46927411,17.0545962 6.48337138,17.2030996 C6.52269537,17.6067444 6.76642988,17.8389784 7.07694096,18.0289521 C8.36647086,18.8176787 9.65414585,19.6107499 10.938482,20.4097454 C11.0705512,20.4918962 11.2860912,20.511249 11.2968496,20.7182059 C11.3120599,21.0144227 11.3235603,21.3224882 11.1254564,21.5752599 C10.9959841,21.7411413 10.8390591,21.8710817 10.6643271,21.9789046 C9.21564633,22.8691349 7.76214284,23.7494913 6.32273662,24.6563097 C5.85084881,24.9533165 5.42867245,24.9311989 4.96976897,24.645251 C3.53258864,23.7498863 2.0898436,22.8655803 0.645614628,21.9828542 C0.204518239,21.7134944 -0.00545699774,21.3232781 0,20.7817937 C0.00826929865,19.8666812 0.00233360291,18.9515687 0.00233360291,18.0364562 L0.0108661655,18.0364562 Z" id="Fill-3" fill="#E7B41C"></path>
                <g transform="translate(13.565217, 11.304348)">
                    <mask id="mask-2" fill="white">
                        <use xlink:href="#path-1"></use>
                    </mask>
                    <g id="Clip-6"></g>
                    <path d="M11.270763,6.90760248 C11.270763,7.79050435 11.2565414,8.67379379 11.2762328,9.55630807 C11.2875372,10.0795379 11.0920813,10.4407602 10.6723619,10.6965615 C9.21483029,11.5864398 7.75839271,12.4782559 6.30778962,13.3805366 C5.90630295,13.6301366 5.52596634,13.6231602 5.13396073,13.382087 C3.6720533,12.4844571 2.20978121,11.5872149 0.748238429,10.6895851 C0.362431978,10.4527752 0.17171669,10.097754 0.15457784,9.62413416 C0.149107994,9.47452919 0.225685835,9.42336894 0.323413745,9.36329441 C1.57819635,8.59434037 2.83152034,7.82344845 4.08520898,7.05333168 C4.23034222,6.96418882 4.37109958,6.86651925 4.5206087,6.78706584 C4.89766339,6.58591304 5.03915007,6.25530932 5.03769144,5.82122236 C5.03295091,4.12479503 5.03915007,2.42875528 5.03112763,0.732715528 C5.03003366,0.547840994 5.08837868,0.455209938 5.23460589,0.375368944 C5.5722777,0.192819876 5.88770547,0.183130435 6.22720056,0.394360248 C7.71572791,1.31989565 9.20899579,2.23729193 10.7055456,3.1477118 C11.1022917,3.38878509 11.2776914,3.73372919 11.2729509,4.21238758 C11.2645638,5.11079255 11.270763,6.00919752 11.270763,6.90760248" id="Fill-5" fill="#C4217E" mask="url(#mask-2)"></path>
                </g>
                <path d="M44.0869565,3.92316096 L44.0869565,18.3652903 C44.0869565,20.6310455 43.8121468,21.1238175 41.5354248,21.3403154 L39.9262614,21.4782609 L39.1018323,19.0350925 L40.5938199,18.9170724 C41.653364,18.8185946 41.8102345,18.6212559 41.8102345,17.3406617 L41.8102345,3.84422547 L44.0869565,3.92316096 Z M40.6525987,16.4735208 L38.4346554,16.4735208 L38.4346554,5.46010394 L40.6525987,5.55858171 L40.6525987,16.4735208 Z M36.1972464,9.55823537 C35.2552598,8.63208449 34.0777766,7.6273813 33.1945688,6.89818596 C32.5079262,7.82433685 31.7228102,8.71101998 30.8396023,9.55823537 L36.1972464,9.55823537 Z M33.7636539,14.4641145 C34.5293042,14.385179 34.627396,14.1292134 34.6472434,13.341008 C34.6663274,12.8880869 34.6472434,12.2968371 34.6472434,11.8239905 L31.6441841,11.8239905 L31.6441841,18.2074194 C31.6441841,18.6607237 31.7228102,18.897147 32.2525822,18.9760824 C32.9594538,19.0745602 34.0189979,19.0745602 34.8235796,18.9760824 C35.5106039,18.8776047 35.6086957,18.6607237 35.6869401,18.1288671 C35.7457188,17.7544982 35.7854136,17.4195972 35.8048792,17.1241639 C35.8247266,16.9862183 35.8247266,16.8283474 35.8247266,16.6904018 L38.1010669,17.3996717 L38.0422882,17.9909215 C37.9835095,18.3652903 37.9441964,18.8185946 37.8655703,19.3504513 C37.649921,20.6900555 36.9430494,21.0054143 36.0602233,21.1038921 C34.3136549,21.2813053 32.3705214,21.2813053 30.9376941,21.1038921 C29.7602109,20.9659465 29.3086833,20.0796466 29.3086833,18.7197337 L29.3086833,10.8782973 L28.5434146,11.469164 L27.1304348,9.6172454 C29.4659355,8.00175011 31.546474,5.40071073 32.566705,3.39130435 L34.6861748,4.415933 L34.2938076,5.1842129 C35.4518251,6.12990607 37.3357983,7.6273813 38.4151897,8.71101998 L37.1785461,10.5824808 L36.8254919,10.1885698 L36.8060262,11.8239905 C36.8060262,12.5528027 36.7663315,13.9717256 36.7075528,14.385179 C36.5506822,15.9615897 36.0205285,16.5723818 34.2739602,16.7298696 L33.1552557,16.8283474 L32.5079262,14.5821345 L33.7636539,14.4641145 Z" id="Fill-7" fill="#3061AC"></path>
                <mask id="mask-4" fill="white">
                    <use xlink:href="#path-3"></use>
                </mask>
                <g id="Clip-10"></g>
                <path d="M57.7104203,18.2405467 L59.328179,18.2405467 L59.328179,16.1135341 L57.7104203,16.1135341 L57.7104203,18.2405467 Z M54.0659147,18.2405467 L55.5862592,18.2405467 L55.5862592,16.1135341 L54.0659147,16.1135341 L54.0659147,18.2405467 Z M50.3239949,18.2405467 L51.9220433,18.2405467 L51.9220433,16.1135341 L50.3239949,16.1135341 L50.3239949,18.2405467 Z M47.7707563,13.5186167 L47.7707563,8.05479372 L50.0901249,8.15232133 L50.0901249,13.5186167 L47.7707563,13.5186167 Z M50.7333622,6.64994079 L46.7571933,6.64994079 L46.7571933,4.44513379 L50.7333622,4.44513379 L50.7333622,3.39130435 L53.1694763,3.48883196 L53.1694763,4.44513379 L56.4243249,4.44513379 L56.4243249,3.39130435 L58.860439,3.48883196 L58.860439,4.44513379 L62.8366079,4.44513379 L62.8366079,6.64994079 L58.860439,6.64994079 L58.860439,7.54742247 L56.4243249,7.54742247 L56.4243249,6.64994079 L53.1694763,6.64994079 L53.1694763,7.54742247 L50.7333622,7.54742247 L50.7333622,6.64994079 Z M63.3043478,18.2405467 L63.3043478,20.3478261 L46.3478261,20.3478261 L46.3478261,18.2405467 L48.0436678,18.2405467 L48.0436678,14.0256084 L60.0688305,14.0256084 C59.1337295,13.3429152 57.6910891,12.445054 57.0088103,11.9771492 L57.7691721,10.9233197 L56.8143609,10.9233197 C56.4046146,12.0158566 55.8788809,13.0503323 55.2549749,13.9087271 L53.6375953,12.8355439 L53.6375953,13.6939387 L51.2011021,13.6939387 L51.2011021,7.74285717 L53.6375953,7.84038478 L53.6375953,12.0742973 C54.631448,10.6500906 55.2356437,8.93292167 55.5472177,7.50871502 L57.7107993,8.01608627 L57.5353021,8.69877952 L62.7001521,8.69877952 L62.7001521,10.9233197 L59.4255932,10.9233197 C60.2636589,11.4500447 61.1798077,11.9771492 61.8230449,12.3672596 L60.9068962,14.0256084 L61.5891749,14.0256084 L61.5891749,18.2405467 L63.3043478,18.2405467 Z" id="Fill-9" fill="#3061AC" mask="url(#mask-4)"></path>
                <path d="M66.1507643,7.01263272 L79.6757106,7.01263272 L79.6757106,4.52173913 L66.1507643,4.52173913 L66.1507643,7.01263272 Z M73.2723017,12.2726498 C72.0350723,14.4047121 70.1204511,17.1149345 69.3022269,17.8717353 C71.1974498,17.71247 73.9105088,17.5132915 76.2045625,17.3536387 C75.5663554,16.3375959 74.907974,15.341316 74.2096319,14.3252732 L76.3244446,13.0899016 C77.7607014,15.1022243 79.2167447,17.3935519 80.7329229,19.9638844 L78.658459,21.4782609 C78.3193751,20.8605751 77.9802912,20.3025653 77.6412074,19.7247927 C75.2668443,19.8844455 69.9803947,20.2428893 67.3274707,20.4819809 C66.768797,20.541657 66.3699661,20.5618073 65.9110002,20.6416337 L65.1928717,18.0910641 C65.9311745,17.8120592 66.0506686,17.5528172 66.649303,17.0750213 C67.4869255,16.2779199 69.0830251,14.2256839 70.1999845,12.2726498 L64.4347826,12.2726498 L64.4347826,9.78214369 L81.3913043,9.78214369 L81.3913043,12.2726498 L73.2723017,12.2726498 Z" id="Fill-11" fill="#3061AC" mask="url(#mask-4)"></path>
                <path d="M95.7868386,10.1585383 L98.437058,10.1585383 L98.437058,6.87559157 L95.7868386,6.87559157 L95.7868386,10.1585383 Z M93.5752868,12.3137433 L100.608696,12.3137433 L100.608696,4.80107947 L93.5752868,4.80107947 L93.5752868,12.3137433 Z M88.6135366,19.4640726 L96.4444526,19.4640726 L96.4444526,18.2959844 L88.6135366,18.2959844 L88.6135366,19.4640726 Z M88.6135366,16.3620972 L96.4444526,16.3620972 L96.4444526,15.1940091 L88.6135366,15.1940091 L88.6135366,16.3620972 Z M87.2983085,13.2401446 L91.8415419,13.2401446 C91.1044871,12.6964469 90.1077969,12.0924254 89.2509998,11.5483361 C88.8131072,12.1527492 88.1551056,12.716816 87.2983085,13.2401446 L87.2983085,13.2401446 Z M87.9756859,8.00333333 L87.9756859,7.86231664 C87.9958367,7.60065235 87.9958367,7.21794874 87.9958367,6.83524513 L86.9398566,6.83524513 C86.7003719,7.23831782 86.4415115,7.62102143 86.182651,8.00333333 L87.9756859,8.00333333 Z M92.1407039,13.2401446 L98.9350156,13.2401446 L98.9350156,21.4782609 L86.1028228,21.4782609 L86.1028228,13.8849042 L84.8875738,14.4485792 L83.6521739,12.3137433 C85.4653596,11.6086599 86.6608453,10.9443146 87.3583735,9.91724309 L84.2295722,9.91724309 L84.2295722,8.00333333 L85.1863483,8.00333333 L84.0703033,7.15762494 C85.0867568,5.9491903 85.8439624,4.49867703 86.2423284,3.39130435 L88.3744395,3.77361625 L87.9361593,4.90174971 L92.7382531,4.90174971 L92.7382531,6.83524513 L90.2275392,6.83524513 C90.2275392,7.21794874 90.2073884,7.54032855 90.2073884,7.76203811 L90.2073884,8.00333333 L93.0370276,8.00333333 L93.0370276,9.91724309 L90.3666574,9.91724309 C91.3831109,10.4609408 92.4793926,11.0246158 93.255974,11.4880123 L92.1407039,13.2401446 Z" id="Fill-12" fill="#3061AC" mask="url(#mask-4)"></path>
            </g>
        </g>
    </g>
</svg>