<?xml version="1.0" encoding="UTF-8"?>
<svg width="108px" height="27px" viewBox="0 0 108 27" version="1.1" xmlns="http://www.w3.org/2000/svg" xmlns:xlink="http://www.w3.org/1999/xlink">
    <!-- Generator: Sketch 51.3 (57544) - http://www.bohemiancoding.com/sketch -->
    <title>Group 4</title>
    <desc>Created with Sketch.</desc>
    <defs></defs>
    <g id="首页" stroke="none" stroke-width="1" fill="none" fill-rule="evenodd">
        <g id="首页_滑动翻页头部导航_未登录" transform="translate(-120.000000, -17.000000)" fill="#17A1FF">
            <g id="Group-4" transform="translate(120.000000, 17.000000)">
                <g id="Group-3">
                    <path d="M103.629527,8.01944082 L101.047445,8.01944082 C101.015486,8.03817551 100.991241,8.0514 100.959282,8.07013469 L98.7662204,12.1344612 L96.5445061,8.08005306 C96.542302,8.07784898 96.5367918,8.07344082 96.5356898,8.07123673 C96.3053633,7.45299184 95.6992408,6.99895102 94.9531592,6.99895102 C94.220302,6.99895102 93.624098,7.44086939 93.3871592,8.04258367 C93.3728327,8.05470612 93.3618122,8.07013469 93.3618122,8.08005306 L91.1544245,12.1091143 L88.9745878,8.07013469 C88.9437306,8.0514 88.9183837,8.03817551 88.8875265,8.01944082 L86.3252816,8.01944082 L86.3252816,5.39548163 L103.629527,5.39548163 L103.629527,8.01944082 Z M103.629527,21.010298 L100.144873,14.6515224 L103.629527,8.18144082 L103.629527,21.010298 Z M94.9674857,19.176502 L92.4945061,14.5920122 L94.9674857,10.0196449 L97.4415673,14.5920122 L94.9674857,19.176502 Z M86.3252816,20.9232367 L86.3252816,8.23323673 L89.7768735,14.6239714 L86.3252816,20.9232367 Z M107.677322,3.2696449 L107.677322,23.9384204 L107.678424,23.9384204 C107.669608,25.4239714 106.465078,26.6251959 104.978424,26.6251959 L103.630629,26.6251959 L103.630629,23.9461347 L103.629527,23.9461347 L103.629527,21.3243796 C103.618506,21.3265837 103.611894,21.3354 103.600873,21.3354 L101.167567,21.3354 C101.121282,21.3354 101.074996,21.2891143 101.050751,21.2659714 L98.8125061,17.1267061 L96.9114857,20.6554408 C96.7263429,20.9981755 96.4265878,21.2582571 96.0739347,21.4290735 C95.7521388,21.6186245 95.3829551,21.7442571 94.9696898,21.7442571 C94.2313224,21.7442571 93.6020571,21.390502 93.2229551,20.8626245 C93.1006286,20.7270735 92.9959347,20.5838082 92.9165878,20.4394408 L91.1246694,17.122298 L88.8831184,21.2659714 C88.8610776,21.2891143 88.8147918,21.3354 88.7442612,21.3354 L86.3252816,21.3354 L86.3252816,23.9351143 L86.3263837,23.9351143 C86.3263837,23.9373184 86.3252816,23.9395224 86.3252816,23.9417265 L86.3252816,23.9428286 C86.3131592,25.4239714 85.1097306,26.6218898 83.6263837,26.6218898 L82.2785878,26.6218898 L82.2785878,23.9428286 L82.2774857,23.9428286 L82.2774857,3.26744082 C82.2774857,3.24099184 82.2984245,3.2211551 82.3226694,3.2211551 L83.2527918,3.2211551 L86.3252816,3.2211551 L86.3252816,3.22556327 L103.629527,3.22556327 L103.629527,3.22335918 L107.632139,3.22335918 C107.656384,3.22335918 107.677322,3.2454 107.677322,3.2696449 Z M73.0167061,18.8257224 L79.224502,18.8257224 C79.2553592,18.8257224 79.2807061,18.8499673 79.2807061,18.8819265 L79.2807061,20.9273143 C79.2807061,20.9581714 79.2553592,20.9824163 79.224502,20.9824163 L73.0167061,20.9824163 L73.0167061,23.9281714 C73.0167061,23.9259673 73.0178082,23.9226612 73.0178082,23.9193551 L73.0178082,23.9358857 L73.0167061,23.9358857 L73.0167061,23.9656408 L73.012298,23.9656408 C72.9880531,25.4357633 71.7923388,26.6215592 70.3167061,26.6215592 L68.9689102,26.6215592 L68.9689102,23.9656408 L68.9689102,23.9358857 L68.9689102,20.9824163 L61.0364204,20.9824163 C61.0066653,20.9824163 60.9813184,20.9581714 60.9813184,20.9273143 L60.9813184,18.8819265 C60.9813184,18.8499673 61.0066653,18.8257224 61.0364204,18.8257224 L68.9689102,18.8257224 L68.9689102,16.8773143 L65.1922163,16.8773143 L65.1911143,16.8795184 L61.0882163,16.8795184 C61.0088694,16.8795184 60.9537673,16.8023755 60.9780122,16.7274367 L62.8448694,11.1665388 L60.9096857,11.1665388 C60.8843388,11.1665388 60.8656041,11.146702 60.8656041,11.1224571 L60.8656041,9.03078367 C60.8656041,9.00653878 60.8843388,8.98670204 60.9096857,8.98670204 L63.5755224,8.98670204 L64.3149918,6.78151837 C64.3293184,6.73853878 64.3700939,6.70988571 64.4152776,6.70988571 L68.5622571,6.70988571 C68.6394,6.70988571 68.6934,6.78702857 68.6680531,6.86086531 L67.9307878,8.98670204 L78.4916449,8.98670204 C78.5158898,8.98670204 78.5357265,9.00653878 78.5357265,9.03078367 L78.5357265,11.1224571 C78.5357265,11.146702 78.5158898,11.1665388 78.4916449,11.1665388 L67.1736857,11.1665388 L65.9493184,14.6985796 L68.9689102,14.6985796 L68.9689102,12.6267429 C68.9689102,12.5573143 69.0251143,12.5011102 69.0934408,12.5011102 L72.8910735,12.5011102 C72.960502,12.5011102 73.0167061,12.5573143 73.0167061,12.6267429 L73.0167061,14.6985796 L78.4795224,14.6985796 C78.5103796,14.6985796 78.5357265,14.7228245 78.5357265,14.7536816 L78.5357265,16.8222122 C78.5357265,16.8519673 78.5103796,16.8773143 78.4795224,16.8773143 L73.0167061,16.8773143 L73.0167061,18.8257224 Z M42.6169102,12.4663959 L53.3948694,12.4663959 C53.4202163,12.4663959 53.438951,12.4862327 53.438951,12.5093755 L53.438951,14.5712939 C53.438951,14.5966408 53.4202163,14.6153755 53.3948694,14.6153755 L42.6169102,14.6153755 L42.6169102,23.9199061 L42.6169102,23.9353347 L42.6169102,23.9474571 L42.6147061,23.9474571 C42.5992776,25.4263959 41.3991551,26.6221102 39.9158082,26.6221102 L38.5680122,26.6221102 L38.5680122,23.9353347 L38.5691143,23.9353347 L38.5691143,14.6153755 L27.654502,14.6153755 C27.6291551,14.6153755 27.6104204,14.5966408 27.6104204,14.5712939 L27.6104204,12.5093755 C27.6104204,12.4862327 27.6291551,12.4663959 27.654502,12.4663959 L38.5691143,12.4663959 L38.5691143,7.10386531 L37.7800531,7.16668163 C35.2806245,7.31104898 32.5762163,7.38488571 29.6811551,7.3870898 L29.6767469,7.39149796 L29.6734408,7.3870898 C29.6128286,7.38378367 29.5676449,7.33749796 29.5632367,7.27798776 C29.5632367,7.27578367 29.5588286,7.27578367 29.5588286,7.27357959 C29.5588286,7.27137551 29.5632367,7.27137551 29.5632367,7.26917143 L29.5632367,5.31194694 L29.5632367,5.3108449 L29.5632367,5.30974286 C29.5643388,5.24692653 29.6150327,5.19953878 29.6767469,5.19623265 L29.678951,5.19623265 L29.6800531,5.19292653 L29.6833592,5.19623265 C29.8222163,5.18851837 30.0525429,5.17419184 30.1936041,5.16427347 C37.5794816,4.67827347 43.1106245,3.47704898 47.796502,1.56390612 C47.8339714,1.54957959 47.875849,1.55949796 47.904502,1.58815102 L51.2128286,5.01549796 C51.2767469,5.08492653 51.2514,5.19733469 51.1610327,5.22378367 C48.7784204,5.89823265 45.9307469,6.41729388 42.6169102,6.77766122 L42.6169102,12.4663959 Z M79.1586,3.22060408 C79.2192122,3.22060408 79.267702,3.26909388 79.267702,3.32970612 L79.267702,5.28142041 C79.267702,5.34203265 79.2192122,5.39052245 79.1586,5.39052245 L59.6028857,5.39052245 L59.6028857,12.3984 C59.4882735,20.2151755 57.3348857,26.5959918 54.5665592,26.5959918 L53.4711306,26.5959918 C54.5445184,22.6694204 55.5583959,16.9013388 55.5583959,12.1768898 L55.5583959,3.34182857 C55.5583959,3.27901224 55.6101918,3.22721633 55.6719061,3.22721633 L59.5863551,3.22060408 L66.4465592,3.22060408 L66.4465592,1.02644082 L66.4465592,0.770767347 L67.5574163,0.770767347 C68.9437837,0.770767347 70.0766816,1.85737959 70.1472122,3.22060408 L79.1586,3.22060408 Z" id="Combined-Shape"></path>
                    <path d="M6.74570204,3.0753551 C6.91541633,3.0753551 7.05317143,3.2131102 7.05317143,3.38282449 L7.05317143,11.5258041 C6.62557959,12.6410694 6.39745714,13.8422939 6.39745714,15.1416 C6.39745714,16.4331918 6.62557959,17.6333143 7.05317143,18.7540898 L7.05317143,19.5916408 C7.05317143,23.4862531 3.89582449,26.644702 0.000110204082,26.644702 L0.000110204082,9.82094694 C0.000110204082,6.09494694 3.01970204,3.0753551 6.74570204,3.0753551 Z M25.2446694,22.2405061 L25.2523837,22.2658531 L24.7829143,22.5832408 C24.0787102,23.0571184 23.4108735,23.4494449 22.7738939,23.7547102 C22.1358122,24.0599755 21.4911184,24.3002204 20.8376082,24.4743429 C19.4942204,24.8347102 18.1431184,24.9316898 16.7798939,24.7663837 C15.4166694,24.6010776 14.1460163,24.1933224 12.9668327,23.5475265 C11.788751,22.9006286 10.7506286,22.0355265 9.85136327,20.9533224 C9.72022041,20.7946286 9.6067102,20.6238122 9.48548571,20.4585061 C8.78238367,19.4865061 8.2512,18.3866694 7.91617959,17.1391592 C7.58115918,15.8817306 7.4896898,14.6639755 7.61532245,13.4770776 C7.63515918,13.2831184 7.64728163,13.0880571 7.68034286,12.896302 C7.91287347,11.5297714 8.37903673,10.2789551 9.08213878,9.14715918 C9.78303673,8.01426122 10.6867102,7.03454694 11.7931592,6.20691429 C12.8996082,5.38038367 14.1316898,4.78417959 15.4905061,4.42050612 C16.2663429,4.21332245 17.0487918,4.08879184 17.8400571,4.04691429 C18.6313224,4.00724082 19.4832,4.04360816 20.400098,4.15822041 C20.9874857,6.34687347 19.6198531,8.57299592 17.4025469,9.04577143 C17.296751,9.06891429 17.188751,9.09426122 17.0829551,9.12291429 C16.3258531,9.3256898 15.6613224,9.64748571 15.0871592,10.0894041 C14.5152,10.5302204 14.0578531,11.0448735 13.7162204,11.6300571 C13.3756898,12.2174449 13.1574857,12.8643429 13.0605061,13.5751592 C12.9657306,14.2837714 13.0164245,15.0089143 13.2147918,15.7461796 C13.4175673,16.5021796 13.7371592,17.1645061 14.1757714,17.7298531 C14.6132816,18.2974041 15.1312408,18.7525469 15.729649,19.0952816 C16.3291592,19.4380163 16.9826694,19.6595265 17.6912816,19.7576082 C18.3987918,19.8556898 19.1239347,19.8049959 19.8645061,19.6066286 C19.9780163,19.5768735 20.0893224,19.5438122 20.1995265,19.5074449 C22.3529143,18.7911184 24.6583837,20.049649 25.2446694,22.2405061 Z" id="Combined-Shape"></path>
                </g>
            </g>
        </g>
    </g>
</svg>