<svg id="图层_1" data-name="图层 1" xmlns="http://www.w3.org/2000/svg" xmlns:xlink="http://www.w3.org/1999/xlink" viewBox="0 0 255.12 141.73"><defs><style>.cls-1{fill:#6a6966;}.cls-2{fill:#515150;}.cls-3{fill:url(#未命名的渐变_156);}.cls-4{fill:url(#未命名的渐变_140);}.cls-5{fill:url(#未命名的渐变_156-2);}.cls-6{fill:url(#未命名的渐变_140-2);}.cls-7{fill:url(#未命名的渐变_156-3);}.cls-8{fill:url(#未命名的渐变_140-3);}.cls-9{fill:#666;opacity:0.85;}.cls-10{fill:#595959;}.cls-11{fill:#231815;}</style><linearGradient id="未命名的渐变_156" x1="53.78" y1="72.95" x2="89.1" y2="66.09" gradientTransform="translate(0.53 0.05) rotate(0.01)" gradientUnits="userSpaceOnUse"><stop offset="0" stop-color="#9cb6d2"/><stop offset="0.55" stop-color="#a7c5e1"/><stop offset="1" stop-color="#accbe7"/></linearGradient><linearGradient id="未命名的渐变_140" x1="53.65" y1="72.28" x2="85.17" y2="26.46" gradientTransform="translate(0.53 0.05) rotate(0.01)" gradientUnits="userSpaceOnUse"><stop offset="0" stop-color="#444c87"/><stop offset="1" stop-color="#83c1e4"/></linearGradient><linearGradient id="未命名的渐变_156-2" x1="53.59" y1="72.82" x2="21.49" y2="37.21" xlink:href="#未命名的渐变_156"/><linearGradient id="未命名的渐变_140-2" x1="54.72" y1="73.05" x2="92.08" y2="113.9" xlink:href="#未命名的渐变_140"/><linearGradient id="未命名的渐变_156-3" x1="53.92" y1="72.86" x2="29.7" y2="110.07" xlink:href="#未命名的渐变_156"/><linearGradient id="未命名的渐变_140-3" x1="53.94" y1="72.75" x2="7.83" y2="82.08" xlink:href="#未命名的渐变_140"/></defs><path class="cls-1" d="M226.2,74.9H198.64a4.26,4.26,0,0,0,.5,0Z"/><path class="cls-2" d="M232.52,39.27H191.84V34.15h40.68ZM201.18,54.76h35.91V49.65H187.48v5.12h8.12s-4.38,18.17-4.41,18.33c-.6,2.37-.86,3.7.37,5.56l.07.08a5.64,5.64,0,0,0,3.92,1.88h32.11c2.11,0,3.7-.53,4.76-1.85a5.66,5.66,0,0,0,.41-3.83c-.07-.41-.14-.67-.14-.67-.53-2.65-3.18-13.51-3.18-13.51H224s2.7,11.37,2.72,11.47c.08.4.47,1.64,0,2.16s-.68.51-1.78.51H198.64c-.95,0-1.1-.17-1.41-.5s-.3-1.29-.11-2.17Z"/><path class="cls-3" d="M78.73,56.54a11.67,11.67,0,0,0-7.41,2.63h0l0,0-.06.06L54.78,73l20.43,6.47.05,0h0a11.73,11.73,0,1,0,3.44-22.95Z"/><path class="cls-4" d="M91.93,38.25a14.3,14.3,0,0,0-28.21-3.34h0l0,.06a.31.31,0,0,1,0,.08L54.78,73,86.11,49.77h0A14.29,14.29,0,0,0,91.93,38.25Z"/><path class="cls-5" d="M24,56.44l.15.09L54.78,73,41.07,41.66h0A12.05,12.05,0,1,0,23.89,56.4h0Z"/><path class="cls-6" d="M89.19,91.47h0L54.78,73l15.94,36.21c.11.27.23.54.35.8h0A13.78,13.78,0,1,0,89.19,91.47Z"/><path class="cls-7" d="M47.51,104.1a10.32,10.32,0,0,0,.26-1.13l7-30-25,18.13c-.23.15-.44.31-.65.47l-.07,0h0A11.73,11.73,0,1,0,47.5,104.15h0Z"/><path class="cls-8" d="M32.39,91.59a16,16,0,0,0,1.35-1.12L54.78,73l-26.57-8.5c-.19-.06-.38-.13-.58-.18l0,0h0a15.32,15.32,0,0,0-4.41-.64,15.49,15.49,0,1,0,9.2,27.94Z"/><path class="cls-9" d="M125.25,92.13a31.69,31.69,0,0,1,5.64-.44c2.87,0,4.64.34,6.09,1.35a4.5,4.5,0,0,1,2.2,4,4.94,4.94,0,0,1-3.53,4.6v.06a5.37,5.37,0,0,1,4.29,5.27,5.51,5.51,0,0,1-2.05,4.38c-1.52,1.32-4,2-7.88,2a36.82,36.82,0,0,1-4.76-.28Zm3.84,8.38h2c2.68,0,4.19-1.26,4.19-3.05,0-2-1.51-2.9-4-2.9a11.15,11.15,0,0,0-2.21.15Zm0,9.78a18.11,18.11,0,0,0,2,.09c2.49,0,4.7-.94,4.7-3.56,0-2.46-2.14-3.47-4.82-3.47h-1.93Z"/><path class="cls-9" d="M157.85,105.28c0,5.64-4,8.16-7.89,8.16-4.35,0-7.69-3-7.69-7.91s3.31-8.13,7.95-8.13S157.85,100.61,157.85,105.28Zm-11.58.16c0,3,1.45,5.2,3.82,5.2,2.21,0,3.75-2.18,3.75-5.27,0-2.39-1.07-5.14-3.72-5.14S146.28,102.88,146.27,105.44Z"/><path class="cls-10" d="M176.39,112.41a13.7,13.7,0,0,1-5.61,1c-6,0-10.5-3.79-10.5-10.76,0-6.65,4.51-11.16,11.1-11.16a11.3,11.3,0,0,1,5,1l-.66,2.24a9.91,9.91,0,0,0-4.29-.88c-5,0-8.29,3.18-8.29,8.76,0,5.2,3,8.54,8.17,8.54a10.87,10.87,0,0,0,4.47-.88Z"/><path class="cls-10" d="M179.73,90.72h2.78V113.1h-2.78Z"/><path class="cls-10" d="M201,105.35c0,5.64-3.91,8.1-7.6,8.1-4.13,0-7.31-3-7.31-7.85,0-5.11,3.34-8.1,7.57-8.1C198,97.5,201,100.68,201,105.35Zm-12.11.16c0,3.34,1.93,5.86,4.64,5.86s4.63-2.49,4.63-5.93c0-2.58-1.29-5.86-4.57-5.86S188.88,102.6,188.87,105.51Z"/><path class="cls-10" d="M217.25,109c0,1.57,0,3,.12,4.16h-2.45l-.16-2.49h-.07a5.72,5.72,0,0,1-5,2.83c-2.4,0-5.26-1.32-5.26-6.68V97.85h2.77v8.45c0,2.9.88,4.85,3.4,4.85a3.89,3.89,0,0,0,3.91-3.94V97.85h2.77Z"/><path class="cls-10" d="M235,90.73v18.44c0,1.36,0,2.9.13,3.94h-2.49l-.13-2.65h-.06a5.66,5.66,0,0,1-5.21,3c-3.68,0-6.52-3.13-6.52-7.76,0-5.08,3.12-8.2,6.84-8.2a5.1,5.1,0,0,1,4.6,2.34h.07V90.73Zm-2.77,13.33a4.59,4.59,0,0,0-.13-1.16,4.08,4.08,0,0,0-4-3.22c-2.87,0-4.57,2.52-4.57,5.89,0,3.09,1.51,5.65,4.5,5.65a4.17,4.17,0,0,0,4.07-3.31,5.08,5.08,0,0,0,.13-1.2Z"/><path class="cls-2" d="M140.53,79.6,137.63,73H144l2.89,6.64Zm-10.25,2.14V48.66H134v-4.9h-3.75l0-10.77H124.6V43.76h-4.41v4.9h4.41V81.74Zm33.13-1.65a6.45,6.45,0,0,0,1.46-4.83V70.4h4.7V66.16h-4.7v-2H159v2H134.67V70.4H159v4.19a3.67,3.67,0,0,1-.42,2.29,2.91,2.91,0,0,1-2.47.62h-2.6l-3,4.24h7.8C160.65,81.75,162.34,81.19,163.41,80.09Zm5.15-16.89V48.46a6.9,6.9,0,0,0-1.72-3.94,6.42,6.42,0,0,0-4.56-2.14h-7.2V39.64h14.51L167.45,33h-5.51l.83,2.83h-7.69V33h-5.75v2.83H134.79v3.81h14.54v2.74H135.84V63.2h4.82V60.14h8.67V63.2h5.75V60.15h8.67V63.2ZM155.08,52.73h8.67v3.83h-8.67Zm-14.42,0h8.67v3.83h-8.67ZM155.08,46H161a2.9,2.9,0,0,1,1.89.85,2.93,2.93,0,0,1,.84,2.06v.48h-8.67Zm-14.42,0h8.67v3.39h-8.67Z"/><path class="cls-11" d="M243.54,29.21a1.29,1.29,0,0,0,1.3-1.28v-.09c0-1-.59-1.42-1.76-1.42h-1.91v5h.76V29.25h.87l1.32,2.16H245Zm-1.61-.6V27.06h1c.51,0,1.08.12,1.08.73,0,.77-.57.82-1.21.82Z"/><path class="cls-11" d="M242.86,24.36h0a4.56,4.56,0,1,0,4.56,4.55A4.56,4.56,0,0,0,242.86,24.36Zm0,8.29a3.75,3.75,0,1,1,0-7.49h0a3.75,3.75,0,0,1,0,7.49Z"/></svg>