<svg width="80" height="39" viewBox="0 0 80 39" fill="none" xmlns="http://www.w3.org/2000/svg">
<path fill-rule="evenodd" clip-rule="evenodd" d="M36.5041 27.5861L29.2587 35.63H39.2595C39.8171 35.63 40.0837 35.3651 40.0583 34.8357L38.8875 29.8397H42.7372L43.9599 35.7345C43.9103 37.3232 43.1329 38.1941 41.6271 38.3475H27.5465C25.3909 38.3753 24.7628 37.2325 25.6624 34.9193L32.3591 27.5861H28.6877C28.3663 27.5861 28.1739 27.3234 28.26 27.0022L28.6862 25.413C28.7722 25.092 29.1057 24.8293 29.427 24.8293H47.735C48.0563 24.8293 48.2489 25.092 48.1628 25.413L47.7366 27.0022C47.6505 27.3234 47.317 27.5861 46.9957 27.5861H36.5041ZM60.0486 30.9348H66.0389C66.386 30.9348 66.7459 30.6721 66.839 30.3509L67.2992 28.7617C67.3923 28.4407 67.1844 28.178 66.8373 28.178H60.89L61.0335 27.7077C61.1315 27.3866 60.9124 27.1239 60.5468 27.1239H58.7736C58.4078 27.1239 58.0284 27.3866 57.9304 27.7077L57.7869 28.178H50.8518C50.5049 28.178 50.1448 28.4407 50.0518 28.7617L49.5916 30.3509C49.4986 30.6721 49.7065 30.9348 50.0534 30.9348H56.9455L54.7827 38.0213C54.6847 38.3425 54.9037 38.6051 55.2694 38.6051H57.0426C57.4084 38.6051 57.7878 38.3425 57.8858 38.0213L60.0486 30.9348ZM69.5212 21.5455H52.6757C52.3099 21.5455 52.091 21.2828 52.1889 20.9616L52.674 19.3724C52.772 19.0514 53.1513 18.7887 53.5171 18.7887H70.3626C70.7283 18.7887 70.9473 19.0514 70.8493 19.3724L70.3643 20.9616C70.2663 21.2828 69.8869 21.5455 69.5212 21.5455ZM53.3292 22.3887H56.5034L54.7291 26.5726H51.5549L53.3292 22.3887ZM59.5354 22.3887H62.7096L60.9354 26.5726H57.7612L59.5354 22.3887ZM65.6678 22.3887H68.842L67.0677 26.5726H63.8935L65.6678 22.3887ZM51.5698 32.3131L49.6858 35.8483C49.5381 36.0781 49.3855 36.2069 49.2391 36.2792C48.9514 36.3357 48.6664 36.3662 48.4818 36.3662H47.796C47.3501 36.3662 47.184 36.6027 47.0946 36.8955L46.6639 38.3065C46.5572 38.6562 46.727 38.7414 47.0437 38.7414H48.627C48.7 38.7414 48.7762 38.739 48.8543 38.7348H49.9259C51.5144 38.7348 52.2348 37.405 52.2348 37.405L55.0793 32.3131H51.5698ZM77.043 17.4453C77.8775 19.0282 78.3463 20.7953 78.3463 22.6606C78.3463 29.3631 73.0764 36.5556 64.9874 36.6059C63.7437 36.4295 63.9985 35.3119 63.9985 35.3119L64.6265 32.3294H61.2086C61.2086 32.3294 61.1298 33.424 60.5776 35.8564C60.0255 38.2889 62.2289 38.7685 62.2289 38.7685C62.2289 38.7685 62.8513 38.8786 64.0463 38.9066C65.5589 38.9485 64.0459 38.9112 64.0459 38.9112C64.6966 38.9252 65.8159 38.8972 66.4613 38.8599C74.0582 38.4207 79.9799 31.7909 79.9799 25.0186C79.9799 22.1594 78.8807 19.5308 77.043 17.4453ZM26.6361 19.9003H12.8125C13.1512 18.9549 13.3372 18.3922 13.3372 18.3922C13.453 18.1294 13.4135 17.9673 13.3592 17.876C13.2425 17.6729 12.9793 17.6669 12.9487 17.6669H10.5997C10.1436 17.6669 9.87244 18.0084 9.79217 18.1891C9.79217 18.1891 9.58669 18.8331 9.20996 19.9003H5.60917C5.28943 19.9003 4.95978 20.1583 4.87475 20.4755L4.4405 22.0948C4.35508 22.4133 4.54616 22.6717 4.86589 22.6717H8.18503C6.47687 27.0942 3.56672 33.719 0.239513 37.4566C0.135843 37.5751 -0.0623714 37.8967 0.0192153 38.1381C0.053331 38.2367 0.146686 38.3555 0.412207 38.3584H2.71621C2.861 38.3533 3.35978 38.2945 3.78609 37.835L3.8452 37.7676C3.85564 37.7562 3.86609 37.7451 3.86807 37.7381C6.08017 35.0977 8.15832 31.0965 9.8013 27.4168H18.9661C19.0906 27.4168 19.3038 27.4024 19.2118 27.7455C19.0545 28.3325 17.5552 29.8834 15.7008 31.4552C15.1802 30.7061 14.7232 29.8954 14.3478 29.0272C14.248 28.7928 13.9737 28.7928 13.9737 28.7928H10.7797C10.4856 28.7928 10.4064 28.9894 10.4295 29.1255C10.9565 30.9719 11.7916 32.5177 12.6927 33.768C11.6213 34.503 10.5955 35.0992 9.77644 35.4023C9.36969 35.5528 8.83759 35.6359 8.54959 35.6359H7.86001C7.41174 35.6359 7.24474 35.9065 7.15495 36.2414L6.72203 37.8557C6.61465 38.2559 6.78536 38.3533 7.10365 38.3533H8.69531C9.26126 38.3533 9.99369 38.2094 10.6284 37.944C11.6696 37.5135 13.0181 36.7669 14.457 35.8236C16.0053 37.3456 17.4636 38.2906 19.425 38.4415H21.3226C21.5959 38.4415 21.9397 38.2854 22.0335 37.9357L22.523 35.9782C22.6148 35.6364 22.415 35.5441 22.1841 35.5441H21.9352C20.4431 35.5441 19.9951 35.4663 19.4854 35.2385C19.4727 35.2328 19.4603 35.2261 19.4486 35.2184C18.7471 34.7625 18.1582 34.1903 17.5347 33.5966C20.5191 31.2239 23.2471 28.3773 23.864 26.0774C24.1481 25.0177 23.3819 24.6367 22.5438 24.6367H10.9911C11.275 23.9453 11.5374 23.286 11.7763 22.6717H25.8928C26.2116 22.6717 26.5385 22.4133 26.6239 22.0948L27.0582 20.4755C27.1432 20.1583 26.9549 19.9003 26.6361 19.9003ZM47.5151 21.9022H31.1548C30.8334 21.9022 30.6409 21.6396 30.727 21.3184L31.1532 19.7292C31.2394 19.4081 31.5727 19.1455 31.8941 19.1455H48.2544C48.5757 19.1455 48.7682 19.4081 48.6822 19.7292L48.256 21.3184C48.1699 21.6396 47.8364 21.9022 47.5151 21.9022Z" fill="#EA4754"/>
<path fill-rule="evenodd" clip-rule="evenodd" d="M76.0481 19.7889L75.5736 18.5681L75.0112 17.4382C74.7867 17.0793 74.5885 16.7145 74.3515 16.3758C74.0885 16.0508 73.8824 15.7 73.6106 15.394C73.3299 15.0952 73.099 14.7662 72.7894 14.5021C72.4906 14.2307 72.2183 13.9428 71.8919 13.71C71.5833 13.4613 71.2822 13.2105 70.9424 13.009L70.4535 12.6881L69.9408 12.4098C69.6081 12.2126 69.2535 12.0586 68.8969 11.9163C68.5519 11.7513 68.1836 11.6437 67.8237 11.5252C67.4708 11.3881 67.089 11.3401 66.7264 11.2486C66.3652 11.1492 65.9839 11.138 65.6191 11.0747C65.2503 11.025 64.8745 11.042 64.5074 11.0178C64.1379 11.0158 63.7685 11.0525 63.4021 11.0628C63.0362 11.1039 62.6731 11.173 62.3111 11.2214L61.1571 11.4984L60.0379 11.7669L59.1846 10.6962L58.5183 9.86004L57.7983 9.07289L57.0357 8.33L56.2246 7.64286L55.3725 7.00923C55.0751 6.81806 54.7862 6.61314 54.4844 6.42924C54.1745 6.25947 53.8738 6.07305 53.5591 5.91306C53.2375 5.76707 52.9269 5.59756 52.6036 5.45541C51.9568 5.17175 51.2929 4.92853 50.6147 4.73075C49.9342 4.54156 49.2465 4.37549 48.5462 4.26583C47.8452 4.16212 47.1381 4.10531 46.4259 4.07466C46.0703 4.07915 45.713 4.0695 45.3557 4.08153L44.8206 4.12156L44.5521 4.14005L44.4177 4.14745L44.3502 4.15128L44.3164 4.15287C44.253 4.16318 44.3935 4.13926 44.3757 4.14243L44.3661 4.14375L44.3474 4.14613L43.1519 4.31088L42.1502 4.51672L41.1041 4.79311C40.757 4.89827 40.4182 5.02854 40.0717 5.14388L39.0563 5.55872C38.7205 5.70616 38.3986 5.8828 38.0651 6.04372C37.7405 6.21759 37.4238 6.40889 37.0989 6.59134C36.7806 6.78357 36.4793 7.0017 36.1646 7.20701C35.8581 7.4217 35.565 7.65581 35.2605 7.88146L34.394 8.61854C34.1119 8.87419 33.8432 9.14542 33.5629 9.41124L32.7833 10.2677C32.5424 10.5696 32.3 10.8743 32.0458 11.1771L31.3568 12.1396C31.1517 12.4761 30.9364 12.8127 30.7161 13.1522L30.123 14.2138C30.1806 13.8115 30.2517 13.4075 30.3254 13.0006C30.4235 12.6028 30.5212 12.1994 30.638 11.8006L31.055 10.6221C31.2195 10.2388 31.3836 9.85013 31.5703 9.47241C31.773 9.10526 31.9706 8.73018 32.1841 8.36303C32.4137 8.00803 32.6374 7.64352 32.8797 7.29103C33.133 6.94832 33.393 6.60601 33.6662 6.27413C33.9533 5.95626 34.2312 5.62346 34.5332 5.31444C34.847 5.01903 35.1529 4.70908 35.4805 4.42344C35.8175 4.15089 36.1428 3.85614 36.4963 3.60023C36.8552 3.35343 37.2079 3.09013 37.579 2.85668C37.9575 2.63617 38.3277 2.39348 38.7191 2.19173C39.1153 2.00043 39.508 1.79552 39.9127 1.61756C40.3244 1.4536 40.7273 1.28026 41.1525 1.12608L42.4843 0.725505L43.6593 0.44991L44.3842 0.336158L45.0473 0.243015C45.4915 0.197039 45.9387 0.175636 46.3857 0.143268C46.8333 0.124243 47.2822 0.13653 47.7314 0.138908C48.1804 0.152912 48.6268 0.208269 49.0755 0.24328C49.9682 0.351219 50.8576 0.506059 51.7282 0.741623C52.5971 0.98115 53.4487 1.28 54.2787 1.63182C55.1078 1.98642 55.8988 2.42175 56.6678 2.88997C57.0489 3.12897 57.4151 3.39201 57.7877 3.64356C58.1508 3.90859 58.4959 4.19858 58.8461 4.47999C59.1833 4.77738 59.5086 5.08773 59.8378 5.39239L60.763 6.37045C61.0508 6.71448 61.7785 7.50268 61.7785 7.50268C62.2743 7.47573 62.7675 7.4353 63.2604 7.42949C63.755 7.45539 64.2492 7.45578 64.7379 7.51259C65.2247 7.59596 65.7145 7.64431 66.1904 7.76441C66.6624 7.89877 67.1455 7.98385 67.5998 8.16591C68.0532 8.3477 68.5178 8.49025 68.9449 8.72436C69.3782 8.94156 69.8161 9.14198 70.2144 9.41705C70.6238 9.67019 71.0213 9.93521 71.3881 10.2433L71.9455 10.688L72.4567 11.1846C72.8058 11.5034 73.1068 11.869 73.407 12.2294C73.72 12.5775 73.9578 12.9887 74.219 13.3701C74.4895 13.7458 74.6726 14.181 74.8971 14.5782C75.1111 14.9836 75.2633 15.4212 75.4284 15.8421C75.576 16.2723 75.6765 16.7181 75.7978 17.1467C75.8914 17.5915 75.9507 18.0433 76.0099 18.4793C76.03 18.9153 76.0444 19.3505 76.0481 19.7889Z" fill="#999999"/>
</svg>
