<?xml version="1.0" encoding="UTF-8"?>
<svg width="148px" height="36px" viewBox="0 0 148 36" version="1.1" xmlns="http://www.w3.org/2000/svg" xmlns:xlink="http://www.w3.org/1999/xlink">
    <title>logo</title>
<base href="https://wwwcdn.kdzl.cn/kd77_v1/" />
    <defs>
        <polygon id="path-1" points="14.1176618 0.05 28.2352941 0.05 28.2352941 27.9676471 2.94117647e-05 27.9676471 2.94117647e-05 0.05"></polygon>
        <polygon id="path-3" points="14.1176471 0.147058824 14.1176471 14.2647059 2.94117647e-05 14.2647059 2.94117647e-05 0.147058824 14.1176471 0.147058824"></polygon>
    </defs>
    <g id="logo" stroke="none" stroke-width="1" fill="none" fill-rule="evenodd">
        <g id="编组" transform="translate(20.000000, 0.000000)">
            <g id="Page-1" transform="translate(3.882353, 3.000000)">
                <path d="M20.7318529,11.6202059 C20.8268529,11.4793235 20.8824412,11.3096176 20.8824412,11.1263824 C20.8824412,11.3096176 20.8268529,11.4793235 20.7318529,11.6202059 M20.6245,11.7507941 C20.4647941,11.9102059 20.2442059,12.0087353 20.0000882,12.0087353 C20.2442059,12.0087353 20.4647941,11.9102059 20.6245,11.7507941 M24.8647941,7.49402941 C23.8353824,6.72638235 22.5589118,6.27344118 21.1765588,6.27344118 C17.7647941,6.27344118 15.0000882,9.03814706 15.0000882,12.4499118 C15.0000882,12.8087353 15.0292059,13.1616765 15.0912647,13.5057941 C15.3147941,14.8057941 15.9442059,15.9646176 16.8439118,16.8499118 C17.9589118,17.9499118 19.4880294,18.6263824 21.1765588,18.6263824 C24.1883235,18.6263824 26.6939118,16.4734412 27.2412647,13.6205 C27.3147941,13.2410882 27.3530294,12.8499118 27.3530294,12.4499118 C27.3530294,10.4205 26.3736176,8.6205 24.8647941,7.49402941" id="Fill-1" fill="#FFFFFF"></path>
                <path d="M16.2712059,17.4706765 L16.2502059,17.5033765 C16.2472059,17.5033765 16.2442059,17.5006765 16.2442059,17.4976765 L16.2712059,17.4706765 Z" id="Fill-3" fill="#000000"></path>
                <path d="M19.5117059,27.7498529 C18.9940588,27.9854412 18.4617059,28.1880882 17.912,28.3560294 C17.8205294,28.3851471 17.7293529,28.4116176 17.6381765,28.4351471 C17.2528824,28.5439706 16.8617059,28.6354412 16.4649412,28.7089706 C16.3234706,28.7354412 16.1793529,28.7589706 16.0352353,28.7792647 C15.5175882,28.8560294 14.9881765,28.9030882 14.4528824,28.9148529 C14.5234706,29.1530882 14.6767059,29.3560294 14.8822941,29.4880882 C15.0411176,29.5942647 15.2352353,29.6557353 15.4411176,29.6557353 C15.7087647,29.6557353 15.9528824,29.5530882 16.1355294,29.3825 C16.2443529,29.6030882 16.4322941,29.7792647 16.662,29.8707353 C16.7825882,29.9236765 16.9146471,29.9498529 17.0531765,29.9498529 C17.3472941,29.9498529 17.6146471,29.8266176 17.7999412,29.6233824 C17.9234706,29.4969118 18.0117059,29.3354412 18.0528824,29.1586765 C18.2234706,29.2880882 18.4322941,29.3616176 18.6617059,29.3616176 C18.6734706,29.3616176 18.6881765,29.3616176 18.6999412,29.3589706 C18.9149412,29.3527941 19.1146471,29.2792647 19.2764118,29.1586765 C19.5205294,28.9795588 19.6793529,28.6910294 19.6881765,28.3677941 C19.6911176,28.3560294 19.6911176,28.3442647 19.6911176,28.3322059 C19.6911176,28.1175 19.6234706,27.9148529 19.5117059,27.7498529" id="Fill-5" fill="#000000"></path>
                <path d="M14.1894412,13.9959706 C14.2370882,14.5050882 14.3094412,15.0142059 14.4062059,15.5215588 C14.3094412,15.0142059 14.2370882,14.5050882 14.1894412,13.9959706 M14.1176765,12.4703824 C14.1117941,14.4412647 13.3000294,16.2206765 11.9909118,17.4971471 L12.9467941,18.5353824 L14.1176765,19.8030294 L15.2882647,18.5353824 C15.0903235,18.0403824 14.9185588,17.5406765 14.7715,17.0380294 C14.9185588,17.5406765 15.0903235,18.0403824 15.2882647,18.5353824 L16.2441471,17.4971471 C14.9353235,16.2206765 14.1232647,14.4412647 14.1176765,12.4703824" id="Fill-7" fill="#FFBF00"></path>
                <path d="M11.9913824,17.4974765 C11.9913824,17.5004765 11.9883824,17.5034765 11.9853824,17.5034765 L11.9733824,17.4791765 L11.9913824,17.4974765 Z" id="Fill-9" fill="#000000"></path>
                <path d="M15.4205,18.8559706 L14.1175588,20.9795 L15.4205,18.8559706 Z M21.1763824,19.5089118 C19.2619706,19.5089118 17.5234412,18.7442059 16.2499118,17.5027353 C16.2472647,17.5027353 16.2443235,17.5000882 16.2443235,17.4971471 L15.2884412,18.5353824 L14.1175588,19.8030294 L12.9469706,18.5353824 L11.9910882,17.4971471 C11.9910882,17.5000882 11.9881471,17.5027353 11.9852059,17.5027353 C10.7116765,18.7442059 8.97344118,19.5089118 7.05873529,19.5089118 C4.40608824,19.5089118 2.09402941,18.0439118 0.891382353,15.8795 C1.04108824,20.2115588 3.18520588,24.0265588 6.41167647,26.3912647 C7.12961765,26.9177353 7.90020588,27.3736176 8.71461765,27.7468529 C9.22932353,27.9821471 9.76491176,28.1853824 10.3119706,28.3497941 C10.4028529,28.3795 10.4910882,28.4059706 10.5825588,28.4295 C10.9649118,28.5412647 11.3560882,28.6321471 11.7528529,28.7056765 C11.8972647,28.7324412 12.0410882,28.7559706 12.1881471,28.7762647 C12.7060882,28.8559706 13.2325588,28.9030294 13.7678529,28.9147941 C13.8825588,28.9177353 13.9999118,28.9206765 14.1175588,28.9206765 C14.2293235,28.9206765 14.3410882,28.9206765 14.4528529,28.9147941 C14.9881471,28.9030294 15.5175588,28.8559706 16.0352059,28.7792059 C16.1793235,28.7589118 16.3234412,28.7353824 16.4649118,28.7089118 C16.8616765,28.6353824 17.2528529,28.5439118 17.6381471,28.4350882 C17.7296176,28.4115588 17.8205,28.3850882 17.9119706,28.3559706 C18.4616765,28.1880294 18.9940294,27.9853824 19.5116765,27.7497941 C20.3293235,27.3765588 21.1028529,26.9206765 21.8237353,26.3912647 C25.0499118,24.0265588 27.1940294,20.2115588 27.3440294,15.8795 C26.1410882,18.0439118 23.8293235,19.5089118 21.1763824,19.5089118 L21.1763824,19.5089118 Z" id="Fill-11" fill="#F7731B"></path>
                <path d="M12.1880882,28.7764118 C12.0410294,28.7561176 11.8972059,28.7325882 11.7530882,28.7058235 C11.3560294,28.6322941 10.9648529,28.5411176 10.5825,28.4293529 C10.4910294,28.4058235 10.4030882,28.3793529 10.3119118,28.3499412 C9.76485294,28.1852353 9.22926471,27.9822941 8.71455882,27.747 C8.59720588,27.912 8.52955882,28.1146471 8.52955882,28.3322941 C8.52955882,28.3414118 8.52955882,28.3531765 8.53220588,28.3617059 C8.53838235,28.6852353 8.69720588,28.9734706 8.94132353,29.1528824 C9.10602941,29.2793529 9.31191176,29.3561176 9.5325,29.3617059 L9.55897059,29.3617059 C9.78838235,29.3617059 10.0001471,29.2881765 10.1707353,29.1587647 C10.2116176,29.3352353 10.2998529,29.497 10.4204412,29.6234706 C10.6089706,29.8264118 10.8733824,29.9499412 11.1707353,29.9499412 C11.3057353,29.9499412 11.4380882,29.9234706 11.5586765,29.8708235 C11.7883824,29.7793529 11.9763235,29.6058235 12.0880882,29.3852353 C12.2677941,29.5558235 12.5119118,29.6558235 12.7795588,29.6558235 C12.9883824,29.6558235 13.1825,29.5940588 13.3413235,29.4881765 C13.5439706,29.3561176 13.6972059,29.1528824 13.7677941,28.9149412 C13.2325,28.9031765 12.7060294,28.8561176 12.1880882,28.7764118" id="Fill-13" fill="#000000"></path>
                <path d="M6.61420588,11.6202059 C6.70920588,11.4793235 6.76479412,11.3096176 6.76479412,11.1263824 C6.76479412,11.3096176 6.70920588,11.4793235 6.61420588,11.6202059 M6.50685294,11.7507941 C6.34714706,11.9102059 6.12655882,12.0087353 5.88244118,12.0087353 C6.12655882,12.0087353 6.34714706,11.9102059 6.50685294,11.7507941 M7.05891176,6.27344118 C5.67655882,6.27344118 4.40008824,6.72638235 3.37067647,7.49402941 C1.86185294,8.6205 0.882441176,10.4205 0.882441176,12.4499118 C0.882441176,12.8499118 0.920676471,13.2410882 0.994205882,13.6205 C1.54126471,16.4734412 4.04685294,18.6263824 7.05891176,18.6263824 C8.74714706,18.6263824 10.2762647,17.9499118 11.3912647,16.8499118 C12.2912647,15.9646176 12.9203824,14.8057941 13.1439118,13.5057941 C13.2059706,13.1616765 13.2353824,12.8087353 13.2353824,12.4499118 C13.2353824,9.03814706 10.4703824,6.27344118 7.05891176,6.27344118" id="Fill-15" fill="#FFFFFF"></path>
                <g id="Group-19" transform="translate(0.000000, 0.244118)">
                    <mask id="mask-2" fill="white">
                        <use xlink:href="#path-1"></use>
                    </mask>
                    <g id="Clip-18"></g>
                    <path d="M27.2412059,13.3764706 C26.6941471,16.2294118 24.1882647,18.3823529 21.1765,18.3823529 C19.4882647,18.3823529 17.9588529,17.7058824 16.8438529,16.6058824 C15.9441471,15.7205882 15.3147353,14.5617647 15.0912059,13.2617647 C15.0291471,12.9176471 15.0000294,12.5647059 15.0000294,12.2058824 C15.0000294,8.79411765 17.7647353,6.02941176 21.1765,6.02941176 C22.5588529,6.02941176 23.8353235,6.48235294 24.8647353,7.25 C26.3735588,8.37647059 27.3529706,10.1764706 27.3529706,12.2058824 C27.3529706,12.6058824 27.3147353,12.9970588 27.2412059,13.3764706 M13.1438529,13.2617647 C12.9206176,14.5617647 12.2912059,15.7205882 11.3912059,16.6058824 C10.2762059,17.7058824 8.74708824,18.3823529 7.05885294,18.3823529 C4.04708824,18.3823529 1.54120588,16.2294118 0.994147059,13.3764706 C0.920617647,12.9970588 0.882382353,12.6058824 0.882382353,12.2058824 C0.882382353,10.1764706 1.86179412,8.37647059 3.37061765,7.25 C4.40002941,6.48235294 5.6765,6.02941176 7.05885294,6.02941176 C10.4703235,6.02941176 13.2353235,8.79411765 13.2353235,12.2058824 C13.2353235,12.5647059 13.2059118,12.9176471 13.1438529,13.2617647 M28.2353235,12.2058824 C28.2353235,11.3588235 28.0853235,10.5441176 27.8088529,9.79117647 C27.7970882,9.75588235 27.7853235,9.72058824 27.7706176,9.68529412 C27.7117941,9.54411765 27.6526765,9.40588235 27.5912059,9.26470588 C27.5765,9.22352941 27.5588529,9.18529412 27.5382647,9.14705882 C27.3912059,8.81176471 27.2294412,8.47941176 27.0500294,8.15588235 L27.0644412,8.14705882 C26.9882647,8.00294118 26.9117941,7.85882353 26.8412059,7.71176471 C25.6353235,5.24117647 25.2706176,2.57941176 25.6353235,0.05 C24.6941471,1.17647059 23.5912059,2.16470588 22.3617941,2.97352941 C22.1853235,3.09117647 22.0029706,3.20588235 21.8203235,3.31470588 C21.6029706,3.44411765 21.3823824,3.57058824 21.1559118,3.68823529 C19.4735588,4.58529412 17.6000294,5.17058824 15.6117941,5.36764706 C15.1206176,5.41764706 14.6235588,5.44117647 14.1176765,5.44117647 C13.6147353,5.44117647 13.1173824,5.41764706 12.6265,5.36764706 C10.6382647,5.17058824 8.76179412,4.58529412 7.07944118,3.68823529 C6.85297059,3.57058824 6.63238235,3.44411765 6.41473529,3.31470588 C6.23208824,3.20588235 6.05002941,3.09117647 5.87355882,2.97352941 C4.64414706,2.16470588 3.54120588,1.17647059 2.60002941,0.05 C2.96473529,2.57941176 2.60002941,5.24117647 1.39414706,7.71176471 C1.31179412,7.88235294 1.2265,8.04705882 1.13532353,8.21176471 L1.15002941,8.22058824 C1.06473529,8.37941176 0.982382353,8.54117647 0.902970588,8.70294118 C0.832382353,8.85 0.761794118,8.99705882 0.697088235,9.14705882 C0.643852941,9.25882353 0.597088235,9.37352941 0.547088235,9.48529412 C0.502970588,9.58235294 0.464735294,9.68235294 0.429441176,9.77941176 C0.150029412,10.5382353 2.94117647e-05,11.3529412 2.94117647e-05,12.2058824 C2.94117647e-05,12.6205882 0.0353235294,13.0235294 0.105911765,13.4176471 C0.0353235294,13.9852941 2.94117647e-05,14.5617647 2.94117647e-05,15.1470588 C2.94117647e-05,16.6088235 0.223558824,18.0205882 0.635323529,19.3470588 L0.629441176,19.35 C0.985029412,20.4823529 1.29414706,21.6323529 1.55591176,22.7911765 C1.94091176,24.4941176 2.2265,26.2235294 2.40855882,27.9676471 C3.23826471,27.7176471 4.05885294,27.3970588 4.86473529,27.0058824 C4.9765,26.95 5.08826471,26.8941176 5.20002941,26.8352941 C5.39120588,26.7382353 5.57944118,26.6382353 5.76444118,26.5294118 C5.98502941,26.4088235 6.20002941,26.2794118 6.41179412,26.1470588 C3.18532353,23.7823529 1.04120588,19.9676471 0.891205882,15.6352941 C2.09414706,17.8 4.40591176,19.2647059 7.05885294,19.2647059 C8.97355882,19.2647059 10.7117941,18.5 11.9853235,17.2588235 L11.9735588,17.2352941 L11.9909118,17.2529412 C13.3000294,15.9764706 14.1117941,14.1970588 14.1176765,12.2264706 C14.1232647,14.1970588 14.9353235,15.9764706 16.2441471,17.2529412 L16.2706176,17.2264706 L16.2500294,17.2588235 C17.5235588,18.5 19.2617941,19.2647059 21.1765,19.2647059 C23.8291471,19.2647059 26.1412059,17.8 27.3441471,15.6352941 C27.1941471,19.9676471 25.0500294,23.7823529 21.8235588,26.1470588 C22.0353235,26.2794118 22.2470882,26.4088235 22.4647353,26.5323529 C22.6526765,26.6382353 22.8441471,26.7411765 23.0353235,26.8382353 C23.9262059,27.3 24.8617941,27.6764706 25.8206176,27.9647059 C25.9970882,26.2411765 26.2791471,24.5147059 26.6706176,22.8 C26.9265,21.6617647 27.2294412,20.5264706 27.5823824,19.3970588 C27.5941471,19.3676471 27.6026765,19.3382353 27.6088529,19.3117647 C28.0176765,17.9941176 28.2353235,16.5970588 28.2353235,15.1470588 C28.2353235,14.5617647 28.2000294,13.9852941 28.1294412,13.4176471 C28.2000294,13.0235294 28.2353235,12.6205882 28.2353235,12.2058824" id="Fill-17" fill="#000000" mask="url(#mask-2)"></path>
                </g>
                <path d="M14.1894412,13.9959706 C14.2370882,14.5050882 14.3094412,15.0142059 14.4062059,15.5215588 C14.3094412,15.0142059 14.2370882,14.5050882 14.1894412,13.9959706 M14.1176765,12.4703824 L14.1176765,19.8030294 L15.2882647,18.5353824 C15.0903235,18.0403824 14.9185588,17.5406765 14.7715,17.0380294 C14.9185588,17.5406765 15.0903235,18.0403824 15.2882647,18.5353824 L16.2441471,17.4971471 C14.9353235,16.2206765 14.1232647,14.4412647 14.1176765,12.4703824" id="Fill-20" fill="#FFD24D"></path>
                <path d="M16.2442647,17.4971176 L15.2883824,18.5353529 L14.1177941,19.803 L12.9469118,18.5353529 L11.9910294,17.4971176 C11.9910294,17.5000588 11.9880882,17.503 11.9854412,17.503 L12.8148529,18.8527059 L14.1177941,20.9794706 L15.4204412,18.8559412 L16.2501471,17.503 C16.2472059,17.503 16.2442647,17.5000588 16.2442647,17.4971176" id="Fill-22" fill="#8D2D01"></path>
                <path d="M8.38235294,13.9205882 C8.38235294,13.6764706 8.18529412,13.4794118 7.94117647,13.4794118 C7.69705882,13.4794118 7.5,13.6764706 7.5,13.9205882 C7.5,14.1647059 7.69705882,14.3617647 7.94117647,14.3617647 C8.18529412,14.3617647 8.38235294,14.1647059 8.38235294,13.9205882 M7.05882353,10.2441176 C8.27647059,10.2441176 9.26470588,11.2323529 9.26470588,12.45 C9.26470588,13.6676471 8.27647059,14.6558824 7.05882353,14.6558824 C5.84117647,14.6558824 4.85294118,13.6676471 4.85294118,12.45 C4.85294118,12.1029412 4.93235294,11.7764706 5.07941176,11.4852941 C5.21176471,11.7941176 5.52058824,12.0088235 5.88235294,12.0088235 C6.37058824,12.0088235 6.76470588,11.6147059 6.76470588,11.1264706 C6.76470588,10.8029412 6.59411765,10.5235294 6.33529412,10.3676471 C6.56176471,10.2882353 6.80588235,10.2441176 7.05882353,10.2441176" id="Fill-24" fill="#000000"></path>
                <path d="M7.94117647,13.4794118 C8.18529412,13.4794118 8.38235294,13.6764706 8.38235294,13.9205882 C8.38235294,14.1647059 8.18529412,14.3617647 7.94117647,14.3617647 C7.69705882,14.3617647 7.5,14.1647059 7.5,13.9205882 C7.5,13.6764706 7.69705882,13.4794118 7.94117647,13.4794118" id="Fill-26" fill="#FFFFFF"></path>
                <path d="M6.33529412,10.3676176 C6.20294118,10.2911471 6.04735294,10.2440882 5.88235294,10.2440882 C5.39411765,10.2440882 5,10.6382059 5,11.1264412 C5,11.2529118 5.02647059,11.3764412 5.07911765,11.4852647 C5.21176471,11.7940882 5.52029412,12.0087941 5.88235294,12.0087941 C6.37058824,12.0087941 6.76470588,11.6146765 6.76470588,11.1264412 C6.76470588,10.8029118 6.59411765,10.5235 6.33529412,10.3676176" id="Fill-28" fill="#FFFFFF"></path>
                <path d="M22.5,13.9205882 C22.5,13.6764706 22.3029412,13.4794118 22.0588235,13.4794118 C21.8147059,13.4794118 21.6176471,13.6764706 21.6176471,13.9205882 C21.6176471,14.1647059 21.8147059,14.3617647 22.0588235,14.3617647 C22.3029412,14.3617647 22.5,14.1647059 22.5,13.9205882 M21.1764706,10.2441176 C22.3941176,10.2441176 23.3823529,11.2323529 23.3823529,12.45 C23.3823529,13.6676471 22.3941176,14.6558824 21.1764706,14.6558824 C19.9588235,14.6558824 18.9705882,13.6676471 18.9705882,12.45 C18.9705882,12.1029412 19.05,11.7764706 19.1970588,11.4852941 C19.3294118,11.7941176 19.6382353,12.0088235 20,12.0088235 C20.4882353,12.0088235 20.8823529,11.6147059 20.8823529,11.1264706 C20.8823529,10.8029412 20.7117647,10.5235294 20.4529412,10.3676471 C20.6794118,10.2882353 20.9235294,10.2441176 21.1764706,10.2441176" id="Fill-30" fill="#000000"></path>
                <path d="M22.0588235,13.4794118 C22.3029412,13.4794118 22.5,13.6764706 22.5,13.9205882 C22.5,14.1647059 22.3029412,14.3617647 22.0588235,14.3617647 C21.8147059,14.3617647 21.6176471,14.1647059 21.6176471,13.9205882 C21.6176471,13.6764706 21.8147059,13.4794118 22.0588235,13.4794118" id="Fill-32" fill="#FFFFFF"></path>
                <path d="M20.4529412,10.3676176 C20.3205882,10.2911471 20.165,10.2440882 20,10.2440882 C19.5117647,10.2440882 19.1176471,10.6382059 19.1176471,11.1264412 C19.1176471,11.2529118 19.1441176,11.3764412 19.1967647,11.4852647 C19.3294118,11.7940882 19.6379412,12.0087941 20,12.0087941 C20.4882353,12.0087941 20.8823529,11.6146765 20.8823529,11.1264412 C20.8823529,10.8029118 20.7117647,10.5235 20.4529412,10.3676176" id="Fill-34" fill="#FFFFFF"></path>
                <g id="Group-38" transform="translate(14.117647, 5.244118)">
                    <mask id="mask-4" fill="white">
                        <use xlink:href="#path-3"></use>
                    </mask>
                    <g id="Clip-37"></g>
                    <path d="M13.1235588,8.37647059 C12.5765,11.2294118 10.0706176,13.3823529 7.05885294,13.3823529 C5.37061765,13.3823529 3.84120588,12.7058824 2.72620588,11.6058824 C1.8265,10.7205882 1.19708824,9.56176471 0.973558824,8.26176471 C0.9115,7.91764706 0.882382353,7.56470588 0.882382353,7.20588235 C0.882382353,3.79411765 3.64708824,1.02941176 7.05885294,1.02941176 C8.44120588,1.02941176 9.71767647,1.48235294 10.7470882,2.25 C12.2559118,3.37647059 13.2353235,5.17647059 13.2353235,7.20588235 C13.2353235,7.60588235 13.1970882,7.99705882 13.1235588,8.37647059 M13.6912059,4.79117647 C13.6794412,4.75588235 13.6676765,4.72058824 13.6529706,4.68529412 C13.5941471,4.54411765 13.5350294,4.40588235 13.4735588,4.26470588 C13.4588529,4.22352941 13.4412059,4.18529412 13.4206176,4.14705882 C12.8941471,3.05 12.0879706,2.11176471 11.1000294,1.42058824 C10.5470882,1.03235294 9.93826471,0.723529412 9.28826471,0.508823529 C8.58826471,0.273529412 7.83826471,0.147058824 7.05885294,0.147058824 C3.25885294,0.147058824 0.158852941,3.15294118 0.00561764706,6.91764706 C2.94117647e-05,7.00588235 2.94117647e-05,7.09705882 2.94117647e-05,7.18529412 L2.94117647e-05,7.20588235 L2.94117647e-05,7.22647059 C0.00561764706,9.19705882 0.817676471,10.9764706 2.1265,12.2529412 L2.15297059,12.2264706 L2.13238235,12.2588235 C3.40591176,13.5 5.14414706,14.2647059 7.05885294,14.2647059 C9.7115,14.2647059 12.0235588,12.8 13.2265,10.6352941 C13.6059118,9.95588235 13.8765,9.21176471 14.0117941,8.41764706 C14.0823824,8.02352941 14.1176765,7.62058824 14.1176765,7.20588235 C14.1176765,6.35882353 13.9676765,5.54411765 13.6912059,4.79117647" id="Fill-36" fill="#000000" mask="url(#mask-4)"></path>
                </g>
                <path d="M11.3913235,16.85 C10.2763235,17.95 8.74720588,18.6264706 7.05897059,18.6264706 C4.04691176,18.6264706 1.54132353,16.4735294 0.993970588,13.6205882 C0.920441176,13.2411765 0.8825,12.85 0.8825,12.45 C0.8825,10.4205882 1.86191176,8.62058824 3.37044118,7.49411765 C4.39985294,6.72647059 5.67632353,6.27352941 7.05897059,6.27352941 C10.4704412,6.27352941 13.2354412,9.03823529 13.2354412,12.45 C13.2354412,12.8088235 13.2060294,13.1617647 13.1439706,13.5058824 C12.9204412,14.8058824 12.2913235,15.9647059 11.3913235,16.85 M7.05897059,5.39117647 C6.27926471,5.39117647 5.52926471,5.51764706 4.82926471,5.75294118 C4.17926471,5.96764706 3.57044118,6.27647059 3.0175,6.66470588 C2.02955882,7.35588235 1.22367647,8.29411765 0.697205882,9.39117647 C0.643970588,9.50294118 0.597205882,9.61764706 0.547205882,9.72941176 C0.502794118,9.82647059 0.464852941,9.92647059 0.429264706,10.0235294 C0.149852941,10.7823529 0.000147058823,11.5970588 0.000147058823,12.45 C0.000147058823,12.8647059 0.0354411765,13.2676471 0.106029412,13.6617647 C0.241323529,14.4558824 0.511911765,15.2 0.891323529,15.8794118 C2.09426471,18.0441176 4.40602941,19.5088235 7.05897059,19.5088235 C8.97338235,19.5088235 10.7116176,18.7441176 11.9854412,17.5029412 L11.9733824,17.4794118 L11.9910294,17.4970588 C13.2998529,16.2205882 14.1119118,14.4411765 14.1177941,12.4705882 L14.1177941,12.45 L14.1177941,12.4294118 C14.1057353,8.54117647 10.9501471,5.39117647 7.05897059,5.39117647" id="Fill-39" fill="#000000"></path>
            </g>
            <path d="M56.4765625,25.2890625 C57.2994792,25.2890625 57.9166667,24.9765625 58.328125,24.3515625 C58.515625,24.0703125 58.609375,23.625 58.609375,23.015625 L58.609375,23.015625 L58.609375,14.796875 C58.609375,13.9791667 58.2942708,13.3697917 57.6640625,12.96875 C57.3984375,12.796875 56.9661458,12.7109375 56.3671875,12.7109375 L56.3671875,12.7109375 L47.484375,12.7109375 C46.7552083,12.7109375 46.1927083,12.9661458 45.796875,13.4765625 C45.5260417,13.8255208 45.390625,14.3125 45.390625,14.9375 L45.390625,14.9375 L45.390625,22.953125 C45.390625,23.5052083 45.4583333,23.9244792 45.59375,24.2109375 C45.7447917,24.5182292 45.984375,24.7838542 46.3125,25.0078125 C46.5833333,25.1953125 47.0442708,25.2890625 47.6953125,25.2890625 L47.6953125,25.2890625 L56.4765625,25.2890625 Z M55.6484375,23.84375 L47.9921875,23.84375 C47.6640625,23.84375 47.4348958,23.8125 47.3046875,23.75 C47.2109375,23.703125 47.1145833,23.6197917 47.015625,23.5 C46.8958333,23.359375 46.8359375,22.6510417 46.8359375,21.375 L46.8359375,21.375 L46.8359375,15.2421875 C46.8359375,14.7161458 47.0130208,14.3723958 47.3671875,14.2109375 C47.4557292,14.1744792 47.6901042,14.15625 48.0703125,14.15625 L48.0703125,14.15625 L56.0078125,14.15625 C56.3515625,14.15625 56.5807292,14.1848958 56.6953125,14.2421875 C56.8203125,14.3046875 56.9348958,14.4088542 57.0390625,14.5546875 C57.1067708,14.6484375 57.140625,14.8802083 57.140625,15.25 L57.140625,15.25 L57.140625,22.8203125 C57.140625,23.0963542 57.1119792,23.2916667 57.0546875,23.40625 C57.0026042,23.5104167 56.9036458,23.6119792 56.7578125,23.7109375 C56.6223958,23.7994792 56.2526042,23.84375 55.6484375,23.84375 L55.6484375,23.84375 Z M75.1171875,18.4921875 L75.1171875,17.1328125 C73.1484375,16.7526042 71.7239583,16 70.84375,14.875 L70.84375,14.875 L75.2421875,14.8828125 L75.2421875,13.4375 L74.234375,13.4375 L74.234375,12.4296875 L72.7890625,12.4296875 L72.7890625,13.4375 L69.984375,13.4296875 L69.5,12.328125 L67.8671875,12.328125 L68.3046875,13.4375 L64.5,13.4375 L64.5,14.8828125 L69.0546875,14.8828125 C69.4348958,15.4609375 69.7369792,15.8723958 69.9609375,16.1171875 C70.5651042,16.7682292 71.3020833,17.3046875 72.171875,17.7265625 C72.8802083,18.0651042 73.8619792,18.3203125 75.1171875,18.4921875 L75.1171875,18.4921875 Z M63.421875,18.4765625 L63.421875,14.203125 C63.8697917,13.6354167 64.2526042,13.0130208 64.5703125,12.3359375 L64.5703125,12.3359375 L62.9609375,12.3359375 C62.6588542,12.8463542 62.4427083,13.1744792 62.3125,13.3203125 C61.9947917,13.6744792 61.5755208,13.9453125 61.0546875,14.1328125 L61.0546875,14.1328125 L61.0546875,15.578125 C61.3151042,15.5208333 61.625,15.4270833 61.984375,15.296875 L61.984375,15.296875 L61.984375,18.46875 L63.421875,18.4765625 Z M68.234375,25.625 L68.234375,24.1796875 L64.296875,24.1796875 C64.09375,24.1796875 63.9609375,24.1458333 63.8984375,24.078125 C63.8307292,24 63.796875,23.8645833 63.796875,23.671875 L63.796875,23.671875 L63.7890625,22.375 C64.8098958,21.7916667 65.6171875,21.1666667 66.2109375,20.5 L66.2109375,20.5 L75.21875,20.5 L75.21875,19.0546875 L68.7421875,19.0546875 L68.7421875,18.3515625 L67.3046875,18.3515625 L67.3046875,19.0546875 L60.828125,19.0546875 L60.828125,20.5 L64.0546875,20.5 C62.9817708,21.2604167 61.90625,21.6770833 60.828125,21.75 L60.828125,21.75 L60.828125,23.203125 C61.5364583,23.1145833 62.0416667,23.03125 62.34375,22.953125 L62.34375,22.953125 L62.3515625,24.21875 C62.3515625,25.15625 62.8385417,25.625 63.8125,25.625 L63.8125,25.625 L68.234375,25.625 Z M75.21875,25.625 L75.21875,24.1953125 C74.03125,24.1432292 72.875,23.7682292 71.75,23.0703125 L71.75,23.0703125 L75.1953125,23.078125 L75.1953125,21.703125 L70.015625,21.703125 C69.8802083,21.5520833 69.75,21.3802083 69.625,21.1875 L69.625,21.1875 L68.015625,21.1875 C68.1666667,21.5208333 68.296875,21.7786458 68.40625,21.9609375 C68.6145833,22.3046875 68.9088542,22.65625 69.2890625,23.015625 C70.3359375,24.0104167 71.515625,24.7317708 72.828125,25.1796875 C73.4375,25.3880208 74.234375,25.5364583 75.21875,25.625 L75.21875,25.625 Z M84.2890625,25.59375 C85.1171875,25.2916667 85.75,24.7239583 86.1875,23.890625 C86.4739583,23.34375 86.6588542,22.5963542 86.7421875,21.6484375 L86.7421875,21.6484375 L87.3203125,14.96875 L88.7109375,14.96875 C89.0598958,14.96875 89.3177083,15.0494792 89.484375,15.2109375 C89.65625,15.3776042 89.7421875,15.6770833 89.7421875,16.109375 L89.7421875,16.109375 L89.7421875,23.078125 C89.7421875,23.7708333 89.4322917,24.1171875 88.8125,24.1171875 L88.8125,24.1171875 L87.0390625,24.1171875 L87.0390625,25.5859375 L88.890625,25.5859375 C89.4166667,25.5859375 89.8072917,25.5234375 90.0625,25.3984375 C90.578125,25.1484375 90.9166667,24.7760417 91.078125,24.28125 C91.1510417,24.0677083 91.1875,23.78125 91.1875,23.421875 L91.1875,23.421875 L91.1875,15.5234375 C91.1875,14.8984375 90.9635417,14.3880208 90.515625,13.9921875 C90.1458333,13.6692708 89.6223958,13.5078125 88.9453125,13.5078125 L88.9453125,13.5078125 L87.453125,13.5078125 L87.5546875,12.34375 L86.0546875,12.34375 L85.9609375,13.5078125 L84.25,13.5078125 L84.25,14.96875 L85.828125,14.96875 L85.3046875,21.6484375 C85.2473958,22.3984375 85.0911458,22.9739583 84.8359375,23.375 C84.7317708,23.5416667 84.5494792,23.6979167 84.2890625,23.84375 L84.2890625,23.84375 L84.2890625,25.59375 Z M83.9453125,25.625 L83.9453125,24.1484375 L83.3125,24.1484375 L83.3125,14.0078125 C83.3125,13.4973958 83.2447917,13.1432292 83.109375,12.9453125 C82.8645833,12.5703125 82.421875,12.3828125 81.78125,12.3828125 L81.78125,12.3828125 L78.9453125,12.3828125 C78.3776042,12.3828125 77.9661458,12.5390625 77.7109375,12.8515625 C77.5130208,13.0859375 77.4140625,13.4713542 77.4140625,14.0078125 L77.4140625,14.0078125 L77.4140625,24.1484375 L76.7734375,24.1484375 L76.7734375,25.625 L83.9453125,25.625 Z M81.875,16.046875 L78.8515625,16.046875 L78.8515625,14.3515625 C78.8515625,13.9973958 79.0026042,13.8203125 79.3046875,13.8203125 L79.3046875,13.8203125 L81.2109375,13.8203125 C81.5026042,13.8203125 81.6927083,13.875 81.78125,13.984375 C81.84375,14.0625 81.875,14.1875 81.875,14.359375 L81.875,14.359375 L81.875,16.046875 Z M81.875,20.203125 L78.8515625,20.203125 L78.8515625,17.484375 L81.875,17.484375 L81.875,20.203125 Z M81.875,24.1484375 L78.8515625,24.1484375 L78.8515625,21.6484375 L81.875,21.6484375 L81.875,24.1484375 Z M107.234375,25.6171875 L107.234375,24.171875 L103.1875,24.171875 L103.1875,22.5 L106.945312,22.5 L106.945312,21.0546875 L103.1875,21.0546875 L103.1875,19.78125 L105.679688,19.7734375 C106.049479,19.7734375 106.356771,19.6484375 106.601562,19.3984375 C106.856771,19.1380208 106.984375,18.7890625 106.984375,18.3515625 L106.984375,18.3515625 L106.984375,13.75 C106.984375,13.2916667 106.864583,12.9479167 106.625,12.71875 C106.348958,12.4583333 105.893229,12.328125 105.257812,12.328125 L105.257812,12.328125 L99.25,12.328125 C98.828125,12.328125 98.4921875,12.453125 98.2421875,12.703125 C97.9765625,12.96875 97.84375,13.3645833 97.84375,13.890625 L97.84375,13.890625 L97.84375,18.125 C97.84375,18.3489583 97.8515625,18.5260417 97.8671875,18.65625 C97.8932292,18.8802083 97.9869792,19.09375 98.1484375,19.296875 C98.4088542,19.6145833 98.7630208,19.7734375 99.2109375,19.7734375 L99.2109375,19.7734375 L101.742188,19.78125 L101.742188,21.0546875 L97.9921875,21.0546875 L97.9921875,22.5 L101.742188,22.5 L101.742188,24.171875 L97.6015625,24.171875 L97.6015625,25.6171875 L107.234375,25.6171875 Z M96.84375,25.21875 L96.84375,23.7734375 L95.515625,23.7734375 L95.515625,19.265625 L96.84375,19.265625 L96.84375,17.8515625 L95.515625,17.8515625 L95.515625,14.1640625 L96.84375,14.1640625 L96.84375,12.71875 L92.796875,12.71875 L92.796875,14.1640625 L94.0703125,14.1640625 L94.0703125,17.8515625 L92.796875,17.8515625 L92.7890625,19.2734375 L94.0703125,19.265625 L94.0703125,23.7734375 L92.796875,23.7734375 L92.796875,25.21875 L96.84375,25.21875 Z M105.570312,15.3203125 L103.1875,15.3203125 L103.1875,13.7734375 L104.789062,13.7578125 C105.315104,13.7578125 105.575521,13.9635417 105.570312,14.375 L105.570312,14.375 L105.570312,15.3203125 Z M101.742188,15.3203125 L99.2890625,15.3203125 L99.2890625,14.375 C99.2890625,14.15625 99.328125,14.0078125 99.40625,13.9296875 C99.5104167,13.8255208 99.671875,13.7734375 99.890625,13.7734375 L99.890625,13.7734375 L101.742188,13.7734375 L101.742188,15.3203125 Z M101.742188,18.3125 L99.8515625,18.3125 C99.6380208,18.3125 99.4921875,18.265625 99.4140625,18.171875 C99.3307292,18.078125 99.2890625,17.890625 99.2890625,17.609375 L99.2890625,17.609375 L99.2890625,16.7578125 L101.742188,16.7578125 L101.742188,18.3125 Z M104.929688,18.3125 L103.1875,18.3125 L103.1875,16.7578125 L105.570312,16.7578125 L105.570312,17.6484375 C105.575521,17.8932292 105.53125,18.0677083 105.4375,18.171875 C105.354167,18.265625 105.184896,18.3125 104.929688,18.3125 L104.929688,18.3125 Z" id="口袋助理" fill="#171725" fill-rule="nonzero"></path>
        </g>
    </g>
</svg>