<?xml version="1.0" encoding="UTF-8"?>
<svg width="101px" height="36px" viewBox="0 0 101 36" version="1.1" xmlns="http://www.w3.org/2000/svg" xmlns:xlink="http://www.w3.org/1999/xlink">
    <!-- Generator: Sketch 55.2 (78181) - https://sketchapp.com -->
    <title>编组 6</title>
    <desc>Created with Sketch.</desc>
    <g id="页面1" stroke="none" stroke-width="1" fill="none" fill-rule="evenodd">
        <g id="首页导航征信牌照" transform="translate(-370.000000, -12.000000)">
            <g id="编组-6" transform="translate(370.000000, 12.000000)">
                <g id="编组-2">
                    <path d="M14.9069149,0 C14.3510638,0 12.6835106,0.101408451 11.5212766,0.405633803 L1.81914894,3.24507042 C0.757978723,3.6 1.77635684e-15,4.10704225 1.77635684e-15,5.01971831 L1.77635684e-15,20.5859155 C0.555851064,26.9239437 4.09308511,31.1323944 9.19680851,34.2253521 C11.1170213,35.2394366 13.037234,35.8478873 14.9574468,35.8985915 C16.8776596,35.8478873 18.7473404,35.2394366 20.7180851,34.2253521 C25.7207447,31.1830986 29.3085106,26.9746479 29.8643617,20.6366197 L29.8643617,5.01971831 C29.8643617,4.05633803 29.106383,3.54929577 28.0452128,3.1943662 L18.2925532,0.405633803 C17.1808511,0.101408451 15.462766,0 14.9069149,0 Z" id="Shape" fill="#FDD000"></path>
                    <path d="M2.62765957,8.36619718 L2.62765957,8.46760563 L2.62765957,20.7887324 C3.08244681,26.0112676 6.01329787,29.4591549 10.2074468,32.0450704 C11.7739362,32.856338 13.3909574,33.3633803 14.9574468,33.4140845 C16.5239362,33.3633803 18.0904255,32.9070423 19.7074468,32.0450704 C22.2340426,30.5239437 24.3058511,28.6478873 25.6702128,26.2647887 L25.6702128,26.2647887 C25.7207447,26.2140845 25.7207447,26.1633803 25.7712766,26.1126761 L25.7712766,26.0619718 C25.8218085,26.0112676 25.8218085,25.9605634 25.8723404,25.9098592 L25.8723404,25.8591549 C25.9228723,25.8084507 25.9228723,25.7577465 25.9734043,25.7070423 L25.9734043,25.656338 C25.9734043,25.6056338 26.0239362,25.5549296 26.0239362,25.5042254 C26.0239362,25.4535211 26.0744681,25.4535211 26.0744681,25.4028169 L26.0744681,25.4028169 C26.0744681,25.3521127 26.125,25.3521127 26.125,25.3014085 C26.125,25.2507042 26.1755319,25.2507042 26.1755319,25.2 C26.1755319,25.1492958 26.2260638,25.1492958 26.2260638,25.0985915 C26.2260638,25.0478873 26.2765957,25.0478873 26.2765957,24.9971831 C26.2765957,24.9464789 26.3271277,24.9464789 26.3271277,24.8957746 C26.3271277,24.8450704 26.3776596,24.8450704 26.3776596,24.7943662 C26.3776596,24.743662 26.4281915,24.743662 26.4281915,24.6929577 C26.4281915,24.6422535 26.4787234,24.6422535 26.4787234,24.5915493 C26.4787234,24.5408451 26.4787234,24.5408451 26.5292553,24.4901408 C26.5292553,24.4394366 26.5797872,24.3887324 26.5797872,24.3380282 C26.5797872,24.3380282 26.5797872,24.2873239 26.6303191,24.2873239 C26.6303191,24.2366197 26.6808511,24.1859155 26.6808511,24.1352113 C26.6808511,24.1352113 26.6808511,24.084507 26.6808511,24.084507 C26.6808511,24.0338028 26.731383,23.9830986 26.731383,23.9323944 C26.731383,23.9323944 26.731383,23.8816901 26.731383,23.8816901 C26.731383,23.8309859 26.7819149,23.7802817 26.7819149,23.7295775 L26.7819149,23.6788732 C26.7819149,23.628169 26.8324468,23.5774648 26.8324468,23.5267606 L26.8324468,23.4760563 C26.8324468,23.4253521 26.8829787,23.3746479 26.8829787,23.3239437 L26.8829787,23.2732394 C26.8829787,23.2225352 26.9335106,23.171831 26.9335106,23.1211268 L26.9335106,23.0704225 C26.9335106,23.0197183 26.9840426,22.9690141 26.9840426,22.9183099 L26.9840426,22.8676056 C26.9840426,22.8169014 27.0345745,22.7661972 27.0345745,22.6647887 L27.0345745,22.6140845 C27.0345745,22.5633803 27.0851064,22.4619718 27.0851064,22.4112676 L27.0851064,22.3605634 C27.0851064,22.3098592 27.1356383,22.2084507 27.1356383,22.1577465 L27.1356383,22.1577465 C27.1356383,22.1070423 27.1356383,22.0056338 27.1861702,21.9549296 L27.1861702,21.9042254 C27.1861702,21.8535211 27.1861702,21.7521127 27.2367021,21.7014085 L27.2367021,21.6507042 C27.2367021,21.6 27.2367021,21.4985915 27.287234,21.4478873 L27.287234,21.3971831 C27.287234,21.3464789 27.287234,21.2450704 27.337766,21.1943662 L27.337766,21.1943662 C27.337766,21.143662 27.337766,21.0422535 27.337766,20.9915493 L27.337766,20.9915493 C27.337766,20.8901408 27.337766,20.8394366 27.337766,20.7380282 L27.337766,20.2816901 L27.337766,19.7746479 L26.8324468,19.7746479 L24.962766,19.7746479 L13.9973404,19.7746479 C13.7446809,19.7746479 13.4920213,19.9774648 13.4920213,20.2816901 L13.4920213,26.4169014 C13.4920213,26.6704225 13.6941489,26.9239437 13.9973404,26.9239437 L22.3351064,26.9239437 C21.375,28.0901408 20.1117021,29.0535211 18.7473404,29.915493 C17.4840426,30.5746479 16.1702128,30.9802817 14.9069149,31.0309859 C13.643617,30.9802817 12.3803191,30.6253521 11.0664894,29.915493 C7.68085106,27.8366197 5.30585106,25.0478873 4.95212766,20.8394366 L4.95212766,8.46760563 L4.95212766,8.36619718 L4.95212766,8.21408451 C4.95212766,7.75774648 5.45744681,7.30140845 6.31648936,7.09859155 L8.03457447,6.5915493 L8.03457447,24.743662 C8.03457447,25.1492958 8.1356383,25.4535211 8.33776596,25.7070423 L9.55053191,26.8225352 C10.0558511,27.2788732 10.4601064,26.9746479 10.4601064,26.0112676 L10.4601064,5.88169014 L13.643617,4.96901408 C13.9973404,4.86760563 14.1994681,4.66478873 14.25,4.25915493 L14.25,2.9915493 C14.25,2.43380282 13.7446809,2.43380282 13.037234,2.63661972 L4.29521277,5.17183099 C3.18351064,5.47605634 2.67819149,6.03380282 2.67819149,6.84507042 L2.67819149,8.36619718 L2.62765957,8.36619718 Z M16.8776596,2.58591549 L25.6196809,5.12112676 C26.731383,5.42535211 27.2367021,5.98309859 27.2367021,6.7943662 L27.2367021,7.85915493 C27.2367021,8.06197183 27.0851064,8.21408451 26.8829787,8.21408451 L25.0638298,8.21408451 C24.912234,8.21408451 24.8617021,8.21408451 24.8111702,8.06197183 C24.7606383,7.65633803 24.2553191,7.25070423 23.4468085,7.04788732 L16.2207447,4.96901408 C15.8670213,4.86760563 15.6648936,4.66478873 15.6143617,4.25915493 L15.6143617,2.9915493 C15.6648936,2.43380282 16.1702128,2.43380282 16.8776596,2.58591549 L16.8776596,2.58591549 Z M13.9973404,9.17746479 L26.7819149,9.17746479 C27.0345745,9.17746479 27.2367021,9.38028169 27.2367021,9.63380282 L27.2367021,11.0535211 C27.2367021,11.3070423 27.0345745,11.5098592 26.7819149,11.5098592 L13.9973404,11.5098592 C13.7446809,11.5098592 13.5425532,11.3070423 13.5425532,11.0535211 L13.5425532,9.63380282 C13.4920213,9.43098592 13.6941489,9.17746479 13.9973404,9.17746479 L13.9973404,9.17746479 Z M13.9973404,12.7774648 L26.7819149,12.7774648 C27.0345745,12.7774648 27.2367021,12.9802817 27.2367021,13.2338028 L27.2367021,14.6535211 C27.2367021,14.9070423 27.0345745,15.1098592 26.7819149,15.1098592 L13.9973404,15.1098592 C13.7446809,15.1098592 13.5425532,14.9070423 13.5425532,14.6535211 L13.5425532,13.2338028 C13.4920213,12.9802817 13.6941489,12.7774648 13.9973404,12.7774648 L13.9973404,12.7774648 Z M13.9973404,16.3267606 L26.7819149,16.3267606 C27.0345745,16.3267606 27.2367021,16.5295775 27.2367021,16.7830986 L27.2367021,18.2028169 C27.2367021,18.456338 27.0345745,18.6591549 26.7819149,18.6591549 L13.9973404,18.6591549 C13.7446809,18.6591549 13.5425532,18.456338 13.5425532,18.2028169 L13.5425532,16.7830986 C13.4920213,16.5295775 13.6941489,16.3267606 13.9973404,16.3267606 L13.9973404,16.3267606 Z M24.6595745,22.2591549 C24.5079787,23.1211268 24.2047872,23.8816901 23.9015957,24.6422535 L16.018617,24.6422535 C15.9175532,24.6422535 15.8670213,24.5915493 15.8670213,24.4901408 L15.8670213,22.4619718 C15.8670213,22.3605634 15.9175532,22.3098592 16.018617,22.3098592 L24.6595745,22.3098592 L24.6595745,22.2591549 Z" id="Shape" fill="#432107"></path>
                </g>
                <g id="编组-3" transform="translate(36.000000, 3.000000)" fill="#212121" fill-rule="nonzero">
                    <path d="M47.6819383,1.94871795 L53.7321586,1.94871795 L53.7321586,0.0608974359 L56.3409692,0.0608974359 L56.3409692,1.94871795 L62.3911894,1.94871795 L63.7788546,1.94871795 C64.4449339,1.94871795 65,2.55769231 65,3.28846154 L65,3.83653846 L65,5.72435897 L62.3911894,5.72435897 L62.3911894,3.83653846 L47.6819383,3.83653846 L47.6819383,5.72435897 L45.0731278,5.72435897 L45.0731278,3.83653846 L45.0731278,3.28846154 C45.1286344,2.55769231 45.6281938,1.94871795 46.2942731,1.94871795 L47.6819383,1.94871795 Z M62.3356828,17.0512821 L62.3356828,15.650641 L64.9444934,15.650641 L64.9444934,17.0512821 L64.9444934,17.599359 C64.9444934,18.3301282 64.3894273,18.9391026 63.723348,18.9391026 L62.3356828,18.9391026 L56.2854626,18.9391026 L53.676652,18.9391026 L45.0731278,18.9391026 L45.0731278,17.0512821 L53.676652,17.0512821 L53.676652,13.8846154 L45.0731278,13.8846154 L45.0731278,11.9967949 L53.676652,11.9967949 L53.676652,9.19551282 L45.0731278,9.19551282 L45.0731278,7.30769231 L64.8889868,7.30769231 L64.8889868,9.19551282 L56.2854626,9.19551282 L56.2854626,12.0576923 L64.8889868,12.0576923 L64.8889868,13.9455128 L56.2854626,13.9455128 L56.2854626,17.1121795 L62.3356828,17.1121795 L62.3356828,17.0512821 Z M25.1453744,19 L25.1453744,7.30769231 C24.3682819,7.91666667 23.5356828,8.34294872 22.5920705,8.58653846 L22.5365639,8.58653846 L22.5365639,5.72435897 C24.5348018,4.81089744 25.9779736,2.61858974 25.9779736,0.0608974359 L28.5867841,0.0608974359 C28.5867841,1.46153846 28.2537445,2.86217949 27.6986784,4.01923077 L27.6986784,18.9391026 L25.1453744,18.9391026 L25.1453744,19 Z M34.6370044,1.94871795 L34.6370044,0.0608974359 L37.245815,0.0608974359 L37.245815,1.94871795 L42.4079295,1.94871795 L42.4079295,3.83653846 L29.4748899,3.83653846 L29.4748899,1.94871795 L34.6370044,1.94871795 Z M42.4079295,5.72435897 L42.4079295,7.61217949 L29.4748899,7.61217949 L29.4748899,5.72435897 L42.4079295,5.72435897 Z M42.4079295,9.5 L42.4079295,11.3878205 L29.4748899,11.3878205 L29.4748899,9.5 L42.4079295,9.5 Z M39.7991189,17.0512821 L39.7991189,15.1634615 L32.0281938,15.1634615 L32.0281938,17.0512821 L39.7991189,17.0512821 Z M32.0281938,19 L30.6405286,19 C29.9744493,19 29.4193833,18.3910256 29.4193833,17.6602564 L29.4193833,17.1121795 L29.4193833,15.224359 L29.4193833,14.1891026 L29.4193833,13.3365385 L41.1312775,13.3365385 C41.7973568,13.3365385 42.3524229,13.9455128 42.3524229,14.6762821 L42.3524229,15.224359 L42.3524229,17.1121795 L42.3524229,19 L39.7991189,19 L32.0281938,19 Z M0,16.1378205 C1.05462555,14.5544872 1.72070485,12.6057692 1.72070485,10.474359 L1.72070485,1.88782051 L4.27400881,1.88782051 L9.49162996,1.88782051 L9.49162996,0 L12.1004405,0 L12.1004405,1.88782051 L17.2625551,1.88782051 L18.6502203,1.88782051 C19.3162996,1.88782051 19.8713656,2.49679487 19.8713656,3.2275641 L19.8713656,3.77564103 L19.8713656,6.63782051 L19.8713656,8.28205128 L19.8713656,8.52564103 L4.32951542,8.52564103 L4.32951542,10.4134615 C4.32951542,14.0064103 2.60881057,17.1730769 0,18.9391026 L0,16.1378205 Z M17.2625551,6.69871795 L17.2070485,6.69871795 L17.2070485,3.83653846 L4.27400881,3.83653846 L4.27400881,6.69871795 L17.2625551,6.69871795 Z M19.815859,13.2147436 L19.815859,16.9903846 L19.815859,18.5737179 L19.815859,18.9391026 L6.38325991,18.9391026 C5.71718062,18.9391026 5.16211454,18.3301282 5.16211454,17.599359 L5.16211454,17.0512821 L5.16211454,13.275641 L5.16211454,12.3012821 L5.16211454,11.3269231 L18.5947137,11.3269231 C19.260793,11.3269231 19.815859,11.9358974 19.815859,12.6666667 L19.815859,13.2147436 Z M17.2625551,16.9903846 L17.2625551,13.2147436 L7.77092511,13.2147436 L7.77092511,16.9903846 L17.2625551,16.9903846 Z" id="形状结合"></path>
                    <path d="M6.70715652,25.3116883 C6.70715652,26.0909091 6.45688949,26.7727273 5.95635542,27.3571429 L7.25774399,28.6233766 L6.40683608,29.4512987 L5.00534069,28.0876623 C4.50480662,28.3798701 3.95421914,28.525974 3.35357826,28.525974 C1.50160221,28.525974 -8.8817842e-15,27.0649351 -8.8817842e-15,25.262987 C-8.8817842e-15,23.5097403 1.50160221,22.0487013 3.35357826,22.0487013 C5.20555431,22.0487013 6.70715652,23.5097403 6.70715652,25.3116883 Z M1.25133517,25.3116883 C1.25133517,26.4318182 2.2023499,27.3571429 3.35357826,27.3571429 C4.50480662,27.3571429 5.45582135,26.4318182 5.45582135,25.3116883 C5.45582135,24.1428571 4.50480662,23.2662338 3.35357826,23.2662338 C2.2023499,23.2662338 1.25133517,24.1915584 1.25133517,25.3116883 Z M37.3551805,27.6980519 L37.3551805,29.3051948 L35.703418,29.3051948 L35.703418,27.6980519 L37.3551805,27.6980519 Z M11.8915189,24.0941558 L11.8915189,29.3051948 L10.2898098,29.3051948 L10.2898098,24.0941558 L11.8915189,24.0941558 Z M14.8234779,24.0941558 L16.6254006,24.0941558 L16.925721,24.5811688 C16.9757744,24.6785714 17.0758812,24.8246753 17.1259346,24.9220779 C17.175988,25.0681818 17.2760948,25.1655844 17.3261482,25.262987 C17.3762017,25.4090909 17.4763085,25.5064935 17.5263619,25.6525974 C17.5764153,25.5064935 17.6264687,25.4090909 17.7265755,25.262987 C17.7766289,25.1655844 17.8266823,25.0194805 17.9267891,24.9220779 C17.9768425,24.775974 18.0769494,24.6785714 18.1270028,24.5811688 L18.4273232,24.0941558 L20.129139,24.0941558 L18.4773766,26.5779221 L20.3794061,29.3538961 L18.52743,29.3538961 L18.1270028,28.6720779 C18.0769494,28.5746753 17.9768425,28.4285714 17.9267891,28.2824675 C17.8767357,28.1363636 17.7766289,28.038961 17.7265755,27.8928571 C17.6765221,27.7467532 17.5764153,27.6006494 17.5263619,27.4545455 L17.3261482,27.8928571 C17.2760948,27.9902597 17.175988,28.1363636 17.1259346,28.2824675 C17.0758812,28.4285714 16.9757744,28.525974 16.925721,28.6720779 L16.4752403,29.3538961 L14.7233711,29.3538961 L16.5252937,26.5779221 L14.8234779,24.0941558 Z M24.6127537,22 L24.6127537,23.3636364 L23.0110447,23.3636364 L23.0110447,22 L24.6127537,22 Z M24.6127537,24.0941558 L24.6127537,29.3051948 L23.0110447,29.3051948 L23.0110447,24.0941558 L24.6127537,24.0941558 Z M29.9472763,24.1428571 C30.2475967,23.9967532 30.5479171,23.8993506 30.9483444,23.8993506 C31.5489853,23.8993506 31.9994659,24.0941558 32.3498398,24.4350649 C32.7002136,24.775974 32.8503738,25.262987 32.8503738,25.8474026 L32.8503738,29.3051948 L31.2486648,29.3051948 L31.2486648,26.1396104 C31.2486648,25.8474026 31.148558,25.6038961 30.9983978,25.4577922 C30.8482376,25.262987 30.5979705,25.2142857 30.3477035,25.2142857 C30.0473831,25.2142857 29.797116,25.3116883 29.5969024,25.5551948 C29.3966888,25.75 29.296582,26.0422078 29.296582,26.3831169 L29.296582,29.3051948 L27.6948729,29.3051948 L27.6948729,24.0941558 L29.2465286,24.0941558 L29.2465286,24.8733766 C29.4467422,24.5811688 29.6469558,24.3376623 29.9472763,24.1428571 Z M42.0178168,29.3051948 C41.6674429,29.1590909 41.3671225,28.9642857 41.1168555,28.7207792 C40.8665884,28.4772727 40.6663748,28.1850649 40.566268,27.8441558 C40.4161078,27.5032468 40.3660544,27.1623377 40.3660544,26.724026 C40.3660544,26.3344156 40.4161078,25.9448052 40.566268,25.6038961 C40.7164282,25.262987 40.8665884,24.9707792 41.1168555,24.7272727 C41.3671225,24.4837662 41.6674429,24.288961 42.0178168,24.1428571 C42.3681906,23.9967532 42.7686179,23.9480519 43.1690451,23.9480519 C43.519419,23.9480519 43.8697928,23.9967532 44.1200599,24.0941558 C44.4203803,24.1915584 44.6706473,24.3376623 44.870861,24.4837662 C45.0710746,24.6785714 45.2712882,24.8733766 45.371395,25.1168831 C45.5215553,25.3603896 45.6216621,25.6038961 45.6216621,25.8961039 L44.0700065,25.8961039 C44.0199531,25.6525974 43.9198462,25.4577922 43.769686,25.3116883 C43.6195258,25.1655844 43.4193122,25.1168831 43.1189917,25.1168831 C42.7185645,25.1168831 42.418244,25.262987 42.2180304,25.5551948 C42.0178168,25.8474026 41.91771,26.237013 41.91771,26.724026 C41.91771,27.211039 42.0178168,27.6006494 42.2180304,27.8928571 C42.418244,28.1850649 42.7185645,28.3311688 43.1189917,28.3311688 C43.4193122,28.3311688 43.6695792,28.2337662 43.8197394,28.0876623 C43.9698996,27.9415584 44.1200599,27.6980519 44.1200599,27.4058442 L45.6717155,27.4058442 C45.6717155,27.6980519 45.5716087,27.9902597 45.4715019,28.2337662 C45.371395,28.4772727 45.1711814,28.7207792 44.9709678,28.9155844 C44.7707542,29.1103896 44.4704337,29.2564935 44.1701133,29.3538961 C43.9198462,29.4512987 43.5694724,29.5 43.1690451,29.5 C42.7185645,29.5 42.3681906,29.4512987 42.0178168,29.3051948 Z M49.9551165,29.3051948 C49.6047427,29.1590909 49.3044222,28.9642857 49.0541552,28.7207792 C48.8038881,28.4772727 48.6036745,28.1850649 48.4535143,27.8441558 C48.3033541,27.5032468 48.2533007,27.1623377 48.2533007,26.724026 C48.2533007,26.3344156 48.3033541,25.9448052 48.4535143,25.6038961 C48.6036745,25.262987 48.8038881,24.9707792 49.0541552,24.7272727 C49.3044222,24.4837662 49.6047427,24.288961 49.9551165,24.1428571 C50.3054903,23.9967532 50.7059176,23.9480519 51.1063449,23.9480519 C51.5568255,23.9480519 51.9071994,23.9967532 52.2575732,24.1428571 C52.6079471,24.288961 52.9082675,24.4837662 53.1585345,24.7272727 C53.4088016,24.9707792 53.6090152,25.262987 53.709122,25.6038961 C53.8592822,25.9448052 53.9093356,26.2857143 53.9093356,26.724026 C53.9093356,27.1136364 53.8592822,27.5032468 53.709122,27.8441558 C53.5589618,28.1850649 53.3587482,28.4772727 53.1585345,28.7207792 C52.9082675,28.9642857 52.6079471,29.1590909 52.2575732,29.3051948 C51.9071994,29.4025974 51.5067721,29.5 51.1063449,29.5 C50.6558642,29.5 50.3054903,29.4512987 49.9551165,29.3051948 Z M52.0073062,27.9415584 C52.2075198,27.6493506 52.3076266,27.2597403 52.3076266,26.724026 C52.3076266,26.237013 52.2075198,25.7987013 52.0073062,25.5064935 C51.8070926,25.2142857 51.5067721,25.0194805 51.1063449,25.0194805 C50.7059176,25.0194805 50.4055972,25.1655844 50.2053835,25.5064935 C50.0051699,25.7987013 49.9050631,26.237013 49.9050631,26.724026 C49.9050631,27.211039 50.0051699,27.6006494 50.2053835,27.9415584 C50.4055972,28.2824675 50.7059176,28.3798701 51.1063449,28.3798701 C51.5067721,28.3798701 51.8070926,28.2337662 52.0073062,27.9415584 Z M56.7912413,24.0941558 L58.3428969,24.0941558 L58.3428969,24.9220779 L58.3929503,24.9220779 C58.5931639,24.6298701 58.7933775,24.3863636 59.0436446,24.1915584 C59.2939116,24.0454545 59.6442855,23.9480519 59.9946593,23.9480519 C60.695407,23.9480519 61.1959411,24.288961 61.4962615,24.9220779 C61.6964751,24.5811688 61.9967956,24.288961 62.2470626,24.1428571 C62.5473831,23.9967532 62.8477035,23.8993506 63.1980774,23.8993506 C63.7987182,23.8993506 64.2491989,24.0941558 64.5495193,24.4350649 C64.8498398,24.775974 65,25.262987 65,25.8474026 L65,29.3051948 L63.398291,29.3051948 L63.398291,26.0909091 C63.398291,25.7987013 63.3482376,25.5551948 63.1980774,25.4090909 C63.0479171,25.262987 62.8477035,25.1655844 62.5974365,25.1655844 C62.297116,25.1655844 62.0969024,25.262987 61.9467422,25.4577922 C61.796582,25.6525974 61.6964751,25.9448052 61.6964751,26.2857143 L61.6964751,29.3051948 L60.0947661,29.3051948 L60.0947661,26.0909091 C60.0947661,25.7987013 60.0447127,25.5551948 59.8945525,25.4090909 C59.7443923,25.262987 59.5441787,25.1655844 59.2939116,25.1655844 C58.9935912,25.1655844 58.7933775,25.262987 58.5931639,25.4577922 C58.4430037,25.6525974 58.3428969,25.9448052 58.3428969,26.2857143 L58.3428969,29.3051948 L56.7411879,29.3051948 L56.7411879,24.0941558 L56.7912413,24.0941558 Z M11.8915189,22 L11.8915189,23.3636364 L10.2898098,23.3636364 L10.2898098,22 L11.8915189,22 Z" id="形状结合"></path>
                </g>
            </g>
        </g>
    </g>
</svg>