<svg id="图层_1" data-name="图层 1" xmlns="http://www.w3.org/2000/svg" viewBox="0 0 162.56 50"><defs><style>.cls-1{fill:#26b6b6;}</style></defs><path class="cls-1" d="M73.39,48.11H98.64v-7.3H73.39Zm3-4.73H95.46v2H76.39Zm35.66,4.73h18.29V36.34H112.05Zm3.09-9h12.28v6.27H115.14ZM139.54,26H159.3v2.23h3.09v-5H151.74l-.52-1.54-3.09.6.34.94H136.53v5h3ZM88.68,22.34l-3.1.6.52,1.11H76.82l.6-1.11-3.09-.52-2.49,5,1.72.34V39.18H98.81V36.6H88.16V35.05H98.3V32.47H88.16V30.93H98.3V28.35H88.16V26.89H99V24.23H89.54ZM85.33,36.6H76.65V35.05h8.68Zm0-4.21H76.65V30.84h8.68Zm0-4.21H76.65V26.72h8.68ZM151,45.36V40h10.4V37.46H151V33.25H162.3V30.5H136.7v2.66H148v4.21H137.65V40H148v5.32h-11.6v2.67h26.12V45.27ZM107.84,26l22.76-.34V23l-25.77.35v17.7l-1,6.7,3,.34,1-6V32.3h23.71V29.64H107.84Z"/><path class="cls-1" d="M151,45.36V40h10.4V37.46H151V33.25H162.3V30.5H136.79v2.66h11.34v4.21h-10.4V40h10.4v5.32H136.44v2.67h26.12V45.27ZM139.54,26H159.3v2.23h3.09v-5H151.74l-.52-1.54-3.09.6.34.94H136.53v5h3ZM73.3,48H98.56v-7.3H73.3Zm3.09-4.64H95.55v2H76.39Zm12.29-21-3.1.6.52,1.11H76.82l.6-1.11-3.09-.52-2.49,5,1.72.34V39.18H98.81V36.6H88.16V35.05H98.3V32.47H88.16V30.93H98.3V28.35H88.16V26.89H99V24.23H89.54ZM85.33,36.6H76.65V35.05h8.68Zm0-4.21H76.65V30.84h8.68Zm0-4.21H76.65V26.72h8.68ZM107.75,26l22.77-.34V23l-25.78.35v17.7l-.94,6.7,3,.34,1-6V32.3h23.71V29.64H107.84ZM112,48h18.3V36.34H112Zm3.18-8.93h12.28v6.27H115.14Z"/><path class="cls-1" d="M156.63,40.81l3.87,3-2.06.95-4-3Z"/><path class="cls-1" d="M53.8,20h0A1.84,1.84,0,0,1,52,18.13c.26-8-7.73-8.42-8.07-8.42A1.72,1.72,0,0,1,42.2,7.82,1.76,1.76,0,0,1,44.09,6.1C48.21,6.27,56,9,55.69,18.3A2,2,0,0,1,53.8,20Z"/><path class="cls-1" d="M60.07,20a1.81,1.81,0,0,1-1.8-1.81c0-14.34-13.66-14.6-14.18-14.6a1.81,1.81,0,0,1-1.8-1.81A1.87,1.87,0,0,1,44.09,0h0c.43,0,7.9.09,13.06,5.24C60.33,8.42,62,12.8,62,18.3A2,2,0,0,1,60.07,20Zm-9.71,7.13h0a19.31,19.31,0,0,0-37.89,0h-.34A11.45,11.45,0,1,0,10.76,50H26.31V41.67a11.91,11.91,0,0,1-5.85-15.9,12.24,12.24,0,0,1,3.44-4.38c.09,0,2.41-.51,2.41,1.72v8.25s.51,1.54,1.89,1.54h6.53s1.63-.34,1.63-1.71V23s.69-2.75,3.09-1.2a12,12,0,0,1,.86,16.93,13.25,13.25,0,0,1-4,2.92v8.24H50.62a11.38,11.38,0,0,0-.26-22.76Z"/></svg>