<svg xmlns="http://www.w3.org/2000/svg" viewBox="0 0 212.82 68.08"><defs>
  <style>.cls-1{fill:#898989;}.cls-2{fill:#0095fa;}</style>
</defs><title>资源 1</title><g id="图层_2" data-name="图层 2"><g id="图层_2-2" data-name="图层 2"><path d="M101.42,45.48H113.5c5.72,0,8.69-3.38,8.69-9.1V4.68A9.25,9.25,0,0,0,117,6.5H86.61a9.21,9.21,0,0,0-5.23-1.82v31.7c0,5.72,3,9.1,8.69,9.1h11.35ZM91.05,40.26c-2.84,0-4.44-1.1-4.44-3.94V11.72H117v24.6c0,2.84-1.6,3.94-4.44,3.94H91.05Z"/><path d="M92.32,19.45a3,3,0,0,1,2.38-1.19h13.48L102,21l-5.23-2.56L94.71,21.8l2.61,1.27L97,23.2H89.62v3.92h6.15a8.69,8.69,0,0,0,4-.87c.28-.14,1-.48,2.07-.94l1.87.92a7.76,7.76,0,0,0,4.11.89h6V23.2h-7.17l6.85-3V14.34H94.7a7,7,0,0,0-5.52,2.75l-1.13,1.52L91.19,21Z"/><rect x="89.62" y="28.93" width="24.22" height="3.6"/><rect x="89.62" y="34.24" width="24.22" height="3.6"/><path d="M195,40.48V29.26h16V24H195V12.16h17V6.93H194.92l-1.31-3.42a5.65,5.65,0,0,0-4.35,3.42H172.81v5.23h17V24h-16v5.23h16V40.48H172v5.23h40.81V40.48Z"/><path d="M138.8,32.42l1.68-8h9.28V19.73h-8.3l.41-2h7.89V13.11h-6.92l.42-2h6.5V6.5h-5.53l.38-1.82c0-.13-3.93,0-5.72,1.82H130c-1.83,0-2.41.67-2.41.67v4.62a4.37,4.37,0,0,1,2.45-.64h7.86l-.41,2H130a2.78,2.78,0,0,0-2.41.9v4.4a4.37,4.37,0,0,1,2.45-.64h6.48l-.41,2H130a2.6,2.6,0,0,0-2.41,1.13V25.7a3.15,3.15,0,0,1,2.45-1.31h5.09l-.58,2.8h-3.1a4,4,0,0,0-3.86,3.72V45.49h5.23V34.11c0-1.16.6-1.69,1.89-1.69Z"/><path d="M156.81,9.9h1.77a4.51,4.51,0,0,1,4.5,4.5v4.76h-4.2v5.23h9.43v-10a9.75,9.75,0,0,0-9.73-9.73h-7v19.7h5.23Z"/><path d="M158.65,40.26h-4.86v5.22h4.86a9.78,9.78,0,0,0,9.77-9.76V27.19H149.76V26h-5.23v1.15h-2.18l-.87,5.23h3.05V45.49h5.23V32.42h13.43v3.3A4.55,4.55,0,0,1,158.65,40.26Z"/><path class="cls-1" d="M85.59,51.07H83v3.45H81.38v2H83v3.84a4.1,4.1,0,0,0,.71,2.7,3,3,0,0,0,2.38.81H88v-2H87a1.3,1.3,0,0,1-1.15-.46,3.22,3.22,0,0,1-.21-1.5V56.52H88v-2H85.59Z"/><path class="cls-1" d="M95.81,61.87H93.4a1.24,1.24,0,0,1-.92-.35,1.41,1.41,0,0,1-.33-1v-6H89.6v5.74a3.65,3.65,0,0,0,1,2.86,2.47,2.47,0,0,0,1,.58,6.64,6.64,0,0,0,1.69.17h5.07V54.52H95.81Z"/><path class="cls-1" d="M108.17,55a5.63,5.63,0,0,0-2.43-.46h-2.27V51.07H100.9v12.8h4.18a9.76,9.76,0,0,0,2-.15,4.1,4.1,0,0,0,1.35-.55,4.46,4.46,0,0,0,2-4.1,5.75,5.75,0,0,0-.4-2.15A3.88,3.88,0,0,0,108.17,55Zm-1,6.14a2.23,2.23,0,0,1-1.83.75h-1.9V56.52h1.9c1.63,0,2.44.88,2.44,2.63A3.21,3.21,0,0,1,107.2,61.12Z"/><path class="cls-1" d="M119.34,54.75a4.78,4.78,0,0,0-.9-.18c-.29,0-.83,0-1.61,0h-4.34v2h4.34a2.48,2.48,0,0,1,1.56.34,1.72,1.72,0,0,1,.4,1.33h-3.15a7,7,0,0,0-2.17.23,2.29,2.29,0,0,0-1.2,1,3.2,3.2,0,0,0-.45,1.68A2.62,2.62,0,0,0,113,63.42a2.55,2.55,0,0,0,1,.36,14.87,14.87,0,0,0,2,.09h5.41V58.61C121.44,56.58,120.76,55.29,119.34,54.75Zm-.55,7.12h-3a2.19,2.19,0,0,1-1.08-.19.69.69,0,0,1-.32-.63.84.84,0,0,1,.26-.64,1,1,0,0,1,.7-.23h3.4Z"/><path class="cls-1" d="M130.41,54.69a6.62,6.62,0,0,0-1.7-.17h-5v9.35h2.57V56.52h2.23a1.36,1.36,0,0,1,1,.31,1.32,1.32,0,0,1,.31,1v6h2.57V58.11a3.7,3.7,0,0,0-1-2.84A2.7,2.7,0,0,0,130.41,54.69Z"/><path class="cls-1" d="M137.28,54.71a4,4,0,0,0-1.3.62,4.4,4.4,0,0,0-1.71,3.86,4.75,4.75,0,0,0,1.41,3.64,3.51,3.51,0,0,0,1.33.8,6.16,6.16,0,0,0,1.87.24h2.36a1.56,1.56,0,0,1-.26,1.06,1.64,1.64,0,0,1-1.1.26H135.1v2h5.12A6.08,6.08,0,0,0,142,67a2.21,2.21,0,0,0,1.06-.74,2.87,2.87,0,0,0,.53-1,5,5,0,0,0,.18-1.4V54.52H139A6.42,6.42,0,0,0,137.28,54.71Zm4,1.81v5.35h-2a2.23,2.23,0,0,1-1.75-.68,2.92,2.92,0,0,1-.61-2c0-1.79.75-2.68,2.23-2.68Z"/><polygon class="cls-1" points="145.66 56.52 151.07 56.52 145.66 61.93 145.66 63.87 154.46 63.87 154.46 61.87 149.05 61.87 154.46 56.46 154.46 54.52 145.66 54.52 145.66 56.52"/><path class="cls-1" d="M163.45,54.71a6.77,6.77,0,0,0-1.83-.19H159V51.07h-2.57v12.8H159V56.52h2.09a2,2,0,0,1,1.46.42,1.11,1.11,0,0,1,.28.55,5.24,5.24,0,0,1,.07,1.06v5.32h2.57V58.05a3.52,3.52,0,0,0-.88-2.7A2.44,2.44,0,0,0,163.45,54.71Z"/><path class="cls-1" d="M174,61.87h-2.42a1.23,1.23,0,0,1-.91-.35,1.41,1.41,0,0,1-.33-1v-6h-2.56v5.74a3.69,3.69,0,0,0,1,2.86,2.57,2.57,0,0,0,1.06.58,6.59,6.59,0,0,0,1.69.17h5.06V54.52H174Z"/><rect class="cls-1" x="178.78" y="61.37" width="2.32" height="2.49"/><path class="cls-1" d="M193.27,63.79h-2.82V58q0-1.8-2-1.8h-1.62v7.55H184V54.44h5.4q4-.06,3.84,3.36Z"/><path class="cls-1" d="M205,60.08h-7.19c.28,1.44,1.32,2.2,3.12,2.27a5.49,5.49,0,0,0,4-1.79v1.91a6.16,6.16,0,0,1-4.55,1.62q-5.16-.18-5.4-4.67.12-4.86,5-5Q205.08,54.32,205,60.08Zm-7.13-1.8h4.37c0-1.32-.77-2-2.21-2A2,2,0,0,0,197.83,58.28Z"/><path class="cls-1" d="M206.1,56.48v-1.8h1.62V50.84h2.82v3.84h2.1v1.8h-2.1v4.38c0,1,.34,1.4,1.14,1.31a2.68,2.68,0,0,0,1.14-.41v1.55a3.35,3.35,0,0,1-2.16.72q-3,.06-2.94-2.87V56.48Z"/><path class="cls-2" d="M58.41,0H9.67A9.67,9.67,0,0,0,0,9.67V58.41a9.67,9.67,0,0,0,9.67,9.67H58.41a9.67,9.67,0,0,0,9.67-9.67V9.67A9.67,9.67,0,0,0,58.41,0ZM57.26,38.17a10.86,10.86,0,0,1-1,4.93,8.3,8.3,0,0,1-1.49,2.09A8.7,8.7,0,0,1,52.6,46.8a11.77,11.77,0,0,1-2.77,1,15,15,0,0,1-3.42.36,12.89,12.89,0,0,1-5.95-1.23,8.64,8.64,0,0,1-3.62-3.34,8.84,8.84,0,0,1-1-2.48,13.36,13.36,0,0,1-.31-2.95V25.69h-9V48.17H24A4.18,4.18,0,0,1,19.84,44V25.69h-9V24.08A4.16,4.16,0,0,1,15,19.92h16.4a4.18,4.18,0,0,1,4.18,4.18v1.59h2.38a4.15,4.15,0,0,1,4.15,4.15v7.74a10.52,10.52,0,0,0,.16,1.92,4.72,4.72,0,0,0,.46,1.33,3,3,0,0,0,1.41,1.36,5.78,5.78,0,0,0,4.68,0,3.18,3.18,0,0,0,1.43-1.53,6.68,6.68,0,0,0,.5-2.91V29.87a4.18,4.18,0,0,1,4.18-4.18h2.35Z"/></g></g></svg>
