<svg id="图层_1" data-name="图层 1" xmlns="http://www.w3.org/2000/svg" viewBox="0 0 493.79 90.46"><defs><style>.cls-1{fill:#0580ff;}.cls-2{fill:#00d995;}.cls-3{fill:#091b34;}.cls-4{fill:#4f4e56;}</style></defs><title>2022增长超人logo</title><path class="cls-1" d="M86,82.1a8,8,0,0,1-4.22,7,8.69,8.69,0,0,1-4.32,1.13H63l6.6-11.42.73-1.29,0,0a8.46,8.46,0,0,1,2.17-2.09A8.83,8.83,0,0,1,77.44,74,8.35,8.35,0,0,1,86,82.1Z"/><ellipse class="cls-2" cx="25.72" cy="8.16" rx="8.55" ry="8.15"/><path class="cls-3" d="M81,4.76a5.42,5.42,0,0,1,.62-1.07Z"/><path class="cls-2" d="M71.65,0,61,18.45l-4.57,7.93c-.77,1.32-1.47,2.68-2.29,4a6.17,6.17,0,0,1-2.23,2.17,9.72,9.72,0,0,1-2.6,1.13,8.89,8.89,0,0,1-5.56-.23,8.26,8.26,0,0,1-5.07-8.9,15.2,15.2,0,0,1,2-4.54L49,5.68c1-1.76,2.13-3.61,3.9-4.6A10.91,10.91,0,0,1,58,.06C62.52-.08,67.09.08,71.65,0Z"/><path class="cls-1" d="M103.16,0s-7.84,13.5-7.82,13.53l-1.81,3.13L77.41,44.61c-1.74,3-4.27,5-7.91,5A8.35,8.35,0,0,1,61,41.49a7.83,7.83,0,0,1,.67-3.17v0l.84-1.45L81,4.76l.62-1.07a8.56,8.56,0,0,1,1.25-1.44A8.75,8.75,0,0,1,88.77,0Z"/><path class="cls-1" d="M31.51,90.25l6.43-11.16,1-1.75,2.17-3.76,7-12.18c0-.16.28-.48.36-.62l.39-.67a5.36,5.36,0,0,1,.7-1,8.2,8.2,0,0,1,1.8-1.52,8.93,8.93,0,0,1,4.7-1.33,8.83,8.83,0,0,1,2.68.41,8.2,8.2,0,0,1,5.86,7.74c0,.31,0,.62-.05.92a7.8,7.8,0,0,1-.76,2.54l0,.06-.52.9-2.76,4.76-.69,1.2a.92.92,0,0,0-.18.32L53.71,85.4,53,86.66a0,0,0,0,0,0,0,8.68,8.68,0,0,1-7.09,3.58Z"/><path class="cls-2" d="M0,90.25,6.46,79.07l1-1.71a6.13,6.13,0,0,1,.45-.54l-.08-.11,1.82-3.13L25.75,45.65l.9-1.56a8.67,8.67,0,0,1,7-3.46,8.36,8.36,0,0,1,8.55,8.14,7.8,7.8,0,0,1-.68,3.17s0,0,0,0l-.83,1.45L29,73.58l-.59,1a1,1,0,0,0-.41.71L22.15,85.5l-.62,1.08A8.55,8.55,0,0,1,20.27,88a8.75,8.75,0,0,1-5.88,2.24Z"/><path class="cls-4" d="M493.79,85.4a5.06,5.06,0,0,1-7.59,4.38c-.13-.06-1-.55-5.55-4.54a127,127,0,0,1-11.54-12,117.85,117.85,0,0,1-12.84-18.44,79.75,79.75,0,0,1-8.47-22c-.22.92-.58,2.41-1.18,4.83A93.08,93.08,0,0,1,441,52.79a87.61,87.61,0,0,1-11.89,18.65,71.32,71.32,0,0,1-20,16.59.77.77,0,0,1-.23.09h0a4.5,4.5,0,0,1-2.14.54,4.58,4.58,0,0,1-4.58-4.59,4.77,4.77,0,0,1,.14-1.15,4.53,4.53,0,0,1,1.28-2.16,27.15,27.15,0,0,1,3.16-2.05c1.22-.86,2.42-1.75,3.61-2.64a81.8,81.8,0,0,0,12.23-12,84.06,84.06,0,0,0,12.65-20.85c3.75-8.46,6.08-18.72,6.9-30.5V4.88c0-.11,0-.21,0-.31a4.85,4.85,0,0,1,9.7.31v7.17c0,.23.18,1.51,1.3,7.18a120.74,120.74,0,0,0,5.48,17.85,110.65,110.65,0,0,0,12,22.61A88.54,88.54,0,0,0,491.28,81a.91.91,0,0,1,.24.18A5.06,5.06,0,0,1,493.79,85.4Z"/><path class="cls-4" d="M298.81,85.3a.84.84,0,0,1-.09.27Z"/><path class="cls-4" d="M226.22,2.69a2.28,2.28,0,0,0-.2.45,9.93,9.93,0,0,0-.44,1.43A4.21,4.21,0,0,1,226.22,2.69Z"/><path class="cls-4" d="M229,.72a6.09,6.09,0,0,0-1.76.8A4.56,4.56,0,0,1,229,.72Z"/><path class="cls-4" d="M279.82,5.22h0l-.54.38A4.51,4.51,0,0,1,279.82,5.22Z"/><path class="cls-4" d="M286.5,9a4.72,4.72,0,0,1-.92,2.77,10.53,10.53,0,0,1-2.3,1.83c-.87.64-1.75,1.28-2.64,1.9-3.54,2.5-7.19,4.86-10.9,7.09a219.64,219.64,0,0,1-21.43,11.26,8.49,8.49,0,0,1-4.05,1.08,4.25,4.25,0,0,1-3.17-6.66A8.84,8.84,0,0,1,245,25.61a172.94,172.94,0,0,0,32.76-19,9.14,9.14,0,0,1,3.71-1.94,4.47,4.47,0,0,1,4.47,2.13A4.41,4.41,0,0,1,286.5,9Z"/><path class="cls-4" d="M254.28,79.25a3.36,3.36,0,0,1-.56.31C254,79.44,254.14,79.33,254.28,79.25Z"/><path class="cls-4" d="M299,84.07a4.51,4.51,0,0,1-.18,1.23l-.09.27a4.29,4.29,0,0,1-4,2.79h-.09a7.3,7.3,0,0,1-1.47-.17,52.76,52.76,0,0,1-5-2.08,74.94,74.94,0,0,1-11.76-6.89,78.57,78.57,0,0,1-14.28-13.1,75.92,75.92,0,0,1-12.36-20.41H234.29V80s7.87-3.92,15.07-8.28a5,5,0,0,1,.5-.27h0a4.35,4.35,0,0,1,1.8-.45h.17a3.91,3.91,0,0,1,.49,0,3.83,3.83,0,0,1,.59.1,4.65,4.65,0,0,1,1.26.52,4.51,4.51,0,0,1,.12,7.62s0,0,0,0-.32.19-.56.31c-.89.49-2.49,1.36-5.41,2.9-4,2.12-8.49,4.38-13.37,6.69l-.19.1h0l-.27.12a6.51,6.51,0,0,1-5.88-.52,1.18,1.18,0,0,1-.19-.11l-.15-.11a6.49,6.49,0,0,1-2.71-5.28c0-.28,0-1.1,0-1.1V45.71l-12.48,0h-.28A4.36,4.36,0,0,1,209,43.42a4.21,4.21,0,0,1-.5-1.69c0-.08,0-.34,0-.38A4.36,4.36,0,0,1,212.81,37h12.76V5.32h0a3,3,0,0,1,0-.31,3.11,3.11,0,0,1,0-.43A9.93,9.93,0,0,1,226,3.14a2.28,2.28,0,0,1,.2-.45,4.28,4.28,0,0,1,1.05-1.15s0,0,0,0A6.09,6.09,0,0,1,229,.72h0a4.94,4.94,0,0,1,.87-.08,5.17,5.17,0,0,1,.57,0A4.36,4.36,0,0,1,234.29,5V37h60.2a4,4,0,0,1,1.05.13,4.36,4.36,0,0,1,3.32,4.23,3.66,3.66,0,0,1-.05.57.31.31,0,0,1,0,.09,4.35,4.35,0,0,1-.25.94l0,.08a4.37,4.37,0,0,1-4,2.68H259.65c.27.55.81,1.55,1.86,3.41A83.6,83.6,0,0,0,268.29,59,79.89,79.89,0,0,0,279.6,70.54,54.2,54.2,0,0,0,295,79.67l.28.11.13,0,.26.08A4.34,4.34,0,0,1,299,84.07Z"/><path class="cls-4" d="M234.74,89.47a1.42,1.42,0,0,1-.27.12Z"/><path class="cls-4" d="M390.84,49.53a8.7,8.7,0,0,0-3.31-2.82,10.83,10.83,0,0,0-4.9-1H359.4a14.56,14.56,0,0,0-5.25.74,7.55,7.55,0,0,0-1.62,1.12,9.09,9.09,0,0,0-2,3.49,16.53,16.53,0,0,0-.63,4.78V67.47a10.75,10.75,0,0,0,.83,4.21,8,8,0,0,0,2,2.78l0,0a7.78,7.78,0,0,0,1.91,1.17h0a14,14,0,0,0,4.61.62h23.14a17.68,17.68,0,0,0,4.68-.58l.41-.13a7.8,7.8,0,0,0,4.3-5.07,20.1,20.1,0,0,0,.27-3.6V55.42C392.1,52.68,391.69,50.75,390.84,49.53Zm-7,17.68a2,2,0,0,1-2,2H359.84a2,2,0,0,1-2-2V55.4a1.89,1.89,0,0,1,.12-.67,2,2,0,0,1,1.86-1.31H381a5.36,5.36,0,0,1,1.82.25,2.06,2.06,0,0,1,.68.6,2,2,0,0,1,.35,1.13Z"/><path class="cls-4" d="M345.51,19a3.85,3.85,0,0,1-.69.06l-.43,0H345A4,4,0,0,0,345.51,19Z"/><path class="cls-4" d="M353.4,15h0Z"/><path class="cls-4" d="M345.79,11.4a3.85,3.85,0,0,0-1-.12H345A2.64,2.64,0,0,1,345.79,11.4Z"/><path class="cls-4" d="M346.24,18.78a3,3,0,0,1-.45.15A3,3,0,0,0,346.24,18.78Z"/><path class="cls-4" d="M346.48,57.52a3.89,3.89,0,0,1-2.71,1.1A4.18,4.18,0,0,0,346.48,57.52Z"/><path class="cls-4" d="M396.42,84.14a4.37,4.37,0,0,1-.91,2.87,4.08,4.08,0,0,1-1.67,1.12h0l-.42.13h0a15.37,15.37,0,0,1-3.54.35c-.12,0-.46,0-2,0-1.93,0-5.8,0-13.6-.13-20.31-.25-41.75,0-55.24-17.76-.5,1.42-.9,2.52-1.2,3.28s-1.23,3-2.64,6.31a21.51,21.51,0,0,1-2.94,5.37h0a4,4,0,0,1-.84.75,4.62,4.62,0,0,1-3.32.72l-.4-.09h0A3.93,3.93,0,0,1,305,83.37a3.93,3.93,0,0,1,.43-1.81c0-.2.12-.39.18-.58.26-.71.79-1.88,1.62-3.57s1.8-3.89,3-6.65a46.89,46.89,0,0,0,2.69-9.6,58.62,58.62,0,0,0,1-10.27,31.66,31.66,0,0,1,.29-5h0a4.8,4.8,0,0,1,.1-.47v0a4,4,0,0,1,7.25-1,3.93,3.93,0,0,1,.56,2,2.82,2.82,0,0,1,0,.41,75.11,75.11,0,0,1-.44,8.48l-.46,4.95a39.22,39.22,0,0,0,3.63,6.17L327,68.94V37H310.81a3.83,3.83,0,0,1-2.75-1.11,3.92,3.92,0,0,1-1.16-2.75,3.71,3.71,0,0,1,1.16-2.86,3.86,3.86,0,0,1,2.75-1.21h16.07V19H313.59A3.62,3.62,0,0,1,311,18a3.9,3.9,0,0,1-1.17-2.69,3.6,3.6,0,0,1,1.07-2.88,3.68,3.68,0,0,1,2.66-1.16h13.29V5.33a4.09,4.09,0,0,1,.6-1.86,4.25,4.25,0,0,1,.58-.63,4.06,4.06,0,0,1,2.95-1A3.9,3.9,0,0,1,333.85,3a4.72,4.72,0,0,1,.7.93,3.89,3.89,0,0,1,.37,1.67v5.68h9.9a3.85,3.85,0,0,1,1,.12h0a4.11,4.11,0,0,1,2.68,3.73,3.69,3.69,0,0,1-1,2.76,3.58,3.58,0,0,1-1.25.88,3,3,0,0,1-.45.15l-.18,0-.1,0a4,4,0,0,1-.5,0H334.92v10h11.67a3.68,3.68,0,0,1,2.4,1.16,3.79,3.79,0,0,1,1.11,2.91A4,4,0,0,1,349,35.92a3.49,3.49,0,0,1-1.68,1l-.16,0-.14,0-.14,0-.45,0H335V50.78h8.76a3.91,3.91,0,0,1,3.69,2.62s0,.09.05.13a3.76,3.76,0,0,1,.2,1.22,3.59,3.59,0,0,1-1.16,2.7l-.07.07a4.18,4.18,0,0,1-2.71,1.1H335V74.79a33.13,33.13,0,0,0,5.37,2.6,29.43,29.43,0,0,0,8.06,1.89c3.29.37,7.26.6,11.81.66l14.39.09c5.79.13,9.92.11,12.29,0a42.52,42.52,0,0,1,5-.14C394,80,396.42,80.93,396.42,84.14Z"/><path class="cls-4" d="M394.26,20c-.19,4-.33,6.88-.42,8.52a44.8,44.8,0,0,1-1.52,7.76c-1,3.62-3.94,5.72-8.87,6.25-.42.08-1.77.14-8.13-.19a18,18,0,0,1-4.84-.77,5.53,5.53,0,0,1-1.5-.77h0a3.66,3.66,0,0,1-.77-.85l0,0a3.85,3.85,0,0,1-.61-2.58,3.9,3.9,0,0,1,5-3.31,6.45,6.45,0,0,0,1,.21c.29,0,.59.08.91.14a24.75,24.75,0,0,0,4.84.41c2.25-.11,3.81-.64,4.64-1.54s1.4-2.7,1.67-5.26a72.06,72.06,0,0,0,.43-7.23c-.07-1-.16-1.91-.28-2.77a3.21,3.21,0,0,0-.87-1.87,3.5,3.5,0,0,0-2.46-.67H373c-.61,2-1.17,3.81-1.7,5.48a39.22,39.22,0,0,1-6.65,12.41,53.23,53.23,0,0,1-4.94,5.6,58.11,58.11,0,0,1-5.3,4.45,12.64,12.64,0,0,1-3.82,2.16l-.16,0-.17,0-.13,0a4.77,4.77,0,0,1-.66,0,3.92,3.92,0,0,1-3.91-3.75v-.42s0-.1,0-.15a1.49,1.49,0,0,1,0-.21.74.74,0,0,0,0-.12v0a0,0,0,0,1,0,0,3.89,3.89,0,0,1,2.08-2.71l5.4-4.25a36.59,36.59,0,0,0,6-6.5,21.78,21.78,0,0,0,3.78-7.09l1.44-5H353.1a3.77,3.77,0,0,1-2.15-.8h0A3.82,3.82,0,0,1,352.11,8l.07,0a4.15,4.15,0,0,1,1.12-.16h31.3c2.67,0,4.69.55,6,1.65a10.89,10.89,0,0,1,2.89,3.48C394.14,14.18,394.39,16.49,394.26,20Z"/><path class="cls-4" d="M326.88,5.6v0Z"/><path class="cls-4" d="M199.25,80V64c.13-3.6-.71-6.33-2.51-8.13s-4.75-2.74-8.6-2.6H154.58c-4.18-.27-7.23.56-9.08,2.49s-2.42,4.58-2,8.24V80c-.39,3.47.27,6.12,1.94,7.87,1.84,1.92,4.92,2.75,9.17,2.48l35.39.05c3.13,0,5.5-.79,7.06-2.36C198.76,86.27,199.51,83.57,199.25,80Zm-47.1-15.29c0-2,.89-2.87,2.87-2.87h32.67c2,0,2.87.89,2.87,2.87v4H152.15Zm35.92,18.06H155c-2,0-2.87-.76-2.87-2.48v-4h38.41v4C190.56,82,189.79,82.75,188.07,82.75Z"/><path class="cls-4" d="M160.37,2.45s0,0,0,0v0h0a3.9,3.9,0,0,1,.52,1.43,4.2,4.2,0,0,0-.51-1.44Z"/><path class="cls-4" d="M201.16,38.51V20.64c-.27-4.62-3.13-7.09-8.5-7.36h-6.93c1.34-2.45,3.69-7,3.72-7.14a4.1,4.1,0,0,0-3.63-6,3.63,3.63,0,0,0-.87.1A4,4,0,0,0,182.37,2c0,.05-.12.19-.12.19s-.13.27-.2.4-3.9,6.89-6.06,10.68h-9.62c-2.51-4.76-4.46-8.28-5.94-10.75l-.05-.08a4.2,4.2,0,0,1,.51,1.44,3.9,3.9,0,0,0-.52-1.43h0v0a4.29,4.29,0,0,0-7.3-.17.56.56,0,0,0-.05.08,4.31,4.31,0,0,0-.23,4.13.75.75,0,0,0,.07.12c.06.11.12.22.19.33l.14.21c.9,1.38,2.1,3.44,3.57,6.15h-7.46c-5.64.27-8.5,2.76-8.5,7.39V38.51c-.13,3.25.63,5.72,2.25,7.35s4.32,2.47,7.8,2.34h40.62a18,18,0,0,0,1.88.11,7.9,7.9,0,0,0,5.67-1.9C200.7,44.79,201.43,42.13,201.16,38.51ZM167,40.63H150.78a2.54,2.54,0,0,1-2.1-.4,1.93,1.93,0,0,1-.33-1.65V23c0-.86.25-1.73,2.11-1.73H167Zm26.59-2.14c-.15,1-.53,2.14-2.11,2.14H175V21.22h16.16a2.23,2.23,0,0,1,2.49,2.15Z"/><path class="cls-4" d="M159.83,38.82a3.35,3.35,0,0,1-2-.69A4.08,4.08,0,0,0,159.83,38.82Z"/><path class="cls-4" d="M136.2,29.19h0Z"/><path class="cls-4" d="M153.18,7.13a3.71,3.71,0,0,1-.33-.54l.19.33Z"/><path class="cls-4" d="M190.81,26.82a4.12,4.12,0,0,1-.59,2.12c0,.1-3.83,5.95-5.1,8,0,0-.58.72-.88,1h0a4.08,4.08,0,1,1-6.09-5.44s5-7.7,5-7.79l0,0a4.11,4.11,0,0,1,7.6,2.15Z"/><path class="cls-4" d="M164.31,34.7a4.13,4.13,0,0,1-4.13,4.14l-.34,0h0a4.08,4.08,0,0,1-2-.69l0,0a5.68,5.68,0,0,1-1.23-1.33h0c0-.07-3.3-5.26-5.07-7.8a4.1,4.1,0,0,1-.89-2.51h0v-.1a4.13,4.13,0,0,1,4.13-4.14,4.31,4.31,0,0,1,3.65,2.21l5.11,7.86A7.37,7.37,0,0,1,164.31,34.7Z"/><path class="cls-4" d="M142.86,65a4.39,4.39,0,0,1-.9,2.65,6.08,6.08,0,0,1-.58.8l0,0a90.3,90.3,0,0,1-21,14.53,6.69,6.69,0,0,1-3.76.81,4.7,4.7,0,0,1-3-1.68,3.78,3.78,0,0,1-.62-1.94v-.14a3.86,3.86,0,0,1,.75-2.27,3.63,3.63,0,0,1,.84-.82c.7-.5,4.84-2.9,4.84-2.9L122.93,72V37.89h-5.8a4.35,4.35,0,0,1-.2-8.7h6V5.25a4.16,4.16,0,0,1,8.32,0V29.19h4.95a3.4,3.4,0,0,1,.45,0,4.35,4.35,0,0,1-.51,8.67h-4.89V65.82q1.41-1.2,3.61-3.41A4.53,4.53,0,0,1,137,61,4.35,4.35,0,0,1,142.86,65Z"/></svg>