<svg width="200" height="77" xmlns="http://www.w3.org/2000/svg" class="wsc-svg-logo-modao-group-zh-horizontal">
 <defs>
  <clipPath id="modao-group-zh-horizontal-clip0">
   <rect id="svg_1" x="0.199219" y="0.011963" fill="white" height="122.305" width="480.162"/>
  </clipPath>
  <clipPath id="modao-group-zh-horizontal-clip1">
   <rect id="svg_2" x="7.307831" y="7.429367" fill="white" height="64.8734" width="183.036"/>
  </clipPath>
 </defs>
 <g>
  <title>background</title>
  <rect fill="none" id="canvas_background" height="79" width="202" y="-1" x="-1"/>
 </g>
 <g>
  <title>Layer 1</title>
  <g id="svg_3" clip-path="url(#modao-group-zh-horizontal-clip0)">
   <g id="svg_30" clip-path="url(#modao-group-zh-horizontal-clip1)">
    <path id="svg_31" fill="#FF3333" d="m7.762816,35.811867l0,-27.8029c0,-0.3476 0.227,-0.5793 0.567,-0.5793l14.403,0c0.34,0 0.567,0.2317 0.567,0.5793l0,27.8029c0,0.3475 -0.227,0.5792 -0.567,0.5792l-14.403,0c-0.34,0 -0.567,-0.2317 -0.567,-0.5792z"/>
    <path id="svg_32" fill="#FF3333" d="m33.166816,35.811467l0,-27.8029c0,-0.3475 0.227,-0.5792 0.567,-0.5792l14.403,0c0.34,0 0.567,0.2317 0.567,0.5792l0,27.8029c0,0.3475 -0.227,0.5792 -0.567,0.5792l-14.403,0c-0.34,0 -0.567,-0.2317 -0.567,-0.5792z"/>
    <path id="svg_33" fill="#FF3333" d="m76.147816,7.429367c0.34,0 0.567,0.2317 0.567,0.5792l0,21.8948c0,2.2011 -0.113,4.2863 -0.454,6.4873c-2.154,15.9867 -12.247,29.3089 -26.083,35.9121c-0.34,0.1159 -0.68,0 -0.794,-0.3475l-5.897,-13.4381c-0.113,-0.3475 0,-0.6951 0.34,-0.8109c10.207,-4.8655 17.238,-15.5233 17.238,-27.8029l0,-21.8948c0,-0.3475 0.227,-0.5792 0.567,-0.5792l14.516,0z"/>
    <path id="svg_34" fill="#1C1C1C" d="m148.723816,7.892467l0,6.024c0,0.2317 0.226,0.4634 0.453,0.4634l10.66,0c-0.227,4.4021 -0.794,13.3222 -0.907,15.7549c-0.227,4.9814 -1.474,8.9201 -3.629,12.1638c-1.928,2.7803 -4.65,4.9814 -8.165,6.4874c-0.227,0.1158 -0.34,0.3475 -0.227,0.5792l2.495,5.4447c0.113,0.2317 0.34,0.3475 0.567,0.2317c9.413,-4.1704 14.97,-12.5113 15.65,-23.7483l0.907,-16.9134l17.465,0l0,39.7349c0,0.2317 0.226,0.4634 0.453,0.4634l5.897,0c0.227,0 0.454,-0.2317 0.454,-0.4634l0,-46.2223c0,-0.2317 -0.227,-0.4634 -0.454,-0.4634l-41.166,0c-0.227,0 -0.453,0.2317 -0.453,0.4634z"/>
    <path id="svg_35" fill="#1C1C1C" d="m136.248816,32.683367l-18.371,0l0,-2.0852l17.804,0c0.227,0 0.454,-0.2317 0.454,-0.4634l0,-3.707c0,-0.2317 -0.227,-0.4634 -0.454,-0.4634l-17.804,0l0,-2.0852l17.804,0c0.227,0 0.454,-0.2317 0.454,-0.4634l0,-15.5233c0,-0.2317 -0.227,-0.4634 -0.454,-0.4634l-41.279,0c-0.227,0 -0.454,0.2317 -0.454,0.4634l0,15.6391c0,0.2317 0.227,0.4634 0.454,0.4634l17.805,0l0,2.0853l-17.805,0c-0.227,0 -0.454,0.2316 -0.454,0.4633l0,3.7071c0,0.2317 0.227,0.4634 0.454,0.4634l17.805,0l0,2.0852l-18.485,0c-0.227,0 -0.454,0.2317 -0.454,0.4634l0,3.707c0,0.2317 0.227,0.4634 0.454,0.4634l42.413,0c0.227,0 0.454,-0.2317 0.454,-0.4634l0,-3.707c0.113,-0.3476 -0.114,-0.5793 -0.341,-0.5793zm-5.897,-13.2063l-12.474,0l0,-7.53l12.588,0l0,7.53l-0.114,0zm-30.732,0l0,-7.53l12.588,0l0,7.4141l-12.588,0l0,0.1159z"/>
    <path id="svg_36" fill="#1C1C1C" d="m117.878816,48.438367l18.145,0c0.227,0 0.454,-0.2317 0.454,-0.4634l0,-3.7071c0,-0.2317 -0.227,-0.4634 -0.454,-0.4634l-18.145,0l0,-4.9813c0,-0.2317 -0.227,-0.4634 -0.454,-0.4634l-4.763,0c-0.226,0 -0.453,0.2317 -0.453,0.4634l0,4.9813l-18.258,0c-0.227,0 -0.454,0.2317 -0.454,0.4634l0,3.7071c0,0.2317 0.227,0.4634 0.454,0.4634l18.144,0l0,1.6218l-19.505,0c-0.227,0 -0.454,0.2317 -0.454,0.4634l0,3.707c0,0.2317 0.227,0.4634 0.454,0.4634l44.795,0c0.227,0 0.453,-0.2317 0.453,-0.4634l0,-3.707c0,-0.2317 -0.226,-0.4634 -0.453,-0.4634l-19.506,0l0,-1.6218z"/>
    <path id="svg_37" fill="#1C1C1C" d="m107.556816,13.684767l-4.423,0c-0.113,0 -0.226,0.1158 -0.226,0.2316l0.68,3.7071c0,0.1158 0.113,0.2317 0.227,0.2317l4.423,0c0.113,0 0.226,-0.1159 0.226,-0.2317l-0.68,-3.7071c-0.113,-0.2316 -0.113,-0.2316 -0.227,-0.2316z"/>
    <path id="svg_38" fill="#1C1C1C" d="m126.385816,17.623467l0.68,-3.7071c0,-0.1158 -0.113,-0.2316 -0.227,-0.2316l-4.423,0c-0.113,0 -0.226,0.1158 -0.226,0.2316l-0.681,3.7071c0,0.1158 0.114,0.2317 0.227,0.2317l4.423,0c0.113,-0.1159 0.227,-0.1159 0.227,-0.2317z"/>
    <path id="svg_39" fill="#1C1C1C" d="m131.037816,42.646167l4.422,0c0.114,0 0.227,-0.1158 0.227,-0.2317l-0.68,-3.707c0,-0.1159 -0.114,-0.2317 -0.227,-0.2317l-4.536,0c-0.114,0 -0.227,0.1158 -0.227,0.2317l0.68,3.707c0.114,0.1159 0.227,0.2317 0.341,0.2317z"/>
    <path id="svg_40" fill="#1C1C1C" d="m122.415816,42.646167l4.423,0c0.114,0 0.227,-0.1158 0.227,-0.2317l-0.68,-3.707c0,-0.1159 -0.114,-0.2317 -0.227,-0.2317l-4.423,0c-0.113,0 -0.227,0.1158 -0.227,0.2317l0.681,3.707c0.113,0.1159 0.226,0.2317 0.226,0.2317z"/>
    <path id="svg_41" fill="#1C1C1C" d="m99.166816,42.414467l0.68,-3.707c0,-0.1159 -0.113,-0.2317 -0.227,-0.2317l-4.422,0c-0.114,0 -0.227,0.1158 -0.227,0.2317l-0.681,3.707c0,0.1159 0.114,0.2317 0.227,0.2317l4.423,0c0.113,0 0.227,-0.1158 0.227,-0.2317z"/>
    <path id="svg_42" fill="#1C1C1C" d="m107.783816,42.414467l0.68,-3.707c0,-0.1159 -0.113,-0.2317 -0.226,-0.2317l-4.423,0c-0.114,0 -0.227,0.1158 -0.227,0.2317l-0.68,3.707c0,0.1159 0.113,0.2317 0.226,0.2317l4.423,0c0.114,0 0.114,-0.1158 0.227,-0.2317z"/>
   </g>
  </g>
 </g>
</svg>