<?xml version="1.0" encoding="UTF-8"?>
<svg width="94px" height="24px" viewBox="0 0 94 24" version="1.1" xmlns="http://www.w3.org/2000/svg" xmlns:xlink="http://www.w3.org/1999/xlink">
    <!-- Generator: Sketch 56 (81588) - https://sketch.com -->
    <title>红@1x</title>
    <desc>Created with Sketch.</desc>
    <defs>
        <polygon id="path-1" points="0 23.1034848 93.2366688 23.1034848 93.2366688 -2.84217094e-14 0 -2.84217094e-14"></polygon>
    </defs>
    <g id="页面-1" stroke="none" stroke-width="1" fill="none" fill-rule="evenodd">
        <g id="首页2" transform="translate(-169.000000, -16.000000)">
            <g id="红" transform="translate(169.000000, 16.000000)">
                <path d="M52.5173616,11.9954736 L52.5173616,7.9010448 L58.652088,7.9010448 L58.652088,6.4818864 L43.9432752,6.4818864 L43.9432752,7.9010448 L50.0777904,7.9010448 L50.0777904,11.993256 C50.0776848,11.9976912 50.077368,12.0025488 50.0772624,12.0070896 L43.4582544,12.0070896 L43.4582544,13.4263536 L49.9040784,13.4263536 C49.4766096,15.4776336 48.0610416,18.3523824 43.4582544,19.6086 L43.4582544,21.07644 C47.9605104,20.3964816 50.1904656,18.0043248 51.297576,15.7792272 C52.4048976,18.0043248 54.6349584,20.3964816 59.1372144,21.07644 L59.1372144,19.6086 C54.5344272,18.3523824 53.118648,15.4776336 52.6911792,13.4263536 L59.1372144,13.4263536 L59.1372144,12.0070896 L52.5179952,12.0070896 C52.517784,12.0033936 52.5174672,11.9991696 52.5173616,11.9954736" id="Fill-1" fill="#DF0629"></path>
                <mask id="mask-2" fill="white">
                    <use xlink:href="#path-1"></use>
                </mask>
                <g id="Clip-4"></g>
                <polygon id="Fill-3" fill="#DF0629" mask="url(#mask-2)" points="78.0427296 7.900992 92.7514368 7.900992 92.7514368 6.4818336 78.0427296 6.4818336"></polygon>
                <path d="M93.2366794,13.2695798 L93.2366794,11.850527 L77.5576138,11.850527 L77.5576138,13.2695798 L80.458129,13.2695798 L78.4479274,19.2058838 C78.2974474,19.6504598 78.370945,20.1436118 78.6445546,20.525039 C78.9180586,20.9064662 79.3615786,21.1342454 79.8310762,21.1342454 L85.1328298,21.1342454 L86.071825,21.1342454 L91.334929,21.1342454 C91.8161482,21.1342454 92.265793,20.8975958 92.538241,20.5009622 C92.8107946,20.1049622 92.8706698,19.6000886 92.6983306,19.1512886 L91.2289066,15.3192758 L89.0901898,15.3192758 L90.6924586,19.4976566 L86.071825,19.4976566 L85.1328298,19.4976566 L80.4630922,19.4976566 L82.572241,13.2695798 L93.2366794,13.2695798 Z" id="Fill-5" fill="#DF0629" mask="url(#mask-2)"></path>
                <path d="M66.0851136,17.8713216 L70.7193696,17.8713216 L70.7193696,17.0705568 L66.0851136,17.0705568 L66.0851136,17.8713216 Z M66.0851136,16.1159328 L70.7193696,16.1159328 L70.7193696,15.315168 L66.0851136,15.315168 L66.0851136,16.1159328 Z M62.7391776,14.4121824 L67.5006816,14.4121824 L67.5006816,13.6665408 L62.7391776,13.6665408 L62.7391776,14.4121824 Z M62.7391776,12.9441312 L67.5006816,12.9441312 L67.5006816,12.1985952 L62.7391776,12.1985952 L62.7391776,12.9441312 Z M69.3040128,12.9441312 L74.0654112,12.9441312 L74.0654112,12.1985952 L69.3040128,12.1985952 L69.3040128,12.9441312 Z M69.3040128,14.4121824 L74.0654112,14.4121824 L74.0654112,13.6665408 L69.3040128,13.6665408 L69.3040128,14.4121824 Z M72.857136,18.8260512 L76.0327392,18.8260512 L76.0327392,17.8713216 L72.765264,17.8713216 L72.765264,17.0705568 L76.0327392,17.0705568 L76.0327392,16.1159328 L72.765264,16.1159328 L72.765264,15.315168 L74.0654112,15.315168 L74.6873952,15.315168 L75.284352,15.315168 C75.6070656,15.315168 75.8686368,15.0535968 75.8686368,14.7308832 L75.8686368,11.88 C75.8686368,11.5571808 75.6070656,11.2956096 75.284352,11.2956096 L74.6873952,11.2956096 L74.0654112,11.2956096 L62.7391776,11.2956096 L62.4452928,11.2956096 L61.5202368,11.2956096 C61.1975232,11.2956096 60.9358464,11.5571808 60.9358464,11.88 L60.9358464,14.7308832 C60.9358464,15.0535968 61.1975232,15.315168 61.5202368,15.315168 L62.4452928,15.315168 L62.7391776,15.315168 L64.0393248,15.315168 L64.0393248,16.1159328 L60.771744,16.1159328 L60.771744,17.0705568 L64.0393248,17.0705568 L64.0393248,17.8713216 L60.771744,17.8713216 L60.771744,18.8260512 L63.9474528,18.8260512 C63.7592736,19.3259616 63.1254624,19.8439296 62.2303968,19.9894464 C61.7692416,20.064528 61.3872864,20.1032832 60.7557984,20.1175392 L60.7557984,21.1417536 C61.761216,21.1417536 62.594928,21.0711072 63.3791136,20.9199936 C64.683696,20.6687712 65.6422272,19.8671616 65.9653632,18.8260512 L70.8390144,18.8260512 C71.1621504,19.8671616 72.1206816,20.6687712 73.4253696,20.9199936 C74.2094496,21.0711072 75.0432672,21.1417536 76.0485792,21.1417536 L76.0485792,20.1175392 C75.4171968,20.1032832 75.0352416,20.064528 74.5739808,19.9894464 C73.6790208,19.8439296 73.0452096,19.3259616 72.857136,18.8260512 L72.857136,18.8260512 Z" id="Fill-6" fill="#DF0629" mask="url(#mask-2)"></path>
                <path d="M66.6114557,10.5864317 L66.7894973,10.5864317 C67.4694557,10.5864317 68.0206877,10.0351997 68.0206877,9.35524128 L68.0206877,7.71316128 C68.0206877,7.03309728 67.4694557,6.48186528 66.7894973,6.48186528 L66.6114557,6.48186528 L66.2173565,6.48186528 L60.8069405,6.48186528 L60.8069405,7.39678368 L65.8658141,7.39678368 C66.0600125,7.39678368 66.2173565,7.55423328 66.2173565,7.74832608 L66.2173565,8.17294368 L61.1328221,8.17294368 L61.1328221,8.89535328 L66.2173565,8.89535328 L66.2173565,9.31997088 C66.2173565,9.51406368 66.0600125,9.67140768 65.8658141,9.67140768 L60.8069405,9.67140768 L60.8069405,10.5864317 L66.2173565,10.5864317 L66.6114557,10.5864317 Z" id="Fill-7" fill="#DF0629" mask="url(#mask-2)"></path>
                <path d="M74.5883741,10.5864317 L74.7665213,10.5864317 C75.4463741,10.5864317 75.9976061,10.0351997 75.9976061,9.35524128 L75.9976061,7.71316128 C75.9976061,7.03309728 75.4463741,6.48186528 74.7665213,6.48186528 L74.5883741,6.48186528 L74.1943805,6.48186528 L68.7838589,6.48186528 L68.7838589,7.39678368 L73.8427325,7.39678368 C74.0369309,7.39678368 74.1943805,7.55423328 74.1943805,7.74832608 L74.1943805,8.17294368 L69.1097405,8.17294368 L69.1097405,8.89535328 L74.1943805,8.89535328 L74.1943805,9.31997088 C74.1943805,9.51406368 74.0369309,9.67140768 73.8427325,9.67140768 L68.7838589,9.67140768 L68.7838589,10.5864317 L74.1943805,10.5864317 L74.5883741,10.5864317 Z" id="Fill-8" fill="#DF0629" mask="url(#mask-2)"></path>
                <path d="M31.0413206,6.87284928 C29.9336822,4.09715328 26.9868086,2.51473728 24.070031,3.11338368 C22.3250966,1.20170688 19.8103382,8.448e-05 17.0132054,8.448e-05 C13.339487,8.448e-05 10.1489942,2.07850368 8.55791904,5.12369088 L8.54514144,5.12369088 C3.82777824,5.12369088 -1.056e-05,8.94715008 -1.056e-05,13.6687373 C-1.056e-05,18.3861005 3.82777824,22.2139949 8.54514144,22.2139949 C8.54873184,22.2139949 8.55221664,22.2136781 8.55580704,22.2136781 L21.9623606,22.2136781 C22.0777814,22.2136781 22.1321654,22.0755533 22.0495862,21.9947693 C21.119039,21.0848141 20.3664278,19.9937549 19.8468758,18.7789325 C19.8136118,18.7009997 19.7381078,18.6499949 19.6534166,18.6499949 L8.54873184,18.6499949 C6.42405984,18.6494669 4.40181984,17.2908173 3.74625504,15.0225293 C3.14613024,12.9467501 4.00328544,10.6664237 5.81833824,9.49415808 C7.44922464,8.44100928 9.37959264,8.46297408 10.907519,9.28433088 C11.0789078,6.30862848 13.3566998,3.78647808 16.4195222,3.42416448 C19.257311,3.08835648 21.8715446,4.70794368 22.925855,7.21699968 C22.9266998,7.21710528 22.9266998,7.21710528 22.927439,7.21721088 C23.876783,6.13206528 25.4858102,5.81906688 26.7940886,6.55161408 C28.1024726,7.28416128 28.6769366,8.81937408 28.2482006,10.1959757 C30.315743,9.63048768 32.6016662,10.6249229 33.5044406,12.7355501 C34.367087,14.7519821 33.5691734,17.1676877 31.6805174,18.2829293 C29.5177238,19.5601613 26.7435062,18.7901261 25.5409334,16.6058957 C25.272287,16.1177069 25.1100854,15.6009005 25.0376438,15.0801869 L27.2397206,15.0801869 C27.3843926,15.0801869 27.4567286,14.9051021 27.3545078,14.8030925 L23.1094934,10.5617741 C23.0301878,10.4825741 22.9018838,10.4825741 22.8226838,10.5618797 L18.5813654,14.8030925 C18.4792502,14.9053133 18.5515862,15.0801869 18.6961526,15.0801869 L20.781119,15.0801869 C20.8025558,16.1195021 21.0207254,17.1116141 21.4013078,18.0184013 C22.6373558,21.0035021 25.5797942,23.1034637 29.0141174,23.1034637 C33.5690678,23.1034637 37.2556694,19.4126381 37.2556694,14.8620173 C37.2556694,11.0085677 34.6125014,7.77530688 31.0413206,6.87284928" id="Fill-9" fill="#DF0629" mask="url(#mask-2)"></path>
            </g>
        </g>
    </g>
</svg>