<?xml version="1.0" encoding="utf-8"?>
<!-- Generator: Adobe Illustrator 23.1.0, SVG Export Plug-In . SVG Version: 6.00 Build 0)  -->
<svg version="1.1" id="图层_1" xmlns="http://www.w3.org/2000/svg" xmlns:xlink="http://www.w3.org/1999/xlink" x="0px" y="0px"
	 viewBox="0 0 628 128" style="enable-background:new 0 0 628 128;" xml:space="preserve">
<style type="text/css">
	.st0{fill-rule:evenodd;clip-rule:evenodd;fill:#95A8B2;}
	.st1{fill-rule:evenodd;clip-rule:evenodd;fill:#EF8200;}
	.st2{fill:#030000;}
	.st3{fill:#231815;}
	.st4{fill-rule:evenodd;clip-rule:evenodd;fill:#231815;}
	.st5{fill:#EF8200;}
	.st6{fill:#231915;}
</style>
<g>
	<g>
		<path class="st0" d="M77.4,11.6c17.3,0,31.4,2.7,31.4,6s-14,6-31.4,6c-17.3,0-31.4-2.7-31.4-6S60,11.6,77.4,11.6z"/>
		<path class="st0" d="M77.5,55.7c-11.7,0-22.8-1.9-32.5-6l-0.3-1c-0.1-0.4,0-0.7,0.3-1l11.1-9.2c0.3-0.3,0.4-0.6,0.3-1
			c-0.1-0.4-0.4-0.6-0.8-0.7L41.2,36c-0.4,0-0.7-0.2-0.8-0.6l-4.3-10.9c0.8-0.2,1.6-0.2,2.3,0.3c7.8,5.4,22.8,8.6,39.1,8.6
			s31.3-3.2,39.1-8.6c0.8-0.6,2-0.5,2.9,0s1.2,1.5,1.2,2.7v13.4c0,1.4-0.5,2.5-1.8,3.6c-2,1.6-4.2,3.1-6.6,4.2
			C102.1,53.5,90.1,55.7,77.5,55.7z"/>
		<path class="st0" d="M77.5,85.6c-2.7,0-5.4-0.1-8.1-0.4c-0.1-0.1-0.2-0.2-0.2-0.3l-3.6-9c-0.1-0.2-0.3-0.4-0.6-0.4
			c-0.3,0-0.5,0.2-0.6,0.4L61.2,84c-6.6-1.3-12.9-3.3-18.6-6c-2.3-1.1-4.6-2.6-6.6-4.2c-1.3-1.1-1.8-2.3-1.8-3.6V56.8
			c0-0.4,0-0.7,0.1-1.1c0.1,0,0.2,0.1,0.3,0.1l12.1,7.7c0.3,0.2,0.7,0.2,1.1,0c0.3-0.2,0.5-0.6,0.4-1l-1-4.1
			c8.1,2.8,18.8,4.3,30.2,4.3c15.3,0,29.5-2.8,37.6-7.6l-6.5,16.3c-0.3,0.7-0.9,1.1-1.6,1.2l-27.8,1.8c-0.8,0-1.4,0.5-1.6,1.3
			c-0.2,0.7,0,1.5,0.6,2l9,7.4C84,85.4,80.8,85.6,77.5,85.6z"/>
		<path class="st0" d="M96.9,93.2l2.7,2.2c0.6,0.5,0.8,1.2,0.6,1.9l-3.3,12.9L96.9,93.2L96.9,93.2z M97.7,112.9
			c-0.3,0.1-0.5,0.1-0.8,0.2C97.2,113,97.4,112.9,97.7,112.9z M77.5,115.5c-12.6,0-24.6-3.2-34.9-8c-2.3-1.1-4.6-2.6-6.6-4.2
			c-1.3-1.1-1.8-2.3-1.8-3.6V86.3c0-1.1,0.3-2.1,1.2-2.7c0.8-0.5,2-0.5,2.9,0c3.7,2.5,8.9,4.6,15.1,6l4.3,3.6
			c0.2,0.2,0.3,0.4,0.2,0.6l-2.4,9.4c-0.1,0.3,0,0.5,0.2,0.7s0.5,0.2,0.7,0l8.2-5.2c0.2-0.1,0.5-0.1,0.7,0l8.2,5.2
			c0.2,0.1,0.5,0.1,0.7,0c0.2-0.2,0.3-0.4,0.2-0.7L72,93.8c-0.1-0.2,0-0.5,0.2-0.6l1.3-1.1c1.3,0,2.6,0.1,3.8,0.1
			c5.9,0,11.6-0.4,16.8-1.2l2.6,2.1v17l-0.8,3C90.2,114.7,83.9,115.5,77.5,115.5L77.5,115.5z M96.9,113c-0.3,0.1-0.5,0.1-0.8,0.2
			C96.4,113.2,96.7,113.1,96.9,113z"/>
	</g>
	<g>
		<path class="st1" d="M103.6,111.1L103.6,111.1l4.3-16.9c0.1-0.4,0-0.9-0.4-1.2L94.2,81.9c-0.4-0.3-0.5-0.8-0.4-1.2
			c0.1-0.5,0.5-0.8,1-0.8l17.3-1.1c0.5,0,0.8-0.3,1-0.7l6.4-16.1c0.2-0.4,0.6-0.7,1.1-0.7h0.1v38.4c0,1.4-0.5,2.5-1.8,3.6
			c-2,1.6-4.2,3.1-6.6,4.2C109.6,108.8,106.6,110,103.6,111.1z"/>
		<path class="st1" d="M34.8,30.5l3.3,8.3c0.1,0.2,0.3,0.4,0.5,0.4l8.9,0.6c0.2,0,0.4,0.2,0.5,0.4s0,0.5-0.2,0.6L41,46.4
			c-0.2,0.1-0.3,0.4-0.2,0.6l2.2,8.7c0.1,0.2,0,0.5-0.2,0.6s-0.5,0.2-0.7,0l-7.5-4.8c-0.2-0.1-0.4-0.1-0.6,0l-7.5,4.8
			c-0.2,0.1-0.5,0.1-0.7,0s-0.3-0.4-0.2-0.6l2.2-8.7c0.1-0.2,0-0.5-0.2-0.6l-6.9-5.7c-0.2-0.2-0.3-0.4-0.2-0.6
			c0.1-0.2,0.3-0.4,0.5-0.4l8.9-0.6c0.2,0,0.4-0.2,0.5-0.4l3.3-8.3c0.1-0.2,0.3-0.4,0.5-0.4C34.5,30.1,34.7,30.2,34.8,30.5z"/>
		<path class="st1" d="M65.4,81.7l2.2,5.6c0.1,0.1,0.2,0.2,0.3,0.3l6,0.4c0.2,0,0.3,0.1,0.4,0.3c0.1,0.2,0,0.3-0.1,0.4l-4.6,3.8
			c-0.1,0.1-0.2,0.3-0.1,0.4l1.5,5.8c0,0.2,0,0.3-0.2,0.4c-0.1,0.1-0.3,0.1-0.4,0l-5.1-3.2c-0.1-0.1-0.3-0.1-0.4,0l-5.1,3.2
			c-0.1,0.1-0.3,0.1-0.4,0c-0.1-0.1-0.2-0.3-0.2-0.4l1.5-5.8c0-0.2,0-0.3-0.1-0.4L56,88.7c-0.1-0.1-0.2-0.3-0.1-0.4
			c0.1-0.2,0.2-0.3,0.4-0.3l6-0.4c0.2,0,0.3-0.1,0.3-0.3l2.2-5.6c0.1-0.2,0.2-0.3,0.4-0.3C65.2,81.4,65.4,81.5,65.4,81.7z"/>
		<path class="st1" d="M25.7,66.9l1.6,5.4c0,0.1,0.1,0.2,0.3,0.3l4.4,1.1c0.1,0,0.2,0.1,0.3,0.3c0,0.2,0,0.3-0.1,0.4l-3.4,2.9
			c-0.1,0.1-0.1,0.2-0.1,0.4l1.1,5.5c0,0.2,0,0.3-0.1,0.4s-0.2,0.1-0.3,0L25.7,80c-0.1-0.1-0.2-0.1-0.3-0.1l-3.7,2.3
			c-0.1,0.1-0.2,0-0.3-0.1c-0.1-0.1-0.1-0.3-0.1-0.4l1.1-5.1c0-0.1,0-0.3-0.1-0.4L18.8,72c-0.1-0.1-0.1-0.3-0.1-0.4s0.1-0.2,0.3-0.2
			l4.4,0.4c0.1,0,0.2-0.1,0.3-0.2l1.6-4.8c0-0.1,0.1-0.2,0.3-0.2C25.6,66.7,25.7,66.8,25.7,66.9z"/>
		<path class="st1" d="M16.7,52l0.9,3.9c0,0.1,0.1,0.2,0.1,0.2l2.4,0.7c0.1,0,0.1,0.1,0.1,0.2c0,0.1,0,0.2-0.1,0.3l-1.9,2.2
			c0,0.1-0.1,0.2-0.1,0.3l0.6,4c0,0.1,0,0.2-0.1,0.3c-0.1,0.1-0.1,0-0.2,0l-2-2.5c-0.1-0.1-0.1-0.1-0.2,0l-2,1.8c-0.1,0-0.1,0-0.2,0
			c-0.1-0.1-0.1-0.2-0.1-0.3l0.6-3.8c0-0.1,0-0.2-0.1-0.3l-1.5-3c-0.1-0.1-0.1-0.2-0.1-0.3s0.1-0.2,0.1-0.2l2.4,0.2
			c0.1,0,0.1,0,0.1-0.1l0.9-3.6c0-0.1,0.1-0.2,0.1-0.1C16.6,51.9,16.7,51.9,16.7,52z"/>
	</g>
</g>
<g>
	<path class="st2" d="M176.9,66.4v-4.7h1.8c0.8,0,1.4,0,1.7-0.1c0.4-0.1,0.7-0.3,1-0.5c0.8-0.6,1.2-1.5,1.2-2.6s-0.4-1.8-1.1-2.3
		c-0.5-0.4-1.5-0.5-2.7-0.5h-1.9V51h1.8c0.8,0,1.4,0,1.7-0.1c0.4-0.1,0.7-0.3,1-0.5c0.8-0.6,1.2-1.5,1.2-2.6s-0.4-1.8-1.1-2.3
		c-0.5-0.4-1.5-0.5-2.7-0.5h-1.9v-4.7h3.4c2.3,0,4,0.3,5.1,0.8c1.2,0.6,2.1,1.6,2.8,3c0.5,1,0.7,2,0.7,3c0,1.4-0.4,2.6-1.1,3.8
		c-0.7,1.2-1.6,2-2.7,2.4c2.5,1.2,3.8,3.2,3.8,6.1c0,1.7-0.4,3.1-1.2,4.3c-0.7,1-1.6,1.7-2.7,2.1c-1.1,0.4-2.7,0.6-4.9,0.6H176.9z
		 M149.3,40.3c2.4,0,4.3,0.3,5.7,0.8c2.8,1,4.7,2.9,5.6,5.6c0.7,2.1,1.1,4.3,1.1,6.7s-0.3,4.6-1,6.7c-0.7,2.1-1.8,3.7-3.4,4.7
		c-1,0.6-2.1,1.1-3.3,1.3c-1.1,0.2-2.6,0.3-4.7,0.3v-4.7c2-0.1,3.5-0.6,4.3-1.6c0.6-0.7,1-1.6,1.4-2.8s0.5-2.5,0.5-3.9
		c0-1.5-0.2-2.9-0.6-4.2c-0.4-1.3-1-2.2-1.7-2.9c-0.9-0.8-2.2-1.2-4-1.3L149.3,40.3L149.3,40.3z M176.9,40.3V45h-5.8v6h5.8v4.7h-5.8
		v6.1h5.8v4.7h-11.3V40.3H176.9z M137.5,40.3h11.1c0.2,0,0.5,0,0.7,0V45c-0.2,0-0.5,0-0.7,0H143v16.8h5.5c0.2,0,0.5,0,0.7,0v4.7
		c-0.2,0-0.5,0-0.7,0h-11.1V40.3H137.5z"/>
	<path class="st2" d="M192.7,66.5v-3.3H204c1.7,0,3-0.2,3.7-0.7c1.1-0.7,1.7-1.8,1.7-3.4c0-2-0.7-3.3-2.2-3.8c-0.7-0.2-2-0.3-4-0.3
		H201c-3,0-5.2-0.4-6.5-1.2c-1.9-1.2-2.8-3-2.8-5.6c0-1.7,0.4-3.1,1.3-4.4c0.8-1.3,1.9-2.1,3.2-2.6s3.2-0.8,5.6-0.8h10.8v3.3h-10.8
		c-1.1,0-2,0.1-2.6,0.2c-0.6,0.1-1.1,0.3-1.6,0.6c-1,0.6-1.5,1.7-1.5,3.2c0,1.3,0.4,2.2,1.3,2.8c0.9,0.6,2.3,0.8,4.4,0.8h1.6
		c2.2,0,3.9,0.1,5,0.3s2,0.6,2.7,1.1c0.9,0.6,1.5,1.5,2,2.6s0.7,2.3,0.7,3.7c0,3.1-1.2,5.3-3.6,6.5c-0.8,0.4-1.6,0.6-2.6,0.8
		c-0.9,0.1-2.4,0.2-4.3,0.2H192.7L192.7,66.5z M236.8,40.4v3.3h-7.6c-1.4,0-2.5,0.1-3.3,0.3s-1.5,0.5-2.1,1
		c-0.8,0.7-1.5,1.5-1.9,2.6c-0.4,1-0.7,2.4-0.8,4.1h15.6V55h-15.6c0,1.9,0.4,3.6,1.2,5.1c0.6,1.1,1.5,1.9,2.5,2.4s2.3,0.7,4.1,0.7
		h7.8v3.3h-8.6c-2.2,0-4-0.2-5.3-0.7c-2.4-0.9-4.2-2.8-5.4-5.8c-0.6-1.6-0.9-3.6-0.9-6c0-3.1,0.5-5.7,1.5-7.7
		c1.1-2.2,2.5-3.7,4.2-4.6c1.7-0.9,4.1-1.3,7.1-1.3L236.8,40.4L236.8,40.4z M261,63.2v3.3h-8.1c-2.3,0-4.2-0.2-5.5-0.6
		c-2.7-0.8-4.7-2.6-6-5.4c-0.9-2-1.4-4.3-1.4-6.9c0-3,0.6-5.7,1.9-8.1c1-1.9,2.4-3.3,4-4c1.6-0.8,3.9-1.1,6.9-1.1h8.3v3.3H253
		c-1.8,0-3.1,0.1-4,0.4c-0.9,0.3-1.7,0.8-2.3,1.5c-0.7,0.8-1.2,1.9-1.6,3.4c-0.4,1.4-0.6,3-0.6,4.7c0,3.2,0.8,5.7,2.3,7.4
		c0.7,0.8,1.5,1.3,2.4,1.6s2.3,0.4,4.1,0.4L261,63.2L261,63.2z"/>
	<path class="st3" d="M255.4,99.9v-1.5h2.6c0.4,0,0.7-0.2,0.9-0.4c0.2-0.2,0.3-0.5,0.3-0.9v-18c0-0.3-0.1-0.6-0.3-0.9
		c-0.1-0.3-0.5-0.4-1-0.4h-2.6v-1.5h3.2c0.6,0,1.1,0.2,1.5,0.6s0.6,0.9,0.6,1.5v19.4c0,0.6-0.2,1.1-0.6,1.5s-1,0.6-1.5,0.6
		C258.5,99.9,255.4,99.9,255.4,99.9z M255.4,76.4v1.5h-2.6c-0.4,0-0.7,0.1-0.9,0.3c-0.2,0.2-0.3,0.5-0.3,0.9v18.1
		c0,0.4,0.1,0.8,0.4,0.9c0.2,0.2,0.5,0.3,0.8,0.3h2.6v1.5h-3.2c-0.7,0-1.2-0.3-1.5-0.7c-0.4-0.4-0.6-0.9-0.6-1.4V78.5
		c0-0.6,0.2-1.1,0.6-1.5c0.4-0.4,0.9-0.6,1.5-0.6h0.6H255.4L255.4,76.4z M223.2,100.7v-1.5h6.1c0.2,0,0.4,0.1,0.5,0.2
		s0.2,0.3,0.2,0.5s-0.1,0.4-0.2,0.5c-0.1,0.1-0.3,0.2-0.5,0.2h-6.1V100.7z M223.2,97.9v-3c0.1-0.2,0.2-0.4,0.3-0.6
		c0.1-0.3,0.2-0.4,0.4-0.5s0.4-0.1,0.6,0c0.2,0.1,0.3,0.2,0.4,0.4c0.1,0.2,0.1,0.4,0,0.6C224.5,95.8,223.9,96.8,223.2,97.9
		L223.2,97.9z M223.2,90.5V89h3.6c0.2,0,0.4,0.1,0.5,0.2s0.2,0.3,0.2,0.5s-0.1,0.4-0.2,0.5c-0.1,0.1-0.3,0.2-0.5,0.2h-3.6V90.5z
		 M223.2,83.7v-1.4c0.1,0,0.3,0.1,0.4,0.2c0.1,0.1,0.2,0.3,0.2,0.5s-0.1,0.4-0.2,0.5C223.5,83.6,223.3,83.7,223.2,83.7L223.2,83.7z
		 M223.2,80.4c2.4,1.5,4.3,2.5,5.7,3c0.3,0.1,0.5,0.1,0.7,0.1c0.1-0.1,0.3-0.2,0.4-0.4c0.1-0.3,0.1-0.5,0-0.7s-0.2-0.3-0.4-0.4
		c-2-0.7-4.1-1.8-6.3-3.2L223.2,80.4L223.2,80.4z M240.4,85.9v15.3c0,0.3,0.1,0.5,0.2,0.6c0.1,0.1,0.3,0.2,0.5,0.2s0.4-0.1,0.5-0.2
		s0.2-0.3,0.2-0.6V85.9c1.7,2.3,3,4.4,4.1,6.2c0.1,0.3,0.3,0.4,0.5,0.4c0.2,0.1,0.3,0,0.6-0.1c0.2-0.1,0.3-0.3,0.3-0.5
		s0-0.4-0.1-0.5c-1.4-2.2-3.2-4.7-5.4-7.6l0,0h5.3c0.2,0,0.4-0.1,0.5-0.2s0.2-0.3,0.2-0.5s-0.1-0.4-0.2-0.5
		c-0.1-0.1-0.3-0.2-0.5-0.2h-5.3v-5.9c0.1,0,0.1,0,0.2-0.1c1.8-0.3,3.2-0.6,4.3-0.9c0.3-0.1,0.4-0.2,0.4-0.4c0.1-0.1,0.1-0.3,0-0.6
		c-0.1-0.2-0.2-0.4-0.3-0.4c-0.1-0.1-0.3-0.1-0.6,0c-1.1,0.3-2.7,0.7-4.8,1s-4,0.6-5.7,0.7c-0.2,0-0.4,0.1-0.5,0.3
		c-0.1,0.1-0.2,0.3-0.2,0.5s0.1,0.4,0.3,0.5c0.1,0.1,0.3,0.2,0.5,0.2c1.3-0.1,2.9-0.3,4.9-0.6v5.7h-5.9c-0.2,0-0.4,0.1-0.6,0.2
		c-0.1,0.1-0.2,0.3-0.2,0.5s0.1,0.4,0.2,0.5c0.1,0.1,0.3,0.2,0.6,0.2h5.6c-0.9,1.9-1.7,3.4-2.4,4.5c-0.9,1.4-2.2,3-3.9,4.9
		c-0.1,0.2-0.2,0.4-0.3,0.6c0,0.2,0.1,0.4,0.3,0.5c0.1,0.1,0.3,0.2,0.5,0.2s0.4-0.1,0.6-0.3c1.2-1.3,2.4-2.9,3.6-4.8
		C239.1,88.5,239.7,87.3,240.4,85.9z M223.2,78.8v1.7c-0.3-0.2-0.5-0.4-0.8-0.5c-2.4-1.6-4.3-3.1-5.7-4.5c-0.4-0.4-0.7-0.6-0.9-0.6
		h-0.1v-1.6h0.1c0.5,0,1,0.2,1.4,0.7c1.7,1.7,3.5,3.3,5.5,4.6C222.9,78.6,223,78.7,223.2,78.8L223.2,78.8z M223.2,82.3v1.4h-0.1
		h-6.7V89h6.8v1.5h-6.8v8.7h6.8v1.5h-7.6V82.3h7.4C223.1,82.3,223.2,82.3,223.2,82.3L223.2,82.3z M223.2,94.9
		c-0.4,0.8-0.9,1.7-1.5,2.6c-0.1,0.2-0.2,0.4-0.2,0.6s0.1,0.3,0.3,0.5c0.2,0.1,0.4,0.1,0.6,0.1c0.2,0,0.4-0.1,0.5-0.3
		c0.1-0.1,0.2-0.3,0.3-0.4L223.2,94.9L223.2,94.9z M215.6,73.2v1.6c-0.3,0.1-0.6,0.3-1,0.7c-1.3,1.3-3.1,2.8-5.6,4.4
		c-0.2,0.1-0.4,0.3-0.6,0.4v-1.7l0.3-0.2c1.9-1.3,3.7-2.8,5.4-4.4C214.7,73.5,215.2,73.2,215.6,73.2L215.6,73.2z M215.6,82.3v18.4
		h-7.1v-1.5h6.4v-8.7h-6.4V89h6.4v-5.3h-6.4v-1.5L215.6,82.3L215.6,82.3z M208.5,97.4c0.1,0.3,0.3,0.6,0.4,0.9
		c0.1,0.3,0.3,0.4,0.5,0.5c0.1,0.1,0.3,0.1,0.6,0c0.2-0.1,0.3-0.3,0.4-0.5c0.1-0.2,0-0.4-0.1-0.6c-0.6-1.2-1.1-2.2-1.8-3L208.5,97.4
		L208.5,97.4z M208.5,78.5v1.7c-2.2,1.4-4.3,2.5-6.1,3.1c-0.2,0.1-0.4,0.1-0.6,0c-0.2-0.1-0.3-0.3-0.4-0.5c-0.1-0.2-0.1-0.4,0-0.6
		s0.3-0.3,0.5-0.4C204,81.1,206.3,79.9,208.5,78.5L208.5,78.5z M208.5,82.3h-0.3c-0.2,0-0.4,0.1-0.6,0.2c-0.1,0.1-0.2,0.3-0.2,0.5
		s0.1,0.4,0.2,0.5c0.2,0.1,0.3,0.2,0.6,0.2h0.3V82.3L208.5,82.3z M208.5,89.1v1.5h-3.7c-0.2,0-0.4-0.1-0.6-0.2
		c-0.1-0.1-0.2-0.3-0.2-0.5s0.1-0.4,0.2-0.5c0.2-0.1,0.4-0.2,0.6-0.2h3.7V89.1z M208.5,94.6v2.8c-0.5-1-1.1-1.8-1.6-2.5
		c-0.2-0.2-0.2-0.4-0.2-0.6s0.1-0.4,0.3-0.5c0.1-0.1,0.3-0.2,0.5-0.2s0.4,0.1,0.5,0.3C208.2,94.1,208.3,94.4,208.5,94.6L208.5,94.6z
		 M208.5,99.2v1.5H202c-0.2,0-0.4-0.1-0.6-0.2c-0.1-0.1-0.2-0.3-0.2-0.5s0.1-0.4,0.2-0.5c0.2-0.1,0.4-0.2,0.6-0.2h6.5V99.2z
		 M178.8,92.9v-1.5h4v-2.3c0-0.2,0.1-0.4,0.2-0.6c0.1-0.1,0.3-0.2,0.5-0.2s0.4,0.1,0.5,0.2c0.2,0.2,0.3,0.4,0.3,0.6v2.3H197
		c0.2,0,0.4,0.1,0.5,0.2s0.2,0.3,0.2,0.5s-0.1,0.4-0.2,0.5c-0.2,0.1-0.3,0.2-0.5,0.2h-12.7v8.3c0,0.2-0.1,0.4-0.2,0.6
		c-0.1,0.1-0.3,0.2-0.5,0.2s-0.4-0.1-0.5-0.2s-0.2-0.3-0.2-0.6v-8.3h-4.1V92.9z M178.8,83.1V82c0.1-0.1,0.3-0.2,0.5-0.2
		c1.8-0.4,3.5-0.8,5.1-1.3v-6.7c0-0.3,0.1-0.5,0.2-0.6c0.1-0.1,0.3-0.2,0.5-0.2s0.4,0.1,0.5,0.2c0.2,0.1,0.3,0.3,0.3,0.6v6.1
		c0.2-0.1,0.4-0.2,0.6-0.3c2.4-1,4.8-2.5,7.1-4.3c0.2-0.1,0.4-0.2,0.6-0.2c0.2,0,0.3,0.1,0.5,0.3c0.1,0.2,0.2,0.3,0.2,0.5
		s-0.2,0.4-0.4,0.5c-3,2.1-5.7,3.7-8,4.6c-0.2,0.1-0.4,0.2-0.6,0.3V84c0,0.7,0.2,1.1,0.5,1.4c0.4,0.2,0.8,0.4,1.2,0.4
		c2.1,0.1,4.1,0.1,5.9,0c0.5,0,0.9-0.2,1.3-0.4c0.4-0.3,0.6-0.7,0.6-1.3c0-0.1,0-0.3,0-0.5c0-0.3,0.1-0.7,0.1-1.2
		c0-0.2,0.1-0.4,0.2-0.5c0.1-0.2,0.3-0.2,0.7-0.2c0.2,0,0.4,0.1,0.5,0.3c0.1,0.2,0.2,0.4,0.2,0.6c0,0.3-0.1,0.6-0.1,0.7
		c0,0.2,0,0.3-0.1,0.4c0,0.9-0.1,1.6-0.3,2.1s-0.6,0.8-1.2,1.1c-0.5,0.2-1.1,0.3-1.8,0.3c-1.9,0-4,0-6.2,0c-0.7,0-1.4-0.3-2-0.7
		c-0.6-0.5-0.9-1.2-0.9-2.2v-2.4c-1.8,0.6-3.4,1.1-4.8,1.3C179.2,83.3,179,83.2,178.8,83.1L178.8,83.1L178.8,83.1z M178.8,74.3
		L178.8,74.3c0.2-0.3,0.3-0.5,0.2-0.7c0-0.1-0.1-0.3-0.2-0.4V74.3z M164.8,86.1h-13.6v1.5h6.8c-0.2,1.3-0.5,2.4-0.8,3.4
		c-0.4,1.2-0.9,2.2-1.6,3.2c-0.6,0.9-1.4,1.8-2.6,2.7c-0.1,0.1-0.2,0.2-0.3,0.3l-1.5-0.5v3c0.7-0.3,1.3-0.6,1.8-1l11,3.5
		c0.2,0.1,0.4,0.1,0.6,0c0.2-0.1,0.3-0.2,0.3-0.4c0.1-0.2,0-0.4-0.1-0.6s-0.3-0.3-0.5-0.4l-10.1-3.1c1.3-1.2,2.4-2.6,3.3-4.3
		c1-1.9,1.6-3.8,1.9-5.7l0,0h5.2c0.2,0,0.4-0.1,0.5-0.2s0.2-0.3,0.2-0.5s-0.1-0.4-0.2-0.5C165.2,86.1,165,86.1,164.8,86.1
		L164.8,86.1z M151.3,82.6c0.1-0.3,0.2-0.6,0.3-0.9c0.1-0.2,0.1-0.4,0-0.6c-0.1-0.1-0.2-0.2-0.3-0.3V82.6L151.3,82.6z M178.8,73.2
		v1.1c-1,1.3-1.9,2.3-2.7,3.2c0,0,0,0.1,0,0.2v9.5c0,0.2-0.1,0.4-0.2,0.6c-0.1,0.1-0.3,0.2-0.5,0.2s-0.4-0.1-0.5-0.2
		c-0.1-0.2-0.2-0.3-0.2-0.6v-8.4c-1.4,1.2-2.6,2.1-3.9,2.7c-0.2,0.1-0.4,0.2-0.6,0.1c-0.2-0.1-0.3-0.2-0.4-0.4
		c-0.1-0.2-0.1-0.4-0.1-0.6c0.1-0.2,0.2-0.4,0.4-0.4c1.5-0.9,2.9-1.8,4-2.8c1.3-1.2,2.4-2.6,3.5-4.1c0.2-0.2,0.3-0.4,0.5-0.4
		C178.3,73,178.5,73.1,178.8,73.2C178.7,73.2,178.8,73.2,178.8,73.2L178.8,73.2z M178.8,81.9l-0.1,0.1c-0.1,0.1-0.1,0.3-0.1,0.6
		c0,0.2,0.1,0.3,0.2,0.4L178.8,81.9L178.8,81.9z M178.8,91.4v1.5H170c-0.2,0-0.4-0.1-0.6-0.2c-0.1-0.1-0.2-0.3-0.2-0.5
		s0.1-0.4,0.2-0.5c0.2-0.1,0.4-0.2,0.6-0.2h8.8V91.4z M151.3,78.7v-1.5l0,0v-0.1v-2.9c0.5,0.7,1,1.6,1.5,2.6
		c0.1,0.1,0.1,0.3,0.1,0.4h10.4c0.6,0,1.2,0.2,1.6,0.6c0.2,0.3,0.3,0.7,0.3,1.4c0,0.6-0.3,1.8-0.7,3.5c-0.1,0.2-0.2,0.4-0.4,0.5
		s-0.3,0.1-0.5,0s-0.3-0.2-0.4-0.4c-0.1-0.2-0.1-0.4,0-0.6c0.3-1.2,0.5-1.9,0.5-2.3c0-0.3,0-0.4-0.1-0.6c-0.3-0.4-0.6-0.6-1-0.6
		H151.3z M151.3,86.1h-1.5c0.6-1.3,1.2-2.4,1.5-3.4v-1.8c0,0-0.1,0-0.1-0.1c-0.2-0.1-0.4-0.1-0.6,0c-0.2,0.1-0.3,0.3-0.4,0.5
		c-0.6,1.6-1.3,3.3-2.1,4.8H138c-0.2,0-0.4,0.1-0.6,0.2c-0.1,0.1-0.2,0.3-0.2,0.5s0.1,0.4,0.2,0.5c0.1,0.1,0.3,0.2,0.6,0.2h9.3
		c-1.2,2.1-2.5,3.8-3.7,5.3c-0.7,0.8-1,1.4-0.8,1.9c0.1,0.5,0.4,0.8,1,0.9l7.6,2.4c-1.2,0.6-2.5,1.1-4,1.5c-1.9,0.5-4.9,0.8-9.1,1
		c-0.2,0-0.4,0.1-0.6,0.2c-0.2,0.1-0.2,0.3-0.3,0.5c0,0.2,0,0.4,0.2,0.6c0.1,0.2,0.4,0.2,0.6,0.2c4-0.2,7.1-0.6,9.4-1.1
		c1.4-0.3,2.6-0.8,3.7-1.3v-3l-6.2-1.9c-0.3-0.1-0.5-0.2-0.6-0.4c-0.1-0.2,0-0.4,0.2-0.6c1.5-1.7,2.8-3.5,4-5.5
		c0.1-0.2,0.2-0.4,0.3-0.6h2.3L151.3,86.1L151.3,86.1z M151.3,74.3v2.9c-0.6-1.2-1.2-2.1-1.9-2.9c-0.2-0.2-0.3-0.4-0.3-0.6
		s0.1-0.4,0.3-0.5s0.3-0.2,0.5-0.2s0.4,0.1,0.6,0.3C150.8,73.7,151,74,151.3,74.3L151.3,74.3z M151.3,77.3v1.5H141
		c-0.5,0-0.8,0.1-1.1,0.4c-0.2,0.2-0.3,0.6-0.3,1v2.4c0,0.3-0.1,0.4-0.2,0.6c-0.1,0.1-0.3,0.2-0.5,0.2s-0.4-0.1-0.5-0.2
		c-0.1-0.2-0.2-0.4-0.2-0.6v-2.8c0-0.7,0.2-1.3,0.7-1.8c0.4-0.4,1-0.7,1.8-0.7H151.3z"/>
</g>
<rect x="301" y="37" class="st0" width="1" height="67"/>
<g>
	<path class="st4" d="M597.3,104.1v-1.2c0.7,0,1.3-0.1,1.9-0.3c0.7-0.2,1.2-0.6,1.7-1c0.5-0.5,0.9-1.1,1.1-1.9
		c0.3-0.8,0.4-1.7,0.4-2.9v-2.2h-0.1c-0.3,0.5-0.7,1-1.1,1.4c-0.5,0.5-1,0.7-1.7,1s-1.3,0.4-2.2,0.4v-1.2h0.2c0.7,0,1.3-0.1,1.9-0.4
		s1.1-0.7,1.6-1.1c0.5-0.5,0.9-1.1,1.1-1.8c0.1-0.3,0.2-0.5,0.2-0.7c0-0.3,0.1-0.6,0.1-0.9v-3c0-0.3,0-0.6,0-0.7
		c0-0.3-0.1-0.5-0.2-0.7c-0.2-0.5-0.4-0.9-0.7-1.3s-0.6-0.7-0.9-1c-0.4-0.3-0.9-0.6-1.3-0.8c-0.5-0.2-1-0.3-1.7-0.3h-0.3v-1.2h0.1
		c0.8,0,1.4,0.1,2,0.3c0.6,0.2,1,0.4,1.4,0.7c0.4,0.3,0.8,0.6,1,0.9c0.3,0.4,0.5,0.7,0.7,1h0.1l0.1-2.6h1.4
		c-0.1,0.6-0.1,1.1-0.1,1.8s0,1.3,0,2.1v8.9c0,1.3-0.1,2.4-0.3,3.2c-0.2,0.9-0.4,1.6-0.8,2.2c-0.3,0.6-0.7,1.1-1,1.5
		c-0.5,0.5-1,0.8-1.5,1s-1.1,0.5-1.8,0.6C598.1,104.1,597.7,104.1,597.3,104.1L597.3,104.1z M506.9,76.5v21.2h1.5V76.5H506.9
		L506.9,76.5z M597.3,82.1v1.3c-1,0-1.8,0.3-2.6,0.9c-0.9,0.6-1.4,1.3-1.9,2.3c-0.5,0.9-0.7,2.2-0.7,3.5c0,0.9,0.1,1.6,0.4,2.4
		c0.2,0.8,0.6,1.4,0.9,2c0.5,0.6,1,1.1,1.7,1.3c0.6,0.3,1.3,0.5,2.1,0.5v1.2H597c-0.9,0-1.8-0.2-2.7-0.6c-0.7-0.4-1.4-0.9-2.1-1.6
		c-0.6-0.7-1-1.4-1.3-2.4c-0.3-0.9-0.5-1.9-0.5-2.9s0.1-2,0.4-2.8c0.3-0.9,0.6-1.6,1-2.2c0.5-0.7,1-1.2,1.5-1.6
		c0.6-0.5,1.1-0.7,1.8-0.9C596,82.3,596.7,82.2,597.3,82.1L597.3,82.1z M597.3,102.8v1.2c-0.2,0-0.4,0-0.6,0c-0.6,0-1.1,0-1.7-0.2
		c-0.6-0.1-1.2-0.3-1.7-0.5s-0.9-0.5-1.3-0.8l0.6-1.2c0.4,0.2,0.7,0.5,1.2,0.7s0.9,0.4,1.5,0.5s1.1,0.2,1.8,0.2L597.3,102.8
		L597.3,102.8z M514,97.6h1.5v-9.4c0-0.3,0-0.5,0.1-0.7c0-0.2,0.1-0.5,0.1-0.6c0.2-0.7,0.6-1.2,0.9-1.8c0.5-0.6,1-0.9,1.6-1.2
		c0.6-0.3,1.2-0.5,2-0.5s1.4,0.1,2,0.5c0.6,0.3,0.9,0.7,1.3,1.1c0.3,0.5,0.6,1.1,0.7,1.7c0.2,0.7,0.2,1.3,0.2,2v8.9h1.5v-9
		c0-1.1-0.2-2.1-0.4-2.8c-0.3-0.8-0.6-1.3-1-1.8c-0.5-0.5-0.9-0.9-1.3-1c-0.5-0.3-0.9-0.4-1.4-0.5s-0.8-0.1-1.1-0.1
		c-0.9,0-1.5,0.2-2.3,0.4c-0.7,0.3-1.2,0.7-1.8,1.1c-0.5,0.5-0.9,0.9-1.1,1.5h-0.1l-0.1-2.7H514c0,0.4,0.1,0.8,0.1,1.1
		s0,0.8,0.1,1.1c0,0.4,0,0.9,0,1.3L514,97.6L514,97.6z M537.3,76.5v12.8c0,1.6,0.2,3,0.6,4.1c0.4,1.1,0.9,2,1.5,2.7
		c0.7,0.7,1.4,1.1,2.3,1.4c0.9,0.3,1.7,0.5,2.6,0.5c1,0,2-0.2,2.9-0.5s1.7-0.9,2.4-1.5c0.7-0.7,1.2-1.6,1.6-2.8
		c0.4-1.1,0.6-2.5,0.6-4.1V76.5h-1.5v12.7c0,1.7-0.3,3.1-0.8,4.3c-0.5,1.2-1.1,1.9-2.1,2.5c-0.9,0.6-1.9,0.8-3.1,0.8
		c-0.8,0-1.5-0.1-2.2-0.4s-1.3-0.8-1.8-1.3c-0.5-0.6-1-1.3-1.2-2.3c-0.3-1-0.5-2.1-0.5-3.4V76.5H537.3L537.3,76.5z M555.7,96.9
		c0.5,0.3,1,0.6,1.7,0.8c0.7,0.2,1.3,0.3,2.1,0.3c1,0,1.9-0.2,2.6-0.6c0.8-0.4,1.3-0.9,1.8-1.5c0.4-0.7,0.7-1.4,0.7-2.3
		c0-0.8-0.2-1.4-0.5-2s-0.8-1-1.3-1.4c-0.6-0.4-1.2-0.7-2.1-1c-0.7-0.3-1.2-0.6-1.7-0.9s-0.9-0.6-1-1c-0.2-0.4-0.4-0.8-0.4-1.3
		s0.1-0.9,0.3-1.3s0.6-0.7,0.9-0.9c0.5-0.2,1-0.4,1.6-0.4c0.5,0,1,0,1.3,0.1c0.4,0.1,0.8,0.2,1,0.4c0.3,0.1,0.5,0.3,0.7,0.4l0.6-1.2
		c-0.4-0.3-0.9-0.5-1.4-0.7c-0.6-0.2-1.2-0.3-1.9-0.3c-0.8,0-1.4,0.1-2,0.3s-1,0.5-1.4,0.9s-0.8,0.9-1,1.3c-0.2,0.5-0.3,1.1-0.3,1.5
		c0,1,0.4,1.7,1,2.4c0.7,0.7,1.6,1.2,2.8,1.7c0.8,0.3,1.3,0.6,1.8,0.9s0.9,0.7,1,1c0.2,0.4,0.4,0.9,0.4,1.4c0,0.6-0.1,1-0.4,1.4
		c-0.3,0.5-0.7,0.7-1.1,1c-0.5,0.3-1.1,0.4-2,0.4c-0.5,0-0.9-0.1-1.3-0.2c-0.4-0.1-0.8-0.2-1.1-0.4c-0.4-0.2-0.7-0.3-1-0.5
		L555.7,96.9L555.7,96.9z M570.1,97.6V82.5h-1.5v15.1H570.1L570.1,97.6z M569.3,79.5c0.3,0,0.5-0.1,0.7-0.2s0.3-0.3,0.5-0.5
		c0.1-0.2,0.2-0.4,0.2-0.7s-0.1-0.5-0.2-0.7c-0.1-0.2-0.3-0.4-0.5-0.5s-0.4-0.2-0.6-0.2c-0.2,0-0.5,0.1-0.7,0.2s-0.3,0.3-0.5,0.5
		c-0.1,0.2-0.2,0.4-0.2,0.7c0,0.2,0.1,0.5,0.2,0.7c0.1,0.2,0.2,0.4,0.4,0.5C568.8,79.5,569,79.5,569.3,79.5L569.3,79.5L569.3,79.5z
		 M575.2,97.6h1.5v-9.4c0-0.3,0-0.5,0.1-0.7c0-0.2,0.1-0.5,0.1-0.6c0.2-0.7,0.6-1.2,0.9-1.8c0.5-0.6,1-0.9,1.6-1.2
		c0.6-0.3,1.2-0.5,2-0.5s1.4,0.1,2,0.5c0.6,0.3,0.9,0.7,1.3,1.1c0.3,0.5,0.6,1.1,0.7,1.7c0.2,0.7,0.2,1.3,0.2,2v8.9h1.5v-9
		c0-1.1-0.2-2.1-0.4-2.8c-0.3-0.8-0.6-1.3-1-1.8s-0.9-0.9-1.3-1c-0.5-0.3-0.9-0.4-1.3-0.5c-0.5-0.1-0.9-0.1-1.1-0.1
		c-0.9,0-1.6,0.2-2.3,0.4c-0.7,0.3-1.2,0.7-1.8,1.1c-0.5,0.5-0.9,0.9-1.1,1.5h-0.2l-0.1-2.7H575c0,0.4,0.1,0.8,0.1,1.1s0,0.8,0,1.1
		c0,0.4,0,0.9,0,1.3v11.2h0.1V97.6z"/>
	<path class="st5" d="M343.7,93.7c1.1,0.1,2.6,0.3,4.6,0.3c3.6,0,6.6-0.9,8.4-2.5s2.9-4.1,2.9-7.4c0-3.1-1.1-5.4-2.9-6.8
		c-1.7-1.4-4.1-2.2-7.6-2.2c-2,0-3.9,0.2-5.4,0.4V93.7z M347.1,77.9c0.5-0.1,1.2-0.2,2.3-0.2c4.3,0,6.6,2.4,6.6,6.5
		c0,4.7-2.6,7.2-7.1,7.2c-0.7,0-1.4,0-1.9-0.1V77.9H347.1z M372.9,85.7c0-3-1.2-5.7-5.6-5.7c-2.1,0-3.9,0.6-4.8,1.2l0.7,2.2
		c0.9-0.6,2.3-1,3.6-1c2.4,0,2.7,1.4,2.7,2.4V85c-5,0-8,1.7-8,5.1c0,2,1.5,4,4.2,4c1.8,0,3.2-0.7,4-1.8h0.1l0.3,1.5h3.1
		c-0.2-0.8-0.2-2-0.2-3.2v-4.9H372.9z M369.6,89.1c0,0.3,0,0.5-0.1,0.7c-0.3,1-1.3,1.8-2.7,1.8c-1.1,0-1.9-0.6-1.9-1.9
		c0-2,2.3-2.6,4.7-2.5V89.1z M376.9,77.8v2.5H375v2.5h1.9v6.4c0,1.8,0.3,3,1.1,3.8c0.6,0.7,1.6,1.1,2.9,1.1c1,0,2-0.2,2.5-0.4
		l-0.1-2.6c-0.4,0.1-0.7,0.1-1.3,0.1c-1.3,0-1.7-0.9-1.7-2.5v-6h3.2v-2.5h-3.2v-3.5L376.9,77.8z M396.5,85.7c0-3-1.2-5.7-5.6-5.7
		c-2.1,0-3.9,0.6-4.9,1.2l0.7,2.2c0.9-0.6,2.3-1,3.6-1c2.4,0,2.8,1.4,2.8,2.4V85c-5,0-8,1.7-8,5.1c0,2,1.5,4,4.2,4
		c1.8,0,3.2-0.7,4-1.8h0.1l0.3,1.5h3.1c-0.1-0.8-0.2-2-0.2-3.2v-4.9H396.5z M393.2,89.1c0,0.3,0,0.5-0.1,0.7c-0.3,1-1.3,1.8-2.7,1.8
		c-1.1,0-1.9-0.6-1.9-1.9c0-2,2.3-2.6,4.7-2.5V89.1z M399.4,92.9c1,0.7,3.1,1.2,5,1.2c4.8,0,7.1-2.6,7.1-5.6c0-2.7-1.6-4.3-4.8-5.5
		c-2.5-1-3.6-1.6-3.6-3.1c0-1.1,0.9-2.2,3.1-2.2c1.7,0,3,0.5,3.7,0.9l0.8-2.7c-1-0.5-2.4-1-4.4-1c-4.1,0-6.6,2.3-6.6,5.4
		c0,2.7,2,4.3,5,5.4c2.4,0.9,3.3,1.7,3.3,3.1c0,1.5-1.2,2.6-3.4,2.6c-1.7,0-3.4-0.6-4.5-1.2L399.4,92.9z M426,88
		c0.1-0.3,0.1-0.8,0.1-1.4c0-3-1.4-6.6-5.8-6.6c-4.3,0-6.6,3.5-6.6,7.2c0,4.1,2.6,6.8,6.9,6.8c2,0,3.5-0.4,4.7-0.9l-0.5-2.3
		c-1.1,0.4-2.2,0.6-3.7,0.6c-2.2,0-4.1-1-4.1-3.5h9V88z M417,85.7c0.1-1.4,1-3.3,3.1-3.3c2.3,0,2.8,2,2.8,3.3H417z M438.3,90.9
		c-0.7,0.3-1.5,0.5-2.7,0.5c-2.3,0-4.1-1.6-4.1-4.3c0-2.5,1.5-4.4,4.1-4.4c1.2,0,2,0.2,2.6,0.5l0.6-2.6c-0.8-0.3-2-0.6-3.3-0.6
		c-4.7,0-7.5,3.1-7.5,7.2c0,4.2,2.7,6.9,6.9,6.9c1.7,0,3.1-0.4,3.8-0.7L438.3,90.9z M453.3,80.3h-3.4v8.1c0,0.4,0,0.8-0.2,1
		c-0.3,0.9-1.2,1.8-2.6,1.8c-1.8,0-2.5-1.4-2.5-3.7v-7.3h-3.4v7.9c0,4.4,2.2,5.9,4.7,5.9s3.8-1.4,4.3-2.3h0.1l0.2,2h2.9
		c-0.1-1.1-0.1-2.4-0.1-4V80.3z M457,93.8h3.4v-7c0-0.4,0-0.7,0.1-1c0.3-1.6,1.4-2.6,3-2.6c0.4,0,0.7,0,1,0.1v-3.2
		c-0.3-0.1-0.5-0.1-0.8-0.1c-1.5,0-3,1-3.7,2.8h-0.1l-0.1-2.5h-2.9c0.1,1.2,0.1,2.5,0.1,4.3V93.8z M470.2,93.8V80.3h-3.4v13.5H470.2
		z M468.5,74.7c-1.1,0-1.9,0.8-1.9,1.8s0.7,1.8,1.9,1.8c1.2,0,2-0.9,2-1.8C470.4,75.5,469.7,74.7,468.5,74.7L468.5,74.7z
		 M474.5,77.8v2.5h-1.9v2.5h1.9v6.4c0,1.8,0.3,3,1.1,3.8c0.6,0.7,1.6,1.1,2.9,1.1c1,0,2-0.2,2.5-0.4l-0.1-2.6
		c-0.4,0.1-0.7,0.1-1.3,0.1c-1.3,0-1.7-0.9-1.7-2.5v-6h3.2v-2.5h-3.2v-3.5L474.5,77.8z M482.2,80.3l4.9,12.3
		c0.1,0.3,0.2,0.5,0.2,0.7s-0.1,0.4-0.2,0.6c-0.5,0.9-1.2,1.7-1.9,2.1c-0.7,0.5-1.4,0.8-2,0.9l0.8,2.9c0.8-0.1,2.2-0.6,3.6-1.7
		c1.6-1.4,2.8-3.6,4.7-8.6l3.3-9.2H492l-2.1,7.2c-0.3,0.9-0.5,1.9-0.7,2.6h-0.1c-0.2-0.7-0.5-1.8-0.8-2.6l-2.4-7.2
		C485.9,80.3,482.2,80.3,482.2,80.3z"/>
	<path class="st6" d="M350.8,44.4c-0.9-0.9-2.5-2.5-3.7-3.6l-1,1.1c1.2,1.2,2.9,2.8,3.7,3.8L350.8,44.4z M349.2,58.7V48.1h-5.5v1.6
		h3.9v8.8c0,1.3-1,2.2-1.5,2.7c0.3,0.2,0.9,0.7,1.1,1c0.3-0.5,1-1,5.5-4.4c-0.1-0.3-0.4-0.9-0.5-1.3L349.2,58.7z M358.7,60.5V50.1
		h5.4v-1.6h-5.4v-7.9h-1.6v19.9h-6V62H366v-1.6L358.7,60.5L358.7,60.5z M380.1,40.9c-0.4,1-1.2,2.4-1.9,3.3l1.1,0.5
		c0.7-0.9,1.5-2.1,2.2-3.2L380.1,40.9z M374.2,44.2c-0.2-0.9-0.9-2.2-1.6-3.2l-1.2,0.5c0.7,1,1.3,2.4,1.6,3.2L374.2,44.2z M375.6,51
		h1.5v-3.5c1.2,0.9,2.8,2.1,3.5,2.7l0.9-1.2c-0.6-0.5-2.9-2-4.1-2.7h4.8V45h-5.1v-4.6h-1.5V45h-5.1v1.4h4.6c-1.2,1.7-3.1,3.3-4.8,4
		c0.3,0.3,0.7,0.9,0.9,1.3c1.6-0.9,3.2-2.3,4.5-3.8L375.6,51L375.6,51z M379.4,54.5c-0.5,1.4-1.4,2.5-2.4,3.4
		c-0.9-0.5-2-0.9-2.9-1.3c0.4-0.6,0.8-1.4,1.1-2.1C375.2,54.5,379.4,54.5,379.4,54.5z M380.4,59.9c-0.6-0.4-1.3-0.9-2.2-1.3
		c1.3-1.4,2.4-3.1,3-5.2l-0.9-0.4H380h-4.2c0.2-0.5,0.4-0.9,0.6-1.3l-1.5-0.3c-0.2,0.5-0.4,1-0.7,1.6H371v1.4h2.7
		c-0.5,1-1.1,1.9-1.6,2.7c1.2,0.4,2.6,1.1,3.8,1.7c-1.6,1.2-3.5,2-5.6,2.5c0.3,0.3,0.6,0.9,0.8,1.3c2.3-0.6,4.4-1.6,6.2-3
		c0.8,0.5,1.6,0.9,2.2,1.4L380.4,59.9z M389.1,46.7c-0.4,3-1,5.5-2,7.7c-1-2.3-1.7-4.9-2.2-7.7H389.1z M392.3,46.7v-1.5h-7
		c0.4-1.4,0.6-2.8,0.9-4.3l-1.5-0.2c-0.7,4.3-1.8,8.4-3.6,11c0.3,0.2,1,0.7,1.2,1c0.7-1,1.2-2.1,1.7-3.4c0.6,2.5,1.3,4.9,2.2,6.9
		c-1.4,2.4-3.3,4.2-6,5.6c0.3,0.3,0.7,1,0.9,1.3c2.6-1.4,4.5-3.1,5.9-5.4c1.2,2.2,2.8,3.9,4.8,5.1c0.3-0.4,0.7-1,1.1-1.3
		c-2.1-1.1-3.7-3-5-5.3c1.3-2.5,2.1-5.6,2.7-9.3h1.7V46.7z M429.3,40.3c-1.4,3.7-3.9,7.5-6.4,9.8c0.3,0.4,0.8,1.2,0.9,1.6
		c1-1,2-2.1,2.8-3.4V63h1.6V46c1-1.6,1.9-3.4,2.6-5.2L429.3,40.3z M432.5,52.5v-3.9h4.7v2.6c0,0.5,0,0.9,0,1.3
		C437.2,52.5,432.5,52.5,432.5,52.5z M443.5,48.6v3.9h-4.8c0-0.4,0-0.8,0-1.2v-2.6h4.8V48.6z M445.1,53.9v-6.7h-6.4v-2.5h7.2v-1.5
		h-7.2v-2.7h-1.6v2.7h-6.9v1.5h6.9v2.5H431v6.7h6c-0.2,1.4-0.5,2.8-1.4,4c-1.4-1-2.5-2.1-3.3-3.4l-1.4,0.4c0.9,1.6,2.2,3,3.7,4.1
		c-1.2,1-2.9,1.9-5.3,2.6c0.3,0.3,0.8,1,1,1.4c2.6-0.8,4.4-1.8,5.6-3.1c2.6,1.5,5.7,2.5,9.2,3c0.2-0.5,0.6-1.1,1-1.5
		c-3.5-0.4-6.7-1.3-9.2-2.7c1-1.5,1.5-3.1,1.7-4.8H445.1z M481.3,59.9V56h13.4v3.9H481.3z M494.7,50.7v3.8h-13.4v-3.8H494.7z
		 M494.7,45.3v3.9h-13.4v-3.9H494.7z M487.5,43.7c0.4-0.9,0.9-2.1,1.2-3.1l-1.8-0.3c-0.2,1-0.6,2.3-1,3.4h-6.2v19.1h1.6v-1.4h13.4
		v1.3h1.7v-19H487.5z M552.1,43.4v-1.7h-21.9v1.7h9.7c-0.3,1.2-0.5,2.6-0.9,3.7h-7.5v15.7h1.6V48.6h4.1V62h1.6V48.6h4.3V62h1.6V48.6
		h4.4v12c0,0.4-0.1,0.5-0.5,0.5s-1.6,0.1-3.1,0c0.3,0.4,0.5,1.1,0.6,1.6c1.8,0,3,0,3.7-0.3s0.9-0.7,0.9-1.8V47.1h-10.1
		c0.4-1.1,0.8-2.4,1.1-3.7C541.7,43.4,552.1,43.4,552.1,43.4z M559.4,44.8h16.5v3.3h1.7v-4.9h-8.8c-0.3-0.8-0.9-2-1.4-2.9l-1.6,0.4
		c0.4,0.7,0.9,1.7,1.2,2.5h-9.1v4.9h1.6v-3.3H559.4z M571.6,51.5c-0.8,2.1-1.9,3.8-3.4,5.1c-1.8-0.7-3.7-1.4-5.5-2
		c0.7-0.9,1.4-2,2-3.2h6.9V51.5z M578.2,51.5V50h-12.5c0.7-1.3,1.3-2.6,1.8-3.7l-1.7-0.4c-0.5,1.3-1.2,2.6-2,4.1h-6.7v1.6h5.8
		c-0.9,1.5-1.8,2.8-2.7,3.9l0,0c2.1,0.6,4.4,1.5,6.6,2.4c-2.4,1.6-5.5,2.7-9.3,3.4c0.3,0.4,0.9,1.1,1,1.5c4-0.9,7.3-2.2,9.9-4.2
		c3.1,1.4,6,2.8,7.8,4.1l1.4-1.4c-1.9-1.2-4.7-2.6-7.8-3.9c1.5-1.6,2.8-3.4,3.6-5.8L578.2,51.5L578.2,51.5z M404.2,51.1l-2.6,0.9
		v-5.1h2.8v-1.5h-2.8v-5H400v5h-3.1v1.5h3.1v5.5c-1.3,0.4-2.5,0.8-3.5,1.1l0.5,1.6l3-1v6.6c0,0.4-0.1,0.5-0.5,0.5
		c-0.3,0-1.2,0-2.3,0c0.2,0.5,0.4,1.1,0.5,1.5c1.6,0,2.5,0,3-0.3c0.6-0.3,0.8-0.7,0.8-1.7v-7.2c0.9-0.3,1.9-0.6,2.9-0.9L404.2,51.1z
		 M407.1,50.5c0-0.6,0-1.1,0-1.6v-1.2h5v2.8H407.1z M416.8,42.9v3.3h-9.7v-3.3H416.8z M416.9,60.4H409v-3.9h7.9V60.4z M419.2,51.9
		v-1.4h-5.6v-2.8h4.7v-6.2h-12.8v7.4c0,3.9-0.2,9.3-2.8,13.1c0.4,0.2,1,0.6,1.3,0.9c2.1-3,2.8-7.2,3-10.9h5v3.2h-4.5V63h1.4v-1h7.9
		v1h1.5v-7.7h-4.8v-3.2h5.7V51.9z M462.1,53.7v-4.3h6.9v4.3H462.1z M454.3,53.7c0.1-0.9,0.1-1.8,0.1-2.7v-1.6h6.1v4.3H454.3z
		 M460.5,43.7v4.2h-6.1v-4.2H460.5z M469,47.9h-6.9v-4.2h6.9V47.9z M470.7,42.1h-17.8V51c0,3.5-0.3,7.8-3,10.9
		c0.4,0.2,1,0.8,1.2,1.1c1.9-2.2,2.7-5,3.1-7.7h6.4v7.3h1.6v-7.3h6.9v5.2c0,0.5-0.2,0.6-0.6,0.6c-0.5,0-2.2,0.1-3.9,0
		c0.2,0.5,0.5,1.2,0.6,1.6c2.3,0,3.7,0,4.5-0.3s1.1-0.8,1.1-1.9V42.1H470.7z M515.2,59.6V54h6.9v5.7h-6.9V59.6z M506.7,54h6.9v5.7
		h-6.9L506.7,54L506.7,54z M513.6,46.8v5.5h-6.9v-5.5H513.6z M522.2,46.8v5.5h-6.9v-5.5H522.2z M515.2,45.1v-4.7h-1.7v4.7H505v17.7
		h1.6v-1.5h15.5v1.4h1.7V45.1H515.2z M595.1,56.4h6.7v-1.5h-6.7v-4h6.7v-1.5h-15v1.5h6.6v4h-6.5v1.5h6.5v4.2h-9.5v1.5h20.9v-1.5
		h-9.7V56.4z M594.1,40.1c-2.5,3.9-7,7.6-11.4,9.6c0.4,0.4,0.9,0.9,1.1,1.3c3.9-2,7.7-5,10.4-8.5c3.1,3.6,6.6,6.2,10.5,8.5
		c0.2-0.5,0.7-1,1.2-1.4c-4-2.2-7.7-4.8-10.7-8.4c0.1-0.2,0.3-0.4,0.4-0.6L594.1,40.1z"/>
</g>
</svg>
