<svg width="131" height="32" xmlns="http://www.w3.org/2000/svg"><defs><filter id="a"><feColorMatrix in="SourceGraphic" values="0 0 0 0 0.000000 0 0 0 0 0.000000 0 0 0 0 0.000000 0 0 0 1.000000 0"/></filter></defs><g fill="none" fill-rule="evenodd"><g transform="translate(40.889 .882)" filter="url(#a)"><path d="M.656 18.61v-1.656h3.97V6.074h10.9v10.88h4.05v1.655H.657zm.631-12.142v-4.02h7.805a10.22 10.22 0 00-.394-1.261 5.766 5.766 0 00-.157-.632l2.522-.237c.052.264.157.737.316 1.42.034.24.087.478.157.71h7.41v4.02h-2.129V4.182H3.415v2.286H1.287zm5.47 1.34v2.05h6.64v-2.05h-6.64zm0 3.547v2.05h6.64v-2.05h-6.64zm0 3.548v2.05h6.64v-2.05h-6.64zm19.756-8.905v-1.89h1.971V.48h1.973v3.626h1.733v1.891h-1.733v2.997l1.655-.552v1.262c2.47-1.209 4.388-2.812 5.755-4.81l2.128.158-.315.551a12.822 12.822 0 005.913 4.02c-.37.587-.71 1.193-1.019 1.814a19.129 19.129 0 01-2.602-1.42v1.105h-6.787v-1.018a19.636 19.636 0 01-2.443 1.576l-.632-1.104-1.653.546v5.672c0 1.42-.657 2.181-1.971 2.287-.474 0-1.078.026-1.814.079a8.404 8.404 0 01-.157-1.019 24.643 24.643 0 01-.237-1.018h1.26c.683.053.999-.21.946-.788v-4.573l-1.97.71-.238-2.208a25.35 25.35 0 002.208-.632V5.998h-1.97zm6.853 13.324v-6.701H43.85v6.701h-1.89v-.945h-6.617v.945h-1.978zm1.97-5.046v2.602h6.623v-2.602h-6.622zm3.233-7.332a12.195 12.195 0 01-2.764 2.68h5.597c-.938-.63-1.88-1.523-2.826-2.68h-.007zm-3.67-4.755h1.734v2.845h-1.727l-.007-2.845zm1.722.476l-.873 1.502-3.824-2.208.873-1.502 3.824 2.208zm-.873 1.502l-.873-1.502L38.7.457l.873 1.502-3.824 2.208zm5.056-1.977h1.734v2.845h-1.72l-.014-2.845zm1.722.476l-.872 1.503L37.83 1.96l.872-1.503 3.824 2.208zm-.872 1.503l-.873-1.503L44.605.458l.873 1.503-3.824 2.208zM6.29 28.605H5.25v-4.946l-1.564 4.946h-.534l-1.574-4.946v4.946H.746v-5.651h1.6L3.53 26.59l1.164-3.636h1.6zm4.684 0h-.899a3.412 3.412 0 01-.145-.845c-.251.62-.723.93-1.415.93a1.383 1.383 0 01-1.004-.366 1.228 1.228 0 01-.378-.92c0-.961.843-1.442 2.53-1.442h.268v-.314c0-.434-.295-.65-.885-.65-.574 0-.9.216-.978.65l-.803-.12c.046-.352.243-.666.538-.86.315-.225.77-.338 1.366-.338a3.2 3.2 0 01.792.08c.192.048.37.142.517.273.13.114.23.258.291.42.066.248.093.506.08.763v1.89c.002.288.044.574.125.849zm-1.043-2.128c-1.22 0-1.83.29-1.83.873a.605.605 0 00.185.445c.154.134.354.2.557.184a.982.982 0 00.814-.341c.18-.219.277-.494.274-.777v-.384zm5.856 2.128h-.993l-1.065-2.141-.928 1.038v1.106H11.9v-5.651h.902v3.507a4.88 4.88 0 01.19-.236l1.653-1.8h1.018l-1.258 1.383 1.383 2.794zm3.083-1.332l.852.116a1.785 1.785 0 01-.646.935 1.921 1.921 0 01-1.204.368 1.8 1.8 0 01-1.4-.582c-.352-.387-.529-.915-.529-1.58-.02-.572.17-1.13.534-1.57a1.81 1.81 0 011.454-.621c.597 0 1.058.204 1.384.612a2.44 2.44 0 01.488 1.574v.108H16.93c-.007.23.02.46.08.683a.935.935 0 00.922.637.93.93 0 00.939-.68zm-.059-1.251a1.052 1.052 0 00-.27-.738.873.873 0 00-.66-.29.873.873 0 00-.65.267 1.204 1.204 0 00-.302.766l1.882-.005zm10.293-3.068l-1.511 5.65h-1.064l-1.126-4.156-1.018 4.157H23.33l-1.544-5.651h1.08l1.093 4.12 1.018-4.12h1.031l1.126 4.12 1.072-4.12zm1.972 5.738c-.618 0-1.09-.222-1.415-.666a2.518 2.518 0 01-.489-1.527 2.26 2.26 0 01.54-1.545c.358-.41.882-.637 1.427-.617a1.775 1.775 0 011.38.601c.372.432.566.99.541 1.56 0 .66-.187 1.19-.561 1.592a1.86 1.86 0 01-1.423.602zm.034-.778c.635 0 .952-.473.952-1.42a1.926 1.926 0 00-.228-1.018.764.764 0 00-.7-.37.793.793 0 00-.727.382 1.921 1.921 0 00-.236 1.018c0 .456.084.803.25 1.043.149.236.41.376.689.37v-.005zm3.674.691h-.944v-4.178h.852v.998c.083-.325.257-.62.5-.852a1.01 1.01 0 01.655-.27h.124v1.019c-.485 0-.803.153-.954.46a1.965 1.965 0 00-.235.89l.002 1.933zm5.632 0h-.994l-1.067-2.141-.928 1.038v1.106h-.902v-5.651h.902v3.507a4.88 4.88 0 01.19-.236l1.657-1.8h1.018l-1.258 1.383 1.382 2.794zm5.691 0h-3.672v-5.651h3.636v.84h-2.618v1.532h2.103v.82h-2.103v1.582h2.654zm4.316 0h-.899a3.412 3.412 0 01-.145-.845c-.251.62-.723.93-1.416.93a1.383 1.383 0 01-1.003-.366 1.228 1.228 0 01-.378-.92c0-.961.843-1.442 2.53-1.442h.268v-.314c0-.434-.295-.65-.886-.65-.574 0-.9.216-.977.65l-.803-.12c.046-.352.242-.666.538-.86.314-.225.77-.338 1.366-.338a3.2 3.2 0 01.791.08c.193.048.37.142.518.273.13.114.23.258.291.42.065.248.092.506.08.763v1.89c.002.288.044.574.125.849zm-1.043-2.128c-1.22 0-1.83.29-1.83.873a.605.605 0 00.185.445c.153.134.354.2.557.184a.982.982 0 00.813-.341c.18-.219.278-.494.275-.777v-.384zm1.455 1.168l.886-.17c.134.34.433.509.894.509.582 0 .873-.173.873-.518a.333.333 0 00-.137-.273.75.75 0 00-.323-.146l-.753-.147c-.845-.163-1.267-.575-1.267-1.238a1.26 1.26 0 01.394-.944c.268-.258.667-.387 1.197-.387.884 0 1.423.325 1.619.974l-.84.17c-.089-.314-.34-.472-.754-.472-.502 0-.754.158-.754.472 0 .218.203.368.608.45l.9.187c.697.143 1.047.543 1.047 1.2a1.14 1.14 0 01-.539 1.033 2.333 2.333 0 01-1.28.341 2.404 2.404 0 01-1.134-.259 1.235 1.235 0 01-.637-.782zm7.403-3.218l-1.627 4.761a1.63 1.63 0 01-.408.68 1.028 1.028 0 01-.727.244c-.124 0-.305-.01-.542-.03v-.748l.45.008a.796.796 0 00.437-.097c.11-.088.19-.21.225-.346a1.73 1.73 0 00.083-.291 1.914 1.914 0 00-.087-.256l-1.44-3.925h.99l1.017 2.764.873-2.764h.756zm6.735.808l.836.145a4.007 4.007 0 01-.992 2.102c.12.146.263.273.422.377.102.047.213.07.324.067.082-.002.164-.01.245-.02v.779l-.387.009a1.513 1.513 0 01-.623-.11 2.486 2.486 0 01-.625-.487 3.072 3.072 0 01-1.82.595 2.247 2.247 0 01-1.52-.503 1.577 1.577 0 01-.582-1.242c.002-.318.097-.629.274-.893.182-.283.574-.558 1.175-.825-.324-.381-.486-.733-.486-1.056a1.09 1.09 0 01.408-.882 1.581 1.581 0 011.044-.338 1.68 1.68 0 011.07.325c.274.212.429.543.415.89a1.24 1.24 0 01-.282.761 1.87 1.87 0 01-.803.582l1.207 1.379c.376-.48.617-1.051.7-1.655zm-2.79.612c-.555.25-.832.598-.832 1.044a.89.89 0 00.324.72c.231.187.522.283.818.272a1.903 1.903 0 001.146-.395l-1.456-1.64zm.425-.938c.473-.194.71-.436.71-.727a.447.447 0 00-.172-.371.634.634 0 00-.404-.136.66.66 0 00-.415.137.436.436 0 00-.177.357c0 .234.15.481.452.74h.006zm9.409 3.696H71V26.15h-2.157v2.455h-1.018v-5.651h1.018v2.327H71v-2.327h1.018zm4.681 0h-.899a3.412 3.412 0 01-.145-.845c-.251.62-.723.93-1.416.93a1.383 1.383 0 01-1.003-.366 1.228 1.228 0 01-.378-.92c0-.961.843-1.442 2.529-1.442h.27v-.314c0-.434-.296-.65-.887-.65-.574 0-.9.216-.977.65l-.803-.12c.046-.352.242-.666.538-.86.314-.225.77-.338 1.366-.338a3.2 3.2 0 01.791.08c.193.048.37.142.518.273.13.114.23.258.29.42.066.248.093.506.08.763v1.89c.003.288.045.574.126.849zm-1.043-2.128c-1.22 0-1.83.29-1.83.873a.605.605 0 00.185.445c.153.134.354.2.557.184a.982.982 0 00.813-.341c.18-.219.278-.494.275-.777v-.384zm2.924 3.54h-.96v-5.59h.902v.728c.29-.544.717-.816 1.28-.816.45-.007.871.222 1.11.605.292.46.437 1 .414 1.545a2.95 2.95 0 01-.396 1.544c-.237.425-.692.68-1.178.66a1.236 1.236 0 01-1.172-.671v1.995zm0-3.126c-.01.277.087.548.27.755a.801.801 0 00.602.3c.28.013.54-.143.66-.396a2.14 2.14 0 00.21-1.003 2.217 2.217 0 00-.21-1.037.676.676 0 00-.636-.399.794.794 0 00-.64.327c-.185.247-.278.55-.264.857l.008.596zm4.481 3.126h-.96v-5.59h.902v.728c.29-.544.718-.816 1.28-.816.45-.007.872.222 1.11.605.292.46.437 1 .414 1.545a2.95 2.95 0 01-.395 1.549 1.29 1.29 0 01-1.178.659 1.236 1.236 0 01-1.173-.671v1.991zm0-3.126c-.01.277.087.548.27.755a.801.801 0 00.603.3c.28.013.54-.143.66-.396a2.14 2.14 0 00.21-1.003 2.217 2.217 0 00-.211-1.037.676.676 0 00-.63-.4.794.794 0 00-.64.327c-.184.246-.278.55-.263.857l.001.597zm6.533-2.464l-1.628 4.761a1.63 1.63 0 01-.407.68 1.028 1.028 0 01-.728.244c-.124 0-.305-.01-.542-.03v-.748l.45.008a.796.796 0 00.437-.097c.11-.088.19-.21.226-.346a1.73 1.73 0 00.082-.291 1.914 1.914 0 00-.087-.256l-1.437-3.927h.99l1.017 2.763.873-2.763.754.002zm-33.016-5.381v-4.7l-4.091-6.468h2.643l2.628 4.419 2.574-4.42h2.598l-4.109 6.48v4.689zm6.88-9.192v-1.98h2.141v1.98h-2.14zm0 9.187v-8.09h2.141v8.095l-2.14-.005zM67.8 7.873h4.12c.929 0 1.637.072 2.125.214a3.735 3.735 0 011.683 1.028 4.883 4.883 0 011.066 1.81c.264.854.387 1.746.365 2.64a7.34 7.34 0 01-.343 2.377 4.922 4.922 0 01-1.196 1.972 3.965 3.965 0 01-1.584.892 6.825 6.825 0 01-1.994.24h-4.243V7.873zm2.254 1.891v7.39h1.683c.457.016.915-.02 1.364-.105.337-.077.65-.237.91-.466.242-.218.439-.577.591-1.078.152-.5.228-1.182.228-2.045s-.076-1.526-.228-1.988c-.12-.409-.34-.78-.64-1.082a2.147 2.147 0 00-1.044-.527c-.315-.07-.933-.106-1.852-.106l-1.012.007zm19.091 9.282h-2.453l-.974-2.537h-4.466l-.92 2.537h-2.393l4.35-11.168h2.384l4.472 11.168zm-4.152-4.42l-1.539-4.148-1.507 4.144 3.046.005z" fill="#FFF" fill-rule="nonzero"/></g><g fill="#0089FF" fill-rule="nonzero"><path d="M1.78 0A1.78 1.78 0 000 1.773v6.791c.13.042.256.096.375.163l10.461 6.047L21.3 8.727a2.003 2.003 0 012.736.728l1.084 1.89a2.003 2.003 0 01-.728 2.736L13.964 20.1v11.748H30.08a1.78 1.78 0 001.78-1.78V1.773A1.78 1.78 0 0030.074 0H1.78z"/><path d="M7.855 20.183L0 15.648v14.42a1.78 1.78 0 001.78 1.787h6.08v-.112l-.005-11.56z"/></g></g></svg>