<?xml version="1.0" encoding="utf-8"?>
<!-- Generator: Adobe Illustrator 24.0.1, SVG Export Plug-In . SVG Version: 6.00 Build 0)  -->
<svg version="1.1" id="图层_1" xmlns="http://www.w3.org/2000/svg" xmlns:xlink="http://www.w3.org/1999/xlink" x="0px" y="0px"
	 viewBox="0 0 320 40" style="enable-background:new 0 0 320 40;" xml:space="preserve">
<style type="text/css">
	.st0{fill-rule:evenodd;clip-rule:evenodd;fill:#F44040;}
	.st1{opacity:0.4624;fill:#4D668A;enable-background:new    ;}
	.st2{fill-rule:evenodd;clip-rule:evenodd;fill:#2E8AF1;}
	.st3{fill-rule:evenodd;clip-rule:evenodd;fill:#FFFFFF;}
</style>
<g id="编组_1_" transform="translate(0.000000, 0.000000)">
	<path id="形状结合" class="st0" d="M82.1,13.3l-1.4,13.7c-0.2,1.8-1.7,3.2-3.6,3.2h-0.3l1.8-17H82.1z M97.5,13.3l-1.8,17h-0.4
		c-1.7,0-3-1.5-2.8-3.2L94,13.3H97.5z M90.2,9.5L88,30.3h-3.6l2.2-20.8H90.2z M69.6,13.3l-0.9,8.2h-5.4L63.1,23h6.5
		c1.4,0,2.5,1.2,2.3,2.6l0,0l-0.5,4.7H68l0.6-5.2h-5.7l-0.3,3.3h3.6L66,30.2H54.8l0.2-1.8h3.5l0.3-3.3h-5.4l-0.6,5.2h-3.3l0.5-5.2
		c0.1-1.2,1.1-2.1,2.3-2.1l0,0H59l0.1-1.5h-5.2l0.9-8.2H69.6z M121.2,27.1c1.7,0,3,1.5,2.7,3.2l0,0h-22.7l0.4-3.2H121.2z M59.5,18.4
		h-2l-0.1,1.3h2L59.5,18.4z M65.5,18.4h-1.9l-0.1,1.3h1.9L65.5,18.4z M59.8,15.2h-2l-0.2,1.3h2L59.8,15.2z M65.9,15.2h-1.9l-0.2,1.3
		h1.9L65.9,15.2z M64.6,9.3l-0.1,0.5h6.7c1.3,0,2.2,1.1,2.1,2.3l0,0L73,15.5h-2.7l0.4-3.3H54l-0.4,3.3H51l0.4-3.9
		c0.1-1.1,1-1.9,2.1-1.9l0,0h6.9l0.1-0.5H64.6z M120,10.9c1.7,0,3,1.5,2.8,3.2l0,0h-19.9l0.4-3.2H120z"/>
	<path id="Fill-15" class="st0" d="M29.3,24.3h-1.6l-1.3-1.4C26,22.4,25.6,22,25,21.7c-0.9-0.6-1.9-1-3-1.3c0,0,0,0,0,0c0,0,0,0,0,0
		c-0.4-0.1-0.9-0.1-0.9-0.1l0-1.1c0,0,0-0.1,0-0.1c0-0.5,0-1.1,0-1.7h0v-2.1c0.9-0.4,1.5-1.3,1.5-2.3c0-1.4-1.1-2.5-2.5-2.5h0
		c-1.4,0-2.5,1.1-2.5,2.5c0,1,0.6,1.9,1.5,2.3v2.1h0c0,0.5,0,1.1,0,1.7c0,0,0,0.1,0,0.1l0,1.1c0,0-0.5,0-0.9,0.1c0,0,0,0,0,0
		c0,0,0,0,0,0c-1.1,0.3-2.1,0.7-3,1.3c-0.5,0.4-1,0.8-1.5,1.2l-1.3,1.4h-1.6c-2.2,0.2-3.9,2-3.9,4.2V29c0,2.1,1.7,3.8,3.8,3.8H20
		h9.4c2.1,0,3.8-1.7,3.8-3.8v-0.4C33.3,26.3,31.5,24.5,29.3,24.3"/>
	<g id="Fill-17">
		<path class="st0" d="M35.9,29c0,3.6-2.9,6.5-6.5,6.5H20h-9.4c-3.6,0-6.5-2.9-6.5-6.5v-0.4c0-3.6,2.8-6.6,6.4-6.9l0.1,0h0.6
			c0,0,0,0,0,0l0,0c0.1-0.1,0.2-0.3,0.3-0.4l0.1-0.1l0,0c1.3-1.4,3-2.4,4.8-3v-2.1c-0.8-0.8-1.3-1.8-1.3-3.1c0-2.7,2.2-4.9,4.8-4.9
			v0h0c0,0,0,0,0,0c0,0,0,0,0,0h0v0c2.7,0,4.8,2.2,4.8,4.9c0,1.3-0.5,2.3-1.3,3.1v2.1c1.8,0.6,3.4,1.6,4.8,3l0,0l0.1,0.1
			c0.1,0.1,0.2,0.2,0.3,0.4l0,0c0,0,0,0,0,0h0.6l0.1,0c3.6,0.2,6.4,3.2,6.4,6.9V29z M32,0H8C3.6,0,0,3.6,0,8v24c0,4.4,3.6,8,8,8h24
			c4.4,0,8-3.6,8-8V8C40,3.6,36.4,0,32,0L32,0z"/>
	</g>
</g>
<g>
	<path id="X" class="st1" d="M139,26.7c0.5,0.4,0.9,0.4,1.3-0.1c1.3-1.6,2.7-3.2,4-4.7c0.3-0.3,0.5-0.3,0.8-0.1l0,0l3.8,4.5
		c0.2,0.3,0.4,0.5,0.6,0.5c0.5,0.1,0.9-0.1,1.2-0.6c0.1-0.3,0.1-0.5,0-0.7c-0.1-0.2-0.3-0.4-0.5-0.7c-1.3-1.5-2.6-3.1-3.9-4.6
		c-0.2-0.2-0.2-0.5,0.1-0.8c1.3-1.5,2.5-3,3.8-4.5c0.3-0.3,0.4-0.6,0.3-0.9c-0.1-0.2-0.2-0.4-0.5-0.5c-0.5-0.3-1-0.1-1.5,0.5l0,0
		l-3.3,4c-0.2,0.3-0.5,0.3-0.7,0l0,0l-3.2-3.8c-0.5-0.8-1-1-1.6-0.7c-0.5,0.4-0.6,0.8-0.3,1.3l0,0l3.9,4.7c0.2,0.3,0.2,0.5,0,0.8
		l0,0l-4.4,5.1C138.5,26,138.6,26.3,139,26.7z"/>
	<g id="编组_2_" transform="translate(162.888630, 0.000000)">
		<path id="Fill-1" class="st2" d="M39.9,12.6c0-0.4,0-0.9,0-1.5c0-0.6,0-0.9,0-1.2c0-0.9-0.1-1.8-0.2-2.6c-0.2-0.9-0.4-1.7-0.8-2.5
			c-0.4-0.8-1-1.5-1.6-2.1C36.7,2,35.9,1.5,35.1,1c-0.8-0.4-1.6-0.6-2.5-0.8C31.8,0.1,30.9,0,30,0c-0.3,0-0.6,0-1.2,0
			c-0.6,0-1.1,0-1.5,0H12.5c-0.4,0-0.9,0-1.5,0c-0.6,0-0.9,0-1.2,0C9,0,8.1,0.1,7.3,0.3C6.4,0.4,5.6,0.6,4.8,1C4,1.5,3.3,2,2.6,2.6
			C2,3.3,1.5,4,1.1,4.8C0.6,5.6,0.4,6.4,0.3,7.3C0.1,8.1,0,9,0,9.9c0,0.3,0,0.6,0,1.2c0,0.6,0,1.1,0,1.5v14.8c0,0.4,0,0.9,0,1.5
			c0,0.6,0,0.9,0,1.2c0,0.9,0.1,1.8,0.2,2.6c0.2,0.9,0.4,1.7,0.8,2.5c0.4,0.8,1,1.5,1.6,2.1c0.6,0.6,1.3,1.2,2.1,1.6
			c0.8,0.4,1.6,0.6,2.5,0.8c0.8,0.2,1.7,0.2,2.6,0.2c0.3,0,0.6,0,1.2,0c0.6,0,1.1,0,1.5,0h14.8c0.4,0,0.9,0,1.5,0c0.6,0,0.9,0,1.2,0
			c0.9,0,1.8-0.1,2.6-0.2c0.9-0.2,1.7-0.4,2.5-0.8c0.8-0.4,1.5-1,2.1-1.6c0.6-0.6,1.2-1.3,1.6-2.1c0.4-0.8,0.6-1.6,0.8-2.5
			c0.2-0.8,0.2-1.7,0.2-2.6c0-0.3,0-0.6,0-1.2c0-0.6,0-1.1,0-1.5V12.6z"/>
		<path id="形状结合_1_" class="st3" d="M20,5.6c0.3,0,0.5,0,0.8,0c7.9,0.5,14,7.3,13.6,15.2c-0.4,7.6-6.7,13.6-14.4,13.6
			c-0.3,0-0.6,0-0.8,0c-3.8-0.2-7.4-1.9-9.9-4.8C6.7,26.7,5.4,23,5.6,19.2C6,11.6,12.4,5.6,20,5.6z M20,8.2
			c-6.3,0-11.4,4.9-11.8,11.2c-0.2,3.2,0.9,6.2,3,8.6c2.1,2.4,5,3.8,8.2,3.9c0.2,0,0.5,0,0.7,0c6.3,0,11.4-4.9,11.8-11.2
			c0.4-6.5-4.6-12.1-11.1-12.5C20.4,8.2,20.2,8.2,20,8.2z M19.8,21.9c0.9-0.2,1.5-0.1,1.8,0c0.8,0.1,0.8,0.8,0.8,1.3
			c0,0.8-0.3,1.2,0.4,3.7c0.2,0.9,0.2,2.2-1,2.7c-1.3,0.6-2.3,0.5-3.2,0.2c-2.9-0.8-2.4-4.4-1.3-6.2C18.2,22.4,19,22.1,19.8,21.9z
			 M20.8,11c4.7,0,7.2,3.8,7.4,6.6c0.2,3.6-0.7,3.8-1.9,3.8l-0.3,0c-0.7-0.1-2.9-0.4-5.9-0.5c-3-0.1-5.4,0-6.1,0l-0.1,0
			c0,0-0.1,0-0.1,0c-2.4,0.3-2.5-1.3-2.4-2.2C11.7,13.9,16.1,11,20.8,11z"/>
	</g>
	<path id="形状结合_2_" class="st2" d="M293.8,8l1.6,1.8l-2.2,1.9v19.5h-2.4V13.7l-1.3,1.2l-1.6-1.8L293.8,8z M303.4,8v10.4h7
		v2.4h-7v3.6h7v2.4h-7v4.4H301v-4.4h-7v-2.4h7v-3.6h-7v-2.4h7V8H303.4z M227.3,11.4v0.9h8.1v2h-3.7v0.9h3.1v1.9h-3.1v0.4
		c2,0.5,3.3,2.1,3.6,4.1l0,0.2h-1.9c-0.1-0.7-0.6-1.5-1.5-2l-0.2-0.1v2.1h-2.1v-2.4c-0.9,0-1.5,0.2-2.2,1c-0.3,0.3-0.7,1-0.9,1.3
		c-0.2-0.4-0.6-1-0.9-1.3c-0.7-0.7-1.3-0.9-2.1-1l-0.2,0v2.4H221v-2.2c-0.7,0.3-1.2,1-1.5,2l-0.1,0.2h-2c0.4-2.3,1.6-3.7,3.4-4.2
		l0.2-0.1v-0.4h-3.1v-1.9h3.1v-0.9h-2.5c-0.7,0-1.3,0.5-1.4,1.3l0,0.2l-0.5,10.9c1.7-0.8,2.9-1.5,4-2.4l0.2-0.2h-3.4v-1.8h17.9V24
		h-11.7c-0.3,0.4-0.5,0.6-0.9,0.9l-0.2,0.2h9.7c1.1,0,2.1,1,2.1,2.1l0,0.2v1.4c0,1.2-0.9,2.2-2,2.3l-0.2,0h-10.7
		c-1.1,0-2.1-1-2.2-2.1l0-0.2v-1.5c-0.5,0.3-0.9,0.5-1.4,0.8l-0.5,0.3l-0.8-1.4l-0.2,4.4l-2.2-0.1l0.7-15.8c0.1-1.6,1.3-2.9,2.8-3
		l0.2,0h6.6v-0.9H227.3z M269.3,8l1.6,1.8l-2.2,1.9v19.5h-2.4V13.7l-1.3,1.2l-1.6-1.8L269.3,8z M276.4,8l2.4,0
		c0,4.5-0.1,7.7-0.5,10.5l-0.1,0.4l7.7,11.1l-2.1,1.2l-6.3-8.8c-0.8,3.6-2.4,5.9-5.9,8.5l-0.3,0.3l-1.8-1.4
		C275.5,24.7,276.1,21.4,276.4,8z M255.9,14.1v2.5h4.7v2.1h-4.7v2.5h1.7c1.6,0,3,1.4,3.1,3l0,0.2V28c0,1.7-1.3,3.1-2.9,3.2l-0.2,0
		h-5.5c-1.6,0-2.9-1.4-3-3l0-0.2v-3.5c0-1.7,1.2-3.1,2.9-3.2l0.2,0h1.4v-2.5h-4.1v-2.1h4.1v-2.5H255.9z M243.7,14.1l-0.3,2.5h5.6
		v2.1h-1.1c0,4.7,0,6.2-2.1,8.5l-0.2,0.2l3.4,1.8l-1,1.9l-4-2.2c-1,0.7-2.3,1.3-3.9,2.1l-0.4,0.2l-0.9-1.7c1.3-0.6,2.4-1.3,3.3-1.9
		c-1.7-1-1.8-2.1-1.8-3.5c0-0.5,0-0.9,0.1-1.2l0-0.3v0l0.5-3.9h-1.9v-2.1h2.1l0.2-2.5H243.7z M231.8,27.1h-9.8
		c-0.3,0-0.5,0.2-0.5,0.4l0,0.1v0.9c0,0.2,0.2,0.4,0.4,0.4l0.1,0h9.8c0.2,0,0.4-0.2,0.5-0.4l0-0.1v-0.9
		C232.2,27.3,232,27.1,231.8,27.1z M257.2,23.6h-4.6c-0.6,0-1.1,0.5-1.1,1.1l0,0.1v2.9c0,0.7,0.5,1.2,1,1.2l0.1,0h4.6
		c0.6,0,1.1-0.5,1.2-1.1l0-0.1v-2.9C258.3,24.1,257.8,23.6,257.2,23.6z M245.6,18.6l-2.4,0.1l-0.5,4c0,0.5-0.1,1-0.1,1.4
		c0,0.8-0.3,1.2,0.6,1.8l0.1,0.1l0.4,0.3C246,24,245.6,23,245.6,18.6z M272.5,10.7c0.3,3.8,1,5.5,2.3,8.3l0.2,0.3l-2.3,0.9
		c-1.4-3.1-2.1-4.9-2.4-8.8l0-0.5L272.5,10.7z M281.5,10.7l2.3,0.3c-0.3,4.1-0.9,5.9-2.3,8.9l-0.2,0.4l-2.3-0.9
		C280.5,16.3,281.2,14.7,281.5,10.7z M229.6,14.3h-6.4v0.9h2.9v1.9h-2.9v0.3c1.3,0.1,2.3,0.5,3.2,1.4c0.9-0.9,1.8-1.2,2.9-1.4l0.2,0
		v-0.3h-2.6v-1.9h2.6V14.3z M297.7,10c0.3,2.7,1,3.9,2.3,5.9l0.2,0.3l-2.3,0.6c-1.4-2.2-2.1-3.5-2.4-6.3l0-0.4L297.7,10z M306.7,10
		l2.3,0.2c-0.3,2.9-0.9,4.2-2.3,6.3l-0.2,0.3l-2.3-0.6C305.7,14.1,306.4,12.9,306.7,10z M245.7,8v1.7h7.6V8h2.5v1.7h4.8v2h-4.8v1.8
		h-2.5v-1.8h-7.6v1.8h-2.4v-1.8h-4.5v-2h4.5V8H245.7z M220.8,8v1.1h9.1V8h2.1v1.1h4.1V11H232v1.1h-2.1V11h-9.1v1.1h-2.1V11h-4.4V9.1
		h4.4V8H220.8z"/>
</g>
</svg>
