<?xml version="1.0" encoding="utf-8"?>
<!-- Generator: Adobe Illustrator 23.0.1, SVG Export Plug-In . SVG Version: 6.00 Build 0)  -->
<svg version="1.1" id="图层_1" xmlns="http://www.w3.org/2000/svg" xmlns:xlink="http://www.w3.org/1999/xlink" x="0px" y="0px"
	 viewBox="0 0 108 40" style="enable-background:new 0 0 108 40;" xml:space="preserve">
<style type="text/css">
	.st0{fill-rule:evenodd;clip-rule:evenodd;fill:#F24141;}
	.st1{fill-rule:evenodd;clip-rule:evenodd;fill:#646464;}
	.st2{fill-rule:evenodd;clip-rule:evenodd;fill:#FFFFFF;}
</style>
<title>img_logo xiaoyun</title>
<desc>Created with Sketch.</desc>
<g id="Welcome">
	<g id="Desktop-HD" transform="translate(-190.000000, -21.000000)">
		<g id="nov_navigation">
			<g id="img_logo-xiaoyun" transform="translate(190.000000, 21.000000)">
				<path id="Fill-1" class="st0" d="M35.3,40H5.4c-3,0-5.4-2.4-5.4-5.3V5.6c0-2.9,2.4-5.3,5.4-5.3h29.9c3,0,5.4,2.4,5.4,5.3v29.1
					C40.7,37.6,38.2,40,35.3,40"/>
				<g id="xiaoyun" transform="translate(48.000000, 30.000000)">
					<path id="Fill-3" class="st1" d="M6.4,5.9L6.4,5.9v-5c0,0,0-0.1,0.1-0.1h0.9c0,0,0.1,0,0.1,0.1v4.9c0,0,0,0.1-0.1,0.1H6.4z"/>
					<path id="Fill-5" class="st1" d="M11.5,1.7c0,0-0.1,0-0.1,0.1l-0.9,1.9v0.1h0.1h1.8h0.1V3.7l-0.9-1.9
						C11.6,1.7,11.6,1.7,11.5,1.7z M13.6,5.9C13.6,5.9,13.5,5.9,13.6,5.9L13,4.8l-0.1-0.1H10c0,0-0.1,0-0.1,0.1L9.4,5.9
						c0,0,0,0-0.1,0H8.5c0,0,0,0-0.1,0c0,0,0,0,0-0.1l2.5-5c0,0,0,0,0.1,0h1.1h0.1l2.4,5c0,0,0,0,0,0.1c0,0,0,0-0.1,0H13.6z"/>
					<path id="Fill-7" class="st1" d="M17.6,1.7c-1,0-1.9,0.7-1.9,1.6s0.9,1.6,1.9,1.6c1.1,0,1.9-0.7,1.9-1.6
						C19.6,2.4,18.7,1.7,17.6,1.7 M17.6,5.9c-1.7,0-3.1-1.1-3.1-2.6c0-1.4,1.4-2.6,3.1-2.6s3.1,1.2,3.1,2.6S19.3,5.9,17.6,5.9"/>
					<path id="Fill-9" class="st1" d="M22.8,5.9l-0.1-2l0,0l-2-3V0.8c0,0,0,0,0.1,0h1.1H22l1.3,2h0.1c0,0,0.1,0,0.1-0.1l1.2-1.9
						c0,0,0,0,0.1,0l1.3,0l-2,3l0,0v2.1C24.1,5.9,22.7,5.9,22.8,5.9z"/>
					<path id="Fill-11" class="st1" d="M29.4,5.9c-1.7,0-2.6-0.7-2.6-2v-3c0,0,0-0.1,0.1-0.1h1c0,0,0.1,0,0.1,0.1v3
						c0,0.6,0.2,1.2,1.4,1.2c1,0,1.4-0.3,1.4-1.2v-3c0,0,0-0.1,0.1-0.1h1c0,0,0.1,0,0.1,0.1v3C32,5.2,31.1,5.9,29.4,5.9"/>
					<path id="Fill-13" class="st1" d="M37.2,5.9C37.1,5.9,37.1,5.9,37.2,5.9L34,2.1v3.7c0,0,0,0.1-0.1,0.1h-0.8c0,0-0.1,0-0.1-0.1
						V0.9c0,0,0-0.1,0.1-0.1h1.3c0,0,0,0,0.1,0l2.8,3.3V0.9c0,0,0-0.1,0.1-0.1h0.8c0,0,0.1,0,0.1,0.1v4.9c0,0,0,0.1-0.1,0.1H37.2z"
						/>
					<path id="Fill-17" class="st1" d="M43,5.9c-1.5,0-2.8-1.2-2.8-2.6s1.2-2.6,2.8-2.6c0.9,0,1.8,0.4,2.3,1.2c0,0,0,0,0,0.1l0,0
						c-0.3,0.2-0.4,0.2-0.8,0.4l0,0c0,0,0,0-0.1,0C44.1,2,43.5,1.7,43,1.7c-1,0-1.7,0.7-1.7,1.6s0.8,1.6,1.7,1.6
						c0.6,0,1.1-0.3,1.4-0.7h0.1l0,0c0.2,0.1,0.6,0.2,0.8,0.3l0,0c0,0,0,0,0,0.1C44.8,5.4,44,5.9,43,5.9"/>
					<path id="Fill-19" class="st1" d="M49.4,1.7c-1,0-1.9,0.7-1.9,1.6s0.9,1.6,1.9,1.6c1.1,0,1.9-0.7,1.9-1.6
						C51.4,2.4,50.5,1.7,49.4,1.7 M49.4,5.9c-1.7,0-3.1-1.1-3.1-2.6c0-1.4,1.4-2.6,3.1-2.6c1.7,0,3.1,1.2,3.1,2.6S51.1,5.9,49.4,5.9
						"/>
					<path id="Fill-21" class="st1" d="M58.7,5.8C58.6,5.8,58.6,5.8,58.7,5.8l-0.1-3.4c0-0.1-0.1-0.1-0.1-0.1s-0.1,0-0.1,0.1
						l-1.3,2.2c0,0,0,0-0.1,0h-0.8h-0.1l-1.2-2.2l-0.1-0.1c-0.1,0-0.1,0-0.1,0.1v3.4c0,0,0,0.1-0.1,0.1h-1c0,0-0.1,0-0.1-0.1l0-4.9
						c0,0,0-0.1,0.1-0.1h1.5h0.1c0,0,1,1.6,1.3,2.2c0.1,0.2,0.1,0.2,0.2,0L58,0.8c0,0,0,0,0.1,0h1.5c0,0,0.1,0,0.1,0.1v4.9
						c0,0,0,0.1-0.1,0.1L58.7,5.8L58.7,5.8z"/>
					<path id="Fill-23" class="st1" d="M4.1,5.9L4.1,5.9L2.9,4.2H2.8H2.7L1.5,5.9c0,0,0,0-0.1,0H0.3H0.2V5.8L2,3.3V3.2L0.4,0.9V0.8
						c0,0,0,0,0.1,0h1.1c0,0,0,0,0.1,0l1,1.4h0.1h0.1l1-1.4c0,0,0,0,0.1,0h1.1h0.1v0.1L3.5,3.2v0.1l1.8,2.5v0.1c0,0,0,0-0.1,0H4.1z"
						/>
					<circle class="st1" cx="39.5" cy="5.4" r="0.5"/>
				</g>
				<g id="小云" transform="translate(48.000000, 5.000000)">
					<path id="Fill-27" class="st1" d="M0.2,17.6L3.5,3.4c0-0.1,0.2-0.2,0.3-0.2H6c0.1,0,0.2,0,0.3,0.1c0.1,0.1,0.1,0.2,0.1,0.3
						L3.3,16.8c-0.1,0.5-0.5,0.8-1,0.8C2.3,17.6,0.2,17.6,0.2,17.6z"/>
					<path id="Fill-29" class="st1" d="M24.8,17.6c-0.5,0-0.9-0.3-1-0.8L20.7,3.6c0-0.1,0-0.2,0.1-0.3s0.2-0.1,0.3-0.1h2.2
						c0.1,0,0.3,0.1,0.3,0.2l3.3,14.2H24.8z"/>
					<path id="Fill-31" class="st1" d="M35.7,21.7c-0.5,0-1-0.3-1.3-0.7c-0.3-0.4-0.3-1,0-1.4l5-9.4l-0.1-0.1h-6.8
						c-0.3,0-0.5-0.2-0.5-0.5V7.8c0-0.3,0.2-0.5,0.5-0.5h25.6c0.3,0,0.5,0.2,0.5,0.5v1.7c0,0.3-0.2,0.5-0.5,0.5H43h-0.1l-4.6,8.7
						l0.1,0.1h13.9l0.1-0.1l-2.8-5.3h2.1c0.9,0,1.6,0.5,2,1.2l2.6,4.9c0.2,0.4,0.2,1,0,1.4c-0.3,0.4-0.7,0.8-1.3,0.8H35.7z"/>
					<path id="Fill-33" class="st1" d="M12.5,22.7V0.6c0-0.3,0.4-0.5,0.7-0.5H15c0.3,0,0.6,0.2,0.6,0.5v19.9c0,1.2-1,2.1-2.2,2.1
						h-0.9V22.7z"/>
					<path id="Fill-25" class="st1" d="M36.9,3.2c-1,0-1.8-0.9-1.8-2V0.1h20.5v1.1c0,1.1-0.8,2-1.8,2H36.9z"/>
				</g>
				<path id="合并形状" class="st2" d="M35.9,23.1c0,2-1,3.8-2.4,4.9c-2.7,2.3-7.5,3.8-13,3.8c-5.6,0-10.5-1.6-13.1-4
					C6,26.7,5.1,25,5.1,23.1c0-3.5,2.8-6.2,6.4-6.2c0.1,0,0.2,0,0.2,0c0.1-0.8,0.3-1.6,0.6-2.3c0.1-0.3,0.2-0.5,0.4-0.8
					c0.3-0.6,0.8-1.2,1.2-1.7c1.6-1.8,4-2.8,6.6-2.8c4.5,0,8.2,3.3,8.8,7.6c0.1,0,0.2,0,0.3,0C33.1,16.9,35.9,19.6,35.9,23.1z
					 M27.4,24.5c0.4-0.4,0.4-1.2,0-1.6c-0.5-0.5-1.2-0.4-1.7,0.1c-1.6,2.1-4.1,3.5-6.9,3.5c-2.5,0-4.7-1.1-6.3-2.8
					c0,0-0.1-0.1-0.1,0c-0.1,0-0.2,0.1-0.2,0.2s0,0.1,0,0.1c1.9,2.3,4.6,3.7,7.7,3.7C23,27.7,25.5,26.5,27.4,24.5z"/>
			</g>
		</g>
	</g>
</g>
</svg>
