<svg width="500" height="300" viewBox="0 0 500 300" fill="none" xmlns="http://www.w3.org/2000/svg">
<path d="M277.703 115.291H295.691V106.641H277.703H266.902V115.291V124.59V133.245V149.892H277.703V133.245H293.896V124.59H277.703V115.291Z" fill="black"/>
<path d="M257.307 106.641H247.711V149.892H257.307V106.641Z" fill="black"/>
<path d="M310.084 106.641H300.488V149.892H310.084V106.641Z" fill="black"/>
<path d="M367.948 133.245H381.776V149.892H391.651V106.641H381.776V124.59H367.948V106.641H358.064V149.892H367.948V133.245Z" fill="black"/>
<path d="M220.242 149.892H238.114V141.241H220.242V106.641H209.326V149.892H212.646H220.242Z" fill="black"/>
<path d="M463.357 149.892H473.219L464.137 132.615C469.369 129.536 471.967 123.127 470.459 117.019C468.95 110.912 463.715 106.647 457.721 106.641H439.633V149.892H449.495V134.379H455.207L463.357 149.892ZM449.467 115.289H457.711C460.45 115.289 462.671 117.626 462.671 120.51C462.671 123.393 460.45 125.731 457.711 125.731H449.467V115.289Z" fill="black"/>
<path d="M401.248 106.641V115.291V124.59V133.245V141.241V149.892H412.034H430.036V141.241H412.034V133.245H428.232V124.59H412.034V115.291H430.036V106.641H412.034H401.248Z" fill="black"/>
<path d="M348.47 136.818C348.47 130.94 345.653 127.472 340.944 125.403L336.179 123.323C332.796 121.874 330.39 120.975 330.39 118.676C330.39 116.377 332.128 115.207 334.963 115.207C337.544 115.219 340.05 116.149 342.105 117.856L347.327 112.118C344.009 108.594 339.562 106.628 334.935 106.641C326.842 106.641 321.099 112.238 321.099 119.235C321.099 125.233 324.849 128.931 328.845 130.66L333.71 132.899C336.984 134.419 339.087 135.198 339.087 137.607C339.087 139.846 337.496 141.246 334.122 141.246C330.959 141.037 327.938 139.743 325.489 137.547L319.682 143.894C323.586 147.743 328.654 149.879 333.911 149.892C343.148 149.872 348.47 143.764 348.47 136.818Z" fill="black"/>
<path d="M290.893 159.5H281.297V169.111H290.893V159.5Z" fill="black"/>
<path d="M334.075 202.75H290.893V207.556H334.075V202.75Z" fill="black"/>
<path d="M281.297 181.218H284.768V196.775C284.763 198.922 283.214 200.66 281.305 200.66V207.557C286.598 207.552 290.888 202.728 290.893 196.775V173.917H281.297V181.218ZM334.066 192.275V170.734H330.018L333.831 164.701C333.99 164.45 334.075 164.158 334.075 163.86C334.07 162.971 333.361 162.254 332.488 162.254H306.482L308.239 159.5H299.532L295.945 165.131C295.779 165.394 295.691 165.699 295.691 166.011C295.691 166.898 296.397 167.617 297.269 167.617H323.247L321.284 170.744H295.691V197.945H328.431C329.92 197.965 331.355 197.377 332.414 196.311C333.474 195.245 334.069 193.791 334.066 192.275ZM325.36 176.098V181.376H319.246V176.098H325.36ZM304.435 176.098H310.54V181.376H304.435V176.098ZM304.435 186.749H310.54V192.619H304.435V186.749ZM323.735 192.619H319.199V186.797H325.313V191.004C325.313 191.892 324.608 192.614 323.735 192.619ZM381.682 187.613H401.031V180.07H379.486C379.335 178.934 379.259 177.789 379.26 176.642V173.233H397.516V165.701H379.288V159.5H370.523V165.701H352.268V173.233H370.523V176.642C370.524 177.789 370.449 178.934 370.297 180.07H348.752V187.613H368.101C364.371 195.586 356.884 200.85 348.47 201.415V207.557C359.287 207.55 369.306 201.555 374.859 191.766C380.407 201.559 390.429 207.556 401.248 207.557V201.415C392.857 200.826 385.401 195.565 381.682 187.613Z" fill="black"/>
<path d="M252.508 169.117L258.947 202.757H266.902L260.463 169.117H252.508Z" fill="black"/>
<path d="M214.123 202.757H222.083L228.517 169.117H220.562L214.123 202.757Z" fill="black"/>
<path d="M233.914 200.303C233.914 200.747 233.741 201.173 233.433 201.487C233.125 201.8 232.708 201.975 232.274 201.972H228.518V207.557H237.166C240.339 207.557 242.912 204.923 242.912 201.674V159.5H233.914V200.303Z" fill="black"/>
<path d="M180.438 148.18C179.017 147.705 177.575 147.211 176.094 146.891C155.344 141.641 133.317 148.04 118.906 163.503C106.536 176.484 88.6149 183.033 70.5342 181.179C52.4535 179.325 36.3244 169.284 27 154.079C27.7773 180.996 43.3434 205.429 67.7573 218.053C92.1712 230.676 121.665 229.542 144.982 215.084C168.299 200.625 181.841 175.073 180.438 148.18ZM171.411 158.951C170.945 160.707 169.438 162.017 167.594 162.27C165.75 162.522 163.932 161.667 162.987 160.104C162.042 158.54 162.158 156.576 163.279 155.128C164.401 153.679 166.307 153.032 168.11 153.488C170.569 154.109 172.046 156.554 171.411 158.951Z" fill="#0189FF"/>
<path d="M65.3848 84.8358C69.1024 87.6671 73.282 89.7445 77.7126 90.963C93.1617 95.2014 109.439 88.5157 118.163 74.3481C99.9526 70.7247 81.1223 74.4665 65.3848 84.8358Z" fill="#002ED1"/>
<path d="M28.6837 131.977C27.9609 134.711 27.3987 137.482 27 140.278C33.1551 125.251 45.4506 113.405 60.9299 107.591C76.4092 101.776 93.6719 102.519 108.567 109.639C107.491 95.5777 98.4397 83.2863 85.124 77.8047C57.5024 84.3107 35.8033 105.138 28.6837 131.977Z" fill="#0161FF"/>
<path d="M122.961 159.067C111.303 163.778 98.3855 164.659 86.1671 161.576C81.7423 160.472 77.4648 158.87 73.4211 156.802C69.3743 154.691 65.086 153.053 60.645 151.92C49.1124 148.991 37.4696 149.206 27 152.74C27.3347 161.184 29.1316 169.512 32.315 177.373C41.7777 190.396 56.1719 199.22 72.324 201.899C88.4761 204.579 105.06 200.894 118.418 191.657H118.498C119.942 190.68 121.437 189.851 122.961 189.04V159.067Z" fill="#002ED1"/>
<path d="M180.475 148.131C179.053 147.664 177.611 147.178 176.129 146.863C155.374 141.695 133.342 147.993 118.928 163.215C106.555 175.993 88.6295 182.439 70.5445 180.614C52.4596 178.789 36.3266 168.905 27 153.938C27.3319 162.184 29.1138 170.317 32.2706 177.994C41.6604 190.706 55.9373 199.315 71.9541 201.925C87.9709 204.534 104.413 200.929 117.655 191.905H117.734C132.224 182.626 150.158 179.726 167.02 183.934C168.621 184.325 170.182 184.802 171.723 185.307C178.002 173.866 181.021 161.039 180.475 148.122V148.131ZM171.445 158.734C170.979 160.463 169.472 161.752 167.628 162.001C165.783 162.249 163.964 161.408 163.019 159.869C162.074 158.33 162.19 156.396 163.311 154.971C164.433 153.545 166.34 152.908 168.143 153.356C170.603 153.968 172.081 156.375 171.445 158.734Z" fill="#0161FF"/>
</svg>
