<?xml version="1.0" standalone="no"?><!DOCTYPE svg PUBLIC "-//W3C//DTD SVG 1.1//EN" "http://www.w3.org/Graphics/SVG/1.1/DTD/svg11.dtd"><svg t="1631095184589" class="icon" viewBox="0 0 3588 1024" version="1.1" xmlns="http://www.w3.org/2000/svg" p-id="891" xmlns:xlink="http://www.w3.org/1999/xlink" width="448.5" height="128"><defs><style type="text/css"></style></defs><path d="M714.560636 272.795229h-78.377733L658.576541 30.536779C571.037773 6.107356 478.409543 6.107356 391.888668 30.536779l22.393638 242.25845H335.904573c32.572565 244.294235 28.500994 442.7833-39.697814 686.059642 58.019881 30.536779 122.147117 48.858847 187.292247 53.94831l21.375745-226.99006 21.375746-1.017892 21.375746 2.035785 21.375745 226.99006c65.145129-5.089463 129.272366-23.411531 187.292247-53.948311-70.234592-244.294235-75.324056-442.7833-41.733599-687.077534z m-190.345924-94.664016c-29.518887 0-52.930417-23.411531-52.930418-52.930418 0-29.518887 23.411531-52.930417 52.930418-52.930417 29.518887 0 52.930417 23.411531 52.930417 52.930417 0 29.518887-24.429423 52.930417-52.930417 52.930418z" fill="#5B9082" p-id="892"></path><path d="M607.681909 66.163022l-4.071571-1.017893c1.017893 2.035785 3.053678 4.071571 4.071571 6.107356v-5.089463zM440.747515 66.163022V71.252485c1.017893-2.035785 3.053678-4.071571 4.07157-6.107356l-4.07157 1.017893zM252.437376 934.425447C20.357853 783.777336-46.823062 473.32008 103.82505 240.222664c58.019881-88.55666 141.487078-157.77336 241.240556-195.435388l9.161034 100.771372c-202.560636 94.664016-291.117296 335.904573-196.45328 538.465209 27.483101 58.019881 68.198807 108.914513 119.093439 148.612326a2096.858847 2096.858847 0 0 1-24.429423 101.789264zM702.345924 44.787276c258.544732 99.753479 387.817097 389.852883 288.063619 648.397615-37.662028 98.735586-106.878728 183.220676-195.435388 241.240556a2096.858847 2096.858847 0 0 1-24.429423-101.789264c177.11332-137.415507 208.667992-390.870775 71.252485-567.984096-39.697813-50.894632-90.592445-91.610338-148.612326-119.093439l9.161033-100.771372z" fill="#5B9082" p-id="893"></path><path d="M1202.131213 806.170974h42.751491c26.465209 0 46.823062 8.143141 46.823061 32.572565 0 12.214712-6.107356 23.411531-18.322067 28.500994v1.017892c14.250497 3.053678 25.447316 15.26839 24.429423 30.53678 0 26.465209-22.393638 38.67992-50.894632 38.67992h-46.823062l2.035786-131.308151z m40.715705 53.94831c16.286282 0 23.411531-7.125249 23.411531-17.304175s-8.143141-16.286282-23.411531-16.286282h-15.268389v33.590457h15.268389z m3.053678 57.001988c18.322068 0 27.483101-6.107356 27.483102-20.357853s-9.161034-18.322068-27.483102-18.322067h-18.322067v38.67992h18.322067zM1499.355865 878.441352v-71.252485h26.465209v74.306163c0 27.483101 9.161034 36.644135 24.429423 36.644135s25.447316-9.161034 25.447316-36.644135v-74.306163h25.447316v71.252485c0 43.769384-18.322068 61.073559-50.894632 61.073559s-50.894632-17.304175-50.894632-61.073559zM1801.66998 806.170974h42.751491c26.465209 0 46.823062 8.143141 46.823062 32.572565 0 12.214712-7.125249 23.411531-18.322068 28.500994v1.017892c14.250497 3.053678 25.447316 15.26839 24.429424 30.53678 0 26.465209-21.375746 38.67992-50.894633 38.67992H1801.66998V806.170974z m41.733599 53.94831c16.286282 0 23.411531-7.125249 23.41153-17.304175s-8.143141-16.286282-23.41153-16.286282h-15.26839v33.590457h15.26839z m3.053677 57.001988c18.322068 0 27.483101-6.107356 27.483102-20.357853s-9.161034-18.322068-27.483102-18.322067h-18.322067v38.67992h18.322067zM2100.930417 806.170974h26.465209V936.461233h-26.465209V806.170974zM2518.266402 828.564612h-36.644136v-21.375745h99.75348v21.375745H2544.73161v108.914513h-26.465208V828.564612zM2779.864811 806.170974h80.413519v21.375746h-53.94831v30.536779h45.805169v21.375746h-45.805169v34.608349h55.984095V936.461233h-82.449304V806.170974zM3061.821074 872.333996c0-42.751491 27.483101-68.198807 61.073558-68.198807 14.250497 0 28.500994 6.107356 38.679921 17.304175l-14.250497 16.286282c-6.107356-7.125249-15.26839-10.178926-24.429424-11.196819-19.33996 0-34.60835 17.304175-34.60835 44.787276s13.232604 45.805169 34.60835 45.805169c10.178926 0 20.357853-5.089463 26.465209-13.232604l14.250497 16.286282c-10.178926 12.214712-25.447316 19.33996-41.733598 19.339961-32.572565 0-60.055666-23.411531-60.055666-67.180915zM3363.117296 806.170974h26.465209v50.894632h49.87674v-50.894632h25.447316V936.461233h-25.447316v-57.001988H3389.582505V936.461233h-26.465209V806.170974zM1658.147117 238.186879v-55.984096h-316.564612c10.178926-26.465209 19.33996-52.930417 27.483101-80.413519l-61.073558-14.250497c-8.143141 32.572565-18.322068 64.127237-31.554672 94.664016H1099.324056v55.984096h151.666004c-32.572565 68.198807-78.377734 129.272366-135.379722 178.131212v77.359841c30.536779-22.393638 60.055666-47.840954 85.502982-76.341948v196.45328h59.037773v-213.757455h119.09344V671.809145h60.055666V401.049702h126.218688v143.522863c0 9.161034-3.053678 11.196819-13.232605 11.196819-8.143141 0-32.572565 1.017893-61.073558 0v52.930417c50.894632 1.017893 84.485089-1.017893 105.860835-9.161034s27.483101-24.429423 27.483101-53.94831V345.065606h-185.256461V264.652087h-60.055666v80.413519h-123.16501c23.411531-33.590457 43.769384-70.234592 60.055666-106.878727h342.011928zM1988.962227 337.940358v-58.019881h-150.648112v-183.220676h-63.109344V661.630219l48.858847-17.304175c29.518887-12.214712 79.395626-29.518887 163.880716-58.019881-3.053678-20.357853-4.071571-39.697813-3.053678-60.055666l-146.576541 46.823062V337.940358h150.648112zM2237.328032 482.481113c-4.071571 92.628231-10.178926 116.039761-36.644135 116.039762h-78.377734c-26.465209 0-30.536779-6.107356-30.536779-41.733599V388.83499c70.234592-41.733598 136.397614-89.574553 199.506958-141.487077h-103.82505c-30.536779 27.483101-62.091451 51.912525-95.681908 75.324055V92.628231h-62.091452v462.12326c0 79.395626 18.322068 100.771372 84.48509 100.771372h92.62823c68.198807 0 82.449304-45.805169 88.556661-173.04175l-2.035786-1.017892-55.984095 1.017892zM2726.934394 422.425447l39.697813-38.67992c-22.393638-26.465209-70.234592-65.145129-108.914513-90.592445l-37.662028 34.608349c40.715706 26.465209 76.341948 58.019881 106.878728 94.664016zM2743.220676 255.491054l41.733598-37.662028c-29.518887-33.590457-64.127237-63.109344-100.771371-88.55666l-38.679921 33.590457c35.626243 26.465209 78.377734 65.145129 97.717694 92.628231zM2603.769384 430.568588c-12.214712-16.286282-66.163022-81.431412-85.502982-100.771371v-9.161034h88.55666v-54.966203h-88.55666v-96.699801c16.286282-4.071571 32.572565-8.143141 47.840954-12.214712v-61.073558c-45.805169 20.357853-119.093439 36.644135-185.256461 48.858846V192.38171c25.447316-4.071571 52.930417-8.143141 80.413519-12.214712v85.502982h-101.789265v54.966203h93.646123c-23.411531 67.180915-64.127237 142.50497-101.789264 186.274354h65.145129c17.304175-30.536779 31.554672-61.073559 44.787277-93.646123v257.526838h57.001988V392.906561c8.143141 12.214712 16.286282 25.447316 23.41153 37.662027h62.091452z" fill="#5B9082" p-id="894"></path><path d="M2935.602386 439.729622l-70.234593 11.196819V87.538767h-58.01988v372.548708l-200.524851 33.590457v58.019881l200.524851-33.590457v152.683896h58.01988v-162.862823l70.234593-12.214711zM3201.272366 266.687873v-54.966203H3135.109344V87.538767h-58.019881v124.182903h-78.377733v54.966203h78.377733v127.23658l-70.234592 17.304175v61.073559c22.393638-6.107356 44.787276-12.214712 70.234592-19.33996v150.648111c0 9.161034-3.053678 12.214712-12.214712 12.214712-6.107356 0-23.411531 1.017893-44.787276 0V668.755467c42.751491 1.017893 72.270378-1.017893 90.592445-10.178926s25.447316-24.429423 25.447317-54.966203V436.675944l64.127236-19.33996v-54.966203l-64.127236 17.304175v-111.968191l65.145129-1.017892z" fill="#5B9082" p-id="895"></path><path d="M3564.66004 616.842942c-49.87674-14.250497-97.717694-37.662028-139.451292-69.216699 59.037773-58.019881 101.789264-130.290258 124.182902-210.703778l-37.662028-15.268389-10.178926 2.035785h-90.592446v-87.538768h146.576541V183.220676H3409.940358V87.538767h-59.037774V183.220676h-142.50497v53.94831h142.50497v87.538767h-131.308151v53.948311h25.447317l-8.143142 2.035785c22.393638 60.055666 55.984095 116.039761 98.735587 164.898608-45.805169 30.536779-96.699801 53.94831-149.630219 68.198807l18.322068 55.984096c62.091451-17.304175 121.129225-45.805169 174.059642-83.467197 47.840954 39.697813 103.82505 69.2167 163.880716 85.502982l22.393638-54.966203z m-183.220676-107.89662c-36.644135-37.662028-66.163022-82.449304-85.502982-131.308151h178.131212c-20.357853 49.87674-51.912525 94.664016-92.62823 131.308151z" fill="#5B9082" p-id="896"></path></svg>