<?xml version="1.0" standalone="no"?><!DOCTYPE svg PUBLIC "-//W3C//DTD SVG 1.1//EN" "http://www.w3.org/Graphics/SVG/1.1/DTD/svg11.dtd"><svg t="1645613138200" class="icon" viewBox="0 0 2730 1024" version="1.1" xmlns="http://www.w3.org/2000/svg" p-id="2811" width="341.25" height="128" xmlns:xlink="http://www.w3.org/1999/xlink"><defs><style type="text/css"></style></defs><path d="M383.2 500.533333c1.333333-3.2 1.066667-10.133333-0.266667-13.866666-7.2-17.066667-43.466667-25.333333-28.266666-102.133334 15.2-76.533333 64.533333-139.733333 127.2-166.933333h92.533333s-52.266667 89.866667-67.466667 115.466667c-15.2 25.6-34.666667 46.133333-30.933333 76 4 30.4 24.8 25.333333 41.6 24.533333 17.066667-0.8 176.266667-0.533333 188.266667-2.133333 19.466667-2.666667 37.333333-12 34.666666-46.4-0.533333-8.533333-4.8-21.066667-13.6-26.4-11.2-6.666667-31.466667-5.333333-46.4-5.6-14.933333-0.266667-124-0.266667-124-0.266667h-9.333333l-7.466667 0.266667 75.2-135.466667 124-1.333333-74.4-74.4c-49.066667-49.066667-128.266667-49.066667-177.333333 0L205.6 423.466667c-49.066667 49.066667-49.066667 128.266667 0 177.333333l63.2 63.2c0.266667-16 2.933333-34.133333 9.333333-54.933333 13.066667-44 37.6-74.4 91.733334-100 8-4 10.666667-2.4 13.333333-8.533334z" fill="#0F60A4" p-id="2812"></path><path d="M945.866667 423.466667L869.333333 346.933333c-1.6 18.933333-6.666667 38.933333-20.266666 67.733334-17.6 37.866667-49.066667 52.266667-75.2 64.8-7.2 3.466667-13.066667 21.6 0.8 30.133333 0 0 65.333333 33.6 46.666666 132.533333-15.2 80.266667-70.933333 123.466667-136.8 123.2l-256 0.533334 54.933334-119.466667s137.066667 0.8 168-0.533333c23.2-1.066667 47.733333-45.6 19.2-82.933334-8.266667-10.933333-33.333333-12.266667-67.733334-12.8-28.533333-0.266667-67.466667 0.533333-96-0.266666-16.8-0.266667-38.133333-0.266667-48.8 1.333333-11.2 1.866667-24.533333 5.6-31.2 15.733333-2.666667 4-15.466667 16-12.8 46.933334 0.8 9.066667 3.733333 20.533333 12.266667 26.933333 8 5.866667 17.333333 5.866667 17.333333 5.866667l-56 118.933333H370.666667l116.533333 116.533333c49.066667 49.066667 128.266667 49.066667 177.333333 0l281.333334-281.6c49.066667-48.8 49.066667-128.266667 0-177.066666z" fill="#0F60A4" p-id="2813"></path><path d="M2348.266667 558.4v0.8c0 0.266667-0.8 33.866667-15.2 47.2-4 3.733333-8.533333 5.6-13.6 5.6h-78.933334c-24.533333 0-27.733333-3.466667-27.733333-28.533333v-86.933334l163.2 0.533334h0.533333v-226.666667h-214.133333v312.8c0 31.733333 4.8 49.866667 15.733333 61.066667 10.666667 10.666667 27.733333 15.466667 57.066667 15.466666h89.866667c33.333333 0 50.4-21.6 58.933333-40 9.333333-20 10.666667-40.533333 10.666667-40.8v-0.266666l-46.4-20.266667z m-135.466667-108.8v-132.8h32.266667v132.8h-32.266667z m78.933333 0v-132.8h35.2v132.8h-35.2zM2009.866667 651.466667l80.266666 0.533333h0.266667l46.933333-55.2V270.133333h-127.466666v381.333334zM2083.466667 317.333333v286.666667h-18.666667V317.333333h18.666667zM2557.866667 309.866667c0 7.466667-1.333333 14.933333-4.266667 21.866666-2.933333 7.2-6.933333 13.333333-12 18.666667-5.066667 5.066667-10.933333 9.333333-16.8 12.266667-8 3.733333-16.266667 5.866667-25.333333 5.866666-8.266667 0-16-1.6-23.2-4.8-7.2-3.2-13.066667-7.2-18.133334-12-4.8-5.066667-8.8-10.4-11.466666-16-3.733333-8-5.866667-16.533333-5.866667-25.6 0-8.266667 1.6-16 4.8-22.933333 3.2-7.2 7.2-13.066667 12.266667-18.133333 4.8-4.8 10.4-8.533333 16.266666-11.466667 8-4 16.533333-5.866667 25.333334-5.866667s16.8 1.6 23.733333 5.066667c7.2 3.466667 13.333333 7.466667 18.133333 12.8 4.8 5.066667 8.8 10.666667 11.2 16.8 3.733333 7.466667 5.333333 15.466667 5.333334 23.466667z m-58.4-47.2c-6.666667 0-13.066667 1.333333-19.466667 4.266666-4.8 2.133333-9.066667 5.333333-13.066667 9.066667-4 4-7.466667 8.8-10.133333 14.666667s-4 12.266667-4 19.2c0 8.266667 2.133333 16 6.4 23.466666 4.266667 7.466667 9.866667 13.333333 17.333333 17.6 7.466667 4.266667 15.2 6.133333 23.2 6.133334 8 0 15.733333-2.133333 23.2-6.133334 7.466667-4.266667 13.066667-10.133333 17.333334-17.6 4.266667-7.466667 6.133333-15.466667 6.133333-23.466666 0-7.2-1.6-13.866667-4.533333-20.266667-2.4-5.066667-5.6-9.6-9.866667-13.6-4.266667-4.266667-9.066667-7.466667-14.933333-9.6-5.6-2.4-11.466667-3.733333-17.6-3.733333z m-6.666667 79.733333h-19.2l0.266667-64.8H2501.333333c9.333333 0 15.733333 1.866667 19.733334 5.066667 4 3.466667 5.866667 8 5.866666 13.866666 0 4.8-1.333333 8.533333-4 11.2-2.666667 2.933333-6.666667 4.533333-11.733333 4.8 3.466667 0.266667 6.133333 1.6 8.8 3.466667 2.4 1.866667 4 4 4.8 6.666667 0.8 2.4 1.333333 6.666667 1.6 12.533333 0 2.133333 0 3.733333 0.266667 4.533333 0 0.533333 0.266667 1.333333 0.8 2.4h-18.4c-0.533333-1.6-0.8-4.533333-1.066667-8.8-0.266667-4.266667-0.533333-6.933333-1.333333-8.266666-0.8-1.6-2.133333-2.933333-4-3.733334-1.866667-0.8-5.066667-1.066667-9.866667-1.066666v22.133333z m0-51.733333v16.8h3.466667c4.533333 0 7.466667-0.8 9.333333-2.4 1.866667-1.6 2.666667-3.733333 2.666667-6.666667 0-2.4-0.8-4.266667-2.666667-5.866667-1.6-1.333333-4.8-2.133333-8.8-2.133333h-4zM1958.4 572.8c-7.466667-6.933333-15.466667-12.8-22.933333-18.666667-5.866667-4.266667-11.466667-8.533333-16.266667-12.8l-0.8-0.8v1.066667c-2.133333 48-11.466667 52.266667-20.8 52.266667-12.266667 0-22.133333-20.266667-28.266667-37.333334-1.6-4.533333-3.733333-11.2-6.133333-19.733333l86.4-92.8 0.8-0.8-77.6-0.8h-0.266667l-24.266666 25.333333c-2.933333-20.8-4.533333-36.8-5.066667-47.733333l104.533333 2.4h0.533334v-48.8l-108.8-1.333333c-3.2-34.666667-5.066667-66.4-4.266667-107.2v-0.533334l-59.733333 1.333334v0.533333c0.533333 40.8 1.866667 72 5.066666 107.2h-80v-48c26.933333-5.6 49.333333-11.2 68.533334-16.8l0.8-0.266667-34.133334-43.2-0.266666-0.266666h-0.266667c-42.666667 13.866667-166.4 35.2-167.466667 35.466666h-0.533333l14.666667 42.666667v0.266667h0.533333c0.533333 0 44.266667-5.333333 66.933333-9.066667V373.333333h-79.733333v48.8h79.733333V485.333333c-38.933333 36.266667-92.8 86.666667-93.333333 87.2l-0.8 0.8h81.6l12.8-12v36.266667c0 6.4-2.133333 8.266667-9.6 8.266667-3.2 0.266667-9.066667 0.266667-16.533333 0.266666-10.666667 0-25.066667 0-40.266667 0.533334h-0.8l0.266667 0.533333c5.6 15.733333 10.666667 30.4 18.666666 49.6v0.266667h8c33.866667 0 54.4-2.933333 68.533334-9.866667 16.8-8 23.2-21.333333 23.2-49.333333V512l68.533333-65.066667 0.8-0.8h-69.6v-23.733333h84.8c4.533333 37.333333 9.6 69.6 15.2 95.466667l-70.933333 74.666666-0.8 0.8H1810.666667l10.133333-10.933333c2.133333 5.6 3.466667 9.6 3.466667 9.6 19.466667 44.533333 44 66.933333 73.066666 66.933333 39.2 0 53.866667-12.533333 61.866667-86.133333h-0.8z" p-id="2814"></path><path d="M1900 348c20.266667 0 36.8-16.533333 36.8-36.8 0-20.266667-16.533333-36.8-36.8-36.8s-36.8 16.533333-36.8 36.8c0 20.266667 16.533333 36.8 36.8 36.8z" p-id="2815"></path><path d="M1940.8 779.466667c-2.133333-2.933333-4.533333-5.333333-7.466667-7.733334-2.933333-2.133333-6.133333-4.266667-9.333333-5.866666v-0.8c2.4-1.6 4.533333-3.466667 6.933333-5.6 2.133333-2.133333 4.266667-4.533333 5.866667-7.2 1.6-2.666667 2.933333-5.333333 4-8.266667 1.066667-2.933333 1.6-6.133333 1.6-9.333333 0-5.333333-1.066667-10.133333-2.933333-14.4s-4.8-8.266667-8.266667-11.2-8-5.6-13.066667-7.2c-5.066667-1.6-10.933333-2.4-17.333333-2.4-6.133333 0-12 0.8-17.333333 2.4-5.333333 1.6-9.866667 4-13.866667 6.933333s-6.933333 6.666667-9.066667 11.2c-2.133333 4.266667-3.2 9.066667-3.2 14.666667 0 7.2 1.866667 13.333333 5.333334 18.4 3.466667 5.066667 8 9.6 13.6 13.333333v0.8c-3.466667 1.6-6.4 3.733333-9.6 5.866667-2.933333 2.133333-5.6 4.8-7.733334 7.733333-2.133333 2.933333-4 6.133333-5.333333 9.6-1.333333 3.466667-1.866667 7.466667-1.866667 11.733333 0 5.066667 1.333333 9.866667 3.733334 14.4 2.4 4.266667 5.866667 8.266667 10.133333 11.466667 4.266667 3.2 9.333333 5.6 15.2 7.466667 5.866667 1.6 12 2.666667 18.933333 2.666666 7.2 0 13.866667-0.8 19.733334-2.666666s10.933333-4.266667 15.2-7.466667c4.266667-3.2 7.466667-6.933333 9.866666-11.466667 2.4-4.266667 3.466667-9.066667 3.466667-14.133333 0-4.533333-0.533333-8.8-1.866667-12.266667-1.6-4.266667-3.2-7.733333-5.333333-10.666666z m-53.066667-57.6c3.466667-2.933333 7.466667-4.266667 12.266667-4.266667 6.133333 0 10.666667 1.866667 14.133333 5.333333 3.2 3.466667 5.066667 8 5.066667 13.333334 0 8.266667-3.466667 15.733333-10.133333 22.4-3.733333-1.333333-7.2-2.933333-10.4-4.533334-3.2-1.6-5.866667-3.2-8.266667-5.066666-2.4-1.866667-4-4-5.333333-6.4-1.333333-2.4-1.866667-5.066667-1.866667-8.266667-0.533333-5.6 1.066667-9.6 4.533333-12.533333z m27.733334 92.266666c-4 2.933333-9.066667 4.533333-14.933334 4.533334-6.666667 0-12.266667-1.866667-17.066666-5.333334-4.533333-3.466667-6.933333-8.266667-6.933334-14.4 0-5.066667 1.333333-9.6 3.733334-13.866666 2.4-4.266667 5.6-7.733333 9.6-10.666667 4.533333 1.866667 8.8 3.466667 12.8 5.333333 3.733333 1.6 7.2 3.466667 10.133333 5.6s5.066667 4.266667 6.666667 6.933334c1.6 2.4 2.4 5.6 2.4 9.066666-0.533333 5.333333-2.4 9.6-6.4 12.8zM1207.466667 765.066667v-0.8c2.933333-1.066667 5.333333-2.4 7.466666-4.533334 2.133333-1.866667 4-4.266667 5.6-6.933333 1.6-2.666667 2.666667-5.333333 3.466667-8.533333 0.8-2.933333 1.333333-6.133333 1.333333-9.066667 0-6.133333-1.333333-11.466667-3.733333-15.733333-2.4-4.266667-5.866667-7.466667-10.133333-10.133334-4.266667-2.4-9.333333-4.266667-15.2-5.333333-5.866667-1.066667-12.266667-1.6-18.933334-1.6h-43.733333v133.066667h47.2c7.2 0 14.133333-0.8 20.266667-2.4 6.133333-1.6 11.733333-4 16.266666-7.2 4.533333-3.2 8.266667-7.2 10.933334-12.266667 2.666667-4.8 4-10.666667 4-17.333333 0-9.066667-2.4-16-7.2-21.333334-4.266667-4.8-10.4-8.266667-17.6-9.866666z m-47.2-42.133334h15.733333c8 0 13.866667 1.333333 17.866667 3.733334 4 2.4 5.866667 6.666667 5.866666 12.533333 0 5.333333-1.866667 9.6-5.6 12.8-3.733333 3.2-9.866667 4.8-18.4 4.8h-15.466666v-33.866667z m39.2 87.2c-4.8 3.2-11.733333 5.066667-20.8 5.066667h-18.4v-38.666667h18.4c9.066667 0 16 1.333333 20.8 4.266667 4.8 2.933333 6.933333 7.466667 6.933333 14.133333 0.266667 6.933333-2.133333 12-6.933333 15.2zM1537.333333 754.4c-6.666667-11.2-16.266667-16.8-28.8-16.8-12.533333 0-22.933333 4.8-30.933333 14.133333-8.266667 9.6-12.266667 21.6-12.266667 36.533334s4 27.2 12.266667 36.8c8.266667 9.6 18.4 14.4 30.666667 14.4s21.866667-6.133333 28.8-18.133334v17.333334c0 8.8-2.133333 15.466667-6.133334 20-4 4.533333-9.333333 6.133333-15.466666 6.666666-15.2 0.8-40.266667-10.666667-40.266667-10.666666v22.666666s21.6 10.666667 41.066667 9.866667c13.866667-0.533333 24.8-4.533333 32.533333-13.6 7.733333-9.066667 11.466667-20.533333 11.466667-34.933333v-99.733334h-23.2v15.466667z m-7.2 55.466667c-4.8 5.066667-10.4 7.733333-16.8 7.733333s-12-2.666667-16.8-8c-4.8-5.333333-7.2-12.533333-7.2-21.6s2.4-16.266667 7.2-21.333333c4.8-5.066667 10.4-7.733333 16.8-7.733334s12.266667 2.666667 17.066667 7.733334c4.8 5.066667 7.2 12.266667 7.2 21.333333-0.266667 9.6-2.666667 16.8-7.466667 21.866667zM1415.2 737.333333c-6.933333 0-13.066667 1.6-18.666667 4.533334-5.333333 2.933333-10.4 6.666667-14.933333 10.933333h-0.8l-1.866667-12.8h-22.133333V837.333333h26.933333v-66.933333c4-3.466667 7.466667-6.4 10.4-8.266667 2.933333-1.866667 6.666667-2.666667 10.933334-2.666666 5.066667 0 8.8 1.6 11.2 4.533333 2.133333 2.933333 3.466667 8.266667 3.466666 15.733333V837.333333h27.2v-60.8c0-12.266667-2.4-21.866667-7.466666-28.8-5.066667-6.933333-13.066667-10.4-24.266667-10.4zM1291.733333 735.733333c-8 0-15.466667 1.333333-22.666666 3.733334-7.2 2.4-13.866667 5.333333-19.733334 9.066666l9.6 16.533334c4.8-2.666667 9.333333-4.8 14.133334-6.4 4.533333-1.6 9.333333-2.666667 14.133333-2.666667 6.4 0 10.666667 1.6 13.066667 4.8 2.4 3.2 3.733333 7.2 4 12-20.533333 2.133333-35.466667 5.866667-44.8 11.466667-9.333333 5.6-13.866667 13.6-13.866667 24 0 4 0.8 8 2.133333 11.2 1.333333 3.466667 3.466667 6.4 6.133334 9.066666 2.666667 2.666667 5.866667 4.533333 9.6 6.133334 3.733333 1.333333 8 2.133333 12.266666 2.133333 5.866667 0 11.2-1.333333 16.266667-3.733333 5.066667-2.4 9.866667-5.333333 14.4-9.066667h0.533333l1.866667 10.4h21.866667v-56c0-13.866667-3.2-24.533333-9.866667-31.733333-6.133333-7.2-16-10.933333-29.066667-10.933334z m12.533334 71.733334c-3.2 2.933333-6.133333 5.333333-9.333334 6.933333-2.933333 1.6-6.4 2.4-10.4 2.4s-7.2-0.8-9.6-2.666667c-2.666667-1.6-3.733333-4.533333-3.733333-8.266666 0-2.133333 0.533333-4.266667 1.6-6.133334 1.066667-1.866667 2.933333-3.466667 5.6-5.066666 2.666667-1.6 5.866667-2.933333 10.133333-4 4.266667-1.066667 9.333333-2.133333 15.733334-2.933334v19.733334zM1979.466667 805.333333c-4.8 0-8.8 1.6-12 4.8-3.2 3.2-4.8 6.933333-4.8 11.733334 0 4.8 1.6 8.533333 4.8 11.733333 3.2 3.2 7.2 4.8 12 4.8 4.8 0 9.066667-1.6 12.266666-4.8 3.2-3.2 4.8-6.933333 4.8-11.733333 0-4.533333-1.6-8.533333-4.8-11.733334-3.2-3.2-7.466667-4.8-12.266666-4.8zM2079.2 815.466667c-3.466667 1.333333-6.933333 2.133333-10.666667 2.133333-7.466667 0-13.6-2.666667-18.4-8-4.8-5.333333-7.2-12.533333-7.2-21.6 0-9.066667 2.4-16.266667 7.2-21.866667 4.8-5.333333 11.2-8 18.933334-8 2.933333 0 5.6 0.533333 8.266666 1.6 2.4 1.066667 5.066667 2.666667 7.733334 4.8l12.8-16.266666c-3.733333-2.933333-8.266667-5.333333-13.066667-7.466667-4.8-2.133333-10.666667-3.2-16.8-3.2-6.933333 0-13.6 1.066667-20 3.466667-6.4 2.4-12 5.6-16.8 9.866666-4.8 4.266667-8.533333 9.6-11.466667 15.733334-2.933333 6.133333-4.266667 13.333333-4.266666 21.333333 0 7.733333 1.333333 14.933333 3.733333 21.066667 2.666667 6.133333 6.133333 11.466667 10.666667 15.733333 4.533333 4.266667 9.866667 7.466667 16 9.866667 6.133333 2.4 12.8 3.466667 19.733333 3.466666 5.866667 0 11.466667-1.066667 17.333333-2.933333 5.866667-1.866667 11.2-4.8 16.266667-8.8l-10.666667-16.533333c-2.933333 2.4-6.133333 4.266667-9.333333 5.6zM2190.4 750.933333c-4.533333-4.266667-9.866667-7.466667-15.733333-9.866666-5.866667-2.4-12.266667-3.466667-18.666667-3.466667-6.4 0-12.533333 1.066667-18.666667 3.466667s-11.2 5.6-15.733333 9.866666c-4.533333 4.266667-8.266667 9.6-10.933333 15.733334-2.666667 6.133333-4 13.333333-4 21.333333 0 7.733333 1.333333 14.933333 4 21.066667 2.666667 6.133333 6.4 11.466667 10.933333 15.733333 4.533333 4.266667 9.866667 7.466667 15.733333 9.866667 6.133333 2.4 12.266667 3.466667 18.666667 3.466666 6.4 0 12.8-1.066667 18.666667-3.466666s11.2-5.6 15.733333-9.866667c4.533333-4.266667 8.266667-9.6 10.933333-15.733333 2.666667-6.133333 4.266667-13.333333 4.266667-21.066667 0-8-1.333333-15.2-4.266667-21.333333-2.666667-6.133333-6.4-11.466667-10.933333-15.733334z m-18.133333 58.666667c-3.733333 5.333333-9.066667 8-16.266667 8-6.933333 0-12.266667-2.666667-16.266667-8-3.733333-5.333333-5.6-12.533333-5.6-21.6 0-9.066667 1.866667-16.266667 5.6-21.866667 3.733333-5.333333 9.066667-8 16.266667-8 6.933333 0 12.266667 2.666667 16.266667 8 3.733333 5.333333 5.6 12.533333 5.6 21.866667 0 9.066667-1.866667 16.266667-5.6 21.6zM2369.6 748c-5.066667-6.666667-13.333333-10.133333-24.266667-10.133333-6.666667 0-12.8 1.6-17.866666 4.8-5.333333 3.2-10.133333 7.2-14.933334 11.733333-2.4-5.333333-5.866667-9.6-10.4-12.266667-4.533333-2.933333-10.4-4.266667-17.866666-4.266666-6.666667 0-12.533333 1.6-17.6 4.533333-5.066667 2.933333-9.6 6.666667-13.866667 10.666667h-0.8l-1.866667-12.8h-22.133333v95.733333h26.933333v-65.866667c7.466667-7.2 13.866667-10.666667 19.733334-10.666666 4.8 0 8.533333 1.6 10.933333 4.533333 2.4 2.933333 3.466667 8.266667 3.466667 15.466667v56.533333h26.933333v-65.866667c7.466667-7.2 13.866667-10.666667 19.733333-10.666666 4.8 0 8.533333 1.6 10.933334 4.533333 2.4 2.933333 3.466667 8.266667 3.466666 15.466667v56.533333h26.933334V776c0.266667-12-2.133333-21.333333-7.466667-28zM1690.133333 786.666667c-1.066667 4.8-1.866667 9.333333-2.666666 13.866666-0.8 4.533333-1.6 9.333333-2.666667 14.133334h-0.8c-1.066667-4.8-2.133333-9.333333-3.2-14.133334-1.066667-4.533333-2.133333-9.066667-3.2-13.866666l-12.8-47.2h-24l-12.266667 47.2c-1.333333 4.533333-2.4 9.066667-3.466666 13.866666-1.066667 4.533333-1.866667 9.333333-2.933334 14.133334h-0.8c-1.066667-4.8-1.866667-9.333333-2.666666-14.133334-0.8-4.533333-1.6-9.066667-2.666667-13.866666l-11.2-47.2h-26.933333l26.666666 95.733333h30.933334l10.4-41.6c1.066667-4.533333 2.133333-8.8 2.933333-13.333333 0.8-4.533333 1.866667-9.333333 2.666667-14.4h0.8c1.066667 5.066667 1.866667 9.866667 2.933333 14.4 0.8 4.533333 1.866667 9.066667 2.933333 13.6l10.933334 41.6h31.733333l25.333333-95.733334H1701.333333l-11.2 46.933334zM1821.6 750.133333c-4.533333-4.266667-9.866667-7.466667-15.733333-9.866666-5.866667-2.4-12.266667-3.466667-18.666667-3.466667-6.4 0-12.533333 1.066667-18.666667 3.466667-5.866667 2.4-11.2 5.6-15.733333 9.866666-4.533333 4.266667-8.266667 9.6-10.933333 15.733334-2.666667 6.133333-4 13.333333-4 21.333333 0 7.733333 1.333333 14.933333 4 21.066667 2.666667 6.133333 6.4 11.466667 10.933333 15.733333 4.533333 4.266667 9.866667 7.466667 15.733333 9.866667 6.133333 2.4 12.266667 3.466667 18.666667 3.466666 6.4 0 12.8-1.066667 18.666667-3.466666s11.2-5.6 15.733333-9.866667c4.533333-4.266667 8.266667-9.6 10.933333-15.733333 2.666667-6.133333 4-13.333333 4-21.066667 0-8-1.333333-15.2-4-21.333333s-6.4-11.466667-10.933333-15.733334z m-18.133333 58.666667c-3.733333 5.333333-9.066667 8-16.266667 8-6.933333 0-12.266667-2.666667-16.266667-8-3.733333-5.333333-5.6-12.533333-5.6-21.6 0-9.066667 1.866667-16.266667 5.6-21.866667 3.733333-5.333333 9.066667-8 16.266667-8 6.933333 0 12.266667 2.666667 16.266667 8 3.733333 5.333333 5.6 12.8 5.6 21.866667 0 9.066667-1.866667 16.266667-5.6 21.6z" fill="#595757" p-id="2816"></path><path d="M1517.866667 298.666667l0.8-1.333334-37.866667-20.533333-0.533333-0.266667-8.266667 1.866667h-121.333333v214.4h51.2v-53.066667l14.4 38.4h1.066666c1.333333 0 32.8 0.8 45.866667-0.533333 10.133333-1.333333 20-4.266667 27.733333-8.533333 17.066667-10.666667 24.266667-24.533333 24.266667-45.6-0.533333-21.333333-14.133333-40.8-41.6-59.733334 10.933333-14.666667 22.4-31.466667 33.333333-48 3.733333-6.4 7.2-12 10.933334-17.066666z m-116 24.533333h41.6c-8.8 16.8-18.133333 33.066667-26.133334 45.866667l-0.8 1.333333 1.333334 0.8c38.933333 22.4 43.2 40.533333 43.2 47.2 0 6.933333-2.4 11.2-7.733334 13.333333-3.733333 1.066667-9.6 1.866667-16 2.4-9.066667 0-33.066667-1.066667-35.2-1.333333v-109.6z" p-id="2817"></path><path d="M1349.6 472.8h-55.733333v32h-89.333334c26.933333-14.4 45.866667-33.866667 56.266667-58.133333h78.666667v-41.066667h-70.933334v-16.8h59.2v-40.266667h-59.2v-16.533333h70.933334v-41.866667h-70.933334V261.6h-54.133333v28.8h-80.533333v41.866667h80.533333v16.533333h-71.466667v40.266667h71.466667v16.8h-85.6v41.066666h69.333333c-15.466667 14.933333-64 33.6-64.533333 33.866667l-2.133333 0.8 1.6 1.6c0.266667 0.266667 16.266667 15.466667 26.933333 27.2l-18.133333 8v111.733333h54.133333v-76.8h97.866667v105.066667h55.733333v-105.066667h100.533333v33.066667c0 4-1.066667 5.333333-7.466666 5.6-6.133333 0-50.933333-0.8-51.466667-0.8h-2.133333l17.333333 45.066667 0.266667 1.066666h1.066666c2.4 0 56.266667 0 73.066667-7.2 17.333333-6.666667 23.733333-18.133333 23.733333-42.4v-82.666666H1349.333333v-32.266667z" p-id="2818"></path></svg>