<svg width="84px" height="34px" viewbox="0 0 84 34" version="1.1" xmlns="http://www.w3.org/2000/svg" xmlns:xlink="http://www.w3.org/1999/xlink">
    <title>logo</title>
    <defs>
        <polygon id="path-4" points="0 0.116733028 30.6289037 0.116733028 30.6289037 32.9334862 0 32.9334862"></polygon>
        <polygon id="path-6" points="0.0617931193 0.0363600917 19.9710183 0.0363600917 19.9710183 20.4092431 0.0617931193 20.4092431"></polygon>
    </defs>
    <g id="页面-1" stroke="none" stroke-width="1" fill="none" fill-rule="evenodd">
        <g id="官网首页3.0" transform="translate(-212.000000, -24.000000)">
            <g id="编组-5">
                <mask id="mask-3" fill="white">
                    <use xlink:href="#path-2"></use>
                </mask>
            </g>
            <g id="logo" transform="translate(212.000000, 24.000000)">
                <g id="编组" transform="translate(0.000000, 0.073672)">
                    <mask id="mask-5" fill="white">
                        <use xlink:href="#path-4"></use>
                    </mask>
                    <g id="Clip-2"></g>
                    <path d="M19.4829174,16.458405 L11.1459862,16.458405 C7.31504128,16.458405 4.19854358,13.341717 4.19854358,9.51077202 C4.19854358,5.68001743 7.31504128,2.56332936 11.1459862,2.56332936 L19.4829174,2.56332936 C23.3138624,2.56332936 26.4305505,5.68001743 26.4305505,9.51096239 C26.4305505,13.341717 23.3138624,16.458405 19.4829174,16.458405 M27.9605298,5.47727661 C26.4442569,2.31471009 23.2080183,0.116733028 19.4829174,0.116733028 L11.1459862,0.116733028 C7.42088532,0.116733028 4.18464679,2.31471009 2.66837385,5.47727661 C1.16047706,5.69277202 0,6.98593486 0,8.55360688 L0,10.4683179 C0,12.0357995 1.16047706,13.3289624 2.66837385,13.5444578 C4.18464679,16.7072147 7.42088532,18.9050014 11.1459862,18.9050014 L11.6312317,18.9050014 C10.5470917,20.6655151 9.92954128,22.7429899 9.92954128,24.7688752 C9.92954128,27.7148041 11.1044862,30.4764578 13.2379289,32.5451757 C13.5052041,32.8044555 13.8507202,32.9335243 14.1958555,32.9335243 C14.555078,32.9335243 14.9141101,32.793795 15.1840505,32.5154784 C15.7128899,31.9696963 15.6997546,31.0985771 15.1541628,30.5693569 C13.5598394,29.0233867 12.681867,26.9634257 12.681867,24.7688752 C12.681867,22.7062491 13.5339495,20.5682376 14.9613211,19.0498706 C15.0039633,19.0045633 15.0370872,18.9543064 15.072305,18.9050014 L15.3801284,18.9050014 C15.4423784,18.9697261 15.5118624,19.0296917 15.5885803,19.0829945 C16.8870734,19.983811 17.7045092,21.2518454 17.8899266,22.6533271 C18.0886697,24.1537995 17.5573555,25.671405 16.3940229,26.9266849 C15.8747018,27.4869349 15.9080161,28.3626229 16.4684564,28.881944 C16.7347798,29.12885 17.0723005,29.2506849 17.4086789,29.2506849 C17.7804656,29.2506849 18.1514908,29.1018179 18.4240963,28.8075106 C20.157578,26.9373454 20.9422706,24.6228638 20.6336858,22.2902972 C20.4716835,21.0662376 20.0132798,19.9168018 19.2990229,18.9050014 L19.4829174,18.9050014 C23.2080183,18.9050014 26.4442569,16.7072147 27.9605298,13.5444578 C29.4684266,13.3289624 30.6289037,12.0357995 30.6289037,10.4683179 L30.6289037,8.55360688 C30.6289037,6.98593486 29.4684266,5.69277202 27.9605298,5.47727661" id="Fill-1" fill="#FF5050" mask="url(#mask-5)"></path>
                </g>
                <path d="M18.8978817,5.71527339 L11.7176202,5.71527339 C9.8419344,5.71527339 8.3070055,7.25001193 8.3070055,9.12588807 C8.3070055,11.0017642 9.8419344,12.5365028 11.7176202,12.5365028 L18.8978817,12.5365028 C20.7737578,12.5365028 22.3084963,11.0017642 22.3084963,9.12588807 C22.3084963,7.25001193 20.7737578,5.71527339 18.8978817,5.71527339" id="Fill-3" fill="#FF5050"></path>
                <path d="M52.9854677,11.6261298 L52.9854677,11.6261298 L39.6451213,11.6261298 L38.9974929,13.4867766 L51.1248209,13.4867766 C52.1524218,13.4867766 52.9854677,12.6537307 52.9854677,11.6261298" id="Fill-5" fill="#262626"></path>
                <path d="M54.3767837,9.84802615 L54.4093365,9.88895505 L54.453692,9.86116147 C56.8427975,8.35364541 58.8026255,6.55791376 60.2781599,4.52422339 L60.3215635,4.46444817 L57.9402631,3.48596193 L57.9134213,3.52517752 C56.7106828,5.31081972 54.9633044,6.84555826 52.7188778,8.08541835 L52.642731,8.12806055 L52.7114534,8.18231514 C53.320247,8.66280138 53.8808778,9.22324174 54.3767837,9.84802615" id="Fill-7" fill="#262626"></path>
                <path d="M58.4949544,9.80936261 C57.2802227,11.6062365 55.3601814,13.2492938 52.7883236,14.6924658 L52.7119865,14.735108 L52.7808993,14.7891722 C53.4091103,15.2795576 53.9558443,15.8394268 54.4054911,16.4522181 L54.437092,16.4956218 L54.4833511,16.4670667 C57.0228466,14.8992044 59.1441057,12.9940117 60.7873534,10.8044108 L60.83228,10.7450163 L58.5219865,9.76957592 L58.4949544,9.80936261 Z" id="Fill-9" fill="#262626"></path>
                <path d="M42.4065275,5.39503807 L49.3798601,5.39503807 L49.3798601,8.86695092 L42.7672729,8.86695092 L42.7672729,7.98079266 L48.4025161,7.98079266 L48.4025161,6.28843028 L40.4263303,6.29071468 L40.4263303,10.5583615 L50.3366445,10.5583615 C51.1685482,10.5583615 51.8451124,9.88160688 51.8451124,9.04970321 L51.8451124,3.69810688 L41.2881216,3.70610229 L40.4149083,3.18792339 L40.4571697,5.40588899 L42.4065275,5.39503807 Z" id="Fill-11" fill="#262626"></path>
                <path d="M58.9260594,16.328689 C57.5365709,18.8226867 55.3062314,20.8341041 52.2976718,22.3075445 L52.2198117,22.3456179 L52.283775,22.4031087 C52.9325456,22.9881064 53.4849906,23.6243128 53.925119,24.2928817 L53.9553874,24.3383794 L54.0027888,24.311728 C57.124236,22.5432188 59.563408,20.1558266 61.2532956,17.2154183 L61.287181,17.1556431 L58.9500456,16.2849046 L58.9260594,16.328689 Z" id="Fill-13" fill="#262626"></path>
                <path d="M52.0931225,22.4590195 L52.0895055,22.4607328 L52.039439,22.3569828 C51.6248197,21.4988085 51.0666638,20.51918 50.3798197,19.4451296 L50.3531683,19.4028681 L48.3200491,20.2821732 L48.355267,20.3392833 C49.1121661,21.5797144 49.6931661,22.7380975 50.0815147,23.7835929 L50.1037876,23.8429874 L52.2513174,22.8309966 L52.1212968,22.514797 L52.0931225,22.4590195 Z" id="Fill-15" fill="#262626"></path>
                <path d="M49.3798411,17.1477048 C49.3798411,17.2763929 49.2749489,17.3812851 49.1462608,17.3812851 L42.7672539,17.3812851 L42.7672539,16.2027232 L49.3798411,16.2027232 L49.3798411,17.1477048 Z M51.731825,17.5531865 L51.731825,14.5113126 L40.4411599,14.5113126 L40.4411599,19.0713631 L44.7706759,19.0713631 L44.7706759,22.1669204 C44.7706759,22.4180144 44.6174305,22.5626933 44.3514878,22.5626933 C43.8416851,22.5626933 43.3861369,22.5581245 42.9857952,22.5478447 L42.8906117,22.5449892 L42.9309695,22.6310351 C43.227942,23.2569617 43.4373456,23.8760351 43.5551828,24.4694089 L43.5643204,24.51662 L43.612864,24.5160489 C44.952286,24.5086245 45.8738525,24.3947851 46.3522447,24.1777667 C46.9395268,23.9198195 47.2366897,23.2666704 47.2366897,22.2367851 L47.2366897,19.0713631 L50.2142195,19.0713631 C51.0514534,19.0713631 51.731825,18.3904204 51.731825,17.5531865 L51.731825,17.5531865 Z" id="Fill-17" fill="#262626"></path>
                <path d="M43.2858516,20.0510677 L41.064269,19.4239989 L41.0437094,19.4700677 C40.5255305,20.6286411 39.8756177,21.635492 39.1124365,22.4641594 L39.0646544,22.5153681 L39.3441131,22.6912672 C39.8659089,23.0183177 40.4571888,23.3883911 40.8784709,23.7723612 L40.9235878,23.8132901 L40.9628034,23.7666502 C41.8518172,22.6975493 42.6239456,21.4685401 43.2569158,20.1131273 L43.2858516,20.0510677 Z" id="Fill-19" fill="#262626"></path>
                <g transform="translate(63.011468, 3.881011)">
                    <mask id="mask-7" fill="white">
                        <use xlink:href="#path-6"></use>
                    </mask>
                    <g id="Clip-22"></g>
                    <path d="M2.08349037,0.619644495 L1.22741009,0.0363600917 L1.22741009,3.06300459 L7.87045596,3.06300459 L7.85998578,3.31619266 C7.71397431,6.83017661 7.21940092,9.6274289 6.38844908,11.6312317 C5.17505,14.4989197 3.04788945,16.7203119 0.0617931193,18.2388693 C0.827449083,18.853945 1.45299495,19.5815275 1.92834128,20.4092431 C5.15696514,18.6561537 7.48363028,16.1046651 8.84627706,12.8229289 C9.83161651,10.4699931 10.4360317,7.26402294 10.6433413,3.29353899 L10.655144,3.06300459 L17.1620775,3.06300459 L17.1550339,3.31257569 C16.8485431,14.5920092 17.0581372,16.428289 16.5774606,17.0526927 C16.3061876,17.4046812 15.8308413,17.541555 15.2629766,17.541555 C13.8803413,17.541555 12.788206,17.5124289 11.9024284,17.4551284 C12.3711119,18.2685665 12.6501899,19.1526307 12.7343321,20.0928532 C13.4615339,20.1265482 14.1135408,20.1442523 14.676456,20.1442523 C15.4937014,20.1442523 16.2054835,20.1688096 16.6699789,20.0978028 C17.7282289,19.9289472 18.6014422,19.5327936 19.1356119,18.7058394 C19.6553138,17.9019197 19.5728849,14.4488532 19.9501922,1.91090367 L19.9711326,0.680752294 L2.08349037,0.619644495 Z" id="Fill-21" fill="#262626" mask="url(#mask-7)"></path>
                </g>
                <g transform="translate(40.167431, 27.105782)" fill="#7F7E94">
                    <path d="M0.211059862,2.67556972 L0.221530046,2.66776468 C0.266266284,2.76713624 0.326802982,2.85565688 0.402949771,2.93408807 C0.47909656,3.0123289 0.567617202,3.07895734 0.668892431,3.13340229 C0.769977294,3.18822798 0.880770872,3.23048945 1.00070206,3.2601867 C1.12101399,3.28969358 1.24760803,3.3045422 1.38105528,3.3045422 C1.48632821,3.3045422 1.5860805,3.29597569 1.68050252,3.27827156 C1.77473417,3.26113853 1.85697271,3.23372569 1.92683739,3.19603303 C1.99689243,3.15891147 2.05209885,3.11112936 2.09283739,3.0526867 C2.13357592,2.9944344 2.15375482,2.92476009 2.15375482,2.84271193 C2.15375482,2.78369817 2.14214243,2.72963394 2.11872729,2.68109037 C2.09531216,2.63197569 2.05704839,2.58933349 2.00336491,2.55183119 C1.94987179,2.51470963 1.87886491,2.48367982 1.790725,2.45893211 C1.70258509,2.4347555 1.59350482,2.41667064 1.46386491,2.40467752 C1.23028463,2.38335642 1.03401628,2.34509266 0.875059862,2.28817294 C0.715913073,2.23182431 0.587225,2.16062706 0.488614908,2.07439083 C0.390004817,1.98834495 0.319569037,1.88840229 0.277307569,1.77456284 C0.234855734,1.66053303 0.213725,1.53565229 0.213725,1.40011101 C0.213725,1.24705596 0.244754817,1.10523257 0.307004817,0.974831193 C0.369254817,0.844429817 0.457013991,0.731161468 0.570472706,0.635597248 C0.683360321,0.540033028 0.817949771,0.465218807 0.973669954,0.411154587 C1.12939014,0.357661468 1.30053005,0.330629358 1.48708968,0.330629358 C1.60130986,0.330629358 1.7054406,0.336340367 1.79986261,0.348523853 C1.89409427,0.361088073 1.98128234,0.378411468 2.06180757,0.401065138 C2.14214243,0.423338073 2.21676628,0.450750917 2.28605986,0.482922936 C2.35535344,0.515475688 2.42083968,0.550693578 2.48328005,0.588576606 L2.433975,1.3557555 L2.41589014,1.36089541 C2.37439014,1.29826468 2.32070665,1.24191606 2.25503005,1.19127844 C2.18935344,1.14083119 2.11491995,1.09856972 2.03172959,1.06373257 C1.94891995,1.02889541 1.85944748,1.00205367 1.76331216,0.98377844 C1.6673672,0.965883945 1.56761491,0.95674633 1.46386491,0.95674633 C1.37058509,0.95674633 1.28739472,0.966264679 1.21467454,0.985301376 C1.14233509,1.00452844 1.08046583,1.03003761 1.02944748,1.06201927 C0.978429128,1.09457202 0.939594266,1.13264541 0.912752523,1.17681055 C0.885720413,1.22154679 0.872585092,1.26894817 0.872585092,1.31901468 C0.872585092,1.38012248 0.883626376,1.43380596 0.906089679,1.47949404 C0.928743349,1.52575321 0.96891078,1.56649174 1.02678234,1.60209037 C1.08484427,1.63768899 1.16346583,1.66909954 1.26283739,1.69613165 C1.36220894,1.72316376 1.48899335,1.74715 1.64280986,1.76770963 C1.85373647,1.79398028 2.03363326,1.83471881 2.18230986,1.89030596 C2.33098647,1.94589312 2.45225023,2.01613853 2.54686261,2.10066147 C2.6409039,2.18480367 2.70981674,2.28360413 2.75303005,2.39668211 C2.79624335,2.50956972 2.81775482,2.63749633 2.81775482,2.78008119 C2.81775482,2.91752615 2.79795665,3.04126468 2.75816995,3.15167752 C2.71838326,3.26228073 2.66431904,3.36012936 2.59597729,3.44541376 C2.52782592,3.5305078 2.44691995,3.60360872 2.35364014,3.66433578 C2.26016995,3.72544358 2.16022729,3.77570046 2.05400252,3.81548716 C1.94758739,3.85584495 1.83679381,3.8849711 1.72200252,3.90324633 C1.6068305,3.92133119 1.49318142,3.93065917 1.38105528,3.93065917 C1.12310803,3.93065917 0.896000229,3.90058119 0.698780046,3.8406156 C0.501369495,3.78065 0.329658486,3.70012477 0.182695183,3.59942064 L0.211059862,2.67556972 Z" id="Fill-23"></path>
                    <path d="M5.30057798,0.13470367 L5.9362133,0.13470367 L5.9362133,1.34258211 C5.99313303,1.29898807 6.04910092,1.26148578 6.10354587,1.22931376 C6.15780046,1.19733211 6.21281651,1.17049037 6.2682133,1.14955 C6.32361009,1.12860963 6.38052982,1.11299954 6.43935321,1.10271972 C6.49817661,1.09224954 6.56042661,1.08710963 6.62610321,1.08710963 C6.77135321,1.08710963 6.90308716,1.11223807 7.02168578,1.16268532 C7.14009404,1.21332294 7.2411789,1.28490092 7.32513073,1.3778 C7.4088922,1.47107982 7.47323624,1.58225413 7.51816284,1.71189404 C7.56327982,1.84134358 7.58593349,1.98507064 7.58593349,2.1432656 L7.58593349,2.78289862 L7.58593349,3.18038486 C7.58593349,3.28927477 7.58669495,3.38046055 7.58840826,3.4545133 C7.59012156,3.52856606 7.59183486,3.58719908 7.59373853,3.63041239 C7.59526147,3.67419679 7.59792661,3.70789174 7.60154358,3.73206835 C7.60820642,3.77756606 7.61924771,3.80897661 7.6337156,3.82610963 C7.64837385,3.84381376 7.66093807,3.85904312 7.67121789,3.87313028 L7.66626835,3.88379083 C7.64190138,3.88169679 7.61334633,3.87979312 7.58060321,3.87712798 C7.54766972,3.87427248 7.51188073,3.87236881 7.4728555,3.87046514 C7.43402064,3.86875183 7.39328211,3.86760963 7.35102064,3.86646743 C7.30856881,3.86570596 7.26668807,3.86532523 7.22518807,3.86532523 C7.19587156,3.86532523 7.1581789,3.86570596 7.11249083,3.86646743 C7.06661239,3.86760963 7.01254817,3.86970367 6.95048853,3.87313028 L6.95048853,2.36275872 C6.95048853,2.23064404 6.93563991,2.12156376 6.90632339,2.03532752 C6.87681651,1.94909128 6.83931422,1.88132064 6.79324541,1.83163486 C6.74755734,1.78232982 6.69615826,1.74787339 6.63904817,1.72864633 C6.58193807,1.70941927 6.52501835,1.70009128 6.46790826,1.70009128 C6.3673945,1.70009128 6.27240138,1.73016927 6.18254817,1.79013486 C6.09269495,1.85010046 6.01045642,1.93728853 5.9362133,2.05207982 L5.9362133,3.57311193 C5.9362133,3.66163257 5.93716514,3.72711881 5.93887844,3.76899954 C5.94040138,3.81049954 5.94306651,3.84267156 5.94668349,3.86532523 L5.30057798,3.86532523 L5.30057798,0.13470367 Z" id="Fill-25"></path>
                    <path d="M10.6263986,2.98101353 C10.6263986,3.09066491 10.6766555,3.17994702 10.7769789,3.2498117 C10.8771119,3.31929564 11.0242656,3.35375206 11.2178688,3.35375206 C11.3579789,3.35375206 11.4910454,3.32595849 11.6174491,3.2705617 C11.6121188,3.21840115 11.609644,3.16433693 11.609644,3.10874977 L11.609644,2.6313094 C11.5784239,2.62426583 11.5392083,2.62026812 11.4914261,2.61969702 C11.4440248,2.61874518 11.4002404,2.61836445 11.3604537,2.61836445 C11.2273872,2.61836445 11.1143092,2.62940573 11.0206486,2.6509172 C10.9273688,2.6728094 10.8514124,2.70136445 10.792589,2.73715344 C10.7335752,2.77275206 10.6913138,2.81177729 10.6654239,2.8544195 C10.6393436,2.89725206 10.6263986,2.9391328 10.6263986,2.98101353 M9.99095367,2.99909839 C9.99095367,2.88621078 10.0183665,2.77617867 10.0728115,2.6693828 C10.1272564,2.56239656 10.2104468,2.46759381 10.323144,2.38497454 C10.4354606,2.30235528 10.5786165,2.23572683 10.7522312,2.18527959 C10.9260362,2.13483234 11.1314422,2.1097039 11.3682587,2.1097039 C11.3838688,2.1097039 11.3998596,2.11008463 11.4162312,2.1108461 C11.4326028,2.11160757 11.4495454,2.1125594 11.4668688,2.1125594 L11.601839,2.12264885 C11.5947954,2.03565115 11.5791853,1.96369243 11.5551991,1.90601124 C11.5308321,1.84890115 11.4958046,1.80264197 11.4499261,1.76780482 C11.4042381,1.73296766 11.3478894,1.70860069 11.281261,1.69489427 C11.2148229,1.68080711 11.1350592,1.67376353 11.041589,1.67376353 C10.9722954,1.67376353 10.898433,1.68080711 10.8198115,1.69489427 C10.7411899,1.70860069 10.6646624,1.72782775 10.5904193,1.75219472 C10.5157954,1.77637133 10.447644,1.80416491 10.3852037,1.83557546 C10.323144,1.86679564 10.2736486,1.90010986 10.2374789,1.93494702 L10.2296739,1.92961674 L10.1518138,1.32958005 C10.283167,1.2566695 10.4348894,1.19803647 10.6069812,1.15330023 C10.7790729,1.10913509 10.9566853,1.08724289 11.1400087,1.08724289 C11.3267587,1.08724289 11.4899032,1.11103876 11.6292518,1.15882087 C11.7680294,1.20660298 11.8832014,1.27627729 11.9740064,1.36746307 C12.0648115,1.45883922 12.1325821,1.5696328 12.1775087,1.70003417 C12.2224353,1.83043555 12.245089,1.97739885 12.245089,2.14092408 L12.245089,3.08514427 C12.245089,3.19498601 12.262222,3.28179335 12.2966784,3.34594702 C12.3315156,3.41067179 12.3850087,3.4607383 12.4575385,3.49747913 L11.9882839,3.93075436 C11.9069972,3.88887362 11.8396073,3.83043096 11.7861142,3.75561674 C11.6821739,3.80606399 11.5729032,3.84375665 11.4577312,3.86812362 C11.3427495,3.89230023 11.2256739,3.90448372 11.1063138,3.90448372 C10.9317472,3.90448372 10.775456,3.88373372 10.6382014,3.84185298 C10.5007564,3.79997225 10.3840615,3.74038739 10.2881165,3.66328876 C10.1921716,3.58561904 10.1184995,3.49100665 10.0674812,3.3788805 C10.0164628,3.26656399 9.99095367,3.13996995 9.99095367,2.99909839" id="Fill-27"></path>
                    <path d="M15.3554569,2.47227683 C15.3554569,2.59220803 15.3729706,2.70262087 15.4072367,2.80370573 C15.4418835,2.90440986 15.4942344,2.9923594 15.5642894,3.06717362 C15.6343445,3.14198784 15.7217229,3.1998594 15.8264248,3.24174014 C15.9307459,3.28381124 16.0522,3.30456124 16.1907872,3.30456124 C16.2650303,3.30456124 16.3362275,3.29789839 16.4047596,3.28495344 C16.4731014,3.27200849 16.5393491,3.25049702 16.603122,3.2211805 L16.603122,1.77553372 C16.478622,1.72508647 16.3385119,1.69995803 16.1829821,1.69995803 C16.0582917,1.69995803 15.9457849,1.71918509 15.8443193,1.75763922 C15.7434248,1.79552225 15.6562367,1.848825 15.5837069,1.91659564 C15.5109867,1.98436628 15.4550188,2.06584335 15.4150417,2.1606461 C15.375255,2.25525849 15.3554569,2.35919885 15.3554569,2.47227683 M14.727817,2.53738234 C14.727817,2.33216674 14.7641771,2.14141904 14.8367069,1.96475849 C14.9092367,1.78809794 15.0108927,1.63466216 15.1416748,1.50426078 C15.2720761,1.3738594 15.4285578,1.27201307 15.6109294,1.19796032 C15.7934913,1.12390757 15.993567,1.08716674 16.2113468,1.08716674 C16.3428904,1.08716674 16.4734821,1.10429977 16.603122,1.13932729 L16.603122,0.13476078 L17.238567,0.13476078 L17.238567,2.76715528 C17.238567,2.88537317 17.2416128,2.98265069 17.2475142,3.05936858 C17.2537963,3.13570573 17.2646472,3.19947867 17.2798766,3.25087775 C17.2954867,3.30208647 17.3168078,3.3445383 17.3436495,3.37728142 C17.3704913,3.41059564 17.404567,3.44200619 17.446067,3.47132271 L16.9583468,3.90440757 C16.8652573,3.85396032 16.7925372,3.79209106 16.7403766,3.7191805 C16.6210165,3.78542821 16.5014661,3.83282959 16.3813445,3.86138463 C16.2612229,3.88993968 16.1542367,3.90440757 16.0611472,3.90440757 C15.8553606,3.90440757 15.6701335,3.86957041 15.5060372,3.7998961 C15.3417505,3.73060252 15.20145,3.6350383 15.0857069,3.51320344 C14.9699638,3.39155894 14.8812528,3.24688005 14.8199546,3.08011858 C14.7584661,2.91316674 14.727817,2.73231812 14.727817,2.53738234" id="Fill-29"></path>
                    <path d="M20.3933094,2.48529794 C20.3933094,2.6054195 20.4121557,2.71526124 20.4492773,2.81539427 C20.4863989,2.91533693 20.5397016,3.00062133 20.6088048,3.07105711 C20.6777177,3.14111216 20.7605273,3.19593784 20.8564722,3.23515344 C20.9524172,3.27436904 21.0599745,3.29397683 21.1793346,3.29397683 C21.2916511,3.29397683 21.3915938,3.27474977 21.4789722,3.23667638 C21.5661603,3.19841261 21.6402131,3.14434839 21.7007498,3.07505482 C21.7612865,3.0053805 21.8069745,2.92219014 21.8381947,2.82567408 C21.8694149,2.72915803 21.8848346,2.62198142 21.8848346,2.50376353 C21.8848346,2.38687821 21.8682727,2.27894014 21.8355296,2.17861674 C21.8025961,2.07867408 21.7542429,1.99224748 21.6902796,1.91933693 C21.6265067,1.84623601 21.5480755,1.78931628 21.4555571,1.74819702 C21.3632291,1.70745849 21.2571947,1.68708922 21.1378346,1.68708922 C21.0133346,1.68708922 20.9044447,1.71031399 20.8109745,1.75600206 C20.7176947,1.80226124 20.6398346,1.86260757 20.5775846,1.93742179 C20.5153346,2.01223601 20.4690755,2.09752041 20.4386167,2.19308463 C20.4085388,2.28864885 20.3933094,2.38611674 20.3933094,2.48529794 M19.7475846,2.52946307 C19.7475846,2.32976812 19.7812796,2.14225665 19.8486695,1.96749977 C19.9162498,1.79293326 20.0121947,1.64025894 20.1365044,1.5096672 C20.2611947,1.37926583 20.4115846,1.27627729 20.5878644,1.20032087 C20.7641443,1.12474518 20.9613644,1.08724289 21.1793346,1.08724289 C21.3936878,1.08724289 21.5853874,1.12246078 21.7536718,1.19251583 C21.9223369,1.26295161 22.0645411,1.3604195 22.1806649,1.48472913 C22.296408,1.60922913 22.3847383,1.75600206 22.4450846,1.92561904 C22.5056213,2.09523601 22.5358897,2.2785594 22.5358897,2.47463739 C22.5358897,2.66976353 22.5048599,2.85384839 22.4426099,3.02651124 C22.3803599,3.19955482 22.2893644,3.35146766 22.1700044,3.48186904 C22.051025,3.61227041 21.9050135,3.71525894 21.7329218,3.79083463 C21.5612108,3.86641032 21.3651328,3.90448372 21.1456397,3.90448372 C20.915486,3.90448372 20.7133163,3.86679106 20.5387498,3.7921672 C20.3639929,3.71773372 20.2183622,3.61664885 20.1016672,3.48967408 C19.9847819,3.36288968 19.8968323,3.21687821 19.8370571,3.05163968 C19.7774722,2.88621078 19.7475846,2.71240573 19.7475846,2.52946307" id="Fill-31"></path>
                    <polygon id="Fill-33" points="24.6555498 1.13925115 25.39227 1.13925115 25.8255452 2.92108601 26.2559649 1.13925115 26.8186897 1.13925115 27.28052 2.93917087 27.7421599 1.13925115 28.4529901 1.13925115 27.61252 3.86530619 26.9407149 3.86530619 26.5308548 2.35759977 26.1676346 3.86530619 25.4933548 3.86530619"></polygon>
                    <path d="M31.493322,3.27046651 C31.6143954,3.30016376 31.7337555,3.31463165 31.8514023,3.31463165 C31.9827555,3.31463165 32.0990697,3.30016376 32.200345,3.27046651 C32.3012394,3.24115 32.3865239,3.19888853 32.4556271,3.14387248 C32.5247303,3.08904679 32.5770812,3.02413165 32.6126798,2.94855596 C32.6478977,2.87259954 32.6656018,2.78883807 32.6656018,2.69670046 C32.6656018,2.62550321 32.647517,2.5569711 32.6113472,2.4918656 C32.5749872,2.42656972 32.5213037,2.36888853 32.4504872,2.31844128 C32.3794803,2.26780367 32.2922922,2.22801697 32.1885422,2.19812936 C32.0847922,2.16881284 31.9654321,2.15396422 31.8304619,2.15396422 C31.7649757,2.15396422 31.7034872,2.15777156 31.6463771,2.16576697 C31.589267,2.17357202 31.5382486,2.18366147 31.493322,2.19584495 L31.493322,3.27046651 Z M31.493322,1.58533807 C31.5226385,1.59238165 31.553478,1.59695046 31.5852693,1.59980596 C31.6174413,1.60209037 31.6480904,1.60380367 31.6775972,1.60380367 C31.7727807,1.60380367 31.8542578,1.59276239 31.9225995,1.57087018 C31.9909413,1.54916835 32.0461477,1.52137477 32.0885995,1.48748945 C32.1312417,1.4537945 32.1620812,1.41610183 32.1820697,1.3753633 C32.2020583,1.33424404 32.211767,1.29388624 32.211767,1.25409954 C32.211767,1.15301468 32.1637945,1.07382202 32.0678495,1.01671193 C31.9719046,0.959030734 31.8435972,0.930475688 31.6827372,0.930475688 C31.6048771,0.930475688 31.5418656,0.933331193 31.493322,0.938471101 L31.493322,1.58533807 Z M30.8319872,0.411154587 C30.987517,0.383361009 31.1323862,0.36318211 31.266595,0.350237156 C31.4006133,0.336721101 31.5245422,0.330629358 31.6387624,0.330629358 C31.8599688,0.330629358 32.0497647,0.354805963 32.2079596,0.403349541 C32.366345,0.452273853 32.4959849,0.515856422 32.5970697,0.594097248 C32.6981546,0.672147706 32.7725881,0.76123945 32.8201798,0.86118211 C32.8675812,0.961505505 32.8913771,1.0624 32.8913771,1.1650078 C32.8913771,1.26609266 32.8713885,1.36489312 32.8317922,1.46159954 C32.7920055,1.55792523 32.7324206,1.6451133 32.6528472,1.7235445 C32.7583106,1.7690422 32.8531133,1.82615229 32.9368748,1.89582661 C33.0206362,1.96531055 33.0912624,2.04355138 33.1479917,2.13035872 C33.2052922,2.21735642 33.2490766,2.31101697 33.2791546,2.41076927 C33.3094229,2.51109266 33.3244619,2.61331972 33.3244619,2.71745046 C33.3244619,2.90001239 33.2865789,3.06563165 33.2106225,3.21449862 C33.1342853,3.36317523 33.0244436,3.49053073 32.8810972,3.59656514 C32.7375606,3.70278991 32.5618518,3.78502844 32.3545422,3.8429 C32.1472326,3.90134266 31.911939,3.93065917 31.6490422,3.93065917 C31.5904092,3.93065917 31.5245422,3.92799404 31.451822,3.92285413 C31.3791018,3.91733349 31.3063817,3.91105138 31.2327096,3.90324633 C31.159228,3.89544128 31.0874596,3.88649404 31.017595,3.87716606 C30.9475399,3.86764771 30.8856706,3.85831972 30.8319872,3.84956284 L30.8319872,0.411154587 Z" id="Fill-35"></path>
                    <path d="M36.2976704,2.48529794 C36.2976704,2.6054195 36.3165167,2.71526124 36.3536383,2.81539427 C36.3907599,2.91533693 36.4440626,3.00062133 36.5131658,3.07105711 C36.5820787,3.14111216 36.6646979,3.19593784 36.7608333,3.23515344 C36.8567782,3.27436904 36.9643356,3.29397683 37.0836956,3.29397683 C37.1960122,3.29397683 37.2959548,3.27474977 37.3833333,3.23667638 C37.4705213,3.19841261 37.5445741,3.14434839 37.6051108,3.07505482 C37.6656475,3.0053805 37.7113356,2.92219014 37.7425557,2.82567408 C37.7735856,2.72915803 37.7891956,2.62198142 37.7891956,2.50376353 C37.7891956,2.38687821 37.7726337,2.27894014 37.7398906,2.17861674 C37.7069571,2.07867408 37.6586039,1.99224748 37.5946406,1.91933693 C37.5308677,1.84623601 37.4524365,1.78931628 37.3599181,1.74819702 C37.2675901,1.70745849 37.1615557,1.68708922 37.0421956,1.68708922 C36.9176956,1.68708922 36.8088057,1.71031399 36.7153356,1.75600206 C36.6220557,1.80226124 36.5441956,1.86260757 36.4819456,1.93742179 C36.4196956,2.01223601 36.3734365,2.09752041 36.3429778,2.19308463 C36.3128998,2.28864885 36.2976704,2.38611674 36.2976704,2.48529794 M35.6519456,2.52946307 C35.6519456,2.32976812 35.6856406,2.14225665 35.7530305,1.96749977 C35.8206108,1.79293326 35.9165557,1.64025894 36.0408654,1.5096672 C36.1655557,1.37926583 36.3159456,1.27627729 36.4922255,1.20032087 C36.6685053,1.12474518 36.8657255,1.08724289 37.0836956,1.08724289 C37.2980489,1.08724289 37.4897484,1.12246078 37.6580328,1.19251583 C37.8266979,1.26295161 37.9689021,1.3604195 38.0850259,1.48472913 C38.200769,1.60922913 38.2889089,1.75600206 38.3494456,1.92561904 C38.4099823,2.09523601 38.4402507,2.2785594 38.4402507,2.47463739 C38.4402507,2.66976353 38.4092209,2.85384839 38.3467805,3.02651124 C38.2847209,3.19955482 38.1937255,3.35146766 38.0743654,3.48186904 C37.955386,3.61227041 37.8093745,3.71525894 37.6372828,3.79083463 C37.4655718,3.86641032 37.2694938,3.90448372 37.0500007,3.90448372 C36.819847,3.90448372 36.6176773,3.86679106 36.4431108,3.7921672 C36.2683539,3.71773372 36.1227232,3.61664885 36.0060282,3.48967408 C35.8891429,3.36288968 35.8011933,3.21687821 35.7412278,3.05163968 C35.6818333,2.88621078 35.6519456,2.71240573 35.6519456,2.52946307" id="Fill-37"></path>
                    <path d="M41.1408917,1.73926881 L40.7493069,1.73926881 C40.7477839,1.71490183 40.7468321,1.68939266 40.7468321,1.66369312 L40.7468321,1.58526193 L40.7468321,1.29590413 L40.7468321,1.18358761 C40.7468321,1.15408073 40.7477839,1.13923211 40.7493069,1.13923211 L41.1408917,1.13923211 L41.1408917,0.395468349 L41.7763367,0.395468349 L41.7763367,1.13923211 L42.4273917,1.13923211 L42.4273917,1.73926881 L41.7763367,1.73926881 L41.7763367,2.80361055 C41.7763367,2.90431468 41.7852839,2.98655321 41.8026073,3.04994541 C41.81955,3.11333761 41.8446784,3.16302339 41.8776119,3.19881239 C41.9105454,3.23441101 41.9516647,3.25858761 42.0009697,3.27210367 C42.0500844,3.28504862 42.1068138,3.29114037 42.1705867,3.29114037 C42.2743367,3.29114037 42.362667,3.27629174 42.4351968,3.24583303 C42.507917,3.21518394 42.5640752,3.17216101 42.6038619,3.11657385 L42.6246119,3.11657385 L42.536472,3.77410138 C42.517245,3.79332844 42.489261,3.81046147 42.4521394,3.82607156 C42.4148275,3.84187202 42.3725661,3.85595917 42.3249743,3.86814266 C42.2775729,3.88032615 42.2269353,3.88927339 42.1734422,3.8955555 C42.1197587,3.90126651 42.0670271,3.90450275 42.0150569,3.90450275 C41.8819904,3.90450275 41.7614881,3.88565642 41.6533596,3.84853486 C41.5450408,3.8108422 41.4530936,3.75297064 41.3771372,3.67339725 C41.3009904,3.59439495 41.2425477,3.49292936 41.2018092,3.36842936 C41.161261,3.24431009 41.1408917,3.09582385 41.1408917,2.92354174 L41.1408917,1.73926881 Z" id="Fill-39"></path>
                </g>
            </g>
        </g>
    </g>
</svg>