<?xml version="1.0" encoding="utf-8"?>
<!-- Generator: Adobe Illustrator 23.1.1, SVG Export Plug-In . SVG Version: 6.00 Build 0)  -->
<svg version="1.1" id="图层_1" xmlns="http://www.w3.org/2000/svg" xmlns:xlink="http://www.w3.org/1999/xlink" x="0px" y="0px"
	 viewBox="0 0 783.34 251.01" style="enable-background:new 0 0 783.34 251.01;" xml:space="preserve">
<style type="text/css">
	.st0{fill:#0073DF;}
	.st1{fill:#8D9193;}
	.st2{fill:#0067CB;}
	.st3{fill:#FFFFFF;}
</style>
<g>
	<g>
		<path class="st0" d="M324.24,87.75h17.51c-4.99,13.4-11.57,23.33-19.74,29.8h14.17v53.87c0,8.48-3.82,12.71-11.46,12.71h-11.46
			v-60.98l-9.23,2.6l0.16-20.64c7.21-2.28,13-7.66,17.35-16.13c-4.67,3.74-10.5,6.29-17.51,7.66l0.16-18.73
			c8.28-3.01,14.17-10.16,17.67-21.46h19.89C336.98,70.3,331.14,80.74,324.24,87.75z M367.69,165.14v-40.06
			c0-6.56-3.45-9.84-10.35-9.84h-13.53V97.33h23.87V84.47c0-3.1-1.75-4.65-5.25-4.65l-1.27,5.74c-1.06,3.19-3.77,4.7-8.12,4.51
			h-12.1l7.64-35.27h18.94l-1.59,7.11h34.38v17.91h-10.5v17.5h11.78v17.91h-11.78v14.9h10.5v17.91h-10.5v17.09h11.14v17.91H361.8
			c-13.05,0.09-19.52-4.83-19.42-14.77v-45.12h18.46v41.97H367.69z M406.21,66.02v-8.89h26.58c14.32,0,21.49,6.61,21.49,19.82v83.26
			c0,7.47-4.51,11.21-13.53,11.21h-13.53v12.71h-21.01V75.04V66.02z M427.22,153.52h4.93c2.65,0,3.98-1.09,3.98-3.28v-75.2h-8.91
			V153.52z"/>
		<path class="st0" d="M523.07,122.34h-22.28v-18.87c0-6.93-4.99-10.39-14.96-10.39h-17.19V76.41h14.64
			c-4.03-0.64-7.43-3.33-10.19-8.07l-4.14-10.8h19.1c5.3,10.66,9.55,11.39,12.73,2.19v-4.24h22.28v20.92h2.87l5.41-18.87h19.42
			l-5.09,18.87h8.59v16.68h-31.2V122.34z M525.3,123.44h21.65v6.02h7.32v15.86h-7.32v6.29c-4.03,7.47-7.96,12.67-11.78,15.59
			c5.52,0.55,11.88,0.82,19.1,0.82v15.72c-18.04,0.64-32.26-1.09-42.65-5.2c-9.55,3.28-23.56,4.92-42.02,4.92l-0.32-16.13
			c7.85,0.27,14.54-0.18,20.05-1.37c-3.82-1.82-8.07-6.38-12.73-13.67v-6.97h-7v-15.86h7.32v-6.02h21.96v6.02h26.42V123.44z
			 M474.37,115.58c2.33,1.96,5.09,2.94,8.28,2.94c3.18,0,5.94-0.98,8.28-2.94c2.33-1.96,3.5-4.35,3.5-7.18
			c0-2.82-1.17-5.22-3.5-7.18c-2.33-1.96-5.09-2.94-8.28-2.94c-3.18,0-5.94,0.98-8.28,2.94c-2.33,1.96-3.5,4.35-3.5,7.18
			C470.87,111.23,472.03,113.62,474.37,115.58z M500.15,70.67c-1.27,1.55-2.49,2.71-3.66,3.49c-1.17,0.78-4.51,1.57-10.03,2.39
			h13.69V70.67z M499.2,145.31V149c2.33,3.19,5.09,5.81,8.28,7.86c3.18,2.05,6.15,2.23,8.91,0.55c2.76-1.69,5.41-4.49,7.96-8.41
			v-3.69H499.2z M548.54,102.11l3.82,18.05h-18.78l-6.05-22.83h13.69C545.04,97.33,547.47,98.92,548.54,102.11z M567,54.94h22.6
			l-4.46,15.45h18.78c10.19,0.64,14.75,5.83,13.69,15.59l-19.42,54.28L618.89,184h-23.24l-7.96-17.77l-6.05,13.67
			c-1.27,2.73-4.25,4.1-8.91,4.1h-16.55l18.46-44.43l-7-16.82c-1.27-3.37-3.29-5.15-6.05-5.33h-5.09v-15.18h13.37
			c5.94,0.46,9.65,2.23,11.14,5.33l3.5,5.74l9.55-25.7h-13.69l-2.23,6.02c-0.85,2.73-3.29,4.15-7.32,4.24l-16.55,0.14L567,54.94z"/>
		<path class="st0" d="M685.93,165.82v7.52c0,6.65-4.62,10.07-13.85,10.25h-38.36v-17.77h11.94v-57.83c0-6.65-2.65-9.93-7.96-9.84
			h-4.46v-19h12.42v-24.2h26.74v24.2h11.94v19H672.4v67.68H685.93z M687.04,83.65V64.51h34.54v-9.57h29.44v9.57h32.31v19.14h-58.25
			l-0.64,17.23h39.31c11.67,0,17.56,5.42,17.67,16.27v54c-0.11,8.57-5.84,12.85-17.19,12.85h-19.58v-17.77h7.8
			c2.97,0,4.46-1.09,4.46-3.28v-36.78c0-5.01-3.29-7.52-9.87-7.52H722.7l-3.02,64.53h-24.83l5.57-99.53H687.04z"/>
	</g>
	<g>
		<path class="st0" d="M415.12,227.68c0,2.82-0.95,5.23-2.86,7.23c-1.9,2-4.19,3-6.85,3h-28.31V204.8h28.31c2.66,0,4.94,1,6.85,3
			c1.9,2,2.86,4.41,2.86,7.23V227.68z M407.05,227.68v-12.65c0-0.5-0.16-0.92-0.48-1.26c-0.32-0.34-0.71-0.51-1.16-0.51h-20.24
			v16.18h20.24c0.45,0,0.83-0.17,1.16-0.51C406.89,228.6,407.05,228.18,407.05,227.68z"/>
		<path class="st0" d="M453.67,237.95h-7.73v-1.32c-0.98,0.85-2.09,1.28-3.32,1.28h-15.46c-2.69,0-4.98-1-6.89-3
			c-1.9-2-2.86-4.41-2.86-7.23v-12.65c0-2.82,0.95-5.23,2.86-7.23c1.9-2,4.2-3,6.89-3h17.35c3.36,0,6.12,1.62,8.27,4.85l-6.8,5.55
			c-0.31-1.29-0.8-1.94-1.47-1.94h-17.35c-0.48,0-0.88,0.17-1.2,0.51c-0.32,0.34-0.48,0.76-0.48,1.26v12.65
			c0,0.5,0.16,0.92,0.48,1.26c0.32,0.34,0.72,0.51,1.2,0.51h14.7c1.01,0,1.93-0.45,2.77-1.34c0.84-0.9,1.27-1.87,1.3-2.93
			c-0.9,0.15-1.79,0.22-2.69,0.22h-7.27v-8.33h17.68V237.95z"/>
		<path class="st0" d="M510.92,204.8l-12.22,33.11h-8.78l-7.18-20.1l-7.22,20.1h-8.78l-12.22-33.11h9.28l5.38,18.07
			c0.48,1.38,1.18,3.45,2.1,6.22c0.34-1.26,0.94-3.34,1.81-6.22l5.42-18.07h8.44l5.42,18.07c0.42,1.38,1.02,3.45,1.81,6.22
			c0.5-1.38,1.2-3.45,2.1-6.22l5.38-18.07H510.92z"/>
		<path class="st0" d="M536.71,227.68c0,2.82-0.95,5.23-2.86,7.23c-1.9,2-4.2,3-6.89,3h-9.07c-2.69,0-4.98-1-6.89-3
			c-1.9-2-2.86-4.41-2.86-7.23v-5.55c0-2.82,0.95-5.23,2.86-7.23c1.9-2,4.2-3,6.89-3h9.07c2.69,0,4.98,1,6.89,3
			c1.9,2,2.86,4.41,2.86,7.23V227.68z M528.6,227.68v-5.55c0-0.47-0.15-0.87-0.46-1.21c-0.31-0.34-0.7-0.51-1.18-0.51h-9.07
			c-0.45,0-0.83,0.17-1.15,0.51c-0.32,0.34-0.48,0.74-0.48,1.21v5.55c0,0.5,0.16,0.92,0.48,1.26c0.32,0.34,0.71,0.51,1.15,0.51h9.07
			c0.48,0,0.87-0.17,1.18-0.51C528.45,228.6,528.6,228.18,528.6,227.68z"/>
		<path class="st0" d="M555.56,212.03l-0.97,8.68c-1.68-1.03-3.07-1.54-4.16-1.54c-2.18,0-3.28,2.09-3.28,6.26v12.52h-8.11V211.9
			h8.02v2.16c0.76-1.38,2-2.19,3.74-2.42C551.97,211.46,553.55,211.59,555.56,212.03z"/>
		<path class="st0" d="M584.67,211.9l-10.79,12.08c-0.48,0.53-0.87,0.9-1.18,1.1c0.39,0.21,0.78,0.53,1.18,0.97l10.71,11.86h-9.49
			l-6.09-6.61c-0.42-0.47-0.69-0.91-0.8-1.32c-0.11,0.26-0.42,0.71-0.92,1.32l-2.73,3.22v3.39h-8.06v-34.17l8.06-2.82v24.16
			c0.34-0.68,0.8-1.37,1.39-2.07l9.28-11.11H584.67z"/>
		<path class="st0" d="M612.01,229.62c0,1.29-0.29,2.5-0.88,3.61c-1.65,3.12-4.66,4.67-9.03,4.67h-17.85l1.01-8.46h16.59
			c0.9,0,1.34-0.41,1.34-1.23c0-0.76-0.45-1.15-1.34-1.15h-7.85c-2.83,0-5.03-0.51-6.59-1.54c-1.74-1.15-2.6-2.87-2.6-5.16
			c0-1.65,0.49-3.14,1.47-4.5c0.92-1.26,2.18-2.24,3.76-2.93c1.58-0.69,3.41-1.04,5.48-1.04h15.08l-1.01,8.51h-14.78
			c-0.84,0-1.26,0.4-1.26,1.19c0,0.85,0.42,1.28,1.26,1.28h7.69C608.83,222.87,612.01,225.12,612.01,229.62z"/>
		<path class="st0" d="M641.54,237.91h-8.11v-15.78c0-0.47-0.16-0.87-0.48-1.21c-0.32-0.34-0.71-0.51-1.16-0.51h-7.52
			c-1.65,0-2.48,0.87-2.48,2.6v14.9h-8.06v-34.17l8.06-2.82v13.53c1.32-1.7,3.01-2.56,5.08-2.56h4.91c2.69,0,4.98,1,6.89,3
			c1.9,2,2.86,4.41,2.86,7.23V237.91z"/>
		<path class="st0" d="M673.21,227.68c0,2.82-0.95,5.23-2.86,7.23c-1.9,2-4.2,3-6.89,3h-9.07c-2.69,0-4.98-1-6.89-3
			c-1.9-2-2.86-4.41-2.86-7.23v-5.55c0-2.82,0.95-5.23,2.86-7.23c1.9-2,4.2-3,6.89-3h9.07c2.69,0,4.98,1,6.89,3
			c1.9,2,2.86,4.41,2.86,7.23V227.68z M665.1,227.68v-5.55c0-0.47-0.15-0.87-0.46-1.21c-0.31-0.34-0.7-0.51-1.18-0.51h-9.07
			c-0.45,0-0.83,0.17-1.15,0.51c-0.32,0.34-0.48,0.74-0.48,1.21v5.55c0,0.5,0.16,0.92,0.48,1.26c0.32,0.34,0.71,0.51,1.15,0.51h9.07
			c0.48,0,0.87-0.17,1.18-0.51C664.94,228.6,665.1,228.18,665.1,227.68z"/>
		<path class="st0" d="M704.49,227.68c0,2.82-0.95,5.23-2.86,7.23c-1.9,2-4.2,3-6.89,3h-5.67c-0.78,0-1.65-0.18-2.6-0.53
			c-1.15-0.38-1.96-0.9-2.44-1.54v10.05h-8.11V211.9h8.11v2.42c0.48-0.65,1.26-1.22,2.35-1.72c1.01-0.47,1.9-0.71,2.69-0.71h5.67
			c2.69,0,4.98,1,6.89,3c1.9,2,2.86,4.41,2.86,7.23V227.68z M696.43,227.68v-5.55c0-0.47-0.16-0.87-0.48-1.21
			c-0.32-0.34-0.72-0.51-1.2-0.51h-9.07c-0.45,0-0.83,0.17-1.15,0.51c-0.32,0.34-0.48,0.74-0.48,1.21v5.55
			c0,0.5,0.16,0.92,0.48,1.26c0.32,0.34,0.71,0.51,1.15,0.51h9.07c0.48,0,0.88-0.17,1.2-0.51
			C696.27,228.6,696.43,228.18,696.43,227.68z"/>
	</g>
	<g>
		<g>
			<path class="st1" d="M186.42,210.44C186.42,210.44,186.42,210.44,186.42,210.44c8.39-13.34,13.25-29.13,13.25-46.06
				c0-47.84-38.78-86.63-86.63-86.63s-86.63,38.78-86.63,86.63c0,47.84,38.78,86.63,86.63,86.63c20.08,0,38.55-6.83,53.24-18.29
				h71.59c12.31,0,32.28-9.98,32.28-22.28v0H186.42z M113.04,237.07c-40.15,0-72.69-32.55-72.69-72.69
				c0-40.15,32.55-72.69,72.69-72.69s72.69,32.55,72.69,72.69C185.74,204.53,153.19,237.07,113.04,237.07z M169.11,230.41
				c0.06-0.05,0.11-0.09,0.17-0.14C169.22,230.32,169.16,230.37,169.11,230.41z M171.93,227.91c0.06-0.06,0.12-0.11,0.18-0.17
				C172.05,227.79,171.99,227.85,171.93,227.91z M174.69,225.23c0.03-0.03,0.06-0.06,0.09-0.09
				C174.75,225.17,174.72,225.2,174.69,225.23z M184.35,213.57c-0.01,0.01-0.02,0.03-0.03,0.04
				C184.33,213.6,184.34,213.59,184.35,213.57z"/>
			<path class="st0" d="M113.04,91.69c-40.15,0-72.69,32.55-72.69,72.69c0,40.15,32.55,72.69,72.69,72.69s72.69-32.55,72.69-72.69
				C185.74,124.23,153.19,91.69,113.04,91.69z M113.04,231.06c-36.82,0-66.68-29.85-66.68-66.68c0-36.82,29.85-66.68,66.68-66.68
				c36.82,0,66.68,29.85,66.68,66.68C179.72,201.2,149.87,231.06,113.04,231.06z"/>
			<path class="st2" d="M113.04,97.7c-36.82,0-66.68,29.85-66.68,66.68c0,36.82,29.85,66.68,66.68,66.68
				c36.82,0,66.68-29.85,66.68-66.68C179.72,127.56,149.87,97.7,113.04,97.7z M113.04,226.13c-34.1,0-61.75-27.65-61.75-61.75
				c0-34.1,27.65-61.75,61.75-61.75c34.1,0,61.75,27.65,61.75,61.75C174.79,198.48,147.15,226.13,113.04,226.13z"/>
			<circle class="st0" cx="113.04" cy="164.38" r="61.75"/>
			<path class="st3" d="M119.86,197.47c-1.75-0.89-5.49-3.49-5.99-4.49c-0.5-1-0.63-2.59,0.67-3.82c1.46-1.39,5.46-3.11,6.33-3.47
				c1.49-0.61,2.15-2.27,1.82-3.27s-2.83-1.58-5.49-1.75c-2.66-0.17-6.08-1.58-5.99-4.32c0.08-2.49,3.99-4.82,5.65-6.32
				c1.66-1.5,1.83-2.49,1.33-3.66s-3.33-1-5.15-1c-1.83,0-4.82,0.17-6.15-1c-1.33-1.16-1-2.83-0.67-3.99s5.07-5,5.24-6.99
				c0.17-2-1.25-2.74-3.08-2.49c-1.82,0.25-3.84,1.03-5.67,1.2c-1.83,0.17-4.44-0.72-4.86-1.56c-0.57-1.13-0.19-4.45,0.97-5.78
				c1.16-1.33,2.74-5.58,1.25-6.42c-1.33-0.75-3.24,0.33-6.57,1.66c-3.33,1.33-5.07,1.41-5.97,0.75s-1.43-2.66-0.6-6.32
				c0.83-3.66,1-5.99-0.83-6.32c-1.83-0.33-4.21,2.7-7.81,4.66c-2.91,1.58-3.93-0.19-4.82-1.5c-0.67-0.97-0.27-7.02-0.5-7.65
				c-0.49-1.35-0.67-2.49-2.66-2.33c-2,0.17-3.08,3.74-5.24,5.57c-0.58,0.49-1.19,0.77-1.77,0.92
				c-7.54,10.24-12.01,22.89-12.01,36.58c0,2.38,0.15,4.73,0.41,7.04c8.72,4.88,14.62,14.19,14.62,24.89c0,2.53-0.33,4.98-0.95,7.32
				c10.49,12.73,25.99,21.17,43.47,22.34c-0.84-1.47-2.31-4.31-1.95-5.39c0.5-1.5,2-1.66,3.82-1.83s6.48-0.5,7.81-1.33
				s1.66-2.66-0.58-4.24c-2.12-1.49-5.24-2.66-6.07-4.9c-1.03-2.77,1.66-4.77,4.32-4.95c3.79-0.27,6.18-1.03,6.57-2.53
				C123.15,199.3,121.41,198.25,119.86,197.47z"/>
			<path class="st3" d="M159.99,134.68c0-3.04,0.49-5.97,1.38-8.72c-9.87-12.4-24.4-20.91-40.95-22.88
				c0.85,1.54,2.08,4.03,1.75,5.03c-0.5,1.5-2,1.66-3.82,1.83c-1.83,0.17-6.48,0.5-7.81,1.33c-1.33,0.83-1.66,2.66,0.58,4.24
				c2.12,1.49,5.71,3.99,6.07,4.9c1.08,2.75-1.66,4.77-4.32,4.95c-3.79,0.27-6.18,1.03-6.57,2.53c-0.38,1.5,1.55,3.44,3.1,4.22
				c1.75,0.89,5.3,2.6,5.8,3.59s0.63,2.59-0.67,3.82c-1.46,1.39-4.59,2.75-5.46,3.11c-1.49,0.61-2.82,1.86-2.69,3.62
				c0.13,1.76,3.51,2.14,6.17,2.31c2.66,0.17,5.47,1.93,5.3,3.76s-3.99,4.82-5.65,6.32c-1.66,1.5-1.83,2.49-1.33,3.66s3.33,1,5.15,1
				s4.82-0.17,6.15,1c1.33,1.16,1,2.83,0.67,3.99s-4.32,4.99-4.49,6.98c-0.17,2,0.5,2.33,2.33,2.49s4.66-1.16,6.48-1.33
				c1.83-0.17,3.82,0.58,4.32,2.33c0.35,1.22-0.67,4.66-1.83,5.99c-1.16,1.33-2.16,4.73-0.67,5.57c1.33,0.75,3.24-0.33,6.57-1.66
				c3.33-1.33,5.07-1.41,5.97-0.75c0.9,0.67,1.43,2.66,0.6,6.32c-0.83,3.66-1,5.99,0.83,6.32c1.83,0.33,4.21-2.7,7.81-4.66
				c2.91-1.58,3.93,0.19,4.82,1.5c0.67,0.97,0.27,7.02,0.5,7.65c0.35,0.98,0.55,1.84,1.39,2.18c10.71-11.11,17.31-26.21,17.31-42.85
				c0-1.62-0.08-3.22-0.2-4.81C165.88,154.68,159.99,145.37,159.99,134.68z"/>
			<path class="st0" d="M256.14,195.91c-3.49-5.84-4.28-10.75-4.43-13.26V94.54h-30.76l-22.45,22.95h26.94v65.09
				c-0.14,2.49-0.91,7.43-4.43,13.33c-4.1,6.87-12.14,10.2-12.14,10.2h20.81h17.79h20.81C268.28,206.11,260.25,202.78,256.14,195.91
				z"/>
		</g>
		<path class="st1" d="M171.15,10.29l-8.59-5.87C158.26,1.47,153.27,0,148.28,0l0,0h0l0,0l0,0c-4.99,0-9.97,1.47-14.28,4.41
			l-8.59,5.87L0,96.03c8.31,7.46,25.91,10.13,37.74,2.04l102.08-66.37c2.55-1.75,5.51-2.62,8.47-2.62s5.92,0.87,8.47,2.62
			l102.08,66.37c11.83,8.09,29.42,5.42,37.74-2.04L171.15,10.29z"/>
	</g>
</g>
</svg>
