<svg width="92" height="32" viewBox="0 0 92 32" fill="none" xmlns="http://www.w3.org/2000/svg">
<path d="M54.8447 7.77514L59.2978 4.00781V12.1392H57.7526V7.18733L55.7398 8.80826L54.8447 7.77514ZM54.8447 20.2438C61.56 19.1706 62.6421 17.759 62.6421 15.1985H64.3432C64.3432 16.2138 64.3432 16.619 64.0137 17.425L72.577 20.1815L71.9625 21.7846L63.2522 19.0727C62.0988 20.2616 59.5695 21.1745 55.4503 21.838L54.8447 20.2438ZM69.8339 18.4047V15.4167C69.8339 14.7977 69.2015 14.4548 68.5781 14.4548H58.8525C58.2246 14.4548 57.717 14.7977 57.717 15.4167V18.3958H55.9357V15.1717C55.9357 13.8358 57.3652 12.8784 58.7145 12.8784H68.587C69.9229 12.8784 71.4815 13.8269 71.4815 15.1717V18.3958L69.8339 18.4047ZM71.5038 5.93601C69.773 6.8895 67.9663 7.69827 66.1022 8.35404V9.64544C66.1022 9.94465 66.2207 10.2317 66.4319 10.4437C66.643 10.6557 66.9296 10.7754 67.2288 10.7765H71.8778V12.1125H67.1175C66.4656 12.1125 65.8403 11.8535 65.3793 11.3925C64.9184 10.9315 64.6594 10.3063 64.6594 9.65435V8.80826C63.4481 9.19568 62.3393 9.52966 61.1325 9.80575L60.8386 8.52326C62.1434 8.23381 63.3502 7.85975 64.6594 7.43225V4.00781H66.1111V6.95577C67.7509 6.36423 69.3424 5.64662 70.8714 4.80937L71.5038 5.93601Z" fill="#0C6EB3"/>
<path d="M75.4222 4.00781V7.63264H73.6944V4.00781H75.4222ZM90.3312 21.7534H76.1347C75.8127 21.7523 75.494 21.6876 75.197 21.5632C74.9 21.4387 74.6305 21.2569 74.4038 21.0282C74.1772 20.7995 73.9979 20.5283 73.8761 20.2302C73.7544 19.9321 73.6926 19.6129 73.6944 19.2909V8.86615H75.3955V19.0459C75.3954 19.3429 75.5121 19.6279 75.7204 19.8395C75.9287 20.0511 76.2119 20.1724 76.5087 20.177H91.44L90.3312 21.7534ZM77.0208 9.56083H90.3312V11.1328H81.229L79.3276 17.2246H87.6281C87.9281 17.2246 88.2158 17.1055 88.4279 16.8933C88.6401 16.6812 88.7592 16.3935 88.7592 16.0935V14.9179H90.3312V16.4587C90.3288 17.1103 90.0692 17.7346 89.6089 18.1958C89.1485 18.657 88.5247 18.9177 87.8731 18.9213H77.0342L79.4968 11.1328H77.0208V9.56083ZM78.1341 4.82718H89.2223V6.39913H78.1341V4.82718Z" fill="#0C6EB3"/>
<path d="M35.9902 8.44214L39.3123 12.8774L35.9902 17.3127V15.0951L37.7136 12.8774L35.9902 10.6598V8.44214Z" fill="#E50012"/>
<path d="M40.4293 4.00781L38.8262 5.61093V10.781L40.4293 12.8784L38.8262 15.096V20.1503L40.4293 21.7534V4.00781Z" fill="#0C6EB3"/>
<path d="M47.9246 4.00781V6.10077H49.9909C52.4356 6.10077 52.6316 7.9399 52.6316 9.25357V12.8784H53.7137V14.4949H49.6524L53.7137 20.8628L52.4757 21.7534L47.8044 14.4949H47.5595C46.985 18.093 45.2528 19.9054 42.6254 21.7534L41.6413 20.3418C43.9035 18.7431 45.2795 17.5631 45.8272 14.4949H41.5166V12.8784H46.0988L46.2191 10.3446V7.70389H42.1356V6.10077H46.179V4.00781H47.9246ZM47.9246 7.70389V10.3446C47.9246 11.1417 47.8044 12.8784 47.8044 12.8784H51.0418V8.63459C51.0418 8.02896 50.5475 7.70389 49.9374 7.70389H47.9246Z" fill="#0C6EB3"/>
<path d="M31.9911 26.6563C31.9911 28.0735 31.4281 29.4327 30.426 30.4349C29.4238 31.437 28.0646 32 26.6474 32H5.34372C3.92648 32 2.56728 31.437 1.56514 30.4349C0.562997 29.4327 0 28.0735 0 26.6563V5.34372C0 3.92648 0.562997 2.56728 1.56514 1.56514C2.56728 0.562997 3.92648 0 5.34372 0H26.6607C28.078 0 29.4372 0.562997 30.4393 1.56514C31.4415 2.56728 32.0044 3.92648 32.0044 5.34372L31.9911 26.6563Z" fill="#0C6EB3"/>
<path d="M5.34375 10.6656L9.34264 15.996L5.34375 21.3264V18.6634L7.41444 15.996L5.34375 13.3331V10.6656Z" fill="white"/>
<path d="M10.6737 5.33826L8.75 7.262V13.4785L10.6737 15.9945L8.75 18.6619V24.7315L10.6737 26.6553V5.33826Z" fill="white"/>
<path d="M19.6741 5.34375V7.8553H22.1589C25.0935 7.8553 25.3295 10.0819 25.3295 11.6404V15.9956H26.6655V17.9416H21.7671L26.6655 25.5876L25.1781 26.6563L19.5583 17.9416H19.26C18.5786 22.2611 16.4946 24.4431 13.3373 26.6563L12.1573 24.9597C14.8737 23.0404 16.5258 21.6243 17.1893 17.9416H12.0059V15.9956H17.4876L17.6435 12.9764V9.77904H12.7451V7.8553H17.599V5.34375H19.6741ZM19.6741 9.79685V12.9764C19.6741 13.9338 19.5272 16.0178 19.5272 16.0178H23.4058V10.9057C23.4058 10.1709 22.8135 9.77904 22.0699 9.77904L19.6741 9.79685Z" fill="white"/>
<path d="M39.3605 24.1578V26.1617L41.4001 24.1578H42.0947L40.3981 25.7788L42.1794 28.1745H41.5025L40.0508 26.1484L39.3605 26.7807V28.1879H38.8262V24.1801L39.3605 24.1578Z" fill="#0C6EB3"/>
<path d="M45.3859 27.8806C45.0601 28.1561 44.6405 28.295 44.2147 28.268C43.7782 28.2948 43.3467 28.1636 42.999 27.8984C42.8406 27.749 42.7183 27.5655 42.6411 27.3619C42.564 27.1582 42.5341 26.9397 42.5537 26.7228V24.1578H43.0881V26.7228C43.0777 26.8723 43.0976 27.0222 43.1466 27.1638C43.1955 27.3053 43.2726 27.4356 43.3731 27.5466C43.6039 27.7443 43.9024 27.8448 44.2058 27.8272C44.3479 27.8359 44.4904 27.8155 44.6244 27.7673C44.7584 27.7191 44.8811 27.644 44.9851 27.5466C45.1786 27.3176 45.2746 27.0218 45.2523 26.7228V24.1578H45.7866V26.7228C45.8042 26.9331 45.7776 27.1447 45.7086 27.3441C45.6396 27.5435 45.5297 27.7262 45.3859 27.8806Z" fill="#0C6EB3"/>
<path d="M48.338 24.1578L49.9055 28.1656H49.3177L48.8724 26.9588H47.1669L46.7216 28.1656H46.1738L47.7413 24.1578H48.338ZM48.7121 26.5135L48.0397 24.6388L47.3583 26.5135H48.7121Z" fill="#0C6EB3"/>
<path d="M50.8586 24.1578V28.1656H50.3242V24.1578H50.8586Z" fill="#0C6EB3"/>
<path d="M52.2971 24.1578V25.8901H54.4167V24.1623H54.9511V28.1701H54.4167V26.3354H52.2971V28.1745H51.7627V24.1667L52.2971 24.1578Z" fill="#0C6EB3"/>
<path d="M58.6118 27.8806C58.2865 28.157 57.8665 28.2959 57.4406 28.268C57.004 28.2956 56.5722 28.1643 56.2249 27.8984C56.0676 27.7482 55.9459 27.5646 55.8688 27.3612C55.7918 27.1577 55.7613 26.9396 55.7796 26.7228V24.1578H56.3184V26.7228C56.308 26.8723 56.3279 27.0222 56.3769 27.1638C56.4259 27.3053 56.5029 27.4356 56.6034 27.5466C56.8336 27.7455 57.1325 27.8463 57.4361 27.8272C57.5783 27.8359 57.7207 27.8155 57.8547 27.7673C57.9887 27.7191 58.1115 27.644 58.2154 27.5466C58.409 27.3176 58.5049 27.0218 58.4826 26.7228V24.1578H59.0571V26.7228C59.0688 26.9363 59.0352 27.1499 58.9584 27.3494C58.8817 27.549 58.7635 27.73 58.6118 27.8806Z" fill="#0C6EB3"/>
<path d="M59.7922 25.3778C59.8682 25.1313 59.9906 24.9015 60.153 24.701C60.3303 24.4935 60.5521 24.3285 60.8019 24.2183C61.0516 24.1081 61.3229 24.0554 61.5958 24.0642C61.886 24.056 62.1741 24.1154 62.4374 24.2378C62.667 24.342 62.872 24.4938 63.0386 24.6832C63.2023 24.8835 63.3262 25.1132 63.4037 25.36C63.4822 25.6154 63.5227 25.881 63.5239 26.1482C63.5224 26.4169 63.4819 26.6839 63.4037 26.9409C63.3262 27.1863 63.2022 27.4146 63.0386 27.6133C62.8728 27.8035 62.6677 27.9555 62.4374 28.0586C62.1724 28.1753 61.8852 28.233 61.5958 28.2278C61.3077 28.2331 61.022 28.1753 60.7586 28.0586C60.5273 27.9549 60.3208 27.8031 60.153 27.6133C59.9907 27.4144 59.8682 27.1861 59.7922 26.9409C59.7098 26.6849 59.6692 26.4172 59.672 26.1482C59.6708 25.8867 59.7114 25.6266 59.7922 25.3778ZM60.2865 26.7672C60.3342 26.9577 60.4173 27.1374 60.5315 27.2971C60.6486 27.4572 60.801 27.5882 60.9768 27.6801C61.257 27.8338 61.5837 27.8797 61.8954 27.8092C62.2071 27.7386 62.4822 27.5565 62.669 27.2971C62.7842 27.1369 62.8702 26.9575 62.9228 26.7672C62.9726 26.5707 62.998 26.3688 62.9985 26.166C62.9975 25.9633 62.972 25.7615 62.9228 25.5649C62.8702 25.376 62.7842 25.198 62.669 25.0394C62.5524 24.8776 62.4 24.745 62.2236 24.652C62.0268 24.5582 61.8115 24.5096 61.5935 24.5096C61.3755 24.5096 61.1602 24.5582 60.9634 24.652C60.7873 24.7454 60.635 24.8779 60.5181 25.0394C60.4039 25.1975 60.3208 25.3758 60.2732 25.5649C60.2203 25.7609 60.1934 25.963 60.193 26.166C60.1959 26.3742 60.2274 26.581 60.2865 26.7806V26.7672Z" fill="#0C6EB3"/>
<path d="M65.8392 28.1745H65.2914V26.5313L63.7373 24.1578H64.4008L65.6076 26.0727L66.7788 24.1578H67.3889L65.8525 26.5313L65.8392 28.1745Z" fill="#0C6EB3"/>
<path d="M70.6354 27.8806C70.3101 28.157 69.8901 28.2959 69.4642 28.268C69.0277 28.2948 68.5962 28.1636 68.2485 27.8984C68.0909 27.7484 67.9691 27.5648 67.892 27.3613C67.8149 27.1578 67.7846 26.9396 67.8032 26.7228V24.1578H68.3376V26.7228C68.3261 26.8723 68.3456 27.0226 68.3946 27.1643C68.4436 27.306 68.5212 27.4361 68.6226 27.5466C68.8514 27.7448 69.1487 27.8455 69.4508 27.8272C69.593 27.8362 69.7355 27.8159 69.8695 27.7677C70.0036 27.7194 70.1263 27.6442 70.2301 27.5466C70.4237 27.3176 70.5196 27.0218 70.4973 26.7228V24.1578H71.0317V26.7228C71.0509 26.9328 71.0256 27.1446 70.9573 27.3441C70.889 27.5436 70.7793 27.7265 70.6354 27.8806Z" fill="#0C6EB3"/>
<path d="M72.4559 24.1578L74.5756 27.4175V24.1578H75.0877V28.1656H74.5088L72.4159 24.9505V28.1745H71.9082V24.1667L72.4559 24.1578Z" fill="#0C6EB3"/>
<path d="M76.6153 27.5554V28.1744H75.9785V27.5554H76.6153Z" fill="#0C6EB3"/>
<path d="M79.9552 24.7278C79.7421 24.581 79.4882 24.5047 79.2294 24.5096C79.015 24.5053 78.8027 24.5526 78.6104 24.6477C78.443 24.7331 78.2992 24.8586 78.1918 25.0128C78.0789 25.1706 77.9945 25.3469 77.9424 25.5338C77.888 25.7311 77.8611 25.9348 77.8623 26.1394C77.8612 26.3587 77.8881 26.5772 77.9424 26.7896C77.9927 26.9813 78.0772 27.1623 78.1918 27.324C78.301 27.4783 78.4462 27.6036 78.6149 27.6891C78.8071 27.7842 79.0194 27.8315 79.2338 27.8272C79.3954 27.8273 79.5555 27.7971 79.7059 27.7381C79.8397 27.6833 79.9598 27.5997 80.0577 27.4932C80.1605 27.3872 80.2407 27.2614 80.2937 27.1236C80.3499 26.9811 80.3844 26.831 80.3961 26.6783H80.926C80.9044 27.1239 80.7189 27.5458 80.405 27.8628C80.0704 28.1564 79.6338 28.3068 79.1893 28.2814C78.9093 28.2878 78.6312 28.2331 78.3744 28.1211C78.1482 28.0196 77.9486 27.8672 77.791 27.6758C77.6346 27.4784 77.5168 27.2533 77.4437 27.0123C77.3672 26.7444 77.3297 26.467 77.3324 26.1884C77.3279 25.9091 77.3685 25.631 77.4526 25.3646C77.5289 25.1186 77.653 24.8901 77.8178 24.6922C77.9796 24.4997 78.1839 24.3473 78.4145 24.2469C78.6714 24.1301 78.9517 24.0737 79.2338 24.0821C79.4355 24.081 79.6363 24.1079 79.8306 24.1623C80.0116 24.2153 80.1819 24.2997 80.3338 24.4116C80.4811 24.5213 80.6052 24.659 80.6989 24.8169C80.7996 24.9925 80.8646 25.1861 80.8904 25.3869H80.356C80.3376 25.2555 80.2925 25.1294 80.2236 25.016C80.1547 24.9027 80.0634 24.8046 79.9552 24.7278Z" fill="#0C6EB3"/>
<path d="M81.4913 25.378C81.5652 25.1297 81.6895 24.8992 81.8565 24.7011C82.0223 24.5109 82.2274 24.3589 82.4577 24.2558C82.7192 24.133 83.006 24.0735 83.2948 24.0821C83.5851 24.0734 83.8734 24.1329 84.1365 24.2558C84.3655 24.3612 84.5702 24.5128 84.7377 24.7011C84.9014 24.9014 85.0253 25.1312 85.1028 25.378C85.1834 25.6329 85.224 25.8988 85.223 26.1662C85.2237 26.435 85.1831 26.7023 85.1028 26.9588C85.0253 27.2043 84.9013 27.4326 84.7377 27.6313C84.571 27.8206 84.3661 27.9724 84.1365 28.0766C83.8716 28.1937 83.5844 28.2514 83.2948 28.2458C83.0068 28.2515 82.7209 28.1937 82.4577 28.0766C82.2267 27.9746 82.0214 27.8225 81.8565 27.6313C81.6895 27.4348 81.5652 27.2058 81.4913 26.9588C81.411 26.7023 81.3705 26.435 81.3711 26.1662C81.3701 25.8988 81.4107 25.6329 81.4913 25.378ZM81.9812 26.7674C82.0303 26.9581 82.1149 27.1379 82.2306 27.2973C82.3465 27.4585 82.4991 27.5897 82.6759 27.6802C82.869 27.7825 83.0853 27.8331 83.3038 27.8272C83.5236 27.8331 83.7413 27.7825 83.9361 27.6802C84.114 27.5915 84.267 27.4599 84.3814 27.2973C84.4971 27.1379 84.5817 26.9581 84.6308 26.7674C84.6842 26.5714 84.7112 26.3693 84.7109 26.1662C84.7106 25.9632 84.6836 25.761 84.6308 25.565C84.5816 25.3757 84.497 25.1974 84.3814 25.0396C84.2672 24.8757 84.1142 24.7426 83.9361 24.6521C83.7402 24.5534 83.523 24.5045 83.3038 24.5096C83.086 24.5052 82.8704 24.5542 82.6759 24.6521C82.4989 24.7443 82.3464 24.8771 82.2306 25.0396C82.115 25.1974 82.0304 25.3757 81.9812 25.565C81.9283 25.761 81.9014 25.9632 81.901 26.1662C81.8996 26.3737 81.9266 26.5805 81.9812 26.7807V26.7674Z" fill="#0C6EB3"/>
<path d="M86.6171 24.1578L87.8907 27.5377L89.1598 24.1578H89.8901V28.1656H89.3825V24.8213L88.1267 28.1656H87.6814L86.4256 24.8213V28.1656H85.918V24.1578H86.6171Z" fill="#0C6EB3"/>
</svg>
