<svg width="168" height="48" viewBox="0 0 168 48" fill="none" xmlns="http://www.w3.org/2000/svg">
<g clip-path="url(#clip0_27_2496)">
<path fill-rule="evenodd" clip-rule="evenodd" d="M33.873 20.0097C34.8595 18.8397 35.3814 17.8941 35.657 17.2203C36.0532 17.5747 36.5755 17.7903 37.1456 17.7903H41.6359C42.8675 17.7903 43.8755 16.7827 43.8755 15.5506L43.8717 11.4819C43.827 10.1422 43.3958 8.80127 42.5675 7.72532C40.1207 4.54684 36.6198 4.30591 32.8181 4.30591H15.9781C8.07553 4.30591 3.53713 8.64135 3.53291 16.7755C3.52954 23.4738 7.38312 27.7865 14.0924 27.9899C13.1135 29.1578 12.6 30.1004 12.3295 30.7679C11.935 30.4207 11.4186 30.2097 10.8544 30.2097H6.36456C5.13249 30.2097 4.12489 31.2173 4.12489 32.4494L4.12869 36.5186C4.173 37.8578 4.60464 39.1992 5.43291 40.2751C7.87975 43.454 11.3806 43.6945 15.1823 43.6945H32.0219C39.9245 43.6945 44.4633 39.3586 44.4671 31.2249C44.4709 24.5148 40.6038 20.1992 33.873 20.0097ZM7.23291 0H40.7679C44.746 0 48 3.25443 48 7.23291V40.7679C48 44.746 44.746 48 40.7679 48H7.23291C3.25443 48 0 44.746 0 40.7679V7.23291C0 3.25443 3.25443 0 7.23291 0Z" fill="#EA6101"/>
<path fill-rule="evenodd" clip-rule="evenodd" d="M18.582 35.7873H29.4944C36.2582 35.7873 36.8485 28.3953 29.5008 28.3953H24.025L32.0119 20.4087L32.0666 20.3123C32.0666 20.3123 34.8784 17.5704 34.8376 15.7675V15.7645C34.8342 15.7169 34.8325 15.6702 34.8325 15.6222C34.8325 12.7056 31.6258 12.3203 29.3176 12.3203H18.4056C11.6414 12.3203 11.0511 19.7123 18.3984 19.7123H23.8746L15.83 27.7565L15.8279 27.7582L15.822 27.7645L15.8123 27.7746L15.7984 27.7877L15.7816 27.8049L15.761 27.8256L15.737 27.85L15.7096 27.8778C15.1719 28.4268 13.022 30.7237 13.0591 32.3014V32.3043C13.0637 32.3637 13.0666 32.4247 13.0666 32.4854C13.0666 35.402 16.2738 35.7873 18.582 35.7873Z" fill="#F08B00"/>
<path fill-rule="evenodd" clip-rule="evenodd" d="M168 45.8987C168 46.0731 167.939 46.2213 167.817 46.3434C167.695 46.465 167.548 46.5257 167.374 46.5257C167.199 46.5257 167.051 46.465 166.929 46.3434C166.807 46.2213 166.746 46.0731 166.746 45.8987V43.052C166.746 42.6949 166.725 42.5164 166.681 42.5164C166.647 42.5164 166.524 42.6339 166.316 42.8688L163.442 46.1341C163.329 46.2646 163.19 46.3627 163.025 46.428C162.859 46.4933 162.68 46.5257 162.489 46.5257C162.297 46.5257 162.119 46.4933 161.953 46.428C161.788 46.3627 161.649 46.2646 161.535 46.1341L158.662 42.8688C158.462 42.6339 158.34 42.5164 158.296 42.5164C158.253 42.5164 158.231 42.6949 158.231 43.052V45.8987C158.231 46.0731 158.17 46.2213 158.048 46.3434C157.927 46.465 157.779 46.5257 157.604 46.5257C157.43 46.5257 157.282 46.465 157.16 46.3434C157.039 46.2213 156.977 46.0731 156.977 45.8987V42.0853C156.977 41.737 157.078 41.4411 157.278 41.1973C157.478 40.9535 157.752 40.8314 158.1 40.8314C158.309 40.8314 158.497 40.884 158.662 40.988C158.828 41.0928 158.98 41.2192 159.119 41.3669L162.123 44.7888C162.167 44.8326 162.221 44.8781 162.287 44.9257C162.352 44.9741 162.419 44.9977 162.489 44.9977C162.559 44.9977 162.626 44.9741 162.692 44.9257C162.756 44.8781 162.811 44.8326 162.855 44.7888L165.845 41.3669H165.858C165.98 41.2015 166.129 41.0709 166.303 40.9754C166.476 40.8794 166.668 40.8314 166.877 40.8314C167.225 40.8314 167.5 40.9535 167.7 41.1973C167.9 41.4411 168 41.737 168 42.0853V45.8987ZM155.671 43.6789C155.671 44.0099 155.617 44.3429 155.508 44.6781C155.399 45.0128 155.24 45.3177 155.031 45.5918C154.823 45.8663 154.57 46.0903 154.274 46.2646C153.978 46.4385 153.643 46.5257 153.268 46.5257H147.313C146.956 46.5084 146.638 46.4107 146.359 46.2322C146.081 46.0533 145.844 45.8293 145.647 45.5594C145.452 45.2895 145.302 44.9893 145.197 44.6583C145.092 44.3278 145.04 44.0006 145.04 43.6789C145.04 43.3476 145.095 43.0149 145.203 42.6794C145.312 42.3442 145.471 42.0394 145.68 41.7653C145.889 41.4912 146.142 41.2672 146.438 41.0928C146.734 40.9185 147.069 40.8314 147.444 40.8314H153.399C153.756 40.8491 154.074 40.9472 154.352 41.1253C154.631 41.3038 154.868 41.5282 155.064 41.7981C155.26 42.068 155.41 42.3682 155.515 42.6992C155.619 43.0301 155.671 43.3568 155.671 43.6789ZM152.994 45.2722C153.29 45.2722 153.534 45.2179 153.726 45.1088C153.917 44.9998 154.067 44.8672 154.176 44.7105C154.285 44.5539 154.359 44.3817 154.398 44.1943C154.437 44.0074 154.457 43.8356 154.457 43.6789C154.457 43.5219 154.437 43.3501 154.398 43.1627C154.359 42.9758 154.285 42.8036 154.176 42.6469C154.067 42.4903 153.917 42.3573 153.726 42.2486C153.534 42.1396 153.29 42.0853 152.994 42.0853H147.718C147.412 42.0853 147.167 42.1396 146.98 42.2486C146.793 42.3573 146.644 42.4903 146.535 42.6469C146.427 42.8036 146.353 42.9758 146.313 43.1627C146.274 43.3501 146.255 43.5219 146.255 43.6789C146.255 43.8356 146.274 44.0074 146.313 44.1943C146.353 44.3817 146.427 44.5539 146.535 44.7105C146.644 44.8672 146.793 44.9998 146.98 45.1088C147.167 45.2179 147.412 45.2722 147.718 45.2722H152.994ZM133.09 43.6789C133.09 43.3476 133.145 43.0149 133.253 42.6794C133.362 42.3442 133.521 42.0394 133.73 41.7653C133.939 41.4912 134.191 41.2672 134.487 41.0928C134.783 40.9185 135.119 40.8314 135.493 40.8314H143.107C143.281 40.8314 143.43 40.8924 143.551 41.0145C143.673 41.1362 143.734 41.2844 143.734 41.4587C143.734 41.6326 143.673 41.7808 143.551 41.9025C143.43 42.0242 143.281 42.0853 143.107 42.0853H135.767C135.463 42.0853 135.217 42.1396 135.029 42.2486C134.842 42.3573 134.694 42.4903 134.585 42.6469C134.476 42.8036 134.403 42.9758 134.363 43.1627C134.324 43.3501 134.305 43.5219 134.305 43.6789C134.305 43.8356 134.324 44.0074 134.363 44.1943C134.403 44.3817 134.476 44.5539 134.585 44.7105C134.694 44.8672 134.842 44.9998 135.029 45.1088C135.217 45.2179 135.463 45.2722 135.767 45.2722H143.107C143.281 45.2722 143.43 45.3328 143.551 45.4549C143.673 45.5766 143.734 45.7248 143.734 45.8987C143.734 46.0731 143.673 46.2213 143.551 46.3434C143.43 46.465 143.281 46.5257 143.107 46.5257H135.362C135.006 46.5257 134.688 46.4385 134.409 46.2646C134.131 46.0903 133.893 45.8663 133.697 45.5918C133.501 45.3177 133.351 45.0112 133.247 44.6714C133.142 44.3316 133.09 44.0006 133.09 43.6789ZM130.164 45.8987C130.164 45.6726 130.243 45.481 130.399 45.3244C130.556 45.1678 130.748 45.0891 130.974 45.0891C131.201 45.0891 131.392 45.1678 131.549 45.3244C131.706 45.481 131.784 45.6726 131.784 45.8987C131.784 46.1253 131.706 46.3168 131.549 46.4735C131.392 46.6301 131.201 46.7088 130.974 46.7088C130.748 46.7088 130.556 46.6301 130.399 46.4735C130.243 46.3168 130.164 46.1253 130.164 45.8987ZM116.948 41.4587C116.948 41.2844 117.009 41.1362 117.13 41.0145C117.252 40.8924 117.4 40.8314 117.574 40.8314C117.748 40.8314 117.897 40.8924 118.018 41.0145C118.14 41.1362 118.201 41.2844 118.201 41.4587V43.6789C118.201 43.8356 118.22 44.0074 118.26 44.1943C118.299 44.3817 118.373 44.5539 118.482 44.7105C118.591 44.8672 118.739 44.9998 118.926 45.1088C119.113 45.2179 119.359 45.2722 119.664 45.2722H122.694C122.555 45.0284 122.45 44.7691 122.38 44.4949C122.311 44.2208 122.276 43.9484 122.276 43.6789V41.4587C122.276 41.2844 122.337 41.1362 122.459 41.0145C122.581 40.8924 122.729 40.8314 122.903 40.8314C123.077 40.8314 123.225 40.8924 123.347 41.0145C123.469 41.1362 123.53 41.2844 123.53 41.4587V43.6789C123.53 43.8356 123.55 44.0053 123.588 44.1884C123.628 44.3707 123.697 44.5425 123.798 44.7038C123.898 44.865 124.037 44.9998 124.216 45.1088C124.394 45.2179 124.623 45.2722 124.901 45.2722H126.142C126.438 45.2722 126.681 45.2179 126.873 45.1088C127.065 44.9998 127.215 44.8672 127.324 44.7105C127.433 44.5539 127.507 44.3817 127.546 44.1943C127.585 44.0074 127.605 43.8356 127.605 43.6789V41.4587C127.605 41.2844 127.665 41.1362 127.788 41.0145C127.909 40.8924 128.057 40.8314 128.231 40.8314C128.406 40.8314 128.553 40.8924 128.676 41.0145C128.798 41.1362 128.858 41.2844 128.858 41.4587V43.6789C128.858 44.0099 128.804 44.3429 128.695 44.6781C128.587 45.0128 128.428 45.3177 128.219 45.5918C128.009 45.8663 127.757 46.0903 127.461 46.2646C127.165 46.4385 126.83 46.5257 126.455 46.5257H119.22C118.863 46.5257 118.545 46.4385 118.266 46.2646C117.988 46.0903 117.751 45.8663 117.555 45.5918C117.359 45.3177 117.209 45.0112 117.104 44.6714C117 44.3316 116.948 44.0006 116.948 43.6789V41.4587ZM106.695 44.3055C106.451 44.3055 106.225 44.2596 106.016 44.1686C105.807 44.0773 105.624 43.953 105.467 43.7964C105.311 43.6398 105.186 43.4566 105.095 43.2478C105.004 43.0389 104.958 42.8124 104.958 42.5686C104.958 42.3248 105.004 42.0983 105.095 41.8895C105.186 41.6806 105.311 41.4975 105.467 41.3408C105.624 41.1842 105.807 41.06 106.016 40.9686C106.225 40.8773 106.451 40.8314 106.695 40.8314H114.623C114.797 40.8314 114.945 40.8924 115.067 41.0145C115.188 41.1362 115.249 41.2844 115.249 41.4587C115.249 41.6326 115.188 41.7808 115.067 41.9025C114.945 42.0242 114.797 42.0853 114.623 42.0853H106.669C106.538 42.0853 106.423 42.1312 106.323 42.2225C106.223 42.3139 106.172 42.4293 106.172 42.5686C106.172 42.6992 106.223 42.8124 106.323 42.908C106.423 43.004 106.538 43.052 106.669 43.052H113.891C114.135 43.052 114.364 43.0975 114.577 43.1888C114.79 43.2806 114.975 43.4044 115.132 43.5611C115.289 43.7177 115.413 43.9029 115.504 44.1164C115.596 44.3295 115.641 44.5581 115.641 44.8023C115.641 45.0457 115.596 45.2722 115.504 45.481C115.413 45.6903 115.289 45.8726 115.132 46.0297C114.975 46.1863 114.79 46.3084 114.577 46.3956C114.364 46.4823 114.135 46.5257 113.891 46.5257H105.977C105.802 46.5257 105.655 46.465 105.533 46.3434C105.411 46.2213 105.35 46.0731 105.35 45.8987C105.35 45.7248 105.411 45.5766 105.533 45.4549C105.655 45.3328 105.802 45.2722 105.977 45.2722H113.943C114.074 45.2722 114.187 45.2263 114.283 45.1349C114.379 45.0436 114.427 44.9324 114.427 44.8023C114.427 44.6625 114.379 44.545 114.283 44.4495C114.187 44.3535 114.074 44.3055 113.943 44.3055H106.695ZM103.652 43.6789C103.652 44.0099 103.598 44.3429 103.489 44.6781C103.38 45.0128 103.221 45.3177 103.012 45.5918C102.803 45.8663 102.551 46.0903 102.255 46.2646C101.958 46.4385 101.623 46.5257 101.249 46.5257H95.2933C94.9366 46.5084 94.6187 46.4107 94.34 46.2322C94.0617 46.0533 93.8242 45.8293 93.628 45.5594C93.4322 45.2895 93.2819 44.9893 93.1775 44.6583C93.073 44.3278 93.0208 44.0006 93.0208 43.6789C93.0208 43.3476 93.0752 43.0149 93.1842 42.6794C93.2928 42.3442 93.4516 42.0394 93.6604 41.7653C93.8697 41.4912 94.1223 41.2672 94.4183 41.0928C94.7143 40.9185 95.0495 40.8314 95.4242 40.8314H101.379C101.737 40.8491 102.055 40.9472 102.333 41.1253C102.612 41.3038 102.849 41.5282 103.044 41.7981C103.241 42.068 103.391 42.3682 103.495 42.6992C103.6 43.0301 103.652 43.3568 103.652 43.6789ZM100.975 45.2722C101.271 45.2722 101.515 45.2179 101.706 45.1088C101.897 44.9998 102.048 44.8672 102.156 44.7105C102.265 44.5539 102.34 44.3817 102.378 44.1943C102.417 44.0074 102.437 43.8356 102.437 43.6789C102.437 43.5219 102.417 43.3501 102.378 43.1627C102.34 42.9758 102.265 42.8036 102.156 42.6469C102.048 42.4903 101.897 42.3573 101.706 42.2486C101.515 42.1396 101.271 42.0853 100.975 42.0853H95.6983C95.3935 42.0853 95.1476 42.1396 94.9602 42.2486C94.7733 42.3573 94.6251 42.4903 94.5164 42.6469C94.4074 42.8036 94.3333 42.9758 94.2941 43.1627C94.2549 43.3501 94.2356 43.5219 94.2356 43.6789C94.2356 43.8356 94.2549 44.0074 94.2941 44.1943C94.3333 44.3817 94.4074 44.5539 94.5164 44.7105C94.6251 44.8672 94.7733 44.9998 94.9602 45.1088C95.1476 45.2179 95.3935 45.2722 95.6983 45.2722H100.975ZM83.8002 46.2907C83.6697 46.4478 83.5084 46.5257 83.3168 46.5257C83.1429 46.5257 82.9947 46.465 82.873 46.3434C82.7509 46.2213 82.6899 46.0731 82.6899 45.8987C82.6899 45.7421 82.7337 45.6162 82.8208 45.5202L85.9943 41.2495C86.1425 41.049 86.3383 40.8861 86.5821 40.7598C86.8259 40.6335 87.0869 40.5703 87.3657 40.5703C87.6267 40.5703 87.8747 40.6267 88.1101 40.7404C88.345 40.8533 88.5366 41.0103 88.6848 41.2103L91.8583 45.4549C91.9105 45.516 91.9543 45.5834 91.9893 45.6575C92.0238 45.7316 92.0415 45.812 92.0415 45.8987C92.0415 46.0731 91.9804 46.2213 91.8583 46.3434C91.7366 46.465 91.5884 46.5257 91.4141 46.5257C91.2053 46.5257 91.0402 46.4432 90.9181 46.2777L87.8747 42.2158C87.8141 42.1463 87.7379 42.0701 87.6465 41.9872C87.5547 41.9046 87.4617 41.8634 87.3657 41.8634C87.2701 41.8634 87.1762 41.9046 87.0848 41.9872C86.9935 42.0701 86.9215 42.1463 86.8693 42.2158L83.8002 46.2907ZM81.3842 45.8987C81.3842 46.0731 81.3232 46.2213 81.2015 46.3434C81.0794 46.465 80.9312 46.5257 80.7573 46.5257C80.5829 46.5257 80.4352 46.465 80.313 46.3434C80.1914 46.2213 80.1303 46.0731 80.1303 45.8987V44.3055H72.4116V45.8987C72.4116 46.0731 72.3509 46.2213 72.2284 46.3434C72.1067 46.465 71.9589 46.5257 71.7846 46.5257C71.6107 46.5257 71.4625 46.465 71.3408 46.3434C71.2187 46.2213 71.1577 46.0731 71.1577 45.8987V41.4587C71.1577 41.2844 71.2187 41.1362 71.3408 41.0145C71.4625 40.8924 71.6107 40.8314 71.7846 40.8314C71.9589 40.8314 72.1067 40.8924 72.2284 41.0145C72.3509 41.1362 72.4116 41.2844 72.4116 41.4587V43.052H80.1303V41.4587C80.1303 41.2844 80.1914 41.1362 80.313 41.0145C80.4352 40.8924 80.5829 40.8314 80.7573 40.8314C80.9312 40.8314 81.0794 40.8924 81.2015 41.0145C81.3232 41.1362 81.3842 41.2844 81.3842 41.4587V45.8987ZM59.9653 42.0853C59.7909 42.0853 59.6427 42.0242 59.521 41.9025C59.3989 41.7808 59.3379 41.6326 59.3379 41.4587C59.3379 41.2844 59.3989 41.1362 59.521 41.0145C59.6427 40.8924 59.7909 40.8314 59.9653 40.8314H68.5977C68.9463 40.8314 69.2423 40.9535 69.4861 41.1973C69.7299 41.4411 69.8516 41.737 69.8516 42.0853C69.8516 42.3813 69.7644 42.6406 69.5905 42.8625C69.4162 43.0844 69.1943 43.2305 68.9244 43.3L61.5973 45.0368C61.3884 45.089 61.284 45.1371 61.284 45.1808C61.284 45.2415 61.4714 45.2722 61.8457 45.2722H69.2246C69.3989 45.2722 69.5467 45.3328 69.6688 45.4549C69.7905 45.5766 69.8516 45.7248 69.8516 45.8987C69.8516 46.0731 69.7905 46.2213 69.6688 46.3434C69.5467 46.465 69.3989 46.5257 69.2246 46.5257H60.5918C60.2436 46.5257 59.9476 46.404 59.7038 46.1602C59.46 45.9164 59.3379 45.6204 59.3379 45.2722C59.3379 45.0023 59.412 44.7539 59.5602 44.5278C59.7084 44.3013 59.9084 44.1573 60.161 44.0966L67.6053 42.3467C67.7446 42.3029 67.8145 42.2596 67.8145 42.2158C67.8145 42.129 67.6579 42.0853 67.3438 42.0853H59.9653Z" fill="#F08B00"/>
<path fill-rule="evenodd" clip-rule="evenodd" d="M71.6164 1.41406V5.99301H74.2214V10.1496H71.6164L71.6162 18.2301L74.2214 17.5221V21.8295L71.6162 22.5371L71.6164 31.4191C71.6164 32.0755 71.5658 32.6494 71.4652 33.1416C71.3705 33.633 71.0736 34.2267 70.5886 34.9138C70.1027 35.6077 68.7717 35.948 66.6079 35.948H59.8778V31.8296H65.1448C66.1915 31.8296 66.7153 31.1922 66.7153 29.9244L66.7152 23.8691L58.6602 26.0594V21.752L66.7152 19.5621L66.7153 10.1496H58.6602V5.99301H66.7153V1.41406H71.6164ZM82.831 1.61587L83.5316 8.21335H92.3312V12.3136H84.0676L85.3611 24.0647C85.7202 23.97 85.9792 23.8441 86.1371 23.6988C86.3 23.5477 86.4205 23.2197 86.5085 22.7026L87.8019 14.6032H91.9969L90.6651 25.0298C90.5455 25.9064 90.2369 26.6761 89.751 27.338C89.2651 28.0066 88.735 28.3978 88.1737 28.5241L86.3261 29.0731L86.452 30.2778C86.5148 30.9022 86.6411 31.2744 86.8306 31.3881C87.0196 31.495 87.3156 31.5519 87.7072 31.5519L97.9824 31.5518V10.2255L103.156 10.2251L103.156 7.47208H107.686L107.685 10.2251H119.756L119.756 7.47208H124.285L124.285 10.2251L129.786 10.2255V31.5518H135.328L135.311 1.87436H167.985L168.004 32.2335C168.004 32.9901 167.91 33.5893 167.714 34.0369C167.525 34.4849 167.14 34.8571 166.553 35.1472C165.967 35.4373 165.083 35.5767 163.904 35.5826L160.292 35.6015L160.286 35.5851L158.873 35.5858L156.856 27.8178L154.37 35.5858H148.82L146.803 27.8178L144.317 35.5858H140.425L144.917 20.8919L141.372 8.28307H144.993L146.967 14.534L148.651 8.28307H155.046L157.02 14.534L158.704 8.28307H162.754L158.925 20.406L161.889 31.7151L162.069 31.716C162.428 31.716 162.699 31.6024 162.882 31.3754C163.071 31.1485 163.16 30.8832 163.16 30.5741V6.04994H140.174V32.6095C140.174 32.7517 140.173 32.8872 140.169 33.0164L140.153 33.385C140.06 34.844 139.639 35.3553 138.433 35.5175L138.128 35.55C138.074 35.5544 138.019 35.5583 137.963 35.5618L137.61 35.5777L137.224 35.5847L135.331 35.5855V35.5826H128.531L128.098 35.5776L127.699 35.5615C125.856 35.4528 125.206 34.8777 125.206 32.7868V14.0541L119.548 14.0352L119.902 15.5304C120.034 16.1232 120.204 16.5017 120.4 16.6655C120.595 16.8297 120.999 16.9181 121.599 16.9181H123.427V20.5009H120.123C118.274 20.5009 117.12 20.2108 116.659 19.6306C116.193 19.0563 115.89 18.3944 115.745 17.6563L114.988 14.0352H112.654L111.878 17.303C111.633 18.3249 111.248 19.151 110.718 19.7817C110.187 20.4061 109.172 20.7219 107.665 20.7219H104.492V17.196H106.649C107.154 17.196 107.495 16.7981 107.665 16.0099L108.094 14.0352L102.512 14.0541V32.5501C102.512 34.7551 101.345 35.391 99.3074 35.5417L98.8883 35.5657C98.8165 35.5687 98.7438 35.5713 98.6702 35.5734L98.2172 35.5816L86.0297 35.5826C85.3615 35.5826 84.7986 35.5287 84.3455 35.4184C83.8908 35.3081 83.4133 35.0382 82.9135 34.6112C82.4171 34.1872 82.1047 33.538 81.9611 32.6622L81.4057 29.3001H75.42V25.4521H81.0023L79.4125 12.3136H74.8836V8.21335H78.7817L78.0251 1.61587H82.831ZM122.722 22.6367V31.0952C122.722 31.8834 122.52 32.672 122.123 33.4544C121.719 34.2367 120.798 34.6278 119.36 34.6278H105.426V22.6367H122.722ZM152.025 10.4191L148.872 20.406L151.755 31.4061L154.97 20.8919L152.025 10.4191ZM118.306 26.4784H109.709V30.8177H117.272C117.575 30.8177 117.827 30.7356 118.016 30.5592C118.206 30.3891 118.306 30.187 118.306 29.9533V26.4784ZM89.0818 1.42324C90.7395 1.42324 92.0826 2.76682 92.0826 4.4245C92.0826 6.08219 90.7395 7.42577 89.0818 7.42577C87.4245 7.42577 86.0805 6.08219 86.0805 4.4245C86.0805 2.76682 87.4245 1.42324 89.0818 1.42324ZM115.935 1.67672L115.934 2.90806L130.417 2.90867V6.75036H97.3012V2.90867L111.405 2.90806L111.406 1.67672H115.935ZM90.0948 3.50366H88.0687V5.34535H90.0948V3.50366Z" fill="#EA6101"/>
</g>
<defs>
<clipPath id="clip0_27_2496">
<rect width="168" height="48" fill="white"/>
</clipPath>
</defs>
</svg>
