<?xml version="1.0" encoding="UTF-8"?>
<svg width="170px" height="24px" viewBox="0 0 170 24" version="1.1" xmlns="http://www.w3.org/2000/svg" xmlns:xlink="http://www.w3.org/1999/xlink">
    <title>header_logo</title>
    <defs>
        <polygon id="path-1" points="0.0727384615 0.0617781377 18.3913457 0.0617781377 18.3913457 20.7935223 0.0727384615 20.7935223"></polygon>
    </defs>
    <g id="header_logo" stroke="none" stroke-width="1" fill="0077FF" fill-rule="evenodd">
        <g id="编组" transform="translate(0.000000, 1.000000)">
            <g transform="translate(56.259109, 1.123984)">
                <mask id="mask-2" fill="white">
                    <use xlink:href="#path-1"></use>
                </mask>
                <g id="Clip-2"></g>
                <path d="M9.91458462,9.56490364 L9.91458462,12.8462964 L15.3795887,12.8462964 C14.511702,15.5450818 12.2379206,17.477519 9.57333765,17.477519 C6.16329717,17.477519 3.3889166,14.3149603 3.3889166,10.4276405 C3.3889166,6.54041781 6.16329717,3.37785911 9.57333765,3.37785911 C11.5226818,3.37785911 13.263119,4.41238543 14.397532,6.02378623 L18.1708761,6.02378623 C16.6504227,2.50443401 13.3692243,0.0617781377 9.57333765,0.0617781377 C4.33473036,0.0617781377 0.0727384615,4.71194818 0.0727384615,10.4276405 C0.0727384615,16.14343 4.33473036,20.7936 9.57333765,20.7936 C11.7605441,20.7936 13.7762526,19.9814866 15.3837668,18.6211628 L15.3837668,20.2298429 L18.3913457,20.2298429 L18.3913457,14.2844502 L18.3913457,12.8462964 L18.3913457,12.6901506 L18.3913457,9.56490364 L15.3837668,9.56490364 L9.91458462,9.56490364 Z" id="Fill-1" fill="#0088FF" mask="url(#mask-2)"></path>
            </g>
            <polygon id="Fill-3" fill="#0088FF" points="12.9065587 5.16521457 16.4066721 5.16521457 16.4066721 1.66568421 12.9065587 1.66568421"></polygon>
            <polygon id="Fill-5" fill="#0088FF" points="77.1115142 1.66574251 77.1115142 4.94655223 77.1115142 9.86907854 77.1115142 13.1503741 77.1115142 18.0719287 77.1115142 21.3538073 80.3929069 21.3538073 92.4244858 21.3538073 92.4244858 18.0719287 80.3929069 18.0719287 80.3929069 13.1503741 92.4244858 13.1503741 92.4244858 9.86907854 80.3929069 9.86907854 80.3929069 4.94655223 92.4244858 4.94655223 92.4244858 1.66574251 80.3929069 1.66574251"></polygon>
            <polygon id="Fill-6" fill="#0088FF" points="94.6119838 4.94649393 109.378105 4.94649393 109.378105 1.66568421 94.6119838 1.66568421"></polygon>
            <polygon id="Fill-7" fill="#0088FF" points="94.6119838 13.150413 109.378105 13.150413 109.378105 9.86902024 94.6119838 9.86902024"></polygon>
            <polygon id="Fill-8" fill="#0088FF" points="94.6119838 21.3538462 109.378105 21.3538462 109.378105 18.0719676 94.6119838 18.0719676"></polygon>
            <path d="M8.74982672,1.66574251 L8.74982672,1.66574251 L2.91497976e-05,1.66574251 L2.91497976e-05,5.16527287 L7.38308988,5.16527287 L7.43769717,21.3538073 L10.9374219,21.3538073 L10.9374219,3.85333765 C10.9374219,2.64507854 9.95808583,1.66574251 8.74982672,1.66574251" id="Fill-9" fill="#0088FF"></path>
            <path d="M32.2663676,13.1499271 C32.2663676,15.8683401 30.0627401,18.0718704 27.3444243,18.0718704 C24.6261085,18.0718704 22.4223838,15.8683401 22.4223838,13.1499271 L22.4223838,1.66578138 L19.1410883,1.66578138 L19.1410883,13.1499271 C19.1410883,17.6804858 22.8138656,21.3532632 27.3444243,21.3532632 C31.874983,21.3532632 35.5477603,17.6804858 35.5477603,13.1499271 L35.5477603,1.66578138 L32.2663676,1.66578138 L32.2663676,13.1499271 Z" id="Fill-10" fill="#0088FF"></path>
            <polygon id="Fill-11" fill="#0088FF" points="50.9370462 15.1606121 41.4873619 1.66513036 38.2823417 1.66513036 38.2823417 21.3531951 41.4873619 21.3531951 41.4873619 7.85781053 50.9370462 21.3531951 54.1420664 21.3531951 54.1420664 1.66513036 50.9370462 1.66513036"></polygon>
            <polygon id="Fill-12" fill="#0088FF" points="125.039106 10.8055061 128.642118 7.20249393 126.908871 5.4691498 123.305762 9.07216194"></polygon>
            <polygon id="Fill-13" fill="#0088FF" points="130.372236 7.20249393 133.975249 10.8055061 135.708593 9.07216194 132.105581 5.4691498"></polygon>
            <polygon id="Fill-14" fill="#0088FF" points="125.207913 4.6457166 133.582455 4.6457166 133.582455 6.21280972 136.069904 6.21280972 136.069904 4.6457166 136.069904 3.46077733 136.069904 2.15817004 122.720463 2.15817004 122.720463 3.46077733 122.720463 4.6457166 122.720463 6.21280972 125.207913 6.21280972"></polygon>
            <path d="M122.292748,13.1973636 L122.292748,10.5025619 L120.680473,10.9345619 L120.680473,7.49197085 L122.292748,7.49197085 L122.292748,5.00452146 L120.680473,5.00452146 L120.680473,1.11846478 L118.199922,1.11846478 L118.199922,5.00452146 L115.834513,5.00452146 L115.834513,7.49197085 L118.199922,7.49197085 L118.199922,11.5991773 L115.666611,12.2779789 L116.340262,14.7922462 L118.199922,14.2939789 L118.199922,18.2109344 C118.199922,18.7531206 117.760343,19.1926996 117.21806,19.1926996 L115.675938,19.1926996 L116.338805,21.673153 L118.274546,21.673153 C119.603291,21.673153 120.680473,20.5961652 120.680473,19.2673231 L120.680473,13.6293636 L122.292748,13.1973636 Z" id="Fill-15" fill="#0088FF"></path>
            <path d="M123.457528,20.7533178 C123.469128,20.7429178 123.480328,20.7322178 123.491828,20.7219178 L123.448328,20.7438178 L123.457528,20.7533178 Z" id="Fill-16" fill="#0088FF"></path>
            <polygon id="Fill-17" fill="#0088FF" points="155.798886 8.63796599 157.749493 13.9972534 159.909396 13.2110834 157.958789 7.85189312"></polygon>
            <polygon id="Fill-18" fill="#0088FF" points="139.634526 6.04038866 142.915919 6.04038866 142.915919 2.75899595 139.634526 2.75899595"></polygon>
            <polygon id="Fill-19" fill="#0088FF" points="147.8808 8.63806316 145.720897 7.85189312 143.770387 13.2110834 145.93029 13.9972534"></polygon>
            <path d="M148.848573,8.22510769 L148.848476,8.22510769 C148.848476,8.22607935 148.848573,8.22714818 148.848573,8.22811984 C148.848573,11.5236988 147.541691,14.5137879 145.418517,16.7096421 L147.631861,17.9874721 C149.93761,15.3936259 151.339229,11.9782413 151.340978,8.23521296 L151.340978,8.23016032 C151.340978,8.22948016 151.341075,8.2288 151.341075,8.22811984 C151.341075,8.22753684 151.340978,8.22705101 151.340978,8.22646802 L151.340978,6.13458138 L153.073351,6.13458138 L153.073351,14.568298 C153.073351,15.1113587 152.633189,15.5516178 152.090031,15.5516178 L150.554031,15.5516178 L151.205432,17.9878607 L153.120962,17.9878607 C154.440185,17.9878607 155.509691,16.9183547 155.509691,15.599132 L155.509691,6.13458138 L159.071602,6.13458138 L159.071602,3.64722915 L153.996719,3.64722915 L152.755618,0.985463968 L149.991828,1.72606316 L150.887602,3.64722915 L145.124687,3.64722915 L145.124687,6.13458138 L148.848573,6.13458138 L148.848573,8.22510769 Z" id="Fill-20" fill="#0088FF"></path>
            <path d="M146.351291,18.7585036 C145.866724,18.7585036 145.409364,18.6431676 145.004084,18.4393134 C144.821121,18.3472972 144.648845,18.2370138 144.48959,18.1111838 C144.487841,18.1097263 144.486092,18.108366 144.484246,18.1069085 C144.380084,18.0241231 144.281558,17.934536 144.18925,17.8389247 C144.185947,17.8354267 144.182643,17.8318316 144.179242,17.8283336 C144.088198,17.7331109 144.003274,17.6319611 143.925347,17.5254672 C143.922432,17.5214834 143.919615,17.5173053 143.916602,17.5132243 C143.88172,17.4649328 143.848295,17.4155725 143.816133,17.3651433 C143.811663,17.3580502 143.806999,17.3510543 143.802627,17.343864 C143.768036,17.2886737 143.734999,17.2325117 143.7041,17.1749895 C143.703906,17.174698 143.703809,17.1745036 143.703712,17.1742121 C143.674465,17.1198964 143.647355,17.0642202 143.621315,17.0077668 C143.615874,16.9957182 143.610432,16.9836696 143.605088,16.9716211 C143.580797,16.9172081 143.557963,16.8619206 143.536878,16.8058559 C143.535712,16.8026494 143.534351,16.7994429 143.533088,16.7962364 C143.511226,16.7370623 143.491598,16.6769166 143.473428,16.6160907 C143.46925,16.602196 143.465461,16.5880097 143.461477,16.5739206 C143.447388,16.5242688 143.434562,16.4741312 143.423096,16.4236049 C143.419987,16.4100016 143.416586,16.3964955 143.413768,16.3828923 C143.400651,16.3213862 143.38938,16.2592972 143.380052,16.1965279 C143.378206,16.1844794 143.37704,16.1722364 143.375388,16.1600907 C143.368392,16.1079126 143.362659,16.0553457 143.358384,16.0022931 C143.357023,15.9847061 143.355469,15.9672162 143.3544,15.9496291 C143.350222,15.8851109 143.347404,15.820204 143.347404,15.754617 L143.347404,15.3596372 L143.347404,10.7110219 L143.347404,8.22357247 L138.727938,8.22357247 L138.727938,10.7110219 L140.910675,10.7110219 L140.910675,11.8071514 L140.910675,16.1983741 C140.910675,16.4512 140.821574,16.6959611 140.659113,16.889613 L139.220667,18.6038154 L140.04308,21.6731919 L141.962691,19.3855158 C142.00836,19.4425522 142.055194,19.4984227 142.103291,19.5533215 C142.104457,19.5544874 142.105526,19.5558478 142.106594,19.5571109 C142.154206,19.6112324 142.202983,19.6641879 142.252829,19.7160745 C142.254384,19.7178235 142.256036,19.7194753 142.257493,19.72103 C142.307534,19.7728194 142.358546,19.8235401 142.410724,19.8731919 C142.412279,19.8744551 142.413736,19.8759126 142.415096,19.8772729 C142.467857,19.927119 142.521785,19.9758964 142.576683,20.0235077 C142.577364,20.0240907 142.578044,20.0246737 142.578724,20.0252567 C143.42193,20.753613 144.519615,21.1952324 145.721364,21.1952324 L159.259598,21.1952324 L159.912457,18.7585036 L146.351291,18.7585036 Z" id="Fill-21" fill="#0088FF"></path>
            <path d="M131.977273,13.592013 L136.069904,13.592013 L136.069904,11.2936486 L130.599459,11.2936486 L130.599459,8.73478219 L130.544463,8.73478219 L128.246002,8.73478219 L128.186536,8.73478219 L128.186536,11.2936486 L122.720463,11.2936486 L122.720463,13.592013 L126.811637,13.592013 C125.305273,15.5508794 123.533548,17.2950089 121.548155,18.768434 L123.495362,20.7156405 C125.299929,19.0924826 126.879848,17.2255352 128.186536,15.1677538 L128.186536,21.6732113 L128.246002,21.6732113 L130.544463,21.6732113 L130.599459,21.6732113 L130.599459,15.1633814 C131.90673,17.2228146 133.487718,19.0914138 135.293451,20.7156405 L137.240755,18.768434 C135.255265,17.2950089 133.483734,15.5508794 131.977273,13.592013" id="Fill-22" fill="#0088FF"></path>
            <path d="M165.000064,-1.77635684e-14 C167.205641,-1.77635684e-14 169,1.79445854 169,4 C169,6.20566989 167.205641,8 165.000064,8 C162.794359,8 161,6.20566989 161,4 C161,1.79445854 162.794359,-1.77635684e-14 165.000064,-1.77635684e-14 Z M165.000064,0.580986933 C163.114652,0.580986933 161.580868,2.11461778 161.580868,4 C161.580868,5.88538222 163.114652,7.41914149 165.000064,7.41914149 C166.885348,7.41914149 168.419132,5.88538222 168.419132,4 C168.419132,2.11461778 166.885348,0.580986933 165.000064,0.580986933 Z M165.134204,2.05181879 C165.52603,2.05181879 165.833095,2.14633833 166.055014,2.33550583 C166.277062,2.5245449 166.387893,2.78896844 166.387893,3.12890487 C166.387893,3.68716088 166.089689,4.04982823 165.493153,4.21626481 L165.493153,4.21626481 L165.493153,4.22923556 C165.604113,4.27611006 165.699918,4.34289017 165.780698,4.42957588 C165.86122,4.5162616 165.965759,4.66459049 166.094184,4.87443413 L166.094184,4.87443413 L166.848426,6.08148457 L166.234553,6.08148457 L165.56597,4.96278935 C165.432537,4.73920442 165.310276,4.58702283 165.199188,4.50624458 C165.088228,4.42559476 164.955436,4.38526985 164.801198,4.38526985 L164.801198,4.38526985 L164.426709,4.38526985 L164.426709,6.08148457 L163.906201,6.08148457 L163.906201,2.05181879 Z M165.048288,2.50707933 L164.426709,2.50707933 L164.426709,3.93000931 L165.040454,3.93000931 C165.278169,3.93000931 165.471064,3.86066074 165.619267,3.72196359 C165.767598,3.58326645 165.841828,3.40116223 165.841828,3.17565095 C165.841828,2.9658073 165.774148,2.80193919 165.638788,2.68404662 C165.503427,2.56602562 165.306551,2.50707933 165.048288,2.50707933 L165.048288,2.50707933 Z" id="形状结合" stroke="#0088FF" stroke-width="0.3" fill="#0088FF"></path>
        </g>
    </g>
</svg>
