<?xml version="1.0" encoding="UTF-8"?>
<svg width="154px" height="48px" viewBox="0 0 154 48" version="1.1" xmlns="http://www.w3.org/2000/svg" xmlns:xlink="http://www.w3.org/1999/xlink">
    <!-- Generator: Sketch 51.3 (57544) - http://www.bohemiancoding.com/sketch -->
    <title>logo</title>
    <desc>Created with Sketch.</desc>
    <defs></defs>
    <g id="首页" stroke="none" stroke-width="1" fill="none" fill-rule="evenodd">
        <g transform="translate(-136.000000, -47.000000)" fill-rule="nonzero" id="meu">
            <g>
                <g id="logo" transform="translate(136.000000, 47.000000)">
                    <g id="Group">
                        <g id="SVGID_1_-link" fill="#000500">
                            <path d="M46.9096154,40.0301887 C46.9096154,44.0150943 43.6557692,47.2754717 39.6788462,47.2754717 L7.68269231,47.2754717 C3.70576923,47.2754717 0.451923077,44.0150943 0.451923077,40.0301887 L0.451923077,7.96981132 C0.451923077,3.98490566 3.70576923,0.724528302 7.68269231,0.724528302 L39.6788462,0.724528302 C43.6557692,0.724528302 46.9096154,3.98490566 46.9096154,7.96981132 L46.9096154,40.0301887 Z" id="SVGID_1_"></path>
                        </g>
                        <path d="M40.3115385,34.0528302 C40.3115385,34.1433962 40.3115385,34.3245283 40.3115385,34.3245283 L37.9615385,39.2150943 C37.9615385,39.2150943 37.8711538,39.3962264 37.7807692,39.3962264 C37.6,39.4867925 37.4192308,39.3056604 37.4192308,39.3056604 C36.3346154,38.490566 33.9846154,36.5886792 30.9115385,33.1471698 C29.375,35.0490566 27.2057692,37.1320755 23.6807692,39.3056604 C23.6807692,39.3056604 23.5,39.3962264 23.3192308,39.3962264 C23.1384615,39.3056604 23.0480769,39.2150943 23.0480769,39.2150943 L21.0596154,34.7773585 C21.0596154,34.7773585 20.9692308,34.6867925 21.0596154,34.5056604 C21.0596154,34.4150943 21.15,34.3245283 21.2403846,34.2339623 C23.7711538,33.1471698 25.9403846,31.4264151 27.7480769,29.4339623 C26.3019231,27.5320755 24.7653846,25.2679245 23.2288462,22.6415094 C23.1384615,22.5509434 23.1384615,22.5509434 23.1384615,22.4603774 C23.1384615,22.2792453 23.2288462,22.1886792 23.2288462,22.1886792 L25.0365385,20.5584906 C25.0365385,20.5584906 25.2173077,20.4679245 25.3076923,20.4679245 C25.4884615,20.4679245 25.5788462,20.6490566 25.5788462,20.6490566 C26.3019231,21.4641509 28.0192308,23.6377358 30.2788462,26.0830189 C32.8096154,22.2792453 34.2557692,18.2943396 34.6173077,16.5735849 C34.6173077,16.5735849 34.7076923,16.2113208 34.4365385,15.8490566 C34.1653846,15.3962264 33.7134615,15.3962264 33.7134615,15.3962264 C31.0019231,15.3962264 28.5615385,15.3962264 27.5673077,15.3962264 C27.5673077,15.3962264 27.4769231,15.3962264 27.3865385,15.4867925 C27.2961538,15.5773585 27.2961538,15.6679245 27.2961538,15.6679245 C26.9346154,16.3924528 26.0307692,18.1132075 25.5788462,18.8377358 C25.5788462,18.8377358 25.4884615,18.9283019 25.3076923,19.0188679 C25.1269231,19.0188679 25.0365385,18.9283019 25.0365385,18.9283019 C24.2230769,18.4754717 22.7769231,17.1169811 22.0538462,16.5735849 C22.0538462,16.5735849 21.9634615,16.4830189 21.9634615,16.3924528 C21.9634615,16.2113208 22.0538462,16.1207547 22.0538462,16.1207547 C24.1326923,12.4075472 24.5846154,10.3245283 24.5846154,9.23773585 C24.5846154,9.23773585 24.5846154,9.05660377 24.675,8.96603774 C24.8557692,8.8754717 24.9461538,8.8754717 24.9461538,8.8754717 L28.7423077,8.8754717 C28.7423077,8.8754717 28.9230769,8.8754717 29.0134615,9.05660377 C29.1038462,9.14716981 29.1038462,9.32830189 29.1038462,9.32830189 C29.1038462,10.5962264 28.5615385,12.5886792 28.2903846,13.5849057 C28.2903846,13.5849057 28.2,13.7660377 28.3807692,13.9471698 C28.5615385,14.1283019 28.5615385,14.0377358 28.5615385,14.0377358 L39.3173077,14.0377358 C39.3173077,14.0377358 39.5884615,14.0377358 39.8596154,14.309434 C40.1307692,14.5811321 40.0403846,14.9433962 40.0403846,14.9433962 L40.0403846,15.7584906 C40.0403846,15.7584906 39.2269231,15.7584906 38.5942308,15.7584906 C38.5942308,15.7584906 38.3230769,15.7584906 37.9615385,16.0301887 C37.6903846,16.3018868 37.6903846,16.5735849 37.6903846,16.5735849 C37.5096154,18.0226415 36.3346154,24.8150943 33.2615385,29.5245283 C35.3403846,31.5169811 37.6,33.2377358 39.6788462,34.0528302 C40.1307692,33.8716981 40.2211538,33.9622642 40.3115385,34.0528302 Z M18.8,8.8754717 L15.0038462,11.1396226 C15.0038462,11.1396226 14.8230769,11.2301887 14.7326923,11.4113208 C14.6423077,11.5018868 14.7326923,11.6830189 14.7326923,11.6830189 C15.1846154,14.4 15.7269231,25.7207547 15.0942308,30.0679245 C15.0942308,30.0679245 15.0942308,30.2490566 15.0038462,30.2490566 C14.9134615,30.3396226 14.7326923,30.3396226 14.7326923,30.3396226 L12.2019231,30.3396226 C12.2019231,30.3396226 12.0211538,30.3396226 11.9307692,30.2490566 C11.8403846,30.1584906 11.8403846,29.9773585 11.8403846,29.9773585 C12.3826923,20.7396226 11.9307692,14.490566 11.75,13.1320755 C11.75,13.1320755 11.75,12.9509434 11.5692308,12.8603774 C11.3884615,12.7698113 11.2076923,12.7698113 11.2076923,12.7698113 L8.13461538,14.4 C8.13461538,14.4 7.95384615,14.4 7.86346154,14.5811321 C7.77307692,14.6716981 7.86346154,14.8528302 7.86346154,14.8528302 C8.40576923,18.2943396 8.40576923,27.0792453 7.50192308,31.7886792 C7.50192308,31.7886792 7.41153846,31.9698113 7.59230769,32.1509434 C7.68269231,32.3320755 7.86346154,32.3320755 7.86346154,32.3320755 L14.0096154,32.3320755 C14.0096154,32.3320755 14.3711538,32.3320755 14.6423077,32.6943396 C14.8230769,32.9660377 14.8230769,33.2377358 14.8230769,33.2377358 C14.4615385,36.045283 14.2807692,37.7660377 13.8288462,39.0339623 C13.8288462,39.0339623 13.7384615,39.2150943 13.8288462,39.3962264 C13.9192308,39.5773585 14.1,39.5773585 14.1,39.5773585 L18.8,39.5773585 C18.8,39.5773585 18.9807692,39.5773585 19.0711538,39.4867925 C19.1615385,39.3962264 19.1615385,39.2150943 19.1615385,39.2150943 L19.1615385,9.32830189 C19.1615385,9.32830189 19.1615385,9.05660377 19.0711538,8.96603774 C18.9807692,8.78490566 18.8,8.8754717 18.8,8.8754717 Z M42.8423077,7.69811321 C42.8423077,7.60754717 42.7519231,7.60754717 42.6615385,7.51698113 C42.7519231,7.51698113 41.0346154,7.15471698 40.7634615,7.06415094 C40.4923077,6.97358491 40.3115385,6.79245283 40.2211538,6.43018868 C40.1307692,6.06792453 39.7692308,4.43773585 39.7692308,4.52830189 C39.7692308,4.43773585 39.6788462,4.34716981 39.5884615,4.34716981 C39.5884615,4.34716981 39.5884615,4.34716981 39.5884615,4.34716981 C39.5884615,4.34716981 39.5884615,4.34716981 39.5884615,4.34716981 C39.4980769,4.34716981 39.4980769,4.43773585 39.4076923,4.52830189 C39.4076923,4.43773585 39.0461538,6.06792453 38.9557692,6.43018868 C38.8653846,6.79245283 38.6846154,6.97358491 38.4134615,7.06415094 C38.0519231,7.15471698 36.425,7.51698113 36.5153846,7.51698113 C36.425,7.51698113 36.3346154,7.60754717 36.3346154,7.69811321 C36.3346154,7.69811321 36.3346154,7.69811321 36.3346154,7.69811321 C36.3346154,7.69811321 36.3346154,7.69811321 36.3346154,7.69811321 C36.3346154,7.78867925 36.425,7.78867925 36.5153846,7.87924528 C36.425,7.87924528 38.1423077,8.24150943 38.4134615,8.33207547 C38.6846154,8.42264151 38.8653846,8.60377358 38.9557692,8.96603774 C39.0461538,9.32830189 39.4076923,10.9584906 39.4076923,10.8679245 C39.4076923,10.9584906 39.4980769,11.0490566 39.5884615,11.0490566 C39.5884615,11.0490566 39.5884615,11.0490566 39.5884615,11.0490566 C39.5884615,11.0490566 39.5884615,11.0490566 39.5884615,11.0490566 C39.6788462,11.0490566 39.6788462,10.9584906 39.7692308,10.8679245 C39.7692308,10.9584906 40.1307692,9.32830189 40.2211538,8.96603774 C40.3115385,8.60377358 40.4923077,8.42264151 40.7634615,8.33207547 C41.125,8.24150943 42.7519231,7.87924528 42.6615385,7.87924528 C42.7519231,7.78867925 42.8423077,7.78867925 42.8423077,7.69811321 C42.8423077,7.69811321 42.8423077,7.69811321 42.8423077,7.69811321 C42.8423077,7.69811321 42.8423077,7.69811321 42.8423077,7.69811321 Z" id="Shape" fill="#F5D446"></path>
                    </g>
                    <g id="XMLID_1_" transform="translate(57.000000, 8.000000)" fill="#000500">
                        <g id="XMLID_14_" transform="translate(66.801887, 2.742857)">
                            <path d="M10.2490566,24.32 L10.2490566,2.74285714 C10.2490566,1.55428571 9.24245283,0.548571429 8.14433962,0.548571429 L2.28773585,0.548571429 C1.09811321,0.548571429 0.183018868,1.55428571 0.183018868,2.74285714 L0.183018868,24.32 C0.183018868,25.5085714 1.18962264,26.5142857 2.28773585,26.5142857 L8.14433962,26.5142857 C9.24245283,26.5142857 10.2490566,25.5085714 10.2490566,24.32 Z M7.77830189,23.68 C7.77830189,24.2285714 7.41226415,24.5942857 6.86320755,24.5942857 L3.47735849,24.5942857 C3.01981132,24.5942857 2.56226415,24.2285714 2.56226415,23.68 L2.56226415,3.29142857 C2.56226415,2.74285714 3.01981132,2.37714286 3.47735849,2.37714286 L6.86320755,2.37714286 C7.41226415,2.37714286 7.77830189,2.83428571 7.77830189,3.29142857 L7.77830189,23.68 Z" id="Shape"></path>
                        </g>
                        <g id="XMLID_13_" transform="translate(32.943396, 0.000000)">
                            <path d="M0.91509434,11.2457143 L2.37924528,11.6114286 C2.65377358,11.7028571 2.92830189,11.52 3.01981132,11.2457143 C3.01981132,11.2457143 3.75188679,8.77714286 4.02641509,7.40571429 C4.02641509,7.40571429 4.02641509,7.31428571 4.11792453,7.13142857 C4.20943396,7.04 4.48396226,7.04 4.48396226,7.04 L10.340566,7.04 C10.5235849,7.04 10.7066038,6.85714286 10.7066038,6.67428571 L10.7066038,5.57714286 C10.7066038,5.39428571 10.5235849,5.21142857 10.340566,5.21142857 L4.94150943,5.21142857 C4.94150943,5.21142857 4.75849057,5.21142857 4.66698113,5.02857143 C4.5754717,4.84571429 4.5754717,4.66285714 4.5754717,4.66285714 C4.75849057,3.38285714 5.03301887,1.18857143 5.03301887,1.18857143 C5.03301887,0.914285714 4.85,0.64 4.5754717,0.64 L3.11132075,0.457142857 C2.83679245,0.457142857 2.56226415,0.64 2.56226415,0.914285714 L2.56226415,1.37142857 C2.19622642,4.93714286 0.732075472,10.3314286 0.732075472,10.3314286 L0.732075472,10.5142857 C0.549056604,10.88 0.640566038,11.1542857 0.91509434,11.2457143 Z" id="Shape"></path>
                        </g>
                        <g id="XMLID_12_" transform="translate(56.735849, 0.000000)">
                            <path d="M2.01320755,5.30285714 C2.10471698,5.57714286 2.37924528,5.66857143 2.65377358,5.57714286 L3.93490566,5.02857143 C4.20943396,4.93714286 4.3009434,4.66285714 4.20943396,4.38857143 L2.56226415,0.822857143 L2.56226415,0.731428571 C2.47075472,0.457142857 2.19622642,0.365714286 1.92169811,0.457142857 L0.640566038,1.00571429 C0.366037736,1.09714286 0.274528302,1.37142857 0.366037736,1.64571429 L2.01320755,5.30285714 Z" id="Shape"></path>
                        </g>
                        <g id="XMLID_11_">
                            <path d="M2.56226415,25.2342857 L8.23584906,25.2342857 C8.23584906,25.2342857 8.41886792,25.2342857 8.60188679,25.3257143 C8.69339623,25.4171429 8.69339623,25.6 8.69339623,25.6 L8.69339623,30.9028571 C8.69339623,31.1771429 8.87641509,31.36 9.1509434,31.36 L10.6150943,31.36 C10.8896226,31.36 11.0726415,31.1771429 11.0726415,30.9028571 L11.0726415,1.00571429 C11.0726415,0.64 10.8896226,0.457142857 10.5235849,0.457142857 L9.1509434,0.457142857 C8.87641509,0.457142857 8.69339623,0.64 8.69339623,0.914285714 L8.69339623,22.8571429 C8.69339623,22.8571429 8.69339623,23.04 8.60188679,23.1314286 C8.41886792,23.3142857 8.32735849,23.2228571 8.32735849,23.2228571 L4.11792453,23.2228571 C3.47735849,23.2228571 2.92830189,22.6742857 2.92830189,22.0342857 L2.92830189,6.76571429 C2.92830189,6.76571429 2.92830189,6.67428571 2.92830189,6.67428571 L2.92830189,5.21142857 C2.92830189,4.93714286 2.74528302,4.75428571 2.47075472,4.75428571 L0.91509434,4.75428571 C0.640566038,4.75428571 0.45754717,4.93714286 0.45754717,5.21142857 L0.45754717,5.57714286 L0.45754717,6.67428571 L0.45754717,22.9485714 C0.45754717,24.32 1.46415094,25.2342857 2.56226415,25.2342857 Z" id="Shape"></path>
                        </g>
                        <g id="XMLID_7_" transform="translate(79.613208, 0.914286)">
                            <path d="M16.654717,28.4342857 L3.75188679,28.4342857 C3.11132075,28.4342857 2.56226415,27.8857143 2.56226415,27.2457143 L2.56226415,18.1942857 C2.56226415,18.1942857 2.56226415,17.8285714 2.83679245,17.4628571 C3.11132075,17.1885714 3.56886792,17.1885714 3.56886792,17.1885714 L14.8245283,17.1885714 C16.0141509,17.1885714 16.9292453,16.1828571 16.9292453,15.0857143 L16.9292453,2.74285714 C16.9292453,1.55428571 16.0141509,0.548571429 14.8245283,0.548571429 L2.19622642,0.548571429 C1.00660377,0.548571429 0.091509434,1.55428571 0.091509434,2.74285714 L0.091509434,28.16 C0.091509434,29.3485714 1.00660377,30.3542857 2.19622642,30.3542857 L16.5632075,30.3542857 C16.7462264,30.3542857 16.9292453,30.1714286 16.9292453,29.9885714 L16.9292453,28.8914286 C17.0207547,28.5257143 16.9292453,28.4342857 16.654717,28.4342857 Z M9.9745283,2.46857143 C10.1575472,2.28571429 10.2490566,2.37714286 10.2490566,2.37714286 L13.6349057,2.37714286 C14.1839623,2.37714286 14.55,2.83428571 14.55,3.29142857 L14.55,14.3542857 C14.55,14.9028571 14.1839623,15.2685714 13.6349057,15.2685714 L10.2490566,15.2685714 C10.2490566,15.2685714 10.0660377,15.2685714 9.9745283,15.1771429 C9.88301887,15.0857143 9.88301887,14.9028571 9.88301887,14.9028571 L9.88301887,2.74285714 C9.88301887,2.74285714 9.88301887,2.56 9.9745283,2.46857143 Z M2.56226415,3.29142857 C2.56226415,2.74285714 2.92830189,2.37714286 3.47735849,2.37714286 L7.04622642,2.37714286 C7.04622642,2.37714286 7.22924528,2.37714286 7.32075472,2.46857143 C7.41226415,2.56 7.41226415,2.74285714 7.41226415,2.74285714 L7.41226415,14.9028571 C7.41226415,14.9028571 7.41226415,15.0857143 7.32075472,15.1771429 C7.22924528,15.2685714 7.04622642,15.2685714 7.04622642,15.2685714 L4.20943396,15.2685714 C4.20943396,15.2685714 3.38584906,15.36 3.01981132,14.9942857 C2.65377358,14.72 2.65377358,14.2628571 2.65377358,14.2628571 L2.65377358,3.29142857 L2.56226415,3.29142857 Z" id="Shape"></path>
                        </g>
                        <g id="XMLID_6_" transform="translate(43.924528, 0.000000)">
                            <path d="M16.654717,31.2685714 C16.654717,31.36 16.7462264,31.36 16.7462264,31.36 C16.9292453,31.4514286 17.1122642,31.5428571 17.295283,31.36 L18.5764151,30.6285714 C18.759434,30.4457143 18.8509434,30.1714286 18.759434,29.9885714 C18.759434,29.9885714 16.2886792,25.8742857 15.190566,23.5885714 C15.190566,23.5885714 15.0990566,23.4971429 15.190566,23.3142857 C15.2820755,23.1314286 15.3735849,23.04 15.3735849,23.04 C16.9292453,22.0342857 19.8575472,19.84 19.8575472,19.84 C20.040566,19.7485714 20.040566,19.4742857 19.9490566,19.2914286 L19.2169811,18.2857143 C19.1254717,18.1028571 18.8509434,18.1028571 18.6679245,18.1942857 C18.6679245,18.1942857 16.0141509,20.0228571 14.55,20.9371429 C14.55,20.9371429 14.4584906,21.0285714 14.1839623,21.0285714 C14.0009434,21.0285714 13.909434,20.8457143 13.909434,20.8457143 C13.2688679,19.4742857 12.6283019,17.5542857 12.445283,16.9142857 C12.445283,16.9142857 12.3537736,16.7314286 12.445283,16.5485714 C12.5367925,16.3657143 12.8113208,16.3657143 12.8113208,16.3657143 L19.4915094,15.4514286 C19.6745283,15.4514286 19.8575472,15.2685714 19.8575472,14.9942857 L19.6745283,13.8057143 C19.6745283,13.6228571 19.4915094,13.44 19.2169811,13.44 L18.9424528,13.44 L11.9877358,14.3542857 C11.9877358,14.3542857 11.804717,14.3542857 11.7132075,14.2628571 C11.6216981,14.1714286 11.5301887,14.08 11.5301887,14.08 C11.0726415,12.8 10.7066038,11.6114286 10.340566,10.3314286 C10.340566,10.24 10.340566,10.1485714 10.4320755,10.0571429 C10.5235849,9.87428571 10.7981132,9.87428571 10.7981132,9.87428571 L18.9424528,8.77714286 C19.1254717,8.77714286 19.3084906,8.59428571 19.3084906,8.32 L19.1254717,7.13142857 C19.1254717,6.94857143 18.9424528,6.76571429 18.6679245,6.76571429 L10.1575472,7.86285714 C10.1575472,7.86285714 9.9745283,7.86285714 9.88301887,7.77142857 C9.7,7.68 9.7,7.49714286 9.7,7.49714286 C9.1509434,4.93714286 8.41886792,0.822857143 8.41886792,0.822857143 C8.41886792,0.548571429 8.14433962,0.365714286 7.86981132,0.365714286 L6.40566038,0.548571429 C6.13113208,0.548571429 5.94811321,0.822857143 5.94811321,1.09714286 L6.13113208,2.46857143 C6.40566038,4.38857143 6.77169811,5.76 7.22924528,7.68 C7.22924528,7.68 7.32075472,7.86285714 7.13773585,8.04571429 C7.04622642,8.13714286 6.86320755,8.22857143 6.86320755,8.22857143 L2.47075472,8.68571429 L2.19622642,8.68571429 C2.01320755,8.68571429 1.83018868,8.86857143 1.83018868,9.14285714 L2.01320755,10.3314286 C2.01320755,10.5142857 2.19622642,10.6971429 2.47075472,10.6971429 L7.41226415,10.1485714 C7.41226415,10.1485714 7.59528302,10.1485714 7.68679245,10.24 C7.77830189,10.3314286 7.86981132,10.5142857 7.86981132,10.5142857 C8.23584906,11.7028571 8.60188679,13.0742857 8.96792453,14.2628571 C8.96792453,14.2628571 9.05943396,14.4457143 8.87641509,14.6285714 C8.78490566,14.72 8.60188679,14.8114286 8.60188679,14.8114286 L2.10471698,15.6342857 C1.92169811,15.6342857 1.73867925,15.9085714 1.73867925,16.0914286 L1.92169811,17.28 C1.92169811,17.4628571 2.19622642,17.6457143 2.37924528,17.6457143 L9.4254717,16.7314286 C9.4254717,16.7314286 9.60849057,16.7314286 9.7,16.8228571 C9.79150943,16.9142857 9.88301887,17.0057143 9.88301887,17.0057143 C10.1575472,17.92 10.9811321,20.3885714 11.7132075,22.0342857 C11.7132075,22.0342857 11.804717,22.1257143 11.7132075,22.3085714 C11.7132075,22.4914286 11.5301887,22.5828571 11.5301887,22.5828571 C8.05283019,24.6857143 0.91509434,27.8857143 0.91509434,27.8857143 C0.732075472,27.9771429 0.640566038,28.2514286 0.732075472,28.4342857 L1.28113208,29.6228571 C1.37264151,29.8057143 1.55566038,29.8971429 1.73867925,29.8971429 C5.3990566,28.4342857 8.87641509,26.7885714 12.445283,24.7771429 C12.445283,24.7771429 12.6283019,24.6857143 12.8113208,24.6857143 C12.9943396,24.7771429 13.0858491,24.96 13.0858491,24.96 C14.0924528,26.9714286 16.654717,31.2685714 16.654717,31.2685714 Z" id="Shape"></path>
                        </g>
                        <g id="XMLID_5_" transform="translate(32.943396, 12.800000)">
                            <path d="M10.340566,18.56 C10.5235849,18.56 10.7066038,18.3771429 10.7066038,18.1942857 L10.7066038,17.0971429 C10.7066038,16.9142857 10.5235849,16.7314286 10.340566,16.7314286 L8.14433962,16.7314286 C7.50377358,16.7314286 6.86320755,16.1828571 6.86320755,15.5428571 L6.86320755,9.96571429 C6.86320755,9.96571429 6.86320755,9.78285714 6.95471698,9.69142857 C7.13773585,9.50857143 7.32075472,9.6 7.32075472,9.6 L10.340566,9.6 C10.5235849,9.6 10.7066038,9.41714286 10.7066038,9.23428571 L10.7066038,8.13714286 C10.7066038,7.95428571 10.5235849,7.77142857 10.340566,7.77142857 L7.32075472,7.77142857 C7.32075472,7.77142857 7.13773585,7.77142857 7.04622642,7.68 C6.95471698,7.58857143 6.95471698,7.40571429 6.95471698,7.40571429 L6.95471698,2.28571429 C6.95471698,2.28571429 6.95471698,2.10285714 7.04622642,2.01142857 C7.13773585,1.92 7.32075472,1.92 7.32075472,1.92 L10.340566,1.92 C10.5235849,1.92 10.7066038,1.73714286 10.7066038,1.55428571 L10.7066038,0.457142857 C10.7066038,0.274285714 10.5235849,0.0914285714 10.340566,0.0914285714 L0.823584906,0.0914285714 C0.640566038,0.0914285714 0.45754717,0.274285714 0.45754717,0.457142857 L0.45754717,1.55428571 C0.45754717,1.73714286 0.640566038,1.92 0.823584906,1.92 L4.02641509,1.92 C4.02641509,1.92 4.20943396,1.92 4.3009434,2.01142857 C4.39245283,2.10285714 4.39245283,2.28571429 4.39245283,2.28571429 L4.39245283,7.40571429 C4.39245283,7.40571429 4.39245283,7.58857143 4.3009434,7.68 C4.20943396,7.77142857 4.02641509,7.77142857 4.02641509,7.77142857 L0.823584906,7.77142857 C0.640566038,7.77142857 0.45754717,7.95428571 0.45754717,8.13714286 L0.45754717,9.23428571 C0.45754717,9.41714286 0.640566038,9.6 0.823584906,9.6 L4.02641509,9.6 C4.02641509,9.6 4.20943396,9.6 4.3009434,9.78285714 C4.39245283,9.96571429 4.39245283,10.0571429 4.39245283,10.0571429 L4.39245283,16.4571429 C4.39245283,17.6457143 5.3990566,18.56 6.58867925,18.56 L9.9745283,18.56 L10.340566,18.56 Z" id="Shape"></path>
                        </g>
                        <g id="XMLID_2_" transform="translate(12.811321, 0.000000)">
                            <path d="M17.2037736,29.8971429 L16.3801887,28.8914286 C16.3801887,28.8914286 16.3801887,28.8914286 16.3801887,28.8914286 C13.6349057,25.6914286 11.5301887,22.5828571 10.7066038,20.8457143 C10.7066038,20.8457143 10.6150943,20.7542857 10.7066038,20.6628571 C10.7066038,20.5714286 10.7981132,20.48 10.7981132,20.48 C12.8113208,16.4571429 14.55,12.16 15.8311321,7.77142857 C15.8311321,7.77142857 15.9226415,7.58857143 16.0141509,7.58857143 C16.1056604,7.49714286 16.2886792,7.49714286 16.2886792,7.49714286 L17.4783019,7.49714286 C17.6613208,7.49714286 17.8443396,7.31428571 17.8443396,7.13142857 L17.8443396,6.03428571 C17.8443396,5.85142857 17.6613208,5.66857143 17.4783019,5.66857143 L6.95471698,5.66857143 C6.95471698,5.66857143 6.77169811,5.66857143 6.68018868,5.48571429 C6.58867925,5.30285714 6.58867925,5.12 6.58867925,5.12 C6.86320755,3.84 7.32075472,1.46285714 7.32075472,1.46285714 C7.32075472,1.18857143 7.13773585,1.00571429 6.95471698,0.914285714 L5.58207547,0.731428571 C5.30754717,0.731428571 5.1245283,0.914285714 5.03301887,1.09714286 C5.03301887,1.09714286 4.85,2.46857143 4.75849057,3.10857143 C4.11792453,7.77142857 0.45754717,16.9142857 0.45754717,16.9142857 C0.366037736,17.0971429 0.45754717,17.3714286 0.732075472,17.4628571 L2.01320755,18.0114286 C2.19622642,18.1028571 2.47075472,18.0114286 2.56226415,17.7371429 C2.56226415,17.7371429 3.56886792,15.4514286 4.20943396,13.7142857 C4.20943396,13.7142857 4.3009434,13.44 4.5754717,13.44 C4.85,13.44 4.94150943,13.7142857 4.94150943,13.7142857 C6.22264151,16.8228571 6.95471698,18.0114286 8.14433962,20.3885714 C8.23584906,20.48 8.23584906,20.48 8.23584906,20.5714286 C8.23584906,20.6628571 8.23584906,20.6628571 8.14433962,20.7542857 C6.22264151,24.5942857 1.83018868,29.8971429 1.83018868,29.8971429 C1.64716981,30.08 1.73867925,30.3542857 1.92169811,30.5371429 L2.92830189,31.36 C3.11132075,31.5428571 3.38584906,31.4514286 3.56886792,31.2685714 L4.3009434,30.3542857 C6.40566038,27.8857143 7.50377358,26.24 9.1509434,23.4971429 C9.24245283,23.4057143 9.33396226,23.3142857 9.51698113,23.3142857 C9.7,23.3142857 9.79150943,23.4057143 9.88301887,23.4971429 C12.9943396,28.0685714 13.5433962,28.5257143 15.5566038,31.0857143 L15.7396226,31.2685714 C15.9226415,31.4514286 16.1971698,31.5428571 16.3801887,31.36 L17.4783019,30.5371429 C17.3867925,30.3542857 17.3867925,30.08 17.2037736,29.8971429 Z M5.30754717,9.41714286 C5.30754717,9.32571429 5.30754717,9.32571429 5.30754717,9.23428571 L5.76509434,7.68 C5.76509434,7.68 5.76509434,7.58857143 5.85660377,7.49714286 C6.03962264,7.40571429 6.13113208,7.40571429 6.13113208,7.40571429 L12.8113208,7.40571429 C12.8113208,7.40571429 12.9943396,7.40571429 13.1773585,7.58857143 C13.2688679,7.68 13.2688679,7.86285714 13.1773585,7.95428571 C12.1707547,11.1542857 10.9811321,14.4457143 9.60849057,17.4628571 C9.60849057,17.4628571 9.51698113,17.7371429 9.24245283,17.7371429 C8.96792453,17.7371429 8.87641509,17.5542857 8.87641509,17.5542857 C8.23584906,16.64 6.49716981,13.7142857 5.21603774,9.69142857 C5.30754717,9.50857143 5.30754717,9.50857143 5.30754717,9.41714286 Z" id="Shape"></path>
                        </g>
                    </g>
                </g>
            </g>
        </g>
    </g>
</svg>