<svg width="89" height="32" viewBox="0 0 89 32" fill="none" xmlns="http://www.w3.org/2000/svg">
<path fill-rule="evenodd" clip-rule="evenodd" d="M24.783 20.4882C26.1862 20.49 27.5314 21.0483 28.5237 22.0405C29.5159 23.0327 30.0741 24.378 30.076 25.7812C30.0744 27.1846 29.5163 28.5301 28.524 29.5225C27.5318 30.5149 26.1864 31.0733 24.783 31.0752C23.3794 31.0736 22.0338 30.5153 21.0413 29.5229C20.0489 28.5304 19.4906 27.1848 19.489 25.7812C19.4909 24.3778 20.0492 23.0324 21.0417 22.0402C22.0341 21.0479 23.3796 20.4898 24.783 20.4882V20.4882ZM15.48 0.118188C24.014 0.118188 30.959 7.06119 30.959 15.5962C30.959 18.1962 30.311 20.6482 29.173 22.8022C28.5415 21.8758 27.6332 21.173 26.578 20.7942C27.321 19.2142 27.738 17.4542 27.738 15.5962C27.738 8.83719 22.238 3.33819 15.48 3.33819C8.72 3.33819 3.22 8.83619 3.22 15.5962C3.22 22.3562 8.72 27.8552 15.48 27.8552C16.945 27.8552 18.35 27.5952 19.654 27.1222C19.9361 28.2076 20.5551 29.1757 21.422 29.8872C19.5396 30.6729 17.5198 31.0767 15.48 31.0752C6.944 31.0762 0 24.1312 0 15.5962C0 7.06119 6.944 0.117188 15.48 0.117188V0.118188ZM24.783 23.7092C23.64 23.7092 22.71 24.6392 22.71 25.7812C22.71 26.9252 23.64 27.8552 24.783 27.8552C25.925 27.8552 26.855 26.9252 26.855 25.7812C26.855 24.6392 25.925 23.7092 24.783 23.7092V23.7092ZM54.774 3.46119C55.308 3.52819 55.575 3.89619 55.575 4.56219L55.565 4.92819L55.534 5.38619L55.494 5.81919L55.441 6.31219L55.375 6.86419C55.3193 7.06014 55.2857 7.26174 55.275 7.46519H60.984C61.517 7.46519 61.817 7.76519 61.885 8.36519C61.817 8.96619 61.517 9.26719 60.984 9.26719H59.48C59.546 14.7392 58.812 18.9772 57.277 21.9792C58.344 23.3802 59.781 24.5492 61.583 25.4822C62.184 25.8822 62.35 26.3832 62.084 26.9842C61.749 27.4502 61.283 27.5172 60.682 27.1842C59.145 26.3162 57.643 25.1152 56.175 23.5812C54.706 25.3152 53.104 26.6162 51.368 27.4842C50.768 27.7502 50.267 27.6842 49.866 27.2842C49.531 26.8172 49.632 26.4162 50.166 26.0832C52.035 25.1472 53.672 23.7812 55.074 21.9792C53.938 19.5112 53.271 16.3082 53.071 12.3692C52.871 12.6372 52.736 12.8702 52.671 13.0712C52.335 13.5382 51.902 13.6382 51.368 13.3712C50.833 13.0372 50.733 12.6372 51.068 12.1702C52.67 10.1022 53.572 7.49919 53.772 4.36219C53.838 3.69519 54.172 3.39519 54.773 3.46119H54.774ZM45.16 15.9732C45.761 16.3082 45.894 16.7742 45.56 17.3742C45.426 17.5742 45.326 17.7752 45.26 17.9742H50.067C51.67 18.0422 52.036 18.8432 51.169 20.3772C50.301 21.8462 49.399 23.0142 48.465 23.8812C48.865 24.0162 49.266 24.2162 49.667 24.4812C50.333 24.6812 50.568 25.0482 50.368 25.5822C50.033 26.1162 49.567 26.2492 48.966 25.9822L48.418 25.7452L48.119 25.6212L47.473 25.3592L46.763 25.0822C44.893 26.0822 42.657 26.8492 40.053 27.3842C39.317 27.5172 38.883 27.3172 38.751 26.7842C38.684 26.1842 38.984 25.7832 39.652 25.5822C41.655 25.2482 43.29 24.8152 44.559 24.2822L44.283 24.1572L43.858 23.9812L42.822 23.5762L41.945 23.2212L41.392 22.9872L41.074 22.8462L40.67 22.6572L40.45 22.5472L40.272 22.4492C40.218 22.4192 40.172 22.3892 40.132 22.3632L40.032 22.2892C39.979 22.2452 39.952 22.2082 39.952 22.1792C39.952 22.0622 40.043 21.8782 40.225 21.6252L40.403 21.3912L40.509 21.2612L40.949 20.7512L41.304 20.3282L41.616 19.9502L41.756 19.7772H38.95C38.482 19.7772 38.25 19.4772 38.25 18.8762C38.25 18.2762 38.482 17.9752 38.95 17.9752H42.956C43.356 17.3752 43.623 16.9082 43.757 16.5742C44.09 15.9742 44.558 15.7732 45.159 15.9742L45.16 15.9732ZM76.14 9.93819C76.822 10.0052 77.165 10.3382 77.165 10.9372V16.4282H86.395C87.077 16.4282 87.454 16.7282 87.522 17.3272C87.454 17.9932 87.077 18.3252 86.395 18.3252H77.165V25.0152H87.522C88.138 25.0152 88.479 25.3152 88.548 25.9132C88.479 26.5132 88.138 26.8122 87.522 26.8122H65.064C64.38 26.8122 64.004 26.5122 63.936 25.9132C64.003 25.3142 64.38 25.0152 65.064 25.0152H67.423V15.5302C67.423 14.8652 67.764 14.4982 68.448 14.4322C69.131 14.4982 69.474 14.8652 69.474 15.5302V25.0152H75.114V10.9362C75.114 10.3362 75.456 10.0042 76.139 9.93719L76.14 9.93819ZM48.966 19.7772H44.059L43.769 20.1342L43.057 20.9782L42.882 21.2042L42.812 21.2982L42.712 21.4482C42.675 21.5102 42.657 21.5542 42.657 21.5782C42.657 21.5842 42.663 21.5912 42.677 21.6002L42.737 21.6362L42.836 21.6862L43.155 21.8292L43.778 22.0892L45.068 22.6012L46.562 23.1812C47.364 22.4472 48.23 21.4792 49.166 20.2782C49.299 20.0782 49.332 19.9442 49.266 19.8772C49.266 19.8112 49.166 19.7772 48.966 19.7772ZM57.678 9.26719H54.675L54.074 10.6672C54.54 10.6672 54.807 11.1032 54.874 11.9692V12.1692C54.94 14.9722 55.408 17.6422 56.277 20.1772C56.685 19.2442 57.017 17.8752 57.273 16.0722L57.378 15.2722C57.644 13.1382 57.745 11.1352 57.678 9.26719V9.26719ZM45.261 3.46119C45.861 3.52819 46.161 3.86119 46.161 4.46219V8.86619H50.769C51.369 8.86619 51.703 9.16619 51.769 9.76619C51.703 10.3682 51.369 10.6682 50.769 10.6682H46.162V14.8722C46.162 15.4722 45.862 15.8072 45.261 15.8732C44.725 15.8732 44.425 15.5732 44.359 14.9732V11.9692C43.157 13.4382 41.521 14.8062 39.452 16.0732C38.917 16.4082 38.483 16.3412 38.15 15.8732C37.882 15.3402 38.015 14.9062 38.55 14.5722C40.554 13.3052 42.089 12.0042 43.157 10.6682H39.151C38.483 10.6682 38.15 10.3682 38.15 9.76719C38.15 9.16719 38.483 8.86619 39.151 8.86619H44.359V4.46219C44.359 3.86219 44.659 3.52819 45.261 3.46119V3.46119ZM47.964 11.1682C48.9665 11.9616 49.9354 12.7967 50.868 13.6712C51.335 14.1382 51.402 14.5712 51.069 14.9722C50.601 15.3072 50.133 15.2722 49.667 14.8722C48.7608 14.0389 47.8255 13.2378 46.863 12.4702C46.395 12.1372 46.328 11.7362 46.663 11.2692C47.063 10.9352 47.496 10.9022 47.964 11.1692V11.1682ZM77.886 4.32019L78.23 4.60019L78.413 4.75619L78.804 5.09619L79.011 5.28019C81.119 7.17619 83.831 9.04219 88.138 10.7722C88.82 11.0392 89.094 11.5052 88.958 12.1702C88.684 12.7692 88.205 13.0032 87.522 12.8682C84.569 12.0382 81.363 10.1342 77.906 7.15619L77.076 6.43419L76.677 6.10419L76.535 5.99419L76.431 5.92119L76.364 5.88419C76.3576 5.88166 76.3509 5.88031 76.344 5.88019C76.294 5.88019 76.184 5.97419 76.017 6.16019L75.832 6.37919C72.208 9.77419 68.722 11.9692 65.372 12.9692C64.688 13.1022 64.244 12.8692 64.039 12.2692C63.901 11.6052 64.141 11.1712 64.757 10.9722C68.898 9.24419 71.872 7.26719 73.725 5.49219L74.335 4.89719C75.275 3.99419 75.923 3.51519 76.278 3.46019L76.345 3.45419C76.605 3.42219 77.119 3.71019 77.885 4.32019H77.886ZM40.854 4.76219L40.935 4.86719L41.135 5.10519L41.385 5.38119L41.53 5.53219L42.223 6.23719L42.495 6.52519L42.623 6.66919L42.709 6.77619C42.741 6.82019 42.757 6.84919 42.757 6.86419C43.09 7.33219 43.057 7.73319 42.657 8.06519C42.189 8.40019 41.755 8.36519 41.355 7.96519C40.7735 7.24955 40.1373 6.5802 39.452 5.96319C39.052 5.49719 39.052 5.06319 39.452 4.66219C39.918 4.32919 40.386 4.36219 40.854 4.76219V4.76219ZM50.969 4.56219C51.369 5.03019 51.402 5.46219 51.069 5.86419C50.468 6.59919 49.732 7.33219 48.866 8.06519C48.398 8.33319 47.997 8.30019 47.664 7.96519C47.329 7.49919 47.364 7.09919 47.764 6.76419C48.498 6.16419 49.166 5.49719 49.767 4.76219C50.167 4.36219 50.568 4.29619 50.969 4.56219Z" fill="#0056FF"/>
</svg>
