<svg xmlns="http://www.w3.org/2000/svg" viewBox="0 0 802.75 194.92"><defs><style>.cls-1{fill:#1862ec;}.cls-2{fill:#374567;}</style></defs><g id="图层_2" data-name="图层 2"><g id="Layer_1" data-name="Layer 1"><path class="cls-1" d="M249.79,10.41c-4.06.16-6.64.38-13.31.62C233.37,4.17,227.75-.65,220.18.08c-6.65.63-12.72,5.4-13.58,12L187,12.66c.5-6.85-1.91-10.82-10.49-10.82-6.75,0-13.27,2.58-16.89,11.47-8.83.16-17.16.26-24.3.26-4.45,0-9.33,0-14.48-.11C119.42,2.28,112.35.77,105.37.1s-13.45,3.67-14,12.75c-7.79-.2-15.61-.44-23.17-.69C67.42,3,61-.58,54.11.08,47.93.66,44.16,4,41.83,11.24c-8.36-.31-13.95-.59-18.9-.79a7.44,7.44,0,0,0-7.76,7.46v.46a7.44,7.44,0,0,0,7.13,7.47c4.49.18,9.43.44,17,.72-1,17.44.64,44.29.82,54.68.13,8-3.87,17.31-14.48,22.42C6.2,113,0,127.83,0,145.3c0,52.1,76.16,51.53,129.16,48.5C203.82,189.54,226,158.52,236.72,128c6.34-18.06,6.84-29.75,6.84-63.55,0-21-1.06-31.12-2.54-38.17,4.94-.19,6.14-.36,9.28-.48a6.76,6.76,0,0,0,6.49-6.76V17.17A6.73,6.73,0,0,0,249.79,10.41ZM68.6,153.35a12.56,12.56,0,0,1,10.23,5.3c-4.55,10-12.52,17.08-31.15,17.08-15.69,0-26.61-7-31.16-17.08a12.57,12.57,0,0,1,10.24-5.3,12.61,12.61,0,1,0-12.61-12.61v-.89c0-12.79,8.91-27.55,35-27.55,24.38,0,32,15.06,32.08,28.34a12.61,12.61,0,1,0-12.6,12.71ZM95.9,86.19c-3.14,10.16-8.7,15.08-15.08,15.08-14.5,0-22.65-24-22.65-43.1s4.18-23.27,7.26-30.68c9.29.3,19.07.59,28.76.84C98.46,47.7,98.73,77,95.9,86.19Zm60.15-33.92c0,9.39,3.4,49-15,49-8.32,0-14.29-5.25-20-25-4.25-14.67-2.13-34.23-.75-47.39,5.56.08,10.86.13,15.69.13,6.1,0,13-.08,20.32-.2C155.83,34.28,156.05,40.23,156.05,52.27Zm38.5,49c-9.43,0-13.87-10-15.15-21.52-3.06-27.89.85-40.37,4.14-51.56,9.09-.25,18.17-.53,26.76-.8,2.84,6.73,6.3,14.24,7.59,27.53C220.45,81.12,210.28,101.27,194.55,101.27ZM47.68,159.92a5,5,0,1,1,5-5,5,5,0,0,1-5,5"/><path class="cls-2" d="M294.47,183.13H284.8a1.41,1.41,0,0,1-1.62-1.62v-29.2a1.42,1.42,0,0,1,1.62-1.62h9.67c8.35,0,13.34,4.56,13.34,12.19V171C307.81,178.58,302.82,183.13,294.47,183.13ZM288,178.2h6.05c5.23,0,8.1-2.56,8.1-7.21v-8.17c0-4.63-2.87-7.2-8.1-7.2H288Z"/><path class="cls-2" d="M349.18,183.14h-1.95c-1.12,0-1.62-.5-1.62-1.61V155.62h-7.93c-1.12,0-1.62-.5-1.62-1.62v-1.69c0-1.11.5-1.62,1.62-1.62h21.05a1.41,1.41,0,0,1,1.61,1.62V154c0,1.11-.51,1.62-1.61,1.62H350.8v25.91C350.8,182.64,350.3,183.14,349.18,183.14Z"/><path class="cls-2" d="M418.8,183.13h-1.87c-1.42,0-1.81-.81-1.91-1.3l-5.32-19.72c-.19-.7-.36-1.44-.49-2.18-.14.74-.32,1.46-.52,2.19l-5.37,19.69a1.75,1.75,0,0,1-1.91,1.32h-1.87c-1.43,0-1.82-.81-1.92-1.3L390,152.43a1.53,1.53,0,0,1,.09-1.33,1.34,1.34,0,0,1,1.12-.41h2.35c1.12,0,1.76.22,2,1.39l4.61,19.2c.17.81.32,1.73.46,2.74a25.29,25.29,0,0,1,.55-2.71l5.23-18.9a1.91,1.91,0,0,1,2-1.36h1.87a1.85,1.85,0,0,1,2,1.37l5.19,18.89c.22.88.42,1.75.58,2.61a24.25,24.25,0,0,1,.47-2.55l4.57-19.29c.25-1.17.9-1.39,2-1.39h2a1.35,1.35,0,0,1,1.11.4,1.5,1.5,0,0,1,.15,1.32l-7.68,29.4C420.44,183,419.63,183.13,418.8,183.13Z"/><path class="cls-2" d="M486,183.15h-1.73c-1.46,0-2.14-.17-2.56-1.33l-2.63-6.91H466.6L464,181.83c-.42,1.15-1.1,1.32-2.56,1.32h-1.55a1.34,1.34,0,0,1-1.17-.49,1.31,1.31,0,0,1-.07-1.28L470.14,152a1.83,1.83,0,0,1,1.9-1.27h1.76a1.85,1.85,0,0,1,1.91,1.24l11.5,29.43a1.2,1.2,0,0,1-1.23,1.79Zm-17.84-12.67h9.37l-4.19-11c-.2-.59-.37-1.17-.5-1.72-.12.57-.27,1.15-.43,1.67Z"/><path class="cls-2" d="M532.05,183.14h-1.82a1.83,1.83,0,0,1-1.9-1.24l-11.09-29.42a1.39,1.39,0,0,1,0-1.29,1.35,1.35,0,0,1,1.18-.5h1.73c1.44,0,2.11.19,2.53,1.33l7.72,21.31c.28.81.55,1.83.76,2.68.21-.83.48-1.84.76-2.63L539.6,152c.43-1.15,1.11-1.33,2.58-1.33h1.64a1.35,1.35,0,0,1,1.19.49,1.42,1.42,0,0,1,0,1.31l-11.1,29.37A1.77,1.77,0,0,1,532.05,183.14Z"/><path class="cls-2" d="M598.55,183.12H580.18a1.41,1.41,0,0,1-1.62-1.62V152.31a1.42,1.42,0,0,1,1.62-1.62H598c1.12,0,1.63.51,1.63,1.62V154c0,1.12-.51,1.62-1.63,1.62H583.8v8.6H596c1.14,0,1.62.5,1.62,1.67v1.64c0,1.15-.47,1.62-1.62,1.62H583.8v9h14.75c1.11,0,1.61.51,1.61,1.63v1.68C600.16,182.62,599.66,183.12,598.55,183.12Z"/><path class="cls-2" d="M628.23,183.15H628c-2,0-2.73-.71-2.73-2.69v-.34c0-2,.74-2.73,2.73-2.73h.26c2,0,2.73.74,2.73,2.73v.34C631,182.44,630.24,183.15,628.23,183.15Z"/><path class="cls-2" d="M667.08,183.1c-7.75,0-12.37-4.24-12.37-11.35V162c0-7.1,4.62-11.35,12.37-11.35,6.25,0,10.25,2.55,11.88,7.56a1.48,1.48,0,0,1-1,2l-1.75.59a1.39,1.39,0,0,1-2-.95c-1-3.14-3.15-4.47-7.11-4.47-4.73,0-7.34,2.34-7.34,6.57v9.79c0,4.18,2.67,6.59,7.34,6.59,4,0,6.12-1.36,7.15-4.55a1.4,1.4,0,0,1,2-1l1.74.63a1.52,1.52,0,0,1,1,.75,1.59,1.59,0,0,1,0,1.27C677.37,180.53,673.37,183.1,667.08,183.1Z"/><path class="cls-2" d="M724.31,183.13c-7.75,0-12.38-4.24-12.38-11.36v-9.71c0-7.12,4.63-11.37,12.38-11.37s12.38,4.25,12.38,11.37v9.71C736.69,178.89,732.07,183.13,724.31,183.13Zm0-27.7c-4.74,0-7.35,2.35-7.35,6.63v9.71c0,4.28,2.61,6.63,7.35,6.63s7.36-2.35,7.36-6.63v-9.71C731.67,157.78,729.05,155.43,724.31,155.43Z"/><path class="cls-2" d="M800.64,183.13h-1.78c-1.11,0-1.61-.49-1.61-1.61v-16a43.65,43.65,0,0,1,.37-5.46c-.69,1.5-1.5,3.08-2.47,4.8l-5.64,10a2,2,0,0,1-1.78,1.07h-1.11a2,2,0,0,1-1.78-1.09l-5.72-10.11a38.7,38.7,0,0,1-2.3-4.65,51,51,0,0,1,.29,5.41v16c0,1.12-.5,1.61-1.62,1.61H773.8a1.41,1.41,0,0,1-1.62-1.61v-29.2a1.42,1.42,0,0,1,1.62-1.62h1.55a1.93,1.93,0,0,1,2,1.12l9.8,17.42L797,151.87a1.85,1.85,0,0,1,2-1.17h1.68a1.41,1.41,0,0,1,1.62,1.62v29.2C802.26,182.62,801.75,183.13,800.64,183.13Z"/><path class="cls-2" d="M587.61,16.55l-32.36,0V28.07l21.46,0V39.72l-21.46,0V51.24l21.46,0v79.94h11.48V51.21h18.57V39.72H588.19V28c4.52-.08,21.34-1.34,21.93-16.33H596.89C595.23,15,592.19,16.55,587.61,16.55Z"/><rect class="cls-2" x="595.27" y="62.37" width="11.49" height="68.78"/><polygon class="cls-2" points="663.1 87.92 663.1 11.69 651.63 11.69 651.63 87.92 613.72 87.92 613.72 99.41 651.63 99.41 651.63 131.15 663.1 131.15 663.1 99.41 670.59 99.44 670.59 87.95 663.1 87.92"/><rect class="cls-2" x="623.74" y="19.54" width="11.49" height="22.95" transform="matrix(0.3, -0.95, 0.95, 0.3, 409.25, 621.53)"/><rect class="cls-2" x="623.74" y="50.06" width="11.49" height="22.95" transform="translate(380.29 642.86) rotate(-72.38)"/><path class="cls-2" d="M558.14,88.1a176.17,176.17,0,0,1-4.15,38l-1.25,5h11.91l.55-2.48a188.28,188.28,0,0,0,4.43-40.57V62.37h-11.5V88.1Z"/><path class="cls-2" d="M714.69,70.19v-29h15.89V29.65H714.69v-18H703.22v18H687.33V41.14h15.89V77.51L687.33,87.65l6.17,9.69,9.72-6.2v22.38a6.3,6.3,0,0,1-6.46,6.11h-9.43v11.5h9.43a17.79,17.79,0,0,0,17.93-17.61V83.82L731,73.44l-6.18-9.7Z"/><path class="cls-2" d="M777.07,100.21l18-15.6c6.27-6.28,7.25-9.72,7.25-17.51V55.81H774.07V36.93h28.21V25.44H774.07V11.77H762.58V25.43H734.36v11.5h28.22V55.81H734.5V67.3l56.29-.11s.51,5.18-2.52,8.09l-20,17.32L743.25,70.85l-7.51,8.69,23.81,20.66-25.68,22.31,7.53,8.67,26.91-23.35,26.91,23.35,7.53-8.67Z"/><polygon class="cls-2" points="305.32 63.97 316.81 63.97 316.81 43.81 338.79 43.81 338.79 32.32 316.81 32.32 316.81 12.16 305.32 12.16 305.32 32.32 283.19 32.32 283.19 43.81 305.32 43.81 305.32 63.97"/><rect class="cls-2" x="284.85" y="12.16" width="11.48" height="15.19"/><rect class="cls-2" x="325.54" y="12.16" width="11.48" height="15.19"/><rect class="cls-2" x="284.85" y="48.79" width="11.48" height="15.18"/><rect class="cls-2" x="325.54" y="48.79" width="11.48" height="15.18"/><path class="cls-2" d="M325.77,112.05a15.44,15.44,0,0,0,8.37-13.65V85.17l4.52,0V73.64H299V68H287.55v5.6h-4.48V85.13l4.48,0V97.84a15.43,15.43,0,0,0,8.39,14.21l2.6,1.3-15.47,8,5.29,10.19L311,119.82l22.73,11.79L339,121.42l-15.56-8.08Zm-3.11-13.68a4,4,0,0,1-2,3.38L311,106.87,301,101.75a3.89,3.89,0,0,1-2-3.34V85.13h23.64Z"/><path class="cls-2" d="M391.35,83.52V35l7.06,0V23.49l-38.92,0c0-.14,0-.28,0-.43V12.16H348V23.1A49.17,49.17,0,0,1,344.67,41l-3.37,8.54h12.37l1.69-4.37A61.56,61.56,0,0,0,358.31,35h21.55V83.52c-.18,6.18-3.15,9.52-9.45,14.38l-2.75-2.36C364,92.38,361,88.06,361,83.29V54.85H349.48V83.3c0,8.12,4.18,15.29,10.43,20.64l1.89,1.65L342.41,123l7.65,8.55,20.36-18.21,20.32,18.24,7.67-8.58L379,105.58C386.23,98.73,391.27,95.42,391.35,83.52Z"/><rect class="cls-2" x="417.58" y="11.93" width="11.48" height="19.25"/><rect class="cls-2" x="417.58" y="49.56" width="11.48" height="19.25"/><rect class="cls-2" x="434.58" y="11.93" width="11.49" height="11.38"/><polygon class="cls-2" points="410.81 131.38 421.85 131.38 429.12 90.67 417.53 90.67 410.81 131.38"/><rect class="cls-2" x="434.58" y="34.09" width="11.49" height="97.29"/><path class="cls-2" d="M518.45,11.89H452V23.36h66.47a2.87,2.87,0,0,1,3,2.74v90.34a3.58,3.58,0,0,1-3.71,3.44h-11v11.49h11a15.07,15.07,0,0,0,15.19-14.93V26.11A14.35,14.35,0,0,0,518.45,11.89Z"/><path class="cls-2" d="M515.29,75.92V48l-26-.18v-6h25.83V30.3H489.26v-4H477.78v4h-26V41.8h26v6h-26v44.7h26v38.88h11.49V92.49h9.29A16.61,16.61,0,0,0,515.29,75.92ZM503.8,59.28v9l-7.58-6.13-6.94,8.68,0-11.53Zm-26,0v11.5l-6.95-8.71-7.59,6.25v-9ZM463.24,81V69.62l7.62,9.54,6.92-5.7V81Zm26,0,0-7.51,6.88,5.66,7.64-9.5v6.26A5.12,5.12,0,0,1,498.53,81Z"/><polygon class="cls-2" points="448.43 121.31 458.57 126.71 472.34 100.72 462.2 95.34 448.43 121.31"/><polygon class="cls-2" points="504.61 95.26 495.74 102.56 506.21 115.75 515.09 108.44 504.61 95.26"/></g></g></svg>