<?xml version="1.0" encoding="UTF-8"?>
<svg width="132px" height="24px" viewBox="0 0 132 24" version="1.1" xmlns="http://www.w3.org/2000/svg" xmlns:xlink="http://www.w3.org/1999/xlink">
    <title>矩形@3x</title>
    <g id="页面-1" stroke="none" stroke-width="1" fill="none" fill-rule="evenodd">
        <g id="全局样式-布局-1280px" transform="translate(-24.000000, -18.000000)">
            <g id="编组" transform="translate(24.000000, 18.000000)">
                <rect id="矩形" fill="#FFFFFF" opacity="0" x="0" y="0" width="132" height="24"></rect>
                <path d="M49.6017234,19.6097213 C49.8970641,19.6097213 50.1776041,19.7706734 50.3105218,20.0341015 L50.3105218,20.0341015 L51.0933235,21.3950518 C51.1671347,21.5122897 51.2114406,21.6585751 51.2114406,21.8048606 C51.2114406,21.9512413 51.1671347,22.0829554 51.1080281,22.2146695 L51.1080281,22.2146695 L50.3105218,23.5901911 C50.1776041,23.8389526 49.9118648,24 49.616428,24 L49.616428,24 L47.9920063,24 C47.6966656,24 47.4161257,23.8389526 47.2831118,23.5756197 L47.2831118,23.5756197 L46.4857016,22.2146695 C46.4118905,22.0975268 46.3675846,21.9512413 46.3675846,21.8048606 C46.3675846,21.6731466 46.4118905,21.5267658 46.470901,21.4097184 L46.470901,21.4097184 L47.2684073,20.0341015 C47.4012289,19.7706734 47.681865,19.6097213 47.9773017,19.6097213 L47.9773017,19.6097213 Z M17.7178776,9.52379445e-06 C19.3571,9.52379445e-06 20.8635008,0.892674774 21.6314057,2.32686297 L21.6314057,2.32686297 L23.2796623,5.1420966 C23.3836514,5.31962013 23.3834592,5.53885787 23.2792778,5.71619093 L23.2792778,5.71619093 L21.1283751,9.37894702 C21.0168895,9.568661 20.7401939,9.56828005 20.6294772,9.37828035 L20.6294772,9.37828035 L18.5743944,5.85361928 C18.0871255,4.94628739 17.1271963,4.37562163 16.0934559,4.37562163 L16.0934559,4.37562163 L10.481695,4.37562163 C9.44785853,4.37562163 8.50272996,4.94628739 8.00066045,5.83895264 L8.00066045,5.83895264 L5.23908589,10.609707 C5.0027557,11.0340872 4.86983798,11.5170389 4.86983798,11.9999905 C4.86983798,12.5121801 5.0027557,12.9951318 5.26859113,13.4340834 L5.26859113,13.4340834 L6.64207418,15.8048416 L8.00066045,18.1462664 C8.4880254,19.0535983 9.44785853,19.6096927 10.481695,19.6096927 L10.481695,19.6096927 L16.0934559,19.6096927 C17.0385845,19.6096927 17.9247026,19.1414077 18.4415728,18.3658851 L18.4415728,18.3658851 L27.8191434,2.32686297 C28.6017529,0.892674774 30.1081537,9.52379445e-06 31.747376,9.52379445e-06 L31.747376,9.52379445e-06 L40.6080765,9.52379445e-06 C42.2472988,9.52379445e-06 43.7536996,0.892674774 44.5216045,2.32686297 L44.5216045,2.32686297 L48.8337897,9.73170836 C49.6607051,11.1073252 49.6756019,12.8048463 48.8780956,14.1951298 L48.8780956,14.1951298 L44.4920032,21.7170227 C43.7093937,23.1218776 42.2324982,23.9999714 40.6080765,23.9999714 L40.6080765,23.9999714 L31.747376,23.9999714 C30.1228582,23.9999714 28.6166497,23.1073062 27.8486486,21.6877846 L27.8486486,21.6877846 L26.2133667,18.8851224 C26.1103386,18.7086465 26.1101464,18.491123 26.2125978,18.3143614 L26.2125978,18.3143614 L28.3513909,14.6268434 C28.4622998,14.4355104 28.7409177,14.4357961 28.8515383,14.6272244 L28.8515383,14.6272244 L29.5321769,15.8048416 L30.8908593,18.1462664 C31.3781281,19.0535983 32.3380574,19.6096927 33.3717977,19.6096927 L33.3717977,19.6096927 L38.9836548,19.6096927 C40.0025945,19.6096927 40.947723,19.0535983 41.435088,18.1755997 L41.435088,18.1755997 L44.2113671,13.4048454 C44.7135327,12.5267515 44.6988282,11.4438961 44.181958,10.5804689 L44.181958,10.5804689 L41.4498887,5.88285733 C40.9625237,4.97562067 40.0025945,4.40485967 38.968758,4.40485967 L38.968758,4.40485967 L33.3570932,4.40485967 C32.3233528,4.40485967 31.3781281,4.97562067 30.8760586,5.86828592 C29.8395811,7.65480753 29.1859294,8.78048041 28.4371444,10.0638931 L28.2750602,10.3416228 C27.0458948,12.4471783 25.4828286,15.1111855 21.6018044,21.7316893 C20.8191949,23.1218776 19.3275948,23.9999714 17.7178776,23.9999714 L17.7178776,23.9999714 L8.8571772,23.9999714 C7.2327555,23.9999714 5.72645085,23.1073062 4.95844979,21.6877846 L4.95844979,21.6877846 L0.631464005,14.2536059 C-0.195451407,12.8926557 -0.210252078,11.180468 0.587254209,9.8048511 L0.587254209,9.8048511 L4.94374523,2.31219633 C5.72645085,0.892674774 7.21795483,9.52379445e-06 8.8571772,9.52379445e-06 L8.8571772,9.52379445e-06 Z M63.4712016,11.1428585 C63.6931156,11.1428585 63.8317998,11.3809534 63.7207947,11.5714293 L63.7207947,11.5714293 L63.4712016,12 L78.8041202,12 C79.038336,12 79.2574628,12.0623809 79.4472766,12.1699997 C79.714842,12.321809 79.921763,12.5650467 80.0261366,12.8571415 C80.0739985,12.9913318 80.1015816,13.1352363 80.1015816,13.2857122 L80.1015816,13.2857122 L80.1015816,18.857132 L80.083321,18.857132 C79.8732284,21.59208 77.6714844,23.7736956 74.9117359,23.9818857 C74.768919,23.9927429 74.625045,23.999981 74.4795371,23.999981 L74.4795371,23.999981 L73.0480046,23.999981 C72.8258985,23.999981 72.6873104,23.7618861 72.7982193,23.5714102 L72.7982193,23.5714102 L73.8803021,21.7142703 C73.9831379,21.5374134 74.1737206,21.4285565 74.3795845,21.4285565 L74.3795845,21.4285565 L74.4795371,21.4285565 C76.1513401,21.4284612 77.5066587,20.0853205 77.5066587,18.4285612 L77.5066587,18.4285612 L77.5066587,14.5714245 L74.4122613,14.5714245 L69.0855575,23.7142671 C68.9824333,23.8910287 68.792139,23.999981 68.5860829,23.999981 L68.5860829,23.999981 L66.4221094,23.999981 C66.2000994,23.999981 66.0614151,23.7618861 66.1723241,23.5714102 L66.1723241,23.5714102 L71.4159904,14.5714245 L68.1841581,14.5714245 L62.8573582,23.7142671 C62.7543301,23.8910287 62.5639397,23.999981 62.3579797,23.999981 L62.3579797,23.999981 L60.1939102,23.999981 C59.9719001,23.999981 59.8332159,23.7618861 59.9441248,23.5714102 L59.9441248,23.5714102 L65.1877911,14.5714245 L61.97297,14.5714245 L61.6400511,15.1428585 C61.5371191,15.3196138 61.3466326,15.428566 61.1406726,15.428566 L61.1406726,15.428566 L58.976603,15.428566 C58.754593,15.428566 58.6159088,15.1904711 58.7269138,14.9999952 L58.7269138,14.9999952 L60.8077536,11.4285723 C60.9106855,11.2517155 61.101076,11.1428585 61.3071321,11.1428585 L61.3071321,11.1428585 Z M129.770769,11.999981 C129.992587,11.999981 130.131367,12.2380758 130.020362,12.4285517 L130.020362,12.4285517 L128.771916,14.5714054 L128.272537,15.4285469 L130.702539,15.4285469 C131.267271,15.4285469 131.746274,15.7866416 131.924651,16.2856884 C131.972609,16.4198787 132,16.5637832 132,16.7142592 L132,16.7142592 L132,18.8571129 L131.982028,18.8571129 C131.777317,21.5219658 129.681581,23.6621529 127.020824,23.9625334 C126.809674,23.9864381 126.595352,23.9999619 126.377667,23.9999619 L126.377667,23.9999619 L124.292118,23.9999619 C124.070108,23.9999619 123.931424,23.761867 124.042333,23.5713912 L124.042333,23.5713912 L125.124416,21.7142512 C125.227347,21.5374896 125.417834,21.4285374 125.623794,21.4285374 L125.623794,21.4285374 L126.377667,21.4285374 C128.049566,21.4285374 129.404981,20.0854919 129.405077,18.4287327 L129.405077,18.4287327 L129.405077,17.999981 L124.277317,17.999981 C124.055403,17.999981 123.916719,17.7618766 124.027628,17.5714007 L124.027628,17.5714007 L125.276074,15.4285469 L125.775357,14.5714054 L119.345907,14.5714054 L114.019011,23.7142481 C113.916079,23.8910097 113.725592,23.9999619 113.519632,23.9999619 L113.519632,23.9999619 L111.355563,23.9999619 C111.133649,23.9999619 110.994868,23.761867 111.10597,23.5713912 L111.10597,23.5713912 L116.34954,14.5714054 L111.971617,14.5714054 C111.749895,14.5714054 111.611018,14.3333106 111.72212,14.1428347 L111.72212,14.1428347 L112.804202,12.2856948 C112.907134,12.1089332 113.097429,11.999981 113.303485,11.999981 L113.303485,11.999981 Z M96.8243792,5.99999048 C97.1427859,5.99999048 97.4010288,6.25589483 97.4010288,6.57141814 L97.4010288,6.57141814 L97.4010288,11.9999905 L105.185797,11.9999905 C105.185797,13.4201692 104.024041,14.5714054 102.590874,14.5714054 L102.590874,14.5714054 L97.4010288,14.5714054 L97.4010288,20.9523477 L106.915746,20.9523477 C106.915746,22.3725359 105.753989,23.5237722 104.320823,23.5237722 L104.320823,23.5237722 L84.925793,23.5237722 C84.7038791,23.5237722 84.5650987,23.2856773 84.6761999,23.0952014 L84.6761999,23.0952014 L85.7580905,21.2380615 C85.8612147,21.0612999 86.051509,20.9523477 86.2575651,20.9523477 L86.2575651,20.9523477 L87.8863117,20.9523477 L87.8863117,10.8571256 C87.8863117,10.5416023 88.1445545,10.285698 88.4629612,10.285698 L88.4629612,10.285698 L89.904585,10.285698 C90.2229916,10.285698 90.4812345,10.5416023 90.4812345,10.8571256 L90.4812345,10.8571256 L90.4812345,20.9523477 L94.8061059,20.9523477 L94.8061059,6.57141814 C94.8061059,6.25589483 95.0643488,5.99999048 95.3827554,5.99999048 L95.3827554,5.99999048 Z M14.1588448,9.80486063 C14.4541855,9.80486063 14.7348216,9.96581275 14.8676432,10.2292409 L14.8676432,10.2292409 L15.6504449,11.5901911 C15.7242561,11.7073338 15.768562,11.8536193 15.768562,12 C15.768562,12.1462855 15.7242561,12.2780948 15.6651495,12.4098089 L15.6651495,12.4098089 L14.8676432,13.7853305 C14.7200209,14.0487587 14.4541855,14.1951394 14.1588448,14.1951394 L14.1588448,14.1951394 L12.5491277,14.1951394 C12.253787,14.1951394 11.9732471,14.034092 11.8402332,13.7707591 L11.8402332,13.7707591 L11.042823,12.4098089 C10.9690119,12.2926662 10.924706,12.1462855 10.924706,12 C10.924706,11.8682859 10.9690119,11.7219052 11.0280224,11.6048578 L11.0280224,11.6048578 L11.8255287,10.2292409 C11.9584464,9.96581275 12.2389864,9.80486063 12.5344231,9.80486063 L12.5344231,9.80486063 Z M130.270051,-1.59872116e-14 C130.270051,1.42018822 129.108295,2.57142449 127.675129,2.57142449 L127.675129,2.57142449 L122.91777,2.57142449 L122.91777,4.28570748 L132,4.28570748 C132,5.7058957 130.838243,6.85713197 129.405077,6.85713197 L129.405077,6.85713197 L128.749042,6.85713197 L130.885336,10.5237928 C130.996342,10.7142687 130.857561,10.9523636 130.635647,10.9523636 L130.635647,10.9523636 L128.471578,10.9523636 C128.265618,10.9523636 128.075227,10.8434114 127.972199,10.6666497 L127.972199,10.6666497 L125.752675,6.85713197 L122.91777,6.85713197 L122.91777,10.3809359 C122.91777,10.6964592 122.659527,10.9523636 122.341121,10.9523636 L122.341121,10.9523636 L120.899497,10.9523636 C120.58109,10.9523636 120.322847,10.6964592 120.322847,10.3809359 L120.322847,10.3809359 L120.322847,6.85713197 L117.487942,6.85713197 L115.268418,10.6666497 C115.165486,10.8434114 114.975,10.9523636 114.76904,10.9523636 L114.76904,10.9523636 L112.60497,10.9523636 C112.383056,10.9523636 112.244276,10.7142687 112.355377,10.5237928 L112.355377,10.5237928 L114.491575,6.85713197 L111.817267,6.85713197 C111.49886,6.85713197 111.240617,6.60122762 111.240617,6.28570431 L111.240617,6.28570431 L111.240617,4.85713515 C111.240617,4.54161184 111.49886,4.28570748 111.817267,4.28570748 L111.817267,4.28570748 L120.322847,4.28570748 L120.322847,2.57142449 L113.547215,2.57142449 C113.228809,2.57142449 112.970566,2.31552013 112.970566,2 L112.970566,2 L112.970566,0.571427664 C112.970566,0.255904356 113.228809,-1.59872116e-14 113.547215,-1.59872116e-14 L113.547215,-1.59872116e-14 Z M77.9391074,3.19744231e-14 C78.0909585,3.19744231e-14 78.236178,0.027238052 78.3715946,0.0747617861 C78.7396892,0.203904438 79.030705,0.492284933 79.16122,0.857141497 C79.209178,0.99133176 79.2365688,1.13514106 79.2365688,1.28571224 L79.2365688,1.28571224 L79.2365688,8.99998571 C79.2365688,9.15046167 79.209178,9.29427096 79.16122,9.42855646 C79.030705,9.79331779 78.7396892,10.0817935 78.3715946,10.2109362 C78.236178,10.2584599 78.0909585,10.285698 77.9391074,10.285698 L77.9391074,10.285698 L61.5045961,10.285698 C61.352745,10.285698 61.2076216,10.2584599 61.0721089,10.2109362 C60.7040143,10.0817935 60.4129985,9.79331779 60.2825796,9.42855646 C60.2346216,9.29427096 60.2071347,9.15046167 60.2071347,8.99998571 L60.2071347,8.99998571 L60.2071347,1.28571224 C60.2071347,1.13514106 60.2346216,0.99133176 60.2825796,0.857141497 C60.4129985,0.492284933 60.7040143,0.203904438 61.0721089,0.0747617861 C61.2076216,0.027238052 61.352745,3.19744231e-14 61.5045961,3.19744231e-14 L61.5045961,3.19744231e-14 Z M100.423604,6.21724894e-14 C101.350761,6.21724894e-14 102.207374,0.49009446 102.670904,1.28571224 L102.670904,1.28571224 L106.666124,8.14284422 C106.777033,8.33332011 106.638349,8.57141497 106.416339,8.57141497 L106.416339,8.57141497 L104.252173,8.57141497 C104.046309,8.57141497 103.855919,8.46246276 103.75289,8.28570113 L103.75289,8.28570113 L100.923079,3.42856599 C100.613995,2.89818588 100.04292,2.57142449 99.4248475,2.57142449 L99.4248475,2.57142449 L92.921202,2.57142449 C92.6992881,2.57142449 92.5606038,2.33332963 92.6715128,2.14285374 L92.6715128,2.14285374 L93.7535956,0.285713832 C93.8565275,0.108952208 94.046918,6.21724894e-14 94.2527819,6.21724894e-14 L94.2527819,6.21724894e-14 Z M91.9173129,6.21724894e-14 C92.1393229,6.21724894e-14 92.2780071,0.23809486 92.1670982,0.428570748 L92.1670982,0.428570748 L87.5892699,8.28570113 C87.4863379,8.46246276 87.2958514,8.57141497 87.0898914,8.57141497 L87.0898914,8.57141497 L84.9258219,8.57141497 C84.7037157,8.57141497 84.5651276,8.33332011 84.6761326,8.14284422 L84.6761326,8.14284422 L89.2538648,0.285713832 C89.3568929,0.108952208 89.5472833,6.21724894e-14 89.7532433,6.21724894e-14 L89.7532433,6.21724894e-14 Z M76.641646,2.57142449 L62.8020575,2.57142449 L62.8020575,3.85713673 L74.9116974,3.85713673 C74.9116974,5.27732496 73.7499409,6.42856122 72.3167746,6.42856122 L72.3167746,6.42856122 L62.8020575,6.42856122 L62.8020575,7.71427347 L76.641646,7.71427347 L76.641646,2.57142449 Z" id="logo" fill="#1261FF"></path>
            </g>
        </g>
    </g>
</svg>