<?xml version="1.0" encoding="UTF-8"?>
<svg width="384px" height="82px" viewBox="0 0 384 82" version="1.1" xmlns="http://www.w3.org/2000/svg" xmlns:xlink="http://www.w3.org/1999/xlink">
    <title>编组</title>
    <g id="页面-4" stroke="none" stroke-width="1" fill="none" fill-rule="evenodd">
        <g id="易参LOGO和基础识别-211027(1)" transform="translate(-229.000000, -257.000000)">
            <g id="编组" transform="translate(229.904000, 257.591500)">
                <polygon id="Fill-40" fill="#000000" points="113.571 56.0105 120.213 56.0105 120.213 23.0225 113.571 23.0225"></polygon>
                <polygon id="Fill-41" fill="#000000" points="156.1939 23.0221 156.1939 56.0111 149.4209 56.0111 132.5739 33.0511 132.5739 56.0111 125.9329 56.0111 125.9329 23.0221 132.7059 23.0221 149.5949 45.9391 149.5949 23.0221"></polygon>
                <path d="M160.8584,50.337 L165.4314,45.807 C167.3244,48.711 170.4034,50.294 174.0974,50.294 C177.0884,50.294 179.3314,49.282 179.3764,46.73 C179.3764,43.65 175.7264,42.288 171.8544,40.792 C167.3694,39.032 162.6164,37.008 162.6164,31.688 C162.6164,26.144 167.4124,22.583 173.7464,22.583 C178.9364,22.583 183.1584,24.517 185.8424,27.377 L181.5314,31.555 C179.5074,29.268 177.1784,28.125 173.9214,28.125 C171.2824,28.125 169.4364,29.4 169.4364,31.423 C169.4364,33.667 172.2944,34.81 175.6374,36.129 C180.3864,38.021 186.1074,40.266 186.1074,46.643 C186.1074,53.328 180.6084,56.451 173.8784,56.451 C168.5554,56.451 163.6304,53.988 160.8584,50.337" id="Fill-42" fill="#000000"></path>
                <path d="M187.1182,50.337 L191.6912,45.807 C193.5842,48.711 196.6632,50.294 200.3572,50.294 C203.3482,50.294 205.5912,49.282 205.6362,46.73 C205.6362,43.65 201.9862,42.288 198.1142,40.792 C193.6292,39.032 188.8782,37.008 188.8782,31.688 C188.8782,26.144 193.6722,22.583 200.0062,22.583 C205.1962,22.583 209.4162,24.517 212.1022,27.377 L207.7912,31.555 C205.7672,29.268 203.4382,28.125 200.1822,28.125 C197.5422,28.125 195.6962,29.4 195.6962,31.423 C195.6962,33.667 198.5542,34.81 201.8972,36.129 C206.6482,38.021 212.3672,40.266 212.3672,46.643 C212.3672,53.328 206.8682,56.451 200.1382,56.451 C194.8152,56.451 189.8902,53.988 187.1182,50.337" id="Fill-44" fill="#000000"></path>
                <polygon id="Fill-46" fill="#000000" points="223.7149 28.7848 223.7149 36.6128 240.5469 36.6128 240.5469 42.4188 223.7149 42.4188 223.7149 50.2038 240.5469 50.2038 240.5469 56.0108 217.0709 56.0108 217.0709 23.0218 240.5469 23.0218 240.5469 28.7848"></polygon>
                <polygon id="Fill-48" fill="#000000" points="275.4712 23.0221 275.4712 56.0111 268.6982 56.0111 251.8492 33.0511 251.8492 56.0111 245.2092 56.0111 245.2092 23.0221 251.9832 23.0221 268.8722 45.9391 268.8722 23.0221"></polygon>
                <polygon id="Fill-50" fill="#000000" points="303.6235 28.7848 295.1785 28.7848 295.1785 56.0108 288.6245 56.0108 288.6245 28.7848 280.1355 28.7848 280.1355 23.0218 303.6235 23.0218"></polygon>
                <path d="M381.7427,43.6256 L374.8367,37.7856 L381.1257,37.7856 L381.1257,34.6116 L360.2697,34.6116 C360.4967,33.6476 360.6307,33.4776 360.7067,32.8126 L360.8447,31.7836 L374.4067,31.7836 L376.6497,33.7286 L378.3807,31.0206 L370.2667,23.9796 L368.5387,26.6876 L370.7507,28.6066 L358.6157,28.6066 L365.3867,24.6146 L363.4997,21.7416 L351.5477,29.0096 L351.5477,31.7836 L357.2657,31.7836 C357.2657,31.7836 357.2007,32.6646 356.6417,34.6116 L349.0627,34.6116 L349.0627,37.7856 L355.4067,37.7856 C354.1517,40.2636 352.0577,42.8606 348.5737,44.6566 L348.5867,44.6806 L350.2157,47.2316 L350.4667,47.6256 C352.4777,46.5496 354.0987,45.2576 355.4037,43.8696 L356.7767,42.2126 L356.9087,44.2406 C364.3477,43.7526 371.4737,42.0866 371.7737,42.0156 L371.0017,38.7396 C370.9317,38.7546 364.5277,40.2526 357.7437,40.8016 C358.3677,39.7856 358.8687,38.7666 359.2637,37.7856 L369.9327,37.7876 L380.0157,46.3306 L380.0217,46.3336 L382.0817,43.9126 L381.7427,43.6256 Z" id="Fill-52" fill="#000000"></path>
                <path d="M375.0034,43.0421 C374.9094,43.0721 365.4544,46.0611 353.6404,46.5631 L353.7824,49.9271 C366.0724,49.4051 375.6314,46.3761 376.0324,46.2491 L375.0034,43.0421 Z" id="Fill-54" fill="#000000"></path>
                <path d="M352.477,51.9127 L352.511,55.2807 C367.088,55.1377 378.332,51.5617 378.803,51.4107 L377.771,48.2057 C377.66,48.2417 366.516,51.7757 352.477,51.9127" id="Fill-56" fill="#000000"></path>
                <path d="M320.708,33.3745 L338.758,33.3745 L338.758,31.1085 L320.708,31.1085 L320.708,33.3745 Z M320.708,28.1475 L338.758,28.1475 L338.758,25.9665 L320.708,25.9665 L320.708,28.1475 Z M323.789,39.6255 C323.94,39.3235 324.017,39.1225 324.047,39.0445 L320.708,37.8895 L320.708,36.4625 L338.755,36.4625 L338.755,37.9175 L342.389,37.9175 L342.389,23.1195 L317.074,23.1195 L317.074,37.9175 L320.687,37.9175 C320.541,38.2455 319.024,41.3715 312.829,45.5005 L315.647,47.8485 C318.297,45.9965 320.132,44.3175 321.397,42.9285 L325.88,42.9285 C324.272,44.8215 321.075,48.0175 315.136,52.1895 L317.941,54.5245 C326.572,48.3415 329.499,44.2255 330.279,42.9285 L334.014,42.9285 C332.331,45.5285 328.853,50.1125 323.202,54.1235 L325.998,56.4525 C333.337,51.0125 337.089,44.8385 338.135,42.9285 L340.513,42.9285 L340.513,48.0775 C340.513,50.8715 337.978,52.5435 333.731,52.5545 L335.948,56.0645 C342.433,55.2115 344.145,51.6545 344.145,48.0775 L344.145,39.6435 L323.789,39.6255 Z" id="Fill-58" fill="#000000"></path>
                <polygon id="Fill-60" fill="#3C56AD" points="0 7.6035 35.854 7.6035 35.854 0.7665 0 0.7665"></polygon>
                <polygon id="Fill-61" fill="#3C56AD" points="0 22.1225 35.854 22.1225 35.854 15.2865 0 15.2865"></polygon>
                <polygon id="Fill-62" fill="#3C56AD" points="43.576 65.6665 79.428 65.6665 79.428 58.8295 43.576 58.8295"></polygon>
                <polygon id="Fill-63" fill="#3C56AD" points="50.7798 19.172 60.8528 9.582 71.3328 19.172 81.7868 19.172 60.8368 0 40.7028 19.172"></polygon>
                <polygon id="Fill-64" fill="#3C56AD" points="60.836 17.4708 40.702 36.6428 50.779 36.6428 60.853 27.0518 71.333 36.6428 81.789 36.6428"></polygon>
                <polygon id="Fill-65" fill="#3C56AD" points="0 36.6415 35.854 36.6415 35.854 29.8045 0 29.8045"></polygon>
                <polygon id="Fill-66" fill="#3C56AD" points="43.576 51.2345 79.428 51.2345 79.428 44.3975 43.576 44.3975"></polygon>
                <polygon id="Fill-67" fill="#3C56AD" points="43.576 80.0965 79.428 80.0965 79.428 73.2595 43.576 73.2595"></polygon>
                <polygon id="Fill-68" fill="#3C56AD" points="30.6172 44.3966 0.0222 74.9916 0.0222 80.0966 4.5852 80.0966 35.8942 48.7896 35.8942 44.3966"></polygon>
                <polygon id="Fill-69" fill="#3C56AD" points="15.3604 80.0973 25.0314 80.0973 35.8954 69.2333 35.8954 59.5623"></polygon>
                <polygon id="Fill-70" fill="#3C56AD" points="9.9961 44.3966 0.0221 54.3706 0.0221 64.0396 19.6651 44.3966"></polygon>
            </g>
        </g>
    </g>
</svg>