<svg width="150" height="50" viewBox="0 0 150 50" fill="none" xmlns="http://www.w3.org/2000/svg">
<g clip-path="url(#clip0_150_9636)">
<mask id="mask0_150_9636" style="mask-type:alpha" maskUnits="userSpaceOnUse" x="0" y="0" width="46" height="46">
<path d="M40 0H6C2.68629 0 0 2.68629 0 6V40C0 43.3137 2.68629 46 6 46H40C43.3137 46 46 43.3137 46 40V6C46 2.68629 43.3137 0 40 0Z" fill="white"/>
</mask>
<g mask="url(#mask0_150_9636)">
<path d="M40.8945 1.89453H6.89453C3.58082 1.89453 0.894531 4.58082 0.894531 7.89453V41.8945C0.894531 45.2082 3.58082 47.8945 6.89453 47.8945H40.8945C44.2082 47.8945 46.8945 45.2082 46.8945 41.8945V7.89453C46.8945 4.58082 44.2082 1.89453 40.8945 1.89453Z" fill="url(#paint0_radial_150_9636)"/>
</g>
<path d="M36.164 30.8261C33.5835 36.3839 27.4859 39.4002 21.5024 38.0788C15.5189 36.7575 11.2586 31.4538 11.2586 25.3261C11.2586 19.1984 15.5189 13.8947 21.5024 12.5734C27.4859 11.252 33.5835 14.2683 36.164 19.8261H40.864C38.1658 11.712 29.9798 6.75348 21.5387 8.12018C13.0976 9.48687 6.89453 16.7751 6.89453 25.3261C6.89453 33.8771 13.0976 41.1653 21.5387 42.532C29.9798 43.8987 38.1658 38.9402 40.864 30.8261H36.164V30.8261Z" fill="white"/>
<path d="M41.7723 25.3162C41.7792 24.6781 41.7458 24.0402 41.6723 23.4062H37.2623H24.1523V27.2262H41.1523H41.6823C41.7544 26.5888 41.7912 25.9478 41.7923 25.3062" fill="white"/>
<path d="M85.3916 16.4914C85.1816 15.9114 82.2516 16.0714 82.2516 16.0714L67.8416 16.1714C67.8416 16.1714 66.0416 15.5714 69.4116 14.6014C71.6416 14.3514 83.2616 14.3114 83.2616 14.3114C83.2616 14.3114 84.8416 14.5914 84.1116 12.7414C84.0939 9.93216 84.2375 7.12421 84.5416 4.33141C84.5416 4.33141 85.1816 4.13141 84.6816 3.33141C84.1816 2.53141 81.6816 2.19141 81.6816 2.19141H60.8516C60.8516 2.19141 59.3916 2.71141 59.9916 4.65141C62.1316 7.87141 60.5616 12.9314 60.5616 12.9314C60.5616 12.9314 59.9416 15.0314 61.5616 14.9314C63.5616 14.7714 63.4216 15.5014 63.4216 15.5014C63.4216 15.5014 63.2216 16.9114 57.8516 18.0714C58.0216 18.2914 60.1416 21.6414 60.1416 21.6414C61.6583 20.776 63.2319 20.0143 64.8516 19.3614C67.6816 18.9314 65.1316 21.9314 65.1316 21.9314C63.4171 23.7425 61.324 25.1527 59.0016 26.0614C59.7916 26.9014 61.9316 29.3414 62.0016 29.3414C65.9116 27.3414 70.7416 19.9714 71.1416 19.6414C71.5416 19.3114 73.8816 18.3414 73.7116 19.7914C72.5636 23.1246 70.2899 25.9535 67.2816 27.7914C68.41 28.6437 69.6037 29.4061 70.8516 30.0714C74.5216 26.7114 75.1216 22.7214 76.7016 20.2214C78.2816 17.7214 81.3916 20.0614 81.3916 20.0614C82.2497 21.7666 81.9104 23.8306 80.5516 25.1714C79.3116 25.5714 77.5516 23.3114 77.5516 23.3114L75.8416 26.8814C75.8416 26.8814 84.8416 33.6214 84.6816 23.4514C84.5516 20.4514 86.4716 17.2714 85.4016 16.4514L85.3916 16.4914ZM63.5516 6.05141C63.8538 5.59525 64.339 5.29249 64.8816 5.22141C67.8274 4.69472 70.8288 4.55019 73.8116 4.79141C79.5816 5.08141 80.2916 5.27141 80.5316 5.47141C80.7716 5.67141 81.1816 5.97141 80.8816 6.37141C80.5816 6.77141 78.8216 6.66141 78.0916 6.67141C77.7116 6.67141 71.5316 7.04141 67.3216 6.92141C64.5216 6.83141 63.4416 6.57141 63.5516 6.05141ZM63.7916 10.6714C63.7916 10.6714 63.8516 9.79141 65.4316 9.37141C66.9029 9.13844 68.3922 9.03804 69.8816 9.07141H73.8816C75.5523 9.0386 77.2232 9.12549 78.8816 9.33141C80.6816 9.62141 80.7116 10.1614 80.7116 10.6014C80.7116 11.4114 79.0116 11.6014 78.2916 11.6014C77.9016 11.6014 71.6116 11.9014 67.3916 11.9014C65.5216 11.9014 64.0316 11.9914 63.7816 10.7014" fill="#4096D3"/>
<path d="M92.2806 22.2219C91.4406 24.7119 88.3906 27.6419 88.3906 27.6419L91.6706 29.9219C93.1414 27.9236 94.1336 25.6143 94.5706 23.1719C93.7904 22.8785 93.0261 22.5447 92.2806 22.1719" fill="#4096D3"/>
<path d="M99.8506 22.5C98.921 22.8725 98.0159 23.3034 97.1406 23.79C97.9406 24.48 99.8506 29.21 99.8506 29.21L102.701 27.92C101.959 26.0111 101.003 24.1927 99.8506 22.5Z" fill="#4096D3"/>
<path d="M106.13 22.6406C104.67 23.3306 103.92 23.7906 103.84 23.7906C104.601 25.5098 105.269 27.269 105.84 29.0606L109.12 27.9206C109.12 27.9206 107.65 23.6606 106.12 22.6406" fill="#4096D3"/>
<path d="M112.691 21.9297L110.391 23.3597C110.391 23.3597 113.861 28.6397 113.811 29.4897C114.884 29.2626 115.904 28.8278 116.811 28.2097C116.811 26.7797 112.671 21.9297 112.671 21.9297" fill="#4096D3"/>
<path d="M115.261 3.07812C115.261 3.07812 101.791 3.52812 100.701 3.36812C100.71 2.59686 100.804 1.82897 100.981 1.07812L96.9806 1.64812C96.9806 1.64812 97.9806 7.15813 96.8406 8.21813C95.7006 9.27813 91.2706 9.06812 91.2706 9.06812C91.2706 9.06812 89.8306 8.92813 90.9806 11.4981C91.6206 12.8381 91.5006 17.2881 91.2706 19.1981C91.0406 21.1081 91.9806 21.3381 91.9806 21.3381H112.391C112.391 21.3381 113.521 21.3381 113.391 19.9181C113.391 19.9981 113.211 13.8181 113.821 11.6381C114.751 9.12813 112.111 9.21813 112.111 9.21813L101.551 8.78813L100.551 6.35813C100.551 6.35813 114.451 6.35812 115.101 7.07812C115.243 5.74986 115.293 4.41332 115.251 3.07812H115.261ZM106.431 12.0781C107.301 12.0781 109.031 12.1681 109.751 13.0781C110.381 13.9439 110.559 15.0589 110.231 16.0781C109.941 17.3781 109.431 18.0781 106.661 18.3281C102.954 18.5939 99.2331 18.5705 95.5306 18.2581C94.3106 18.0281 94.3706 17.3181 94.2906 15.7981C94.0996 14.5985 94.579 13.3904 95.5406 12.6481C96.7242 12.2351 97.9806 12.0717 99.2306 12.1681C101.071 12.1681 105.831 12.0581 106.441 12.0481" fill="#4096D3"/>
<path d="M127.171 22.6198C126.621 23.7598 127.481 24.1598 128.271 24.1198L137.651 23.6798C138.039 23.6898 138.398 23.4745 138.571 23.1274C138.745 22.7803 138.702 22.3642 138.461 22.0598L136.821 18.4898L139.161 16.8598C139.581 17.4098 139.861 17.5598 140.481 18.4398C141.101 19.3198 141.891 20.2498 142.581 21.2298C143.271 22.2098 143.961 23.0398 144.631 24.0198C145.301 24.9998 145.901 25.5798 146.411 26.3798L142.471 29.0898L141.471 27.0298C141.301 26.7698 141.321 26.6198 141.001 26.6298L139.621 26.6898C138.621 26.7398 136.961 26.7798 135.751 26.8298L131.931 26.9998L128.061 27.1898C126.811 27.2498 126.441 27.3098 125.391 27.3598C124.341 27.4098 123.961 27.4598 123.301 27.4998C122.851 27.5551 122.399 27.4129 122.061 27.1098C121.732 26.8153 121.493 26.434 121.371 26.0098C121.267 25.5527 121.305 25.0745 121.481 24.6398C121.946 23.8052 122.478 23.0093 123.071 22.2598C123.661 21.5098 124.271 20.7998 124.881 20.0198C125.491 19.2398 126.431 18.3598 127.001 17.5798C127.321 17.1298 127.811 16.5798 128.261 16.0198C128.425 15.8261 128.461 15.5546 128.354 15.3247C128.246 15.0947 128.015 14.9483 127.761 14.9498H120.371C119.781 14.9498 119.261 14.7798 119.261 14.1798C119.34 13.6595 119.34 13.1302 119.261 12.6098C118.741 11.8198 119.651 11.7198 120.141 11.6998L146.741 10.8398C146.741 10.8398 147.091 14.5598 146.741 15.5498C145.041 14.6998 132.881 14.9398 132.881 14.9398C132.525 14.9403 132.192 15.1161 131.991 15.4098C131.561 16.0598 131.111 16.7198 130.651 17.4098C130.191 18.0998 129.521 19.0098 128.961 19.7798C128.305 20.6875 127.707 21.6361 127.171 22.6198V22.6198Z" fill="#4096D3"/>
<path d="M124.198 5.65031C124.313 5.13325 124.289 4.59501 124.128 4.09031C123.918 3.38031 124.468 3.26031 124.928 3.24031L140.448 2.57031C140.948 2.57031 141.868 2.57031 141.378 3.44031C141.192 4.09791 141.216 4.79734 141.448 5.44031C141.456 5.72847 141.349 6.00789 141.15 6.21637C140.951 6.42485 140.676 6.54508 140.388 6.55031H125.098C124.858 6.55584 124.626 6.46279 124.456 6.2928C124.286 6.1228 124.193 5.89066 124.198 5.65031V5.65031Z" fill="#4096D3"/>
<path d="M59.3906 44.8706C59.5106 43.2506 59.6206 41.5006 59.7006 39.6406C59.7806 37.7806 59.8206 36.1906 59.8106 34.8906H63.1306H66.5006C66.5006 35.0506 66.5006 35.3006 66.5006 35.6606C66.5006 36.0206 66.5006 36.3106 66.5006 36.4706C65.7906 36.4706 64.8706 36.4106 63.7606 36.4106C63.0806 36.4106 62.4606 36.4106 61.9106 36.4106L61.8106 39.0106H63.4106H65.8406C65.8406 39.4606 65.7806 40.0106 65.7406 40.5906H63.7406H61.7406L61.6306 43.3306H62.3906C63.9506 43.3306 65.2506 43.3306 66.2806 43.2306C66.2806 43.8306 66.2006 44.3606 66.1906 44.8306H59.3906V44.8706V44.8706Z" fill="#8B8B8B"/>
<path d="M74.3183 44.8681H72.5283L72.5883 43.5981C72.3573 43.94 72.0815 44.2495 71.7683 44.5181C71.2956 44.8719 70.7186 45.0584 70.1283 45.0481C69.292 45.0688 68.4936 44.6992 67.9683 44.0481C67.4206 43.3527 67.1434 42.4822 67.1883 41.5981C67.1846 40.7642 67.38 39.9414 67.7583 39.1981C68.4366 37.8632 69.8562 37.0723 71.3483 37.1981C71.8144 37.2035 72.2793 37.2469 72.7383 37.3281C72.7383 36.6481 72.7383 35.9681 72.7383 35.2681V34.8281H73.7383H74.7383C74.6283 36.1981 74.5383 37.9681 74.4483 40.1281C74.3583 42.2881 74.3183 43.7781 74.3183 44.8681ZM72.6583 38.7681C72.3319 38.6807 71.9961 38.6337 71.6583 38.6281C70.8839 38.5796 70.1355 38.9164 69.6583 39.5281C69.4554 39.8023 69.303 40.1105 69.2083 40.4381C69.0934 40.7865 69.036 41.1513 69.0383 41.5181C69.0165 42.0112 69.1531 42.4984 69.4283 42.9081C69.7093 43.3187 70.1811 43.5565 70.6783 43.5381C71.3355 43.5422 71.9293 43.1464 72.1783 42.5381C72.4341 41.947 72.5734 41.312 72.5883 40.6681C72.6383 39.9281 72.6583 39.2981 72.6583 38.7681V38.7681Z" fill="#8B8B8B"/>
<path d="M75.7109 44.8695C75.8909 43.0395 76.0009 40.5695 76.0409 37.4395H78.0409C77.8809 39.4395 77.8009 41.9295 77.7809 44.8695H75.7809H75.7109ZM76.0709 36.1695C76.0709 35.6295 76.0709 35.2595 76.0709 35.0495V34.7695H77.1209H78.0309C78.0309 34.9095 78.0309 35.1295 78.0309 35.4495C78.0309 35.7695 78.0309 36.0095 78.0309 36.1595H76.0709V36.1695Z" fill="#8B8B8B"/>
<path d="M79.5818 39.0714C79.6418 38.7414 79.7018 38.2814 79.7918 37.6814C80.7452 37.427 81.7254 37.286 82.7118 37.2614C83.4424 37.2136 84.1697 37.3954 84.7918 37.7814C85.2204 38.1306 85.4457 38.6712 85.3918 39.2214C85.3918 39.6114 85.3918 40.3014 85.2918 41.2714C85.1918 42.2414 85.1718 43.5914 85.1618 44.8714H83.2918C83.3518 44.1814 83.4218 43.0614 83.4918 41.5214V41.0114C83.2683 41.178 83.0226 41.3127 82.7618 41.4114L81.9618 41.6714C81.5852 41.7693 81.2272 41.928 80.9018 42.1414C80.6233 42.3297 80.458 42.6453 80.4618 42.9814C80.4516 43.2875 80.6087 43.5748 80.8718 43.7314C81.1028 43.8516 81.362 43.9069 81.6218 43.8914C81.9953 43.8833 82.3644 43.8088 82.7118 43.6714C82.6218 43.9714 82.5118 44.3814 82.3918 44.9214C81.9661 44.9996 81.5346 45.0431 81.1018 45.0514C80.4221 45.1079 79.7473 44.8962 79.2218 44.4614C78.8532 44.0831 78.6577 43.5691 78.6818 43.0414C78.6432 42.1857 79.1307 41.393 79.9118 41.0414C80.5767 40.7331 81.2745 40.5016 81.9918 40.3514C82.4281 40.2863 82.8447 40.1259 83.2118 39.8814C83.3806 39.7272 83.4783 39.5101 83.4818 39.2814C83.4912 38.9798 83.3116 38.7044 83.0318 38.5914C82.7886 38.4885 82.5257 38.4407 82.2618 38.4514C81.3368 38.4829 80.4267 38.6935 79.5818 39.0714V39.0714Z" fill="#8B8B8B"/>
<path d="M86.2695 44.869C86.4895 42.499 86.6195 40.019 86.6395 37.439H88.5595L88.4795 38.679C88.7104 38.2863 89.0202 37.9458 89.3895 37.679C89.9201 37.3721 90.5272 37.2229 91.1395 37.249C92.8395 37.249 93.6995 38.039 93.6995 39.609C93.6995 39.909 93.6995 40.399 93.6395 41.099C93.5595 42.849 93.5095 44.099 93.5095 44.859H91.5695C91.5695 44.229 91.6695 43.449 91.7095 42.499C91.7495 41.549 91.7795 40.909 91.7795 40.559C91.806 40.1548 91.7045 39.7524 91.4895 39.409C91.2221 39.0784 90.8145 38.8931 90.3895 38.909C89.8017 38.8921 89.2493 39.1892 88.9395 39.689C88.6927 40.0862 88.5388 40.534 88.4895 40.999C88.3501 42.2843 88.28 43.5762 88.2795 44.869H86.2795H86.2695V44.869Z" fill="#8B8B8B"/>
<path d="M109.438 44.8688C109.672 42.4955 109.795 40.0188 109.808 37.4388H111.728L111.658 38.6788C111.889 38.289 112.195 37.9491 112.558 37.6788C113.089 37.3729 113.696 37.2238 114.308 37.2488C116.018 37.2488 116.868 38.0388 116.868 39.6088C116.868 39.9088 116.868 40.3988 116.808 41.0988C116.728 42.8488 116.688 44.0988 116.678 44.8588H114.748C114.748 44.2288 114.838 43.4488 114.888 42.4988C114.938 41.5488 114.948 40.9088 114.948 40.5588C114.98 40.1541 114.878 39.7502 114.658 39.4088C114.383 39.0597 113.952 38.8689 113.508 38.8988C112.921 38.8839 112.37 39.1805 112.058 39.6788C111.812 40.0759 111.658 40.5238 111.608 40.9888C111.508 41.6288 111.448 42.9188 111.398 44.8588H109.398L109.438 44.8688V44.8688Z" fill="#8B8B8B"/>
<path d="M108.462 44.8705H106.662V43.6605C106.468 44.0545 106.183 44.3971 105.832 44.6605C105.315 44.9642 104.721 45.1134 104.122 45.0905C103.451 45.1278 102.789 44.9179 102.262 44.5005C101.788 44.0476 101.545 43.4037 101.602 42.7505C101.602 42.5305 101.602 42.0805 101.662 41.4105C101.775 39.5305 101.825 38.2205 101.812 37.4805H103.742C103.572 39.8005 103.482 41.2605 103.482 41.8505C103.482 42.9105 103.952 43.4405 104.902 43.4405C105.467 43.4623 106.001 43.1801 106.302 42.7005C106.524 42.3284 106.66 41.9117 106.702 41.4805C106.792 40.8805 106.852 39.5405 106.892 37.4805H108.802C108.602 40.1705 108.482 42.6205 108.462 44.8705V44.8705Z" fill="#8B8B8B"/>
<path d="M118.44 44.8702C118.44 44.4002 118.44 43.8702 118.5 43.2602V42.9102H120.39C120.39 43.3102 120.39 43.8302 120.31 44.4702V44.8702H118.43H118.44V44.8702Z" fill="#8B8B8B"/>
<path d="M127.039 43.1686C127.039 43.3586 126.979 43.6286 126.919 43.9986C126.919 44.2086 126.839 44.4786 126.799 44.7986C126.18 44.951 125.546 45.0315 124.909 45.0386C124.011 45.0922 123.13 44.7781 122.469 44.1686C121.764 43.4007 121.403 42.3787 121.469 41.3386C121.416 40.2588 121.749 39.1956 122.409 38.3386C122.707 37.9804 123.093 37.7049 123.529 37.5386C124.045 37.3535 124.59 37.2654 125.139 37.2786C125.815 37.2886 126.487 37.3861 127.139 37.5686C127.139 37.7186 127.139 37.9786 127.139 38.3586V38.8686V39.1586C126.584 38.9378 125.995 38.8127 125.399 38.7886C124.801 38.7583 124.223 39.01 123.839 39.4686C123.442 40.0006 123.247 40.6563 123.289 41.3186C123.23 41.9447 123.433 42.5671 123.849 43.0386C124.224 43.3968 124.73 43.5849 125.249 43.5586C125.865 43.546 126.473 43.4136 127.039 43.1686V43.1686Z" fill="#8B8B8B"/>
<path d="M131.772 37.2602C132.312 37.257 132.846 37.366 133.342 37.5802C133.81 37.777 134.224 38.082 134.552 38.4702C135.108 39.1855 135.391 40.0751 135.352 40.9802C135.353 41.556 135.255 42.1277 135.062 42.6702C134.881 43.1702 134.602 43.6291 134.242 44.0202C133.501 44.723 132.501 45.0853 131.482 45.0202C130.929 45.0277 130.382 44.9222 129.872 44.7102C129.402 44.5207 128.987 44.2185 128.662 43.8302C128.076 43.0932 127.775 42.1707 127.812 41.2302C127.805 40.6243 127.917 40.023 128.142 39.4602C128.356 38.9634 128.681 38.5222 129.092 38.1702C129.844 37.5504 130.797 37.2268 131.772 37.2602V37.2602ZM131.642 38.7702C131.024 38.7493 130.446 39.0729 130.142 39.6102C129.84 40.1353 129.695 40.7353 129.722 41.3402C129.686 41.9245 129.852 42.5033 130.192 42.9802C130.512 43.3794 131 43.6052 131.512 43.5902C132.199 43.6161 132.834 43.2198 133.112 42.5902C133.347 42.0728 133.46 41.5082 133.442 40.9402C133.482 40.3661 133.319 39.7962 132.982 39.3302C132.646 38.9464 132.151 38.7397 131.642 38.7702Z" fill="#8B8B8B"/>
<path d="M136.102 44.8702C136.172 43.9302 136.232 42.6202 136.302 40.9502C136.362 39.4802 136.402 38.3002 136.402 37.4402H138.222L138.162 38.6102C138.376 38.2467 138.657 37.9276 138.992 37.6702C139.431 37.3928 139.942 37.2503 140.462 37.2602C141.074 37.2116 141.675 37.4477 142.092 37.9002C142.261 38.1132 142.392 38.3533 142.482 38.6102C142.665 38.2634 142.921 37.9599 143.232 37.7202C143.687 37.4007 144.235 37.2391 144.792 37.2602C145.421 37.218 146.041 37.4389 146.502 37.8702C146.845 38.2415 147.025 38.735 147.002 39.2402C147.002 39.5102 147.002 39.9002 146.942 40.4002C146.822 42.3602 146.762 43.8502 146.762 44.8702H144.852C145.012 42.6302 145.082 41.0502 145.082 40.1402C145.082 39.2302 144.732 38.8702 144.032 38.8702C143.332 38.8702 142.972 39.2502 142.712 40.0002C142.572 40.5631 142.499 41.1403 142.492 41.7202C142.492 42.0502 142.492 42.8802 142.412 44.2102V44.8702H140.492C140.492 44.2002 140.592 43.3502 140.642 42.3402C140.692 41.3302 140.712 40.6202 140.712 40.2202C140.742 39.8697 140.657 39.5189 140.472 39.2202C140.292 38.9643 139.994 38.8174 139.682 38.8302C139.249 38.8345 138.85 39.0662 138.632 39.4402C138.429 39.7698 138.297 40.1374 138.242 40.5202C138.084 41.9546 138.014 43.3972 138.032 44.8402H136.112L136.102 44.8702V44.8702Z" fill="#8B8B8B"/>
<path d="M97.6195 41.4414L99.0495 37.4414H101.28L97.6195 47.6314H95.3895L96.4995 44.7414L94.0195 37.4414H96.2795L97.6195 41.4414Z" fill="#8B8B8B"/>
</g>
<defs>
<radialGradient id="paint0_radial_150_9636" cx="0" cy="0" r="1" gradientUnits="userSpaceOnUse" gradientTransform="translate(23.8945 24.8945) scale(46)">
<stop stop-color="#53C1EF"/>
<stop offset="1" stop-color="#0080CB"/>
</radialGradient>
<clipPath id="clip0_150_9636">
<rect width="150" height="50" fill="white"/>
</clipPath>
</defs>
</svg>
