<svg version="1.1" id="图层_1" xmlns="http://www.w3.org/2000/svg" x="0" y="0" viewBox="0 0 270 130" xml:space="preserve"><style>.st1{fill:#0097e0}</style><path d="M5 19.9C21.3-.4 69.5-5.6 66.3 27.5c-2.6 27.8-40.6 41.2-48.6 27.3C4.6 32.1 88.3-3 79.8 60.2H69.3C86.8 7.1 19 26 23.4 47c2.8 13.3 41.8 7.5 41.4-20.7-.3-24.9-32.4-20.8-46.2-6.4H5z" fill="#ff9100"/><path class="st1" d="M99.3 60.3h-8.1l3-13.4c.2-1.1 1.9-6.7.3-8-2.3-1.8-9.9-2.3-13.6.6l.6-3c1.9-1.2 6.4-3.9 14.1-3.9 3.1 0 5.3.8 6.7 2.5 1.4 1.7 1.7 4.2.9 7.6l-3.9 17.6zm14.9-8.2c1.3-5.6 11.7-4.9 13-5l-1.8 7.8c-.9.5-12.1.7-11.2-2.8m10 8.2h8l4.1-18.4c.7-3.2.1-5.6-1.9-7.1s-5.5-2.5-10.7-2.2c-6.5.4-11.1 3.7-12.2 3.9l-.7 3.2s4.4-3.5 13.1-2.7c6.1.5 4.6 3.8 4.2 5.3v.1c-4 .2-20.4-.9-22.8 9.9-1.3 5.7 4.7 7.9 7.3 7.9 4.9 0 11.5-2.7 12-3l-.4 3.1zm21.8 0h-7.7l8.3-36.9h7.7zm57.3-23.9c2.8.6 5.1 2.2 5.1 2.2l.7-2.9s-4.6-3-11.1-3c-5.5 0-9.4 1.5-10.9 4.7-1.9 4.2 1.3 8.1 5.5 9.1 4.6 1.1 6.7 2.9 6.3 5.1-.4 2.3-6 4.1-8.8 4.1s-9.7-.2-14.4-8.5l-2 2.6s5.8 9.9 16.6 10.3c6.8.3 11.6-1 14.7-5 3.1-4.1 2-8 .3-9.4-4.4-4-12.6-1.5-11.8-6.5.5-2.2 5.4-3.8 9.8-2.8M222.2 51L234 32.8h8.6l-25 37.9h-8.7l9.5-14.1-7.6-23.8h5.5z"/><path class="st1" d="M259.2 36.4c2.8.6 5.1 2.2 5.1 2.2l.7-2.9s-4.7-3-11.1-3c-5.5 0-9.4 1.5-10.9 4.7-1.9 4.2 1.3 8.1 5.5 9.1 4.6 1.1 6.7 2.9 6.3 5.1-.4 2.3-6 4.1-8.8 4.1s-9.7-.2-14.4-8.5l-2 2.6s5.8 9.9 16.6 10.3c6.8.3 11.6-1 14.7-5 3.1-4.1 2-8 .3-9.4-4.4-4-12.6-1.5-11.8-6.5.5-2.2 5.4-3.8 9.8-2.8M166.3 51l11.8-18.2h8.6l-25.2 37.9h-8.7l9.7-14.1-7.6-23.8h5.5zm-80.9 74.8c-.1-1.7-.4-3.6-1-5.7 4.8.2 7.4-1.4 7.8-4.7l1-7.2h-2.6c-2.3 4.5-5.7 8.3-10.3 11.4-4.6 3.1-9.4 5.2-14.5 6.6-1-1.2-2.1-2.6-3.3-4.2 4.3-.9 8.5-2.5 12.6-4.8s7.3-5.3 9.5-8.9h-4.3c-2.4 3.1-5.4 5.6-9 7.7-3.6 2-7.2 3.6-10.7 4.6-.8-1.1-1.8-2.5-3-4.3 6-1 11.3-3.6 16-8h-4.2c-3.6 2.1-7 3.6-10.3 4.7-.8-1.2-1.8-2.6-2.9-4.1 5.2-1.5 10.2-4.1 14.7-7.7h-1.4c-1.3 0-2.9.1-4.6.3.4-1.7.7-3.1.9-4.2l1.6-11c.2-1.2.3-2.6.3-4.3 1.8.2 3.3.3 4.5.3H93c1.3 0 2.8-.1 4.6-.3-.4 1.8-.7 3.2-.9 4.3l-1.5 11c-.2 1.1-.3 2.5-.3 4.2-1.8-.2-3.3-.3-4.5-.3H78.2c-1 1-1.9 1.9-2.9 2.5h18.8c1.5 0 3.3-.1 5.4-.3-.5 2.1-.8 3.6-.9 4.7l-1 7.1c-.4 3.4-1.6 5.9-3.5 7.7-1.8 1.6-4.8 2.6-8.7 2.9M71.2 96.5h18.7l.4-2.5H71.6l-.4 2.5zm1-7.2h18.7l.4-2.5H72.6l-.4 2.5zm37.3 1.4l.8-5.4c1.8.1 3.3.1 4.6.2h10.9c.6.5 1.1 1 1.6 1.6-1.1 6.6-3.2 12.7-6.2 18.3 1.4 2.2 2.7 4.6 4 7.2l-4.6 4c-.9-1.9-1.9-3.8-2.8-5.7-2.4 3.7-5.7 6.8-9.8 9.4-.6-1.7-1.4-3.4-2.5-5.3 4.1-2.3 7.3-5.3 9.7-9-1.9-3.1-3.8-6.5-5.9-10.1l5.1-2.6c1.4 2.2 2.7 4.6 4 7 1.2-3.4 2.1-6.7 2.8-9.9h-7.1c-1.3.2-2.9.3-4.6.3m9.3 35.6c-.5-1.6-1.3-3.3-2.3-5.3 6.4-1.6 11.2-4.6 14.3-9.1s5.1-10.1 5.9-16.9l.6-4.4c2 .3 3.9.7 5.5 1-.6 5.8-1.9 10.9-3.9 15.5h3.5c-.4 1.4-.7 2.5-.8 3.2l-1.3 9.2c-.1.6.2 1 .9 1.1h1.4c1-.1 1.7-.7 2-1.8.3-1.1.5-2.3.6-3.5 2.2 1.1 3.9 1.8 5.1 2.1-.5 2-1.1 4-2 5.8s-2.5 2.8-5 2.9h-4.8c-1.3 0-2.3-.1-3.2-.4s-1.2-1.1-1.1-2.2l1.4-10.1c-2.9 6.1-8.7 10.5-16.8 12.9m6.6-16.7c.5-2.4.8-4 1-4.9l2.3-16.7c.1-.9.3-2.5.4-4.8 2.8.2 4.5.3 5.3.3h13.3c.5 0 1 0 1.7-.1.6 0 1.7-.1 3.2-.2-.5 2.1-.8 3.7-.9 4.8l-2.3 16.4c-.1.9-.3 2.5-.4 4.8h-5.9c.5-2.3.8-4 .9-4.8l2.2-15.9H134l-2.3 16.2c-.1.9-.3 2.5-.4 4.9h-5.9zm63 6.6c.3-1.5 1.6-10 1.6-10h-9c-3.5 16.1-16 20-16 20s-1.5-2.6-3.2-4.6c2.3-1 4.3-2.1 5.9-3.2 1.8-1.3 3.2-2.6 4.1-3.7 1.1-1.4 1.9-2.9 2.6-4.3.6-1.3 1-2.4 1.3-4.1h-6.4l.5-4.4c-.3.3-.6.7-1 1-1.5 1.5-2.9 2.9-4.3 4.1l-4-4.1c2.6-1.7 5-3.6 7-5.7s3.8-4.2 5.2-6.3c1-1.4 1.8-2.8 2.5-4s1.3-2.5 1.9-3.7l.2-.5s4.8 1.9 5 1.9c-5.1 10.6-10.7 15.3-11.5 16.2.7.1 1.8.2 3.2.2 1.6.1 3.7.1 6.3.1h14.9c-1.5-1.6-2.9-3.2-3.9-4.8-1-1.5-1.8-3.3-2.5-5.6-.7-2.2-1.3-4.6-1.7-7l-.1-.5 5.1-1 .1.5c.4 2.3.9 4.4 1.5 6.2.6 1.8 1.3 3.2 2.2 4.3 1.5 1.8 2.9 3.2 4.4 4.3 1.5 1 3.1 1.9 4.9 2.7l-4.5 5.5c-1.5-1.1-2.9-2.3-4.2-3.5l-2.1 12s-.5 5-2 6.8c-1.4 1.8-2.4 4.3-10.5 5.1-.1-.7-.3-3.1-1-5.7 6.4.1 7.2-2.9 7.5-4.2zm68.5-20c-.8.1-1.5.2-2.1.2-.6.1-1.2.1-1.9.1s-1.5.1-2.3.1h-11.3l.7-6.9c.7-.1 16.5-1.3 16.8-1.8-1.1-1.7-2.5-5.8-2.5-5.8l-.5.2c-1 .4-2.3.8-3.9 1.2-1.6.4-3.3.7-5 1s-3.4.5-5.1.7c-1.7.1-3.1.2-4.2.1h-.5v2.4c0 .6-.1 1.3-.1 2.2-.1.9-.2 2.1-.3 3.5s-.4 3.2-.6 5.6c-.4 3.5-.8 6.5-1.3 8.8s-1.1 4.4-1.7 6.1c-.7 1.7-1.5 3.2-2.6 4.4-1 1.3-2.3 2.6-3.9 3.9l-.5.4.5.4c.7.5 1.4 1 2.1 1.4.6.5 1.2.9 1.8 1.3l.4.3.3-.4c1.5-1.7 2.7-3.5 3.8-5.2s2-3.6 2.8-5.5 1.4-4.1 1.9-6.4c.5-2.2.9-4.1 1.2-6.8h6l-1.7 15.9c-.1 1.4-.3 2.7-.5 3.9-.2 1.1-.4 2.4-.7 3.6l-.1.6h5.9v-.5c0-1.3 0-2.5.1-3.6s.2-2.4.3-3.9l1.7-16c.6 0 7.1-.1 7.1-.1l.6-5.5-.7.1z"/><path class="st1" d="M226.5 106.3c.4 1.5.6 2.9.8 4.2l.1.7 4.6-2-.1-.4c-.3-1.1-.7-2.4-1-3.7-.3-1.3-.7-2.8-1.1-4.4l-.1-.5-4.2 1.5.5-4.8c1.2 0 2.4.1 3.3.1 1.1.1 2.1.1 2.9.2l.5.1.6-5.6-.6.1c-.9.1-1.8.2-2.9.3-1 0-2.1.1-3.3.1 0 0 .8-7.3 1.1-9.9-.6.1-5.2-.3-5.2-.3s0 2.6-.1 4.2c-.1 1.5-.3 3.5-.5 6-1.4 0-2.7-.1-3.9-.1s-2.3-.1-3.2-.3l-.5-.1-.6 5.6.6-.1c.9-.1 2-.2 3.3-.2 1-.1 2.2-.1 3.5-.1-.7 1.7-1.4 3.2-2.1 4.6-.8 1.5-1.6 2.9-2.4 4.2-.8 1.3-1.7 2.4-2.6 3.5-.9 1-1.9 2.1-3 3l-.4.3.3.4c.5.5.9 1.1 1.3 1.7.4.6.8 1.3 1.1 2l.3.6.5-.5c.9-.9 5.8-8 6-8.3l-.9 8.6c-.1 1.2-.3 2.7-.6 4.2-.2 1.6-1 5.2-1 5.2h5.7s0-3.6.1-5.1.2-3 .3-4.2l1.5-14.4c.6 1 1.1 2.2 1.4 3.6z"/></svg>