<svg width="135" height="24" viewBox="0 0 135 24" fill="none" xmlns="http://www.w3.org/2000/svg">
<path fill-rule="evenodd" clip-rule="evenodd" d="M28.4047 21.4138V23.4827H25.2603V0.724121H28.2999V8.68964C29.1384 7.86205 30.0817 7.24136 31.025 6.82757C31.9683 6.41378 33.1213 6.20688 34.2742 6.20688C35.532 6.20688 36.7898 6.41378 37.7331 6.82757C38.7812 7.24136 39.7245 7.86205 40.563 8.79309C41.4016 9.62067 41.9256 10.5517 42.3449 11.5862C42.7641 12.6207 42.9738 13.7586 42.9738 14.8965C42.9738 17.4827 42.1353 19.5517 40.4582 21.2069C38.7812 22.8621 36.5801 23.7931 34.0646 23.7931C33.0165 23.7931 31.9683 23.5862 30.9202 23.1724C30.0817 22.8621 29.2432 22.2414 28.4047 21.4138ZM28.2999 15.2069C28.2999 16.7586 28.9287 18.1034 30.0817 19.2414C31.2346 20.3793 32.5972 21 34.0646 21C35.7416 21 37.1042 20.3793 38.2571 19.2414C39.4101 18.1034 39.9342 16.6552 39.9342 14.8965C39.9342 13.2414 39.4101 11.8965 38.2571 10.7586C37.1042 9.62067 35.7416 9.10343 34.1694 9.10343C32.5972 9.10343 31.2346 9.72412 30.0817 10.8621C28.8239 12.1034 28.2999 13.5517 28.2999 15.2069Z" fill="#585858"/>
<path fill-rule="evenodd" clip-rule="evenodd" d="M44.6509 23.8965V0.724121H47.6905V23.8965H44.6509Z" fill="#585858"/>
<path fill-rule="evenodd" clip-rule="evenodd" d="M52.0925 16.2415C52.3021 17.6898 53.0358 18.8277 53.9791 19.6553C55.0273 20.4829 56.285 21.0001 57.6476 21.0001C58.6957 21.0001 59.6391 20.7932 60.3728 20.276C61.2113 19.7588 61.8402 19.1381 62.3642 18.207H65.8231C64.9846 20.0691 63.9364 21.5174 62.5739 22.5519C61.2113 23.5863 59.5343 24.0001 57.6476 24.0001C56.3898 24.0001 55.2369 23.7932 54.1888 23.3794C53.1406 22.9657 52.1973 22.2415 51.3588 21.4139C50.5203 20.5863 49.8914 19.6553 49.4721 18.5174C49.0529 17.3794 48.8433 16.345 48.8433 15.1036C48.8433 13.9657 49.0529 12.8277 49.4721 11.7932C49.8914 10.7588 50.5203 9.82772 51.254 9.00013C52.0925 8.0691 53.0358 7.34496 54.0839 6.93117C55.1321 6.51738 56.285 6.20703 57.5428 6.20703C59.0102 6.20703 60.4776 6.51738 61.7353 7.24151C62.9931 7.96565 64.0412 8.89669 64.8798 10.1381C65.4038 10.8622 65.7183 11.7932 66.0327 12.6208C66.2423 13.5519 66.3471 14.5863 66.3471 15.7243V16.2415H52.0925ZM63.0979 13.4484C62.6787 12.1036 62.0498 10.9657 61.1065 10.2415C60.1631 9.51738 59.0102 9.10358 57.7524 9.10358C56.3898 9.10358 55.2369 9.51738 54.2936 10.2415C53.3503 11.0691 52.6166 12.1036 52.3021 13.4484H63.0979Z" fill="#585858"/>
<path fill-rule="evenodd" clip-rule="evenodd" d="M9.01415 12.9311L12.1586 4.96557L15.4078 12.9311L19.9148 24H23.8977L14.2548 0.827637H10.0623L0.419434 24H4.40235L9.01415 12.9311Z" fill="#585858"/>
<path fill-rule="evenodd" clip-rule="evenodd" d="M84.2702 22.6552C82.4884 23.4828 80.4969 23.8966 78.2958 23.8966C76.7236 23.8966 75.2562 23.5863 73.9985 23.069C72.7407 22.5518 71.5877 21.7242 70.6444 20.7932C69.7011 19.7587 68.9674 18.6207 68.5481 17.2759C68.0241 15.9311 67.8145 14.4828 67.8145 12.8276C67.8145 11.1725 68.1289 9.62074 68.653 8.06902C69.177 6.62074 69.9107 5.37936 70.9589 4.24143C71.9022 3.20695 73.16 2.37936 74.5225 1.75867C75.8851 1.13798 77.4573 0.827637 79.2391 0.827637C81.1258 0.827637 82.9076 1.13798 84.375 1.65522V3.82764C82.8028 3.00005 81.021 2.58626 79.2391 2.58626C77.7718 2.58626 76.514 2.79315 75.361 3.3104C74.2081 3.82764 73.2648 4.44833 72.5311 5.37936C71.7974 6.3104 71.1685 7.34488 70.7492 8.48281C70.33 9.72419 70.1204 10.9656 70.1204 12.4138C70.1204 13.6552 70.33 14.8966 70.6444 16.0345C71.0637 17.1725 71.5877 18.2069 72.3214 19.0345C73.0551 19.8621 73.8936 20.5863 75.0466 21.1035C76.0947 21.6207 77.3525 21.8276 78.8199 21.8276C81.021 21.8276 82.9076 21.4138 84.5846 20.4828V22.6552H84.2702Z" fill="#585858"/>
<path fill-rule="evenodd" clip-rule="evenodd" d="M86.1572 23.8965V0.724121H88.1487V23.8965H86.1572Z" fill="#585858"/>
<path fill-rule="evenodd" clip-rule="evenodd" d="M97.2674 23.7929C96.1145 23.7929 94.9615 23.586 94.0182 23.1722C93.0749 22.7584 92.2364 22.2411 91.6075 21.517C90.9786 20.7929 90.4545 19.9653 90.0353 18.9308C89.7209 17.8963 89.5112 16.8618 89.5112 15.6205C89.5112 14.2756 89.7209 13.1377 90.0353 12.1032C90.4545 11.0687 90.9786 10.1377 91.6075 9.41356C92.3412 8.68942 93.1797 8.17218 94.123 7.75839C95.0664 7.34459 96.2193 7.1377 97.4771 7.1377C98.63 7.1377 99.6782 7.34459 100.621 7.65494C101.565 8.06873 102.298 8.58597 103.032 9.31011C103.661 10.0342 104.185 10.8618 104.5 11.8963C104.814 12.9308 105.024 14.0687 105.024 15.4136C105.024 16.6549 104.814 17.7929 104.5 18.8274C104.185 19.8618 103.661 20.6894 102.927 21.4136C102.298 22.1377 101.46 22.7584 100.517 23.1722C99.5733 23.586 98.5252 23.7929 97.2674 23.7929ZM97.3723 8.89632C96.5337 8.89632 95.6952 8.99976 94.9615 9.31011C94.2278 9.62045 93.599 10.0342 93.1797 10.6549C92.6556 11.2756 92.2364 11.8963 92.0268 12.7239C91.7123 13.5515 91.6075 14.4825 91.6075 15.517C91.6075 16.5515 91.7123 17.3791 92.0268 18.2067C92.3412 19.0342 92.6556 19.6549 93.1797 20.2756C93.7038 20.8963 94.3327 21.3101 94.9615 21.6205C95.6952 21.9308 96.4289 22.0342 97.3723 22.0342C98.3156 22.0342 99.0493 21.9308 99.783 21.6205C100.517 21.3101 101.041 20.8963 101.565 20.3791C102.089 19.8618 102.403 19.1377 102.613 18.3101C102.823 17.4825 103.032 16.5515 103.032 15.517C103.032 13.3446 102.508 11.6894 101.565 10.6549C100.621 9.51701 99.2589 8.89632 97.3723 8.89632Z" fill="#585858"/>
<path fill-rule="evenodd" clip-rule="evenodd" d="M117.391 23.4828V20.7931H117.287C116.238 22.8621 114.457 23.8966 112.255 23.8966C108.377 23.8966 106.491 21.6207 106.491 16.9656V7.65521H108.482V16.6552C108.482 18.5173 108.797 19.9656 109.53 20.8966C110.264 21.8276 111.312 22.2414 112.675 22.2414C113.408 22.2414 114.037 22.138 114.561 21.8276C115.085 21.5173 115.61 21.2069 116.029 20.6897C116.448 20.1724 116.762 19.6552 116.972 18.9311C117.182 18.2069 117.287 17.4828 117.287 16.6552V7.55176H119.278V23.4828H117.391Z" fill="#585858"/>
<path fill-rule="evenodd" clip-rule="evenodd" d="M132.904 23.4829V20.6898H132.799C132.275 21.7243 131.541 22.4484 130.493 23.0691C129.55 23.5863 128.397 23.8967 127.139 23.8967C126.091 23.8967 125.253 23.6898 124.414 23.3794C123.576 22.9656 122.842 22.4484 122.318 21.8277C121.689 21.1036 121.27 20.276 120.955 19.3449C120.641 18.3105 120.431 17.276 120.431 16.0346C120.431 14.7932 120.641 13.5518 120.955 12.5174C121.27 11.4829 121.794 10.5518 122.423 9.8277C123.051 9.10357 123.89 8.48288 124.729 8.06908C125.672 7.65529 126.615 7.44839 127.768 7.44839C130.074 7.44839 131.751 8.37943 132.799 10.2415H132.904V0.931152H134.895V23.6898H132.904V23.4829ZM132.904 13.8622C132.904 13.138 132.799 12.5174 132.59 11.8967C132.38 11.276 131.961 10.7587 131.541 10.3449C131.122 9.93115 130.598 9.51736 129.969 9.31046C129.34 9.10357 128.711 8.89667 127.978 8.89667C127.139 8.89667 126.406 9.00012 125.777 9.31046C125.148 9.62081 124.519 10.0346 124.1 10.6553C123.576 11.276 123.261 12.0001 122.947 12.8277C122.632 13.6553 122.527 14.5863 122.527 15.7243C122.527 16.7587 122.632 17.5863 122.842 18.4139C123.051 19.2415 123.471 19.8622 123.89 20.4829C124.309 21.0001 124.833 21.4139 125.462 21.7243C126.091 22.0346 126.72 22.1381 127.558 22.1381C128.397 22.1381 129.131 22.0346 129.76 21.7243C130.388 21.4139 131.017 21.0001 131.437 20.4829C131.856 19.9656 132.275 19.3449 132.485 18.7243C132.694 18.0001 132.904 17.276 132.904 16.5518V13.8622Z" fill="#585858"/>
<path fill-rule="evenodd" clip-rule="evenodd" d="M107.611 5.58642L106.491 4.81234C107.947 2.71127 110.412 1.38428 112.989 1.38428C115.566 1.38428 118.031 2.60069 119.488 4.81234L118.367 5.58642C117.135 3.8171 115.23 2.82185 113.101 2.82185C110.86 2.82185 108.844 3.92768 107.611 5.58642Z" fill="#D23634"/>
</svg>
