<?xml version="1.0" encoding="UTF-8"?>
<svg width="163px" height="36px" viewBox="0 0 163 36" version="1.1" xmlns="http://www.w3.org/2000/svg" xmlns:xlink="http://www.w3.org/1999/xlink">
    <!-- Generator: sketchtool 50.2 (55047) - http://www.bohemiancoding.com/sketch -->
    <title>49C0E652-1C44-4FD2-BABD-4DC2ED846C94</title>
    <desc>Created with sketchtool.</desc>
    <defs>
        <path d="M5.0300676,0 L30.7373258,0 C33.5152571,0 35.7670229,2.26540206 35.7670229,5.06226804 L35.7670229,30.937732 C35.7670229,33.7334845 33.5163687,36 30.7373258,36 L5.0300676,36 C2.25213635,36 0,33.7342268 0,30.937732 L0,5.06226804 C0,2.26651546 2.25102473,0 5.0300676,0 Z" id="path-1"></path>
        <linearGradient x1="51.6666667%" y1="20.1851852%" x2="51.6666667%" y2="115%" id="linearGradient-3">
            <stop stop-color="#3B9FFF" offset="0%"></stop>
            <stop stop-color="#397EFF" offset="100%"></stop>
        </linearGradient>
        <path d="M5.0300676,0 C2.25102473,0 0,2.26651546 0,5.06226804 L0,30.937732 C0,33.7342268 2.25213635,36 5.0300676,36 L30.7373258,36 C33.5163687,36 35.7670229,33.7334845 35.7670229,30.937732 L35.7670229,5.06226804 C35.7670229,2.26540206 33.5152571,0 30.7373258,0 L5.0300676,0 Z" id="path-4"></path>
        <linearGradient x1="50%" y1="0%" x2="50%" y2="94.1565979%" id="linearGradient-6">
            <stop stop-color="#3B9FFF" offset="0%"></stop>
            <stop stop-color="#397EFF" offset="100%"></stop>
        </linearGradient>
        <path d="M9.2060427,0.929319588 L1.50846447,8.6388866 C0.810368902,9.33884536 0.940428109,9.86771134 0.940428109,9.86771134 C0.940428109,9.86771134 0.239368226,15.5928247 0.0540987013,17.3267629 C-0.131170824,19.0603299 1.46325871,18.7385567 1.46325871,18.7385567 C1.46325871,18.7385567 8.30822658,18.1232165 8.87626294,18.0178144 C9.44504038,17.9131546 9.57917552,17.8868041 10.2342886,17.2310103 C10.8886605,16.5748454 16.78616,10.6682474 17.9752199,9.47727835 C19.1639091,8.28668041 17.8514598,7.17624742 17.8514598,7.17624742 L11.6849489,0.999835052 C11.6849489,0.999835052 11.1580424,0.354061856 10.4032544,0.354061856 C10.0449431,0.354061856 9.63512692,0.499546392 9.2060427,0.929319588 Z" id="path-7"></path>
        <path d="M0.415003736,14.6653608 C0.306435794,14.7741031 0.342748621,14.7551753 0.351641558,14.7640825 C0.769980146,15.1749278 1.47178111,15.0331546 1.47178111,15.0331546 C1.47178111,15.0331546 8.31674898,14.4181856 8.88515588,14.3127835 C9.45356278,14.2077526 9.58769792,14.1814021 10.2424404,13.5256082 C10.8971829,12.8698144 16.7946824,6.96284536 17.9833717,5.77187629 C19.1724315,4.58127835 17.8596117,3.47084536 17.8596117,3.47084536 L14.7255924,0.331793814 C14.7255924,0.331793814 0.523942217,14.5566186 0.415003736,14.6653608 Z" id="path-9"></path>
        <path d="M8.74879751,0.175917526 C8.69766312,0.316948454 8.63541256,0.481360825 8.56315745,0.666927835 C8.35528504,1.20098969 8.10739441,1.79814433 7.81874449,2.44131959 C6.99503619,4.27954639 6.01829525,6.11740206 4.89630301,7.82721649 C3.42192813,10.0740619 1.8086011,11.9234227 0.074478349,13.2405773 L1.20091706,14.7440412 C3.12549689,13.2825155 4.8744412,11.2769072 6.45738402,8.86490722 C7.63940359,7.06342268 8.66172083,5.13946392 9.52433574,3.21550515 C9.82595453,2.54226804 10.0864435,1.91616495 10.3058026,1.35352577 C10.3828747,1.15496907 10.4492012,0.978680412 10.5051526,0.825402062 C10.5392422,0.731876289 10.5625862,0.665814433 10.575555,0.629072165 L8.80771322,0.0122474227 C8.79844974,0.0382268041 8.77881117,0.0935257732 8.74879751,0.175917526 Z" id="path-11"></path>
        <path d="M14.3902545,0.0575257732 L1.11346985,0.0575257732 L0.177858744,0.0575257732 L0.177858744,0.999463918 L0.177858744,15.8563299 L2.04908095,15.8563299 L2.04908095,1.94103093 L13.4546434,1.94103093 L13.4546434,13.810268 L13.4546434,13.8596289 L13.459831,13.9093608 C13.4642775,13.9869278 13.4602015,14.0823093 13.44538,14.1632165 L11.2110295,14.1632165 L9.70960527,14.1632165 L8.64986358,14.1632165 L8.64986358,16.0467216 L9.70960527,16.0467216 L11.2110295,16.0467216 L13.5632114,16.0467216 C14.4621391,16.0467216 15.0331398,15.4807423 15.2413827,14.701732 C15.3258656,14.3847835 15.3436515,14.0763711 15.3269773,13.7980206 C15.3266067,13.7902268 15.3262362,13.7828041 15.3258656,13.7757526 L15.3258656,0.999463918 L15.3258656,0.0575257732 L14.3902545,0.0575257732 Z" id="path-13"></path>
        <path d="M1.66927842,0.233443299 C1.598876,0.233443299 1.5143931,0.240494845 1.41768241,0.259051546 C1.26427924,0.288 1.10976445,0.341072165 0.958955061,0.427546392 C0.511714428,0.682886598 0.237144992,1.15496907 0.237144992,1.74321649 L0.237144992,2.34519588 L0.237144992,3.58663918 L0.237144992,7.13356701 L0.237144992,9.67620619 L0.237144992,11.6294845 L0.237144992,12.2459381 L0.237144992,12.5361649 C0.237144992,13.1938144 0.64362633,13.6076289 1.17534987,13.8058144 C1.40508408,13.8911753 1.61295648,13.9242062 1.78155175,13.9327423 L1.82861021,13.9342268 L2.56820616,13.9342268 L4.42683003,13.9342268 L7.05950998,13.9342268 L10.5077464,13.9342268 L11.7056991,13.9342268 L12.2715123,13.9342268 C12.8536291,13.9342268 13.3075394,13.630268 13.5380147,13.1682062 C13.6110109,13.0223505 13.654364,12.8761237 13.678449,12.7313814 C13.6932706,12.641567 13.6991992,12.5636289 13.6991992,12.4990515 L13.6991992,11.7694021 L13.6991992,9.92931959 L13.6991992,7.19369072 L13.6991992,3.78371134 L13.6991992,2.56676289 L13.6991992,1.93546392 C13.6991992,1.25443299 13.379424,0.726309278 12.8677096,0.444247423 C12.6972616,0.350350515 12.5227377,0.292824742 12.3493255,0.260907216 C12.2414986,0.240865979 12.1484933,0.233443299 12.0736444,0.233443299 L1.66927842,0.233443299 Z M2.10762612,11.6294845 L2.10762612,9.67620619 L2.10762612,7.13356701 L2.10762612,3.58663918 L2.10762612,2.34519588 L2.10762612,2.11657732 L11.827977,2.11657732 L11.827977,2.56676289 L11.827977,3.78371134 L11.827977,7.19369072 L11.827977,9.92931959 L11.827977,11.7694021 L11.827977,12.0507216 L11.7056991,12.0507216 L10.5077464,12.0507216 L7.05950998,12.0507216 L4.42683003,12.0507216 L2.56820616,12.0507216 L2.10762612,12.0507216 L2.10762612,11.6294845 Z" id="path-15"></path>
        <path d="M0.128206511,1.94103093 L3.06695172,1.94103093 C3.05805878,2.32552577 3.05805878,2.41756701 3.05805878,3.44152577 L3.05805878,6.32523711 L3.05805878,8.71274227 L3.05805878,10.2707629 L3.05805878,10.8872165 C3.05472393,11.093567 3.07769735,11.3912165 3.14847031,11.7460206 C3.25963202,12.3060619 3.46416958,12.8635052 3.78727963,13.3879175 C4.73437744,14.9266392 6.47035289,15.8385155 9.04448767,15.8385155 L14.608502,15.8385155 L20.9169294,15.8385155 L22.8092723,15.8385155 L23.523301,15.8385155 L23.523301,13.9553814 L22.8092723,13.9553814 L20.9169294,13.9553814 L14.608502,13.9553814 L9.04448767,13.9553814 C7.09989874,13.9553814 5.97346002,13.3634227 5.37763323,12.3962474 C5.18050646,12.0755876 5.05267049,11.7282062 4.98300914,11.3774845 C4.95781249,11.251299 4.94262039,11.1347629 4.93446853,11.029732 C4.92965152,10.9684948 4.92816936,10.9261856 4.9285399,10.9061443 C4.92891044,10.7725361 4.92891044,10.7725361 4.92891044,10.2707629 L4.92891044,8.71274227 L4.92891044,6.32523711 L4.92891044,3.44152577 L4.92891044,1.82375258 C4.92891044,1.15496907 4.63951944,0.627587629 4.16152407,0.321402062 C3.99589312,0.214886598 3.823963,0.145113402 3.65240342,0.102804124 C3.54346494,0.0757113402 3.4482364,0.0630927835 3.37116428,0.0590103093 L0.128206511,0.0575257732 L0.128206511,1.94103093 Z" id="path-17"></path>
        <path d="M0.462803273,10.5004948 C0.425378829,10.5517113 0.357570183,10.6634227 0.290873154,10.8040825 C0.166372033,11.0661031 0.089299911,11.3414845 0.0930053015,11.6424742 C0.106344707,12.7996701 1.12606817,13.3058969 2.70975207,13.1533608 C3.66129635,13.0620619 6.19985938,12.8026392 9.84077609,12.4263093 C9.88968724,12.4207423 9.88968724,12.4207423 9.93822786,12.4159175 C11.5704524,12.2470515 13.3138386,12.0659381 15.0527784,11.8851959 C15.6612035,11.821732 16.225905,11.7627216 16.7320613,11.7100206 L17.2026459,11.6610309 C17.3397454,11.6469278 17.3397454,11.6469278 17.3686474,11.6435876 L17.1759671,9.77047423 C17.1466945,9.77381443 17.1466945,9.77381443 17.0095951,9.78791753 C16.8213613,9.80758763 16.8213613,9.80758763 16.539381,9.83690722 C16.0332247,9.88960825 15.4685232,9.94861856 14.8600981,10.0120825 C13.1215288,10.1928247 11.3788837,10.373567 9.74665917,10.5428041 C9.69811856,10.5476289 9.69811856,10.5476289 9.64957794,10.5528247 C6.01458986,10.9287835 3.47676791,11.1882062 2.53189333,11.2787629 C2.40146358,11.2913814 2.28437324,11.298433 2.18062231,11.2995464 L8.8947899,1.11154639 L7.33556157,0.0708865979 L0.462803273,10.5004948 Z" id="path-19"></path>
        <path d="M3.48973677,0.410103093 C3.46009365,0.516247423 3.42341028,0.64057732 3.38005721,0.781608247 C3.25407394,1.1891134 3.09733592,1.64486598 2.908361,2.13661856 C2.36922669,3.54321649 1.68224729,4.94907216 0.839270948,6.25583505 C0.673269454,6.51340206 0.502450952,6.76465979 0.326074364,7.00923711 L1.84306123,8.11187629 C2.0372237,7.84169072 2.22545753,7.56482474 2.40813329,7.28164948 C3.32744067,5.85649485 4.070742,4.33595876 4.65397047,2.81505155 C4.85813748,2.28284536 5.02858545,1.78738144 5.16642597,1.34127835 C5.25053834,1.06886598 5.3061192,0.869938144 5.33502124,0.757113402 L3.52160313,0.292453608 C3.5175272,0.309154639 3.50678157,0.348865979 3.48973677,0.410103093 Z" id="path-21"></path>
        <path d="M3.32707013,0.410103093 C3.29705647,0.516247423 3.2603731,0.64057732 3.21702003,0.781608247 C3.09140729,1.1891134 2.93466928,1.64486598 2.74569436,2.13661856 C2.20581896,3.54321649 1.5192101,4.94907216 0.676233766,6.25583505 C0.510232272,6.51340206 0.33941377,6.76465979 0.163407721,7.00923711 L1.68002405,8.11187629 C1.87455705,7.84169072 2.06279089,7.56482474 2.24546664,7.28164948 C3.16477403,5.85649485 3.90770482,4.33595876 4.49093329,2.81505155 C4.69547084,2.28284536 4.8659188,1.78738144 5.00375933,1.34127835 C5.08750116,1.06886598 5.14345255,0.869938144 5.17198406,0.757113402 L3.35856595,0.292453608 C3.35411948,0.309154639 3.34374439,0.348865979 3.32707013,0.410103093 Z" id="path-23"></path>
        <path d="M17.8429374,0.524041237 C16.1636544,0.766020619 13.4931795,1.02581443 10.1123812,1.29191753 C7.9725182,1.46041237 5.67925202,1.62148454 3.38598584,1.76882474 C2.58265718,1.82078351 1.83750315,1.86717526 1.16868016,1.90725773 C0.934499484,1.92173196 0.726627077,1.93397938 0.548027255,1.94437113 C0.440200391,1.95068041 0.366833659,1.95476289 0.328668137,1.95698969 L0.435012845,3.83715464 C0.473548906,3.83492784 0.548397794,3.83047423 0.656595197,3.82416495 C0.836677175,3.8137732 1.04529066,3.80115464 1.28021242,3.78705155 C1.95199972,3.74659794 2.69974752,3.70020619 3.50529941,3.64824742 C5.80708799,3.50016495 8.10850603,3.33835052 10.2583736,3.16948454 C13.6765963,2.90041237 16.3781965,2.63727835 18.1078728,2.38824742 C18.9082372,2.27282474 19.4981353,2.16148454 19.8864603,2.04494845 L19.3525135,0.240123711 C19.0749798,0.323257732 18.5580778,0.421237113 17.8429374,0.524041237 Z" id="path-25"></path>
        <path d="M0.161184487,0.0642061856 L0.161184487,12.5317113 C0.161184487,12.6215258 0.170818502,12.7410309 0.196756236,12.8831753 C0.23788607,13.1125361 0.313846575,13.3433814 0.435753923,13.566433 C0.797029497,14.2274227 1.46585248,14.6356701 2.36663291,14.6356701 L9.60289002,14.6356701 C9.76407451,14.6356701 10.0030722,14.6141443 10.2969097,14.5525361 C10.7767577,14.452701 11.2566058,14.2723299 11.7094045,13.9876701 C11.9287636,13.8507216 12.1351539,13.6918763 12.3282047,13.511134 C12.7784097,13.0884124 13.1489487,12.6630928 13.4464916,12.2541031 C13.6328727,11.9980206 13.7570033,11.7961237 13.825553,11.6662268 L12.1707256,10.7870103 C12.1436763,10.8382268 12.0673452,10.9621856 11.937286,11.1418144 C11.7071813,11.4576495 11.4133438,11.794268 11.0516977,12.1342268 C10.9490584,12.2303505 10.8382672,12.3149691 10.7204358,12.389567 C10.4677282,12.5476701 10.1924176,12.6512165 9.91636606,12.7091134 C9.82076698,12.7287835 9.73406084,12.7414021 9.65847088,12.7484536 C9.62067589,12.7517938 9.60140786,12.7525361 9.60289002,12.7525361 L2.36663291,12.7525361 C2.15616673,12.7525361 2.11096097,12.7250722 2.07501868,12.6590103 C2.04500502,12.6044536 2.03203615,12.5324536 2.03203615,12.5317113 L2.03203615,0.0642061856 L0.161184487,0.0642061856 Z" id="path-27"></path>
        <path d="M0.320886817,0.0189278351 L0.320886817,1.90169072 L11.116542,1.90169072 C11.1650827,1.90169072 11.2647577,1.91171134 11.3603567,1.93546392 L11.3603567,3.09265979 L11.3603567,5.45195876 L11.3603567,7.46795876 L11.3603567,9.15439175 C11.3373833,9.15439175 11.2780971,9.1636701 11.1854623,9.1636701 L9.50840256,9.1636701 L6.72750699,9.1636701 L6.25729294,9.1636701 L3.40525387,9.1636701 L2.14653272,9.1636701 L2.07650084,9.16626804 C2.01128596,9.17146392 1.92346821,9.18259794 1.8189762,9.20412371 C1.64741662,9.23938144 1.47437488,9.29245361 1.30392692,9.37076289 C0.718475218,9.64057732 0.305694716,10.1486598 0.305694716,10.8708866 L0.305694716,11.4502268 L0.305694716,12.5662268 L0.305694716,15.6941443 L0.305694716,18.2026392 L0.305694716,19.8905567 L0.305694716,20.5593402 C0.31199388,20.7070515 0.329779754,20.8306392 0.368315816,20.974268 C0.42908422,21.2021443 0.528018146,21.4285361 0.676604305,21.6434227 C1.09012589,22.2413196 1.78081067,22.5927835 2.69048404,22.5927835 L7.28294503,22.5927835 L9.95490212,22.5927835 L11.4811525,22.5927835 L12.0803141,22.5927835 L12.1232966,22.5927835 L12.1662792,22.588701 C12.2385343,22.5823918 12.3393209,22.5671753 12.4612283,22.5404536 C12.6616899,22.4970309 12.8632631,22.4324536 13.0600194,22.3396701 C13.7229137,22.0275464 14.1820116,21.4637938 14.1820116,20.6606598 L14.1820116,18.5789691 L14.1820116,17.473732 L14.1820116,16.2957526 L12.3111599,16.2957526 L12.3111599,17.473732 L12.3111599,18.5789691 L12.3111599,20.6109278 C12.2996732,20.6176082 12.2844811,20.6257732 12.2670658,20.6343093 C12.1811007,20.6747629 12.0817963,20.7 12.0236216,20.7096495 L11.4811525,20.7096495 L9.95490212,20.7096495 L7.28294503,20.7096495 L2.69048404,20.7096495 C2.38404825,20.7096495 2.2706633,20.6521237 2.21248867,20.5675052 C2.19655549,20.5444948 2.18358662,20.5166598 2.17617584,20.489567 L2.17617584,19.8905567 L2.17617584,18.2026392 L2.17617584,15.6941443 L2.17617584,12.5662268 L2.17617584,11.4502268 L2.17617584,11.0527423 C2.18062231,11.0516289 2.18580986,11.0505155 2.19062686,11.0497732 C2.19136794,11.0497732 2.19210902,11.0486598 2.19247956,11.0468041 L3.40525387,11.0468041 L6.25729294,11.0468041 L6.72750699,11.0468041 L9.50840256,11.0468041 L11.1854623,11.0468041 C11.9706345,11.0468041 12.5757248,10.7331959 12.9292191,10.1969072 C13.056314,10.0039175 13.1385736,9.80090722 13.1860026,9.59826804 C13.2163868,9.46985567 13.2289852,9.35851546 13.2312084,9.26981443 L13.2312084,7.46795876 L13.2312084,5.45195876 L13.2312084,3.09265979 L13.2312084,1.72614433 C13.2312084,0.902969072 12.705784,0.391546392 11.9932374,0.159958763 C11.7972223,0.0961237113 11.5978723,0.0571546392 11.4007455,0.036 C11.282173,0.0233814433 11.1847212,0.0189278351 11.116542,0.0189278351 L0.320886817,0.0189278351 Z" id="path-29"></path>
        <path d="M0.286056147,0.240123711 L0.286056147,2.12325773 L3.09177783,2.12325773 C3.08918406,2.12325773 3.1199388,2.12845361 3.15069354,2.13773196 C3.13327821,2.34964948 3.13327821,2.36486598 3.13327821,2.85030928 L3.13327821,4.26136082 L3.13327821,8.19946392 L3.13327821,11.3826804 L3.13327821,13.5081649 L3.13327821,14.3506392 L3.13327821,14.4196701 L3.14328276,14.4879588 C3.17996613,14.7369897 3.29261,15.028701 3.53716577,15.3085361 C4.04925074,15.8967835 4.88666899,16.1075876 5.96901356,15.8700619 C6.65376972,15.7201237 7.17474762,15.6050722 7.55455015,15.5208247 C7.68757367,15.491134 7.79354784,15.4677526 7.87543697,15.4491959 C7.92471866,15.438433 7.95473233,15.4313814 7.96992443,15.4280412 L7.55751446,13.591299 C7.54528667,13.5938969 7.51601409,13.6002062 7.46821455,13.6113402 C7.38780758,13.6295258 7.28331557,13.6525361 7.15103313,13.6822268 C6.77345383,13.7661031 6.25395809,13.8804124 5.57105462,14.0303505 C5.31167728,14.0867629 5.12603722,14.0949278 5.00450041,14.0737732 L5.00450041,13.5081649 L5.00450041,11.3826804 L5.00450041,8.19946392 L5.00450041,4.26136082 L5.00450041,2.85030928 L5.00450041,2.10878351 C5.00450041,1.31826804 4.59690745,0.738927835 3.97884832,0.445731959 C3.78431532,0.353319588 3.58607693,0.296907216 3.38932069,0.266103093 C3.26926604,0.247175258 3.16773834,0.240123711 3.09177783,0.240123711 L0.286056147,0.240123711 Z" id="path-31"></path>
    </defs>
    <g id="官网" stroke="none" stroke-width="1" fill="none" fill-rule="evenodd">
        <g id="云笔记官网_mac" transform="translate(-360.000000, -18.000000)">
            <g id="Group-5">
                <g id="logo" transform="translate(360.000000, 18.000000)">
                    <g id="Group-3">
                        <mask id="mask-2" fill="white">
                            <use xlink:href="#path-1"></use>
                        </mask>
                        <g id="Clip-2"></g>
                        <polygon id="Fill-1" fill="url(#linearGradient-3)" mask="url(#mask-2)" points="-367.574738 319.917526 343.860238 319.917526 343.860238 -80.9072165 -367.574738 -80.9072165"></polygon>
                    </g>
                    <g id="Group-6">
                        <mask id="mask-5" fill="white">
                            <use xlink:href="#path-4"></use>
                        </mask>
                        <g id="Clip-5"></g>
                        <path d="M5.0300676,0 C2.25102473,0 0,2.26651546 0,5.06226804 L0,30.937732 C0,33.7342268 2.25213635,36 5.0300676,36 L30.7373258,36 C33.5163687,36 35.7670229,33.7334845 35.7670229,30.937732 L35.7670229,5.06226804 C35.7670229,2.26540206 33.5152571,0 30.7373258,0 L5.0300676,0 Z" id="Fill-4" fill="url(#linearGradient-6)" mask="url(#mask-5)"></path>
                    </g>
                    <g id="Group-9" transform="translate(9.634015, 7.051546)">
                        <mask id="mask-8" fill="white">
                            <use xlink:href="#path-7"></use>
                        </mask>
                        <g id="Clip-8"></g>
                        <polygon id="Fill-7" fill="#FFFFFF" mask="url(#mask-8)" points="10.4136295 -2.90456907 21.6854274 8.38532784 4.67027419 25.4278021 -6.60115318 14.1379052"></polygon>
                    </g>
                    <g id="Group-12" transform="translate(9.634015, 10.762887)">
                        <mask id="mask-10" fill="white">
                            <use xlink:href="#path-9"></use>
                        </mask>
                        <g id="Clip-11"></g>
                        <polygon id="Fill-10" fill="#EBF4FF" mask="url(#mask-10)" points="14.7278527 -2.29475876 21.6928752 4.68144742 4.67586933 21.7257773 -2.2891532 14.7495711"></polygon>
                    </g>
                    <polygon id="Fill-13" fill="#23314F" points="40.5569812 11.1934021 62.7122521 11.1934021 62.7122521 9.31026804 40.5569812 9.31026804"></polygon>
                    <polygon id="Fill-14" fill="#23314F" points="45.2913586 20.4324124 59.1832381 20.4324124 59.1832381 18.5496495 45.2913586 18.5496495"></polygon>
                    <polygon id="Fill-15" fill="#23314F" points="73.6979938 18.1926186 85.3788668 18.1926186 85.3788668 16.3094845 73.6979938 16.3094845"></polygon>
                    <polygon id="Fill-16" fill="#23314F" points="73.6979938 22.1121649 85.3788668 22.1121649 85.3788668 20.2294021 73.6979938 20.2294021"></polygon>
                    <polygon id="Fill-17" fill="#23314F" points="45.2913586 24.912 59.1832381 24.912 59.1832381 23.028866 45.2913586 23.028866"></polygon>
                    <g id="Group-20" transform="translate(39.647678, 5.938144)">
                        <mask id="mask-12" fill="white">
                            <use xlink:href="#path-11"></use>
                        </mask>
                        <g id="Clip-19"></g>
                        <polygon id="Fill-18" fill="#23314F" mask="url(#mask-12)" points="-1.77858744 16.5997113 12.4278797 16.5997113 12.4278797 -1.84305155 -1.77858744 -1.84305155"></polygon>
                    </g>
                    <g id="Group-23" transform="translate(44.835225, 13.731959)">
                        <mask id="mask-14" fill="white">
                            <use xlink:href="#path-13"></use>
                        </mask>
                        <g id="Clip-22"></g>
                        <polygon id="Fill-21" fill="#23314F" mask="url(#mask-14)" points="-1.67483651 17.9020206 17.1856011 17.9020206 17.1856011 -1.79814433 -1.67483651 -1.79814433"></polygon>
                    </g>
                    <polygon id="Fill-24" fill="#23314F" points="74.2550252 6.84300619 75.8920667 9.90337732 77.5394833 9.01042887 75.9024418 5.95042887"></polygon>
                    <polygon id="Fill-25" fill="#23314F" points="80.9387715 9.11234227 82.556545 10.058734 84.3821909 6.89630103 82.7647879 5.95065155"></polygon>
                    <polygon id="Fill-26" fill="#23314F" points="71.7485879 10.6333608 87.1574543 10.6333608 87.1574543 8.7502268 71.7485879 8.7502268"></polygon>
                    <polygon id="Fill-27" fill="#23314F" points="77.3184568 12.1285485 79.0985264 12.7086309 80.0952764 9.61040412 78.3152068 9.03032165"></polygon>
                    <g id="Group-30" transform="translate(72.625654, 11.876289)">
                        <mask id="mask-16" fill="white">
                            <use xlink:href="#path-15"></use>
                        </mask>
                        <g id="Clip-29"></g>
                        <polygon id="Fill-28" fill="#23314F" mask="url(#mask-16)" points="-1.61555026 15.7898969 15.5518945 15.7898969 15.5518945 -1.6222268 -1.61555026 -1.6222268"></polygon>
                    </g>
                    <polygon id="Fill-31" fill="#23314F" points="66.178719 8.02777732 68.6376161 12.2193649 70.2487199 11.2622103 67.7898228 7.07062268"></polygon>
                    <g id="Group-34" transform="translate(65.214873, 13.731959)">
                        <mask id="mask-18" fill="white">
                            <use xlink:href="#path-17"></use>
                        </mask>
                        <g id="Clip-33"></g>
                        <polygon id="Fill-32" fill="#23314F" mask="url(#mask-18)" points="-1.72448874 17.6941856 25.3756258 17.6941856 25.3756258 -1.7977732 -1.72448874 -1.7977732"></polygon>
                    </g>
                    <polygon id="Fill-35" fill="#23314F" points="65.6217617 28.0609979 67.019435 29.3124619 70.2305264 25.6809155 68.8324826 24.4287093"></polygon>
                    <polygon id="Fill-36" fill="#23314F" points="93.4710691 9.79348454 109.67326 9.79348454 109.67326 7.91035052 93.4710691 7.91035052"></polygon>
                    <polygon id="Fill-37" fill="#23314F" points="90.6860976 17.0729072 112.143273 17.0729072 112.143273 15.1901443 90.6860976 15.1901443"></polygon>
                    <g id="Group-40" transform="translate(92.264223, 15.958763)">
                        <mask id="mask-20" fill="white">
                            <use xlink:href="#path-19"></use>
                        </mask>
                        <g id="Clip-39"></g>
                        <polygon id="Fill-38" fill="#23314F" mask="url(#mask-20)" points="-1.75968995 15.0357526 19.2213427 15.0357526 19.2213427 -1.78478351 -1.75968995 -1.78478351"></polygon>
                    </g>
                    <polygon id="Fill-41" fill="#23314F" points="104.61051 21.0258557 110.619172 29.7048247 112.154686 28.6285361 106.146024 19.9491959"></polygon>
                    <g id="Group-44" transform="translate(114.867105, 5.938144)">
                        <mask id="mask-22" fill="white">
                            <use xlink:href="#path-21"></use>
                        </mask>
                        <g id="Clip-43"></g>
                        <polygon id="Fill-42" fill="#23314F" mask="url(#mask-22)" points="-1.52625035 9.96754639 7.18771649 9.96754639 7.18771649 -1.56358763 -1.52625035 -1.56358763"></polygon>
                    </g>
                    <g id="Group-47" transform="translate(125.612738, 5.938144)">
                        <mask id="mask-24" fill="white">
                            <use xlink:href="#path-23"></use>
                        </mask>
                        <g id="Clip-46"></g>
                        <polygon id="Fill-45" fill="#23314F" mask="url(#mask-24)" points="-1.68928753 9.96754639 7.02467931 9.96754639 7.02467931 -1.56358763 -1.68928753 -1.56358763"></polygon>
                    </g>
                    <polygon id="Fill-48" fill="#23314F" points="118.257167 10.3531546 126.048492 10.3531546 126.048492 8.47002062 118.257167 8.47002062"></polygon>
                    <polygon id="Fill-49" fill="#23314F" points="129.397053 10.3531546 138.125842 10.3531546 138.125842 8.47002062 129.397053 8.47002062"></polygon>
                    <polygon id="Fill-50" fill="#23314F" points="120.206647 9.50915876 121.976712 13.5560041 123.689344 12.7974062 121.918908 8.75018969"></polygon>
                    <polygon id="Fill-51" fill="#23314F" points="131.346385 9.28102268 132.959342 12.6854351 134.648259 11.8745072 133.035302 8.47009485"></polygon>
                    <g id="Group-54" transform="translate(115.978723, 12.989691)">
                        <mask id="mask-26" fill="white">
                            <use xlink:href="#path-25"></use>
                        </mask>
                        <g id="Clip-53"></g>
                        <polygon id="Fill-52" fill="#23314F" mask="url(#mask-26)" points="-1.52365657 5.69282474 21.7391555 5.69282474 21.7391555 -1.61554639 -1.52365657 -1.61554639"></polygon>
                    </g>
                    <polygon id="Fill-55" fill="#23314F" points="114.915239 22.8025113 115.03307 24.6823052 137.954245 23.2282021 137.837155 21.3487794"></polygon>
                    <polygon id="Fill-56" fill="#23314F" points="116.586333 18.7545155 116.716021 20.6331959 135.605361 19.3078763 135.475672 17.429567"></polygon>
                    <g id="Group-59" transform="translate(124.501121, 14.845361)">
                        <mask id="mask-28" fill="white">
                            <use xlink:href="#path-27"></use>
                        </mask>
                        <g id="Clip-58"></g>
                        <polygon id="Fill-57" fill="#23314F" mask="url(#mask-28)" points="-1.69114022 16.4913402 15.6778777 16.4913402 15.6778777 -1.79109278 -1.69114022 -1.79109278"></polygon>
                    </g>
                    <polygon id="Fill-60" fill="#23314F" points="141.650409 8.1246433 145.280951 11.7643546 146.601181 10.4301278 142.97101 6.79041649"></polygon>
                    <g id="Group-63" transform="translate(148.586159, 7.051546)">
                        <mask id="mask-30" fill="white">
                            <use xlink:href="#path-29"></use>
                        </mask>
                        <g id="Clip-62"></g>
                        <polygon id="Fill-61" fill="#23314F" mask="url(#mask-30)" points="-1.54737107 24.4484536 16.0347068 24.4484536 16.0347068 -1.83674227 -1.54737107 -1.83674227"></polygon>
                    </g>
                    <g id="Group-66" transform="translate(139.693222, 12.989691)">
                        <mask id="mask-32" fill="white">
                            <use xlink:href="#path-31"></use>
                        </mask>
                        <g id="Clip-65"></g>
                        <polygon id="Fill-64" fill="#23314F" mask="url(#mask-32)" points="-1.5666391 17.8214845 9.82224914 17.8214845 9.82224914 -1.61554639 -1.5666391 -1.61554639"></polygon>
                    </g>
                </g>
            </g>
        </g>
    </g>
</svg>