<?xml version="1.0" encoding="UTF-8"?>
<svg width="70px" height="25px" viewBox="0 0 70 25" version="1.1" xmlns="http://www.w3.org/2000/svg" xmlns:xlink="http://www.w3.org/1999/xlink">
    <title>左上角logo</title>
    <defs>
        <polygon id="path-1" points="0 0 21 0 21 25 0 25"></polygon>
        <polygon id="path-3" points="0 0 9 0 9 10 0 10"></polygon>
        <polygon id="path-5" points="0 0 8 0 8 11 0 11"></polygon>
    </defs>
    <g id="左上角logo" stroke="none" stroke-width="1" fill="none" fill-rule="evenodd">
        <g id="编组">
            <path d="M5.3195513,25 L0.356971082,25 C0.0807193963,25 -0.090603686,24.7050519 0.0505071949,24.4721795 L14.4543099,0.684428585 C14.7112041,0.26018573 15.1772318,0 15.6805273,0 L20.6429266,0 C20.9193592,0 21.0905014,0.294948105 20.9495714,0.5279979 L6.54576868,24.3157488 C6.28887451,24.7399916 5.82284678,25 5.3195513,25" id="Fill-1" fill="#3D3C38"></path>
            <g transform="translate(49.000000, 0.000000)">
                <mask id="mask-2" fill="white">
                    <use xlink:href="#path-1"></use>
                </mask>
                <g id="Clip-4"></g>
                <path d="M21.0000721,5.23755676 C20.9970083,2.3429079 18.6121438,-0.00177365383 15.6725591,0 L4.96869311,0.00621231877 C2.22374704,0.00780951328 -0.00054056446,2.19987026 0,4.90303325 L0.00342429757,20.1054856 C0.00414518158,22.8097134 2.2311361,25.0012417 4.97752394,25 L17.4448524,24.9941431 C17.994166,24.9937882 18.5139234,24.8708042 18.9779925,24.6512787 C19.207594,24.5428469 19.2490448,24.2374278 19.0571095,24.0725619 C18.0639115,23.2194825 15.4029484,20.9335422 14.8538151,20.46166 C14.7891157,20.4061131 14.7065745,20.3757664 14.6206091,20.3757664 L7.57144482,20.3787833 C6.3767598,20.3793157 5.40789169,19.4259681 5.40771147,18.2495456 L5.40590926,6.57245645 C5.40572904,5.49470508 6.29259659,4.62068475 7.38725895,4.61997488 L13.780599,4.61642556 C14.8909406,4.57276891 15.5896574,4.97969858 15.5503692,6.2370456 L15.5503692,7.32491253 C15.5503692,7.5085899 15.6956273,7.66138818 15.8817956,7.67469813 C16.6136731,7.72687315 17.1732593,7.75473533 17.9191941,7.75473533 C18.8469718,7.75473533 19.7648373,7.7135632 20.6715292,7.63352601 C20.8544535,7.6173766 20.9941248,7.46475579 20.9941248,7.28374041 L20.9941248,7.13857317 C20.994305,7.13484639 20.9953863,7.13147453 20.9953863,7.12792521 L21.0000721,5.23755676 Z" id="Fill-3" fill="#3D3C38" mask="url(#mask-2)"></path>
            </g>
            <path d="M68.5622395,11.0011061 L58.3601787,11 C58.0516832,11 57.8863982,11.3670404 58.0892646,11.6020863 L61.6671555,15.7468217 C61.7353857,15.8259077 61.8340824,15.8712578 61.9377048,15.8712578 L64.6331636,15.8738387 C64.8316515,15.874023 64.9923757,16.0366195 64.9923757,16.237192 L64.9921932,18.9882434 C64.9921932,19.0931384 65.0370719,19.1928716 65.1151536,19.2618184 L69.2503797,22.9099156 C69.4441243,23.0808078 69.7507955,22.9980348 69.8294244,22.750453 C69.939432,22.4040599 70,22.0353604 70,21.6517285 L70,12.4541508 C70,11.6516764 69.3563737,11.0011061 68.5622395,11.0011061" id="Fill-5" fill="#3D3C38"></path>
            <path d="M20.9520782,24.4658583 L11.0363299,7 L8,12.348596 L14.7893017,24.3075542 C15.0330458,24.7368778 15.4752181,25 15.9527504,25 L20.6613019,25 C20.9234125,25 21.0859658,24.7016991 20.9520782,24.4658583" id="Fill-7" fill="#3D3C38"></path>
            <g>
                <mask id="mask-4" fill="white">
                    <use xlink:href="#path-3"></use>
                </mask>
                <g id="Clip-10"></g>
                <path d="M6.26599854,9.83449589 L8.95185757,5.38347361 C9.01604748,5.27708424 9.01604748,5.14461232 8.95185757,5.03822295 L6.31117567,0.662016422 C6.06348637,0.251559376 5.61415705,0 5.12906977,0 L0.34413114,0 C0.0777779285,0 -0.087406414,0.28536374 0.0486482715,0.510668966 L5.67485837,9.83449589 C5.80812219,10.055168 6.13290915,10.055168 6.26599854,9.83449589" id="Fill-9" fill="#3D3C38" mask="url(#mask-4)"></path>
            </g>
            <g transform="translate(39.000000, 14.000000)">
                <mask id="mask-6" fill="white">
                    <use xlink:href="#path-5"></use>
                </mask>
                <g id="Clip-12"></g>
                <path d="M2.56166198,11 L7.66797271,10.9807622 C7.89680758,10.9798373 8.05656978,10.7325211 7.98107961,10.4959335 L4.67099592,0.122893172 C4.63772621,0.0187502666 4.52744638,-0.0302690407 4.43760125,0.0196751592 C2.91901592,0.862992224 1.47879175,1.85077751 0.131790348,2.96638295 C0.017964001,3.060722 -0.0278029724,3.22479794 0.0169507101,3.37296574 L2.24450192,10.749909 C2.28976225,10.8997416 2.41777467,11.0005549 2.56166198,11" id="Fill-11" fill="#3D3C38" mask="url(#mask-6)"></path>
            </g>
            <path d="M29.2831545,24.8357899 C32.4900136,19.5744975 37.2447605,15.4049806 42.8951057,12.9970388 C42.9782882,12.9615339 43.0202261,12.8663808 42.990419,12.7792163 L42.4235649,11.11812 C42.3963572,11.038234 42.3171606,10.9892372 42.2355377,11.002019 C33.7682515,12.3299019 26.4967138,17.374792 22.0551144,24.459083 C21.9086785,24.6927052 22.0710577,25 22.3419207,25 L28.9951351,25 C29.1124571,25 29.220941,24.9376889 29.2831545,24.8357899" id="Fill-13" fill="#CC0000"></path>
            <path d="M31.3588966,12.3768305 L33.3329834,6.70622616 C33.3824161,6.56398452 33.5160279,6.46885704 33.6661172,6.46885704 L34.8419365,6.46885704 C34.994175,6.46885704 35.1292196,6.56686172 35.1770405,6.71180074 L36.4180536,10.479496 C36.4468894,10.5670708 36.537337,10.6168824 36.6265309,10.5949437 C38.3117226,10.1773899 40.0524366,9.90243729 41.8354191,9.78177466 C41.9514787,9.77386236 42.0284935,9.65841465 41.9899861,9.54818187 L38.9967963,0.949665409 C38.7981697,0.379080401 38.2610361,-0.0021487874 37.6590668,0 L34.2562656,0.0124170448 L30.8534645,0 C30.2514952,-0.0021487874 29.7143616,0.379080401 29.515735,0.949665409 L24.0106085,16.7634837 C23.951325,16.9335983 24.1537127,17.0738618 24.2903692,16.9569755 C26.388217,15.1619615 28.7328704,13.6492729 31.266837,12.4782519 C31.3100011,12.4582913 31.3433145,12.4217868 31.3588966,12.3768305" id="Fill-15" fill="#3D3C38"></path>
        </g>
    </g>
</svg>