<?xml version="1.0" encoding="UTF-8"?>
<svg width="100px" height="42px" viewBox="0 0 100 42" version="1.1" xmlns="http://www.w3.org/2000/svg" xmlns:xlink="http://www.w3.org/1999/xlink">
    <!-- Generator: Sketch 60.1 (88133) - https://sketch.com -->
    <title>编组 5</title>
    <desc>Created with Sketch.</desc>
    <defs>
        <linearGradient x1="50%" y1="0%" x2="50%" y2="100%" id="linearGradient-1">
            <stop stop-color="#0BA84A" offset="0%"></stop>
            <stop stop-color="#2CB741" offset="43.3431196%"></stop>
            <stop stop-color="#4DC638" offset="100%"></stop>
        </linearGradient>
        <linearGradient x1="78.8081448%" y1="8.54093393%" x2="32.5613242%" y2="81.1095863%" id="linearGradient-2">
            <stop stop-color="#57E82E" offset="0%"></stop>
            <stop stop-color="#4DC638" offset="100%"></stop>
        </linearGradient>
    </defs>
    <g id="页面-1" stroke="none" stroke-width="1" fill="none" fill-rule="evenodd">
        <g id="编组-5">
            <path d="M6.18847653,33.4798256 L6.0014881,35.0400835 L7.72640382,35.0400835 C7.40180031,37.750005 7.16333754,39.424797 7.00576303,40.0644595 C6.83873404,40.6727872 6.3943739,40.9764108 5.66007665,40.9764108 C5.53191604,40.9764108 5.31026122,40.9591226 5.00246567,40.9353514 L4.8921635,40.1876378 C5.16949465,40.2049259 5.40795742,40.2211336 5.61490529,40.2211336 C5.95001376,40.2211336 6.17061809,40.0396078 6.26936478,39.6797976 C6.3618085,39.3102628 6.53829196,38.0374209 6.81352211,35.8601913 L5.9037919,35.8601913 L5.89643843,35.927183 C5.59074386,38.291341 4.83228519,40.0158365 3.62526439,41.1082331 L3.06219811,40.5334013 C4.12740185,39.5803906 4.79761879,38.046065 5.06549547,35.927183 L5.07284895,35.8601913 L4.19568414,35.8601913 L4.29338034,35.0400835 L5.17054515,35.0400835 L5.35753358,33.4798256 L6.18847653,33.4798256 Z M58.812099,36.2059548 L58.4402231,39.3264705 L58.5169094,39.4172334 C58.6744839,39.6311746 58.8394119,39.7943318 59.0179964,39.9002218 C59.2333482,40.0255611 59.5779111,40.0893113 60.0464327,40.1065994 C60.5097018,40.1152435 61.0423037,40.1228071 61.6662987,40.1228071 C62.064437,40.1228071 62.4657268,40.1152435 62.8796225,40.1152435 C63.2893163,40.0990359 63.6023643,40.0817477 63.8208676,40.0644595 L63.5183246,40.9115801 L61.6915107,40.9115801 C61.2513525,40.9115801 60.774427,40.9040165 60.264936,40.8942919 C59.7459906,40.8867284 59.3289434,40.8370249 59.0053904,40.754906 C58.6965443,40.6565795 58.4391726,40.4674901 58.2332753,40.1887183 C58.1366296,40.0493324 58.0494383,39.9845017 57.9611966,39.9845017 C57.8025716,39.9845017 57.4874226,40.3443118 57.0010425,41.0844619 L56.4558347,40.5009859 C56.9327603,39.8440353 57.3351005,39.424797 57.6754615,39.2443517 L57.9443887,36.9947278 L56.8896899,36.9947278 L56.9842346,36.2059548 L58.812099,36.2059548 Z M38.3530712,38.1194317 C38.2186076,38.9741159 38.0494776,39.5975707 37.8425298,39.9908767 C37.616673,40.4025514 37.276312,40.7720861 36.8256489,41.0843538 L36.4411671,40.4922338 C36.779427,40.262085 37.0367988,39.9843936 37.2185347,39.6624014 C37.3834627,39.3512142 37.5168758,38.8336495 37.6177235,38.1194317 L38.3530712,38.1194317 Z M93.4250865,33.364211 L94.1614848,33.7423898 C93.8200733,34.406904 93.3925211,35.0400835 92.8914342,35.6397671 L92.2443281,41.0596101 L91.4133852,41.0596101 L91.9407346,36.6414007 C91.5909191,36.9623125 91.2190433,37.2734997 90.83141,37.5782038 L90.666482,36.6824602 C91.8398869,35.7456571 92.7622231,34.6381334 93.4250865,33.364211 Z M73.0657509,33.4388743 L73.8630779,33.5869043 C73.7716847,33.9477949 73.683443,34.2838338 73.5888983,34.6047456 L75.5837917,34.6047456 L75.4860955,35.4334975 L75.0469878,35.4334975 C74.8410905,36.756043 74.4755176,37.8819354 73.9408147,38.8165774 C74.2444083,39.4735281 74.6383446,39.9910928 75.1215731,40.3617081 L74.5753148,41.0597182 C74.1246516,40.6815393 73.7443718,40.1877458 73.4418287,39.5804986 C72.9974686,40.156411 72.4764222,40.649124 71.8849925,41.0510741 L71.5414801,40.3271317 C72.1633742,39.9338257 72.6865216,39.4249051 73.1056698,38.7917256 C72.9144794,38.2503896 72.7642583,37.6431425 72.6508047,36.9699841 C72.5005836,37.2401119 72.3419586,37.4951125 72.1864851,37.7241808 L71.7473774,37.0596665 C72.2946863,36.1563594 72.7337939,34.9494286 73.0657509,33.4388743 Z M15.810278,33.4629697 L15.7031274,34.3587133 C15.668461,34.5888621 15.6337946,34.8179304 15.5917747,35.0329521 L18.6256094,35.0329521 C18.4186615,36.4927224 18.2306226,37.6672379 18.0446847,38.5629815 C17.8587468,39.450081 17.6402434,40.0735358 17.4049321,40.4344265 C17.1738229,40.7726264 16.8481688,40.9530717 16.4216672,40.9844065 L15.2881811,40.9844065 L15.163172,40.1567351 C15.49723,40.1707818 15.806076,40.18807 16.1096696,40.18807 C16.5172624,40.18807 16.812452,39.9179422 17.0036424,39.3917334 C17.1958833,38.8428338 17.4238411,37.6672379 17.6791118,35.8692676 L15.4194932,35.8692676 C15.156869,37.0038041 14.8039021,37.9546538 14.3700469,38.718575 C13.7702133,39.7288528 12.9014524,40.5089817 11.7679664,41.0503177 L11.4086965,40.3198923 C12.5316776,39.7288528 13.3311056,38.9887028 13.8048797,38.0940397 C14.1200287,37.4705849 14.3763499,36.7239518 14.5727928,35.8692676 L12.3709516,35.8692676 L12.4696983,35.0329521 L14.7450743,35.0329521 C14.7881447,34.8092863 14.8228111,34.5888621 14.8574775,34.3587133 L14.9635776,33.4629697 L15.810278,33.4629697 Z M48.9118108,37.2666924 C48.7521353,38.3493644 48.5535914,39.145701 48.3161791,39.6546217 C48.0630094,40.1808305 47.6795781,40.6486918 47.1774406,41.0430783 L46.73203,40.3526318 C47.1196633,40.0490082 47.4190549,39.687037 47.6123463,39.2688793 C47.7951327,38.8744928 47.9548082,38.2002539 48.0987263,37.2666924 L48.9118108,37.2666924 Z M40.5233976,38.1194317 L40.2733793,40.2210255 C40.2681268,40.262085 40.2733793,40.2880172 40.3027932,40.3031444 L40.4635192,40.3031444 C40.52865,40.2880172 40.5696194,40.2048179 40.5958818,40.0567879 C40.6315987,39.8936307 40.6652146,39.6796895 40.6988305,39.3998372 L41.2986642,39.6548378 C41.2240789,40.2793731 41.1305847,40.6564715 41.0181815,40.7969379 C40.9141824,40.9276797 40.7156385,41.0011545 40.4088934,41.0260062 L40.1851376,41.0260062 C39.6903536,41.0260062 39.4676483,40.8045015 39.5201731,40.3776996 L39.7891003,38.1194317 L40.5233976,38.1194317 Z M69.5129708,37.2498365 L70.2829849,37.3470825 C70.2210056,37.4702607 70.1674303,37.593439 70.1117539,37.7090536 L71.716913,37.7090536 L71.6360248,38.3984196 C71.4427334,38.874925 71.1527963,39.3017268 70.7578095,39.6626175 C71.0529991,39.8020034 71.3387342,39.9500334 71.6129138,40.1153516 L71.086615,40.7885099 C70.8061323,40.5994205 70.4626199,40.4027675 70.0560776,40.1963899 C69.4877589,40.5421534 68.798633,40.8133617 67.9855485,41.0262223 L67.6872074,40.3120046 C68.2765361,40.1801822 68.79233,40.008381 69.2387911,39.8106475 C68.9351976,39.6701811 68.610594,39.5307951 68.2744351,39.3924897 C68.5065949,39.0640144 68.7114417,38.7431026 68.8910767,38.4394791 L68.1021536,38.4394791 L68.1882943,37.7090536 L69.2986694,37.7090536 C69.3743052,37.5437355 69.44784,37.3978665 69.5129708,37.2498365 Z M39.3899115,38.1194317 L39.0432476,41.0260062 L38.3089504,41.0260062 L38.6556143,38.1194317 L39.3899115,38.1194317 Z M29.8007805,33.7023028 L29.3994907,37.0767386 L27.0369235,37.0767386 L26.9707422,37.6267187 L30.1075255,37.6267187 L30.0140313,38.4230553 L27.5296065,38.4230553 C28.012835,39.0551542 28.831172,39.6310666 29.9909204,40.1399872 L29.3270064,40.8866203 C28.1357431,40.164839 27.3226586,39.3598583 26.866743,38.4878859 L26.5641999,41.0260062 L25.71855,41.0260062 L26.0210931,38.4878859 C25.3078058,39.4495407 24.2709654,40.2469578 22.9168751,40.8866203 L22.5323933,40.0892032 C23.766727,39.6461937 24.7121741,39.08865 25.3676841,38.4230553 L22.8906127,38.4230553 L22.9872584,37.6267187 L26.1229913,37.6267187 L26.1902231,37.0767386 L23.8108478,37.0767386 L24.2131881,33.7023028 L29.8007805,33.7023028 Z M85.4022462,35.705138 L85.3077015,36.4928305 C84.7687966,36.8558822 84.168963,37.2081287 83.5218569,37.5528117 L83.4798371,37.9061388 L86.5283787,37.9061388 L86.429632,38.7262467 L83.3810904,38.7262467 L83.2067079,40.188178 C83.1405266,40.7381581 82.8274786,41.0180104 82.2759678,41.0180104 L81.2958543,41.0180104 L81.1887036,40.2378815 C81.4576308,40.2551697 81.7601738,40.2627333 82.0868783,40.2627333 C82.2623113,40.2627333 82.373664,40.139555 82.4020274,39.9007621 L82.5427939,38.7262467 L79.3009609,38.7262467 L79.3997076,37.9061388 L82.6404901,37.9061388 L82.7245299,37.2081287 C83.2833942,36.9282764 83.7361583,36.690564 84.0691658,36.4928305 L80.9407863,36.4928305 L81.0342806,35.705138 L85.4022462,35.705138 Z M51.6672638,37.2666924 L51.3353069,40.0403641 C51.3258524,40.1235635 51.3521148,40.1711059 51.4140941,40.1883941 L51.6777688,40.1883941 C51.775465,40.1711059 51.8374443,40.0565718 51.8710602,39.8437111 C51.9141306,39.6222064 51.957201,39.3185828 52.0023723,38.9404039 L52.6957002,39.2202563 C52.5990545,40.0165929 52.4866513,40.5006618 52.3553392,40.6735435 C52.2313806,40.8367007 51.9876654,40.9361077 51.625244,40.968523 L51.297489,40.968523 C50.7218167,40.968523 50.4654955,40.7135224 50.5253738,40.2132459 L50.8772903,37.2666924 L51.6672638,37.2666924 Z M46.6584952,37.6924138 L47.3591766,37.9873933 C46.9305739,39.0311669 46.4778098,40.0165929 45.9998337,40.9361077 L45.2760414,40.5827806 C45.7865829,39.6459776 46.2540539,38.6778398 46.6584952,37.6924138 Z M95.5891099,33.5046774 L95.2739609,36.1324801 C96.0964998,35.6062712 96.8371001,35.0163122 97.498913,34.3593616 L98,35.0400835 C97.1375421,35.8450642 96.1910445,36.5506378 95.1521032,37.1665291 L94.8411562,39.7629969 C94.8148938,39.9845017 94.9209939,40.0990359 95.1678607,40.0990359 L96.3171042,40.0990359 C96.4925371,40.0990359 96.6291017,40.0331247 96.7236464,39.91751 C96.8181911,39.7943318 96.9148368,39.3686104 97.018836,38.6371045 L97.7531333,38.9072323 C97.5850538,39.8526794 97.4127723,40.4275112 97.2373393,40.6241642 C97.0629569,40.8132536 96.7719693,40.9115801 96.3643765,40.9115801 L94.8800246,40.9115801 C94.2087571,40.9115801 93.9156685,40.5658166 93.9965568,39.8850947 L94.2623325,37.6603226 C93.9734458,37.8061916 93.6772058,37.946658 93.3799152,38.0860439 L93.102584,37.2734997 C93.5490451,37.0768467 93.9734458,36.8726301 94.3820891,36.6576084 L94.7592174,33.5046774 L95.5891099,33.5046774 Z M50.2543457,37.2666924 L49.823642,40.8777601 L48.9769416,40.8777601 L49.4086958,37.2666924 L50.2543457,37.2666924 Z M37.4160281,35.4656968 L37.3267359,36.2155714 L36.3508244,37.3058069 L36.307754,37.6677781 L37.1124345,37.6677781 L37.0294453,38.3733518 L36.2237142,38.3733518 L36.0829477,39.5478672 C36.3487234,39.4657484 36.6050446,39.382549 36.8550628,39.2928666 L36.7657706,40.0394997 C35.8823028,40.3517674 34.9410577,40.6154121 33.9556917,40.8369168 L33.852743,40.0394997 C33.9903581,40.0157285 34.1290237,39.9908767 34.2592853,39.974669 L34.5786363,37.2895993 L35.2656612,37.2895993 L34.9620676,39.8352831 C35.0765718,39.8104314 35.1994799,39.7866601 35.3234385,39.7531643 L35.6448905,37.0594504 L36.474783,36.1896391 L34.5271619,36.1896391 L34.6133027,35.4656968 L37.4160281,35.4656968 Z M4.06437204,33.8817757 L3.47819484,38.7926981 L3.98348379,38.636024 L3.88788858,39.4496488 C2.79011945,39.8105394 1.53687679,40.1400953 0.133413091,40.4512824 L0,39.6311746 L0.566217764,39.5144794 L1.2385357,33.8817757 L4.06437204,33.8817757 Z M64.0467244,33.6775591 L63.9763412,34.2761622 C63.4731532,34.6705487 62.9468543,35.0163122 62.383788,35.3026476 L62.398495,35.3188553 L64.0110076,35.3188553 L63.5771524,38.9569358 C63.5172741,39.4658564 63.2136805,39.7284206 62.6705737,39.7284206 L62.072841,39.7284206 L61.9730438,39.0228469 L62.5203526,39.0476987 C62.6957856,39.0476987 62.7955828,38.9569358 62.8165927,38.7851345 L62.8575621,38.439371 L61.7881564,38.439371 L61.6284809,39.76948 L60.8616182,39.76948 L61.0223442,38.439371 L59.9823524,38.439371 L59.8226769,39.7770436 L59.0400568,39.7770436 L59.5726587,35.3188553 L61.3448467,35.3188553 C61.1168889,35.1556982 60.8668707,34.9828164 60.5842871,34.8099346 L61.0580611,34.3820523 L59.5484972,34.3820523 L59.632537,33.6775591 L64.0467244,33.6775591 Z M70.8954245,38.4394791 L69.7136157,38.4394791 C69.5844046,38.6523397 69.4488905,38.8576368 69.3133764,39.0553703 C69.5591926,39.1374891 69.8018574,39.2368962 70.0455727,39.3427862 C70.4048426,39.0802221 70.6884767,38.775518 70.8954245,38.4394791 Z M2.75230156,38.1108957 L1.55578573,38.1108957 L1.40871618,39.3340341 C1.83521787,39.2367881 2.24911361,39.1298175 2.6430499,39.0304105 L2.75230156,38.1108957 Z M39.8584331,35.1307383 C39.887847,35.294976 39.9204124,35.4829849 39.9445738,35.690443 L41.516117,35.690443 L41.4299763,36.4197879 L40.3595201,36.4197879 C40.7776178,36.9200645 41.1022213,37.356591 41.3123206,37.7336893 L40.706184,38.1269953 C40.6210938,37.9800458 40.5254986,37.8309353 40.4309538,37.6839858 C39.5075672,37.7985199 38.5232517,37.8892829 37.4611995,37.9627576 L37.3771597,37.3220146 C37.443341,37.3058069 37.4937649,37.2809552 37.5284312,37.2571839 C37.7658435,37.1415693 38.0956995,36.8627974 38.5074942,36.4197879 L37.4864114,36.4197879 L37.5725521,35.690443 L39.1682567,35.690443 C39.1230854,35.5413325 39.075813,35.3933025 39.0285406,35.2625607 L39.8584331,35.1307383 Z M74.2958826,35.4334975 L73.3220721,35.4334975 C73.2769007,35.5491122 73.2401334,35.6560828 73.1939115,35.7706169 C73.2726988,36.5831612 73.4019099,37.2984595 73.5941508,37.9143507 C73.9187543,37.1904084 74.1540656,36.3616565 74.2958826,35.4334975 Z M63.0014801,37.2324402 L61.9320744,37.2324402 L61.8690446,37.750005 L62.9395008,37.750005 L63.0014801,37.2324402 Z M61.1652118,37.2324402 L60.1262705,37.2324402 L60.0642912,37.750005 L61.1032325,37.750005 L61.1652118,37.2324402 Z M70.9647573,33.4561624 L70.7861729,34.9407845 L72.1434147,34.9407845 L72.0541225,35.6895786 L70.6968807,35.6895786 L70.6947797,35.7047058 C71.0897665,35.8775875 71.4900057,36.075321 71.894447,36.2957453 L71.3828551,36.9699841 C71.0792615,36.6987759 70.8260918,36.4848347 70.6212449,36.3303216 L70.5182962,37.1904084 L69.752484,37.1904084 L69.9058566,35.9024393 C69.5665461,36.4610635 69.0948731,36.9451324 68.4677265,37.3719342 L68.13682,36.6825682 C68.6925328,36.3778641 69.1127315,36.0504693 69.3963656,35.6895786 L68.4456661,35.6895786 L68.5349583,34.9407845 L70.0203607,34.9407845 L70.1968442,33.4561624 L70.9647573,33.4561624 Z M2.96345142,36.3539848 L1.76588509,36.3539848 L1.64717895,37.3469744 L2.84369478,37.3469744 L2.96345142,36.3539848 Z M50.7858971,33.3487597 C50.8531288,33.5940356 50.9235121,33.873888 50.9812895,34.1861557 L53.0013948,34.1861557 L52.908951,34.9576405 L50.0032769,34.9576405 C49.6440071,35.500057 49.3299085,35.9192953 49.0630823,36.2153553 C49.81944,36.1645712 50.5852522,36.0910965 51.3489633,36.0003336 C51.2281562,35.8047611 51.1062986,35.6145912 50.9844409,35.4341458 L51.7061322,35.007344 C52.1841083,35.6805023 52.5370752,36.2715418 52.771336,36.7804625 L52.0181298,37.2731755 C51.9288375,37.0840861 51.8405958,36.8874331 51.7365966,36.6907801 C50.5547878,36.8215219 49.2721312,36.9360561 47.9054349,37.0278995 L47.8066882,36.3050377 C47.8812735,36.2791054 47.9401013,36.2542537 47.9831716,36.2304824 C48.2657553,36.0673253 48.6523381,35.6394429 49.1397686,34.9576405 L47.9443033,34.9576405 L48.036747,34.1861557 L50.1356395,34.1861557 C50.0694582,33.9408797 50.0001255,33.7096503 49.9213382,33.4957091 L50.7858971,33.3487597 Z M46.3412452,35.4665612 C46.7908578,35.8598672 47.1648347,36.2639783 47.4537213,36.6572843 L46.7898073,37.2666924 C46.5387386,36.8960772 46.1710647,36.4930466 45.6804827,36.0586812 L46.3412452,35.4665612 Z M40.1368147,36.4197879 L39.3531442,36.4197879 C39.0579546,36.7644709 38.7921789,37.0432428 38.5600191,37.2496204 C39.0516516,37.2161245 39.5432841,37.1750651 40.0286136,37.1264421 C39.9172609,36.9773316 39.7985548,36.8390262 39.6808991,36.6899157 L40.1368147,36.4197879 Z M61.3091298,36.0255095 L60.2701885,36.0255095 L60.2092597,36.5419937 L61.2471505,36.5419937 L61.3091298,36.0255095 Z M63.1453982,36.0255095 L62.074942,36.0255095 L62.0140132,36.5419937 L63.0823684,36.5419937 L63.1453982,36.0255095 Z M26.3446461,35.7801254 L24.7962138,35.7801254 L24.7279315,36.3463132 L26.2774143,36.3463132 L26.3446461,35.7801254 Z M28.7240213,35.7801254 L27.1913465,35.7801254 L27.1241147,36.3463132 L28.6567895,36.3463132 L28.7240213,35.7801254 Z M83.6773305,33.3561071 C83.7592692,33.6111077 83.837006,33.8985236 83.8947833,34.2194354 L86.8487802,34.2194354 L86.613469,36.1816433 L85.7751725,36.1816433 L85.9127876,35.0330602 L80.6918186,35.0330602 L80.5542035,36.1816433 L79.7169576,36.1816433 L79.9501679,34.2194354 L82.9598412,34.2194354 C82.8779024,33.9730789 82.7938627,33.7332055 82.693015,33.5203448 L83.6773305,33.3561071 Z M3.1651468,34.6619046 L1.96652997,34.6619046 L1.8583288,35.5814195 L3.05589513,35.5814195 L3.1651468,34.6619046 Z M58.0242264,33.512241 C58.499051,33.9487674 58.9024417,34.3820523 59.2186412,34.8099346 L58.5652322,35.4009741 C58.3026081,34.9914605 57.9097223,34.5387264 57.3907768,34.0633016 L58.0242264,33.512241 Z M46.7677469,33.5043532 C47.2047535,33.8501167 47.5787304,34.2034438 47.871819,34.5556904 L47.2089555,35.1640181 C46.9599878,34.8344622 46.5881119,34.4735716 46.0985804,34.0964732 L46.7677469,33.5043532 Z M37.3151804,33.4300141 L37.2574031,33.914083 L39.3100738,33.914083 L39.3678511,33.4300141 L40.1893396,33.4300141 L40.1315623,33.914083 L41.7598323,33.914083 L41.6684391,34.6780043 L40.040169,34.6780043 L39.9886947,35.1134502 L39.1661557,35.1134502 L39.2186806,34.6780043 L37.1660099,34.6780043 L37.1103335,35.1480265 L36.288845,35.1480265 L36.3445214,34.6780043 L34.7078474,34.6780043 L34.7992406,33.914083 L36.4359146,33.914083 L36.4926414,33.4300141 L37.3151804,33.4300141 Z M28.8815958,34.4564995 L27.348921,34.4564995 L27.2795882,35.0399754 L28.812263,35.0399754 L28.8815958,34.4564995 Z M26.5022206,34.4564995 L24.9537883,34.4564995 L24.8844556,35.0399754 L26.4328878,35.0399754 L26.5022206,34.4564995 Z M62.8386531,34.3820523 L61.241898,34.3820523 C61.4908658,34.5635781 61.7261771,34.7364599 61.9289229,34.9082611 C62.2524759,34.7440235 62.552918,34.5711417 62.8386531,34.3820523 Z M71.71061,33.5544889 L72.2579189,33.8408243 C72.0583245,34.1865879 71.8177607,34.5215463 71.5330761,34.8511021 L70.9847168,34.546398 C71.2809569,34.2114396 71.5278236,33.8818838 71.71061,33.5544889 Z M69.4667489,33.5620525 C69.5970105,33.8645956 69.7104642,34.1941514 69.7955544,34.546398 L69.1726098,34.8186868 C69.0602067,34.4243003 68.9330966,34.0796173 68.794431,33.7749132 L69.4667489,33.5620525 Z" id="形状结合" fill="#333333"></path>
            <g id="编组">
                <path d="M27.9088028,21.5049504 C27.4793071,21.5261552 26.9376167,22.0333037 26.9376167,22.0333037 L26.9376167,22.0333037 C26.9376167,22.0333037 26.5545767,25.8757927 26.4108271,27.1781216 L26.4108271,27.1781216 C26.1987089,29.116595 24.3825558,29.2473581 24.3825558,29.2473581 L24.3825558,29.2473581 L30.3244967,29.2473581 C30.3244967,29.2473581 28.181401,29.0326593 28.278695,26.8662342 L28.278695,26.8662342 L28.685401,23.0414159 C28.7984723,21.5791672 30.6321558,21.2999705 30.6321558,21.2999705 L30.6321558,21.2999705 C30.6321558,21.2999705 28.3900132,21.481095 27.9088028,21.5049504" id="Fill-19" fill="url(#linearGradient-1)"></path>
                <path d="M29.7153141,17.9946701 C27.6037732,19.2961156 26.850841,21.1462356 26.8972967,22.8417372 L26.8972967,22.8417372 C28.8054845,20.935071 29.8599402,22.0439061 31.4683576,21.079087 L31.4683576,21.079087 C33.4887402,19.8695291 32.5981941,17.6174012 30.9310497,17.6174012 L30.9310497,17.6174012 C30.556775,17.6174012 30.1430567,17.731377 29.7153141,17.9946701" id="Fill-21" fill="url(#linearGradient-2)"></path>
                <path d="M26.887129,19.2678425 C26.887129,19.2678425 26.4041656,19.7776416 26.3577099,20.6700108 C26.3182664,21.4422195 26.6872821,21.9961952 26.6872821,21.9961952 C26.6872821,21.9961952 24.8194143,21.5243881 24.7002073,19.7281637 C24.6362212,18.7553928 25.5986421,18.3692885 26.100889,18.5459953 C26.7959708,18.7898507 26.887129,19.2678425 26.887129,19.2678425" id="Fill-23" fill="#0BA84A"></path>
                <path d="M99.5720807,11.480728 L98.5246372,13.2902055 C98.0407972,14.1269121 97.0731172,14.6694019 96.0651172,14.6694019 L96.0651172,14.6694019 L79.53,14.669 L71.842,25.693 L92.098,24.432 L90.703872,19.6664047 L92.6725398,19.6664047 C93.8041294,19.6664047 94.8007346,20.4191756 95.1180355,21.5138741 L95.1180355,21.5138741 L97.3654372,29.2606994 L95.4142998,29.2606994 C94.2862163,29.2606994 93.2913642,28.5114627 92.9723103,27.4194148 L93.016,27.552 L67.8078115,29.0968444 C67.8060883,29.0972134 67.8043638,29.0975828 67.8026379,29.0979525 L65.4789788,29.2472697 L75.648,14.669 L67.4168807,14.6694019 L68.4634477,12.8590409 C68.9481642,12.0223343 69.9158442,11.480728 70.9229677,11.480728 L70.9229677,11.480728 L99.5720807,11.480728 Z M10.5167708,11.5191617 L10.328,13.37 L15.8456723,13.3706954 L14.7991054,15.1801729 C14.3152654,16.0168795 13.3484619,16.5593693 12.3395854,16.5593693 L12.3395854,16.5593693 L10.004,16.559 L9.0056473,26.3810857 C8.91098296,27.2911256 8.22466643,28.1136957 7.26049252,28.4724105 L5.1752473,29.2472697 L6.465,16.559 L0.91850713,16.5593693 L1.96507409,14.7490083 C2.44979061,13.9123017 3.41747061,13.3706954 4.42459409,13.3706954 L4.42459409,13.3706954 L7.05654469,13.3698471 C7.36698966,12.8967723 7.8484497,12.5104163 8.43152557,12.294021 L10.5167708,11.5191617 Z M15.1206136,17.4335378 L14.1801057,26.3810857 C14.0854414,27.2911256 13.3991249,28.1136957 12.434951,28.4724105 L10.3497057,29.2472697 L11.2902136,20.3006053 C11.3857544,19.3896818 12.072071,18.5679953 13.0353683,18.2092805 L15.1206136,17.4335378 Z M4.7498713,17.4335378 L3.8304,26.3810857 C3.73573565,27.2911256 3.04941913,28.1136957 2.08612174,28.4724105 L0,29.2472697 L0.919471304,20.3006053 C1.01413565,19.3896818 1.70045217,18.5679953 2.66462609,18.2092805 L4.7498713,17.4335378 Z M64.4843019,0.795622289 L63.3229106,11.9175472 C63.1914323,13.1748159 61.9572897,14.1935305 60.5644967,14.1935305 L51.75,14.193 L51.538,16.163 L65.0311638,16.1637228 L63.9845969,17.9740838 C63.4998803,18.8107904 62.5330769,19.3532802 61.5242003,19.3532802 L61.5242003,19.3532802 L59.699,19.353 L63.6540605,29.2472697 L61.4732744,29.2472697 C60.0541857,29.2472697 59.5054831,28.5466273 59.118937,27.6551416 L59.118937,27.6551416 L55.801,19.353 L51.196,19.353 L50.4418977,26.3810857 C50.3472334,27.2911256 49.6609169,28.1136957 48.696743,28.4724105 L46.6114977,29.2472697 L47.673,19.353 L43.107,19.353 L38.0622553,27.6551416 C37.4890101,28.5466273 36.7939283,29.2472697 35.3748397,29.2472697 L33.1940536,29.2472697 L39.209,19.353 L34.4721099,19.3532802 L35.5186769,17.5429193 C36.0025169,16.7062126 36.9701969,16.1637228 37.9781969,16.1637228 L37.9781969,16.1637228 L48.015,16.163 L48.226,14.193 L36.844153,14.1935305 L37.9985322,3.07337272 C38.1300104,1.81522042 39.3650296,0.795622289 40.7586991,0.795622289 L40.7586991,0.795622289 L64.4843019,0.795622289 Z M26.2193071,11.5188967 L26.022,13.37 L31.477561,13.3706954 L30.4309941,15.1801729 C29.9471541,16.0168795 28.9794741,16.5593693 27.9714741,16.5593693 L27.9714741,16.5593693 L25.684,16.559 L25.6039889,17.322831 C24.7630615,17.3456492 23.6863581,18.0256763 23.6349773,19.3064668 L23.6344445,19.4848384 C23.673888,20.6784928 23.998201,21.3694163 25.0780758,22.2821068 L25.0780758,22.2821068 L24.6371854,26.3808206 C24.542521,27.2908606 23.8562045,28.1134306 22.8920306,28.4721454 L22.8920306,28.4721454 L20.8059089,29.2470046 L22.156,16.559 L16.5503958,16.5593693 L17.5969628,14.7490083 C18.0808028,13.9123017 19.0493593,13.3706954 20.0564828,13.3706954 L20.0564828,13.3706954 L22.7595267,13.3695368 C23.0699867,12.8968829 23.551265,12.5105818 24.1340619,12.2937559 L24.1340619,12.2937559 L26.2193071,11.5188967 Z M20.4018323,17.4335378 L19.4657071,26.3810857 C19.3719193,27.2911256 18.6856028,28.1136957 17.7214289,28.4724105 L15.6361837,29.2472697 L16.5705558,20.3006053 C16.6660967,19.3896818 17.3524132,18.5679953 18.3165871,18.2092805 L20.4018323,17.4335378 Z M19.5008557,0 L19.287,2.108 L32.6434226,2.10828862 L31.5968557,3.91776608 C31.1130157,4.75447269 30.1462122,5.29696252 29.1373357,5.29696252 L29.1373357,5.29696252 L25.468,5.296 L30.7929976,10.6783909 L27.6121002,10.6783909 C26.0019297,10.6783909 25.4129071,10.2763829 24.6748758,9.54039919 L24.6748758,9.54039919 L20.416,5.296 L18.964,5.296 L18.585767,9.04473667 C18.4919791,9.9547766 17.8056626,10.7773467 16.8414887,11.1360614 L14.7562435,11.9109207 L15.425,5.296 L13.977,5.296 L8.83542678,9.54039919 C7.94312765,10.2763829 7.26995896,10.6783909 5.65978852,10.6783909 L2.47976765,10.6783909 L8.926,5.296 L2.0843687,5.29696252 L3.13181217,3.48748506 C3.61565217,2.65077845 4.58333217,2.10828862 5.59133217,2.10828862 L5.59133217,2.10828862 L15.8935243,2.1081363 C16.1852398,1.51918321 16.7308264,1.02995488 17.416487,0.774859242 L19.5008557,0 Z M48.774,9.088 L40.906,9.088 L40.707,11.004 L48.569,11.004 L48.774,9.088 Z M60.086,9.088 L52.298,9.088 L52.092,11.004 L59.886,11.004 L60.086,9.088 Z M49.3300662,3.9835375 L41.436,3.983 L41.237,5.9 L49.116,5.9 L49.3024195,4.16815959 C49.3089271,4.10617334 49.3181757,4.0445929 49.3300662,3.9835375 Z M60.618,3.983 L52.846,3.983 L52.64,5.9 L60.418,5.9 L60.618,3.983 Z M98.9619339,2.10263401 L97.915367,3.91211146 C97.431527,4.74881808 96.463847,5.2913079 95.455847,5.2913079 L95.455847,5.2913079 L69.9034852,5.2913079 L70.9500522,3.48094691 C71.4338922,2.64424029 72.4015722,2.10263401 73.4095722,2.10263401 L73.4095722,2.10263401 L98.9619339,2.10263401 Z" id="形状结合" fill="#333333"></path>
            </g>
        </g>
    </g>
</svg>