<?xml version="1.0" encoding="utf-8"?>
<!-- Generator: Adobe Illustrator 25.3.1, SVG Export Plug-In . SVG Version: 6.00 Build 0)  -->
<svg version="1.1" id="图层_1" xmlns="http://www.w3.org/2000/svg" xmlns:xlink="http://www.w3.org/1999/xlink" x="0px" y="0px"
	 viewBox="0 0 401.04 60" style="enable-background:new 0 0 401.04 60;" xml:space="preserve">
<style type="text/css">
	.st0{fill:#0670FF;}
	.st1{fill:#032142;}
</style>
<g>
	<g>
		<g>
			<path class="st0" d="M135.42,28.62c1.36-1.31,3.14-1.97,5.34-1.97c0.89,0,1.7,0.2,2.43,0.61c0.73,0.41,1.28,0.92,1.64,1.54
				l6.38-6.03c-1.21-1.39-2.7-2.37-4.48-2.93c-1.78-0.56-3.5-0.84-5.16-0.84c-2.17,0-4.24,0.35-6.23,1.04
				c-1.99,0.7-3.76,1.69-5.3,2.99c-1.55,1.3-2.82,2.85-3.83,4.67c-1,1.82-1.62,3.85-1.86,6.09c-0.24,2.24-0.04,4.27,0.58,6.09
				c0.62,1.82,1.57,3.38,2.84,4.67c1.28,1.3,2.83,2.29,4.68,2.99c1.84,0.7,3.84,1.04,6.01,1.04c1.66,0,3.44-0.28,5.34-0.84
				c1.9-0.56,3.59-1.54,5.1-2.93l-5.11-6.03c-0.56,0.58-1.22,1.08-1.96,1.51c-0.74,0.43-1.6,0.64-2.56,0.64
				c-2.21,0-3.85-0.66-4.93-1.97c-1.08-1.31-1.51-3.04-1.28-5.16C133.27,31.66,134.06,29.94,135.42,28.62z"/>
			<polygon class="st0" points="105.85,35.9 102.57,19.69 93.25,19.69 99.06,48.41 92.76,60 102.35,60 124.25,19.69 114.66,19.69 
							"/>
			<path class="st0" d="M79.37,19.7c-1.84-0.91-3.94-1.43-6.22-1.43c-8.31,0-15.79,6.81-16.67,15.19
				c-0.88,8.37,5.16,15.19,13.47,15.19c2.27,0,4.49-0.51,6.52-1.43l-0.14,1.36h7.18c0.87,0,1.59-0.65,1.68-1.52l1.43-13.6v0
				l1.59-15.12h-8.7L79.37,19.7z M77.92,33.46L77.92,33.46c-0.38,3.58-3.54,6.48-7.05,6.48c-3.51,0-6.06-2.91-5.68-6.48
				c0.38-3.58,3.54-6.48,7.05-6.48C75.75,26.98,78.3,29.89,77.92,33.46z"/>
			<path class="st0" d="M175.43,33.5c-0.09,0.81-0.2,1.65-0.35,2.52c-0.15,0.87-0.41,1.67-0.78,2.41c-0.37,0.74-0.88,1.33-1.52,1.8
				c-0.65,0.46-1.53,0.7-2.66,0.7c-0.12,0-0.23-0.01-0.35-0.02c-0.12,0-0.23,0.02-0.35,0.02c-1.12,0-1.96-0.23-2.51-0.7
				c-0.55-0.46-0.93-1.06-1.14-1.8c-0.21-0.73-0.3-1.54-0.27-2.41c0.03-0.87,0.09-1.71,0.18-2.52l1.45-13.81h-8.7l-1.64,15.55
				c-0.2,1.9-0.26,3.66-0.18,5.28c0.08,1.62,0.43,3.04,1.06,4.24c0.63,1.2,1.59,2.14,2.9,2.81c1.3,0.68,3.06,1.02,5.26,1.02h3.13
				h3.13c2.2,0,4.03-0.34,5.47-1.02c1.44-0.68,2.61-1.61,3.49-2.81c0.88-1.2,1.53-2.61,1.95-4.24c0.42-1.62,0.73-3.38,0.93-5.28
				l1.64-15.55h-8.7L175.43,33.5z"/>
			<path class="st0" d="M195.46,23.5c-5.25,5.1-5.87,11.94-5.94,13.38l-1.23,11.7h8.7l1.25-11.84l0.02-0.14l0-0.17
				c0-0.04,0.22-4.4,3-7.06c1.62-1.55,3.99-2.33,7.06-2.33l5.63,0.03l0.93-8.73h-5.64C203.63,18.34,198.99,20.08,195.46,23.5z"/>
		</g>
		<g>
			<path class="st0" d="M12.58,7.11L6.63,0.29c-0.49-0.56-1.4-0.27-1.48,0.46L3.57,15.15L12.58,7.11z"/>
			<path class="st0" d="M27.25,23.65l-7.06-7.81L14.23,9L3.16,18.88l-0.81,7.39l-0.02,0.01l-0.3,2.85v0L0,48.58h9.84l2.65-25
				l13.4,12.86l16.13-12.86l-2.61,25h8.32c0.87,0,1.59-0.65,1.68-1.51l4.91-45.61c0.08-0.77-0.83-1.24-1.41-0.72L27.25,23.65z"/>
		</g>
	</g>
	<g>
		<g>
			<polygon class="st1" points="297.14,38.8 321.15,13.37 311.5,13.37 307.5,17.53 300.23,17.53 306.68,9.84 320.74,9.84 
				321.4,3.66 311.35,3.66 313.39,1.02 311.06,1.02 310.1,1.02 304.29,1.02 302.25,3.66 291.45,3.66 290.8,9.84 297.39,9.84 
				289.74,18.76 289.24,23.53 301.7,23.53 286.98,38.8 			"/>
			<polygon class="st1" points="309.17,29.34 286.28,52.61 296.47,52.61 304.31,44.53 308.14,52.36 317.54,52.36 310.69,38.02 
				319.16,29.34 			"/>
			<polygon class="st1" points="330.43,7.06 323.25,7.06 319.4,43.54 326.58,43.54 			"/>
			<polygon class="st1" points="261.88,22.37 253.67,22.37 253.02,28.6 261.22,28.6 			"/>
			<polygon class="st1" points="260.21,38.19 252,38.19 251.34,44.43 259.55,44.43 			"/>
			<path class="st1" d="M342.92,1.14h-8.11l-4.59,43.46c-0.1,0.96-0.91,1.69-1.88,1.69h-6.35l-0.67,6.31h12.82
				c1.95,0,3.57-1.47,3.77-3.41l1.17-11.73v0L342.92,1.14z"/>
			<polygon class="st1" points="252.65,0.52 242.28,0.52 233.24,12.41 243.7,12.44 245.83,9.72 284.35,9.72 285.01,3.47 
				250.41,3.47 			"/>
			<path class="st1" d="M280.12,30.42l1.69-16.03h-43.03c-1.94,0-3.56,1.46-3.77,3.39l-1.33,12.64h-2.47l-0.65,6.16h2.47
				l-1.65,15.66l42.97,0.34c1.95,0.02,3.59-1.45,3.79-3.38l1.35-12.62h1.21h0.82l0.65-6.16h-0.82H280.12z M269.61,44.35
				c-0.1,0.96-0.92,1.7-1.88,1.69l-27.06-0.03l1-9.43h28.77L269.61,44.35z M271.08,30.42h-28.77l0.86-8.17
				c0.1-0.96,0.91-1.69,1.88-1.69h27.06L271.08,30.42z"/>
		</g>
		<g>
			<polygon class="st1" points="401.04,1.14 351.61,1.14 350.87,8.19 400.3,8.19 			"/>
			<polygon class="st1" points="383.88,29.28 386.13,45.14 356.74,45.14 367.41,25.82 398.28,25.82 398.99,18.8 348.71,18.8 
				347.98,25.82 357.7,25.82 346.23,45.9 345.58,52.11 382.31,52.14 382.31,52.14 382.33,52.14 387.12,52.14 387.18,52.54 
				396.68,52.54 393.16,29.28 			"/>
		</g>
	</g>
</g>
</svg>
