<svg width="114" height="44" viewBox="0 0 114 44" fill="none" xmlns="http://www.w3.org/2000/svg">
<g clip-path="url(#clip0_18_263)">
<path fill-rule="evenodd" clip-rule="evenodd" d="M51.5859 15.2578V16.1288C52.6941 16.1762 53.7443 16.637 54.5295 17.4203C55.3147 18.2037 55.7779 19.2528 55.8279 20.3608H56.6989C56.6483 19.0219 56.0931 17.7516 55.1447 16.8051C54.1963 15.8586 52.925 15.3058 51.5859 15.2578Z" fill="#E05E16"/>
<path fill-rule="evenodd" clip-rule="evenodd" d="M51.5859 16.8203V17.6593C52.2887 17.706 52.9507 18.0058 53.4493 18.5031C53.9479 19.0005 54.2494 19.6617 54.2979 20.3643H55.1389C55.0893 19.439 54.6987 18.5648 54.0426 17.9104C53.3866 17.256 52.5114 16.8677 51.5859 16.8203V16.8203Z" fill="#E05E16"/>
<path fill-rule="evenodd" clip-rule="evenodd" d="M14.3311 43.6671C-5.22689 41.1991 -4.18789 13.7471 13.9211 11.8371C20.8121 -5.06893 46.0981 -3.39793 50.1751 13.8631H46.3871C41.7871 -0.10993 21.0271 0.49507 16.8211 15.0421C0.527102 14.7141 -0.878889 38.8101 16.3461 40.0791H48.2461C51.9141 39.6271 54.8811 38.8011 56.9001 36.8791H62.1871C59.9371 40.3221 56.0871 42.9651 50.5481 43.6641H14.3281L14.3311 43.6671ZM51.5871 13.6771V14.5501C53.1147 14.5988 54.5664 15.2272 55.6474 16.3077C56.7284 17.3881 57.3576 18.8395 57.4071 20.3671H58.2801C58.2304 18.6079 57.5093 16.9346 56.2646 15.6905C55.0199 14.4464 53.3462 13.7259 51.5871 13.6771V13.6771Z" fill="#E57624"/>
<path fill-rule="evenodd" clip-rule="evenodd" d="M91.1797 21.9297L97.3237 29.6507L97.3167 21.9887L91.1797 21.9297Z" fill="#E57624"/>
<path fill-rule="evenodd" clip-rule="evenodd" d="M11.8563 34.7334H7.86328V25.7434H11.8563V34.7334ZM7.86328 24.7814V21.9584H11.8563V24.7814H7.86328ZM24.3693 34.7334H19.5843C17.8902 34.7334 16.2655 34.0604 15.0676 32.8625C13.8698 31.6646 13.1968 30.0399 13.1968 28.3459C13.1968 26.6518 13.8698 25.0271 15.0676 23.8292C16.2655 22.6313 17.8902 21.9584 19.5843 21.9584H24.3723V24.1994H19.5843C18.7543 24.1994 18.1966 24.726 17.9113 25.7794C17.5967 27.4759 17.5967 29.2158 17.9113 30.9124C18.196 31.9657 18.7536 32.4924 19.5843 32.4924H24.3723V34.7334H24.3693ZM38.4913 28.3394C38.5004 29.8264 37.9931 31.2704 37.0559 32.4249C36.1187 33.5794 34.8098 34.3728 33.3528 34.6696C31.8957 34.9664 30.3807 34.7481 29.0667 34.0522C27.7526 33.3562 26.7208 32.2257 26.1476 30.8536C25.5744 29.4815 25.4952 27.953 25.9236 26.529C26.3521 25.1051 27.2615 23.874 28.4967 23.046C29.7319 22.2181 31.2161 21.8445 32.6961 21.9892C34.176 22.1339 35.5599 22.7878 36.6113 23.8394C37.2143 24.4221 37.692 25.1218 38.0153 25.8955C38.3385 26.6693 38.5005 27.5009 38.4913 28.3394V28.3394ZM34.0223 28.3394C34.0517 27.4732 33.9725 26.6068 33.7863 25.7604C33.4956 24.7197 32.935 24.1994 32.1043 24.1994C31.2736 24.1994 30.716 24.7197 30.4313 25.7604C30.1167 27.4697 30.1167 29.2221 30.4313 30.9314C30.722 31.9721 31.2796 32.4924 32.1043 32.4924C32.929 32.4924 33.489 31.9721 33.7843 30.9314C33.9708 30.0806 34.0501 29.2098 34.0203 28.3394H34.0223ZM50.6303 34.7334L46.7683 23.6634C46.5795 23.1531 46.224 22.7214 45.7593 22.4384C45.3033 22.1288 44.7654 21.962 44.2143 21.9594C43.6621 21.9533 43.1224 22.1232 42.6733 22.4444C42.2233 22.7582 41.8854 23.2078 41.7093 23.7274L37.8763 34.7334H40.1013L40.6533 33.1434L41.4393 30.9024L43.2073 25.8424L44.9823 30.9024L45.7613 33.1434L46.3203 34.7334H50.6303ZM60.7393 31.0564C60.7528 31.9703 60.4417 32.8593 59.8613 33.5654C59.5961 33.9291 59.2483 34.2247 58.8465 34.4278C58.4447 34.6308 58.0005 34.7356 57.5503 34.7334H51.1643V32.4924H55.7923C55.8845 32.4941 55.9757 32.4732 56.058 32.4315C56.1403 32.3899 56.2111 32.3287 56.2643 32.2534C56.3825 32.1032 56.4466 31.9175 56.4463 31.7264C56.4463 31.4994 56.2803 31.2504 55.9463 30.9764C55.573 30.7397 55.1133 30.4344 54.5673 30.0604C54.0213 29.6864 53.384 29.247 52.6553 28.7424C52.1799 28.4066 51.7951 27.9582 51.5354 27.4372C51.2757 26.9163 51.1493 26.3392 51.1673 25.7574C51.1501 24.8249 51.4431 23.9132 52.0003 23.1654C52.2674 22.7879 52.6221 22.4808 53.0341 22.2708C53.4461 22.0607 53.9029 21.9538 54.3653 21.9594H60.7423V24.2004H56.1143C56.0269 24.1994 55.9405 24.2188 55.8619 24.257C55.7832 24.2952 55.7146 24.3511 55.6613 24.4204C55.541 24.5632 55.4763 24.7447 55.4793 24.9314C55.489 25.0666 55.5323 25.1972 55.6053 25.3114C55.6783 25.4256 55.7787 25.5198 55.8973 25.5854L58.5273 27.5484C59.1259 27.962 59.6586 28.4636 60.1073 29.0364C60.5295 29.6245 60.7521 30.3325 60.7423 31.0564H60.7393ZM72.8693 24.2004H69.9143C69.4893 24.2004 69.2793 24.3594 69.2793 24.6754V34.7334H65.2843V24.6744C65.2843 24.3584 65.0733 24.1994 64.6493 24.1994H61.6943V21.9584H72.8693V24.1994V24.2004ZM80.2013 34.7344H76.2083C75.6723 34.7407 75.1429 34.6157 74.6663 34.3704C74.4204 34.2684 74.2092 34.0976 74.0581 33.8786C73.9069 33.6595 73.8223 33.4014 73.8143 33.1354V21.9584H77.8073V32.0194C77.8073 32.3354 78.0183 32.4954 78.4423 32.4954H80.2003V34.7364L80.2013 34.7344ZM85.1403 34.7344H81.1473V21.9584H85.1403V34.7334V34.7344ZM97.2893 32.5154C97.2939 32.8159 97.2319 33.1137 97.1077 33.3873C96.9836 33.661 96.8004 33.9039 96.5713 34.0984C96.1133 34.5149 95.5143 34.7419 94.8953 34.7334C94.5725 34.756 94.249 34.7024 93.9508 34.577C93.6525 34.4516 93.3879 34.2578 93.1783 34.0114L88.6713 28.3364V34.7364H86.1243V24.1774C86.1191 23.8768 86.1809 23.5788 86.3051 23.3051C86.4293 23.0313 86.6128 22.7885 86.8423 22.5944C87.2982 22.1803 87.8935 21.9536 88.5093 21.9594C88.8343 21.9342 89.1607 21.9854 89.4624 22.1091C89.764 22.2327 90.0325 22.4253 90.2463 22.6714L97.2913 31.2714V32.5174L97.2893 32.5154ZM107.839 34.7344H100.657C100.121 34.7407 99.5919 34.6157 99.1153 34.3704C98.8694 34.2684 98.6582 34.0976 98.5071 33.8786C98.356 33.6595 98.2713 33.4014 98.2633 33.1354V23.5504C98.2724 23.2857 98.3576 23.0293 98.5087 22.8119C98.6598 22.5944 98.8704 22.4252 99.1153 22.3244C99.5919 22.0791 100.121 21.9541 100.657 21.9604H107.839V24.2014H102.892C102.467 24.2014 102.257 24.3604 102.257 24.6764V27.2274H107.84V29.4684H102.257V32.0184C102.257 32.3344 102.468 32.4944 102.892 32.4944H107.839V34.7344Z" fill="#004E9D"/>
<path d="M111.472 26.2697C111.043 26.2695 110.623 26.142 110.266 25.9035C109.91 25.6649 109.632 25.326 109.468 24.9294C109.304 24.5329 109.261 24.0966 109.345 23.6757C109.428 23.2549 109.635 22.8683 109.939 22.5649C110.242 22.2615 110.629 22.055 111.05 21.9713C111.471 21.8877 111.907 21.9307 112.303 22.095C112.7 22.2592 113.039 22.5374 113.277 22.8942C113.515 23.251 113.643 23.6705 113.643 24.0997C113.642 24.6751 113.413 25.2268 113.006 25.6336C112.599 26.0404 112.047 26.2692 111.472 26.2697V26.2697ZM111.472 22.3017C111.116 22.3017 110.768 22.4073 110.472 22.605C110.176 22.8028 109.945 23.0839 109.809 23.4129C109.672 23.7418 109.637 24.1037 109.706 24.4528C109.776 24.802 109.947 25.1227 110.199 25.3745C110.451 25.6262 110.771 25.7977 111.121 25.8671C111.47 25.9366 111.832 25.9009 112.161 25.7647C112.489 25.6284 112.771 25.3977 112.968 25.1017C113.166 24.8057 113.272 24.4577 113.272 24.1017C113.272 23.8653 113.225 23.6312 113.135 23.4129C113.044 23.1945 112.912 22.996 112.745 22.8289C112.577 22.6618 112.379 22.5292 112.161 22.4387C111.942 22.3482 111.708 22.3017 111.472 22.3017V22.3017Z" fill="#004E9D"/>
<path d="M111.759 24.299C111.89 24.2603 112.004 24.175 112.077 24.0589C112.151 23.9428 112.18 23.8038 112.159 23.668C112.159 23.181 111.928 23 111.309 23H110.729V25.2H111.095V24.354H111.39L111.967 25.201H112.404L111.759 24.299ZM111.095 23.329H111.286C111.686 23.329 111.791 23.398 111.791 23.667C111.791 23.982 111.677 24.03 111.286 24.03H111.098L111.095 23.329Z" fill="#004E9D"/>
</g>
<defs>
<clipPath id="clip0_18_263">
<rect width="113.642" height="43.667" fill="white"/>
</clipPath>
</defs>
</svg>
