<svg id="图层_1" data-name="图层 1" xmlns="http://www.w3.org/2000/svg" xmlns:xlink="http://www.w3.org/1999/xlink" viewBox="0 0 628.47 203.5"><defs><style>.cls-1{fill:#231815;}.cls-10,.cls-11,.cls-19,.cls-2,.cls-3,.cls-4,.cls-5,.cls-6,.cls-7,.cls-8,.cls-9{fill-rule:evenodd;}.cls-2{fill:url(#radial-gradient);}.cls-3{fill:url(#radial-gradient-2);}.cls-4{fill:url(#radial-gradient-3);}.cls-5{fill:url(#radial-gradient-4);}.cls-6{fill:url(#radial-gradient-5);}.cls-7{fill:url(#radial-gradient-6);}.cls-8{fill:url(#radial-gradient-7);}.cls-9{fill:url(#radial-gradient-8);}.cls-10{fill:url(#radial-gradient-9);}.cls-11{fill:url(#radial-gradient-10);}.cls-12{fill:url(#radial-gradient-11);}.cls-13{fill:url(#radial-gradient-12);}.cls-14{fill:url(#radial-gradient-13);}.cls-15{fill:url(#radial-gradient-14);}.cls-16,.cls-19{fill:#152754;}.cls-17{fill:url(#radial-gradient-15);}.cls-18{fill:url(#radial-gradient-16);}</style><radialGradient id="radial-gradient" cx="235.6" cy="317.32" r="170.89" gradientTransform="translate(-55.43 22.43) scale(1.01 1.02)" gradientUnits="userSpaceOnUse"><stop offset="0" stop-color="#cddf77"/><stop offset="0.86" stop-color="#6fba2c"/></radialGradient><radialGradient id="radial-gradient-2" cx="215.27" cy="317.33" r="170.27" gradientTransform="translate(-37 22.43) scale(1.02 1.02)" xlink:href="#radial-gradient"/><radialGradient id="radial-gradient-3" cx="215.27" cy="317.32" r="170.27" gradientTransform="translate(-37 22.43) scale(1.02 1.02)" xlink:href="#radial-gradient"/><radialGradient id="radial-gradient-4" cx="215.27" cy="317.32" r="170.27" gradientTransform="translate(-37 22.43) scale(1.02 1.02)" xlink:href="#radial-gradient"/><radialGradient id="radial-gradient-5" cx="-861.87" cy="620.86" r="169.93" gradientTransform="translate(-702.11 982.04) rotate(180) scale(1.03 1.02)" xlink:href="#radial-gradient"/><radialGradient id="radial-gradient-6" cx="259.15" cy="190.81" r="153.58" gradientTransform="translate(-28.43 22.06) scale(1.03 1.02)" gradientUnits="userSpaceOnUse"><stop offset="0" stop-color="#7ecef4"/><stop offset="1" stop-color="#0b318f"/></radialGradient><radialGradient id="radial-gradient-7" cx="269.02" cy="190.42" r="154.04" gradientTransform="translate(-37 22.43) scale(1.02 1.02)" xlink:href="#radial-gradient-6"/><radialGradient id="radial-gradient-8" cx="269.01" cy="190.42" r="154.04" gradientTransform="translate(-37 22.43) scale(1.02 1.02)" xlink:href="#radial-gradient-6"/><radialGradient id="radial-gradient-9" cx="261.55" cy="190.42" r="153.68" gradientTransform="translate(-30.5 22.43) scale(1.03 1.02)" xlink:href="#radial-gradient-6"/><radialGradient id="radial-gradient-10" cx="269.01" cy="190.42" r="154.04" gradientTransform="translate(-37 22.43) scale(1.02 1.02)" xlink:href="#radial-gradient-6"/><radialGradient id="radial-gradient-11" cx="222.22" cy="302.69" r="116.43" gradientTransform="translate(-37 22.43) scale(1.02 1.02)" gradientUnits="userSpaceOnUse"><stop offset="0" stop-color="#18943b"/><stop offset="1" stop-color="#007440"/></radialGradient><radialGradient id="radial-gradient-12" cx="250.48" cy="198.76" r="89.38" xlink:href="#radial-gradient-11"/><radialGradient id="radial-gradient-13" cx="277.48" cy="179.78" r="82.89" xlink:href="#radial-gradient-11"/><radialGradient id="radial-gradient-14" cx="259.33" cy="164.17" r="80.34" xlink:href="#radial-gradient-11"/><radialGradient id="radial-gradient-15" cx="234.03" cy="252.6" r="9.75" gradientTransform="translate(-37 22.43) scale(1.02 1.02)" gradientUnits="userSpaceOnUse"><stop offset="0" stop-color="#007941"/><stop offset="1" stop-color="#007941"/></radialGradient><radialGradient id="radial-gradient-16" cx="258.24" cy="283.23" r="21.72" gradientTransform="translate(-37 22.43) scale(1.02 1.02)" gradientUnits="userSpaceOnUse"><stop offset="0" stop-color="#00663b"/><stop offset="1" stop-color="#006d46"/></radialGradient></defs><title>深信服LOGO</title><path class="cls-1" d="M366.47,316.77,362,321.83c-1.78-2.25-4.29-5.06-7.48-8.45l4.14-4.65A91.36,91.36,0,0,1,366.47,316.77Zm.19,8.88a61.57,61.57,0,0,1-6.2,19.08l-5.81-3a75.82,75.82,0,0,0,6-18Zm1-21-4.39,4.93a84.77,84.77,0,0,0-7.59-8.52l4.3-4.6A74.58,74.58,0,0,1,367.62,304.63Zm12.84,29.29a50.37,50.37,0,0,1-13.53,9.42l-3-5.35q6.29-2.7,13.41-9.82h-9.58v-5.75h12.7v-4.71h6.69v4.71h13.62v5.75H389.82a47,47,0,0,0,13.52,9.61l-3.46,6.06a48.48,48.48,0,0,1-12.73-9.73v10.78h-6.69Zm1.66-30.28a19.4,19.4,0,0,1-3.36,10,23.21,23.21,0,0,1-7.91,6.69l-3.09-4.56a19.46,19.46,0,0,0,6.26-5.73,15.06,15.06,0,0,0,2.21-6.41h-2.82v4.49h-5.56v-9.92h33.23v9.42h-5.45v-4H390v7.7a.82.82,0,0,0,.91.94h2.78a.9.9,0,0,0,.93-.52,12.44,12.44,0,0,0,.22-3.2l5.09.83v3.45a4.64,4.64,0,0,1-1.6,3.69c-1.05.94-3.54,1.39-7.44,1.39a18.14,18.14,0,0,1-3.52-.28,3.57,3.57,0,0,1-2.27-1.57,6.1,6.1,0,0,1-.89-3.52v-8.91Z" transform="translate(-100.17 -179.41)"/><path class="cls-1" d="M421.9,345.42h-6.63V322.66Q414,325,412.13,328l-4.42-4a75.53,75.53,0,0,0,5.82-11.7,71.43,71.43,0,0,0,4.57-14.69h6.75A68.62,68.62,0,0,1,420.6,312h1.3Zm34.22-34.24h-33v-5.75h33ZM447.63,343H431.54v1.72H425V328.23h29.46v16.26h-6.78ZM451,303.14H428.9V298H451Zm2.31,15.29H425.86v-4.94h27.41Zm0,7.28H425.86v-4.92h27.41ZM431.54,338h16.09v-5H431.54Z" transform="translate(-100.17 -179.41)"/><path class="cls-1" d="M482.26,340.17a4,4,0,0,1-1.35,3.09,4.93,4.93,0,0,1-3.44,1.23h-5.4l-.7-6.08h3.79c.84,0,1.25-.34,1.25-1V326h-4.63c-.69,8.45-2.23,14.81-4.66,19.07l-4.68-2.67a45.23,45.23,0,0,0,2.77-10.64,79.19,79.19,0,0,0,.91-11.17V297.7h16.14Zm-5.85-31V302.7h-4.49v6.48Zm0,11.92v-6.94h-4.49v6.94Zm14.95,23.46h-6.25v-47h22.28V309a4.45,4.45,0,0,1-1.6,3.48,5.35,5.35,0,0,1-3.71,1.42h-5.8l-.82-5.7h4.34c.89,0,1.33-.42,1.33-1.26v-4.06h-9.77V316h16.43a45.29,45.29,0,0,1-.38,6.18,27.32,27.32,0,0,1-1.53,5.89A59.68,59.68,0,0,1,503,334a30.15,30.15,0,0,0,6.29,5.93l-3.73,4.6a47.36,47.36,0,0,1-6.24-5.67,68.1,68.1,0,0,1-5.19,5.67l-2.8-3Zm0-18.83v13.38a56.8,56.8,0,0,0,4.21-4.87A47,47,0,0,1,491.36,325.73Zm7.82,3a25.62,25.62,0,0,0,2.17-7.35h-4.92A26.8,26.8,0,0,0,499.18,328.78Z" transform="translate(-100.17 -179.41)"/><path class="cls-1" d="M524.86,328.79a34.81,34.81,0,0,1-5.51,7.79L516,332a36.65,36.65,0,0,0,4.6-6.86,50.29,50.29,0,0,0,3.86-8.68h-7v-5.78h7.36v-5.48c-2.68.47-4.84.78-6.5.91l-1-5.17a73.82,73.82,0,0,0,9-1.62,45.15,45.15,0,0,0,8.23-2.68l2.59,5.23a43,43,0,0,1-5.8,1.94v6.87h5.21v5.78h-5.21v1.71a35.91,35.91,0,0,0,5.61,6.2l-2.89,5.54c-.87-.94-1.77-2-2.72-3.19V345.6h-6.49Zm38.55,2.63-3.8.49v13.31h-6.73V332.74L536,334.89l-.2-6.18,17.13-2.18V310.46L549.49,315q-7.56-8.89-10-11.09l4.27-5.13a81.17,81.17,0,0,1,9.11,9.72V296.89h6.73v28.79l3.7-.49Zm-12.17-9.69L547,327.24A109.37,109.37,0,0,0,536.9,316L541,310.7A97.31,97.31,0,0,1,551.24,321.73Z" transform="translate(-100.17 -179.41)"/><path class="cls-1" d="M587.79,323.61a45.13,45.13,0,0,1-4.25,1.66V340a5,5,0,0,1-1.63,4,6,6,0,0,1-4.11,1.41h-5.7l-.75-6.28h4a1.43,1.43,0,0,0,1.64-1.59V327.39c-2.37.73-4.21,1.26-5.5,1.62l-1.26-6.29a67.65,67.65,0,0,0,6.76-1.47V311.8h-5.75v-5.56H577v-9.19h6.54v9.19h3.78v5.56h-3.78v7.65c1.66-.5,2.89-.92,3.69-1.23Zm28.51-8.19a31.19,31.19,0,0,1-7.78,18.1,42.29,42.29,0,0,0,10.84,4.72L616,345.18a50.25,50.25,0,0,1-12.85-6.67,45.35,45.35,0,0,1-14.68,6.67l-2.21-6.34a36.61,36.61,0,0,0,11.83-5,37.93,37.93,0,0,1-4.58-6.51,21.8,21.8,0,0,1-2.53-6.4h-2.15v-6l10.48,0v-5.4h-11v-5.9h11v-6.64h6.85v6.64h11.75v5.9H606.17v5.4l9.47,0Zm-13,14.1a22,22,0,0,0,4.88-8.59l-10.52,0A25,25,0,0,0,603.25,329.52Z" transform="translate(-100.17 -179.41)"/><path class="cls-1" d="M647.39,227.53h0c4.62,0,7.69,2.92,9.68,6.74a28.44,28.44,0,0,1,2.63,12.1h0a29.52,29.52,0,0,1-2.63,12.29c-1.9,3.91-5,6.82-9.68,6.91h0v10.75A26.19,26.19,0,0,0,670,263.66a33.58,33.58,0,0,0,4.34-17.2h0c0-10.19-3.62-17.74-9-22.75a26.7,26.7,0,0,0-17.92-6.82v10.64Zm34.47-9.19a107,107,0,0,1,18.27-1.27c9.33,0,15.84,1.27,20.27,4.64,10.49,7.55,5.61,25.21-6.33,29.21l14.57,24.76h-16c-3.8-6.65-7.51-13.2-11.22-19.84-6.6-12-6.33-11.1-2.62-11.19,13.57-.46,19.09-16.75,2.89-16.75a29.06,29.06,0,0,0-6.42.45v47.33H681.86Zm-46.86,28h0a28.43,28.43,0,0,1,2.62-12.1c1.9-3.73,5-6.64,9.41-6.74h.36V216.89h-.09a26.15,26.15,0,0,0-22.71,12.56c-7.14,11.82-5.51,30.57,4.71,39.95a26.28,26.28,0,0,0,18,6.92h.09V265.57h-.09c-4.7-.09-7.78-3-9.68-6.91A29.5,29.5,0,0,1,635,246.37ZM427.64,259.12V248.28h5.79l-5.7-17-.09.27v-14h1.63c4.44,0,6.79.82,9,6.19l19.27,52H442.93l-5.7-16.56Zm50.67-16.38v32.94h-13.4V217.52h6.88c4.89,0,6.25,0,9.5,5.37l19.09,28.4V217.52h13.39v58.16H499.93l-21.62-32.94Zm68.21,12.19V250c-.1-5.36,1.36-5.55,5.34-5.55h17.46v30c-1.18.27-2.35.46-3.44.64-18.82,3-38.18.82-43.24-17.74a40.19,40.19,0,0,1-.09-19.94,26.89,26.89,0,0,1,11-15.56c9.78-6.37,22.89-5.82,33.57-2.91l-1,9.1c-6.42-.73-17.19-1.27-23.25,2.09-9.14,5.1-10,26.3-1.18,32.13,3.44,2.27,8.87,3.09,14.3,2.82V254.93Zm67.13-37.41v10.74H591v13.56h22.62v10.92H591.3v22.94H577.82V217.52Zm-186,0v14l-5.78,16.74h5.78v10.84h-9.49L412.9,274.4l-.45,1.28H398.24l.91-2.46,20-54.51.45-1.19h8.05Zm-73.09,17.57v-2.73a16.05,16.05,0,0,1,7-12c3.35-2.18,7.51-3.18,12-3.54A51.8,51.8,0,0,1,389,218.25l1.9.46-1.35,10.19A64.76,64.76,0,0,0,377,227.63c-2.81,0-6.6.27-7.87,2.73-2.17,4,3.35,6.64,6.24,8,1.81.82,3.71,1.64,5.52,2.46H381c4.53,2.18,8,4.1,10.32,6.55,6.6,7.1,4.07,19.57-3.44,24.85a23.58,23.58,0,0,1-9.68,3.82c-7.24,1.37-15.83.18-22.71-2.37l.82-11.1c5.51,1.64,11.39,3.19,17.27,2.37,3.44-.46,7.15-1.82,7.15-5.55h0c0-1.46-1.44-2.92-3.53-4.19A68.71,68.71,0,0,0,369,251c-3.53-1.72-7.06-3.54-9.68-6A15.17,15.17,0,0,1,354.55,235.09Z" transform="translate(-100.17 -179.41)"/><path class="cls-2" d="M121.07,340.63c7.29,12,33.55,16.07,51,18.11,32.1,3.78,66.59,1.49,91.91-8.73,12.68-5.12,23-15.74,23-15.74,3.43-3.7,9.61-13.33,13-25.85-1.59-.18-4.39,5.17-12.82,9.9a78.42,78.42,0,0,1-12.32,5.1c-31.09,10.57-78.1,10.09-114.5,5.89-7.26-.85-23.63-4.41-30.38-5-5.13-.44-9.55.95-10.92,4.87C117.87,332.35,119.5,338,121.07,340.63Z" transform="translate(-100.17 -179.41)"/><path class="cls-3" d="M296.67,248.35c-2.42-4.39-8.06-10-13-12.8C239.61,210,180.61,221.49,180.61,221.49c-5.79,1.75-10.52,5.8-11.78,11.24-2.76,11.87,5.32,18.19,14.62,18.82,4.87.33,10,0,15.13,0,5.29,0,10.7,0,16,.18,31.29,1.16,71.73,2.7,88.17,18.69C302,262.76,300.53,254.46,296.67,248.35Z" transform="translate(-100.17 -179.41)"/><path class="cls-4" d="M286.21,225.62a2.16,2.16,0,0,0-.07-1.13,102.08,102.08,0,0,0-42.4-36c-3.9-1.7-7.58-3.1-10.74-4.15q-3.25-1.06-6.63-1.9c-13-2.82-23.31-3.19-39.85-1.22-5,.59-11.05,2.65-15.32,4-4,1.19-7.9,2.83-9.8,6.27a10.77,10.77,0,0,0-1.22,5.91c.57,2.77,5,4.46,8.69,4.51,5,.07,10.11-1,15.29-1.39,35.57-2.62,72,3.93,93.61,17.81A61.73,61.73,0,0,1,286.21,225.62Z" transform="translate(-100.17 -179.41)"/><path class="cls-5" d="M195.87,370.17c-5.27,0-14.07,1.15-14.41,5.51-.43,5.63,7.4,6.35,13.79,6.89,2.48.21,4.93.32,7.32.34a101.11,101.11,0,0,0,70.92-29.69C253.45,365.37,227.17,370.08,195.87,370.17Z" transform="translate(-100.17 -179.41)"/><path class="cls-6" d="M287.55,277c-48.43-12.73-85.48-7-95.08,6.89-3.15,4.56-2.67,14.53-.55,19.11,3.28,7.15,10.6,11.13,22.51,12.36,40.37,3.91,71.59-8.7,72.26-9,5.74-2.28,13.31-7.38,15.38-11.19,1.8-3.36,2.38-7.23.17-10.14C298.1,279.62,287.55,277,287.55,277Z" transform="translate(-100.17 -179.41)"/><path class="cls-7" d="M116.29,284.61c48.43,12.72,85.47,7,95.07-6.89,3.15-4.55,2.67-14.54.56-19.12-3.28-7.14-10.6-11.12-22.51-12.35-40.37-3.91-71.6,8.7-72.26,9-5.75,2.29-13.31,7.38-15.37,11.2-1.81,3.35-2.39,7.23-.2,10.13C105.74,282,116.29,284.61,116.29,284.61Z" transform="translate(-100.17 -179.41)"/><path class="cls-8" d="M245.27,233c7.35.84,23.92,4.41,30.75,5,5.19.44,9.67-.94,11.06-4.87.77-2.18.23-5.56-.71-8.3q-2.76-4.14-5.88-8c-10.61-8.33-32.11-11.52-47.12-13.26-32.51-3.78-67.43-1.5-93.05,8.72-12.83,5.13-23.23,15.74-23.23,15.74-3.48,3.71-9.73,13.33-13.18,25.85,1.61.19,4.45-5.17,13-9.9a80.14,80.14,0,0,1,12.49-5.1C160.83,228.33,208.42,228.81,245.27,233Z" transform="translate(-100.17 -179.41)"/><path class="cls-9" d="M131.54,209.74c20.17-12.62,46.82-17.48,78.65-17.58,5.26,0,14.08-1.14,14.41-5.51.43-5.62-7.4-6.34-13.8-6.89C173,176.52,143.89,196.33,133.51,206,130,209.34,128.88,211.41,131.54,209.74Z" transform="translate(-100.17 -179.41)"/><path class="cls-10" d="M244.66,308.83c-5.9-.4-12.14,0-18.31,0-6.39,0-12.93,0-19.37-.22-38-1.41-74.63-3-103.88-13.54a3.49,3.49,0,0,0-1.28,3.17c0,5.35,3.9,18.21,15.12,26.89a34.74,34.74,0,0,0,3,2c55.4,36.67,128.19,17.93,128.19,17.93l0-.07c7-2.12,12.72-7,14.25-13.55C265.66,317.2,255.9,309.59,244.66,308.83Z" transform="translate(-100.17 -179.41)"/><path class="cls-11" d="M237.52,361.62c-4.88,1.13-16.41,3.83-21.61,4.22-35.55,2.62-63.56-3.73-84.16-18.86a155.81,155.81,0,0,1-11.9-10.27,1.21,1.21,0,0,0,0,.61l-.17-.15c1.31,4.23,4.44,8.66,7.8,12.54h0A95.45,95.45,0,0,0,139,360.78l.26.08c12.89,10.47,32.48,17.33,40.36,19,13,2.84,23.36,3.21,39.94,1.23,5-.59,11-2.65,15.33-3.95,3.94-1.2,7.89-2.84,9.79-6.28a10.66,10.66,0,0,0,1.21-5.91C245.32,362.22,241.15,360.78,237.52,361.62Z" transform="translate(-100.17 -179.41)"/><path class="cls-12" d="M183.45,251.55c4.87.33,10,0,15.13,0,2.47,0,5,0,7.45,0-4-2.82-9.45-4.57-16.62-5.31a165.64,165.64,0,0,0-18.47-.73C173.73,249.19,178.41,251.21,183.45,251.55Z" transform="translate(-100.17 -179.41)"/><path class="cls-13" d="M245.27,233c7.35.84,23.92,4.41,30.75,5,3.49.29,6.63-.24,8.75-1.79-.36-.24-.72-.47-1.07-.67C239.61,210,180.61,221.49,180.61,221.49c-5.3,1.6-9.69,5.13-11.37,9.89C194.34,229.2,222,230.36,245.27,233Z" transform="translate(-100.17 -179.41)"/><path class="cls-14" d="M286.21,225.62a2.29,2.29,0,0,0-.06-1.11c-.16-.22-.31-.44-.46-.67-.39-.56-.78-1.13-1.18-1.69l-.69-1c-.5-.69-1-1.36-1.52-2l-.59-.76c-.41-.52-.84-1-1.26-1.56-7.92-6.21-21.91-9.56-34.72-11.58,12.36,3.08,23.38,7.46,32,13A61.73,61.73,0,0,1,286.21,225.62Z" transform="translate(-100.17 -179.41)"/><path class="cls-15" d="M224.6,186.65c.23-2.91-1.77-4.51-4.64-5.45-10.26-1.65-19.7-1.64-33.44,0-5,.59-11.05,2.65-15.32,4-4,1.19-7.9,2.83-9.8,6.27a10.77,10.77,0,0,0-1.22,5.91,2.91,2.91,0,0,0,.12.39c14.72-3.85,31.42-5.51,49.89-5.57C215.45,192.16,224.27,191,224.6,186.65Z" transform="translate(-100.17 -179.41)"/><path class="cls-16" d="M160.28,329.31c-7.26-.85-23.63-4.41-30.38-5-4.17-.35-7.87.5-9.85,2.93C175.44,363.8,248.1,345.1,248.1,345.1l0-.07c7-2.12,12.72-7,14.25-13.55a25.09,25.09,0,0,0,.64-4.74C232.59,333.83,192.33,333,160.28,329.31Z" transform="translate(-100.17 -179.41)"/><path class="cls-16" d="M181.46,375.68c-.23,2.91,1.78,4.52,4.65,5.45,10.25,1.66,19.7,1.64,33.43,0,5-.59,11-2.65,15.33-3.95,3.94-1.2,7.89-2.84,9.79-6.28a10.66,10.66,0,0,0,1.21-5.91c0-.13-.07-.25-.11-.38-14.72,3.85-31.43,5.51-49.89,5.56C190.6,370.18,181.8,371.32,181.46,375.68Z" transform="translate(-100.17 -179.41)"/><path class="cls-17" d="M211.36,277.72a13.16,13.16,0,0,0,1.9-5.26c-10.07,2.4-17.27,6.38-20.79,11.46a13.21,13.21,0,0,0-1.89,5.26C200.65,286.78,207.84,282.81,211.36,277.72Z" transform="translate(-100.17 -179.41)"/><path class="cls-18" d="M226.35,308.83c-6.39,0-12.93,0-19.37-.22-3.84-.14-7.65-.28-11.45-.44,4,4,10.23,6.32,18.9,7.22a170.27,170.27,0,0,0,43.32-1.49,21.7,21.7,0,0,0-13.09-5.07C238.76,308.43,232.52,308.83,226.35,308.83Z" transform="translate(-100.17 -179.41)"/><path class="cls-19" d="M131.75,347a155.81,155.81,0,0,1-11.9-10.27,1.21,1.21,0,0,0,0,.61l-.17-.15a23.51,23.51,0,0,0,1.42,3.43v0c3.42,5.66,11,9.54,19.94,12.28A85.7,85.7,0,0,1,131.75,347Z" transform="translate(-100.17 -179.41)"/></svg>