<?xml version="1.0" encoding="UTF-8"?>
<svg width="280px" height="54px" viewBox="0 0 280 54" version="1.1" xmlns="http://www.w3.org/2000/svg" xmlns:xlink="http://www.w3.org/1999/xlink">
    <title>home_logo</title>
    <g id="home_logo" stroke="none" stroke-width="1" fill="none" fill-rule="evenodd">
        <g id="编组" transform="translate(12.000000, 5.000000)">
            <g id="编组" transform="translate(3.850000, 3.850000)">
                <path d="M3.67096354,28.4952899 C4.9486059,30.6081684 9.56005035,31.3161024 12.6190816,31.6753212 C18.2560851,32.3399809 24.3123872,31.9374878 28.7566163,30.1434948 C30.982092,29.2443976 32.7853281,27.3798212 32.7853281,27.3798212 C33.3886476,26.7298663 34.473026,25.0396476 35.0700434,22.841901 C34.7914913,22.8095503 34.2990885,23.7489809 32.8201997,24.5791753 C32.2168802,24.9182274 31.393408,25.2236684 30.6556441,25.4753316 C25.1980399,27.3306649 16.9444115,27.2470573 10.5532587,26.508033 C9.27939757,26.359724 6.40522743,25.7341372 5.21917535,25.6328837 C4.32007812,25.5559983 3.54450174,25.7992587 3.30334201,26.4874462 C3.10881771,27.0424497 3.39409201,28.0360781 3.67096354,28.4952899" id="路径" fill="#9FCF65"></path>
                <path d="M34.5003351,12.2951545 C34.0755747,11.5237795 33.084467,10.5465365 32.2219219,10.0478316 C24.4821233,5.56705035 14.123599,7.57867535 14.123599,7.57867535 C13.1068628,7.88621701 12.2770885,8.59751215 12.0548351,9.55290799 C11.5704149,11.6367969 12.989224,12.7455434 14.6214635,12.8564601 C15.4772865,12.9148594 16.3847865,12.8564601 17.2784219,12.8564601 C18.2065087,12.8564601 19.1568628,12.8526788 20.0929323,12.8871302 C25.5858281,13.092158 32.6853351,13.3627274 35.5716892,16.1688351 C35.4305226,14.8248108 35.1771788,13.3660885 34.5003351,12.2951545" id="路径" fill="#8CC958"></path>
                <path d="M32.6630677,8.30467535 C32.6786128,8.25677951 32.6718906,8.18787674 32.6513038,8.10636979 C30.8131962,5.36538368 28.2369045,3.16217535 25.2064427,1.78243924 C24.5224566,1.48456076 23.8758628,1.23835937 23.3225399,1.05223785 C22.9397934,0.929137153 22.5520052,0.818640625 22.1583351,0.719907986 C19.8757205,0.225404514 18.0636615,0.159862847 15.161342,0.506057292 C14.2878733,0.609411458 13.2219809,0.971151042 12.4707726,1.20012674 C11.7767031,1.41061632 11.0830538,1.69841146 10.7498837,2.30299132 C10.6188003,2.54289062 10.4746927,3.0352934 10.536033,3.33821354 C10.6351858,3.82683507 11.4090816,4.12219271 12.0623976,4.1318559 C12.9392274,4.14446007 13.8374844,3.95497743 14.7470851,3.88817535 C20.9907691,3.42686285 27.3781406,4.57762326 31.181658,7.01358854 C31.5307934,7.23752257 32.3164531,7.92697049 32.6630677,8.30467535" id="路径" fill="#77C148"></path>
                <path d="M16.8024045,33.6819045 C15.8776788,33.6844253 14.3319878,33.8839913 14.271908,34.6490642 C14.196283,35.637651 15.5709774,35.764533 16.6935885,35.8590642 C17.1288524,35.8960365 17.5590747,35.915783 17.9792135,35.9195642 C22.8398003,35.882592 27.2357135,33.898276 30.4304497,30.7064809 C26.9113663,32.8386858 22.2986615,33.6655191 16.8024045,33.6819045" id="路径" fill="#A3D168"></path>
                <path d="M32.8975052,17.330099 C24.3955747,15.0958003 17.8914045,16.1024531 16.2062274,18.5392587 C15.6520642,19.3396233 15.7373524,21.0916024 16.1083351,21.8961684 C16.6843455,23.1494427 17.9703906,23.8493941 20.0601615,24.0649253 C27.1479045,24.7518524 32.6302969,22.5364601 32.7475156,22.4906649 C33.7554288,22.0906927 35.0834878,21.1957969 35.4464878,20.5260955 C35.7628524,19.9370608 35.8653663,19.257276 35.4784184,18.7476476 C34.7498976,17.7851094 32.8975052,17.330099 32.8975052,17.330099" id="路径" fill="#9CCE63"></path>
                <path d="M2.8311059,18.6615191 C11.3338767,20.8945573 17.835526,19.8895851 19.5219635,17.4515191 C20.0757066,16.6515747 19.9904184,14.8987552 19.6206962,14.0937691 C19.0438455,12.8409149 17.7586406,12.1418038 15.6667691,11.9271128 C8.58028646,11.2401858 3.09705382,13.4538976 2.9823559,13.5001128 C1.97234201,13.9000851 0.644282986,14.795401 0.282543403,15.4651024 C-0.0350815972,16.0532969 -0.135914931,16.7351823 0.248932292,17.2435503 C0.978293403,18.2069288 2.8311059,18.6615191 2.8311059,18.6615191" id="路径" fill="#2F5BAB"></path>
                <path d="M25.4753316,9.60458507 C26.7659983,9.75205382 29.6750399,10.3801615 30.8749566,10.4797344 C31.7862378,10.5561997 32.5714774,10.3133594 32.8164184,9.6243316 C32.9517031,9.24158507 32.8550712,8.64792882 32.6907969,8.16686979 C32.3677101,7.68328993 32.0244566,7.21525521 31.6593559,6.76612674 C29.7964601,5.30278299 26.0215122,4.74483854 23.3859809,4.43729688 C17.677974,3.77389757 11.5481476,4.17513021 7.05014062,5.96870313 C4.79567535,6.8694809 2.97143229,8.73321701 2.97143229,8.73321701 C2.36013021,9.38401215 1.26230729,11.0729705 0.657727431,13.2711372 C0.940480903,13.303908 1.43876563,12.363217 2.93572049,11.5334427 C3.54618229,11.1939705 4.37973785,10.8885295 5.12716493,10.6372865 C10.6507309,8.78111285 19.0051927,8.86472049 25.4753316,9.60458507" id="路径" fill="#4A8FCD"></path>
                <path d="M5.50907118,5.51537326 C9.04916146,3.30124132 13.7278281,2.44709896 19.3160955,2.42987326 C20.2399809,2.42861285 21.7886128,2.22904687 21.8457517,1.46355382 C21.922217,0.476227431 20.5479427,0.349765625 19.4244913,0.253553819 C12.7862969,-0.314894097 7.67614757,3.16091493 5.85358507,4.86457812 C5.23388021,5.44521007 5.04019618,5.80863021 5.50907118,5.51537326" id="路径" fill="#427FC2"></path>
                <path d="M25.3681962,22.9129045 C24.3317135,22.8427413 23.2364115,22.9129045 22.1537135,22.9129045 C21.0319427,22.9129045 19.8837031,22.917526 18.7531094,22.8746719 C12.0745816,22.6263698 5.65023785,22.351599 0.514460069,20.4966858 C0.357328125,20.6071823 0.288425347,20.7857413 0.290479484,21.0542101 C0.298088542,21.9932205 0.974932292,24.2510469 2.9445434,25.7757309 C3.11133854,25.9051337 3.28821701,26.0219323 3.46593576,26.1320087 C13.192151,32.5714774 25.972776,29.2813698 25.972776,29.2813698 L25.9689948,29.2679253 C27.1974809,28.8973628 28.2016128,28.0411198 28.4700816,26.8907795 C29.0561753,24.3829705 27.3407483,23.0469288 25.3681962,22.9129045" id="路径" fill="#274BA1"></path>
                <path d="M24.1140816,32.1803281 C23.2574184,32.3798941 21.2327691,32.8533906 20.3214878,32.921033 C14.0799045,33.3815052 9.16133854,32.2664566 5.54436285,29.6103385 C5.20909201,29.3649774 3.80204688,28.1856476 3.45585243,27.8083628 C3.4436684,27.836092 3.4436684,27.8743247 3.44828993,27.9150781 L3.41972049,27.8877691 C3.64869618,28.6305747 4.19781771,29.4095122 4.78853299,30.0901372 L4.78853299,30.0905573 C5.74602951,31.1930017 6.81528299,32.0328594 6.81528299,32.0328594 L6.86065799,32.0471441 C9.12184549,33.8865122 12.5619427,35.0897899 13.9454601,35.3901892 C16.235217,35.888474 18.0468559,35.9540156 20.9567378,35.6069809 C21.8302066,35.5019462 22.896099,35.141467 23.649408,34.9124913 C24.3417969,34.7020017 25.0346059,34.4142066 25.3681962,33.8096267 C25.5022205,33.5697274 25.6425469,33.0785851 25.5812066,32.7731441 C25.4837344,32.285783 24.7522726,32.0324392 24.1140816,32.1803281" id="路径" fill="#21409A"></path>
                <path d="M5.54436285,29.6103385 C5.20909201,29.3649774 3.80204688,28.1856476 3.45585243,27.8083628 C3.4436684,27.836092 3.4436684,27.8743247 3.44828993,27.9150781 L3.41972049,27.8877691 C3.48106076,28.0873351 3.5667691,28.2894219 3.66928299,28.4910885 C3.67012326,28.4927691 3.67012326,28.4940295 3.67012326,28.4940295 C4.27092187,29.4872378 5.60570313,30.1691233 7.17072049,30.6514427 C6.60185243,30.3363385 6.05945313,29.9888837 5.54436285,29.6103385" id="路径" fill="#262B56"></path>
            </g>
        </g>
        <path d="M75.502,45.854 C78.176,45.854 79.674,44.44 79.674,42.648 C79.674,41.22 78.96,40.226 76.286,39.526 C76.02,39.456 75.67,39.344 75.432,39.302 C73.122,38.826 72.45,38.28 72.45,37.328 C72.45,36.39 73.388,35.438 75.138,35.438 C76.846,35.438 77.812,36.278 78.05,37.678 L79.38,37.356 C79.002,35.48 77.658,34.374 75.054,34.374 C72.534,34.374 71.12,35.662 71.12,37.328 C71.12,38.91 72.1,39.736 74.816,40.31 C75.068,40.366 75.348,40.45 75.53,40.492 C77.826,41.052 78.316,41.696 78.316,42.634 C78.316,43.726 77.434,44.776 75.432,44.776 C73.472,44.776 72.324,43.95 72.002,41.962 L70.7,42.312 C71.26,44.832 72.772,45.854 75.502,45.854 Z M83.692,45.826 C85.428,45.826 86.66,45.14 87.206,44.104 C87.22,44.86 87.388,45.35 87.612,45.644 L88.844,45.644 C88.508,45.126 88.396,44.734 88.396,43.838 L88.396,40.352 L88.396,40.352 C88.396,38.294 87.626,37.342 85.036,37.342 C82.81,37.342 81.76,38.098 81.34,39.694 L82.516,39.946 C82.796,38.798 83.538,38.28 85.022,38.28 C86.772,38.28 87.164,38.854 87.164,40.128 C86.842,40.478 86.086,40.758 84.042,40.996 C81.97,41.234 81.102,42.172 81.102,43.53 C81.102,44.972 82.11,45.826 83.692,45.826 Z M84.21,44.832 C82.838,44.832 82.32,44.454 82.32,43.516 C82.32,42.592 82.824,42.032 84.686,41.808 C86.184,41.626 86.856,41.332 87.234,40.954 L87.234,42.242 C87.234,43.586 86.184,44.832 84.21,44.832 Z M91.672,45.672 L91.672,40.744 C91.784,39.274 92.82,38.336 94.094,38.336 C95.48,38.336 96.138,39.064 96.138,40.688 L96.138,45.672 L97.356,45.672 L97.356,40.506 C97.356,38.42 96.544,37.356 94.472,37.356 C93.282,37.356 92.148,38.112 91.672,39.106 L91.672,37.552 L90.454,37.552 L90.454,45.672 L91.672,45.672 Z M102.424,48.556 C105.336,48.556 106.344,47.464 106.344,44.454 L106.344,37.524 L105.112,37.524 L105.112,38.798 C104.706,37.972 103.754,37.342 102.41,37.342 C100.268,37.342 98.924,38.896 98.924,41.402 C98.924,44.048 100.268,45.378 102.284,45.378 C103.698,45.378 104.65,44.818 105.112,43.838 L105.112,44.944 C105.112,46.708 104.398,47.59 102.508,47.59 C101.542,47.59 100.646,47.212 100.212,46.582 L99.19,46.862 C99.694,47.954 100.912,48.556 102.424,48.556 Z M102.662,44.426 C101.276,44.426 100.156,43.586 100.156,41.388 C100.156,39.512 101.108,38.322 102.76,38.322 C104.174,38.322 105.126,39.414 105.112,40.73 L105.112,41.71 C105.112,43.53 104.146,44.426 102.662,44.426 Z M110.012,45.644 L110.012,38.518 L111.818,38.518 L111.818,37.538 L110.012,37.538 L110.012,36.516 C110.012,35.508 110.278,35.158 111.216,35.158 C111.608,35.158 112.014,35.256 112.224,35.382 L112.546,34.5 C112.196,34.332 111.426,34.164 110.88,34.164 C109.396,34.164 108.78,34.822 108.78,36.488 L108.78,37.538 L107.352,37.538 L107.352,38.518 L108.78,38.518 L108.794,45.644 L110.012,45.644 Z M116.27,45.854 C118.804,45.854 120.204,44.272 120.204,41.598 C120.204,39.106 118.79,37.37 116.396,37.37 C113.68,37.37 112.392,39.246 112.392,41.682 C112.392,44.188 113.988,45.854 116.27,45.854 Z M116.312,44.874 C114.856,44.874 113.652,43.754 113.652,41.654 C113.652,39.582 114.646,38.35 116.326,38.35 C117.852,38.35 118.916,39.596 118.916,41.626 C118.916,43.74 117.88,44.874 116.312,44.874 Z M122.934,45.658 L122.934,41.304 C122.934,39.498 123.732,38.504 124.866,38.504 C125.356,38.504 125.748,38.63 126.028,38.882 L126.518,37.748 C126.112,37.496 125.706,37.356 125.048,37.356 C124.152,37.356 123.326,37.958 122.948,39.064 L122.934,39.064 L122.934,37.538 L121.702,37.538 L121.702,45.658 L122.934,45.658 Z M131.712,45.672 L133.042,42.326 L138.264,42.326 L139.594,45.672 L140.994,45.672 L136.36,34.5 L134.918,34.5 L130.34,45.672 L131.712,45.672 Z M137.914,41.29 L133.42,41.29 L135.632,35.676 L135.674,35.676 L137.914,41.29 Z M145.432,45.826 C147.476,45.826 148.582,44.986 149.058,42.928 L147.784,42.704 C147.616,44.076 146.734,44.804 145.488,44.804 C143.976,44.804 142.898,43.782 142.898,41.598 C142.898,39.484 143.92,38.35 145.474,38.35 C146.664,38.35 147.476,39.26 147.686,40.1 L148.946,39.834 C148.54,38.406 147.224,37.342 145.404,37.342 C143.066,37.342 141.624,38.98 141.624,41.598 C141.624,44.44 143.192,45.826 145.432,45.826 Z M153.72,45.826 C155.764,45.826 156.87,44.986 157.346,42.928 L156.072,42.704 C155.904,44.076 155.022,44.804 153.776,44.804 C152.264,44.804 151.186,43.782 151.186,41.598 C151.186,39.484 152.208,38.35 153.762,38.35 C154.952,38.35 155.764,39.26 155.974,40.1 L157.234,39.834 C156.828,38.406 155.512,37.342 153.692,37.342 C151.354,37.342 149.912,38.98 149.912,41.598 C149.912,44.44 151.48,45.826 153.72,45.826 Z M162.176,45.826 C164.164,45.826 165.41,44.986 165.9,43.362 L164.598,43.124 C164.318,44.23 163.478,44.846 162.12,44.846 C160.58,44.846 159.446,43.81 159.446,41.976 L165.914,41.976 L165.914,41.696 L165.914,41.696 C165.914,39.106 164.724,37.342 162.05,37.342 C159.67,37.342 158.158,39.022 158.158,41.668 C158.158,44.342 159.824,45.826 162.176,45.826 Z M164.626,41.08 L159.446,41.08 C159.446,39.512 160.44,38.308 162.092,38.308 C163.8,38.308 164.626,39.484 164.626,41.08 Z M170.674,45.84 C172.942,45.84 174.006,44.874 174.006,43.432 C174.006,42.368 173.46,41.64 171.668,41.206 C171.374,41.136 171.066,41.066 170.772,41.01 C168.966,40.674 168.574,40.324 168.574,39.624 C168.574,38.84 169.19,38.28 170.478,38.28 C171.584,38.28 172.242,38.798 172.452,39.708 L173.684,39.47 C173.292,38.07 172.256,37.356 170.38,37.356 C168.378,37.356 167.328,38.35 167.328,39.652 C167.328,40.814 168.042,41.43 170.114,41.85 C170.45,41.92 170.786,42.004 171.08,42.074 C172.48,42.396 172.76,42.816 172.76,43.432 C172.76,44.23 172.13,44.888 170.618,44.888 C169.316,44.888 168.518,44.398 168.238,43.11 L167.034,43.348 C167.524,45.154 168.504,45.84 170.674,45.84 Z M178.934,45.84 C181.202,45.84 182.266,44.874 182.266,43.432 C182.266,42.368 181.72,41.64 179.928,41.206 C179.634,41.136 179.326,41.066 179.032,41.01 C177.226,40.674 176.834,40.324 176.834,39.624 C176.834,38.84 177.45,38.28 178.738,38.28 C179.844,38.28 180.502,38.798 180.712,39.708 L181.944,39.47 C181.552,38.07 180.516,37.356 178.64,37.356 C176.638,37.356 175.588,38.35 175.588,39.652 C175.588,40.814 176.302,41.43 178.374,41.85 C178.71,41.92 179.046,42.004 179.34,42.074 C180.74,42.396 181.02,42.816 181.02,43.432 C181.02,44.23 180.39,44.888 178.878,44.888 C177.576,44.888 176.778,44.398 176.498,43.11 L175.294,43.348 C175.784,45.154 176.764,45.84 178.934,45.84 Z" id="SangforAccess" fill="#44444F" fill-rule="nonzero"></path>
        <path d="M72.428,15.21 L73.31,13.806 C72.626,13.284 71.294,12.546 70.34,12.114 L69.476,13.374 C70.466,13.896 71.78,14.688 72.428,15.21 Z M75.38,16.218 L75.38,14.256 L83.03,14.256 L83.03,16.146 L84.56,16.146 L84.56,12.834 L73.904,12.834 L73.904,16.218 L75.38,16.218 Z M83.12,19.692 L84.398,18.792 C83.714,17.748 82.22,16.2 80.996,15.12 L79.79,15.912 C81.032,17.064 82.49,18.666 83.12,19.692 Z M74.858,19.746 C76.172,18.792 77.63,17.28 78.512,15.75 L76.982,15.264 C76.244,16.542 74.966,17.802 73.67,18.594 C74.03,18.864 74.606,19.44 74.858,19.746 Z M71.852,20.142 L72.698,18.756 C71.978,18.198 70.556,17.406 69.512,16.938 L68.702,18.198 C69.764,18.72 71.168,19.566 71.852,20.142 Z M80.042,28.296 L80.042,23.166 C81.086,24.912 82.526,26.514 83.984,27.468 C84.254,27.036 84.794,26.46 85.154,26.136 C83.57,25.29 81.986,23.706 80.996,22.032 L84.596,22.032 L84.596,20.52 L80.042,20.52 L80.042,18.648 L78.35,18.648 L78.35,20.52 L73.832,20.52 L73.832,22.032 L77.378,22.032 C76.316,23.832 74.642,25.416 72.806,26.244 C73.184,26.55 73.67,27.126 73.922,27.522 C75.65,26.604 77.234,25.02 78.35,23.148 L78.35,28.296 L80.042,28.296 Z M70.304,28.152 C71.222,26.46 72.248,24.336 73.058,22.482 L71.96,21.348 C71.042,23.364 69.872,25.632 69.062,26.964 L70.304,28.152 Z M103.064,16.146 L103.064,14.778 L97.16,14.778 L98.456,14.22 C98.186,13.572 97.646,12.6 97.16,11.88 L95.72,12.438 C96.17,13.158 96.674,14.13 96.926,14.778 L91.652,14.778 L91.652,16.146 L103.064,16.146 Z M90.554,28.458 L90.554,15.822 C91.094,14.724 91.598,13.554 92.012,12.42 L90.5,11.97 C89.618,14.58 88.178,17.208 86.612,18.9 C86.882,19.278 87.35,20.142 87.512,20.502 C88.016,19.908 88.538,19.242 89.024,18.486 L89.024,28.458 L90.554,28.458 Z M101.696,18.72 L101.696,17.388 L92.93,17.388 L92.93,18.72 L101.696,18.72 Z M101.696,21.258 L101.696,19.926 L92.93,19.926 L92.93,21.258 L101.696,21.258 Z M94.1,28.404 L94.1,27.756 L100.418,27.756 L100.418,28.35 L101.894,28.35 L101.894,22.572 L92.678,22.572 L92.678,28.404 L94.1,28.404 Z M100.418,26.406 L94.1,26.406 L94.1,23.922 L100.418,23.922 L100.418,26.406 Z M105.98,28.458 C106.772,26.802 107.114,24.57 107.276,22.446 L109.706,22.446 L109.706,26.496 C109.706,26.748 109.616,26.82 109.4,26.838 C109.3025,26.838 109.120625,26.841125 108.888229,26.8421667 L108.587271,26.8420833 C108.319875,26.840625 108.0155,26.835 107.708,26.82 C107.924,27.234 108.122,28.008 108.158,28.422 C109.364,28.44 110.102,28.404 110.606,28.116 C111.11,27.846 111.254,27.342 111.254,26.532 L111.254,12.546 L105.89,12.546 L105.89,18.972 C105.89,21.6 105.8,25.2 104.612,27.684 C105.008,27.828 105.692,28.206 105.98,28.458 Z M120.398,28.44 C120.65,28.026 121.1,27.45 121.478,27.144 C120.398,26.64 119.444,25.884 118.616,24.984 C119.696,23.382 120.506,21.402 120.938,18.99 L119.966,18.648 L119.696,18.702 L114.17,18.702 L114.17,14.148 L118.814,14.148 L118.814,16.02 C118.814,16.236 118.724,16.29 118.436,16.29 C118.352,16.296 118.184,16.3 117.960667,16.3013333 L117.667941,16.3016107 C117.24712,16.30016 116.714,16.2912 116.186,16.272 C116.384,16.668 116.636,17.262 116.708,17.694 L117.296126,17.6931479 C118.32587,17.6884615 119.090923,17.658 119.624,17.46 C120.254,17.244 120.416,16.812 120.416,16.038 L120.416,12.582 L112.586,12.582 L112.586,28.422 L114.17,28.422 L114.17,27.144 C114.512,27.432 114.926,27.972 115.142,28.35 C116.078,27.792 116.906,27.09 117.662,26.226 C118.454,27.126 119.372,27.882 120.398,28.44 Z M109.706,16.65 L107.402,16.65 L107.402,14.094 L109.706,14.094 L109.706,16.65 Z M109.706,20.862 L107.366,20.862 C107.402,20.196 107.402,19.548 107.402,18.972 L107.402,18.216 L109.706,18.216 L109.706,20.862 Z M114.17,27.108 L114.17,20.232 L114.494,20.232 C115.034,21.996 115.772,23.616 116.726,24.984 C115.97,25.884 115.106,26.622 114.17,27.108 Z M117.626,23.706 C116.906,22.662 116.33,21.492 115.916,20.232 L119.138,20.232 C118.778,21.528 118.256,22.68 117.626,23.706 Z M137.138,14.94 L137.138,13.23 L125.006,13.23 L125.006,14.94 L137.138,14.94 Z M137.03,28.494 L138.65,27.522 C137.768,25.866 136.004,23.292 134.51,21.294 L132.98,22.104 C133.61,22.986 134.33,23.994 134.996,25.02 L126.806,25.614 C128.138,23.994 129.506,22.014 130.622,19.944 L138.992,19.944 L138.992,18.234 L123.026,18.234 L123.026,19.944 L128.282,19.944 C127.184,22.104 125.816,24.066 125.312,24.642 C124.754,25.344 124.358,25.794 123.908,25.902 C124.16,26.442 124.448,27.396 124.556,27.774 C125.320308,27.4749231 126.345349,27.4059053 133.931206,26.7741274 L135.119078,26.675041 C135.394335,26.6520398 135.677231,26.6283692 135.968,26.604 C136.4,27.306 136.778,27.954 137.03,28.494 Z M143.33,17.676 L143.33,15.462 L154.616,15.462 L154.616,17.676 L156.398,17.676 L156.398,13.896 L150.044,13.896 C149.774,13.284 149.378,12.492 149.018,11.844 L147.29,12.258 C147.542,12.762 147.812,13.374 148.046,13.896 L141.638,13.896 L141.638,17.676 L143.33,17.676 Z M142.412,28.386 C145.346,27.81 147.776,26.928 149.684,25.506 C151.898,26.478 153.914,27.504 155.192,28.368 L156.56,26.946 C155.21,26.118 153.23,25.164 151.124,24.264 C152.114,23.22 152.906,21.96 153.482,20.43 L156.83,20.43 L156.83,18.846 L148.118,18.846 C148.532,18.036 148.946,17.19 149.27,16.416 L147.434,16.038 C147.074,16.938 146.624,17.892 146.102,18.846 L141.224,18.846 L141.224,20.43 L145.166,20.43 C144.572,21.42 143.924,22.32 143.366,23.058 L143.348,23.076 C144.77,23.526 146.354,24.12 147.884,24.732 C146.174,25.794 143.996,26.442 141.404,26.856 C141.728,27.216 142.232,27.972 142.412,28.386 Z M149.432,23.58 C148.28,23.13 147.11,22.698 146.012,22.338 C146.408,21.762 146.804,21.114 147.218,20.43 L151.556,20.43 C151.052,21.69 150.35,22.716 149.432,23.58 Z M174.668,27.954 L174.668,26.46 L167.882,26.46 L167.882,23.85 L172.436,23.85 L172.436,22.392 L167.882,22.392 L167.882,19.89 L172.508,19.89 L172.508,18.756 C173.12,19.134 173.768,19.512 174.434,19.89 C174.668,19.404 175.154,18.81 175.568,18.468 C172.688,17.064 170.114,15.336 167.936,12.888 C168.044,12.726 168.152,12.582 168.26,12.42 L166.766,11.718 C164.984,14.526 161.726,17.028 158.486,18.432 C158.918,18.792 159.386,19.386 159.638,19.8 C160.286,19.494 160.952,19.116 161.582,18.738 L161.582,19.89 L166.118,19.89 L166.118,22.392 L161.762,22.392 L161.762,23.85 L166.118,23.85 L166.118,26.46 L159.44,26.46 L159.44,27.954 L174.668,27.954 Z M172.004,18.414 L162.068,18.414 C163.886,17.208 165.614,15.75 166.982,14.112 C168.548,15.84 170.204,17.208 172.004,18.414 Z M183.326,28.494 C185.504,26.604 186.332,23.76 186.656,20.502 L190.238,20.502 C190.076,24.534 189.842,26.136 189.482,26.532 C189.302,26.73 189.14,26.784 188.834,26.766 L188.6245,26.7655833 C188.2145,26.7635 187.517,26.751 186.782,26.676 C187.052,27.126 187.25,27.792 187.286,28.278 C188.168,28.314 189.068,28.314 189.59,28.26 C190.148,28.188 190.562,28.026 190.904,27.576 C191.48,26.928 191.696,24.966 191.93,19.656 C191.93,19.44 191.948,18.936 191.948,18.936 L186.782,18.936 C186.818,18.18 186.854,17.388 186.872,16.614 L193.172,16.614 L193.172,14.976 L187.574,14.976 L189.014,14.526 C188.852,13.842 188.438,12.726 188.132,11.88 L186.512,12.294 C186.818,13.14 187.178,14.274 187.322,14.976 L182.714,14.976 L182.714,16.614 L185.198,16.614 C185.108,20.97 184.856,25.002 182.138,27.288 C182.552,27.558 183.056,28.08 183.326,28.494 Z M180.644,15.966 L181.85,14.778 C181.274,14.094 180.086,12.942 179.24,12.132 L178.088,13.14 C178.934,14.004 180.068,15.228 180.644,15.966 Z M179.402,27.756 C179.69,27.324 180.194,26.838 183.578,24.246 C183.398,23.94 183.182,23.328 183.056,22.896 L181.13,24.3 L181.13,17.406 L176.864,17.406 L176.864,19.008 L179.456,19.008 L179.456,24.552 C179.456,25.398 178.772,26.1 178.376,26.37 C178.7,26.676 179.222,27.36 179.402,27.756 Z M198.428,15.912 L199.724,14.994 C199.112,14.238 197.87,12.978 196.97,12.096 L195.782,12.888 C196.664,13.842 197.87,15.138 198.428,15.912 Z M209.552,28.008 C210.182,27.738 210.398,27.252 210.398,26.262 L210.398,12.852 L200.354,12.852 L200.354,14.4 L208.724,14.4 L208.724,26.244 C208.724,26.568 208.616,26.658 208.31,26.676 C208.214,26.682 208.026,26.686 207.780667,26.6873333 L207.460965,26.6876107 C207.00392,26.68616 206.4356,26.6772 205.898,26.658 C206.132,27.09 206.384,27.846 206.456,28.296 C207.95,28.314 208.94,28.278 209.552,28.008 Z M197.258,28.422 L197.258,16.02 L195.602,16.02 L195.602,28.422 L197.258,28.422 Z M201.254,25.092 L201.254,23.994 L206.168,23.994 L206.168,17.334 L199.742,17.334 L199.742,25.092 L201.254,25.092 Z M204.53,22.482 L201.254,22.482 L201.254,18.846 L204.53,18.846 L204.53,22.482 Z M213.98,28.458 C214.772,26.802 215.114,24.57 215.276,22.446 L217.706,22.446 L217.706,26.496 C217.706,26.748 217.616,26.82 217.4,26.838 C217.3025,26.838 217.120625,26.841125 216.888229,26.8421667 L216.587271,26.8420833 C216.319875,26.840625 216.0155,26.835 215.708,26.82 C215.924,27.234 216.122,28.008 216.158,28.422 C217.364,28.44 218.102,28.404 218.606,28.116 C219.11,27.846 219.254,27.342 219.254,26.532 L219.254,12.546 L213.89,12.546 L213.89,18.972 C213.89,21.6 213.8,25.2 212.612,27.684 C213.008,27.828 213.692,28.206 213.98,28.458 Z M228.398,28.44 C228.65,28.026 229.1,27.45 229.478,27.144 C228.398,26.64 227.444,25.884 226.616,24.984 C227.696,23.382 228.506,21.402 228.938,18.99 L227.966,18.648 L227.696,18.702 L222.17,18.702 L222.17,14.148 L226.814,14.148 L226.814,16.02 C226.814,16.236 226.724,16.29 226.436,16.29 C226.352,16.296 226.184,16.3 225.960667,16.3013333 L225.667941,16.3016107 C225.24712,16.30016 224.714,16.2912 224.186,16.272 C224.384,16.668 224.636,17.262 224.708,17.694 L225.296126,17.6931479 C226.32587,17.6884615 227.090923,17.658 227.624,17.46 C228.254,17.244 228.416,16.812 228.416,16.038 L228.416,12.582 L220.586,12.582 L220.586,28.422 L222.17,28.422 L222.17,27.144 C222.512,27.432 222.926,27.972 223.142,28.35 C224.078,27.792 224.906,27.09 225.662,26.226 C226.454,27.126 227.372,27.882 228.398,28.44 Z M217.706,16.65 L215.402,16.65 L215.402,14.094 L217.706,14.094 L217.706,16.65 Z M217.706,20.862 L215.366,20.862 C215.402,20.196 215.402,19.548 215.402,18.972 L215.402,18.216 L217.706,18.216 L217.706,20.862 Z M222.17,27.108 L222.17,20.232 L222.494,20.232 C223.034,21.996 223.772,23.616 224.726,24.984 C223.97,25.884 223.106,26.622 222.17,27.108 Z M225.626,23.706 C224.906,22.662 224.33,21.492 223.916,20.232 L227.138,20.232 C226.778,21.528 226.256,22.68 225.626,23.706 Z M231.548,20.646 C234.122,20.34 236.75,19.818 239.09,18.954 C241.142,19.764 243.608,20.214 246.344,20.43 C246.542,19.998 246.92,19.314 247.28,18.954 C245.03,18.828 242.924,18.558 241.124,18.09 C243.05,17.136 244.67,15.876 245.732,14.292 L244.706,13.608 L244.418,13.68 L237.434,13.68 C237.812,13.212 238.154,12.726 238.442,12.24 L236.732,11.898 C235.814,13.428 234.086,15.156 231.566,16.398 C231.908,16.65 232.376,17.28 232.574,17.658 C233.42,17.226 234.176,16.722 234.842,16.2 C235.526,16.92 236.3,17.532 237.2,18.054 C235.202,18.612 233.042,18.99 230.9,19.188 C231.152,19.566 231.422,20.232 231.548,20.646 Z M239.09,17.424 C237.758,16.866 236.678,16.164 235.94,15.3 L236.138,15.102 L243.05,15.102 C242.024,16.038 240.656,16.794 239.09,17.424 Z M232.016,28.404 C235.4,27.522 237.56,26.064 238.73,23.274 L243.896,23.274 C243.59,25.326 243.266,26.334 242.852,26.658 C242.654,26.82 242.438,26.838 242.042,26.838 C241.574,26.838 240.368,26.82 239.216,26.712 C239.504,27.126 239.738,27.738 239.756,28.17 C240.854,28.242 241.952,28.242 242.546,28.206 C243.284,28.17 243.734,28.062 244.184,27.666 C244.832,27.09 245.228,25.704 245.642,22.518 C245.662,22.398 245.687556,22.2002222 245.706321,22.0481235 L245.72479,21.8954321 C245.729333,21.8571111 245.732,21.834 245.732,21.834 L239.216,21.834 C239.36,21.366 239.468,20.844 239.558,20.304 L237.812,20.16 C237.74,20.772 237.632,21.33 237.488,21.834 L232.268,21.834 L232.268,23.274 L236.93,23.274 C235.886,25.308 233.978,26.424 231.062,27 C231.368,27.324 231.854,28.026 232.016,28.404 Z" id="深信服云安全访问服务" fill="#171725" fill-rule="nonzero"></path>
    </g>
</svg>