<?xml version="1.0" encoding="utf-8"?>
<svg viewBox="52.36110305786133 38.98816680908203 401.0029602050781 91.8709945678711" width="401.0029602050781" height="91.8709945678711" xmlns="http://www.w3.org/2000/svg">
  <g id="svgg" transform="matrix(1, 0, 0, 1, 52.36110305786132, 39.09516525268555)">
    <path id="path0" d="M284.702 0.469 C 284.426 0.644,283.515 0.791,282.677 0.794 C 281.840 0.797,280.400 0.965,279.477 1.167 C 278.555 1.369,276.720 1.753,275.400 2.021 C 274.080 2.289,271.470 2.949,269.600 3.487 C 267.730 4.026,265.930 4.500,265.600 4.541 C 265.270 4.582,264.595 4.843,264.100 5.122 C 263.605 5.400,263.200 5.541,263.200 5.434 C 263.200 5.247,261.481 5.896,259.000 7.020 C 258.340 7.319,257.530 7.617,257.200 7.682 C 256.870 7.747,256.510 7.893,256.400 8.006 C 256.290 8.119,254.760 8.942,253.000 9.835 C 251.240 10.728,248.810 11.973,247.600 12.602 C 245.153 13.874,237.165 19.142,236.706 19.787 C 236.544 20.014,236.409 20.079,236.406 19.930 C 236.400 19.672,235.180 20.602,233.558 22.100 C 233.141 22.485,232.710 22.800,232.600 22.800 C 232.387 22.800,231.813 23.300,229.271 25.700 C 228.397 26.525,227.571 27.200,227.434 27.200 C 227.112 27.200,216.800 37.537,216.800 37.860 C 216.800 38.076,216.098 38.863,212.500 42.681 C 212.005 43.207,211.600 43.793,211.600 43.985 C 211.600 44.177,211.465 44.393,211.300 44.467 C 211.135 44.540,210.463 45.320,209.807 46.200 C 208.222 48.324,207.540 49.172,206.700 50.060 C 206.315 50.467,206.135 50.803,206.300 50.806 C 206.465 50.809,206.408 50.944,206.174 51.106 C 205.939 51.268,205.138 52.300,204.393 53.400 C 203.648 54.500,202.816 55.626,202.545 55.902 C 202.274 56.179,201.938 56.764,201.799 57.202 C 201.660 57.641,201.369 58.000,201.152 58.000 C 200.936 58.000,200.570 58.540,200.340 59.200 C 200.110 59.860,199.779 60.400,199.604 60.400 C 199.430 60.400,199.183 60.805,199.056 61.300 C 198.929 61.795,198.414 62.655,197.912 63.210 C 197.411 63.766,196.644 64.936,196.210 65.810 C 195.775 66.685,195.023 68.030,194.538 68.800 C 193.457 70.516,190.668 75.662,189.714 77.700 C 189.327 78.525,188.874 79.200,188.706 79.200 C 188.538 79.200,188.400 79.450,188.400 79.755 C 188.400 80.060,187.554 82.085,186.520 84.255 C 185.486 86.425,184.616 88.290,184.586 88.400 C 184.557 88.510,184.323 89.107,184.066 89.726 C 183.810 90.345,183.600 90.935,183.600 91.037 C 183.600 91.139,186.075 91.172,189.100 91.111 C 192.125 91.050,194.510 90.884,194.400 90.742 C 194.290 90.600,194.560 90.086,195.000 89.600 C 195.440 89.114,195.768 88.600,195.729 88.458 C 195.649 88.171,196.832 85.514,197.179 85.200 C 197.301 85.090,197.454 84.749,197.519 84.443 C 197.716 83.520,201.705 75.418,202.087 75.163 C 202.283 75.033,202.404 74.763,202.358 74.563 C 202.244 74.075,202.804 72.738,203.432 72.000 C 203.713 71.670,203.971 71.220,204.006 71.000 C 204.040 70.780,204.386 69.908,204.774 69.062 L 205.479 67.523 206.552 69.354 C 207.142 70.361,207.575 71.234,207.514 71.293 C 207.453 71.352,207.786 71.940,208.255 72.600 C 209.049 73.719,209.421 74.345,211.643 78.300 C 212.106 79.125,212.645 79.997,212.839 80.237 C 213.034 80.477,213.075 80.792,212.930 80.937 C 212.785 81.082,212.877 81.200,213.133 81.200 C 213.390 81.200,213.600 81.378,213.600 81.596 C 213.600 81.814,214.410 83.255,215.400 84.800 C 216.390 86.345,217.200 87.745,217.200 87.911 C 217.200 88.078,217.656 88.886,218.214 89.707 L 219.229 91.200 227.414 91.200 C 231.916 91.200,235.600 91.137,235.600 91.060 C 235.600 90.703,232.042 84.323,231.562 83.820 C 231.363 83.611,231.200 83.116,231.200 82.720 C 231.200 82.324,231.049 82.000,230.864 82.000 C 230.474 82.000,228.174 77.948,228.310 77.500 C 228.359 77.335,228.249 77.200,228.064 77.200 C 227.696 77.200,226.618 75.181,226.730 74.700 C 226.769 74.535,226.624 74.400,226.409 74.400 C 226.194 74.400,225.679 73.725,225.263 72.900 C 223.557 69.511,222.584 67.793,222.300 67.667 C 222.135 67.593,222.000 67.278,222.000 66.967 C 222.000 66.655,221.841 66.400,221.647 66.400 C 221.341 66.400,220.872 65.275,220.869 64.536 C 220.869 64.400,220.714 64.179,220.525 64.045 C 220.112 63.750,219.090 62.169,217.837 59.884 C 217.329 58.958,216.423 57.346,215.823 56.301 L 214.733 54.403 215.606 52.991 C 216.086 52.214,216.744 51.314,217.068 50.989 C 217.392 50.665,217.520 50.400,217.353 50.400 C 217.186 50.400,217.398 50.049,217.825 49.619 C 218.949 48.487,219.600 47.669,219.600 47.388 C 219.600 47.253,219.825 46.911,220.100 46.627 C 220.375 46.343,221.079 45.501,221.664 44.756 C 224.559 41.070,225.172 40.353,225.473 40.305 C 225.653 40.277,226.366 39.521,227.058 38.627 C 228.325 36.988,234.997 30.400,235.389 30.400 C 235.505 30.400,235.923 30.085,236.318 29.700 C 237.410 28.637,240.442 26.220,240.897 26.050 C 241.119 25.968,241.610 25.608,241.990 25.250 C 243.312 24.004,244.469 23.151,245.431 22.713 C 245.964 22.470,246.400 22.110,246.400 21.912 C 246.400 21.715,246.580 21.664,246.800 21.800 C 247.020 21.936,247.200 21.895,247.200 21.709 C 247.200 21.352,252.015 18.457,252.458 18.547 C 252.600 18.576,253.095 18.257,253.558 17.838 C 254.021 17.419,254.403 17.239,254.406 17.438 C 254.409 17.637,254.544 17.620,254.706 17.400 C 255.138 16.812,256.697 16.000,257.395 16.000 C 257.728 16.000,258.001 15.865,258.003 15.700 C 258.007 15.341,259.944 14.400,260.680 14.400 C 260.966 14.400,261.200 14.220,261.200 14.000 C 261.200 13.780,261.375 13.600,261.588 13.600 C 261.802 13.600,262.927 13.168,264.088 12.641 C 267.855 10.929,269.279 10.402,269.597 10.598 C 269.769 10.704,270.114 10.545,270.364 10.244 C 270.614 9.943,271.399 9.562,272.109 9.397 C 272.819 9.233,273.580 9.043,273.800 8.975 C 274.020 8.908,274.785 8.673,275.500 8.454 C 276.215 8.235,276.800 8.155,276.800 8.277 C 276.800 8.398,277.052 8.289,277.359 8.034 C 277.667 7.779,278.252 7.503,278.659 7.422 C 279.067 7.341,280.810 6.902,282.533 6.448 C 284.256 5.994,285.786 5.646,285.933 5.675 C 286.080 5.703,286.470 5.628,286.800 5.507 C 288.970 4.712,298.787 3.172,303.200 2.935 C 317.462 2.168,317.528 1.985,304.127 0.378 C 300.089 -0.107,285.500 -0.038,284.702 0.469 M249.800 22.688 C 249.360 22.795,248.715 23.134,248.368 23.442 C 248.020 23.750,247.615 23.911,247.468 23.801 C 247.320 23.690,247.287 23.717,247.393 23.859 C 247.499 24.002,247.274 24.409,246.893 24.764 C 244.930 26.591,245.008 25.247,244.886 59.300 L 244.773 91.200 268.986 91.200 L 293.200 91.200 293.200 84.900 L 293.200 78.600 276.200 78.708 L 259.200 78.817 259.200 50.608 L 259.200 22.400 254.900 22.446 C 252.535 22.472,250.240 22.581,249.800 22.688 M349.609 48.632 C 349.623 63.307,349.792 75.159,349.993 75.532 C 350.283 76.073,350.793 77.779,350.969 78.800 C 351.551 82.177,356.643 87.819,360.887 89.791 L 363.800 91.144 374.162 91.184 L 384.523 91.223 387.862 89.570 C 389.698 88.660,391.200 87.755,391.200 87.558 C 391.200 87.361,391.436 87.200,391.725 87.200 C 392.371 87.200,394.400 85.135,394.400 84.478 C 394.400 84.215,394.560 84.000,394.756 84.000 C 394.952 84.000,395.717 82.785,396.456 81.300 C 397.195 79.815,397.980 78.468,398.200 78.306 C 398.420 78.144,398.478 78.009,398.328 78.006 C 398.178 78.003,398.240 77.415,398.465 76.700 C 401.003 68.637,400.324 55.934,396.959 48.490 C 396.235 46.890,395.630 45.498,395.613 45.398 C 395.468 44.496,388.000 38.249,388.000 39.030 C 388.000 39.177,387.747 39.088,387.439 38.832 C 386.091 37.713,382.256 37.031,377.515 37.065 C 372.571 37.101,369.109 38.524,365.756 41.900 C 364.608 43.055,363.564 44.000,363.435 44.000 C 363.306 44.000,363.200 40.271,363.200 35.713 C 363.200 23.169,362.666 22.400,353.959 22.400 L 349.584 22.400 349.609 48.632 M317.188 36.930 C 317.072 37.055,316.172 37.197,315.188 37.245 C 308.140 37.591,301.536 42.631,299.783 49.000 C 299.021 51.770,298.620 51.600,305.919 51.600 L 312.529 51.600 313.564 50.492 C 315.380 48.549,316.549 48.199,321.161 48.217 C 332.724 48.263,332.597 56.788,321.017 57.851 C 319.927 57.951,318.316 58.194,317.439 58.392 C 316.561 58.589,315.713 58.670,315.555 58.572 C 315.397 58.474,314.831 58.560,314.297 58.763 C 313.763 58.966,312.803 59.223,312.163 59.333 C 311.524 59.444,309.965 59.900,308.700 60.346 C 307.435 60.792,306.397 61.032,306.394 60.878 C 306.391 60.725,306.256 60.789,306.094 61.021 C 305.932 61.252,304.900 62.041,303.800 62.775 C 302.700 63.508,301.541 64.478,301.224 64.930 C 300.908 65.382,300.323 66.077,299.924 66.476 C 299.526 66.874,299.238 67.335,299.285 67.500 C 299.332 67.665,299.145 68.205,298.871 68.700 C 298.596 69.195,298.459 69.600,298.566 69.600 C 298.672 69.600,298.518 70.185,298.222 70.900 C 296.962 73.952,297.856 81.689,299.815 84.679 C 300.147 85.185,300.317 85.600,300.194 85.600 C 299.446 85.600,304.183 89.634,305.990 90.535 C 307.476 91.276,328.107 91.554,329.505 90.851 C 334.195 88.497,335.430 87.847,335.600 87.642 C 335.710 87.509,336.147 87.208,336.572 86.974 C 337.304 86.570,341.199 81.247,341.084 80.807 C 341.054 80.693,341.261 80.183,341.543 79.674 C 341.825 79.165,342.140 78.355,342.242 77.874 C 342.345 77.393,342.540 76.460,342.677 75.800 C 343.007 74.210,343.070 50.610,342.750 48.744 C 341.820 43.328,337.695 39.736,330.200 37.812 C 329.100 37.530,327.930 37.288,327.600 37.276 C 327.270 37.263,324.840 37.129,322.200 36.978 C 319.560 36.827,317.305 36.805,317.188 36.930 M378.861 49.768 C 381.457 50.852,384.375 54.418,385.065 57.347 C 386.581 63.787,385.555 75.600,383.479 75.600 C 383.299 75.600,383.258 75.770,383.386 75.977 C 384.429 77.665,378.420 80.702,374.200 80.619 C 365.548 80.449,360.952 70.931,363.788 59.058 C 365.710 51.012,372.227 46.996,378.861 49.768 M329.583 72.400 C 328.110 79.199,321.775 82.837,314.561 81.026 C 312.065 80.399,310.216 74.986,311.609 72.383 C 312.098 71.469,313.997 69.516,314.006 69.918 C 314.009 70.073,314.144 70.020,314.306 69.799 C 314.876 69.022,316.741 68.370,321.800 67.180 C 324.026 66.656,328.274 65.276,329.200 64.777 C 330.009 64.340,330.258 69.288,329.583 72.400 " stroke="none" fill="#666666" fill-rule="evenodd"/>
    <path id="path1" d="M315.200 2.400 C 314.734 2.701,314.851 2.789,315.724 2.794 C 316.372 2.797,316.743 2.631,316.600 2.400 C 316.293 1.903,315.969 1.903,315.200 2.400 M308.300 2.689 C 309.015 2.778,310.185 2.778,310.900 2.689 C 311.615 2.601,311.030 2.528,309.600 2.528 C 308.170 2.528,307.585 2.601,308.300 2.689 M252.915 22.296 C 254.188 22.376,256.168 22.375,257.315 22.294 C 258.462 22.214,257.420 22.149,255.000 22.150 C 252.580 22.151,251.642 22.216,252.915 22.296 M349.384 22.500 C 349.278 22.775,349.241 33.620,349.299 46.600 L 349.407 70.200 349.503 46.314 L 349.600 22.427 353.900 22.298 L 358.200 22.170 353.887 22.085 C 350.741 22.023,349.523 22.135,349.384 22.500 M218.975 35.300 L 217.800 36.600 219.100 35.425 C 219.815 34.779,220.400 34.194,220.400 34.125 C 220.400 33.816,220.070 34.088,218.975 35.300 M319.491 48.289 C 320.201 48.377,321.461 48.379,322.291 48.292 C 323.121 48.205,322.540 48.133,321.000 48.131 C 319.460 48.129,318.781 48.200,319.491 48.289 M306.000 51.600 L 299.000 51.829 305.876 51.914 C 310.124 51.967,312.847 51.847,313.000 51.600 C 313.136 51.380,313.192 51.239,313.124 51.286 C 313.056 51.333,309.850 51.474,306.000 51.600 M329.200 64.800 C 328.827 65.041,328.783 65.190,329.084 65.194 C 329.412 65.198,329.611 66.264,329.702 68.500 L 329.837 71.800 329.919 68.100 C 329.963 66.065,329.955 64.403,329.900 64.406 C 329.845 64.409,329.530 64.587,329.200 64.800 M385.714 66.200 C 385.717 67.300,385.795 67.703,385.887 67.095 C 385.979 66.486,385.977 65.586,385.882 65.095 C 385.787 64.603,385.711 65.100,385.714 66.200 M215.960 86.200 C 216.634 87.505,217.188 88.228,217.185 87.800 C 217.183 87.580,216.814 86.950,216.364 86.400 C 215.821 85.736,215.685 85.669,215.960 86.200 M234.404 88.600 C 234.405 88.820,234.763 89.540,235.200 90.200 C 236.236 91.764,236.237 91.208,235.201 89.510 C 234.762 88.789,234.404 88.380,234.404 88.600 " stroke="none" fill="#a3a3a3" fill-rule="evenodd"/>
    <path id="path2" d="M164.900 21.887 C 165.505 21.978,166.495 21.978,167.100 21.887 C 167.705 21.795,167.210 21.720,166.000 21.720 C 164.790 21.720,164.295 21.795,164.900 21.887 M186.122 21.899 C 188.499 21.970,192.279 21.969,194.522 21.898 C 196.765 21.827,194.820 21.769,190.200 21.769 C 185.580 21.770,183.745 21.828,186.122 21.899 M259.297 50.500 L 259.200 78.800 276.100 78.705 L 293.000 78.609 276.303 78.500 L 259.605 78.391 259.500 50.296 L 259.395 22.200 259.297 50.500 M169.107 33.890 C 169.826 33.979,170.906 33.977,171.507 33.886 C 172.108 33.795,171.520 33.722,170.200 33.724 C 168.880 33.726,168.388 33.801,169.107 33.890 M14.580 34.908 C 14.473 35.188,14.437 39.643,14.500 44.808 L 14.615 54.200 14.708 44.509 L 14.800 34.818 22.100 34.699 L 29.400 34.581 22.087 34.490 C 16.476 34.421,14.730 34.518,14.580 34.908 M149.789 63.800 C 149.789 78.980,149.839 85.132,149.900 77.471 C 149.961 69.810,149.961 57.390,149.900 49.871 C 149.839 42.352,149.789 48.620,149.789 63.800 M319.500 36.682 C 319.995 36.778,320.805 36.778,321.300 36.682 C 321.795 36.587,321.390 36.509,320.400 36.509 C 319.410 36.509,319.005 36.587,319.500 36.682 M165.700 41.096 C 166.965 41.175,169.035 41.175,170.300 41.096 C 171.565 41.016,170.530 40.951,168.000 40.951 C 165.470 40.951,164.435 41.016,165.700 41.096 M343.372 61.200 C 343.372 66.370,343.429 68.485,343.499 65.900 C 343.568 63.315,343.568 59.085,343.499 56.500 C 343.429 53.915,343.372 56.030,343.372 61.200 M128.181 77.000 C 128.180 84.920,128.234 88.217,128.299 84.326 C 128.365 80.435,128.365 73.955,128.300 69.926 C 128.234 65.897,128.181 69.080,128.181 77.000 " stroke="none" fill="#ffffff" fill-rule="evenodd"/>
    <path id="path3" d="M265.400 0.628 C 261.896 1.197,259.357 1.731,257.200 2.352 C 256.430 2.573,255.170 2.931,254.400 3.147 C 252.200 3.763,247.438 5.474,245.325 6.407 C 239.710 8.888,229.610 14.445,228.071 15.900 C 227.781 16.175,227.389 16.400,227.200 16.400 C 227.011 16.400,226.619 16.634,226.329 16.920 C 226.038 17.206,224.540 18.314,223.000 19.382 C 221.460 20.450,220.110 21.439,220.000 21.581 C 219.890 21.723,219.201 22.257,218.469 22.769 C 217.736 23.281,216.732 24.082,216.238 24.550 C 214.901 25.813,212.800 27.548,212.800 27.388 C 212.800 27.311,211.194 28.782,209.231 30.657 C 204.654 35.029,205.700 35.582,200.801 26.200 C 199.882 24.440,198.944 22.775,198.716 22.500 C 198.410 22.130,196.191 22.000,190.183 22.000 L 182.063 22.000 182.979 23.700 C 185.499 28.381,186.627 30.347,187.683 31.900 C 188.318 32.835,188.712 33.600,188.557 33.600 C 188.403 33.600,188.574 33.930,188.939 34.332 C 189.303 34.735,189.481 35.185,189.334 35.332 C 189.187 35.480,189.277 35.600,189.533 35.600 C 189.790 35.600,190.000 35.797,190.000 36.038 C 190.000 36.279,190.333 36.954,190.739 37.538 C 191.145 38.122,192.019 39.590,192.680 40.800 C 193.341 42.010,194.276 43.693,194.757 44.541 L 195.632 46.082 194.622 47.406 C 194.067 48.135,193.382 48.971,193.100 49.265 C 191.509 50.928,185.929 59.276,183.385 63.800 C 180.513 68.909,172.009 86.246,171.769 87.483 C 171.718 87.748,171.389 88.541,171.038 89.244 C 170.071 91.182,170.103 91.200,174.573 91.200 C 178.550 91.200,178.759 91.158,179.028 90.300 C 180.363 86.040,192.222 63.048,193.624 62.000 C 193.772 61.890,194.019 61.395,194.173 60.900 C 194.328 60.405,194.600 60.000,194.778 60.000 C 194.957 60.000,195.327 59.460,195.600 58.800 C 195.873 58.140,196.243 57.600,196.422 57.600 C 196.600 57.600,196.860 57.241,196.999 56.802 C 197.138 56.364,197.466 55.776,197.726 55.497 C 197.987 55.218,198.821 54.092,199.579 52.995 C 200.338 51.898,201.067 50.910,201.199 50.800 C 201.331 50.690,201.870 49.970,202.397 49.200 C 203.199 48.029,206.521 43.879,207.200 43.200 C 207.310 43.090,208.300 41.920,209.400 40.600 C 211.847 37.664,220.786 28.745,223.912 26.120 C 225.171 25.064,226.260 24.065,226.333 23.900 C 226.407 23.735,226.632 23.600,226.833 23.600 C 227.035 23.600,227.521 23.285,227.913 22.900 C 228.305 22.515,229.250 21.715,230.013 21.122 C 230.776 20.529,232.100 19.494,232.955 18.822 C 233.810 18.150,234.652 17.600,234.826 17.600 C 235.000 17.600,235.381 17.375,235.671 17.100 C 236.374 16.435,243.125 12.000,243.434 12.000 C 243.568 12.000,244.199 11.628,244.838 11.173 C 245.477 10.718,246.003 10.493,246.006 10.673 C 246.009 10.853,246.144 10.811,246.306 10.579 C 246.953 9.652,261.848 2.702,264.200 2.230 C 264.420 2.186,265.680 1.815,267.000 1.406 C 268.320 0.996,269.625 0.701,269.900 0.748 C 270.175 0.796,270.400 0.647,270.400 0.418 C 270.400 -0.086,269.581 -0.051,265.400 0.628 M5.600 22.470 C 3.621 23.032,1.726 24.586,0.796 26.407 C 0.021 27.927,0.000 28.806,0.000 59.584 L 0.000 91.200 7.200 91.200 L 14.400 91.200 14.400 79.000 L 14.400 66.800 25.500 66.782 C 35.960 66.766,39.687 66.447,40.647 65.486 C 40.805 65.329,41.191 65.200,41.505 65.200 C 41.819 65.200,42.599 64.828,43.238 64.373 C 43.877 63.918,44.400 63.678,44.400 63.839 C 44.400 66.007,51.256 56.295,52.193 52.800 C 53.384 48.357,53.280 38.392,52.018 36.034 C 51.773 35.575,51.675 35.200,51.800 35.200 C 51.925 35.200,51.803 34.795,51.528 34.300 C 51.253 33.805,51.015 33.310,50.999 33.200 C 50.899 32.518,49.447 30.000,49.154 30.000 C 48.959 30.000,48.800 29.730,48.800 29.400 C 48.800 29.070,48.665 28.798,48.500 28.797 C 48.335 28.795,47.570 28.203,46.800 27.483 C 43.850 24.722,39.855 23.126,34.173 22.439 C 29.708 21.899,7.525 21.923,5.600 22.470 M158.966 22.603 C 155.166 23.784,152.586 25.803,151.124 28.742 L 150.200 30.600 150.086 60.900 L 149.971 91.200 156.786 91.200 L 163.600 91.200 163.600 71.255 L 163.600 51.310 165.879 51.042 C 169.853 50.575,172.400 47.514,172.400 43.204 L 172.400 41.200 168.000 41.200 L 163.600 41.200 163.600 38.806 C 163.600 35.052,164.807 33.937,169.144 33.686 L 172.421 33.496 172.311 27.848 L 172.200 22.200 166.400 22.148 C 162.697 22.115,160.009 22.280,158.966 22.603 M33.893 35.322 C 40.290 38.742,40.591 49.602,34.382 52.991 L 32.200 54.183 23.300 54.335 L 14.400 54.487 14.400 44.401 L 14.400 34.314 23.500 34.473 C 31.151 34.605,32.806 34.741,33.893 35.322 M80.400 36.917 C 80.290 37.029,79.300 37.222,78.200 37.347 C 69.208 38.365,62.391 44.377,60.221 53.200 C 56.256 69.322,60.707 84.699,70.855 89.933 L 73.312 91.200 83.607 91.200 C 95.940 91.200,96.098 91.157,100.931 86.502 C 103.394 84.130,106.800 77.764,106.800 75.532 C 106.800 74.720,106.662 74.705,100.900 74.875 C 94.589 75.061,94.093 75.196,91.665 77.388 C 84.094 84.222,73.200 79.773,73.200 69.847 L 73.200 68.400 90.662 68.400 L 108.123 68.400 107.852 62.714 C 107.597 57.367,107.420 56.190,106.279 52.200 C 103.930 43.989,98.012 38.770,89.400 37.315 C 87.763 37.038,80.593 36.721,80.400 36.917 M137.000 37.863 C 125.588 38.782,117.374 45.323,114.981 55.400 C 114.363 58.003,114.296 59.545,114.130 75.100 L 113.958 91.200 120.979 91.200 L 128.000 91.200 128.057 76.500 C 128.120 60.142,128.141 59.632,128.778 58.442 C 129.025 57.979,129.120 57.600,128.987 57.600 C 128.576 57.600,130.522 55.045,131.576 54.200 C 133.588 52.587,134.620 52.296,139.200 52.049 L 143.800 51.800 143.909 44.700 L 144.018 37.600 141.309 37.667 C 139.819 37.704,137.880 37.792,137.000 37.863 M87.716 48.925 C 90.088 50.292,91.487 52.103,92.563 55.200 C 93.760 58.646,94.482 58.400,83.157 58.400 C 75.292 58.400,73.154 58.292,73.297 57.900 C 73.398 57.625,73.797 56.381,74.183 55.136 C 75.921 49.544,83.083 46.257,87.716 48.925 " stroke="none" fill="#1073b9" fill-rule="evenodd"/>
    <path id="path4" d="M149.693 35.200 C 149.693 35.970,149.775 36.285,149.876 35.900 C 149.976 35.515,149.976 34.885,149.876 34.500 C 149.775 34.115,149.693 34.430,149.693 35.200 M53.320 44.400 C 53.320 45.610,53.395 46.105,53.487 45.500 C 53.578 44.895,53.578 43.905,53.487 43.300 C 53.395 42.695,53.320 43.190,53.320 44.400 M163.786 71.200 C 163.786 82.310,163.837 86.855,163.900 81.300 C 163.962 75.745,163.962 66.655,163.900 61.100 C 163.837 55.545,163.786 60.090,163.786 71.200 M18.321 54.299 C 20.588 54.370,24.188 54.370,26.321 54.298 C 28.455 54.226,26.600 54.168,22.200 54.168 C 17.800 54.168,16.055 54.227,18.321 54.299 M113.781 76.800 C 113.781 84.830,113.834 88.115,113.899 84.100 C 113.965 80.085,113.965 73.515,113.899 69.500 C 113.834 65.485,113.781 68.770,113.781 76.800 M19.100 67.099 C 21.795 67.168,26.205 67.168,28.900 67.099 C 31.595 67.030,29.390 66.973,24.000 66.973 C 18.610 66.973,16.405 67.030,19.100 67.099 M81.927 68.700 C 86.837 68.763,94.757 68.763,99.527 68.700 C 104.297 68.636,100.280 68.584,90.600 68.584 C 80.920 68.584,77.017 68.636,81.927 68.700 " stroke="none" fill="#8080ff" fill-rule="evenodd"/>
  </g>
</svg>