<?xml version="1.0" encoding="UTF-8"?>
<svg width="105px" height="32px" viewBox="0 0 105 32" version="1.1" xmlns="http://www.w3.org/2000/svg" xmlns:xlink="http://www.w3.org/1999/xlink">
    <title>编组 10</title>
    <defs>
        <polygon id="path-1" points="-8.02442139e-16 0 18.9601682 0 18.9601682 31.6409523 -8.02442139e-16 31.6409523"></polygon>
    </defs>
    <g id="页面-1" stroke="none" stroke-width="1" fill="none" fill-rule="evenodd">
        <g id="解决方案" transform="translate(-361.000000, -28.000000)">
            <g id="编组" transform="translate(361.000000, 28.000000)">
                <path d="M18.828305,12.0900788 C18.2460189,12.4996788 17.7522728,12.656908 17.7522728,12.656908 C17.7522728,12.656908 18.1267609,12.3915837 18.5649436,11.8640618 C16.6003491,10.2296818 14.0652136,9.2447658 11.296983,9.2447658 C5.05762243,9.2447658 0,14.2461739 0,20.4151876 C0,26.584648 5.05762243,31.5860561 11.296983,31.5860561 C17.5363436,31.5860561 22.593966,26.584648 22.593966,20.4151876 C22.593966,17.1071204 21.1393801,14.1353987 18.828305,12.0900788 M11.3805539,27.788881 C7.40031892,27.788881 4.17357749,24.5987357 4.17357749,20.6630916 C4.17357749,16.7274476 7.40031892,13.5368557 11.3805539,13.5368557 C15.3607889,13.5368557 18.5870786,16.7274476 18.5870786,20.6630916 C18.5870786,24.5987357 15.3607889,27.788881 11.3805539,27.788881" id="Fill-1" fill="#FF9100"></path>
                <path d="M13.2725998,5.58561291 C13.2725998,5.58561291 13.9962789,6.85104017 8.43090661,9.60255162 C2.86598604,12.3536164 9.09857059,11.4736687 9.20969735,11.4182812 C9.32127583,11.3633403 11.8812567,10.0429721 12.6604992,9.38234137 C13.4392899,8.7221573 14.1074057,7.40134246 13.2725998,5.58561291" id="Fill-3" fill="#FF9100"></path>
                <path d="M21.9820009,16.6734894 C21.4254637,14.2525166 22.2602695,12.6565507 22.2602695,11.8864848 C22.298667,10.5116224 21.5636945,9.70448262 21.0916317,9.29979603 C20.883382,9.12112646 20.757348,8.96970399 20.757348,8.96970399 C20.0341206,12.1611893 18.6983409,12.6016098 18.6983409,12.6016098 L18.0862403,12.8213733 L12.9111668,12.4912813 L8.84826436,13.0969712 L4.841377,16.178128 L3.72830254,19.9753031 L3.45003392,22.7268146 L5.11964561,27.9542397 L10.7961447,30.5954226 L16.2499385,30.2653306 L18.8654828,28.7247522 C18.8654828,28.7247522 22.2602695,26.0831225 22.5941015,20.9655792 C22.5941015,20.9655792 22.70568,18.7643701 21.9820009,16.6734894 M11.3802377,27.7889703 C7.4000027,27.7889703 4.17371301,24.598825 4.17371301,20.663181 C4.17371301,16.7275369 7.4000027,13.536945 11.3802377,13.536945 C15.3609245,13.536945 18.5872142,16.7275369 18.5872142,20.663181 C18.5872142,24.598825 15.3609245,27.7889703 11.3802377,27.7889703" id="Fill-5" fill="#F04400"></path>
                <path d="M16.2774491,18.4802855 C16.1383148,19.2061306 15.494141,19.7550929 14.7194159,19.7550929 C13.8435022,19.7550929 13.1333752,19.0533681 13.1333752,18.1868207 C13.1333752,17.3207199 13.8435022,16.6185485 14.7194159,16.6185485 C14.7695585,16.6185485 14.8192493,16.6212285 14.8684884,16.6256953 C13.9302353,15.8324024 12.7119066,15.3531212 11.3801925,15.3531212 C8.41455381,15.3531212 6.00996966,17.7303199 6.00996966,20.663181 C6.00996966,23.5960421 8.41455381,25.9732407 11.3801925,25.9732407 C14.346283,25.9732407 16.7508672,23.5960421 16.7508672,20.663181 C16.7508672,19.885075 16.5814666,19.1462763 16.2774491,18.4802855" id="Fill-7" fill="#FF9100"></path>
                <path d="M16.2772233,18.4815808 C16.1376372,19.2069793 15.4934634,19.7554949 14.7191901,19.7554949 C13.8437281,19.7554949 13.133601,19.0528768 13.133601,18.186776 C13.133601,17.3206752 13.8437281,16.6185038 14.7191901,16.6185038 C14.7693326,16.6185038 14.8185717,16.6211839 14.8669073,16.6256506 C14.4418249,16.2660781 13.9593722,15.9708266 13.4344564,15.7555298 C11.5949924,16.4795882 10.2953515,18.2564571 10.2953515,20.3330443 C10.2953515,22.7048829 11.9907121,24.6845418 14.2489342,25.1531027 C15.7523075,24.2119607 16.7506413,22.5530137 16.7506413,20.6631363 C16.7506413,19.885477 16.5812408,19.147125 16.2772233,18.4815808" id="Fill-9" fill="#F04400"></path>
                <g transform="translate(2.256701, 0.000000)">
                    <mask id="mask-2" fill="white">
                        <use xlink:href="#path-1"></use>
                    </mask>
                    <g id="Clip-12"></g>
                    <path d="M15.7183679,6.98866041 C15.5516777,5.55796379 15.0109512,4.50157993 15.0507039,3.4121422 C15.1035568,1.95777186 15.3845359,1.21093304 15.8294946,0.825453435 C16.4858652,0.258177535 17.0541476,0 17.0541476,0 C17.0541476,0 16.6643005,0.935781897 16.3864836,2.47636031 C15.9031274,5.15059716 17.7773749,5.55796379 17.7773749,8.0343241 C17.7773749,9.07998779 17.3324162,10.0702639 17.3324162,10.0702639 C16.7167017,11.7953186 15.4956626,12.656506 15.4956626,12.656506 C15.4956626,12.656506 16.6408103,12.2929134 17.4991063,11.2258094 C17.8455869,10.7956624 18.3316535,10.0211298 18.3894755,9.46457405 C18.5484862,9.68210425 19.1655559,10.7992358 18.8904494,11.8864401 C18.6677441,12.7668345 18.1116586,13.7021697 17.3324162,14.0322617 C17.3324162,14.0322617 16.8341527,14.1421435 16.2749051,14.1421435 C14.8279986,14.1421435 13.1028236,13.0415389 10.1534473,12.9316571 C8.53668857,12.8713562 6.0422092,13.6047948 4.64363837,14.8577152 C3.36387378,16.0682015 1.74982546,17.6641675 1.69426209,21.3510142 C1.68342045,22.0683725 2.07688143,25.2920183 4.36536975,27.4592803 C6.98136578,29.9351939 9.90905879,30.2322321 11.4332119,30.1554041 C13.0472602,30.1554041 14.7168719,30.0455224 16.6087371,28.7247075 C15.3845359,30.1004632 12.3240328,31.6410417 8.8176676,31.6410417 C7.56410362,31.5986076 6.32318822,31.3600838 5.42288084,30.9808576 C3.47500053,29.9901348 1.74982546,27.9546417 0.97103473,26.3032881 C0.247355637,24.98292 -0.0991249278,22.8607721 0.0246503978,21.3510142 C0.211216856,19.0769972 1.3604301,14.8027743 6.03498144,12.7118936 C7.51983362,12.0472427 9.82277745,11.5608148 11.2105066,11.1159276 C11.2105066,11.1159276 12.7689916,10.5102377 13.2695137,10.2904742 C13.7704876,10.0702639 15.9451387,8.92990534 15.7183679,6.98866041" id="Fill-11" fill="#FF6C01" mask="url(#mask-2)"></path>
                </g>
                <path d="M16.4168093,3.85211603 C16.1385407,6.49329902 17.3627419,8.14420589 12.4654853,9.43732694 C12.1199082,9.52844842 11.8533847,9.6195699 11.6559766,9.70979804 C11.8800371,9.86792061 12.4343156,10.2261531 13.1299872,10.4383232 C13.7176941,10.6174395 14.4070413,10.6960541 15.0810296,10.4552968 C17.084925,9.74017186 17.8582949,8.57971298 17.9752942,7.48402181 C18.086421,6.4388048 17.3627419,4.78745125 17.3071785,3.68729335 C17.2597464,2.74481134 17.9043719,1.24041352 18.0913901,0.825453435 C17.3681627,1.45437034 16.5645266,2.45223991 16.4168093,3.85211603" id="Fill-13" fill="#FF9100"></path>
                <path d="M45.7476765,10.9225624 C45.7476765,12.449294 45.7237346,13.908131 45.6234495,15.3888551 C45.5516237,16.7503173 45.379061,18.0912325 45.1111823,19.3606798 C45.0149628,19.8296874 44.8907357,20.2759147 44.7660569,20.7221419 C44.8428518,20.7476024 44.9146776,20.7936098 44.9865035,20.8396172 L55.0190809,29.6069332 C55.1916435,29.7722026 55.2869596,29.9356852 55.2869596,30.1474087 C55.3154189,30.3591321 55.2390757,30.5476285 55.095424,30.7106645 L55.0669647,30.7361249 C54.7507504,31.0398632 54.2624251,31.0648769 53.9172998,30.7821323 L44.2298477,22.3212346 C44.1580219,22.5552918 44.0577368,22.7924756 43.9615173,23.0041991 C43.4487983,24.1307108 42.7883621,25.2116617 41.9309695,26.2238248 C41.0984223,27.2333079 40.0684671,28.1972303 38.847428,29.0204503 C37.8179245,29.7722026 36.5964337,30.4301533 35.2267739,31.0161895 C34.8102744,31.1823522 34.3458911,31.0161895 34.1498382,30.5931893 L34.1254445,30.5476285 C33.9772755,30.1706357 34.1498382,29.7239618 34.5663376,29.5613725 C36.5485498,28.7149254 38.1386562,27.7027622 39.3836372,26.5275631 C40.729355,25.2348887 41.7588586,23.7791784 42.4671787,22.1805323 C43.1764023,20.582333 43.6168437,18.8429847 43.8133483,16.9620407 C43.9854592,15.1288909 44.1051689,13.1559321 44.1051689,11.0882785 L44.1051689,10.9225624 C44.1051689,10.4991156 44.4742362,10.1475832 44.9146776,10.1475832 L44.9386196,10.1475832 C45.379061,10.1475832 45.7476765,10.4991156 45.7476765,10.9225624 L45.7476765,10.9225624 Z M34.8821002,15.0601031 C34.6137698,14.7058907 34.6381635,14.213656 35.006779,13.9536918 L35.0302693,13.9309114 C35.3708773,13.6731805 35.8876618,13.719188 36.1559923,14.0707203 L40.7578143,19.5241624 C41.0500867,19.8761415 40.9737436,20.3706096 40.6335873,20.6278937 L40.6091936,20.6538008 C40.240578,20.911085 39.7522527,20.8650776 39.4604321,20.5358789 L34.8821002,15.0601031 Z M48.4630542,19.6898785 C49.2965049,18.8666584 50.0771025,17.9742039 50.7854226,17.0562889 C51.5226538,16.141054 52.1550825,15.1288909 52.6962607,14.0483867 C52.8683716,13.6731805 53.3336585,13.5079112 53.7497062,13.6499535 L53.7975901,13.6731805 C53.9940947,13.7674287 54.1377463,13.908131 54.2145412,14.1194078 C54.310309,14.3311313 54.2859153,14.542408 54.1905993,14.7309044 C53.6015372,15.8810898 52.9406492,16.9392604 52.1550825,17.9509768 C51.3744848,18.9376796 50.5410341,19.8761415 49.6362094,20.7936098 C49.4925577,20.9338654 49.2965049,21.0281136 49.0521164,21.0281136 C48.8027588,21.0281136 48.6356169,20.9338654 48.4869962,20.7708294 C48.1707818,20.4648578 48.1707818,19.9954034 48.4630542,19.6898785 L48.4630542,19.6898785 Z" id="Fill-15" fill="#00032D"></path>
                <path d="M60.7730524,30.0067511 C60.0882225,30.0067511 59.4273346,29.7244531 58.9390093,29.2549988 C58.450684,28.7833111 58.1534425,28.1485875 58.1534425,27.4910834 L58.1534425,13.3672536 C58.1534425,12.7093029 58.450684,12.0745792 58.9390093,11.6033382 C59.4273346,11.1343306 60.0882225,10.8511393 60.7730524,10.8511393 L63.3398094,10.8511393 C64.4176485,10.8511393 65.3224732,11.4626359 65.7389727,12.4033312 C65.8875934,12.7093029 65.9594193,13.0157212 65.9594193,13.3672536 L65.9594193,27.4910834 C65.9594193,27.8198355 65.8875934,28.1258071 65.7389727,28.4545591 C65.3224732,29.3957011 64.4176485,30.0067511 63.3398094,30.0067511 L60.7730524,30.0067511 Z M64.2974871,13.3672536 C64.2974871,13.1072893 64.1967502,12.8955659 64.0291566,12.7093029 C63.8331037,12.5208065 63.6126572,12.4497853 63.3398094,12.4497853 L60.7730524,12.4497853 C60.504722,12.4497853 60.2842754,12.5208065 60.0882225,12.7093029 C59.8917179,12.8955659 59.8203438,13.1072893 59.8203438,13.3672536 L59.8203438,16.7758224 L64.2974871,16.7758224 L64.2974871,13.3672536 Z M59.8203438,22.7210525 L64.2974871,22.7210525 L64.2974871,18.3717884 L59.8203438,18.3717884 L59.8203438,22.7210525 Z M63.3398094,28.4085517 C63.6126572,28.4085517 63.8331037,28.3375306 64.0291566,28.1258071 C64.1967502,27.9623244 64.2974871,27.7510477 64.2974871,27.4910834 L64.2974871,24.2960248 L59.8203438,24.2960248 L59.8203438,27.4910834 C59.8203438,27.7510477 59.8917179,27.9623244 60.0882225,28.1258071 C60.2842754,28.3375306 60.504722,28.4085517 60.7730524,28.4085517 L63.3398094,28.4085517 Z M79.6356893,29.6297583 C79.8800778,29.9585103 79.8321939,30.453425 79.4680957,30.6879288 C79.2715911,30.8281844 79.0515962,30.8992056 78.8311497,30.8531982 C78.6111548,30.8049574 78.4385921,30.6879288 78.2904231,30.5248928 L71.830616,21.4739388 C71.7587902,21.3801373 71.7109063,21.2881225 71.6865126,21.1938743 L68.6264613,21.1938743 L68.6264613,28.2200553 C68.6264613,28.6202752 68.7750821,28.9258001 69.0673544,29.183531 C69.3352332,29.4412619 69.6799068,29.5841975 70.044005,29.5841975 L71.830616,29.5841975 C72.2710574,29.5841975 72.639673,29.9357299 72.639673,30.3587301 L72.639673,30.4051842 C72.639673,30.8281844 72.2710574,31.1823969 71.830616,31.1823969 L70.044005,31.1823969 C69.6320229,31.1823969 69.2390137,31.087702 68.8713016,30.9456597 C68.1141941,30.616461 67.5734676,30.1014459 67.2328596,29.3724741 C67.0607486,29.020495 66.9884711,28.6430555 66.9884711,28.2200553 L66.9884711,12.921473 C66.9884711,12.4980261 67.0607486,12.1205866 67.2328596,11.7690542 C67.5734676,11.0400824 68.1141941,10.4996069 68.8713016,10.1931886 C69.2390137,10.0533796 69.6320229,9.95913143 70.044005,9.95913143 L76.5282058,9.95913143 C76.9447053,9.95913143 77.3372628,10.0533796 77.7063301,10.1931886 C78.8076594,10.6876566 79.5643152,11.7230468 79.5643152,12.921473 L79.5643152,18.2543131 C79.5643152,19.4299589 78.8076594,20.4649024 77.7063301,20.9593705 C77.3372628,21.1224065 76.9447053,21.1938743 76.5282058,21.1938743 L73.6167753,21.1938743 L75.6468713,24.0597343 C75.6468713,24.0597343 75.6468713,24.0365072 75.6753306,24.0365072 L78.5343599,22.343613 C78.9508594,22.1095559 79.4396364,22.2265844 79.6596312,22.6040239 L79.688994,22.6495846 C79.9089888,23.0037971 79.8087037,23.4960318 79.4156944,23.7077552 L76.5806071,25.3774224 L79.6356893,29.6297583 Z M77.9263249,12.921473 C77.9263249,12.5208065 77.7781559,12.2148348 77.5098255,11.9575506 C77.212584,11.6975864 76.8968214,11.5573308 76.5282058,11.5573308 L70.044005,11.5573308 C69.6799068,11.5573308 69.3352332,11.6975864 69.0673544,11.9575506 C68.7750821,12.2148348 68.6264613,12.5208065 68.6264613,12.921473 L68.6264613,14.7774032 L77.9263249,14.7774032 L77.9263249,12.921473 Z M68.6264613,16.3528222 L68.6264613,19.6184553 L76.5282058,19.6184553 C76.8968214,19.6184553 77.212584,19.4549726 77.5098255,19.1950084 C77.7781559,18.9372776 77.9263249,18.6317526 77.9263249,18.2543131 L77.9263249,16.3528222 L68.6264613,16.3528222 Z" id="Fill-17" fill="#00032D"></path>
                <path d="M103.268826,17.652554 C103.709267,17.652554 104.077883,18.004533 104.077883,18.4275333 L104.077883,18.4762207 C104.077883,18.8992209 103.709267,19.2507533 103.268826,19.2507533 L88.5147168,19.2507533 L85.9475081,29.2852833 L99.8686184,29.2852833 C100.237234,29.2852833 100.576938,29.1222473 100.845721,28.8645165 C101.118568,28.6049989 101.26222,28.2985806 101.26222,27.9238212 L101.26222,24.0694718 C101.26222,23.6460249 101.630836,23.2940458 102.047335,23.2940458 L102.095671,23.2940458 C102.559602,23.2940458 102.904276,23.6460249 102.904276,24.0694718 L102.904276,27.9238212 C102.904276,28.3218076 102.851875,28.6992471 102.655822,29.0735599 C102.340059,29.7797514 101.779005,30.3202268 101.041774,30.6266451 C100.677675,30.7896811 100.261176,30.8607023 99.8686184,30.8607023 L85.0187414,30.8607023 C84.7454419,30.8607023 84.5543581,30.7664541 84.4057373,30.5779577 C84.2331747,30.3689143 84.1618006,30.1317304 84.2331747,29.8972266 L86.8767265,19.2507533 L83.4769707,19.2507533 C83.0365293,19.2507533 82.667462,18.8992209 82.667462,18.4762207 L82.667462,18.4275333 C82.667462,18.004533 83.0365293,17.652554 83.4769707,17.652554 L103.268826,17.652554 Z M102.363549,11.1668484 C102.827933,11.1668484 103.172606,11.5188275 103.172606,11.9418277 L103.172606,11.9878351 C103.172606,12.4362957 102.827933,12.7654944 102.363549,12.7654944 L84.3817954,12.7654944 C83.9174121,12.7654944 83.5722867,12.4362957 83.5722867,11.9878351 L83.5722867,11.9418277 C83.5722867,11.5188275 83.9174121,11.1668484 84.3817954,11.1668484 L102.363549,11.1668484 Z" id="Fill-19" fill="#00032D"></path>
            </g>
        </g>
    </g>
</svg>