<?xml version="1.0" encoding="UTF-8"?>
<svg width="95px" height="36px" viewBox="0 0 95 36" version="1.1" xmlns="http://www.w3.org/2000/svg" xmlns:xlink="http://www.w3.org/1999/xlink">
    <!-- Generator: Sketch 59.1 (86144) - https://sketch.com -->
    <title>编组 6</title>
    <desc>Created with Sketch.</desc>
    <defs>
        <polygon id="path-1" points="0 31.8055581 52.5173256 31.8055581 52.5173256 2.20974419 0 2.20974419"></polygon>
    </defs>
    <g id="组件" stroke="none" stroke-width="1" fill="none" fill-rule="evenodd">
        <g id="编组-6" transform="translate(-0.000663, 0.208419)">
            <path d="M14.7903953,14.1055116 C14.101093,14.1055116 13.5421395,14.6644651 13.5421395,15.3515581 C13.5421395,16.0430698 14.101093,16.6020233 14.7903953,16.6020233 C15.4796977,16.6020233 16.0364419,16.0430698 16.0364419,15.3515581 C16.0364419,14.6644651 15.4796977,14.1055116 14.7903953,14.1055116 M26.264186,14.9923256 C22.5282558,14.9636047 19.4904651,11.9302326 19.4595349,8.19209302 L23.157907,8.19209302 C24.8745349,8.19209302 26.264186,9.58395349 26.264186,11.3005814 L26.264186,14.9923256 Z M26.264186,21.2755814 L26.264186,22.6586047 L26.264186,24.5011628 C26.264186,25.8289535 25.1772093,26.9159302 23.8472093,26.9159302 L21.3904651,26.9159302 C20.0582558,26.9159302 18.9712791,25.8289535 18.9712791,24.5011628 L18.9712791,22.6961628 L18.9712791,22.6917442 L18.9712791,21.6732558 C18.9712791,20.3763953 17.9196512,19.3225581 16.6205814,19.3225581 L13.4237209,19.3225581 C11.3823256,19.3225581 9.74965116,21.1054651 9.975,23.2131395 C10.0810465,24.1896512 10.9647674,24.7662791 11.947907,24.7994186 C12.4538372,24.817093 12.8603488,25.2103488 12.8603488,25.7538372 C12.8603488,26.3459302 12.5731395,26.9159302 11.5126744,26.9159302 C8.91232558,26.9159302 7.0344186,24.415 7.77011628,21.9162791 L10.9493023,11.092907 C11.472907,9.3122093 13.1077907,8.08604651 14.9636047,8.08604651 L17.7186047,8.08604651 C17.7495349,12.8294186 21.565,16.6780233 26.264186,16.7067442 L26.264186,21.2755814 Z M17.8710465,1.42108547e-14 C8.00209302,1.42108547e-14 1.42108547e-14,8.00209302 1.42108547e-14,17.8710465 C1.42108547e-14,27.7422093 8.00209302,35.742093 17.8710465,35.742093 C27.74,35.742093 35.7398837,27.7422093 35.7398837,17.8710465 C35.7398837,8.00209302 27.74,1.42108547e-14 17.8710465,1.42108547e-14 L17.8710465,1.42108547e-14 Z" id="Fill-3" fill="#5A2DF5"></path>
            <g id="编组" transform="translate(41.977407, 2.210186)">
                <path d="M22.6689884,6.11601163 C22.3066628,4.90310465 21.7941047,3.59961628 21.1335233,2.21217442 L19.6753837,2.20775581 C20.2564302,3.50903488 20.7402674,4.81252326 21.1202674,6.11380233 L22.6689884,6.11601163 Z" id="Fill-1" fill="#282339"></path>
                <path d="M33.4587791,9.46663953 L24.4514535,9.44454651 L24.4470349,10.6707093 L31.2870349,10.6883837 C30.5137791,12.0603605 29.6985465,13.2533837 28.8391279,14.2674535 C27.9730814,13.211407 27.268314,12.232686 26.7248256,11.3268721 L25.0413372,11.3224535 C25.8919186,12.7341977 26.8551744,14.0575698 27.9288953,15.2859419 C26.6386628,16.6689651 25.0126163,18.0718721 23.0441279,19.4902442 L25.1694767,19.4946628 C26.4862209,18.5689651 27.7123837,17.5018721 28.854593,16.2911744 C30.0608721,17.5681512 31.2826163,18.6418721 32.5176163,19.5123372 L34.6871512,19.5189651 C32.9042442,18.2751279 31.2649419,16.865593 29.7648256,15.2903605 C31.3356395,13.4500116 32.5684302,11.5080349 33.4587791,9.46663953" id="Fill-3" fill="#282339"></path>
                <path d="M26.7036163,3.93476744 L26.7080349,3.45093023 L30.6339651,3.46197674 L30.6162907,8.27383721 L33.4000116,8.28046512 L33.4044302,7.05209302 L32.0832674,7.04988372 L32.0965233,2.24023256 L25.2498953,2.22476744 L25.2454767,3.93255814 C25.2410581,4.95988372 25.1239651,5.86569767 24.8919884,6.65 C24.6600116,7.43651163 24.2998953,8.15011628 23.8116395,8.79302326 L25.4266395,8.79744186 C26.2728023,7.66186047 26.6969884,6.04023256 26.7036163,3.93476744" id="Fill-5" fill="#282339"></path>
                <path d="M20.8136163,19.367407 C21.9204767,18.8504302 23.0295465,18.2207791 24.1386163,17.4806628 L24.1452442,15.9584535 C23.566407,16.3760116 22.945593,16.7714767 22.280593,17.1426395 L22.3115233,7.71333721 L19.1235,7.7067093 L19.1190814,8.93066279 L20.8467558,8.93287209 L20.8136163,19.367407 Z" id="Fill-7" fill="#282339"></path>
                <polygon id="Fill-9" fill="#282339" points="48.0912093 7.82048837 48.1133023 2.21990698 46.6529535 2.21769767 46.6308605 7.81827907 42.2034186 7.80723256 42.199 9.03339535 46.6264419 9.04444186 46.591093 19.5496744 48.0536512 19.554093 48.0867907 9.04886047 52.5120233 9.05990698 52.5164419 7.83374419"></polygon>
                <path d="M39.2042907,19.414907 C40.3995233,18.8979302 41.5969651,18.2682791 42.794407,17.5281628 L42.7988256,16.0059535 C42.2067326,16.3881628 41.4997558,16.8079302 40.6712674,17.2630465 L40.7021977,7.76083721 L37.072314,7.752 L37.0678953,8.97595349 L39.2374302,8.98037209 L39.2042907,19.414907 Z" id="Fill-11" fill="#282339"></path>
                <path d="M41.0598837,6.16351163 C40.6975581,4.94839535 40.185,3.64711628 39.5244186,2.25746512 L38.0662791,2.25525581 C38.665,3.55653488 39.1488372,4.85781395 39.5111628,6.15909302 L41.0598837,6.16351163 Z" id="Fill-13" fill="#282339"></path>
                <path d="M5.70662791,19.4473837 C7.03883721,18.7315698 8.24953488,17.9472674 9.34313953,17.0988953 C10.3748837,17.929593 11.5656977,18.718314 12.9222093,19.4650581 L15.6661628,19.471686 C13.6490698,18.499593 11.8904651,17.4170349 10.3881395,16.2262209 C11.824186,14.9669186 13.1055814,13.5087791 14.2323256,11.8518023 L5.8877907,11.8341279 C5.97837209,11.5844767 6.09767442,11.213314 6.24569767,10.7206395 L15.2088372,10.7405233 L15.2132558,9.51436047 L6.58151163,9.49447674 C6.73174419,8.90017442 6.8377907,8.45389535 6.89744186,8.15784884 L5.43488372,8.15563953 C5.37744186,8.44947674 5.27139535,8.89796512 5.12116279,9.49005814 L1.4272093,9.48122093 L1.4227907,10.7073837 L4.74116279,10.7162209 C3.84639535,13.4734302 2.00162791,16.789593 0,19.3987791 L1.68348837,19.4009884 C3.07534884,17.571686 4.57988372,15.0376163 5.39511628,13.0558721 L11.5701163,13.0713372 C10.9073256,13.8865698 10.165,14.6531977 9.35197674,15.3690116 C8.77976744,14.8741279 8.22744186,14.3218023 7.695,13.7120349 L5.90546512,13.7076163 C6.59476744,14.5515698 7.39674419,15.3888953 8.30918605,16.2218023 C6.79802326,17.4059884 5.0327907,18.4797093 3.00686047,19.4407558 L5.70662791,19.4473837 Z" id="Fill-15" fill="#282339"></path>
                <path d="M2.89330233,7.49682558 L13.7586512,7.52333721 L13.7542326,8.85996512 L15.2145814,8.86438372 L15.2256279,6.30159302 L13.011907,6.29717442 C13.2195814,5.82659302 13.4338837,5.14612791 13.6592326,4.25577907 L12.201093,4.25136047 C12.0044651,5.00694186 11.7680698,5.68740698 11.4852791,6.29275581 L9.40411628,6.28833721 C9.18539535,5.45763953 8.91586047,4.71310465 8.59330233,4.05694186 L7.13074419,4.05252326 C7.36493023,4.58717442 7.6145814,5.3317093 7.87748837,6.2839186 L5.46493023,6.2772907 C5.244,5.47310465 5.00318605,4.82798837 4.74027907,4.34415116 L3.27993023,4.34194186 C3.54504651,4.92519767 3.76376744,5.56810465 3.93830233,6.2750814 L1.43737209,6.26845349 L1.42632558,8.83124419 L2.88888372,8.83345349 L2.89330233,7.49682558 Z" id="Fill-17" fill="#282339"></path>
                <mask id="mask-2" fill="white">
                    <use xlink:href="#path-1"></use>
                </mask>
                <g id="Clip-20"></g>
                <polygon id="Fill-19" fill="#282339" mask="url(#mask-2)" points="1.9044186 3.4624186 14.769186 3.4624186 14.769186 2.20974419 1.9044186 2.20974419"></polygon>
                <path d="M37.9443256,23.1992209 C37.436186,23.1992209 36.9921163,23.3848023 36.6364186,23.7603837 C36.2807209,24.1271279 36.1017674,24.573407 36.1017674,25.0837558 L36.1017674,29.9243372 C36.1017674,30.4611977 36.2807209,30.9118953 36.6386279,31.2698023 C36.9965349,31.6255 37.436186,31.8066628 37.9443256,31.8066628 C38.4546744,31.8066628 38.8943256,31.6255 39.2566512,31.267593 C39.6101395,30.9118953 39.7868837,30.4589884 39.7868837,29.9243372 L39.7868837,28.6120116 L39.0180465,28.6120116 L39.0180465,29.9243372 C39.0180465,30.2336395 38.9142093,30.4921279 38.699907,30.7130581 C38.487814,30.9317791 38.2425814,31.0400349 37.9443256,31.0400349 C37.6460698,31.0400349 37.4008372,30.9317791 37.1909535,30.7130581 C36.9766512,30.4965465 36.872814,30.2358488 36.872814,29.9243372 L36.872814,25.0837558 C36.872814,24.7832907 36.9766512,24.5270116 37.1909535,24.3038721 C37.4074651,24.0741047 37.6460698,23.9680581 37.9443256,23.9680581 C38.2403721,23.9680581 38.487814,24.0741047 38.699907,24.3038721 C38.9142093,24.5292209 39.0180465,24.7855 39.0180465,25.0837558 L39.0180465,26.3916628 L39.7868837,26.3916628 L39.7868837,25.0837558 C39.7868837,24.5711977 39.6101395,24.1271279 39.2566512,23.7603837 C38.8987442,23.3848023 38.4568837,23.1992209 37.9443256,23.1992209" id="Fill-21" fill="#282339" mask="url(#mask-2)"></path>
                <path d="M49.8451744,23.1906047 C49.3370349,23.1906047 48.8929651,23.3806047 48.5350581,23.7517674 C48.4864535,23.8047907 48.4334302,23.8644419 48.3870349,23.924093 C48.3384302,23.8644419 48.2876163,23.8047907 48.2368023,23.7517674 C47.8811047,23.3806047 47.4392442,23.1906047 46.9288953,23.1906047 C46.4163372,23.1906047 45.9744767,23.3806047 45.6209884,23.7517674 C45.2630814,24.1229302 45.0863372,24.567 45.0863372,25.0773488 L45.0863372,31.8046744 L45.8529651,31.8046744 L45.8529651,25.0773488 C45.8529651,24.7768837 45.9568023,24.5206047 46.173314,24.2952558 C46.3898256,24.0676977 46.6306395,23.9616512 46.9288953,23.9616512 C47.2227326,23.9616512 47.4701744,24.069907 47.6822674,24.2952558 C47.8943605,24.5206047 48.000407,24.7768837 48.000407,25.0773488 L48.000407,31.8046744 L48.7736628,31.8046744 L48.7736628,25.0773488 C48.7736628,24.7768837 48.8775,24.5206047 49.0918023,24.2952558 C49.3038953,24.069907 49.5469186,23.9616512 49.8451744,23.9616512 C50.1412209,23.9616512 50.3886628,24.069907 50.6007558,24.2952558 C50.8128488,24.5206047 50.9188953,24.7768837 50.9188953,25.0773488 L50.9188953,31.8046744 L51.6877326,31.8046744 L51.6877326,25.0773488 C51.6877326,24.5692093 51.5109884,24.1229302 51.1575,23.7517674 C50.799593,23.3806047 50.3555233,23.1906047 49.8451744,23.1906047" id="Fill-22" fill="#282339" mask="url(#mask-2)"></path>
                <path d="M35.3121628,30.7806628 C35.0271628,30.7806628 34.7996047,31.0104302 34.7996047,31.2932209 C34.7996047,31.5782209 35.0271628,31.8057791 35.3121628,31.8057791 C35.5949535,31.8057791 35.8203023,31.5782209 35.8203023,31.2932209 C35.8203023,31.0104302 35.5949535,30.7806628 35.3121628,30.7806628" id="Fill-23" fill="#282339" mask="url(#mask-2)"></path>
                <path d="M43.472,25.0826512 L43.472,29.9232326 C43.472,30.2347442 43.3681628,30.4910233 43.1560698,30.7141628 C42.946186,30.9306744 42.6965349,31.0389302 42.3982791,31.0389302 C42.1044419,31.0389302 41.8547907,30.9306744 41.644907,30.7141628 C41.4306047,30.4910233 41.3267674,30.2347442 41.3267674,29.9232326 L41.3267674,25.0826512 C41.3267674,24.782186 41.4306047,24.525907 41.644907,24.3027674 C41.8592093,24.0752093 42.1044419,23.9669535 42.3982791,23.9669535 C42.6943256,23.9669535 42.9417674,24.0752093 43.1516512,24.3027674 C43.3681628,24.525907 43.472,24.782186 43.472,25.0826512 M42.3982791,23.1981163 C41.8879302,23.1981163 41.4482791,23.3836977 41.0903721,23.7592791 C40.7368837,24.1304419 40.5579302,24.5745116 40.5579302,25.0826512 L40.5579302,29.9232326 C40.5579302,30.4623023 40.7368837,30.913 41.0947907,31.2686977 C41.4504884,31.6266047 41.8879302,31.8055581 42.3982791,31.8055581 C42.9108372,31.8055581 43.3504884,31.6266047 43.7039767,31.2686977 C44.064093,30.913 44.2430465,30.4623023 44.2430465,29.9232326 L44.2430465,25.0826512 C44.2430465,24.5745116 44.064093,24.1260233 43.706186,23.7592791 C43.3504884,23.3836977 42.9108372,23.1981163 42.3982791,23.1981163" id="Fill-24" fill="#282339" mask="url(#mask-2)"></path>
                <path d="M29.2235465,28.1462907 C29.2235465,29.2885 28.8258721,30.194314 27.7609884,30.194314 C26.6938953,30.194314 26.3006395,29.2752442 26.3006395,28.5461744 L24.6878488,28.5461744 C24.7607558,30.1435 25.814593,31.7054767 27.7609884,31.7054767 C29.6941279,31.7054767 30.8363372,30.1810581 30.8363372,28.2081512 L30.8363372,23.2924535 L29.2235465,23.2924535 L29.2235465,28.1462907 Z" id="Fill-25" fill="#282339" mask="url(#mask-2)"></path>
                <polygon id="Fill-26" fill="#282339" mask="url(#mask-2)" points="0.695930233 31.7061395 2.32197674 31.7061395 2.32197674 25.9133488 0.695930233 25.9133488"></polygon>
                <polygon id="Fill-27" fill="#282339" mask="url(#mask-2)" points="14.8502674 26.6857209 12.2145698 26.6857209 12.2145698 23.2922326 10.586314 23.2922326 10.586314 31.7052558 12.2145698 31.7052558 12.2145698 28.3117674 14.8502674 28.3117674 14.8502674 31.7052558 16.476314 31.7052558 16.476314 23.2922326 14.8502674 23.2922326"></polygon>
                <polygon id="Fill-28" fill="#282339" mask="url(#mask-2)" points="32.4988372 31.7061395 34.1248837 31.7061395 34.1248837 23.290907 32.4988372 23.290907"></polygon>
                <polygon id="Fill-29" fill="#282339" mask="url(#mask-2)" points="19.2299884 23.2920116 18.138593 23.2920116 18.138593 31.7072442 19.2299884 31.7072442 19.7646395 31.7072442 23.6662674 31.7072442 23.6662674 30.0789884 19.7646395 30.0789884 19.7646395 28.3115465 22.603593 28.3115465 22.603593 26.6855 19.7646395 26.6855 19.7646395 24.9202674 23.6662674 24.9202674 23.6662674 23.2920116 19.7646395 23.2920116"></polygon>
                <path d="M6.99465116,26.4656744 L6.28104651,26.2182326 C5.76627907,26.0525349 5.52988372,25.7343953 5.52988372,25.4074186 C5.52988372,25.0031163 5.88337209,24.6452093 6.3627907,24.6452093 C6.58593023,24.6452093 6.79581395,24.7092791 6.99244186,24.7998605 C7.0322093,24.8153256 7.06755814,24.8263721 7.10511628,24.8462558 C7.28186047,24.9434651 7.43651163,25.0804419 7.56686047,25.2439302 C7.64639535,25.3477674 7.72593023,25.4560233 7.78116279,25.593 L8.8372093,24.5391628 C8.81290698,24.5060233 8.78197674,24.4817209 8.75767442,24.4463721 L8.76430233,24.4419535 C8.68255814,24.3292791 8.57651163,24.2210233 8.46825581,24.1149767 C8.43953488,24.0862558 8.42186047,24.0553256 8.39093023,24.028814 C8.23848837,23.8896279 8.06174419,23.7592791 7.85848837,23.6510233 C7.74139535,23.5847442 7.6,23.547186 7.46965116,23.4963721 C7.37465116,23.4632326 7.29290698,23.4168372 7.18686047,23.3881163 C6.9372093,23.3284651 6.66104651,23.290907 6.3627907,23.290907 C5.0394186,23.290907 4.00767442,24.3049767 4.01872093,25.3875349 C4.03197674,26.4524186 4.69918605,27.1616047 5.84802326,27.5570698 L6.59697674,27.8133488 C7.08081395,27.9768372 7.54476744,28.230907 7.74360465,28.6396279 C7.81209302,28.778814 7.85186047,28.9334651 7.85186047,29.1057907 C7.85186047,29.4725349 7.70825581,29.7796279 7.46744186,29.9961395 C7.2244186,30.2104419 6.87755814,30.3363721 6.46883721,30.3363721 C6.06011628,30.3363721 5.66023256,30.2192791 5.3222093,29.9828837 C5.30232558,29.9674186 5.28906977,29.9475349 5.26697674,29.9298605 C5.1344186,29.8282326 5.01511628,29.7045116 4.90686047,29.5564884 C4.86930233,29.5078837 4.83837209,29.4570698 4.80965116,29.4018372 C4.70581395,29.2317209 4.61081395,29.0505581 4.54674419,28.8296279 L3.43767442,29.9386977 C3.45093023,29.9740465 3.47965116,30.0093953 3.49732558,30.0425349 L3.48186047,30.0513721 C3.64755814,30.4203256 3.96790698,30.8378837 4.44732558,31.1604419 C4.47825581,31.1825349 4.52465116,31.1913721 4.5555814,31.2112558 C4.76988372,31.343814 5.00406977,31.4697442 5.27581395,31.5536977 C5.59395349,31.650907 5.94744186,31.7061395 6.33848837,31.7061395 C8.0727907,31.7061395 9.37186047,30.6942791 9.37186047,29.1190465 C9.37186047,28.750093 9.29674419,28.4275349 9.16639535,28.1403256 C8.77976744,27.2853256 7.8894186,26.7793953 6.99465116,26.4656744" id="Fill-30" fill="#282339" mask="url(#mask-2)"></path>
                <path d="M1.51447674,22.7741512 C0.964360465,22.7741512 0.520290698,23.2204302 0.520290698,23.7683372 C0.520290698,24.3184535 0.964360465,24.7647326 1.51447674,24.7647326 C2.06459302,24.7647326 2.50866279,24.3184535 2.50866279,23.7683372 C2.50866279,23.2204302 2.06459302,22.7741512 1.51447674,22.7741512" id="Fill-31" fill="#282339" mask="url(#mask-2)"></path>
            </g>
        </g>
    </g>
</svg>