<?xml version="1.0" encoding="UTF-8"?>
<svg width="119px" height="30px" viewBox="0 0 119 30" version="1.1" xmlns="http://www.w3.org/2000/svg" xmlns:xlink="http://www.w3.org/1999/xlink">
    <!-- Generator: Sketch 55 (78076) - https://sketchapp.com -->
    <title>编组 4</title>
    <desc>Created with Sketch.</desc>
    <g id="页面1" stroke="none" stroke-width="1" fill="none" fill-rule="evenodd">
        <g id="首页" transform="translate(-212.000000, -25.000000)">
            <g id="编组-28">
                <g id="编组-4" transform="translate(212.000000, 25.000000)">
                    <g id="编组-2">
                        <polygon id="路径" fill="#49515B" points="18.014644 14.1485908 15.8309332 14.1485908 15.8309332 21.080007 12.5558602 21.080007 12.5558602 19.0488566 10.3718207 19.0488566 10.3718207 15.7655368 12.5558602 15.7655368 12.5558602 10.865271 18.014644 10.865271"></polygon>
                        <path d="M29.9273236,14.1304014 L24.989238,14.1304014 C24.2788663,9.40049647 20.5494973,5.66375958 15.830999,4.95200018 L15.830999,-3.55271368e-15 C23.2591657,0.766129918 29.16337,6.68427759 29.9273236,14.1304014 Z" id="路径" fill="#327DE8"></path>
                        <path d="M3.27540177,15.7720612 C3.27540177,21.8164144 8.16352143,26.7166802 14.1932981,26.7166802 C19.6665457,26.7166802 24.1986577,22.6794227 24.989238,17.4137211 L28.2902802,17.4137211 C27.4773467,24.4977044 21.4781414,30 14.1932981,30 C6.35455556,30 -2.13162821e-14,23.6297533 -2.13162821e-14,15.7720612 C-2.13162821e-14,8.46993695 5.48869764,2.45589947 12.5555972,1.64133037 L12.5555972,4.95035258 C7.30259437,5.74251444 3.27540177,10.2855825 3.27540177,15.7720612 Z" id="路径" fill="#327DE8"></path>
                    </g>
                    <g id="编组-3" transform="translate(37.000000, 5.000000)" fill="#49515B">
                        <path d="M36.1744032,1.74662714 L35.4093838,2.53614859 L38.9292929,2.53614859 L38.9292929,5.00635247 L36.773063,5.00635247 L36.773063,8.7113558 L38.9292929,8.7113558 L38.9292929,11.1815597 L36.773063,11.1815597 L36.773063,16.3270615 C36.773063,17.3579769 36.4350721,18.227358 35.759676,18.9370198 C35.0836941,19.6454716 34.2653694,20 33.3041161,20 L30.2856286,20 L30.2856286,17.4910763 L32.6837827,17.4910763 C33.6485506,17.4910763 34.2108925,17.0131284 34.3713943,16.0548128 L34.3713943,11.7442072 L34.3819382,11.7442072 L34.3819382,11.1815597 L26.5050505,11.1815597 L26.5050505,8.7113558 L34.3819382,8.7113558 L34.3819382,5.00635247 L33.018259,5.00635247 L30.9539954,7.13836288 L29.2628691,5.39173574 L34.4826911,-1.42108547e-14 L36.1744032,1.74662714 Z" id="路径"></path>
                        <polygon id="路径" points="26.6669297 5.00635247 26.6669297 7.74457015 26.6663233 7.74457015 24.9852397 9.4216226 24.9852397 20 22.5090981 20 22.5090981 11.8906165 20.8013306 13.5936838 19.0505051 11.8470567 24.1877559 6.72212475 24.1913946 6.72333474 24.1913946 5.00635247 22.9390722 5.00635247 20.8013306 7.13836288 19.0505051 5.39173574 24.4558075 -1.42108547e-14 26.2060266 1.74662714 25.4152138 2.53614859 30.6464646 2.53614859 28.1703231 5.00635247"></polygon>
                        <polygon id="路径" points="30.612701 11.6666667 32.3030303 13.3673029 29.0230771 16.6666667 27.3333333 14.9660305"></polygon>
                        <polygon id="路径" points="58.7598209 -1.42108547e-14 58.7598209 12.6986052 61.2929293 12.6986052 61.2929293 15.2383263 58.7598209 15.2383263 58.7598209 20 56.2261076 20 56.2261076 15.2383263 50.5252525 15.2383263 50.5252525 12.6986052 56.2261076 12.6986052 56.2261076 10.4760461 52.7419492 10.4760461 52.7419492 7.93632505 56.2261076 7.93632505 56.2261076 6.03214069 52.7419492 6.03214069 52.7419492 3.49241965 56.2261076 3.49241965 56.2261076 -1.42108547e-14"></polygon>
                        <path d="M47.731804,10.0437223 L47.731804,11.5996878 L49.5745534,11.5996878 L49.5745534,14.0887573 L47.731804,14.0887573 L47.731804,20 L45.2761734,20 L45.2761734,14.75976 L43.1507362,16.9130309 L41.4141414,15.1532089 L45.2761734,11.2395216 L45.2761734,10.0437223 L41.927906,10.0437223 L41.927906,7.55465286 L45.2761734,7.55465286 L45.2761734,4.92650935 L42.4586788,4.92650935 L42.4586788,2.49984496 L42.6967935,2.49984496 L42.6967935,2.48974128 L46.2614754,2.48974128 C47.1904744,2.32689386 47.653801,2.06717004 47.653801,1.08830248 L47.653801,0.833333333 L50.085972,0.833333333 L50.085972,1.406271 C50.085972,2.38157256 49.7428758,3.21126236 49.0555104,3.89771776 C48.6649085,4.28700632 48.2226956,4.56158847 47.731804,4.73037924 L47.731804,7.55465286 L50.5252525,7.55465286 L50.5252525,10.0437223 L47.731804,10.0437223 Z" id="路径"></path>
                        <polygon id="路径" points="15.2175461 14.3815938 15.2175461 17.4712644 17.3939394 17.4712644 17.3939394 20 0 20 0 17.4712644 7.4542064 17.4712644 7.4542064 11.7816092 1.24187328 11.7816092 1.24187328 9.25287356 7.4542064 9.25287356 7.4542064 4.1954023 0.310319983 4.1954023 0.310319983 1.66666667 17.0836194 1.66666667 17.0836194 4.1954023 9.93913965 4.1954023 9.93913965 9.25287356 16.1514728 9.25287356 16.1514728 11.7816092 9.93913965 11.7816092 9.93913965 17.4712644 12.7332062 17.4712644 12.7332062 14.3815938"></polygon>
                        <path d="M71.2323232,5.07508055 L71.2323232,7.62113198 L69.4745551,7.62113198 L69.4745551,16.3091981 C69.4745551,17.3457353 69.1327012,18.2193446 68.4507676,18.93185 C67.7682426,19.6443553 66.9419969,20 65.9714392,20 L63.852891,20 L63.852891,17.479482 L65.3456927,17.479482 C66.3192076,17.479482 66.8869927,16.9992097 67.0496395,16.0362332 L67.0496395,13.2439662 L65.5284486,14.8069791 L63.7777778,13.0062618 L67.0496395,9.6431394 L67.0496395,7.62113198 L63.8020269,7.62113198 L63.8020269,5.07508055 L67.0496395,5.07508055 L67.0496395,0.565383914 L67.0596941,0.565383914 L67.0596941,-1.42108547e-14 L69.4745551,-1.42108547e-14 L69.4745551,5.07508055 L71.2323232,5.07508055 Z" id="路径"></path>
                        <path d="M78.5604683,16.8697129 C79.6003267,17.3790971 80.7675964,17.6659289 82,17.6659289 L82,20 C80.024269,20 78.1793773,19.4311877 76.6161616,18.4512295 C75.0535172,19.4311877 73.2080542,20 71.2323232,20 L71.2323232,17.6659289 C72.4652982,17.6659289 73.6319965,17.3790971 74.6718549,16.8697129 C73.2886147,15.4319153 72.3218892,13.5896425 71.9670803,11.5399776 L71.8145297,10.3732452 L71.8145297,9.20651284 L75.4197531,9.20651284 L75.4197531,6.34911009 L71.531711,6.34911009 L71.531711,3.80946606 L75.4197531,3.80946606 L75.4197531,-2.84217094e-14 L77.8125701,-2.84217094e-14 L77.8125701,3.80946606 L81.7006122,3.80946606 L81.7006122,6.34911009 L77.8125701,6.34911009 L77.8125701,9.20651284 L81.4177936,9.20651284 L81.4177936,10.0815621 L81.2652429,11.5399776 C80.9104341,13.5896425 79.9437085,15.4319153 78.5604683,16.8697129 Z M76.6161616,15.5186319 C77.730867,14.4652982 78.5341862,13.0875352 78.887281,11.5399776 L74.3450423,11.5399776 C74.6981371,13.0875352 75.5014562,14.4652982 76.6161616,15.5186319 Z" id="形状结合"></path>
                    </g>
                </g>
            </g>
        </g>
    </g>
</svg>