<svg width="150" height="28" viewBox="0 0 150 28" fill="none" xmlns="http://www.w3.org/2000/svg">
<path d="M93.9595 10.8475L94.8567 13.5315H78.6746L75.7163 23.0616H89.4959L86.4778 16.054H89.6355L93.476 26.0306H71.5991L75.7113 13.5315H69.9492L70.8315 10.8475H93.9595ZM91.9832 1.71094L92.8455 4.39742H71.5592L72.4215 1.71094H91.9832Z" fill="#414447"/>
<path d="M108.506 1.26562L109.508 3.74022L104.716 4.15896V8.8458H108.691L109.553 11.217H104.716V26.4909H102.149V11.217H97.1543L98.0565 8.8458H102.149V4.38094L98.0042 4.74166L97.3512 2.26454L108.506 1.26562ZM119.684 1.47247V16.5294L122.852 15.9492L122.573 18.4112L119.684 18.9662V26.4026H116.94V19.2361L109.66 20.4923L109.391 18.0757L116.94 16.7993V1.47247H119.684ZM101.167 12.3824L100.058 25.3809H97.6752L98.8565 12.3824H101.167ZM107.978 12.3799L109.217 25.3734L106.834 25.3809L105.668 12.3899L107.978 12.3799ZM115.634 11.783L115.642 11.7871V14.6552C114.175 13.033 110.214 12.7414 109.989 12.7261L109.979 12.7254V10.377C112.541 10.2767 115.459 11.6968 115.634 11.783ZM115.634 5.7592L115.642 5.76328V8.63139C114.175 7.00919 110.214 6.71766 109.989 6.70232L109.979 6.70166V4.35319C112.541 4.2529 115.459 5.67304 115.634 5.7592Z" fill="#414447"/>
<path d="M19.4536 10.9687L23.2542 8.74632C23.4161 8.65295 23.6147 8.65367 23.7759 8.74822C23.937 8.84276 24.0364 9.01688 24.0368 9.20542V18.5387C24.0371 18.7275 23.9376 18.902 23.776 18.9962C23.6145 19.0905 23.4155 19.0902 23.2542 18.9953L14.6012 13.9326C14.5355 13.8948 14.455 13.8948 14.3893 13.9326L9.54688 16.7629L28.2113 27.6753C28.3725 27.7702 28.5716 27.7705 28.7331 27.6762C28.8947 27.582 28.9941 27.4075 28.9939 27.2188V0.52794C28.9941 0.339196 28.8947 0.164711 28.7331 0.0704511C28.5716 -0.0238086 28.3725 -0.0234607 28.2113 0.0713632L19.7127 5.05335C19.5559 5.15036 19.4612 5.32388 19.4635 5.50992L19.4536 10.9687Z" fill="#26CCDD"/>
<path d="M9.5478 16.7808L5.73965 19.0031C5.57841 19.098 5.37939 19.0983 5.21783 19.0041C5.05627 18.9098 4.95682 18.7353 4.95708 18.5466V9.21323C4.95682 9.02449 5.05627 8.85 5.21783 8.75574C5.37939 8.66148 5.57841 8.66183 5.73965 8.75665L14.3927 13.8194C14.4584 13.8571 14.5389 13.8571 14.6046 13.8194L19.447 10.9916L0.782567 0.0791757C0.62133 -0.0156482 0.422311 -0.0159961 0.260751 0.0782636C0.0991916 0.172523 -0.000257603 0.347008 5.01181e-07 0.535752V27.2215C-0.000257603 27.4103 0.0991916 27.5847 0.260751 27.679C0.422311 27.7733 0.62133 27.7729 0.782567 27.6781L9.29857 22.7138C9.45432 22.6157 9.54866 22.4429 9.5478 22.2572V16.7808Z" fill="#FDA80A"/>
<path d="M66.176 1.46069L67.0209 3.98322H59.2949L59.1753 7.30033H66.1785C66.1785 7.30033 66.176 16.8203 66.1835 16.8935C66.1835 22.2494 66.9239 25.8146 67.0185 26.2479L67.0283 26.2924H64.4962C63.8781 22.4027 63.8308 14.0355 63.8507 9.82538H59.0955L58.5971 23.6993H60.7878L61.7298 26.1663H56.1048L56.8525 3.98322H56.1048V1.46069H66.176ZM55.1378 1.45312V3.97565H51.3322V6.31655H55.1304V14.043C55.111 14.9172 54.4323 15.6198 53.5857 15.6746L53.4431 15.6776H49.9988V18.016H54.4076V20.4679H49.9988V23.722L55.1378 23.6892V26.1738H41.6573L42.5121 23.722H47.3022V20.4427H42.2803L43.1651 17.9908H47.3022V15.6499H42.0311V6.31655H45.7944V3.98322H41.6074L42.056 1.45312H55.1378ZM60.1747 13.0895H62.146C62.146 17.8423 62.8308 20.9394 62.8626 21.0809L62.8638 21.0859H60.708C60.333 18.7366 60.1502 16.3604 60.1614 13.9816L60.1747 13.0895H62.146H60.1747ZM45.7944 8.22862H44.142V13.9018H45.7944V8.22862ZM53.0219 8.22862H51.3322V13.9018H53.0219V8.22862ZM49.61 8.22862H47.519V13.9018H49.61V8.22862ZM49.61 3.98322H47.519V6.31655H49.61V3.98322Z" fill="#414447"/>
<path d="M130.708 1.30469V6.54397H133.093L132.943 8.91514H130.7V14.5101L133.093 13.8744L132.914 16.3843L130.695 16.9317V26.371L126.209 26.4366L125.242 24.2218L128.203 23.9216V17.2849L124.963 18.0088L125.023 15.5342L128.196 14.8582V8.91514H124.943L125.3 6.54397H128.196V1.30469H130.708ZM142.688 1.30469V4.41496H148.527V6.78613H142.688V10.4514H147.319C147.795 10.4514 149.011 10.9407 148.044 12.9007C146.788 15.52 145.195 17.9601 143.309 20.158C145.307 22.3775 147.456 24.4535 149.739 26.371H145.624C144.186 25.0368 142.823 23.622 141.542 22.1332C140.106 23.6606 138.559 25.0772 136.914 26.371H132.799C135.402 24.6191 137.765 22.5276 139.827 20.1505C137.093 16.9216 134.252 13.8795 134.252 13.8795H137.639C138.775 15.4258 140.415 16.8459 141.517 18.135C142.845 16.4789 144.056 14.7298 145.141 12.9007H134.252V10.4514H139.952V6.78613H134.252V4.41496H139.947V1.30469H142.688Z" fill="#414447"/>
</svg>
