<?xml version="1.0" encoding="utf-8"?>
<!-- Generator: Adobe Illustrator 20.0.0, SVG Export Plug-In . SVG Version: 6.00 Build 0)  -->
<svg version="1.1" id="Layer_1" xmlns="http://www.w3.org/2000/svg" xmlns:xlink="http://www.w3.org/1999/xlink" x="0px" y="0px"
	 viewBox="0 0 88.2 28.7" style="enable-background:new 0 0 88.2 28.7;" xml:space="preserve">
<style type="text/css">
	.st0{fill:#3D3D3D;}
</style>
<g>
	<g id="XMLID_1_">
		<path id="XMLID_8_" class="st0" d="M0.8,12.5c3.4,2.8,8.6,2.7,13.8-0.1v2.1c-5.1,4.8-9.5,4.4-13.8,0.4V12.5z"/>
		<path id="XMLID_7_" class="st0" d="M6,7c-2,0.9-3.4,2.6-4.2,5.1c1.6,2.2,4.3,2.6,8,1.2C5.4,12.9,4.1,10.8,6,7z"/>
		<polygon id="XMLID_6_" class="st0" points="0.3,20 6.1,24 14.7,17.7 15.1,15.3 16.1,14.6 15.8,17.4 14.2,22.2 7.5,26.5 0.6,21.7 
					"/>
		<path id="XMLID_5_" class="st0" d="M6.6,7.1c0.1-4.3,1.8-5.4,9-4.7c-5.4,0.1-8.1,1.8-8.2,4.9C7.1,7,6.8,6.9,6.6,7.1z"/>
		<path id="XMLID_4_" class="st0" d="M7.7,7.4c4.1-5.6,9-3.1,11.7-5.2C12.3,2.4,8.3,4.1,7.5,7.3L7.7,7.4z"/>
		<path id="XMLID_3_" class="st0" d="M7.8,8c1.7-2.3,4-3.6,6.8-3.9C11.7,5.2,9.4,6.5,7.8,8z"/>
		<path id="XMLID_2_" class="st0" d="M7.2,8C7,9.1,7.4,9.9,8.5,10.4c-1.4,0.3-2.3,0-2.7-0.7C5.9,8.8,6.3,8.3,7.2,8z"/>
	</g>
	<g>
		<path class="st0" d="M55,12.3c-1.2,0.3-2.4,0.6-3.4,0.9l-0.2-1c0.9-0.2,2.2-0.5,3.5-0.8L55,12.3z M56.6,9.2c0,0,0,0.3,0,0.5
			c-0.2,3.4-0.4,4.7-0.8,5.1c-0.3,0.3-0.5,0.4-1,0.4c-0.3,0-1,0-1.7,0c0-0.3-0.1-0.7-0.3-1c0.6,0.1,1.2,0.1,1.5,0.1
			c0.2,0,0.3,0,0.5-0.2c0.3-0.3,0.5-1.3,0.6-3.9h-3.5C52,9,52.2,7.1,52.3,5.6l1,0.1c-0.1,1.1-0.2,2.5-0.3,3.6h1.4
			c0.2-1.2,0.3-2.9,0.4-4.5h-3.1V3.7H56c-0.1,1.8-0.3,4.1-0.5,5.5H56.6z M63.7,9.4h-0.8V14c0,0.6-0.1,0.9-0.5,1.1
			c-0.4,0.2-1,0.2-1.9,0.2c-0.1-0.3-0.3-0.8-0.4-1.1c0.7,0,1.3,0,1.5,0s0.3-0.1,0.3-0.2V9.4h-5V8.3h0.6C57.3,8,57,7.6,56.8,7.4
			c1.6-0.4,2.4-1.1,2.7-2.1h-2.4v-1h2.6c0.1-0.4,0.1-0.8,0.1-1.2h1.1c0,0.4-0.1,0.8-0.1,1.2h2.6v1h-2.8c0,0.1-0.1,0.3-0.1,0.4
			c0.9,0.5,2.2,1.3,2.8,1.8l-0.8,0.8c-0.6-0.4-1.6-1.1-2.5-1.7c-0.5,0.8-1.3,1.3-2.7,1.7h6.3L63.7,9.4L63.7,9.4z M58.5,13.2V14h-1
			v-3.9h3.4v3.1C60.9,13.2,58.5,13.2,58.5,13.2z M58.5,11v1.3H60V11H58.5z"/>
		<g>
			<path class="st0" d="M36.7,5.1v10.2h-1.3v-0.9h-7.1v0.9h-1.2V5.1h3.2C30.6,4.4,30.8,3.6,31,3l1.6,0.3c-0.3,0.6-0.6,1.3-0.8,1.8
				H36.7z M28.3,6.3V9h7.1V6.3H28.3z M35.4,13.1v-2.8h-7.1v2.8H35.4z"/>
			<path class="st0" d="M82.7,8.4v5h4.6v1.2H76.8v-1.2h4.5v-5H76V7.2h5.3V3.1h1.3v4.1h5.3v1.2C87.9,8.4,82.7,8.4,82.7,8.4z"/>
		</g>
	</g>
	<path class="st0" d="M29,26.4h-2.4V20H29c1.5,0,2.2,0.6,2.3,1.7c0,0.7-0.4,1.1-1.1,1.4l0,0c0.9,0.3,1.4,0.8,1.4,1.7
		C31.5,25.8,30.7,26.3,29,26.4z M28,22.6h1.1c0.6,0,0.9-0.2,0.9-0.7s-0.3-0.8-0.9-0.8H28V22.6z M28,25.3h1.1c0.8,0,1.1-0.2,1.1-0.8
		c0-0.6-0.3-0.9-1.1-0.9H28V25.3z"/>
	<path class="st0" d="M33.3,26.4H32l2.3-6.4h1.6l2.2,6.4h-1.4L36.3,25h-2.5L33.3,26.4z M34.1,24h1.8L35,21.3l0,0L34.1,24z"/>
	<path class="st0" d="M40.2,20v6.4h-1.4V20H40.2z"/>
	<path class="st0" d="M47.5,25.4v1h-2.7c-0.1,0-0.2,0-0.3,0s-0.1,0-0.2,0c-0.1,0-0.1,0-0.1,0c-2,0-3-1.1-3.1-3.2
		c0-2.2,1.1-3.3,3.1-3.3c2,0.1,3,1.2,3,3.3c-0.1,0.9-0.4,1.6-0.9,2.2c0,0,0.2,0,0.4,0s0.3,0,0.4,0H47.5z M44.1,25.5
		c1.1,0,1.6-0.8,1.6-2.3c0-1.6-0.5-2.3-1.6-2.3s-1.6,0.8-1.6,2.3C42.5,24.8,43,25.6,44.1,25.5z"/>
	<path class="st0" d="M49.5,20v6.4h-1.4V20H49.5z"/>
	<path class="st0" d="M55.3,21.8H54c0-0.6-0.4-1-1-1c-0.7,0-1,0.3-1,0.8s0.3,0.8,1.2,0.9c0,0,0.1,0,0.1,0.1c1.5,0.3,2.3,0.9,2.2,1.7
		c0,1.3-1,2-2.7,2.1c-1.7,0-2.5-0.7-2.4-2.1h1.4c0,0.8,0.4,1.1,1.1,1.2c0.8,0,1.3-0.3,1.3-0.8c0-0.4-0.4-0.7-1.2-0.9
		c-0.1,0-0.2,0-0.2-0.1c-1.4-0.3-2.1-0.9-2.1-1.8c0.1-1.3,1-2,2.7-2.1C54.5,20,55.2,20.6,55.3,21.8z"/>
	<path class="st0" d="M57.8,26.4h-1.3V20h1.3v2.5h2.4V20h1.4v6.4h-1.3v-2.8h-2.4L57.8,26.4L57.8,26.4z"/>
	<path class="st0" d="M64.1,20v6.4h-1.4V20H64.1z"/>
	<path class="st0" d="M66.4,26.4h-1.1v-1.2h1.1V26.4z"/>
	<path class="st0" d="M72.7,22.1h-1.4c0-0.8-0.5-1.2-1.2-1.2c-0.8,0-1.2,0.8-1.2,2.3s0.4,2.3,1.2,2.3c0.8,0,1.2-0.4,1.2-1.2h1.4
		c-0.1,1.4-1,2.1-2.7,2.1s-2.6-1.1-2.7-3.2c0-2.2,0.9-3.3,2.7-3.3C71.8,19.9,72.6,20.7,72.7,22.1z"/>
	<path class="st0" d="M76.4,26.5c-2,0-3-1.1-3.1-3.2c0-2.2,1.1-3.3,3.1-3.3c2,0.1,3,1.2,3,3.3C79.4,25.3,78.3,26.4,76.4,26.5z
		 M76.4,20.9c-1.1,0-1.6,0.8-1.6,2.3c0,1.6,0.5,2.3,1.6,2.3s1.6-0.8,1.6-2.3C78,21.7,77.5,20.9,76.4,20.9z"/>
	<path class="st0" d="M86.2,20.9l-1.8,5.5h-1.1l-1.7-5.5l0,0v5.4h-1.3V20h2.2l1.3,4.7l0,0l1.4-4.7h2.1v6.4H86v-5.5H86.2z"/>
</g>
</svg>
