<svg xmlns="http://www.w3.org/2000/svg" xmlns:xlink="http://www.w3.org/1999/xlink" width="135.026" height="38" viewBox="0 0 135.026 38">
  <defs>
    <clipPath id="clip-path">
      <rect width="135.026" height="38" fill="none"/>
    </clipPath>
  </defs>
  <g id="logo" clip-path="url(#clip-path)">
    <g id="组_34" data-name="组 34" transform="translate(0 0.01)">
      <path id="路径_169" data-name="路径 169" d="M78.161,177.167H51.485a4.427,4.427,0,0,0-4.5,4.353v25.825a4.427,4.427,0,0,0,4.5,4.353H78.161a4.427,4.427,0,0,0,4.5-4.353V181.52A4.427,4.427,0,0,0,78.161,177.167Zm-.851,19.506c0,.02,0,.04,0,.06s0,.068,0,.1c0,5.122-5.591,9.273-12.487,9.273s-12.487-4.152-12.487-9.273c0-.034,0-.068,0-.1s0-.04,0-.06V186.25a2.839,2.839,0,0,1,3.008-2.633H74.3a2.839,2.839,0,0,1,3.008,2.633Z" transform="translate(-46.988 -177.167)" fill="#ff5e01"/>
      <path id="路径_170" data-name="路径 170" d="M87.5,211.737a1.649,1.649,0,0,0-1.171.486l-5.374,5.295-5.231-5.231,0,0a1.651,1.651,0,0,0-2.334,2.334l0,0,6.405,6.405,0,0a1.651,1.651,0,0,0,2.32-.017l6.676-6.642a1.151,1.151,0,0,0,.369-.98A1.655,1.655,0,0,0,87.5,211.737Z" transform="translate(-63.214 -199.352)" fill="#ff5e01"/>
    </g>
    <g id="组_35" data-name="组 35" transform="translate(39.677)">
      <path id="路径_171" data-name="路径 171" d="M176.814,180.021l-1.129,3.24h8.64v16.051H165.058V183.261h6.749l1.129-3.24h-9.277v-1.963H185.7v1.963Zm4.2,5.3h-12.64v4.86h12.64Zm0,6.823h-12.64v5.2h12.64Z" transform="translate(-163.659 -177.714)" fill="#3a404a"/>
      <path id="路径_172" data-name="路径 172" d="M231.285,197.168H229.42l.54-13.45h1.792Zm4.074-14.824v16.4h-3.019v-16.4h-2.9v-1.963h2.9V177.19h3.019v3.191h2.774v1.963Zm12,7.24-3.043-2.454-2.43,2.43h-3.878l.343,7.609h-1.939l-.515-13.45h1.865l.245,5.645,4.049-4.074-3.166-2.552h4.32l.761.613,2.406-2.43h-3.51l-.785,1.129H238.4l3.486-4.909h3.656l-1.275,1.816h6.111v2.062l-4.148,4.172,5.376,4.393Zm-8.345,9.155v-8.345h11.167v8.345Zm8.148-6.357h-5.129v4.394h5.129Z" transform="translate(-204.779 -177.141)" fill="#3a404a"/>
      <path id="路径_173" data-name="路径 173" d="M297.285,182.6l-3.019-5.326h3.51l3.019,5.326Zm.442,16.2h-3.412l2.675-8.713H300.4Zm-.393-9.645-2.8-5.744h3.51l2.8,5.744Zm17.5-8.787h-4.639v3.313h6.21v1.964h-6.21v3.142h5.326V198.8H301.556V188.782h5.326v-3.142h-6.21v-1.964h6.21v-3.313h-5.523V178.4h10.8l.638-1.129h3.731Zm-2.626,10.382h-7.338v6.087h7.338Z" transform="translate(-245.326 -177.222)" fill="#3a404a"/>
      <path id="路径_174" data-name="路径 174" d="M376.71,198.8l-.957-1.988h2.97V182.892h-2.553v11.437l-2.013,4.467h-3.485l.245-.54h-2.528l-.294-1.546-.81,1.546h-6.5v-1.963l2.553-9.5h-2.847v-1.964h11.02v1.964h-4.835l-2.552,9.474h3.9l-1.3-6.627h3.191l1.448,7.608,1.571-3.461v-10.9h-1.914v-1.963h1.914v-3.657h3.24v3.657h5.768V198.8Zm-15.683-18.7V178.13H371.04v1.964Z" transform="translate(-286.733 -177.222)" fill="#3a404a"/>
    </g>
    <g id="组_36" data-name="组 36" transform="translate(39.778 24.167)">
      <path id="路径_175" data-name="路径 175" d="M163.927,255.044V244.669h2.213v3.667a3.567,3.567,0,0,1,1.826-.477,3.192,3.192,0,0,1,2.475,1.029,3.687,3.687,0,0,1,.946,2.609,3.827,3.827,0,0,1-.932,2.683,2.972,2.972,0,0,1-2.288,1.014,3.28,3.28,0,0,1-2.028-.715v.566Zm2.213-1.938a2.119,2.119,0,0,0,1.319.6,1.477,1.477,0,0,0,1.215-.581,2.663,2.663,0,0,0,.462-1.677,2.319,2.319,0,0,0-.47-1.528,1.515,1.515,0,0,0-1.237-.566,2.2,2.2,0,0,0-1.289.484Z" transform="translate(-163.927 -244.669)" fill="#353a43"/>
      <path id="路径_176" data-name="路径 176" d="M190.058,255.665q0-.991-1.215-.991a3.745,3.745,0,0,0-2.616,1.133v-1.782a5.918,5.918,0,0,1,3.093-.842q2.951,0,2.952,2.169v3.086q0,.589.38.589a1.705,1.705,0,0,0,.827-.417v1.23a3.834,3.834,0,0,1-2.072.678,1.126,1.126,0,0,1-1.245-.835,4.162,4.162,0,0,1-2.325.835,2.053,2.053,0,0,1-1.409-.514,1.589,1.589,0,0,1-.581-1.215,1.812,1.812,0,0,1,.641-1.491,8.624,8.624,0,0,1,2.631-1.147l.939-.291Zm0,1.3a5.81,5.81,0,0,0-1.617.775.905.905,0,0,0-.343.686.778.778,0,0,0,.209.551.739.739,0,0,0,.559.216,1.777,1.777,0,0,0,1.192-.536Z" transform="translate(-177.633 -249.993)" fill="#353a43"/>
      <path id="路径_177" data-name="路径 177" d="M208.283,260.318a1.108,1.108,0,0,1-.611-.321.845.845,0,0,1-.261-.618q0-.775,1.312-1.073a2.532,2.532,0,0,1-1.446-.738,2.04,2.04,0,0,1-.559-1.461,2.344,2.344,0,0,1,.812-1.774,3.286,3.286,0,0,1,2.318-.753h4.219v1.491H213.1a2.306,2.306,0,0,1,.313,1.126,2.051,2.051,0,0,1-.783,1.691,3.63,3.63,0,0,1-2.064.708q-1.111.082-1.111.514,0,.41,1.14.492a7.818,7.818,0,0,1,1.819.291,1.848,1.848,0,0,1,1.476,1.878q0,2.3-3.756,2.3a5.855,5.855,0,0,1-2.81-.537,1.639,1.639,0,0,1-.947-1.461Q206.375,260.832,208.283,260.318Zm.134,1.677q0,.76,1.736.76h.1q1.6,0,1.6-.827,0-.76-1.625-.76h-.1Q208.417,261.168,208.417,261.995Zm.343-5.814a1.194,1.194,0,0,0,.373.872,1.286,1.286,0,0,0,.939.365,1.223,1.223,0,0,0,.917-.387,1.239,1.239,0,0,0,.38-.894,1.209,1.209,0,0,0-.35-.879,1.389,1.389,0,0,0-1.893.03A1.265,1.265,0,0,0,208.76,256.181Z" transform="translate(-190.469 -250.241)" fill="#353a43"/>
      <path id="路径_178" data-name="路径 178" d="M235.286,256.745v.47h-5.009a1.927,1.927,0,0,0,.626,1.438,2.4,2.4,0,0,0,1.655.544,3.811,3.811,0,0,0,2.586-1.065v1.438a5.176,5.176,0,0,1-2.989.946,4.341,4.341,0,0,1-3.086-1.014A3.446,3.446,0,0,1,228,256.88a3.641,3.641,0,0,1,1.014-2.646,3.581,3.581,0,0,1,2.69-1.051,3.455,3.455,0,0,1,3.585,3.562Zm-2.437-1.766a1.3,1.3,0,0,0-1.059-.477,1.458,1.458,0,0,0-1.006.373,1.663,1.663,0,0,0-.469,1.185h2.929A1.63,1.63,0,0,0,232.849,254.979Z" transform="translate(-203.989 -249.993)" fill="#353a43"/>
      <path id="路径_179" data-name="路径 179" d="M252.026,257.456l1.49-3.876h2.355l-3.219,7.185h-1.245l-3.219-7.185h2.355Z" transform="translate(-216.614 -250.241)" fill="#353a43"/>
      <path id="路径_180" data-name="路径 180" d="M276.9,256.745v.47H271.89a1.928,1.928,0,0,0,.626,1.438,2.4,2.4,0,0,0,1.655.544,3.811,3.811,0,0,0,2.586-1.065v1.438a5.177,5.177,0,0,1-2.989.946,4.34,4.34,0,0,1-3.086-1.014,3.445,3.445,0,0,1-1.074-2.623,3.643,3.643,0,0,1,1.014-2.646,3.581,3.581,0,0,1,2.691-1.051,3.455,3.455,0,0,1,3.585,3.562Zm-2.437-1.766a1.3,1.3,0,0,0-1.059-.477,1.458,1.458,0,0,0-1.006.373,1.664,1.664,0,0,0-.469,1.185h2.929A1.63,1.63,0,0,0,274.462,254.979Z" transform="translate(-230.009 -249.993)" fill="#353a43"/>
      <path id="路径_181" data-name="路径 181" d="M292.206,260.368v-7.036h2.213v1.044a2.772,2.772,0,0,1,2.333-1.192,2.492,2.492,0,0,1,1.841.708,2.676,2.676,0,0,1,.715,1.99v4.487H297.1v-4.293a1.637,1.637,0,0,0-.283-1.066,1.017,1.017,0,0,0-.834-.335q-.791,0-1.558,1.178v4.516Z" transform="translate(-244.139 -249.993)" fill="#353a43"/>
      <path id="路径_182" data-name="路径 182" d="M313.191,250.888l2.944-3.354h.275V249.8h2.624v1.513h-2.624v2.839q0,1.2,1.066,1.2a3.971,3.971,0,0,0,1.558-.358v1.565a5.554,5.554,0,0,1-2.08.425,2.785,2.785,0,0,1-2.064-.7,2.652,2.652,0,0,1-.693-1.938v-3.034h-1.007Z" transform="translate(-257.26 -246.46)" fill="#353a43"/>
      <path id="路径_183" data-name="路径 183" d="M330.358,267a1.324,1.324,0,1,1,.388.939A1.269,1.269,0,0,1,330.358,267Z" transform="translate(-267.994 -257.803)" fill="#353a43"/>
      <path id="路径_184" data-name="路径 184" d="M346.74,258.438v1.61a6.44,6.44,0,0,1-2.325.47,4.241,4.241,0,0,1-2.981-1,3.409,3.409,0,0,1-1.088-2.638,3.493,3.493,0,0,1,1.1-2.639,3.952,3.952,0,0,1,2.854-1.058,6.316,6.316,0,0,1,2.333.462v1.64a3.718,3.718,0,0,0-1.767-.469,2.239,2.239,0,0,0-1.572.552,1.916,1.916,0,0,0-.6,1.491,2.006,2.006,0,0,0,.588,1.528,2.1,2.1,0,0,0,1.491.552,3.227,3.227,0,0,0,1.036-.179Q346.345,258.579,346.74,258.438Z" transform="translate(-274.239 -249.993)" fill="#353a43"/>
      <path id="路径_185" data-name="路径 185" d="M359.7,256.82a3.359,3.359,0,0,1,1.118-2.631,4.271,4.271,0,0,1,2.959-1.006,3.931,3.931,0,0,1,2.8,1.006,3.464,3.464,0,0,1,1.08,2.661,3.337,3.337,0,0,1-1.155,2.705,4.206,4.206,0,0,1-2.795.961,4.1,4.1,0,0,1-2.914-1.021A3.5,3.5,0,0,1,359.7,256.82Zm2.355.03q0,2.348,1.677,2.347,1.573,0,1.573-2.385,0-2.31-1.6-2.31Q362.053,254.5,362.053,256.85Z" transform="translate(-286.34 -249.993)" fill="#353a43"/>
      <path id="路径_186" data-name="路径 186" d="M384.2,253.332h2.213v.924a3.581,3.581,0,0,1,2.467-1.073,2.539,2.539,0,0,1,2.5,1.55,3.614,3.614,0,0,1,2.78-1.55,2.813,2.813,0,0,1,1.96.708,2.547,2.547,0,0,1,.782,1.99v4.487H394.7v-4.114q0-1.581-1.267-1.58a2.189,2.189,0,0,0-1.767,1.2v4.494h-2.213v-4.2a1.578,1.578,0,0,0-.358-1.088,1.231,1.231,0,0,0-.969-.4,2.416,2.416,0,0,0-1.707.976v4.718H384.2Z" transform="translate(-301.664 -249.993)" fill="#353a43"/>
    </g>
  </g>
</svg>
