<?xml version="1.0" encoding="UTF-8"?>
<svg width="154px" height="36px" viewBox="0 0 154 36" version="1.1" xmlns="http://www.w3.org/2000/svg" xmlns:xlink="http://www.w3.org/1999/xlink">
    <!-- Generator: Sketch 54.1 (76490) - https://sketchapp.com -->
    <title>logo</title>
    <desc>Created with Sketch.</desc>
    <defs>
        <linearGradient x1="13.7689909%" y1="13.6057692%" x2="83.618472%" y2="83.7788462%" id="linearGradient-1">
            <stop stop-color="#EF8200" offset="0%"></stop>
            <stop stop-color="#ED740A" offset="23%"></stop>
            <stop stop-color="#EA5D1A" offset="70%"></stop>
            <stop stop-color="#E95520" offset="100%"></stop>
        </linearGradient>
        <linearGradient x1="81.256495%" y1="80.0981908%" x2="35.0311054%" y2="34.5298814%" id="linearGradient-2">
            <stop stop-color="#E95520" stop-opacity="0" offset="0%"></stop>
            <stop stop-color="#E95420" stop-opacity="0.02" offset="13%"></stop>
            <stop stop-color="#E84F1F" stop-opacity="0.08" offset="26%"></stop>
            <stop stop-color="#E6481F" stop-opacity="0.18" offset="40%"></stop>
            <stop stop-color="#E33E1D" stop-opacity="0.32" offset="55%"></stop>
            <stop stop-color="#E0311C" stop-opacity="0.5" offset="69%"></stop>
            <stop stop-color="#DC211A" stop-opacity="0.72" offset="84%"></stop>
            <stop stop-color="#D80E18" stop-opacity="0.97" offset="98%"></stop>
            <stop stop-color="#D70C18" offset="100%"></stop>
        </linearGradient>
        <linearGradient x1="193.32814%" y1="234.345595%" x2="13.4140144%" y2="11.0778443%" id="linearGradient-3">
            <stop stop-color="#E95520" stop-opacity="0" offset="0%"></stop>
            <stop stop-color="#E85320" stop-opacity="0.03" offset="10%"></stop>
            <stop stop-color="#E54D20" stop-opacity="0.13" offset="26%"></stop>
            <stop stop-color="#DF431F" stop-opacity="0.29" offset="44%"></stop>
            <stop stop-color="#D8351E" stop-opacity="0.51" offset="64%"></stop>
            <stop stop-color="#CE231E" stop-opacity="0.79" offset="85%"></stop>
            <stop stop-color="#C7161D" offset="100%"></stop>
        </linearGradient>
    </defs>
    <g id="首页" stroke="none" stroke-width="1" fill="none" fill-rule="evenodd">
        <g id="导航上滑" transform="translate(-360.000000, -15.000000)">
            <g id="编组-3" transform="translate(360.000000, 15.000000)">
                <g id="编组-20">
                    <g id="logo" transform="translate(0.000000, 1.000000)">
                        <g id="资源-1" transform="translate(0.000000, 0.739130)">
                            <path d="M16.4329004,0 C7.35726013,-5.5704663e-16 1.11144538e-15,7.37478785 0,16.4720497 C-1.11144538e-15,25.5693115 7.35726013,32.9440994 16.4329004,32.9440994 C25.5085407,32.9440994 32.8658009,25.5693115 32.8658009,16.4720497 C32.8658009,12.1033905 31.1344824,7.9136602 28.0527158,4.82455165 C24.9709491,1.73544311 20.7911766,2.67503225e-16 16.4329004,0 Z M20.8571429,26.1493789 L20.8571429,18.3251553 L18.8851948,21.2806211 L16.3570563,16.5290683 L13.9047619,21.2837888 L11.8348485,18.328323 L11.8348485,26.1493789 L6.26662338,26.1493789 L6.26662338,6.82639752 L11.351342,6.82639752 L16.3791775,14.216646 L21.407013,6.7978882 L26.4854113,6.7978882 L26.4854113,26.1430435 L20.8571429,26.1493789 Z" id="形状" fill="url(#linearGradient-1)"></path>
                            <polygon id="路径" fill="#FFFFFF" points="11.8474892 18.328323 13.9174026 21.2837888 16.3475758 16.5259006 18.8851948 21.2806211 20.8571429 18.3251553 20.8634632 26.1493789 26.4917316 26.1493789 26.4854113 6.8042236 21.407013 6.7978882 16.3791775 14.216646 11.351342 6.81055901 6.26978355 6.81372671 6.26662338 26.1493789 11.8474892 26.1493789"></polygon>
                            <g id="编组" style="mix-blend-mode: multiply;" transform="translate(6.004329, 6.652174)">
                                <path d="M26.4727706,6.15801242 L20.4684416,0.139378882 L20.4684416,19.4845342 L14.8528139,19.4845342 L14.8528139,11.6603106 L12.8808658,14.6157764 L10.3527273,9.8642236 L7.9004329,14.6316149 L5.83051948,11.6761491 L5.83051948,19.497205 L0.262294372,19.497205 L6.6174026,25.8642857 C12.1477721,27.1839364 17.965966,25.5486955 22.0056865,21.5393095 C26.0454069,17.5299234 27.7343777,11.7143712 26.4727706,6.15801242 Z" id="路径" fill="url(#linearGradient-2)"></path>
                                <polygon id="路径" fill="url(#linearGradient-3)" points="11.3292208 6.15801242 5.34701299 0.158385093 10.3748485 7.56447205"></polygon>
                            </g>
                            <path d="M82.891342,6.21819876 C83.0148241,6.297754 83.0888325,6.43535471 83.0872727,6.58248447 C83.0870745,6.72917382 83.0134909,6.86598481 82.891342,6.94677019 L78.492381,9.82304348 C78.3597622,9.91090898 78.1895888,9.9182195 78.0499567,9.84204969 C77.9094056,9.76611607 77.8219567,9.61880323 77.8224242,9.45875776 L77.8224242,3.70304348 C77.8209954,3.54354789 77.9088874,3.39671226 78.0499567,3.32291925 C78.1129066,3.288157 78.1834998,3.26965019 78.255368,3.26906832 C78.3398252,3.26930234 78.4223128,3.29465881 78.492381,3.34192547 L82.891342,6.21819876 Z M83.9563203,5.50229814 C84.3220933,5.73922137 84.5430002,6.14595185 84.5430002,6.58248447 C84.5430002,7.01901709 84.3220933,7.42574758 83.9563203,7.66267081 L78.584026,11.1661491 C78.1886606,11.4240625 77.6841681,11.4443391 77.2694713,11.2189838 C76.8547745,10.9936285 76.5964198,10.5588039 76.5962771,10.0859627 L76.5962771,3.07583851 C76.5954326,2.60262816 76.853905,2.16717899 77.2692025,1.94215905 C77.6845,1.7171391 78.1895271,1.73890267 78.584026,1.99881988 L83.9563203,5.50229814 Z M83.0240693,7.14950311 L83.0240693,7.15583851 C83.2176609,7.03187389 83.3348154,6.81750483 83.3348154,6.58723602 C83.3348154,6.35696722 83.2176609,6.14259816 83.0240693,6.01863354 L78.6345887,3.13602484 C78.426322,2.99717574 78.1582359,2.98618246 77.9393506,3.10751553 C77.7193562,3.22385251 77.5827314,3.4537334 77.5854113,3.70304348 L77.5854113,9.45875776 C77.5829854,9.70881305 77.7193692,9.93950906 77.9393506,10.0574534 C78.0365834,10.1098948 78.1449666,10.1381416 78.255368,10.1398137 C78.3881976,10.1396966 78.5179947,10.1000031 78.6282684,10.0257764 L83.0240693,7.14950311 Z M41.1075325,19.7506211 C40.8781489,19.7478517 40.6601926,19.6498117 40.5056429,19.4798825 C40.3510933,19.3099532 40.2738041,19.083367 40.2922078,18.8541615 L40.9463636,6.12950311 C40.9734449,5.64245059 41.3640197,5.25505198 41.8501732,5.23304348 L50.7397403,5.23304348 C50.9688847,5.23574505 51.1865786,5.33388331 51.340639,5.50393369 C51.4946993,5.67398407 51.5712368,5.90061572 51.5519048,6.12950311 L50.9009091,18.8541615 C50.8738279,19.341214 50.483253,19.7286126 49.9970996,19.7506211 L41.1075325,19.7506211 Z M46.5177489,17.6757764 L47.1561039,17.6757764 L47.3646753,13.5767702 L44.182381,13.5767702 L44.1318182,14.5524224 L43.964329,17.6757764 L46.5177489,17.6757764 Z M45.1241126,7.40291925 L44.4920779,7.39658385 L44.292987,11.4037267 L47.4784416,11.4037267 L47.6838528,7.40291925 L45.1241126,7.40291925 Z M62.9064069,27.0743478 C63.1048134,27.0762116 63.2934185,27.1610898 63.4266478,27.3084724 C63.5598772,27.4558551 63.625611,27.652335 63.6079654,27.8504348 L63.5416017,29.1428571 C63.5237987,29.5633322 63.1869043,29.8996509 62.7673593,29.9157764 L39.6980952,29.9157764 C39.5002886,29.9138416 39.3122272,29.8293948 39.1791021,29.6827285 C39.0459769,29.5360622 38.9798229,29.3404354 38.9965368,29.1428571 L39.0787013,27.8472671 L39.0787013,27.7459006 C39.1393541,27.3668363 39.4606069,27.0847377 39.8434632,27.0743478 L39.9035065,27.0743478 L40.1531602,22.2340994 C40.1802414,21.7470469 40.5708162,21.3596483 41.0569697,21.3376398 L62.2901732,21.3376398 C62.5193176,21.3403413 62.7370115,21.4384796 62.8910719,21.60853 C63.0451322,21.7785803 63.1216697,22.005212 63.1023377,22.2340994 L62.8558442,27.0743478 L62.9064069,27.0743478 Z M58.3873593,27.4481366 L58.5801299,23.6659006 L58.5200866,23.6659006 L55.3188312,26.1525466 C55.1536127,26.2907208 54.9081508,26.2695098 54.768961,26.1050311 L51.5108225,22.2309317 L51.4981818,22.2309317 L48.2400433,26.1050311 C48.0997305,26.2698962 47.8532688,26.2910718 47.687013,26.1525466 L44.5268398,23.7102484 L44.3372294,27.4481366 L58.3873593,27.4481366 Z M52.3988312,20.6280745 C51.9500866,20.6280745 51.6877922,20.1244099 52.0259307,19.2596273 C52.1840497,18.7587822 52.2899546,18.242858 52.3419481,17.7201242 C52.3609091,17.5775776 52.37671,17.4286957 52.395671,17.2861491 L52.395671,17.2576398 C52.395671,17.2576398 52.6042424,15.1257764 52.6453247,14.3211801 L53.0656277,6.12950311 C53.0927089,5.64245059 53.4832837,5.25505198 53.9694372,5.23304348 L63.0865368,5.23304348 C63.3159203,5.23581294 63.5338767,5.33385288 63.6884263,5.50378212 C63.842976,5.67371137 63.9202651,5.90029758 63.9018615,6.12950311 L63.2034632,19.7316149 C63.1798132,20.2390616 62.7622037,20.6381311 62.2554113,20.6375776 L60.3593074,20.6375776 C60.1284909,20.6348708 59.9091943,20.536065 59.7539496,20.3648288 C59.5987049,20.1935927 59.5214976,19.9653525 59.5408225,19.7347826 L59.7177922,16.5670807 L56.3048052,16.5670807 C56.2890043,16.6399379 56.2890043,16.7159627 56.2890043,16.7919876 L56.2890043,17.0137267 L56.2890043,17.127764 C56.2637229,17.191118 56.2637229,17.254472 56.2637229,17.3178261 C56.191039,17.9735404 56.0614719,18.6704348 55.9477056,19.2184472 C55.900303,19.4338509 55.8402597,19.6682609 55.7802165,19.8804969 C55.6632864,20.312017 55.2780875,20.6157621 54.8321645,20.6280745 L52.3988312,20.6280745 Z M56.4880952,14.3845342 L59.8726407,14.3845342 L60.0022078,12.0689441 L56.6271429,12.0689441 C56.5860606,12.8196894 56.538658,13.6084472 56.4880952,14.3845342 Z M57.287619,7.41559006 L56.8641558,7.41559006 C56.8641558,7.41559006 56.8199134,8.44192547 56.7440693,9.91173913 L60.1254545,9.91173913 L60.2645022,7.41559006 L57.287619,7.41559006 Z M119.343939,29.6401863 L119.457706,27.422795 C119.465945,27.2704757 119.589972,27.1502974 119.742121,27.147205 L120.800779,27.147205 C120.951785,27.1442342 121.075374,27.025857 121.085195,26.8747826 L121.350649,21.717764 C121.354492,21.6441158 121.326535,21.572371 121.273909,21.5208326 C121.221283,21.4692941 121.149078,21.4429458 121.075714,21.4485093 L120.051818,21.4991925 C119.97651,21.5058207 119.90207,21.4791543 119.848011,21.4261838 C119.793951,21.3732133 119.765663,21.2992208 119.770563,21.2236025 L119.887489,19.0062112 C119.895185,18.8620275 120.009204,18.7463763 120.152944,18.7369565 L121.246364,18.6799379 C121.391222,18.6691437 121.505905,18.5528352 121.514978,18.4075155 L121.830996,12.1734783 C121.835361,12.1027278 121.810332,12.0333193 121.761846,11.981718 C121.713361,11.9301167 121.645739,11.9009207 121.575022,11.9010559 L120.529004,11.9010559 C120.458287,11.9011911 120.390665,11.8719951 120.342179,11.8203938 C120.293694,11.7687925 120.268665,11.699384 120.27303,11.6286335 L120.389957,9.41124224 C120.398282,9.25947265 120.522742,9.14026096 120.674372,9.13881988 L121.72987,9.13881988 C121.880876,9.13584909 122.004465,9.01747195 122.014286,8.86639752 L122.188095,5.48645963 C122.196335,5.33414027 122.320362,5.21396197 122.472511,5.21086957 L126.65658,5.21086957 C126.727885,5.21067318 126.79604,5.24029912 126.844629,5.29261146 C126.893218,5.34492379 126.917836,5.41518072 126.912554,5.48645963 L126.738745,8.86639752 C126.734379,8.93714795 126.759408,9.00655645 126.807894,9.05815774 C126.856379,9.10975903 126.924002,9.13895506 126.994719,9.13881988 L127.961732,9.13881988 C128.032996,9.1378012 128.101457,9.16661079 128.15064,9.21831545 C128.199822,9.27002012 128.225273,9.33993775 128.220866,9.41124224 L128.1071,11.6286335 C128.095712,11.7802104 127.971142,11.8982162 127.819524,11.9010559 L126.852511,11.9010559 C126.701505,11.9040267 126.577916,12.0224038 126.568095,12.1734783 L126.267879,17.9957143 C126.26297,18.0704942 126.290922,18.1436877 126.344392,18.1960668 C126.397862,18.248446 126.471504,18.2747748 126.545974,18.2681366 L127.525628,18.2016149 C127.600097,18.1949768 127.67374,18.2213056 127.72721,18.2736847 C127.78068,18.3260639 127.808632,18.3992574 127.803723,18.4740373 L127.689957,20.6914286 C127.682609,20.8351286 127.57067,20.95139 127.427662,20.9638509 L126.356364,21.0367081 C126.215099,21.0491531 126.104563,21.164006 126.097229,21.3059627 L125.664286,29.6401863 C125.657518,29.7926698 125.532142,29.9127595 125.37987,29.9126087 L119.599913,29.9126087 C119.528897,29.9136998 119.460699,29.8847971 119.412003,29.8329717 C119.363306,29.7811463 119.338604,29.7111787 119.343939,29.6401863 Z M144.852857,10.7385093 C144.928225,10.7351204 145.001247,10.7652312 145.052419,10.8207997 C145.103591,10.8763682 145.127702,10.9517346 145.118312,11.0267702 L145.020346,12.9463975 C145.010525,13.0974719 144.886937,13.2158491 144.735931,13.2188199 L143.825801,13.2188199 C143.745209,13.2202691 143.668835,13.2551906 143.614914,13.3152461 C143.560992,13.3753017 143.534363,13.4551008 143.541385,13.5355901 C143.617638,14.1212462 143.732712,14.7011626 143.885844,15.2714907 C144.043853,15.8321739 144.337749,16.7381366 144.517879,17.2861491 C144.550766,17.3940913 144.530938,17.5112587 144.464381,17.6022924 C144.397823,17.6933261 144.292331,17.7475623 144.17974,17.7486335 L141.540996,17.7486335 C141.412656,17.7516403 141.295254,17.6765246 141.243939,17.5585714 C141.032139,17.0650425 140.852681,16.55819 140.70671,16.0412422 C140.572078,15.5961252 140.474827,15.1404994 140.415974,14.6791304 C140.368571,14.3496894 140.33381,14.0012422 140.311688,13.684472 C140.291872,13.4137156 140.067417,13.2039091 139.79658,13.2029814 L139.648052,13.2029814 C139.497046,13.2059522 139.373457,13.3243293 139.363636,13.4754037 L139.132944,17.5427329 C139.123123,17.6938073 138.999534,17.8121845 138.848528,17.8151553 L134.49697,17.8151553 C134.426253,17.8152905 134.358631,17.7860944 134.310145,17.7344931 C134.261659,17.6828919 134.23663,17.6134834 134.240996,17.5427329 L134.452727,13.4437267 C134.457093,13.3729763 134.432064,13.3035678 134.383578,13.2519665 C134.335092,13.2003652 134.26747,13.1711692 134.196753,13.1713043 L133.991342,13.1713043 C133.715622,13.1812402 133.483452,13.3810931 133.431991,13.652795 C133.378268,13.9854037 133.308745,14.3306832 133.22658,14.6474534 C133.117428,15.111976 132.972684,15.5673646 132.793636,16.0095652 C132.592258,16.5287755 132.360098,17.0354555 132.098398,17.5268944 C132.03633,17.6440493 131.914716,17.7171914 131.782381,17.7169565 L129.146797,17.7169565 C129.034667,17.7205947 128.929019,17.6643704 128.86921,17.5692289 C128.8094,17.4740873 128.804395,17.3542927 128.856061,17.254472 C129.089913,16.7064596 129.478615,15.8004969 129.680866,15.2398137 C129.894315,14.6736096 130.069573,14.09367 130.205455,13.503913 C130.22262,13.4274682 130.204441,13.3473411 130.155983,13.2858555 C130.107525,13.2243699 130.033966,13.1880971 129.955801,13.1871429 L129.070952,13.1871429 C129.000235,13.187278 128.932613,13.158082 128.884128,13.1064807 C128.835642,13.0548794 128.810613,12.9854709 128.814978,12.9147205 L128.912944,10.9950932 C128.924331,10.8435163 129.048901,10.7255106 129.200519,10.7226708 L129.974762,10.7226708 C130.055353,10.7212215 130.131728,10.6863001 130.185649,10.6262446 C130.239571,10.566189 130.2662,10.4863899 130.259177,10.4059006 L130.12013,9.23385093 C130.110351,9.1327466 130.143505,9.03218911 130.211462,8.95683653 C130.279418,8.88148396 130.375893,8.83830517 130.477229,8.8378882 L133.005368,8.8378882 C133.163987,8.83632333 133.299185,8.95287063 133.321385,9.11031056 L133.533117,10.5072671 C133.550589,10.633471 133.658826,10.7270479 133.785931,10.7258385 L134.338961,10.7258385 C134.490592,10.7243974 134.615052,10.6051857 134.623377,10.4534161 L134.752944,8.14732919 C134.758279,8.07633684 134.733577,8.00636925 134.68488,7.95454384 C134.636184,7.90271843 134.567986,7.87381577 134.49697,7.87490683 L129.718788,7.87490683 C129.648071,7.87504202 129.580449,7.84584599 129.531963,7.7942447 C129.483477,7.7426434 129.458448,7.67323491 129.462814,7.60248447 L129.560779,5.70186335 C129.5706,5.55078892 129.694189,5.43241178 129.845195,5.42944099 L144.833896,5.42944099 C144.904912,5.42834993 144.97311,5.45725259 145.021807,5.509078 C145.070503,5.56090341 145.095205,5.630871 145.08987,5.70186335 L144.991905,7.60248447 C144.98358,7.75425406 144.85912,7.87346575 144.707489,7.87490683 L139.929307,7.87490683 C139.778301,7.87787762 139.654713,7.99625476 139.644892,8.14732919 L139.524805,10.4692547 C139.52044,10.5400051 139.545469,10.6094136 139.593954,10.6610149 C139.64244,10.7126162 139.710062,10.7418122 139.780779,10.741677 L140.283247,10.741677 C140.413369,10.7387207 140.525676,10.6494368 140.558182,10.5231056 L140.912121,9.12614907 C140.953446,8.96715242 141.095837,8.85556305 141.25974,8.85372671 L143.768918,8.85372671 C143.868408,8.85054522 143.963579,8.89453728 144.025762,8.97245106 C144.087945,9.05036484 144.109871,9.15309261 144.084935,9.24968944 L143.825801,10.4217391 C143.808521,10.4987228 143.827088,10.5794062 143.876265,10.6410233 C143.925441,10.7026403 143.999894,10.7385093 144.078615,10.7385093 L144.852857,10.7385093 Z M143.914286,18.6197516 C144.125614,18.6156467 144.328912,18.7008659 144.474412,18.8545478 C144.619913,19.0082296 144.694185,19.2161882 144.679048,19.4275155 L144.17974,29.1048447 C144.154778,29.5549048 143.785637,29.9082953 143.335974,29.9126087 L129.064632,29.9126087 C128.854444,29.9138987 128.653147,29.8276965 128.508771,29.6745698 C128.364395,29.5214432 128.289889,29.3151256 128.30303,29.1048447 L128.799177,19.4275155 C128.825653,18.9781564 129.19391,18.6256127 129.642944,18.6197516 L143.914286,18.6197516 Z M134.623377,27.3055901 L134.715022,25.5570186 L132.771515,25.5570186 L132.67987,27.3055901 L134.623377,27.3055901 Z M134.841429,23.0925466 L134.939394,21.2584472 L132.980087,21.2584472 L132.885281,23.0925466 L134.841429,23.0925466 Z M139.843983,27.3055901 L139.932468,25.5570186 L138.017403,25.5570186 L137.925758,27.3055901 L139.843983,27.3055901 Z M140.062035,23.0925466 L140.144199,21.2584472 L138.225974,21.2584472 L138.131169,23.0925466 L140.062035,23.0925466 Z M117.34039,6.7947205 C117.510879,6.79877785 117.672497,6.87172298 117.788539,6.99698915 C117.904581,7.12225532 117.965198,7.28921078 117.956623,7.45993789 L117.8871,8.90440994 C117.872174,9.27031691 117.576076,9.56157205 117.210823,9.56962733 L109.032294,9.56962733 C108.667692,9.579226 108.37247,9.86961937 108.356017,10.2348447 L108.356017,10.4914286 C108.347447,10.6616207 108.407637,10.8280977 108.522997,10.953269 C108.638356,11.0784402 108.799157,11.1517504 108.969091,11.156646 L115.678139,11.156646 C115.848628,11.1607033 116.010246,11.2336484 116.126288,11.3589146 C116.24233,11.4841808 116.302947,11.6511362 116.294372,11.8218634 L115.602294,26.5770186 C115.593724,26.7472107 115.653914,26.9136878 115.769274,27.038859 C115.884633,27.1640303 116.045434,27.2373404 116.215368,27.242236 L116.382857,27.242236 C116.554535,27.2470322 116.716873,27.3216525 116.832519,27.4489275 C116.948165,27.5762025 117.007161,27.7451716 116.995931,27.9169565 L116.932727,29.2473913 C116.917802,29.6132983 116.621704,29.9045534 116.25645,29.9126087 L93.1619048,29.9126087 C92.9919711,29.9077131 92.83117,29.8344029 92.7158105,29.7092317 C92.6004509,29.5840604 92.5402608,29.4175834 92.5488312,29.2473913 L92.6088745,27.9169565 C92.6253317,27.5499823 92.9219652,27.258174 93.2883117,27.2485714 L93.4241991,27.2485714 C93.7894531,27.2405161 94.0855505,26.949261 94.1004762,26.583354 L94.7957143,11.8218634 C94.81064,11.4559564 95.1067374,11.1647012 95.4719913,11.156646 L102.19368,11.156646 C102.558934,11.1485907 102.855031,10.8573355 102.869957,10.4914286 L102.869957,10.2348447 C102.878532,10.0641176 102.817915,9.89716215 102.701872,9.77189598 C102.58583,9.64662981 102.424212,9.57368468 102.253723,9.56962733 L94.1162771,9.56962733 C93.9463434,9.56473175 93.7855423,9.49142158 93.6701828,9.36625032 C93.5548232,9.24107906 93.4946331,9.07460205 93.5032035,8.90440994 L93.5695671,7.45993789 C93.5861135,7.09352332 93.8831725,6.80268144 94.2490043,6.7947205 L102.395931,6.7947205 C102.760534,6.78512182 103.055755,6.49472845 103.072208,6.12950311 L103.072208,5.90142857 C103.088665,5.53445436 103.385299,5.24264605 103.751645,5.23304348 L107.948355,5.23304348 C108.118867,5.23791045 108.280176,5.31165764 108.39563,5.43752818 C108.511085,5.56339871 108.57088,5.73070389 108.561429,5.90142857 L108.561429,6.12950311 C108.552858,6.29969522 108.613048,6.46617223 108.728408,6.59134349 C108.843767,6.71651474 109.004569,6.78982491 109.174502,6.7947205 L117.34039,6.7947205 Z M108.807922,13.8206832 L99.7477056,13.8206832 C99.7145446,13.8206832 99.6876623,13.8476296 99.6876623,13.8808696 L99.6244589,15.236646 L107.992597,15.236646 C108.184558,15.2373152 108.367939,15.3164496 108.500356,15.4557589 C108.632773,15.5950682 108.702765,15.7824953 108.694156,15.9747205 L108.634113,17.1721118 C108.618802,17.5487989 108.308652,17.845683 107.932554,17.8436646 L99.5612554,17.8436646 C99.5281526,17.8450981 99.5011767,17.8707863 99.4980519,17.9038509 L99.4316883,19.3451553 L107.793506,19.3451553 C107.985754,19.3449186 108.169675,19.4237725 108.30229,19.5632894 C108.434904,19.7028063 108.504591,19.890761 108.495065,20.0832298 L108.441342,21.2236025 C108.422797,21.5983145 108.114064,21.8924484 107.739784,21.8919876 L99.371645,21.8919876 C99.3551804,21.8911177 99.3390834,21.8970727 99.32713,21.9084554 C99.3151766,21.9198382 99.3084187,21.9356472 99.3084416,21.9521739 L99.2483983,23.2192547 L107.607056,23.2192547 C107.799017,23.2199239 107.982398,23.2990583 108.114815,23.4383676 C108.247232,23.5776769 108.317224,23.765104 108.308615,23.9573292 L108.254892,25.1262112 C108.236344,25.5026729 107.926198,25.7982228 107.550173,25.797764 L99.1851948,25.797764 C99.152714,25.799355 99.1267387,25.8253921 99.1251515,25.8579503 L99.0587879,27.242236 L110.606061,27.242236 L111.276017,13.8206832 L108.807922,13.8206832 Z M90.210303,10.4819255 C90.4084383,10.4855379 90.5961692,10.5715065 90.7286042,10.719274 C90.8610391,10.8670415 90.9262711,11.0633222 90.9087013,11.2611801 L90.8454978,12.5282609 C90.8275801,12.9516566 90.4874562,13.2898302 90.0649351,13.3043478 L82.4109957,13.3043478 C81.9929966,13.3166388 81.6532291,13.6462294 81.6272727,14.0645963 L81.4787446,17.010559 C81.4620307,17.2081373 81.5281847,17.403764 81.6613099,17.5504304 C81.794435,17.6970967 81.9824964,17.7815435 82.180303,17.7834783 L89.3949784,17.7834783 C89.5924714,17.7863518 89.7799594,17.8710784 89.9128811,18.0175206 C90.0458029,18.1639628 90.1122888,18.3590438 90.0965368,18.5563975 L90.027013,19.8804969 C90.0105186,20.3039965 89.6691133,20.6420586 89.2464502,20.6534161 L82.0349351,20.6534161 C81.6111824,20.666312 81.2692334,21.0049294 81.2512121,21.4295031 L81.0015584,26.2919255 C80.9829755,26.4905452 81.0482861,26.6878807 81.1816205,26.8359816 C81.314955,26.9840826 81.5041077,27.0693918 81.7031169,27.0711801 L89.7489177,27.0711801 C89.9467713,27.0739194 90.1345375,27.1591772 90.2670727,27.3064555 C90.399608,27.4537337 90.4649235,27.6497101 90.447316,27.8472671 L90.3809524,29.1428571 C90.364552,29.5651726 90.0249814,29.9027849 89.6035498,29.9157764 L66.2783117,29.9157764 C66.0802658,29.9137726 65.8919428,29.8294237 65.7583287,29.6828788 C65.6247146,29.5363339 65.5578086,29.3407535 65.5735931,29.1428571 L65.6431169,27.837764 C65.6596113,27.4142644 66.0010166,27.0762022 66.4236797,27.0648447 L74.5548052,27.0648447 C74.976814,27.051953 75.3173511,26.7147506 75.335368,26.2919255 L75.5976623,21.4421739 C75.6143374,21.2442971 75.5482676,21.0483676 75.4152435,20.9012119 C75.2822193,20.7540562 75.0941936,20.668897 74.8961039,20.666087 L67.6719481,20.666087 C67.4741414,20.6641522 67.2860801,20.5797054 67.1529549,20.4330391 C67.0198297,20.2863727 66.9536757,20.090746 66.9703896,19.8931677 L67.0367532,18.5690683 C67.0563787,18.1457344 67.3978851,17.8089357 67.8204762,17.7961491 L75.0288312,17.7961491 C75.4520706,17.7848876 75.7944394,17.4472384 75.8125541,17.0232298 L75.9610823,14.0772671 C75.9777961,13.8796888 75.9116421,13.6840621 75.778517,13.5373957 C75.6453918,13.3907294 75.4573305,13.3062826 75.2595238,13.3043478 L67.6024242,13.3043478 C67.4037349,13.3016056 67.2151677,13.2160141 67.0820403,13.0681431 C66.9489129,12.9202721 66.8832622,12.7234915 66.9008658,12.5250932 L66.9672294,11.2580124 C66.9836338,10.8339483 67.3246166,10.4949208 67.7477922,10.4819255 L75.9231602,10.4819255 C76.0533744,11.1408211 76.5016642,11.6918117 77.119374,11.9521854 C77.7370838,12.2125592 78.4434844,12.1482875 79.004329,11.7806832 L80.9825974,10.4819255 L90.210303,10.4819255 Z" id="形状结合" fill="#FF5B29" fill-rule="nonzero"></path>
                        </g>
                    </g>
                </g>
            </g>
        </g>
    </g>
</svg>