<svg width="276" height="74" xmlns="http://www.w3.org/2000/svg" xmlns:xlink="http://www.w3.org/1999/xlink"><defs><path id="a" d="M.233.035h54.226v12.082H.233z"/><path id="c" d="M.278.068h188.853v52.254H.278z"/></defs><g fill="none" fill-rule="evenodd"><g transform="translate(9.121 .303)"><mask id="b" fill="#fff"><use xlink:href="#a"/></mask><path d="M27.346.035C16.582.035 6.908 4.7.233 12.117h54.226C47.784 4.699 38.11.035 27.346.035" fill="#A8282F" mask="url(#b)"/></g><path d="M68.891 20.1L30.325 50.425s-2.511 1.887-.915 4.706c0 0 .86 1.651 3.007 1.651H66.98a36.304 36.304 0 005.954-19.977c0-6.022-1.46-11.702-4.043-16.707M36.467 73.273c10.703 0 20.33-4.611 27-11.955h-54c6.67 7.344 16.297 11.955 27 11.955m7.423-53.991s-.687-2.46-3.439-2.473H5.967A36.293 36.293 0 000 36.806a36.316 36.316 0 004.049 16.716l38.645-30.449s1.892-1.343 1.195-3.79" fill="#A8282F"/><g transform="translate(85.132 1.992)"><mask id="d" fill="#fff"><use xlink:href="#c"/></mask><path d="M119.582 20.63c2.694-.39 4.4-1.405 5.12-3.043l1.633-6.459H89.626v-.001H84.25c-1.119-.35-.826-1.296-.826-1.296l.011-.066H70.37l-.399 1.598c-.609 2.442.71 3.663 3.956 3.663h38.163v.003a.372.372 0 01.016.743v.004l-18.7 3.148-21.88-3.73-.164-.03a2.54 2.54 0 00-2.855 2.07l-.785 3.153 8.643 1.462-9.434 1.704-1.579 6.335 28.515-4.873 27.79 4.873 1.398-5.604-12.113-2.192 8.641-1.462zM84.047 6.756h30.467l-.473 1.896h12.92l1.641-6.579-22.183-.001.412-1.65H94.157l-.412 1.651H72.296l-1.641 6.58h12.919l.473-1.897zm92.066 8.75h-5.121l.844-3.384h5.12l-.843 3.384zM173.5 25.984h-5.12l1.457-5.848h5.12l-1.457 5.848zm-13.709-10.478h-5.802l.845-3.384h5.801l-.844 3.384zm-2.61 10.478h-5.803l1.458-5.848h5.801l-1.457 5.848zM189.13.404h-40.628l-1.033 4.143h28.485l-6.028 3.675h-6.576l-.426-2.193h-10.713l.428 2.191h-6.087l-8.256 33.115h9.252l2.674-10.72h5.801l-2.672 10.72h11.199l2.674-10.72h5.121l-2.674 10.72h5.115c2.84.324 4.605-1.219 5.293-4.63L187.186 8.2h-5.113l6.026-3.654L189.13.403zm-52.415 36.31l.63-2.525h-10.47l-3.121 12.517h49.181c2.76 0 4.646-1.38 5.66-4.143H129.9c3.53-.487 5.803-2.437 6.815-5.849zm1.432-4.877l6.573-26.356h-.003l.038-.145c.177-.71.21-1.4.097-2.051a3.858 3.858 0 00-.711-1.674 3.69 3.69 0 00-1.393-1.128A4.524 4.524 0 00140.8.068c-.71 0-1.435.14-2.154.415a7.287 7.287 0 00-1.955 1.128 7.471 7.471 0 00-1.546 1.674 6.472 6.472 0 00-.925 2.051c-.013.045-.022.089-.033.133-.142.567.204 1.027.77 1.027.568 0 1.143-.46 1.283-1.027.006-.019.01-.039.014-.057.005-.026.01-.05.017-.076.214-.859.75-1.667 1.51-2.273.758-.608 1.65-.942 2.508-.942.86 0 1.583.334 2.039.942.455.606.589 1.414.374 2.273-.214.86-.75 1.667-1.509 2.274-.663.532-1.428.854-2.185.926h-3.201c-1.206.03-2.413.922-2.877 2.079a1.34 1.34 0 00-.035.11l-.143.567-5.122 20.545h10.517zM49.695 17.654H22.129l.78-3.128h27.565l-.779 3.128zm-2.02 8.106H20.107l.807-3.234H48.48l-.805 3.234zm-2 8.008H18.112l.852-3.41h27.563l-.85 3.41zm-2.192 8.795H15.92l1.03-4.135h27.564l-1.031 4.135zm-.397-32.668l.844-2.4h22.175l1.17-4.695h-21.93l.833-2.373H33.263L32.67 2.8H11.225l-1.17 4.694h20.957l-.842 2.4H11.16l-8.145 32.67H1.311L.278 46.705h56.05l1.034-4.143h-1.217L64.29 9.895H43.086zm31.832 25.24h34.579l-.79 3.293s-1.318 6.547-11.382 8.418c0 0-10.763 2.033-17.135-.976 0 0-6.722-2.359-5.272-10.735zm-1.125 14.294c10.335 5.284 27.798 1.713 27.798 1.713 16.324-3.285 18.462-14.78 18.462-14.78l1.283-5.784H65.24c-2.351 14.709 8.554 18.85 8.554 18.85z" fill="#001529" mask="url(#d)"/></g><path fill="#A8282F" d="M80.655 71.412l.523-1.277 7.375-6.453h-4.607l.647-1.555h7.432l-.554 1.333-7.293 6.425h8.22l-.623 1.527z"/><path fill="#001529" d="M95.532 71.412l1.642-3.983h-2.899l-1.642 3.983h-2.472l3.83-9.27h2.472l-1.572 3.788h2.899l1.573-3.789h2.472l-3.83 9.27zm7.298 0h-2.457l3.811-9.257h2.458z"/><path fill="#A8282F" d="M105.08 71.412l3.831-9.27h2.443l-1.584 3.83h.53l3.998-3.83h2.649l-4.757 4.482 1.044 4.788h-2.605l-.911-3.956h-.575l-1.62 3.956z"/><path fill="#001529" d="M114.586 71.412l3.83-9.27h16.038l-.646 1.553h-13.594l-.923 2.22h3.944l-.65 1.57h-3.944l-.984 2.386h4.312l-.628 1.54z"/><path fill="#A8282F" d="M125.357 71.412l3.189-7.73h-2.782l.623-1.527h8.05l-.623 1.527h-2.781l-3.189 7.73z"/><path d="M139.496 66.79c1.162-2.803 1.267-3.33-.19-3.33-1.457 0-1.77.582-2.915 3.33-1.119 2.706-1.273 3.303.17 3.303 1.441 0 1.77-.485 2.935-3.303m-5.533 0c1.611-3.872 2.484-4.774 5.943-4.774 3.532 0 3.588.944 2.004 4.774-1.596 3.872-2.436 4.76-5.953 4.76-3.518 0-3.544-.999-1.994-4.76m14.07 4.622l-1.047-6.495-2.677 6.495h-2.208l3.831-9.27h3.032l.806 5.939 2.431-5.94h2.414l-3.83 9.27zm10.301-4.788h3.708l-1.873 4.538c-1.133.208-2.49.374-3.417.374-2.944 0-3.844-.457-2.237-4.315 1.642-3.983 2.349-5.233 5.851-5.233 0 0 1.852-.041 3.397.167l-.627 1.54c-1.73-.125-3.115-.069-3.336-.069-1.295 0-1.542.61-2.799 3.65l-.142.347c-.793 1.915-.482 2.276.384 2.332.306.013.722 0 1.153-.014l.811-1.985h-1.427l.554-1.332zm8.709 4.788l3.188-7.73h-2.781l.623-1.527h16.346l-.623 1.527h-11.077l-3.189 7.73z" fill="#001529"/><path fill="#001529" d="M173.929 71.412l3.83-9.27h6.755l-.646 1.553h-4.312l-.922 2.22h3.944l-.65 1.57h-3.944l-.985 2.386h4.313l-.628 1.54zm12.623-3.789c-.834 2.012-.42 2.318.83 2.318.604 0 1.871-.056 2.877-.125l-.58 1.374c-1.16.194-2.38.346-3.278.346-2.943 0-3.976-.457-2.37-4.316 1.643-3.982 2.482-5.231 5.985-5.231 0 0 1.84 0 3.384.208l-.641 1.54c-1.717-.125-3.089-.111-3.31-.111-1.295 0-1.497.61-2.754 3.65l-.143.347zm10.347 3.789l1.642-3.983h-2.9L194 71.412h-2.473l3.83-9.27h2.473l-1.573 3.788h2.9l1.572-3.789h2.473l-3.83 9.27zm10.771 0l-1.046-6.495-2.677 6.495h-2.208l3.83-9.27h3.032l.807 5.939 2.431-5.94h2.414l-3.83 9.27zm12.329-4.622c1.161-2.803 1.267-3.33-.19-3.33-1.457 0-1.77.582-2.915 3.33-1.12 2.706-1.273 3.303.17 3.303 1.441 0 1.77-.485 2.935-3.303m-5.534 0c1.612-3.872 2.485-4.774 5.943-4.774 3.533 0 3.59.944 2.005 4.774-1.596 3.872-2.436 4.76-5.954 4.76-3.517 0-3.543-.999-1.994-4.76m8.139 4.622l3.812-9.257h2.443l-3.184 7.716h4.106l-.628 1.54zm15.273-4.622c1.162-2.803 1.267-3.33-.19-3.33-1.457 0-1.77.582-2.915 3.33-1.119 2.706-1.273 3.303.17 3.303 1.441 0 1.77-.485 2.935-3.303m-5.533 0c1.611-3.872 2.484-4.774 5.943-4.774 3.532 0 3.588.944 2.004 4.774-1.596 3.872-2.436 4.76-5.953 4.76-3.518 0-3.544-.999-1.994-4.76m13.364-.166h5.036l-1.873 4.538c-2.46.208-3.817.374-4.744.374-2.944 0-3.845-.457-2.238-4.315 1.643-3.983 2.35-5.233 5.852-5.233 0 0 1.852-.041 3.397.167l-.628 1.54c-1.73-.125-3.115-.069-3.335-.069-1.295 0-1.542.61-2.8 3.65l-.142.347c-.792 1.915-.482 2.276.385 2.332.305.013 1.104-.037 3.004-.248l.717-1.751h-3.184l.553-1.332zm5.693 4.788l1.131-2.748-.435-6.523h2.678l.035 4.039 3.424-4.039h2.678l-5.893 6.523-1.13 2.748z"/></g></svg>