<svg id="图层_1" data-name="图层 1" xmlns="http://www.w3.org/2000/svg" viewBox="0 0 260.34 111.42"><defs><style>.cls-1,.cls-2{fill:#ca0607;}.cls-2{fill-rule:evenodd;}</style></defs><title>logo</title><rect class="cls-1" x="165.73" y="31.08" width="49.31" height="5.14"/><path class="cls-1" d="M218.08,38.24H166.72V31.06h51.36v7.18Zm-49.32-2H216V33.1H168.76v3.1Z" transform="translate(-2.01 -1)"/><rect class="cls-1" x="196.91" y="88.19" width="15.23" height="5.14"/><path class="cls-1" d="M215.18,95.35H197.91V88.17h17.27v7.18Zm-15.23-2h13.19v-3.1H200v3.1Z" transform="translate(-2.01 -1)"/><rect class="cls-1" x="223.7" y="88.19" width="35.67" height="5.14"/><path class="cls-1" d="M262.35,95.35H224.74V88.17h37.61v7.18Zm-35.67-2h33.73v-3.1H226.68v3.1Z" transform="translate(-2.01 -1)"/><rect class="cls-1" x="223.74" y="51.52" width="5.14" height="38.07"/><path class="cls-1" d="M231.92,91.61h-7.18V51.5h7.18V91.61Zm-5.14-2h3.1v-36h-3.1v36Z" transform="translate(-2.01 -1)"/><rect class="cls-1" x="177.48" y="15.01" width="5.14" height="78.43"/><path class="cls-1" d="M185.65,95.32h-7.17V15.13h7.17V95.32Zm-5.13-1.76h3.09V16.89h-3.09V93.56Z" transform="translate(-2.01 -1)"/><rect class="cls-1" x="209.9" y="30.97" width="5.14" height="62.48"/><path class="cls-1" d="M218.08,95.35H210.9V31.06h7.18V95.35Zm-5.14-1.81H216V32.87h-3.1V93.54Z" transform="translate(-2.01 -1)"/><rect class="cls-1" x="159.53" y="51.52" width="5.14" height="36.86"/><path class="cls-1" d="M167.71,90.4h-7.18V51.5h7.18V90.4Zm-5.14-2h3.1V53.54h-3.1V88.36Z" transform="translate(-2.01 -1)"/><rect class="cls-1" x="91.36" y="51.52" width="5.14" height="38.07"/><path class="cls-1" d="M99.54,91.61H92.36V51.5h7.18V91.61Zm-5.14-2h3.1v-36H94.4v36Z" transform="translate(-2.01 -1)"/><rect class="cls-1" x="105.17" y="88.16" width="45.69" height="5.14"/><path class="cls-1" d="M153.9,95.32H106.17V88.14H153.9v7.18Zm-45.69-2h43.65v-3.1H108.21v3.1Z" transform="translate(-2.01 -1)"/><rect class="cls-1" x="145.72" y="56.43" width="5.14" height="36.87"/><path class="cls-1" d="M153.9,95.32h-7.18V56.41h7.18V95.32Zm-5.14-2h3.1V58.45h-3.1V93.28Z" transform="translate(-2.01 -1)"/><rect class="cls-1" x="105.17" y="43.14" width="5.14" height="50.16"/><path class="cls-1" d="M113.35,95.32h-7.18V43.12h7.18v52.2Zm-5.14-2h3.1V45.16h-3.1V93.28Z" transform="translate(-2.01 -1)"/><rect class="cls-1" x="122.58" y="59.94" width="10.88" height="10.88"/><path class="cls-1" d="M136.49,72.84H123.57V59.92h12.92V72.84Zm-10.88-2h8.84V62h-8.84V70.8Z" transform="translate(-2.01 -1)"/><path class="cls-2" d="M7.33,65.94l8.77-5.79,8.42-6.6,1.35-1.35,3.68-3.33q.89-.82,3.25-3.25a18.53,18.53,0,0,0,2.54-2.87,4,4,0,0,0,.21-.58.58.58,0,0,0-.06-.35,5.91,5.91,0,0,0-1.73-1L29.9,39.1c-2.77-1.21-4-2.22-3.74-3l.12-.47,5.79-.11,2.22-.42a2.67,2.67,0,0,0,1.34-.47c.32-.23.47-.75.47-1.57l-.17-16.73.29-1.82.06-3.5c.07-1.41.45-2.21,1.11-2.4l.88-.06,1.29-.29c.19,0,2,.53,5.41,1.61s5.11,2,5.11,2.83c0,.2-.1.41-.17.64l-1.23,2.64-.18,1.22-.76,2.4-.06,1.11c0,.2-.16.74-.38,1.61A9.86,9.86,0,0,0,47,25l.12,5.38,1.23.77,7-7.61,5.55-6.67c1-1.17,1.8-1.76,2.49-1.78a4.34,4.34,0,0,1,2.54,1.14,15.08,15.08,0,0,1,3.86,4l.88,1.82a1.38,1.38,0,0,0,.88.7l3.33,1.11c-3-6.57-6.9-13.24-10.63-14.53-7-2.4-6.32-2.83-10.69-4.18C49.77,4,45.48,3,43.31,2.5c-4.66-1-16.8-3.15-23.12.73S14.41,9.1,10.82,11c0,0-5,6.28-6,20.17-.32,4.46-.44,6.46-.48,7.29,0,.27-.05,1,0,0,0-.21-.07-.16-.26,1.13-.65,4.37-1.12,6.37-1,9s-.66,2.54-.62,3.56c0,.81-.45,9.88.62,16.22ZM7.8,30.79l9.59-3.33q8-2.75,9.5-2.43c1,.22,1.62.56,1.75,1s-.34,1.42-1.43,2.86l-4.27,5.62-1.81,2.22-1.29,2.57a4.12,4.12,0,0,1-3.45,1.9,5.36,5.36,0,0,1-4.09-1.78L7,34.36a2.6,2.6,0,0,1-1.08-2C5.91,31.76,6.55,31.22,7.8,30.79Z" transform="translate(-2.01 -1)"/><path class="cls-2" d="M80.73,50.8c-.25-3.29.35-2.67-1.67-7.16s.28-4,.62-5.77A12.09,12.09,0,0,0,79,34.59a50.6,50.6,0,0,1-5.22-.37Q70,33.77,68.88,33a6,6,0,0,1-1.49-1.44l-2.16-4.38a1.89,1.89,0,0,0-.79-.53c-.25-.07-.79.37-1.61,1.35L59,32.49l-.94,1.11L53.53,39l-5.9,5.15-.94.93-4.56,3c-2.07,1.36-3.09,2.29-3.07,2.77s.16.7.44.62l6.78-1,.76-.24,7.19-1.11L55.75,49l4.68.47q2.18.18,2.4.18l3.1,1.11a12.1,12.1,0,0,1,3.22,1.11,1.43,1.43,0,0,1,.55,1.14,5.71,5.71,0,0,1-.23,1.72,9.08,9.08,0,0,0-.32,1.64l-.82,6.14.06,20.59-.24,2.11V97.59l.36,2.69v5.79c0,2-.2,3.08-.59,3.39a2.67,2.67,0,0,1-1.2.58A6.1,6.1,0,0,1,63.94,109l-5.49-2.81-9.13-5.26-4.74-3-7.25,1.34-1.11.36-7.66,3.15-1.35-.93-2-6.67V92.26l-1-8.71-.29-8.89.41-7.08.7-5.09a1.74,1.74,0,0,0-.47-1.28c-.31-.32-.74-.27-1.28.11l-6.09,4.33a40.52,40.52,0,0,0-5.64,4.83,17.49,17.49,0,0,0-3.71,5.2,9.06,9.06,0,0,1-1.35,2.61L2,79.93a51.7,51.7,0,0,1,.61,11.65c-.39,9.28,2,12.36,3.33,13.56,2.09,1.9,28.76,8.29,54.61,7.15A13.58,13.58,0,0,0,69,109.07a13.7,13.7,0,0,0,1.88-2.4c1.14-1.73,1.16-3,3.61-2.87s4.83.52,5.63-2.79,5-18.22,1.91-41.64C82,59.37,81,54.09,80.73,50.8Z" transform="translate(-2.01 -1)"/><path class="cls-2" d="M51,96.94a5.9,5.9,0,0,0,2.69.35,4,4,0,0,0,2.75-.7,2.34,2.34,0,0,0,.76-1.17l.11-7.84L57,80.74,57,73.25l-.35-7.6q-.29-5.15-1.58-7.22a3.76,3.76,0,0,0-3.92-1.79l-6.25.71-.76.11c-3.44.55-5.87,1.52-7.31,2.9s-2.11,2.56-2,3.54.68,1.34,1.69,1.11l6.55-1.35,2.52-.58a17,17,0,0,1,3-.15c1.35,0,2.09.29,2.22.79a4.06,4.06,0,0,1-.09,2,9.63,9.63,0,0,1-1,2.57c-.29.43-1.25.83-2.87,1.2a38.71,38.71,0,0,0-3.77,1l-4.33,1.87c-1.25.47-2.34.91-3.27,1.34a2.5,2.5,0,0,0-1.41,2.52,1.14,1.14,0,0,0,.36,1.05l4.78-1-1.1.22,1.46-.29-.36.07,5.1-1a13,13,0,0,1,1.81-.17c1.48.11,2.4.44,2.75,1a7.15,7.15,0,0,1,.56.91,14.79,14.79,0,0,1-.15,1.7l-.18,2a2.79,2.79,0,0,1-1.81,1.17L39,84.48c-3.12,1-4.88,1.88-5.26,2.58a4.58,4.58,0,0,0-.62,1.46,1.83,1.83,0,0,0,.56,1.11c.39.47,1.13.61,2.22.41l5.67-1A33.59,33.59,0,0,1,46,88.78c1.89,0,3.13.44,3.71,1.38a4.77,4.77,0,0,1,.38,2.1,9.87,9.87,0,0,0,.15,1.9,2.21,2.21,0,0,0,.17.5l-.29,1.7C50.12,96.47,50.41,96.67,51,96.94Z" transform="translate(-2.01 -1)"/><path class="cls-1" d="M95,112.23l-2.59-8.46h1.48l1.34,4.89.51,1.81c0-.09.16-.67.43-1.74l1.35-5H99l1.26,4.91.42,1.62.49-1.64,1.45-4.89H104l-2.65,8.46H99.88l-1.35-5.06-.32-1.45-1.72,6.51Z" transform="translate(-2.01 -1)"/><path class="cls-1" d="M108,112.23l-2.59-8.46h1.49l1.34,4.89.51,1.81c0-.09.16-.67.43-1.74l1.35-5H112l1.27,4.91.42,1.62.49-1.64,1.45-4.89H117l-2.64,8.46h-1.49l-1.35-5.06-.33-1.45-1.71,6.51Z" transform="translate(-2.01 -1)"/><path class="cls-1" d="M121,112.23l-2.59-8.46h1.48l1.35,4.89.5,1.81c0-.09.17-.67.44-1.74l1.35-5H125l1.27,4.91.42,1.62.49-1.64,1.45-4.89H130l-2.64,8.46H125.9l-1.35-5.06-.33-1.45-1.71,6.51Z" transform="translate(-2.01 -1)"/><path class="cls-1" d="M132.86,112.23V110.6h1.64v1.63Z" transform="translate(-2.01 -1)"/><path class="cls-1" d="M138.56,112.23v-7.34h-1.27v-1.12h1.27v-.9a4,4,0,0,1,.15-1.27,1.83,1.83,0,0,1,.73-.9,2.62,2.62,0,0,1,1.46-.35,6.78,6.78,0,0,1,1.34.15l-.22,1.25a4.18,4.18,0,0,0-.84-.08,1.25,1.25,0,0,0-.93.28,1.49,1.49,0,0,0-.27,1v.78h1.65v1.12H140v7.34Z" transform="translate(-2.01 -1)"/><path class="cls-1" d="M143.44,108a4.36,4.36,0,0,1,1.3-3.48,3.94,3.94,0,0,1,2.67-.94,3.8,3.8,0,0,1,2.85,1.14,4.36,4.36,0,0,1,1.11,3.16,5.67,5.67,0,0,1-.49,2.57,3.53,3.53,0,0,1-1.43,1.46,4.2,4.2,0,0,1-2,.51,3.84,3.84,0,0,1-2.88-1.13A4.57,4.57,0,0,1,143.44,108Zm1.47,0a3.63,3.63,0,0,0,.71,2.44,2.35,2.35,0,0,0,3.56,0,3.65,3.65,0,0,0,.71-2.48,3.51,3.51,0,0,0-.71-2.37,2.37,2.37,0,0,0-3.56,0A3.61,3.61,0,0,0,144.91,108Z" transform="translate(-2.01 -1)"/><path class="cls-1" d="M159.82,112.23V111a3.1,3.1,0,0,1-2.69,1.43,3.47,3.47,0,0,1-1.4-.28,2.29,2.29,0,0,1-1-.72,2.66,2.66,0,0,1-.44-1.07,7,7,0,0,1-.09-1.34v-5.24h1.43v4.69a8.22,8.22,0,0,0,.09,1.52,1.51,1.51,0,0,0,.57.89,1.85,1.85,0,0,0,1.09.32,2.37,2.37,0,0,0,1.21-.33,1.84,1.84,0,0,0,.8-.9,4.42,4.42,0,0,0,.24-1.65v-4.54h1.43v8.46Z" transform="translate(-2.01 -1)"/><path class="cls-1" d="M164.57,112.23v-8.46h1.29V105a3.06,3.06,0,0,1,2.69-1.39,3.45,3.45,0,0,1,1.41.28,2.14,2.14,0,0,1,1,.72,2.83,2.83,0,0,1,.45,1.06,8.47,8.47,0,0,1,.08,1.39v5.2H170v-5.14a3.63,3.63,0,0,0-.17-1.31,1.43,1.43,0,0,0-.59-.7,1.91,1.91,0,0,0-1-.26,2.31,2.31,0,0,0-1.58.59,2.86,2.86,0,0,0-.67,2.2v4.62Z" transform="translate(-2.01 -1)"/><path class="cls-1" d="M180.36,112.23v-1.06a2.65,2.65,0,0,1-2.37,1.25,3.34,3.34,0,0,1-1.86-.55,3.73,3.73,0,0,1-1.31-1.56,5.4,5.4,0,0,1-.47-2.3,6.08,6.08,0,0,1,.42-2.3,3.32,3.32,0,0,1,3.16-2.13,2.87,2.87,0,0,1,1.36.32,2.94,2.94,0,0,1,1,.84v-4.19h1.43v11.68ZM175.82,108a3.67,3.67,0,0,0,.69,2.43,2.07,2.07,0,0,0,1.62.81,2,2,0,0,0,1.59-.77,3.56,3.56,0,0,0,.66-2.35,4,4,0,0,0-.67-2.55,2,2,0,0,0-1.65-.81,2,2,0,0,0-1.59.78A3.83,3.83,0,0,0,175.82,108Z" transform="translate(-2.01 -1)"/><path class="cls-1" d="M191,109.51l1.48.18a3.61,3.61,0,0,1-1.3,2,4.41,4.41,0,0,1-5.36-.43,4.44,4.44,0,0,1-1.09-3.21,4.69,4.69,0,0,1,1.1-3.31,3.7,3.7,0,0,1,2.85-1.18,3.61,3.61,0,0,1,2.77,1.16,4.57,4.57,0,0,1,1.08,3.25c0,.08,0,.21,0,.38h-6.31a3.23,3.23,0,0,0,.79,2.13,2.33,2.33,0,0,0,1.77.75,2.16,2.16,0,0,0,1.34-.42A2.75,2.75,0,0,0,191,109.51Zm-4.71-2.32H191a2.8,2.8,0,0,0-.54-1.6,2.19,2.19,0,0,0-1.77-.83,2.26,2.26,0,0,0-1.66.66A2.62,2.62,0,0,0,186.25,107.19Z" transform="translate(-2.01 -1)"/><path class="cls-1" d="M201,111.19a5.38,5.38,0,0,1-1.54,1,4.52,4.52,0,0,1-1.58.27,3,3,0,0,1-2.14-.68A2.23,2.23,0,0,1,195,110a2.28,2.28,0,0,1,.28-1.13A2.38,2.38,0,0,1,196,108a3.8,3.8,0,0,1,1-.47,11.36,11.36,0,0,1,1.27-.21,13.3,13.3,0,0,0,2.56-.5c0-.19,0-.32,0-.37a1.59,1.59,0,0,0-.41-1.24,2.42,2.42,0,0,0-1.63-.48,2.59,2.59,0,0,0-1.5.35,2.18,2.18,0,0,0-.71,1.26l-1.4-.19a3.32,3.32,0,0,1,.63-1.46,2.73,2.73,0,0,1,1.26-.85,5.69,5.69,0,0,1,1.92-.3,5,5,0,0,1,1.76.26,2.25,2.25,0,0,1,1,.64,2.3,2.3,0,0,1,.45,1,9.33,9.33,0,0,1,.07,1.33v1.91a20.78,20.78,0,0,0,.09,2.53,3.14,3.14,0,0,0,.36,1h-1.5A3.1,3.1,0,0,1,201,111.19Zm-.12-3.2a10.74,10.74,0,0,1-2.34.54,5.12,5.12,0,0,0-1.26.29,1.22,1.22,0,0,0-.56.46,1.26,1.26,0,0,0-.2.68,1.23,1.23,0,0,0,.43,1,1.91,1.91,0,0,0,1.27.38,3,3,0,0,0,1.48-.36,2.21,2.21,0,0,0,.95-1,3.59,3.59,0,0,0,.23-1.44Z" transform="translate(-2.01 -1)"/><path class="cls-1" d="M205.19,109.71l1.42-.23a2,2,0,0,0,.67,1.31,2.32,2.32,0,0,0,1.52.46,2.24,2.24,0,0,0,1.47-.41,1.2,1.2,0,0,0,.48-.94.89.89,0,0,0-.43-.77,6.17,6.17,0,0,0-1.46-.48,14.52,14.52,0,0,1-2.19-.69,2.09,2.09,0,0,1-.92-.81,2.12,2.12,0,0,1-.32-1.13,2.21,2.21,0,0,1,.26-1,2.34,2.34,0,0,1,.7-.8,3.3,3.3,0,0,1,.92-.42,4.48,4.48,0,0,1,1.24-.17,4.88,4.88,0,0,1,1.74.29,2.4,2.4,0,0,1,1.12.77,3.07,3.07,0,0,1,.49,1.31l-1.4.2a1.53,1.53,0,0,0-.56-1,2,2,0,0,0-1.29-.37,2.32,2.32,0,0,0-1.41.33.94.94,0,0,0-.42.76.82.82,0,0,0,.17.5,1.32,1.32,0,0,0,.55.39l1.27.36a16.12,16.12,0,0,1,2.12.67,2,2,0,0,1,1.29,2,2.39,2.39,0,0,1-.42,1.35,2.7,2.7,0,0,1-1.21,1,4.38,4.38,0,0,1-1.78.34,3.93,3.93,0,0,1-2.51-.68A3.18,3.18,0,0,1,205.19,109.71Z" transform="translate(-2.01 -1)"/><path class="cls-1" d="M220.94,109.51l1.48.18a3.61,3.61,0,0,1-1.3,2,4.41,4.41,0,0,1-5.36-.43,4.44,4.44,0,0,1-1.09-3.21,4.69,4.69,0,0,1,1.1-3.31,3.7,3.7,0,0,1,2.85-1.18,3.61,3.61,0,0,1,2.77,1.16,4.57,4.57,0,0,1,1.08,3.25c0,.08,0,.21,0,.38h-6.31a3.23,3.23,0,0,0,.79,2.13,2.33,2.33,0,0,0,1.77.75,2.21,2.21,0,0,0,1.35-.42A2.81,2.81,0,0,0,220.94,109.51Zm-4.71-2.32H221a2.88,2.88,0,0,0-.55-1.6,2.19,2.19,0,0,0-1.77-.83,2.26,2.26,0,0,0-1.66.66A2.62,2.62,0,0,0,216.23,107.19Z" transform="translate(-2.01 -1)"/><path class="cls-1" d="M225.85,112.23V110.6h1.64v1.63Z" transform="translate(-2.01 -1)"/><path class="cls-1" d="M236.72,109.13l1.41.19A3.61,3.61,0,0,1,237,111.6a3.43,3.43,0,0,1-2.34.82,3.62,3.62,0,0,1-2.79-1.13,4.63,4.63,0,0,1-1.06-3.26,5.89,5.89,0,0,1,.46-2.39,3.17,3.17,0,0,1,1.38-1.55,4.12,4.12,0,0,1,2-.51,3.51,3.51,0,0,1,2.26.7,3.21,3.21,0,0,1,1.12,2l-1.39.21a2.34,2.34,0,0,0-.71-1.28,1.82,1.82,0,0,0-1.22-.43,2.21,2.21,0,0,0-1.76.78,3.6,3.6,0,0,0-.68,2.45,3.84,3.84,0,0,0,.65,2.48,2.14,2.14,0,0,0,1.71.78,2,2,0,0,0,1.41-.52A2.62,2.62,0,0,0,236.72,109.13Z" transform="translate(-2.01 -1)"/><path class="cls-1" d="M240.05,108a4.37,4.37,0,0,1,1.31-3.48,3.92,3.92,0,0,1,2.66-.94,3.8,3.8,0,0,1,2.85,1.14,4.36,4.36,0,0,1,1.11,3.16,5.54,5.54,0,0,1-.49,2.57,3.47,3.47,0,0,1-1.43,1.46,4.17,4.17,0,0,1-2,.51,3.83,3.83,0,0,1-2.87-1.13A4.57,4.57,0,0,1,240.05,108Zm1.48,0a3.57,3.57,0,0,0,.71,2.44,2.25,2.25,0,0,0,1.78.81,2.29,2.29,0,0,0,1.78-.82,3.71,3.71,0,0,0,.71-2.48,3.46,3.46,0,0,0-.72-2.37,2.25,2.25,0,0,0-1.77-.81,2.28,2.28,0,0,0-1.78.8A3.56,3.56,0,0,0,241.53,108Z" transform="translate(-2.01 -1)"/><path class="cls-1" d="M250.89,112.23v-8.46h1.28V105a2.91,2.91,0,0,1,1.06-1,3,3,0,0,1,1.5-.38,2.83,2.83,0,0,1,1.55.39,2.08,2.08,0,0,1,.84,1.09,3,3,0,0,1,2.62-1.48,2.54,2.54,0,0,1,1.93.7,3,3,0,0,1,.68,2.14v5.81h-1.43V106.9a4.14,4.14,0,0,0-.13-1.24,1.31,1.31,0,0,0-.51-.61,1.62,1.62,0,0,0-.86-.23,2,2,0,0,0-1.48.6,2.58,2.58,0,0,0-.59,1.9v4.91h-1.44v-5.49a2.39,2.39,0,0,0-.35-1.44,1.32,1.32,0,0,0-1.15-.48,2.08,2.08,0,0,0-1.11.32,1.78,1.78,0,0,0-.75.93,5.37,5.37,0,0,0-.23,1.77v4.39Z" transform="translate(-2.01 -1)"/></svg>