<svg id="图层_1" data-name="图层 1" xmlns="http://www.w3.org/2000/svg" viewBox="0 0 76.53 14.03"><defs><style>.cls-1{fill:#1054ff;}.cls-2{fill:#1ab394;}</style></defs><title>knowsafe标</title><path class="cls-1" d="M15.28,11.65l-1.85,6.91-1.08-6.63a.33.33,0,0,0-.33-.27H10.67L8,18.55l-.3-6.63a.33.33,0,0,0-.33-.27H6l.72,9.28h2l2.59-7.13,1,7.13h1.93l2.65-8.8a.33.33,0,0,0-.31-.47Z" transform="translate(24.36 -7.14)"/><path class="cls-1" d="M-7.74,14.53l-.67,6.39h1.86l.65-6.2a2.72,2.72,0,0,0-2.75-3.08h-4.73l-1,9.28h1.86l.81-7.71h2.77A1.16,1.16,0,0,1-7.74,14.53Z" transform="translate(24.36 -7.14)"/><path class="cls-1" d="M25.35,18.06c.41-1.9-.84-2.82-3.13-4.06-1.68-.92-2.66-1.46-2.45-2.42S21.4,9.7,22.88,9.86a3.18,3.18,0,0,1,1.8.71.41.41,0,0,0,.56-.05L26,9.7a4.58,4.58,0,0,0-2.82-1.31,5.44,5.44,0,0,0-3.37.7A3.67,3.67,0,0,0,18,11.46c-.46,2.34,2.32,3.57,3.32,4.07,1.87.93,2.41,1.42,2.18,2.5s-1.57,1.74-3,1.62a3.93,3.93,0,0,1-2.17-1.11.41.41,0,0,0-.56,0l-.79.75a5,5,0,0,0,3.19,1.81,5.44,5.44,0,0,0,3.37-.7A3.73,3.73,0,0,0,25.35,18.06Z" transform="translate(24.36 -7.14)"/><path class="cls-1" d="M35.53,20.92l.94-8.9a.33.33,0,0,0-.33-.37H34.64l-.12,1.18-.22-.21a3.85,3.85,0,0,0-2.7-1.08,5.24,5.24,0,0,0-4.93,4.75A4.07,4.07,0,0,0,30.6,21,4.71,4.71,0,0,0,33.53,20l.26-.21-.12,1.18Zm-4.62-1.48a2.69,2.69,0,0,1-2.58-3.16,3.47,3.47,0,0,1,3.25-3.16,2.69,2.69,0,0,1,2.58,3.16A3.47,3.47,0,0,1,30.91,19.44Z" transform="translate(24.36 -7.14)"/><path class="cls-1" d="M52,16.62a13.58,13.58,0,0,0,.14-1.48,3.65,3.65,0,0,0-3.63-3.94c-4,0-4.82,3.27-5,5A4.56,4.56,0,0,0,44.09,19a3.83,3.83,0,0,0,3.45,1.78A9.54,9.54,0,0,0,51.29,20l-.26-.9a.32.32,0,0,0-.44-.2,6.73,6.73,0,0,1-2.75.5,2.64,2.64,0,0,1-2.35-1.2,2.66,2.66,0,0,1-.27-1.46l0-.15Zm-6.68-1.16,0-.15a3,3,0,0,1,3-2.68c1.59,0,2.44,1,2.26,2.68l0,.15Z" transform="translate(24.36 -7.14)"/><path class="cls-1" d="M-2.81,12.07l0-.36a3.42,3.42,0,0,1,3.32-3h0a2.65,2.65,0,0,1,2.69,3l0,.36H4.76l0-.36A4.05,4.05,0,0,0,.71,7.14h0a5.22,5.22,0,0,0-5.05,4.57l0,.36Z" transform="translate(24.36 -7.14)"/><path class="cls-1" d="M-3.22,16l0,.36a2.65,2.65,0,0,0,2.69,3h0a3.42,3.42,0,0,0,3.32-3l0-.36H4.35l0,.36A5.22,5.22,0,0,1-.74,20.92h0a4.05,4.05,0,0,1-4.09-4.57l0-.36Z" transform="translate(24.36 -7.14)"/><polygon class="cls-2" points="26.06 8.25 24.35 9.18 22.63 5.53 24.34 4.6 26.06 8.25"/><path class="cls-1" d="M-23.07,8.64l-1.29,12.28h1.86L-21.25,9a.35.35,0,0,0-.36-.4Z" transform="translate(24.36 -7.14)"/><polygon class="cls-1" points="3.95 8.85 4.89 7.79 4.88 7.79 6.09 6.44 6.09 6.44 6.09 6.44 10.51 1.5 8.25 1.5 2.63 7.78 6.96 13.79 9.21 13.79 5.34 8.43 3.95 8.85"/><path class="cls-1" d="M41.75,9H44.3l.17-1.57H41.82a3.5,3.5,0,0,0-3.4,3.08l-1.1,10.46h1.86l.7-6.69-1.43-.94h4.77a.42.42,0,0,0,.41-.37l.13-1.2H40.15l.15-1.45A1.49,1.49,0,0,1,41.75,9Z" transform="translate(24.36 -7.14)"/><path class="cls-1" d="M15.28,11.65l-1.85,6.91-1.08-6.63a.33.33,0,0,0-.33-.27H10.67L8,18.55l-.3-6.63a.33.33,0,0,0-.33-.27H6l.72,9.28h2l2.59-7.13,1,7.13h1.93l2.65-8.8a.33.33,0,0,0-.31-.47Z" transform="translate(24.36 -7.14)"/><path class="cls-1" d="M-7.74,14.53l-.67,6.39h1.86l.65-6.2a2.72,2.72,0,0,0-2.75-3.08h-4.73l-1,9.28h1.86l.81-7.71h2.77A1.16,1.16,0,0,1-7.74,14.53Z" transform="translate(24.36 -7.14)"/><path class="cls-1" d="M25.35,18.06c.41-1.9-.84-2.82-3.13-4.06-1.68-.92-2.66-1.46-2.45-2.42S21.4,9.7,22.88,9.86a3.18,3.18,0,0,1,1.8.71.41.41,0,0,0,.56-.05L26,9.7a4.58,4.58,0,0,0-2.82-1.31,5.44,5.44,0,0,0-3.37.7A3.67,3.67,0,0,0,18,11.46c-.46,2.34,2.32,3.57,3.32,4.07,1.87.93,2.41,1.42,2.18,2.5s-1.57,1.74-3,1.62a3.93,3.93,0,0,1-2.17-1.11.41.41,0,0,0-.56,0l-.79.75a5,5,0,0,0,3.19,1.81,5.44,5.44,0,0,0,3.37-.7A3.73,3.73,0,0,0,25.35,18.06Z" transform="translate(24.36 -7.14)"/><path class="cls-1" d="M35.53,20.92l.94-8.9a.33.33,0,0,0-.33-.37H34.64l-.12,1.18-.22-.21a3.85,3.85,0,0,0-2.7-1.08,5.24,5.24,0,0,0-4.93,4.75A4.07,4.07,0,0,0,30.6,21,4.71,4.71,0,0,0,33.53,20l.26-.21-.12,1.18Zm-4.62-1.48a2.69,2.69,0,0,1-2.58-3.16,3.47,3.47,0,0,1,3.25-3.16,2.69,2.69,0,0,1,2.58,3.16A3.47,3.47,0,0,1,30.91,19.44Z" transform="translate(24.36 -7.14)"/><path class="cls-1" d="M52,16.62a13.58,13.58,0,0,0,.14-1.48,3.65,3.65,0,0,0-3.63-3.94c-4,0-4.82,3.27-5,5A4.56,4.56,0,0,0,44.09,19a3.83,3.83,0,0,0,3.45,1.78A9.54,9.54,0,0,0,51.29,20l-.26-.9a.32.32,0,0,0-.44-.2,6.73,6.73,0,0,1-2.75.5,2.64,2.64,0,0,1-2.35-1.2,2.66,2.66,0,0,1-.27-1.46l0-.15Zm-6.68-1.16,0-.15a3,3,0,0,1,3-2.68c1.59,0,2.44,1,2.26,2.68l0,.15Z" transform="translate(24.36 -7.14)"/><path class="cls-1" d="M-2.81,12.07l0-.36a3.42,3.42,0,0,1,3.32-3h0a2.65,2.65,0,0,1,2.69,3l0,.36H4.76l0-.36A4.05,4.05,0,0,0,.71,7.14h0a5.22,5.22,0,0,0-5.05,4.57l0,.36Z" transform="translate(24.36 -7.14)"/><path class="cls-1" d="M-3.22,16l0,.36a2.65,2.65,0,0,0,2.69,3h0a3.42,3.42,0,0,0,3.32-3l0-.36H4.35l0,.36A5.22,5.22,0,0,1-.74,20.92h0a4.05,4.05,0,0,1-4.09-4.57l0-.36Z" transform="translate(24.36 -7.14)"/><polygon class="cls-2" points="26.06 8.25 24.35 9.18 22.63 5.53 24.34 4.6 26.06 8.25"/><path class="cls-1" d="M-23.07,8.64l-1.29,12.28h1.86L-21.25,9a.35.35,0,0,0-.36-.4Z" transform="translate(24.36 -7.14)"/><polygon class="cls-1" points="3.95 8.85 4.89 7.79 4.88 7.79 6.09 6.44 6.09 6.44 6.09 6.44 10.51 1.5 8.25 1.5 2.63 7.78 6.96 13.79 9.21 13.79 5.34 8.43 3.95 8.85"/><path class="cls-1" d="M41.75,9H44.3l.17-1.57H41.82a3.5,3.5,0,0,0-3.4,3.08l-1.1,10.46h1.86l.7-6.69-1.43-.94h4.77a.42.42,0,0,0,.41-.37l.13-1.2H40.15l.15-1.45A1.49,1.49,0,0,1,41.75,9Z" transform="translate(24.36 -7.14)"/></svg>