<svg width="140" height="40" viewBox="0 0 140 40" fill="none" xmlns="http://www.w3.org/2000/svg">
<path fill-rule="evenodd" clip-rule="evenodd" d="M66.525 32.8871V34.0171C65.792 34.0171 65.079 33.9961 64.368 34.0221C63.37 34.0591 63.044 34.3991 62.988 35.4591H66.553C66.553 35.7921 66.582 36.1001 66.536 36.3971C66.522 36.4941 66.316 36.6291 66.196 36.6321C65.592 36.6471 64.989 36.6481 64.386 36.6481H63.028C63.008 37.4761 63.368 37.9321 64.123 37.9981C64.911 38.0681 65.704 38.0811 66.525 38.1211V39.3081C65.37 39.2211 64.239 39.1801 63.121 39.0351C62.521 38.9561 62.128 38.4791 61.831 37.9621C61.14 36.7601 61.294 34.7451 62.14 33.7081C62.512 33.2511 62.971 32.9201 63.56 32.8981C64.536 32.8601 65.516 32.8881 66.525 32.8881V32.8871ZM117.057 32.8671C117.057 33.4141 117.051 33.9411 117.058 34.4681C117.07 35.3731 117.088 36.2781 117.108 37.1821C117.118 37.6561 117.353 37.9581 117.834 37.9961C118.563 38.0531 119.294 38.0811 120.078 38.1241V39.2951C119.038 39.2211 118.007 39.2351 117.014 39.0471C116.174 38.8871 115.761 38.1711 115.738 37.3411C115.696 35.8611 115.726 34.3811 115.726 32.8671H117.056H117.057ZM24.777 32.8261C25.927 32.8381 25.925 32.8261 26.36 33.8791C27.026 35.4921 27.696 37.1051 28.363 38.7191C28.422 38.8601 28.475 39.0031 28.55 39.1941C28.41 39.2081 28.349 39.2181 28.288 39.2211C27.018 39.2791 27.008 39.2831 26.515 38.1201C26.397 37.8411 26.243 37.7541 25.954 37.7651C25.408 37.7861 24.86 37.7831 24.314 37.7661C24.045 37.7581 23.857 37.8201 23.795 38.1041C23.792 38.1181 23.781 38.1311 23.775 38.1461C23.243 39.3751 23.19 39.4031 21.765 39.1831C21.803 39.0641 21.831 38.9471 21.875 38.8371C22.651 36.9651 23.436 35.0961 24.199 33.2171C24.317 32.9261 24.459 32.8221 24.777 32.8261V32.8261ZM133.235 32.7901V33.9901C132.839 33.9901 132.469 33.9881 132.099 33.9911C131.569 33.9951 131.036 33.9771 130.508 34.0141C129.425 34.0901 129.124 34.3841 128.968 35.4501C128.943 35.6041 128.933 35.7602 128.938 35.9161C129.027 37.8611 129.452 38.0801 131.088 38.0811H131.885V36.5961H130.163V35.4711H133.221V39.2841C131.885 39.2281 130.549 39.2211 129.224 39.0961C128.513 39.0291 128.012 38.4981 127.757 37.8461C127.295 36.6711 127.281 35.4731 127.771 34.2911C128.083 33.5391 128.648 33.0271 129.441 32.9531C130.691 32.8361 131.951 32.8391 133.235 32.7901V32.7901ZM30.523 32.8571C30.531 33.0261 30.544 33.1921 30.546 33.3571L30.562 35.8241C30.566 36.2341 30.571 36.6461 30.578 37.0571C30.591 37.7201 30.805 37.9711 31.47 38.0191C32.15 38.0671 32.835 38.0291 33.545 38.0291V39.2811C32.541 39.2221 31.557 39.2341 30.597 39.0851C29.847 38.9691 29.343 38.4151 29.274 37.6351C29.19 36.7061 29.196 35.7681 29.177 34.8331C29.164 34.1831 29.175 33.5311 29.175 32.8571H30.523V32.8571ZM123.696 32.8051C124.679 32.8351 125.64 32.9851 126.28 33.8941C127 34.9211 127.038 37.0541 126.355 38.1041C125.713 39.0901 124.712 39.2661 123.649 39.2691C123.337 39.2687 123.025 39.2325 122.721 39.1611C121.44 38.8631 120.791 38.1431 120.575 36.8221C120.427 35.9221 120.483 35.0321 120.873 34.2101C121.428 33.0401 122.513 32.8301 123.696 32.8051ZM9.839 32.8031C10.801 32.8311 11.812 32.9601 12.376 33.9131C13.17 35.2531 13.201 36.6941 12.466 38.0661C11.9 39.1211 10.826 39.2681 9.746 39.2681C9.436 39.2681 9.119 39.2291 8.818 39.1581C7.512 38.8431 6.795 38.0661 6.683 36.7151C6.63348 36.0484 6.6735 35.3781 6.802 34.7221C7.002 33.6671 7.88 32.9781 9.042 32.8501C9.289 32.8221 9.54 32.8201 9.839 32.8031ZM94.547 32.9111V33.9911C94.113 33.9911 93.709 33.9851 93.306 33.9921C92.901 34.0001 92.492 33.9951 92.09 34.0421C91.428 34.1221 91.033 34.4921 90.955 35.1561C90.898 35.6461 90.878 36.1551 90.939 36.6421C91.073 37.7171 91.477 38.0511 92.579 38.0771C93.219 38.0931 93.859 38.0801 94.539 38.0801V39.2361C93.35 39.1751 92.153 39.3931 90.983 39.0411C90.688 38.9451 90.4181 38.7846 90.193 38.5711C89.061 37.5111 89.037 34.6111 90.191 33.5751C90.552 33.2521 91.076 32.9881 91.551 32.9411C92.522 32.8441 93.511 32.9111 94.547 32.9111V32.9111ZM88.6 32.8581V33.9901C88.25 33.9901 87.898 33.9871 87.547 33.9911C87.187 33.9961 86.827 33.9981 86.469 34.0181C85.469 34.0731 85.165 34.3751 85.068 35.4581H88.611V36.6381H85.091C85.151 37.5561 85.464 37.9291 86.293 38.0051C87.05 38.0751 87.813 38.0821 88.611 38.1191V39.2301C87.435 39.2011 86.265 39.3601 85.124 39.0151C84.554 38.8421 84.162 38.4351 83.914 37.9091C83.341 36.6961 83.315 35.4561 83.884 34.2461C84.257 33.4561 84.894 32.9111 85.806 32.8681C86.723 32.8241 87.643 32.8581 88.6 32.8581V32.8581ZM59.982 32.8261C60.289 32.8601 60.603 32.8341 60.982 32.8341L60.588 34.0631C60.081 35.6511 59.565 37.2371 59.074 38.8301C58.979 39.1431 58.834 39.2331 58.515 39.2331C57.359 39.2301 57.359 39.2431 57.044 38.1441C56.76 37.1561 56.477 36.1671 56.191 35.1791C56.153 35.0481 56.104 34.9191 56.033 34.7071C55.625 36.1221 55.228 37.4491 54.87 38.7871C54.774 39.1421 54.623 39.2471 54.264 39.2401C53.169 39.2201 53.166 39.2361 52.824 38.1821C52.299 36.5671 51.777 34.9521 51.255 33.3361C51.208 33.1901 51.167 33.0411 51.11 32.8461H52.517L53.951 37.6061L55.281 32.8571H56.81C57.236 34.3791 57.663 35.8971 58.09 37.4171L58.193 37.4181C58.333 36.9671 58.475 36.5161 58.611 36.0631C58.894 35.1231 59.185 34.1861 59.447 33.2401C59.53 32.9391 59.644 32.7891 59.982 32.8261V32.8261ZM69.16 32.8321C69.969 32.8511 70.779 32.8721 71.587 32.9141C72.532 32.9621 73.164 33.4201 73.31 34.2011C73.442 34.9081 73.363 35.9791 72.392 36.3901C72.356 36.4061 72.33 36.4461 72.267 36.5041C73.514 37.0391 73.192 38.2121 73.454 39.2311C72.97 39.2311 72.537 39.2541 72.109 39.2141C72.01 39.2041 71.883 38.9941 71.851 38.8561C71.768 38.4931 71.746 38.1161 71.671 37.7511C71.555 37.1841 71.158 36.9011 70.611 36.8631C70.1 36.8271 69.585 36.8561 69.007 36.8561V39.1951H67.634V32.8301C68.143 32.8301 68.651 32.8201 69.16 32.8321V32.8321ZM103.535 32.8501C103.67 32.8611 103.833 33.0401 103.91 33.1801C104.598 34.4401 105.268 35.7071 105.946 36.9701C106.016 37.1001 106.095 37.2251 106.242 37.4751V32.8751H107.537V39.2301C107.03 39.2301 106.534 39.2521 106.044 39.2151C105.921 39.2051 105.78 39.0231 105.704 38.8881C105.004 37.6541 104.32 36.4111 103.63 35.1721C103.557 35.0265 103.45 34.9008 103.317 34.8061V39.2001H102.028V32.8351C102.544 32.8351 103.042 32.8111 103.535 32.8501V32.8501ZM47.525 32.7781C47.895 32.8281 48.271 32.8521 48.634 32.9331C49.621 33.1541 50.257 33.7611 50.508 34.7461C50.74 35.6541 50.765 36.5631 50.485 37.4701C50.2 38.3901 49.586 38.9951 48.652 39.1401C47.972 39.2451 47.241 39.2711 46.569 39.1431C45.193 38.8801 44.496 37.9901 44.38 36.5411C44.3465 36.1675 44.3519 35.7915 44.396 35.4191C44.633 33.5901 45.579 32.8091 47.526 32.7791L47.525 32.7781ZM111.686 32.7681C112.1 32.8351 112.522 32.8721 112.926 32.9761C113.816 33.2041 114.383 33.7851 114.632 34.6681C114.892 35.5881 114.925 36.5151 114.646 37.4381C114.37 38.3501 113.771 38.9781 112.832 39.1291C112.151 39.2391 111.426 39.2631 110.747 39.1561C109.499 38.9581 108.75 38.1501 108.597 36.8961C108.511 36.2485 108.525 35.5916 108.637 34.9481C108.921 33.4581 109.9 32.8061 111.687 32.7681H111.686ZM18.736 32.7911V33.9911C18.161 33.9911 17.606 33.9891 17.05 33.9911C15.5 33.9951 15.04 34.4591 15.057 36.0071C15.057 36.0851 15.061 36.1631 15.067 36.2401C15.177 37.7271 15.557 38.0801 17.054 38.0811H18.722V39.2111C17.829 39.2111 16.932 39.2261 16.035 39.2041C15.731 39.1961 15.422 39.1161 15.125 39.0331C14.529 38.8651 14.122 38.4491 13.895 37.8991C13.4 36.6961 13.375 35.4791 13.89 34.2631C14.211 33.5031 14.795 33.0371 15.578 32.9481C16.608 32.8311 17.654 32.8381 18.737 32.7911H18.736ZM5.616 32.8541V33.9901C4.875 33.9901 4.16 33.9851 3.445 33.9921C3.008 33.9971 2.571 34.0251 2.135 34.0381C1.742 34.0491 1.528 34.2381 1.507 34.6381C1.487 35.0511 1.684 35.3031 2.083 35.3551C2.438 35.4011 2.8 35.3921 3.158 35.4151C3.671 35.4461 4.192 35.4361 4.694 35.5301C5.587 35.6971 6.055 36.4251 6.004 37.4611C5.959 38.4131 5.357 39.1551 4.478 39.1861C3.107 39.2331 1.733 39.1981 0.324 39.1981V38.1081C0.452 38.0981 0.586 38.0831 0.721 38.0821C1.611 38.0791 2.501 38.0881 3.392 38.0771C4.139 38.0671 4.482 37.8191 4.47 37.3281C4.459 36.8311 4.097 36.5821 3.388 36.5641C2.765 36.5481 2.141 36.5381 1.519 36.4901C0.661 36.4241 0.076 35.8001 0.009 34.9251C-0.07 33.9211 0.419 33.1471 1.268 32.9371C1.418 32.8991 1.574 32.8591 1.728 32.8571C3.008 32.8521 4.288 32.8541 5.615 32.8541H5.616ZM96.859 32.8461V35.4211H99.309V32.8561H100.662V39.2081H99.337V36.6201H96.895V39.1981H95.522V32.8461H96.859V32.8461ZM21.022 32.8601V39.2081H19.718V32.8601H21.022ZM138.801 32.8271C139.157 32.8551 139.517 32.8341 139.993 32.8341C139.483 33.5831 139.08 34.2921 138.564 34.9061C137.703 35.9291 137.296 37.0511 137.494 38.3861C137.532 38.6421 137.5 38.9091 137.5 39.2011H136.131C136.131 38.5471 136.102 37.8801 136.141 37.2181C136.171 36.6751 136.021 36.2321 135.711 35.7881C135.065 34.8681 134.469 33.9151 133.855 32.9751C133.841 32.9531 133.849 32.9181 133.841 32.8351C134.291 32.8351 134.738 32.8131 135.181 32.8491C135.308 32.8591 135.458 33.0191 135.536 33.1471C135.966 33.8481 136.376 34.5611 136.824 35.3231C137.287 34.5731 137.724 33.8931 138.13 33.1941C138.292 32.9161 138.48 32.8021 138.8 32.8271H138.801ZM83.128 32.8601V33.9761H81.052V39.1961H79.67V37.6071C79.67 36.5621 79.652 35.5171 79.679 34.4721C79.689 34.0721 79.553 33.9601 79.172 33.9831C78.68 34.0131 78.184 33.9901 77.665 33.9901V32.8601H83.128ZM41.891 32.8531C43.734 32.8671 44.264 34.8381 43.583 36.0691C43.294 36.5911 42.856 36.9331 42.243 36.9641C41.541 37.0001 40.839 37.0001 40.137 37.0151C39.952 37.0181 39.767 37.0151 39.539 37.0151V39.1951H38.183V32.8511C39.458 32.8511 40.674 32.8441 41.891 32.8531V32.8531ZM123.651 33.8901C122.859 33.9041 122.357 34.2371 122.168 34.9281C121.958 35.6961 121.933 36.4861 122.226 37.2281C122.351 37.5441 122.634 37.8861 122.935 38.0291C124.085 38.5791 125.17 37.9131 125.283 36.6441C125.298 36.4731 125.309 36.3021 125.321 36.1301L125.388 36.1181C125.312 35.7081 125.27 35.2881 125.154 34.8891C124.956 34.2051 124.429 33.8761 123.65 33.8891L123.651 33.8901ZM111.661 33.8901C110.894 33.8951 110.371 34.2141 110.179 34.8671C109.943 35.6498 109.952 36.4859 110.206 37.2631C110.343 37.6871 110.638 37.9671 111.079 38.1001C112.256 38.4551 113.144 37.8801 113.277 36.6601C113.296 36.4901 113.307 36.3191 113.322 36.1481L113.389 36.1341C113.301 35.6941 113.252 35.2441 113.115 34.8201C112.909 34.1771 112.41 33.8851 111.661 33.8901ZM47.394 33.9001C46.57 33.9651 46.07 34.3541 45.969 35.1201C45.899 35.6541 45.889 36.2101 45.949 36.7451C46.061 37.7451 46.565 38.1751 47.512 38.1801C48.452 38.1861 48.953 37.7541 49.12 36.7741L49.147 36.5421L49.175 36.0751L49.222 36.0641C49.149 35.6681 49.115 35.2611 48.995 34.8811C48.765 34.1541 48.208 33.8341 47.395 33.8991L47.394 33.9001ZM9.697 33.8931C8.829 33.9441 8.375 34.3241 8.211 35.1661C8.159 35.4401 8.156 35.7241 8.121 36.0991C8.164 36.3941 8.184 36.7881 8.284 37.1601C8.465 37.8301 8.974 38.1671 9.73 38.1801C10.549 38.1931 11.046 37.9031 11.261 37.2211C11.491 36.4951 11.529 35.7511 11.301 35.0111C11.052 34.1991 10.538 33.8441 9.697 33.8931ZM25.151 34.4181L24.271 36.5691H26.028L25.151 34.4181V34.4181ZM39.552 34.0561V35.8301C40.294 35.8301 40.98 35.8481 41.664 35.8241C42.15 35.8071 42.318 35.4571 42.346 35.0271C42.373 34.6221 42.344 34.1331 41.879 34.0801C41.119 33.9921 40.339 34.0561 39.552 34.0561V34.0561ZM69.014 34.0451V35.6391C69.76 35.6391 70.475 35.6631 71.188 35.6291C71.63 35.6091 71.832 35.3021 71.844 34.8651C71.854 34.4731 71.77 34.0881 71.324 34.0581C70.567 34.0081 69.804 34.0451 69.014 34.0451V34.0451ZM26.474 9.77109V10.0791C26.478 10.7341 26.485 12.3751 26.488 14.4001V14.9371L26.489 15.2111V16.9171L26.486 18.6841L26.484 19.2751L26.483 19.5701L26.48 20.1561L26.473 21.3071C26.439 26.2131 21.811 26.3651 21.468 26.3691H0.016V23.8391H19.958C23.498 23.8391 23.731 20.9391 23.738 20.2951V20.2151L23.737 20.1691V12.2231H14.403V9.77109H26.473H26.474ZM37.793 0.842094C38.278 1.43809 38.743 2.07809 39.111 2.66009C39.1769 2.76438 39.2212 2.88089 39.2411 3.00266C39.261 3.12443 39.2562 3.24896 39.2268 3.36882C39.1975 3.48867 39.1444 3.60139 39.0705 3.70023C38.9967 3.79907 38.9036 3.88201 38.797 3.94409L37.392 4.76209H39.972C40.1456 4.71874 40.3266 4.71409 40.5022 4.74848C40.6777 4.78287 40.8436 4.85545 40.988 4.96109L41.5 5.33409C41.962 5.67109 42.13 6.28509 41.901 6.81009C41.153 8.52009 40.169 10.1901 39.084 11.6991C39.835 12.3591 40.962 13.4291 41.8 14.2321C41.9501 14.378 42.0687 14.5531 42.1484 14.7467C42.228 14.9403 42.267 15.1481 42.263 15.3574C42.259 15.5667 42.212 15.7729 42.125 15.9633C42.038 16.1537 41.9127 16.3242 41.7571 16.4642C41.6015 16.6041 41.4187 16.7106 41.2202 16.7771C41.0217 16.8435 40.8117 16.8685 40.6032 16.8504C40.3946 16.8322 40.192 16.7715 40.0079 16.6718C39.8238 16.5722 39.6622 16.4358 39.533 16.2711C39.263 15.9231 38.979 15.5671 38.696 15.2221V24.4201C38.696 24.8507 38.525 25.2636 38.2205 25.5681C37.916 25.8725 37.5031 26.0436 37.0725 26.0436C36.6419 26.0436 36.229 25.8725 35.9245 25.5681C35.62 25.2636 35.449 24.8507 35.449 24.4201V15.8331C35.042 16.1971 34.639 16.5501 34.234 16.8811C33.354 17.6051 32.024 17.2601 31.618 16.1951L31.604 16.1571C31.4704 15.8073 31.4589 15.4227 31.5715 15.0656C31.684 14.7085 31.914 14.4 32.224 14.1901C34.564 12.6071 36.743 10.2501 38.168 7.73009H33.327C33.1321 7.73009 32.9391 7.69171 32.7591 7.61713C32.5791 7.54255 32.4155 7.43324 32.2777 7.29544C32.1399 7.15764 32.0305 6.99404 31.956 6.814C31.8814 6.63395 31.843 6.44098 31.843 6.24609C31.843 6.05121 31.8814 5.85824 31.956 5.67819C32.0305 5.49814 32.1399 5.33455 32.2777 5.19675C32.4155 5.05895 32.5791 4.94963 32.7591 4.87506C32.9391 4.80048 33.1321 4.76209 33.327 4.76209H36.697C36.3195 4.01179 35.887 3.29049 35.403 2.60409C35.2909 2.4441 35.2141 2.26203 35.1779 2.07003C35.1417 1.87803 35.1469 1.68051 35.1931 1.49066C35.2392 1.30082 35.3254 1.123 35.4457 0.969088C35.5661 0.815172 35.7179 0.688694 35.891 0.598094L36.06 0.510094C36.673 0.191094 37.383 0.337094 37.794 0.842094H37.793ZM96.876 1.45509L97.347 2.13809C97.4234 2.24824 97.4731 2.37474 97.4919 2.50749C97.5108 2.64023 97.4983 2.77555 97.4556 2.90263C97.4128 3.02971 97.341 3.14504 97.2457 3.2394C97.1505 3.33376 97.0345 3.40454 96.907 3.44609C96.119 3.69409 95.278 3.90809 94.412 4.09609V7.89809H96.534C96.9424 7.89809 97.3341 8.06034 97.6229 8.34915C97.9118 8.63796 98.074 9.02966 98.074 9.43809C98.074 9.84653 97.9118 10.2382 97.6229 10.527C97.3341 10.8158 96.9424 10.9781 96.534 10.9781H94.412V11.1991C95.007 11.7741 96.407 13.3501 97.308 14.3901C97.727 14.8731 97.752 15.5801 97.371 16.0921C97.2367 16.2731 97.0594 16.4177 96.8552 16.513C96.651 16.6083 96.4262 16.6513 96.2013 16.638C95.9763 16.6247 95.7582 16.5555 95.5666 16.4369C95.3751 16.3182 95.2161 16.1536 95.104 15.9581C94.8775 15.5623 94.6469 15.169 94.412 14.7781V24.4481C94.412 24.8711 94.244 25.2768 93.9448 25.5759C93.6457 25.8751 93.24 26.0431 92.817 26.0431C92.394 26.0431 91.9883 25.8751 91.6892 25.5759C91.39 25.2768 91.222 24.8711 91.222 24.4481V16.0551C90.7558 17.1556 90.2351 18.2323 89.662 19.2811C89.116 20.2681 87.692 20.2561 87.155 19.2641L87.138 19.2321C87.0076 18.9934 86.9486 18.7222 86.9681 18.4509C86.9876 18.1796 87.0848 17.9197 87.248 17.7021C88.601 15.9061 89.902 13.3351 90.778 10.9771H88.572C88.1636 10.9771 87.7719 10.8148 87.4831 10.526C87.1942 10.2372 87.032 9.84553 87.032 9.43709C87.032 9.02866 87.1942 8.63696 87.4831 8.34815C87.7719 8.05934 88.1636 7.89709 88.572 7.89709H91.222V4.76309C90.412 4.88709 89.635 5.01309 88.865 5.11309C88.6589 5.13933 88.4502 5.09066 88.2769 4.97595C88.1036 4.86124 87.9773 4.68811 87.921 4.48809L87.913 4.46209C87.629 3.50009 88.215 2.50209 89.2 2.31209C91.24 1.92009 93.28 1.39809 94.946 0.823094C95.66 0.578094 96.446 0.835094 96.876 1.45609V1.45509ZM108.133 0.129094C109.029 0.129094 109.756 0.855094 109.756 1.75209V15.8321L110.958 15.6261C111.366 15.5585 111.783 15.6547 112.12 15.8937C112.458 16.1326 112.687 16.495 112.758 16.902C112.829 17.309 112.737 17.7276 112.501 18.0668C112.265 18.406 111.904 18.6383 111.498 18.7131L109.756 19.0231V24.3931C109.756 24.8235 109.585 25.2364 109.281 25.5407C108.976 25.8451 108.563 26.0161 108.133 26.0161C107.703 26.0161 107.29 25.8451 106.985 25.5407C106.681 25.2364 106.51 24.8235 106.51 24.3931V19.6061L99.703 20.7781C99.4965 20.8155 99.2846 20.8116 99.0796 20.7666C98.8746 20.7217 98.6805 20.6366 98.5086 20.5162C98.3367 20.3958 98.1903 20.2426 98.0779 20.0654C97.9655 19.8881 97.8894 19.6904 97.8539 19.4835C97.8183 19.2767 97.8241 19.0648 97.8709 18.8603C97.9177 18.6557 98.0046 18.4624 98.1265 18.2915C98.2484 18.1207 98.4029 17.9757 98.5812 17.8649C98.7594 17.7541 98.9578 17.6798 99.165 17.6461L106.51 16.3871V1.75309C106.51 0.856094 107.236 0.130094 108.133 0.130094V0.129094ZM119.774 0.129094C120.678 0.129094 121.411 0.862094 121.411 1.76609V5.40009H122.604C123.009 5.40009 123.397 5.56087 123.683 5.84705C123.969 6.13323 124.13 6.52137 124.13 6.92609C124.13 7.33081 123.969 7.71896 123.683 8.00514C123.397 8.29132 123.009 8.45209 122.604 8.45209H121.411V12.5591L122.302 12.3361C122.696 12.2329 123.116 12.2906 123.467 12.4966C123.819 12.7025 124.075 13.0397 124.178 13.4341C124.281 13.8285 124.223 14.2477 124.018 14.5995C123.812 14.9513 123.474 15.2069 123.08 15.3101C122.527 15.4621 121.97 15.6101 121.411 15.7501V22.3801C121.411 23.9901 121.106 24.7671 120.163 25.2941C119.449 25.6841 118.481 25.8201 117.169 25.8611C116.844 25.871 116.526 25.7725 116.263 25.5811C116.001 25.3897 115.81 25.1163 115.72 24.8041L115.71 24.7721C115.647 24.5541 115.637 24.3245 115.678 24.1015C115.72 23.8786 115.812 23.6683 115.949 23.4874C116.086 23.3065 116.263 23.1599 116.466 23.0591C116.669 22.9584 116.893 22.9064 117.12 22.9071H117.61C118.026 22.9071 118.137 22.7691 118.137 22.3531V16.6371L116.957 16.9291C116.545 17.0274 116.111 16.958 115.751 16.7364C115.39 16.5147 115.132 16.1588 115.034 15.7471C114.936 15.3353 115.005 14.9014 115.227 14.5408C115.448 14.1802 115.804 13.9224 116.216 13.8241C116.858 13.6776 117.498 13.5242 118.137 13.3641V8.45109H116.472C116.272 8.45109 116.073 8.41162 115.888 8.33493C115.703 8.25825 115.535 8.14584 115.393 8.00414C115.251 7.86244 115.139 7.69421 115.062 7.50907C114.985 7.32393 114.946 7.12549 114.946 6.92509C114.946 6.7247 114.985 6.52626 115.062 6.34112C115.139 6.15598 115.251 5.98775 115.393 5.84605C115.535 5.70435 115.703 5.59194 115.888 5.51525C116.073 5.43857 116.272 5.39909 116.472 5.39909H118.137V1.76609C118.137 0.862094 118.87 0.129094 119.774 0.129094V0.129094ZM132.093 0.101094C132.997 0.101094 133.73 0.834094 133.73 1.73809V4.06809H138.42C138.825 4.06809 139.213 4.22892 139.499 4.5152C139.786 4.80147 139.947 5.18974 139.947 5.59459C139.947 5.99945 139.786 6.38772 139.499 6.67399C139.213 6.96027 138.825 7.12109 138.42 7.12109H133.73V10.4501H137.06C137.438 10.3601 137.835 10.3931 138.194 10.5431L138.22 10.5551C138.65 10.7373 138.995 11.0765 139.184 11.5038C139.373 11.9311 139.392 12.4143 139.237 12.8551C138.159 15.9351 136.577 18.4251 134.59 20.4101C135.827 21.2861 137.22 21.9911 138.77 22.5451C139.775 22.9051 140.152 24.1281 139.55 25.0101L139.529 25.0421C139.116 25.6511 138.339 25.9111 137.646 25.6651C135.482 24.8971 133.595 23.8831 131.982 22.5751C130.192 23.8131 128.214 24.7871 126.062 25.5411C125.696 25.6665 125.298 25.6589 124.938 25.5195C124.578 25.3801 124.278 25.1178 124.092 24.7791L124.074 24.7461C123.57 23.8441 124.034 22.7191 125.016 22.3941C126.65 21.8541 128.171 21.1521 129.541 20.2721C128.081 18.6151 126.887 16.6941 125.937 14.4881C125.893 14.3859 125.871 14.2755 125.872 14.1641C125.873 14.0528 125.898 13.943 125.945 13.8419C125.992 13.7409 126.06 13.6509 126.144 13.5779C126.228 13.5048 126.326 13.4504 126.433 13.4181C126.05 13.4181 125.684 13.2662 125.413 12.9958C125.142 12.7254 124.99 12.3586 124.99 11.9761V11.8931C124.99 11.0961 125.636 10.4501 126.433 10.4501H130.456V7.12009H126.016C125.618 7.10991 125.24 6.94472 124.962 6.65974C124.685 6.37476 124.529 5.99255 124.529 5.59459C124.529 5.19664 124.685 4.81443 124.962 4.52945C125.24 4.24447 125.618 4.07928 126.016 4.06909H130.456V1.73809C130.456 0.834094 131.189 0.101094 132.093 0.101094V0.101094ZM73.697 1.12709C74.017 1.85509 74.323 2.60309 74.545 3.23709H81.881C82.994 3.23709 83.896 4.13809 83.896 5.25109V7.79509C83.896 8.32287 83.6863 8.82904 83.3131 9.20224C82.9399 9.57543 82.4338 9.78509 81.906 9.78509H81.482V10.2321C81.482 10.4501 81.4391 10.6659 81.3556 10.8673C81.2722 11.0687 81.1499 11.2517 80.9958 11.4059C80.8417 11.56 80.6587 11.6823 80.4573 11.7657C80.2559 11.8492 80.04 11.8921 79.822 11.8921H73.907V14.9451H79.234C79.6387 14.9451 80.0269 15.1059 80.313 15.392C80.5992 15.6782 80.76 16.0664 80.76 16.4711C80.76 16.8758 80.5992 17.264 80.313 17.5501C80.0269 17.8363 79.6387 17.9971 79.234 17.9971H78.097C78.7632 18.61 79.4209 19.2321 80.07 19.8631C80.2286 20.0181 80.3514 20.2059 80.43 20.4134C80.5085 20.6208 80.5408 20.8429 80.5246 21.0641C80.5084 21.2853 80.4441 21.5003 80.3362 21.6941C80.2284 21.8879 80.0795 22.0558 79.9 22.1861H82.48C83.277 22.1861 83.93 22.7961 84 23.5731L84.007 23.7131C84.007 24.5551 83.323 25.2381 82.481 25.2381H61.92C61.5153 25.2381 61.1271 25.0773 60.841 24.7911C60.5548 24.505 60.394 24.1168 60.394 23.7121C60.394 23.3074 60.5548 22.9192 60.841 22.633C61.1271 22.3469 61.5153 22.1861 61.92 22.1861H70.3V17.9961H65.278C65.0744 18.0013 64.8718 17.9657 64.6821 17.8914C64.4925 17.8171 64.3197 17.7055 64.1738 17.5634C64.0279 17.4212 63.912 17.2513 63.8329 17.0636C63.7537 16.8759 63.7129 16.6743 63.7129 16.4706C63.7129 16.2669 63.7537 16.0653 63.8329 15.8776C63.912 15.6899 64.0279 15.52 64.1738 15.3778C64.3197 15.2357 64.4925 15.1241 64.6821 15.0498C64.8718 14.9755 65.0744 14.9399 65.278 14.9451H70.3V11.8931H64.442C64.2239 11.8931 64.008 11.8501 63.8065 11.7666C63.605 11.6832 63.422 11.5608 63.2678 11.4065C63.1137 11.2523 62.9914 11.0692 62.9081 10.8677C62.8247 10.6661 62.7819 10.4502 62.782 10.2321V9.78309H62.357C61.8294 9.78309 61.3234 9.57357 60.9502 9.20059C60.577 8.82761 60.3673 8.3217 60.367 7.79409V5.25109C60.367 4.13809 61.27 3.23609 62.383 3.23609H70.773C70.683 2.97609 70.586 2.70709 70.485 2.43809C70.3949 2.22648 70.3478 1.99907 70.3464 1.76908C70.345 1.53909 70.3893 1.31111 70.4768 1.09841C70.5643 0.88571 70.6932 0.692527 70.856 0.530097C71.0188 0.367667 71.2123 0.239233 71.4253 0.152263C71.6382 0.0652936 71.8663 0.0215246 72.0963 0.0235016C72.3262 0.0254786 72.5535 0.0731623 72.7649 0.163779C72.9763 0.254397 73.1676 0.386139 73.3276 0.551344C73.4876 0.716549 73.6132 0.91192 73.697 1.12609V1.12709ZM49.725 0.295094C50.668 0.295094 51.432 1.05909 51.432 2.00109V8.42409H55.08C55.2929 8.41876 55.5047 8.45609 55.7029 8.53388C55.9012 8.61166 56.0818 8.72833 56.2343 8.87702C56.3867 9.0257 56.5079 9.20339 56.5906 9.39962C56.6733 9.59584 56.7159 9.80664 56.7159 10.0196C56.7159 10.2325 56.6733 10.4433 56.5906 10.6396C56.5079 10.8358 56.3867 11.0135 56.2343 11.1622C56.0818 11.3109 55.9012 11.4275 55.7029 11.5053C55.5047 11.5831 55.2929 11.6204 55.08 11.6151H51.432V21.9091H55.705C56.561 21.9091 57.265 22.5661 57.335 23.4051L57.342 23.5451C57.342 24.4501 56.609 25.1831 55.705 25.1831H42.969C42.5348 25.1831 42.1185 25.0106 41.8115 24.7036C41.5045 24.3966 41.332 23.9803 41.332 23.5461C41.332 23.1119 41.5045 22.6956 41.8115 22.3886C42.1185 22.0816 42.5348 21.9091 42.969 21.9091H48.019V11.6151H44.149C43.726 11.6151 43.3203 11.447 43.0212 11.1479C42.722 10.8488 42.554 10.4431 42.554 10.0201C42.554 9.59707 42.722 9.19138 43.0212 8.89226C43.3203 8.59314 43.726 8.42509 44.149 8.42509H48.019V2.00009C48.019 1.05809 48.783 0.294094 49.725 0.294094V0.295094ZM76.82 17.9971H73.907V22.1871H78.152C77.6067 21.5794 77.0468 20.9849 76.473 20.4041C76.3164 20.245 76.1966 20.0534 76.1223 19.8429C76.048 19.6324 76.0209 19.4081 76.043 19.186C76.065 18.9638 76.1356 18.7492 76.2499 18.5574C76.3641 18.3656 76.5192 18.2013 76.704 18.0761L76.82 17.9961V17.9971ZM14.403 14.2531L21.396 14.3031V18.9661C21.396 21.7011 18.785 21.7331 18.495 21.7281H0.016V19.2531H16.988C18.821 19.2531 18.655 16.7961 18.655 16.7961H14.403V14.2541V14.2531ZM135.561 13.4181H128.819C129.593 15.2452 130.704 16.9108 132.093 18.3281C133.536 16.9421 134.729 15.3051 135.561 13.4181ZM12.057 0.198094V2.72809H6.53C2.99 2.72809 2.758 5.62809 2.75 6.27209V6.35109L2.751 6.37709L2.752 14.3421H12.049V16.7961H0.016V16.6931L0.015 16.6371V16.4881C0.01 15.8331 0.003 14.1931 0 12.1671V9.06509C0 8.77109 0 8.47509 0.002 8.17909L0.004 7.29209L0.007 6.70309L0.015 5.26009C0.052 0.165094 5.04 0.198094 5.04 0.198094H12.056H12.057ZM101.442 9.73409C102.354 10.4269 103.225 11.1729 104.049 11.9681C104.624 12.5331 104.603 13.4671 104.016 14.0181L103.896 14.1311C103.758 14.2599 103.596 14.3602 103.419 14.4262C103.242 14.4921 103.054 14.5224 102.865 14.5154C102.677 14.5083 102.491 14.464 102.32 14.385C102.148 14.306 101.994 14.1939 101.866 14.0551C101.162 13.3143 100.419 12.6116 99.64 11.9501C99.4868 11.8173 99.3637 11.6534 99.2789 11.4693C99.194 11.2853 99.1494 11.0852 99.148 10.8825C99.1466 10.6798 99.1884 10.4791 99.2706 10.2939C99.3529 10.1086 99.4737 9.94299 99.625 9.80809C99.872 9.58637 100.189 9.45768 100.52 9.44418C100.852 9.43067 101.178 9.53319 101.442 9.73409V9.73409ZM8.014 4.83909H26.473V7.31409H9.503C7.669 7.31409 7.836 9.77109 7.836 9.77109H12.05V12.2631H5.095V7.60009C5.095 5.02609 7.406 4.84709 7.92 4.83809H8.014V4.83909ZM80.483 6.37109H63.642V8.81309H80.482V6.37109H80.483ZM102.493 2.53709C103.316 3.20009 104.171 3.94509 104.856 4.64909C104.99 4.78813 105.095 4.95288 105.164 5.13342C105.233 5.31396 105.264 5.50657 105.257 5.69966C105.249 5.89275 105.203 6.08233 105.12 6.257C105.038 6.43168 104.921 6.58784 104.776 6.71609L104.655 6.82409C104.514 6.95006 104.349 7.04682 104.17 7.1088C103.991 7.17078 103.802 7.19676 103.613 7.18523C103.424 7.1737 103.24 7.1249 103.07 7.04164C102.9 6.95837 102.748 6.8423 102.623 6.70009C102.002 6.00504 101.341 5.34723 100.643 4.73009C100.363 4.48162 100.191 4.13355 100.164 3.76015C100.137 3.38675 100.257 3.01759 100.499 2.73144C100.74 2.44529 101.084 2.26481 101.456 2.2285C101.829 2.19219 102.201 2.30293 102.493 2.53709V2.53709ZM26.474 0.198094V2.72809H14.404V0.197094H26.474V0.198094Z" fill="#F26B1F"/>
</svg>
