<svg width="150" height="45" viewBox="0 0 150 45" xmlns="http://www.w3.org/2000/svg"><g fill="none" fill-rule="evenodd"><path d="M122.06 25.991a.411.411 0 0 0 .593 0l.945-.982a.411.411 0 0 0 0-.571 29.824 29.824 0 0 1-3.806-5.04 19.879 19.879 0 0 0 2.53-9.458V7.884h.614a.422.422 0 0 0 .422-.421V6.117a.422.422 0 0 0-.422-.421h-6.566v-1.82a.422.422 0 0 0-.422-.422h-1.345a.422.422 0 0 0-.422.421v3.598a.422.422 0 0 0 .422.422h5.504V9.95a17.082 17.082 0 0 1-1.602 7.068 18.486 18.486 0 0 1-1.841-7.244.411.411 0 0 0-.411-.406h-1.362a.411.411 0 0 0-.416.422 21.56 21.56 0 0 0 2.76 9.609 25.089 25.089 0 0 1-4.052 5.017.411.411 0 0 0-.032.566l.881 1.068a.411.411 0 0 0 .593.037 26.386 26.386 0 0 0 3.875-4.548 30.817 30.817 0 0 0 3.56 4.452z" fill="#2C2D45" fill-rule="nonzero"/><path d="M67.67 21.496c.767 0 1.389-.62 1.389-1.387V6.566c0-.767-.622-1.388-1.388-1.388h-4.767V3.87a.416.416 0 0 0-.416-.416h-1.399a.416.416 0 0 0-.416.416v1.308h-4.655c-.767 0-1.388.621-1.388 1.388v13.548c0 .766.621 1.388 1.388 1.388h4.655v4.051c0 .23.186.417.416.417h1.399c.23 0 .416-.187.416-.417v-4.051l4.767-.006zm-1.195-2.23h-3.571V14.46h3.918v4.462a.347.347 0 0 1-.347.342zm0-11.857c.192 0 .347.156.347.347v4.463h-3.918V7.415l3.571-.006zm-9.267 0h3.465v4.805H56.86V7.75a.347.347 0 0 1 .347-.342zm0 11.856a.347.347 0 0 1-.347-.347v-4.462h3.812v4.804l-3.465.005z" fill="#2C2D45" fill-rule="nonzero"/><path d="M100.27 9.934h1.687l-1.873 2.707a.411.411 0 0 0 .106.576l1.121.774a.411.411 0 0 0 .577-.107l1.874-2.706a.411.411 0 0 0-.107-.577l-.966-.672h2.791v3.886c0 .233.19.422.422.422h1.393a.422.422 0 0 0 .422-.422V9.929h2.67l-.956.678a.411.411 0 0 0-.107.576l1.874 2.707a.411.411 0 0 0 .576.106l1.121-.774a.411.411 0 0 0 .107-.576l-1.874-2.706h1.81a.422.422 0 0 0 .421-.422V8.13a.422.422 0 0 0-.421-.422h-1.842l.032-.032 1.874-2.706a.411.411 0 0 0-.107-.577l-1.121-.774a.411.411 0 0 0-.576.107l-1.863 2.68a.411.411 0 0 0 .106.576l1.015.705h-2.734V3.8a.422.422 0 0 0-.421-.422h-1.388a.422.422 0 0 0-.422.422v3.886h-2.84l1.014-.705a.411.411 0 0 0 .107-.576l-1.873-2.67a.411.411 0 0 0-.577-.106l-1.12.774a.411.411 0 0 0-.108.576l1.874 2.707.032.032h-1.74a.422.422 0 0 0-.422.422v1.387c.009.231.202.412.432.406z" fill="#2C2D45" fill-rule="nonzero"/><path d="M131.151 24.555v-6.341l1.602-.721a.411.411 0 0 0 .208-.534l-.577-1.254a.411.411 0 0 0-.533-.209l-.705.315V7.767h1.543a.411.411 0 0 0 .41-.411V5.94a.411.411 0 0 0-.41-.41h-1.543V3.821a.411.411 0 0 0-.411-.411h-1.41a.411.411 0 0 0-.41.411V5.53h-1.943a.411.411 0 0 0-.412.411v1.415c0 .227.185.41.412.41h1.943v9.076l-2.387 1.067a.411.411 0 0 0-.208.534l.56 1.244a.411.411 0 0 0 .535.208l1.5-.678v4.17a.347.347 0 0 1-.347.346h-1.554a.411.411 0 0 0-.41.411v1.415c0 .227.183.41.41.41h2.75a1.388 1.388 0 0 0 1.387-1.414z" fill="#2C2D45" fill-rule="nonzero"/><path d="M148.59 3.48h-13.168c-.767 0-1.388.622-1.388 1.388v20.69c0 .228.184.412.41.412h1.415a.411.411 0 0 0 .411-.411V10.425h12.32a1.388 1.388 0 0 0 1.389-1.388V4.863a1.388 1.388 0 0 0-1.388-1.383zm-.848 4.34a.347.347 0 0 1-.347.347H136.27V6.06c0-.192.156-.347.347-.347h10.778c.192 0 .347.155.347.347V7.82z" fill="#2C2D45" fill-rule="nonzero"/><path d="M149.466 12.838h-4.804v-.998a.411.411 0 0 0-.411-.411h-1.415a.411.411 0 0 0-.41.41v1h-4.469a.411.411 0 0 0-.41.41v1.415c0 .227.183.41.41.41h4.468v2.05h-3.32c-.767 0-1.388.622-1.388 1.388v6.043a1.388 1.388 0 0 0 1.388 1.388h9.187a1.388 1.388 0 0 0 1.388-1.388v-6.048c0-.766-.622-1.388-1.388-1.388h-3.63v-2.05h4.804a.411.411 0 0 0 .411-.41v-1.415a.411.411 0 0 0-.41-.406zm-1.996 6.86v3.683a.347.347 0 0 1-.347.347h-6.849a.347.347 0 0 1-.347-.347v-3.683c0-.192.155-.347.347-.347h6.822a.347.347 0 0 1 .347.352l.027-.005z" fill="#2C2D45" fill-rule="nonzero"/><path d="M95.722 4.975h-7.505c.061-.336.093-.678.096-1.02v-.181a.406.406 0 0 0-.406-.406H86.53a.406.406 0 0 0-.405.406v.182a3.822 3.822 0 0 1-1.42 2.978.4.4 0 0 0-.08.534l.763 1.153a.411.411 0 0 0 .592.096 6.01 6.01 0 0 0 1.378-1.505h2.21v1.553c0 .224.181.406.405.406H91.4a.406.406 0 0 0 .405-.406V7.206h3.913a.406.406 0 0 0 .406-.405V5.375a.406.406 0 0 0-.4-.4z" fill="#2C2D45" fill-rule="nonzero"/><path d="M51.678 11.664c1.068-1.602 1.804-3.134 1.804-4.228V5.578a.416.416 0 0 0-.416-.416H50.93V3.897a.416.416 0 0 0-.417-.417H49.11a.416.416 0 0 0-.416.417v1.26h-2.392a.416.416 0 0 0-.416.416V6.94c0 .23.187.416.416.416h5.002v.085c0 1.452-3.33 5.947-5.615 8.007a.416.416 0 0 0-.043.577l.865 1.04a.416.416 0 0 0 .598.049c.459-.411 1.003-.966 1.601-1.602v10.073c0 .23.186.417.416.417h1.399c.23 0 .416-.187.416-.417V14.69l1.255 2.136a.416.416 0 0 0 .57.15l1.165-.684a.416.416 0 0 0 .15-.571l-2.403-4.057z" fill="#2C2D45" fill-rule="nonzero"/><path d="M95.813 24.438l-10.452-6.785v-1.334h7.27c.192 0 .348.155.348.346v3.444c0 .224.181.405.405.405h1.426a.406.406 0 0 0 .405-.405V15.48c0-.766-.621-1.387-1.388-1.387h-8.466V12.63h10.025a.406.406 0 0 0 .406-.406V10.8a.406.406 0 0 0-.406-.406H85.361V9.326a.406.406 0 0 0-.405-.406H83.53a.406.406 0 0 0-.405.406v1.067h-10.02a.406.406 0 0 0-.406.406v1.425c0 .224.182.406.406.406H83.13v1.463h-8.466c-.767 0-1.388.62-1.388 1.387v4.634c0 .224.181.406.405.406h1.426a.406.406 0 0 0 .405-.406V16.67c0-.192.156-.347.347-.347h7.27v1.473l-.533.705a14.322 14.322 0 0 1-9.544 5.2.406.406 0 0 0-.363.4v1.414a.406.406 0 0 0 .448.406 17.813 17.813 0 0 0 9.982-4.655v4.297c0 .224.182.406.406.406h1.425a.406.406 0 0 0 .406-.406v-5.28l9.261 6.011a.4.4 0 0 0 .534-.117l.753-1.158a.4.4 0 0 0-.09-.582z" fill="#2C2D45" fill-rule="nonzero"/><path d="M112.126 18.101h.817a.422.422 0 0 0 .422-.421v-1.345a.422.422 0 0 0-.422-.422h-9.694v-.433a.422.422 0 0 0-.422-.421h-1.345a.422.422 0 0 0-.422.421v.422h-.79a.422.422 0 0 0-.421.422v1.345c0 .233.189.422.421.422h.79v2.274c.001.504.292.963.748 1.18l2.53 1.195a15.48 15.48 0 0 1-3.678 1.137.411.411 0 0 0-.358.438l.102 1.361a.411.411 0 0 0 .47.38c2.1-.378 4.125-1.09 6-2.11l4.457 2.136c.202.088.438 0 .534-.198l.582-1.233a.411.411 0 0 0-.198-.534l-3.203-1.516c1.634-1.249 2.861-2.765 3.08-4.5zm-8.54 1.88a.614.614 0 0 1-.353-.534v-1.33h6.678c-.304 1.228-1.57 2.408-3.133 3.385l-3.193-1.522z" fill="#2C2D45" fill-rule="nonzero"/><path d="M72.923 8.616a.411.411 0 0 0 .593.096 6.01 6.01 0 0 0 1.377-1.506h2.135V8.76c0 .224.182.405.406.405h1.425a.406.406 0 0 0 .406-.405V7.206h3.913a.406.406 0 0 0 .406-.405V5.375a.406.406 0 0 0-.406-.405h-7.473c.06-.337.093-.678.096-1.02V3.77a.406.406 0 0 0-.406-.406h-1.377a.406.406 0 0 0-.406.406v.181a3.822 3.822 0 0 1-1.42 2.979.4.4 0 0 0-.08.534l.811 1.153z" fill="#2C2D45" fill-rule="nonzero"/><path d="M51.977 34.863a4.927 4.927 0 0 0-1.148-.46c-.389-.1-.772-.223-1.148-.367a2.765 2.765 0 0 1-.88-.534 1.217 1.217 0 0 1-.358-.945c.004-.164.034-.326.09-.48.066-.184.172-.35.31-.486.166-.163.364-.288.582-.369.291-.104.599-.152.908-.144a2.21 2.21 0 0 1 1.025.23c.283.139.524.35.699.614l1.068-.972a2.605 2.605 0 0 0-1.27-.886 5.215 5.215 0 0 0-1.517-.219 3.79 3.79 0 0 0-1.495.267 3.203 3.203 0 0 0-1.02.662 2.584 2.584 0 0 0-.763 1.778c-.025.522.099 1.04.358 1.494.224.356.525.657.88.881.357.23.744.409 1.149.534.416.124.799.253 1.147.384.319.115.616.28.881.491.243.216.375.53.358.854.006.245-.055.487-.176.7a1.681 1.681 0 0 1-.46.507c-.188.138-.4.243-.624.31-.216.066-.441.1-.667.1-.395.001-.785-.084-1.143-.25a2.135 2.135 0 0 1-.907-.785l-1.068.93c.333.46.793.812 1.324 1.013.561.22 1.159.333 1.762.331.446.002.89-.068 1.313-.208.39-.126.752-.325 1.067-.587.304-.26.548-.582.716-.945.182-.394.273-.825.267-1.26a2.333 2.333 0 0 0-.358-1.372 2.669 2.669 0 0 0-.902-.811z" fill="#2C2D45" fill-rule="nonzero"/><path fill="#2C2D45" fill-rule="nonzero" d="M57.288 35.44h4.596v-1.228h-4.596v-2.888h4.938v-1.228h-6.25v9.678h6.496v-1.228h-5.184z"/><path fill="#2C2D45" fill-rule="nonzero" d="M72.235 38.055h-.032l-5.328-7.959h-1.724v9.678h1.313V31.82h.027l5.386 7.954h1.671v-9.678h-1.313z"/><path d="M81.278 34.863a4.927 4.927 0 0 0-1.148-.46c-.39-.1-.772-.223-1.148-.367a2.765 2.765 0 0 1-.88-.534 1.217 1.217 0 0 1-.358-.945c.003-.164.034-.326.09-.48.066-.184.172-.35.31-.486.166-.163.364-.288.582-.369.29-.104.599-.152.907-.144a2.21 2.21 0 0 1 1.025.23c.284.139.525.35.7.614l1.067-.972a2.605 2.605 0 0 0-1.27-.886 5.215 5.215 0 0 0-1.516-.219 3.79 3.79 0 0 0-1.495.267 3.203 3.203 0 0 0-1.02.662 2.584 2.584 0 0 0-.79 1.788c-.025.522.099 1.041.358 1.495.224.356.525.657.881.88.356.23.743.41 1.148.535.416.124.799.252 1.147.384.319.115.616.28.881.491.243.215.375.53.358.854.006.245-.055.487-.176.7a1.681 1.681 0 0 1-.46.506c-.188.139-.4.244-.624.31-.216.066-.441.1-.667.102-.395 0-.785-.086-1.143-.251a2.135 2.135 0 0 1-.907-.785l-1.068.929c.333.46.793.813 1.324 1.014.561.22 1.159.333 1.762.33.446.003.89-.067 1.313-.207.39-.126.752-.325 1.067-.587.304-.26.548-.583.716-.945.182-.395.273-.825.267-1.26a2.333 2.333 0 0 0-.358-1.372 2.669 2.669 0 0 0-.875-.822z" fill="#2C2D45" fill-rule="nonzero"/><path d="M93.352 31.313c-.455-.461-1-.824-1.601-1.067a5.525 5.525 0 0 0-4.073 0c-.601.243-1.146.606-1.601 1.067a4.97 4.97 0 0 0-1.041 1.602 5.568 5.568 0 0 0 0 4.02 4.97 4.97 0 0 0 1.04 1.6c.456.462 1 .825 1.602 1.068 1.308.52 2.765.52 4.073 0a4.75 4.75 0 0 0 1.601-1.067 4.97 4.97 0 0 0 1.041-1.602c.5-1.293.5-2.726 0-4.02a4.97 4.97 0 0 0-1.04-1.6zm-.24 5.12a3.64 3.64 0 0 1-.737 1.222 3.625 3.625 0 0 1-5.306 0 3.64 3.64 0 0 1-.736-1.223 4.447 4.447 0 0 1 0-2.994c.163-.452.413-.868.736-1.223a3.625 3.625 0 0 1 5.306 0c.324.355.574.77.737 1.223a4.447 4.447 0 0 1 0 2.994z" fill="#2C2D45" fill-rule="nonzero"/><path d="M102.593 35.066c.284-.15.539-.348.752-.587a2.536 2.536 0 0 0 .635-1.677 3.448 3.448 0 0 0-.138-.934 2.183 2.183 0 0 0-.486-.875c-.265-.282-.59-.5-.95-.64a3.982 3.982 0 0 0-1.532-.252h-3.4v9.678h1.312v-4.27h1.463l2.461 4.27h1.639l-2.75-4.414c.348-.032.686-.134.994-.3zm-2.088-.705h-1.724v-3.117h1.724c.254 0 .508.022.758.064.236.035.464.11.673.224.197.11.359.273.47.47a1.89 1.89 0 0 1 0 1.601c-.111.197-.273.36-.47.47-.21.113-.437.19-.673.224-.25.042-.504.063-.758.064z" fill="#2C2D45" fill-rule="nonzero"/><path d="M111.07 34.863a4.927 4.927 0 0 0-1.148-.46c-.39-.1-.773-.223-1.148-.367a2.765 2.765 0 0 1-.88-.534 1.217 1.217 0 0 1-.358-.945c.003-.164.034-.326.09-.48.066-.184.172-.35.31-.486.166-.163.364-.288.582-.369.29-.104.598-.152.907-.144a2.21 2.21 0 0 1 1.025.23c.284.139.525.35.7.614l1.067-.972a2.605 2.605 0 0 0-1.27-.886 5.215 5.215 0 0 0-1.516-.219 3.79 3.79 0 0 0-1.495.267 3.203 3.203 0 0 0-1.02.662 2.584 2.584 0 0 0-.763 1.778c-.026.522.099 1.04.358 1.494.223.356.524.657.88.881.357.23.743.409 1.148.534.417.124.8.253 1.148.384.318.115.616.28.88.491.244.216.375.53.358.854.006.245-.055.487-.176.7a1.681 1.681 0 0 1-.459.507c-.189.138-.4.243-.625.31-.216.066-.44.1-.667.1-.394.001-.784-.084-1.142-.25a2.135 2.135 0 0 1-.908-.785l-1.067.93c.332.46.793.812 1.324 1.013.56.22 1.158.333 1.761.331.446.002.89-.068 1.313-.208.39-.126.753-.325 1.068-.587.303-.26.547-.582.715-.945.183-.394.274-.825.267-1.26a2.333 2.333 0 0 0-.357-1.372 2.669 2.669 0 0 0-.903-.811z" fill="#2C2D45" fill-rule="nonzero"/><path d="M127.521 32.883a4.762 4.762 0 0 0-.592-1.041 3.95 3.95 0 0 0-.95-.881 4.804 4.804 0 0 0-1.34-.625 6.278 6.278 0 0 0-1.8-.235h-3.378v9.678h3.16a5.957 5.957 0 0 0 2.29-.41 4.986 4.986 0 0 0 1.66-1.068c.438-.44.782-.965 1.01-1.543a4.863 4.863 0 0 0 .34-1.799 5.648 5.648 0 0 0-.095-.982 5.258 5.258 0 0 0-.305-1.094zm-1.313 3.63a3.24 3.24 0 0 1-.886 1.126c-.388.309-.832.539-1.308.678-.52.154-1.06.23-1.601.224h-1.655v-7.217h2.018a4.094 4.094 0 0 1 1.91.39c.453.226.849.55 1.16.95.266.352.458.756.565 1.185.09.349.14.707.15 1.067a3.582 3.582 0 0 1-.347 1.596h-.006z" fill="#2C2D45" fill-rule="nonzero"/><path d="M135.63 38.6v-3.31c0-.278-.054-.554-.16-.811a1.879 1.879 0 0 0-.486-.689 2.386 2.386 0 0 0-.838-.48 3.737 3.737 0 0 0-1.223-.177 4.126 4.126 0 0 0-1.366.24 3.416 3.416 0 0 0-1.201.716l.737.763.341-.261c.123-.094.255-.175.395-.24a2.525 2.525 0 0 1 1.11-.24c.234-.006.466.034.684.117a1.34 1.34 0 0 1 .865 1.25v.287h-.903a7.895 7.895 0 0 0-1.387.118 3.737 3.737 0 0 0-1.138.384c-.306.164-.568.4-.763.689-.2.319-.298.69-.283 1.067-.007.291.054.58.176.844.115.236.281.444.486.608.212.168.455.293.715.368.28.083.569.124.86.123.446.009.889-.08 1.297-.261.402-.197.739-.505.972-.886h.026c0 .33 0 .656.043.982h1.068a12.475 12.475 0 0 1-.043-.534 4.904 4.904 0 0 1 .016-.667zm-1.148-1.532a2.418 2.418 0 0 1-.096.662 1.73 1.73 0 0 1-.315.608c-.155.19-.353.342-.576.443-.27.12-.564.18-.86.171a1.842 1.842 0 0 1-1.02-.246.891.891 0 0 1-.373-.806.865.865 0 0 1 .24-.63c.173-.173.383-.304.614-.384.269-.096.549-.159.833-.187.298-.031.597-.047.897-.048h.656v.417z" fill="#2C2D45" fill-rule="nonzero"/><path d="M140.883 38.792a.934.934 0 0 1-.534-.128.78.78 0 0 1-.272-.342 1.415 1.415 0 0 1-.102-.48V34.367h1.762v-1.068h-1.762v-1.804h-1.233v1.82h-1.42v1.068h1.42v3.379c0 .261 0 .533.032.784.019.249.094.49.219.705.135.231.335.417.576.534.347.149.723.216 1.1.197.179-.004.357-.02.534-.048.197-.021.39-.08.566-.17v-1.122a1.313 1.313 0 0 1-.422.15c-.155.014-.31.014-.464 0z" fill="#2C2D45" fill-rule="nonzero"/><path d="M149.429 38.6v-3.31c0-.278-.055-.554-.16-.811a1.879 1.879 0 0 0-.486-.689 2.38 2.38 0 0 0-.838-.48 3.737 3.737 0 0 0-1.223-.177 4.126 4.126 0 0 0-1.366.24 3.416 3.416 0 0 0-1.201.716l.736.763.342-.261c.123-.094.255-.175.395-.24a2.525 2.525 0 0 1 1.11-.24c.234-.006.466.034.684.117a1.34 1.34 0 0 1 .865 1.25v.287h-.903a7.895 7.895 0 0 0-1.388.118 3.737 3.737 0 0 0-1.137.384c-.306.164-.568.4-.763.689-.2.319-.298.69-.283 1.067-.007.291.054.58.176.844.115.236.28.444.486.608.212.168.455.293.715.368.28.083.569.124.86.123.446.009.889-.08 1.297-.261.402-.197.739-.505.972-.886h.026c0 .33 0 .656.043.982h1.068a12.477 12.477 0 0 1-.043-.534 4.904 4.904 0 0 1 .016-.667zm-1.148-1.532a2.418 2.418 0 0 1-.096.662 1.73 1.73 0 0 1-.315.608c-.156.19-.353.342-.576.443-.27.12-.564.18-.86.171a1.842 1.842 0 0 1-1.02-.246.891.891 0 0 1-.373-.806.865.865 0 0 1 .24-.63c.173-.173.383-.304.614-.384.269-.096.549-.159.833-.187.298-.031.597-.047.897-.048h.656v.417z" fill="#2C2D45" fill-rule="nonzero"/><path d="M27.4 39.454H8.183a2.29 2.29 0 0 0 0 4.574H27.4a2.29 2.29 0 0 0 0-4.574z" fill="#04CB94"/><path d="M32.781 32.947h-13.1a2.29 2.29 0 0 0 0 4.574h13.1a2.29 2.29 0 0 0 0-4.574z" fill="#04CB94"/><path d="M24.16 31.014h8.616a2.29 2.29 0 0 0 0-4.574H24.16a2.29 2.29 0 0 0 0 4.574z" fill="#04CB94"/><path d="M2.797 17.995h8.616a2.29 2.29 0 0 0 0-4.575H2.797a2.29 2.29 0 0 0 0 4.575z" fill="#04CB94"/><path d="M24.379 22.217a2.29 2.29 0 0 0-2.29-2.29h-8.61a2.29 2.29 0 0 0 0 4.575h8.615a2.29 2.29 0 0 0 2.285-2.285z" fill="#04CB94"/><path d="M2.797 11.482h13.094a2.29 2.29 0 0 0 0-4.575H2.797a2.29 2.29 0 0 0 0 4.575z" fill="#04CB94"/><path d="M8.173 4.975H27.39a2.29 2.29 0 0 0 0-4.575H8.173a2.29 2.29 0 0 0 0 4.575z" fill="#04CB94"/><circle fill="#04CB94" fill-rule="nonzero" cx="32.776" cy="9.198" r="2.285"/><circle fill="#04CB94" fill-rule="nonzero" cx="2.797" cy="35.237" r="2.285"/></g></svg>