<svg width="120" height="40" viewBox="0 0 120 40" fill="none" xmlns="http://www.w3.org/2000/svg">
<g clip-path="url(#clip0_24_1101)">
<path d="M4.70999 30.8109C5.22406 30.8217 5.73831 30.8016 6.24999 30.7509V31.8809C5.71829 31.8297 5.18404 31.8096 4.64999 31.8209H4.05999V37.9209C4.05999 38.4409 4.05999 39.0909 4.05999 39.9209H2.86999C2.94999 39.1309 2.98999 38.4809 2.98999 37.9209V34.0009C2.73236 34.6665 2.42482 35.3117 2.06999 35.9309C1.76999 36.4209 1.40999 36.9309 0.969989 37.5609C0.71098 37.1393 0.390824 36.7585 0.019989 36.4309C0.688442 35.8607 1.25929 35.1852 1.70999 34.4309C2.1895 33.6052 2.57842 32.7302 2.86999 31.8209H2.45999C1.73999 31.8209 1.04999 31.8209 0.379989 31.8809V30.7509C1.04999 30.7509 1.73999 30.8109 2.45999 30.8109H2.96999V28.4409L1.96999 28.6509L0.809989 28.9109C0.643833 28.5605 0.446364 28.2258 0.219989 27.9109L1.55999 27.6709C2.00999 27.5909 2.45999 27.4909 2.91999 27.3709C3.37325 27.2729 3.82062 27.1493 4.25999 27.0009C4.65915 26.8491 5.04683 26.6686 5.41999 26.4609C5.63014 26.9181 5.91015 27.3398 6.24999 27.7109C5.84053 27.7394 5.43508 27.8097 5.03999 27.9209L4.03999 28.1809V30.8509L4.70999 30.8109ZM4.17999 33.4209C4.51894 33.2309 4.87357 33.0703 5.23999 32.9409L5.74999 33.8309C5.95999 34.2309 6.20999 34.6409 6.48999 35.0809C6.08005 35.2262 5.68216 35.4034 5.29999 35.6109C5.13999 35.2209 4.95999 34.8209 4.76999 34.4309C4.59604 34.0815 4.39894 33.7441 4.17999 33.4209V33.4209ZM5.23999 36.0009L8.49999 35.3509L10.5 34.9309V28.3209C10.5 27.5709 10.5 26.9609 10.44 26.4809H11.68C11.68 26.9209 11.62 27.4809 11.62 28.2609V34.7209L13.82 34.1309L14.05 35.2609C12.83 35.4909 12.05 35.6709 11.62 35.7909V37.7909C11.62 38.5443 11.64 39.2943 11.68 40.0409H10.46C10.5 39.2943 10.52 38.5443 10.52 37.7909V36.0009C9.64999 36.1609 8.85999 36.3109 8.14999 36.4709C7.43999 36.6309 6.63999 36.8509 5.77999 37.1209L5.23999 36.0009ZM6.65999 32.2009L7.60999 31.4909C7.88957 31.7777 8.14698 32.0852 8.37999 32.4109C8.65999 32.7909 8.93999 33.1309 9.20999 33.4109C8.84228 33.6254 8.48827 33.8625 8.14999 34.1209C7.90999 33.7209 7.67999 33.3809 7.46999 33.1209C7.22003 32.8066 6.94944 32.5093 6.65999 32.2309V32.2009ZM7.01999 28.2009L8.01999 27.5509C8.17999 27.7509 8.39999 28.0509 8.69999 28.4709C8.99999 28.8909 9.27999 29.2909 9.55999 29.6809C9.15999 29.8809 8.80999 30.0809 8.48999 30.2809C8.25999 29.8809 8.00999 29.4909 7.74999 29.0909C7.54447 28.7832 7.29899 28.5041 7.01999 28.2609V28.2009Z" fill="#1D2974"/>
<path d="M36.41 31.2189C36.151 30.9623 35.8736 30.725 35.58 30.5089C36.114 29.9703 36.5626 29.3531 36.91 28.6789C37.3831 27.8906 37.7211 27.0287 37.91 26.1289C38.3185 26.2894 38.7358 26.4263 39.16 26.5389C38.7531 27.1774 38.3954 27.846 38.09 28.5389H39.39C39.91 28.5389 40.39 28.5389 40.88 28.4789V29.4789C40.32 29.4789 39.75 29.4189 39.16 29.4189H37.66C37.2933 30.0521 36.8752 30.6541 36.41 31.2189ZM40.5 36.0889C40.603 36.4637 40.7614 36.821 40.97 37.1489C40.61 37.4289 40.16 37.8089 39.6 38.2789C39.04 38.7489 38.51 39.2789 38 39.7589C37.8 39.4089 37.61 39.0689 37.41 38.7589C37.6747 38.3504 37.836 37.8837 37.88 37.3989V34.7789C37.37 34.7789 36.8 34.7789 36.16 34.8389V33.8389C36.83 33.8389 37.41 33.8989 37.88 33.8989V32.0589C37.68 32.0589 37.37 32.0589 36.88 32.0589V31.0489C37.48 31.0489 38.06 31.1089 38.63 31.1089C39.2 31.1089 39.85 31.1089 40.56 31.0489V32.1089C40.01 32.1089 39.45 32.1089 38.9 32.1089V33.9389C39.49 33.9389 40.14 33.9389 40.9 33.8789V34.8789C40.18 34.8789 39.53 34.8189 38.9 34.8189V37.6689C39.4687 37.1792 40.0032 36.6513 40.5 36.0889ZM45.6 29.5089C46.1795 28.4507 46.655 27.3388 47.02 26.1889C47.4505 26.4346 47.9065 26.6325 48.38 26.7789C48.0117 27.0295 47.718 27.375 47.53 27.7789C47.31 28.2289 47.02 28.7789 46.67 29.4689H48.33C48.29 29.8956 48.27 30.6056 48.27 31.5989C48.27 32.5922 48.29 33.2822 48.33 33.6689H46.49V37.6689C46.49 38.2189 46.68 38.4889 47.17 38.4689C47.66 38.4489 47.96 38.3289 48.06 38.1089C48.1952 37.699 48.266 37.2705 48.27 36.8389C48.6507 37.0256 49.0452 37.1827 49.45 37.3089C49.21 38.3089 48.94 38.9489 48.62 39.1489C48.1408 39.3772 47.6083 39.4706 47.08 39.4189C46.5795 39.4674 46.08 39.3164 45.69 38.9989C45.5735 38.8431 45.4896 38.6653 45.4432 38.4764C45.3968 38.2874 45.3889 38.091 45.42 37.8989V33.7089H44.3C44.2746 34.7973 44.0614 35.8731 43.67 36.8889C43.4155 37.5333 43.0462 38.1263 42.58 38.6389C42.1367 39.0709 41.6584 39.4656 41.15 39.8189C40.843 39.4472 40.4614 39.1441 40.03 38.9289C40.9189 38.5502 41.6942 37.9472 42.28 37.1789C42.6346 36.6546 42.8952 36.0726 43.05 35.4589C43.1768 34.8829 43.2571 34.2977 43.29 33.7089H41.97C42.01 33.1556 42.03 32.4456 42.03 31.5789C42.03 30.7122 42.01 30.0222 41.97 29.5089H45.6ZM44.41 28.3789C44.0933 28.5196 43.7946 28.6975 43.52 28.9089C43.29 28.4789 42.83 27.7489 42.16 26.7189C42.4351 26.4915 42.7334 26.2938 43.05 26.1289C43.68 27.1589 44.14 27.9089 44.41 28.3789V28.3789ZM43.05 30.3789V32.8089H47.2V30.3989L43.05 30.3789Z" fill="#1D2974"/>
<path d="M72.26 26.1797H84.06C84.06 27.1197 84 28.1797 84 29.3197V35.3197C84 36.4997 84 37.6497 84.06 38.7497H82.97V37.9997H73.39V38.8897H72.26C72.26 37.7097 72.32 36.4997 72.32 35.2797V29.2797C72.32 28.2097 72.3 27.1697 72.26 26.1797ZM73.39 27.0097V37.1997H82.97V26.9997L73.39 27.0097ZM74.69 28.5497C75.28 28.5497 75.94 28.6097 76.69 28.6097H79.95C80.54 28.6097 81.15 28.6097 81.79 28.5497V29.4997C81.19 29.4997 80.58 29.4397 79.95 29.4397H78.54V31.3297H79.54C80.21 31.3297 80.85 31.3297 81.44 31.3297V32.2697C80.85 32.2697 80.21 32.2097 79.54 32.2097H78.54V34.8197H80.09C80.7567 34.8197 81.4067 34.7997 82.04 34.7597V35.7097C81.4533 35.6697 80.8033 35.6497 80.09 35.6497H76.23C75.6 35.6497 74.97 35.6497 74.33 35.7097V34.7597C74.97 34.7597 75.6 34.8197 76.23 34.8197H77.48V32.1597H76.71C76.03 32.1597 75.42 32.1597 74.87 32.2197V31.2797C75.42 31.2797 76.03 31.2797 76.71 31.2797H77.48V29.4397H76.65C75.94 29.4397 75.28 29.4397 74.65 29.4997L74.69 28.5497ZM79.26 33.2297C79.5424 33.0123 79.8398 32.8152 80.15 32.6397C80.3 32.7997 80.66 33.1897 81.21 33.8297C80.8816 34.0068 80.5644 34.2039 80.26 34.4197C80.15 34.2597 79.81 33.8597 79.26 33.2297V33.2297Z" fill="#1D2974"/>
<path d="M107.02 26.1797H111.52C111.306 26.7765 111.122 27.384 110.97 27.9997C110.71 28.9097 110.43 29.8097 110.11 30.7197C110.535 31.3113 110.872 31.9614 111.11 32.6497C111.255 33.1185 111.296 33.6134 111.23 34.0997C111.131 34.5625 110.855 34.9682 110.46 35.2297C110 35.5505 109.467 35.7532 108.91 35.8197C108.806 35.3689 108.649 34.9324 108.44 34.5197C109.27 34.5197 109.76 34.3797 109.92 34.0997C110.083 33.7928 110.125 33.4364 110.04 33.0997C109.958 32.7016 109.827 32.3153 109.65 31.9497C109.453 31.5334 109.205 31.1436 108.91 30.7897C109.11 30.2797 109.31 29.6997 109.51 29.0397C109.71 28.3797 109.88 27.7697 110.04 27.1697H108.2V38.4497H107.02C107.02 37.3797 107.08 36.3297 107.08 35.3097V28.6097C107.08 27.783 107.06 26.973 107.02 26.1797ZM111.82 37.3197L110.69 36.7897C111.106 36.0805 111.483 35.3494 111.82 34.5997C112.14 33.8797 112.43 33.1297 112.71 32.3397L113.89 32.7597C113.505 33.4752 113.171 34.217 112.89 34.9797C112.56 35.7497 112.21 36.5297 111.82 37.3197ZM111.46 29.7297C112.29 29.7297 112.98 29.7897 113.54 29.7897H117.75C118.377 29.7897 118.987 29.7697 119.58 29.7297V30.7997C118.987 30.7597 118.377 30.7397 117.75 30.7397H115.91V37.0897C115.91 37.6797 115.7 38.0197 115.29 38.0897C114.88 38.1597 114.29 38.2997 113.6 38.4197C113.557 37.9332 113.392 37.4654 113.12 37.0597C113.588 37.0752 114.056 37.0551 114.52 36.9997C114.69 36.9997 114.78 36.8197 114.78 36.5797V30.7397H113.54C112.71 30.7397 112.02 30.7397 111.46 30.7997V29.7297ZM112.53 26.3497C113 26.3497 113.53 26.4097 114.25 26.4097H117.15C117.75 26.4097 118.28 26.4097 118.76 26.3497V27.4197C118.28 27.4197 117.76 27.3597 117.15 27.3597H114.25C113.62 27.3597 113.04 27.3597 112.53 27.4197V26.3497ZM116.68 32.9297C116.92 32.8197 117.27 32.6197 117.75 32.3397L119.88 36.4897C119.471 36.6576 119.077 36.8582 118.7 37.0897C118.1 35.6997 117.43 34.3197 116.68 32.9297Z" fill="#1D2974"/>
<path d="M119.95 0H82.27V13.74H119.95V0Z" fill="#1D2974"/>
<path d="M71.91 8.59926V6.69926C72.491 6.5951 73.0392 6.35526 73.51 5.99926C73.7825 5.7182 73.9941 5.38402 74.1318 5.01755C74.2694 4.65109 74.3301 4.2602 74.31 3.86926C74.3333 3.52306 74.2799 3.17599 74.1537 2.85277C74.0275 2.52955 73.8317 2.23812 73.58 1.99926C73.1038 1.61391 72.521 1.38359 71.91 1.33926V0.389256H72.49C73.4884 0.321458 74.4751 0.636078 75.25 1.26926C75.5511 1.57848 75.7841 1.94735 75.9339 2.35211C76.0837 2.75686 76.1471 3.18851 76.12 3.61926C76.1599 4.22759 76.0356 4.83547 75.76 5.37926C75.4484 5.90166 75.0291 6.35165 74.53 6.69926C74.0388 6.97939 73.5148 7.19771 72.97 7.34926L76.11 11.3493C76.3016 11.6791 76.5446 11.9762 76.83 12.2293C76.9952 12.392 77.1928 12.518 77.41 12.5993C77.979 12.798 78.5647 12.9453 79.16 13.0393V13.6193C78.16 13.5493 77.49 13.5493 77.05 13.5493C76.5124 13.5381 75.9746 13.5615 75.44 13.6193C75.15 13.1793 74.79 12.6193 74.29 11.8593C74.0661 11.4008 73.7688 10.982 73.41 10.6193C73.34 10.5493 73.34 10.4693 73.27 10.3293L71.91 8.59926ZM71.91 0.389256V1.38926H71.47C71.18 1.38926 70.47 1.38926 69.47 1.46926V6.62926C70.12 6.69926 70.56 6.76926 70.92 6.76926C71.28 6.76926 71.57 6.69926 71.92 6.69926V8.59926L71.19 7.59926C70.6305 7.58765 70.0726 7.53753 69.52 7.44926L69.59 12.2093C69.591 12.3453 69.6406 12.4766 69.73 12.5793C70.1546 12.828 70.6296 12.9784 71.12 13.0193C71.26 13.0193 71.41 13.0993 71.62 13.0993V13.6793C70.53 13.6093 69.52 13.6093 68.62 13.6093C67.72 13.6093 66.72 13.6093 65.56 13.6793V13.0993L65.97 12.9993C66.494 12.9494 67.0087 12.8282 67.5 12.6393C67.6436 12.4765 67.7219 12.2663 67.72 12.0493C67.72 11.8293 67.79 10.2193 67.79 7.21926L67.72 2.80926V1.63926C67.64 1.48926 67.57 1.41926 67.5 1.41926C67.0211 1.18378 66.502 1.04126 65.97 0.999256C65.8392 0.958932 65.7054 0.928841 65.57 0.909256V0.319256C67.25 0.389256 68.57 0.459256 69.51 0.459256C70.0443 0.473861 70.579 0.450469 71.11 0.389256H71.91ZM40.68 13.6593V13.0793L42.14 12.7793C42.3005 12.7376 42.4504 12.6627 42.58 12.5593C42.6911 12.3328 42.7395 12.0807 42.72 11.8293V11.6793L42.8 9.48926V2.99926C42.7897 2.52918 42.7396 2.06083 42.65 1.59926C42.65 1.52926 42.58 1.45926 42.5 1.37926C42.2177 1.2897 41.9306 1.21625 41.64 1.15926L40.64 0.949256V0.319256C41.81 0.389256 43.19 0.459256 44.79 0.459256C45.66 0.459256 47.79 0.389256 51.12 0.319256C51.1162 1.39979 51.1897 2.47922 51.34 3.54926H50.68C50.5536 2.96644 50.3624 2.39958 50.11 1.85926C50.0027 1.69551 49.8497 1.56686 49.67 1.48926C49.2427 1.37715 48.8016 1.32664 48.36 1.33926H44.62L44.54 4.33926V6.17926H48.33C48.4798 6.12686 48.6069 6.02444 48.69 5.88926C48.8442 5.48664 48.9646 5.07187 49.05 4.64926C49.0439 4.52214 49.0679 4.39538 49.12 4.27926H49.71C49.63 5.27926 49.63 6.10926 49.63 6.69926C49.63 7.28926 49.63 8.00926 49.71 9.03926H49.12C48.9 8.15926 48.84 7.64926 48.76 7.49926C48.7354 7.434 48.6967 7.37502 48.6465 7.32659C48.5964 7.27816 48.5361 7.2415 48.47 7.21926C48.0158 7.12946 47.5515 7.10254 47.09 7.13926H44.54V12.6393H48.84C49.35 12.6393 49.71 12.5593 49.84 12.5593C50.0784 12.4841 50.2834 12.3286 50.42 12.1193C50.8266 11.6317 51.1632 11.0898 51.42 10.5093C51.5036 10.3923 51.5772 10.2685 51.64 10.1393H52.29C52.22 10.3693 51.78 11.5393 51.12 13.6593C48.86 13.5893 46.75 13.5893 44.94 13.5893C43.62 13.5893 42.18 13.5893 40.64 13.6593H40.68ZM56.97 6.17926H60.77C60.9198 6.12686 61.0469 6.02444 61.13 5.88926C61.3281 5.50271 61.4503 5.08179 61.49 4.64926C61.49 4.56926 61.56 4.41926 61.56 4.27926H62.22C62.15 5.27926 62.08 6.10926 62.08 6.69926C62.08 7.28926 62.15 7.99926 62.22 8.99926H61.56C61.42 8.11926 61.28 7.60926 61.28 7.45926C61.1975 7.32155 61.0649 7.22118 60.91 7.17926C60.4564 7.0853 59.9914 7.05834 59.53 7.09926H56.97L57.05 12.5993H61.27C61.78 12.5993 62.14 12.5193 62.27 12.5193C62.5198 12.4288 62.7432 12.2776 62.92 12.0793C63.3174 11.5851 63.6532 11.0445 63.92 10.4693C64.0072 10.3547 64.081 10.2306 64.14 10.0993H64.8C64.72 10.3293 64.35 11.4993 63.63 13.6193C61.37 13.5493 59.34 13.5493 57.44 13.5493C56.13 13.5493 54.68 13.5493 53.15 13.6193V13.0393L54.6 12.7393C54.7874 12.7156 54.9642 12.6393 55.11 12.5193C55.19 12.4493 55.19 12.1493 55.19 11.7893V11.6393L55.25 9.44926V2.99926C55.25 2.18926 55.19 1.67926 55.19 1.59926L54.97 1.33926C54.91 1.33926 54.61 1.19926 54.17 1.11926L53.17 0.909256V0.319256C54.33 0.389256 55.71 0.459256 57.31 0.459256C58.19 0.459256 60.31 0.389256 63.65 0.319256C63.6479 1.3994 63.7181 2.47847 63.86 3.54926H63.17C63.045 2.9634 62.8468 2.39561 62.58 1.85926C62.5541 1.77323 62.5078 1.6947 62.4452 1.6303C62.3825 1.5659 62.3053 1.51752 62.22 1.48926C61.7697 1.37265 61.3048 1.32213 60.84 1.33926H57.06L56.98 4.33926L56.97 6.17926ZM40.67 13.0793C40.0914 12.9832 39.5225 12.836 38.97 12.6393C38.7515 12.5606 38.5534 12.4342 38.39 12.2693C38.1004 12.0175 37.8539 11.7203 37.66 11.3893L34.53 7.38926C35.0889 7.24189 35.6266 7.02344 36.13 6.73926C36.6463 6.40877 37.0724 5.95518 37.37 5.41926C37.664 4.87999 37.8122 4.27334 37.8 3.65926C37.8137 3.22392 37.7373 2.79044 37.5755 2.38603C37.4138 1.98163 37.1702 1.61503 36.86 1.30926C36.4769 0.979064 36.0323 0.727812 35.5518 0.569931C35.0713 0.41205 34.5643 0.350649 34.06 0.389256H33.48V1.38926C34.0887 1.40282 34.6758 1.61729 35.15 1.99926C35.4011 2.23263 35.5976 2.51854 35.7255 2.83659C35.8534 3.15465 35.9096 3.49701 35.89 3.83926C35.913 4.23586 35.8528 4.6329 35.7133 5.00487C35.5738 5.37685 35.3581 5.71556 35.08 5.99926C34.6212 6.38074 34.0688 6.63276 33.48 6.72926V8.59926L34.79 10.3693C34.87 10.5093 34.94 10.5893 34.94 10.6593C35.2913 11.026 35.5846 11.4441 35.81 11.8993C36.32 12.6393 36.68 13.2193 36.97 13.6593C37.5046 13.6012 38.0424 13.5779 38.58 13.5893C39.01 13.5893 39.74 13.5893 40.68 13.6593H40.62V13.0793H40.67ZM33.48 0.389256V1.38926H33.04C32.75 1.38926 32.1 1.38926 31.04 1.46926V6.62926C31.7 6.69926 32.13 6.76926 32.49 6.76926C32.85 6.76926 33.15 6.69926 33.44 6.69926V8.59926L32.71 7.59926C32.1506 7.58718 31.5926 7.53706 31.04 7.44926L31.11 12.2093C31.1098 12.3474 31.1637 12.4802 31.26 12.5793C31.6797 12.8308 32.1521 12.9814 32.64 13.0193C32.79 13.0193 32.93 13.0993 33.15 13.0993V13.6793C32.06 13.6093 31.04 13.6093 30.15 13.6093C29.26 13.6093 28.26 13.6093 27.15 13.6793V13.0993L27.58 13.0193C28.0775 12.9663 28.5654 12.8451 29.03 12.6593C29.178 12.4991 29.257 12.2872 29.25 12.0693C29.25 11.8493 29.33 10.2393 29.33 7.23926L29.25 2.82926V1.63926C29.18 1.48926 29.11 1.41926 29.03 1.41926C28.5794 1.19316 28.0915 1.05085 27.59 0.999256C27.4486 0.965137 27.3049 0.941737 27.16 0.929256V0.319256C28.83 0.389256 30.16 0.459256 31.08 0.459256C31.6143 0.47434 32.149 0.450946 32.68 0.389256H33.48ZM11.77 11.2593L12.21 11.9893C11.2997 12.5465 10.3346 13.0089 9.32999 13.3693C8.42036 13.6535 7.47298 13.7984 6.51999 13.7993C5.33642 13.8115 4.17054 13.5114 3.13999 12.9293C2.15071 12.3816 1.34925 11.5488 0.839986 10.5393C0.310927 9.45601 0.0404985 8.26476 0.0499857 7.05926C0.0311382 6.13432 0.198482 5.21504 0.542064 4.35609C0.885647 3.49713 1.39845 2.71604 2.04999 2.05926C2.75654 1.37836 3.59195 0.845409 4.50721 0.491667C5.42248 0.137926 6.39916 -0.0294845 7.37999 -0.000744051C8.9499 0.0372503 10.502 0.341577 11.97 0.899256C11.97 1.47926 11.9 1.83926 11.9 2.12926C11.9 2.92926 11.97 3.71926 12.04 4.58926H11.27C11.1159 3.84019 10.8743 3.11185 10.55 2.41926C10.2359 1.9585 9.78449 1.60856 9.25999 1.41926C8.56765 1.16973 7.83582 1.04776 7.09999 1.05926C6.33116 1.02753 5.56604 1.18187 4.86965 1.50918C4.17325 1.83648 3.56617 2.32707 3.09999 2.93926C2.41024 4.06959 2.06289 5.37561 2.09999 6.69926C2.01649 8.25671 2.51554 9.7895 3.49999 10.9993C4.01006 11.5009 4.61746 11.8928 5.28476 12.1508C5.95206 12.4087 6.66511 12.5273 7.37999 12.4993C8.05784 12.5096 8.733 12.4117 9.37999 12.2093C10.2011 11.9551 10.995 11.6201 11.75 11.2093L11.77 11.2593ZM19.2 9.35926V8.52926H21.53L19.22 2.87926V0.319256L19.29 0.0992559H19.87C20.75 2.29926 21.77 4.71926 23 7.49926L25.18 12.2693C25.2427 12.4187 25.3468 12.547 25.48 12.6393C25.9268 12.8244 26.3884 12.9716 26.86 13.0793V13.6593C25.77 13.5893 24.86 13.5893 24.38 13.5893C23.9 13.5893 22.86 13.5893 21.55 13.6593V13.0793C22.35 12.9393 22.79 12.8493 22.86 12.7093C22.93 12.5693 23.08 12.5593 23.08 12.4193C23.051 12.1869 22.9763 11.9625 22.86 11.7593L21.91 9.48926C20.75 9.40926 19.8 9.40926 19.22 9.40926L19.2 9.35926ZM19.22 0.319256V2.87926L16.89 8.52926H19.22V9.40926H19.07L16.53 9.48926L15.53 11.8293C15.4162 12.0585 15.3418 12.3053 15.31 12.5593C15.31 12.6393 15.31 12.7093 15.45 12.7093C15.7733 12.8376 16.1082 12.9347 16.45 12.9993C16.4906 13.0311 16.5372 13.0546 16.587 13.0683C16.6367 13.0821 16.6888 13.0858 16.74 13.0793V13.6593C15.74 13.5893 14.99 13.5893 14.55 13.5893C14.11 13.5893 13.25 13.5893 12.36 13.6593V13.0793C12.7751 13.041 13.1773 12.9149 13.54 12.7093C13.7208 12.5251 13.8879 12.3279 14.04 12.1193C14.4 11.4593 15.28 9.48926 16.74 6.11926L19.22 0.319256Z" fill="#1D2974"/>
<path d="M110.87 21.0003V20.6503H111.87L110.87 18.2903V17.0703H111.16C111.53 18.0003 111.97 19.0703 112.49 20.2103L113.49 22.2103L113.63 22.3403C113.823 22.4046 114.02 22.4548 114.22 22.4903V22.7703C113.856 22.7203 113.488 22.6969 113.12 22.7003C112.729 22.6982 112.338 22.7216 111.95 22.7703V22.4903C112.24 22.4903 112.46 22.4203 112.46 22.3403C112.478 22.3417 112.497 22.3394 112.514 22.3336C112.532 22.3278 112.548 22.3186 112.562 22.3065C112.576 22.2944 112.587 22.2797 112.596 22.2632C112.604 22.2467 112.609 22.2287 112.61 22.2103C112.61 22.2103 112.54 22.0603 112.46 21.9203L112.09 20.9903L110.87 21.0003ZM114.87 17.4403V17.2203H117.64V17.4403C117.14 17.5103 116.84 17.5803 116.77 17.5803C116.7 17.5803 116.69 17.6503 116.62 17.6503C116.589 17.7687 116.566 17.8889 116.55 18.0103V22.2903H118.9L119.12 22.0703C119.19 21.9303 119.34 21.7103 119.63 21.2203H119.92L119.63 22.1403C119.541 22.3479 119.467 22.5618 119.41 22.7803C118.31 22.7103 117.41 22.7103 116.55 22.7103C115.989 22.697 115.428 22.7204 114.87 22.7803V22.5003C115.3 22.4303 115.52 22.4303 115.59 22.3503C115.648 22.3452 115.703 22.3244 115.75 22.2903C115.81 22.2203 115.81 22.0703 115.81 21.8503V17.9203C115.826 17.8227 115.805 17.7227 115.75 17.6403C115.67 17.5703 115.52 17.5703 115.15 17.5003C115.08 17.5003 115.01 17.4303 114.87 17.4303V17.4403ZM110.87 17.2103V18.2803L109.87 20.6403H110.87V21.0003H109.7L109.25 22.0003C109.207 22.0911 109.183 22.1899 109.18 22.2903V22.3503C109.25 22.4303 109.4 22.4303 109.7 22.5003H109.77V22.7803C109.439 22.7271 109.105 22.7036 108.77 22.7103C108.475 22.7039 108.18 22.7273 107.89 22.7803V22.5003C108.067 22.4955 108.24 22.4437 108.39 22.3503C108.47 22.2903 108.47 22.2203 108.55 22.0703C109.019 21.3044 109.411 20.4937 109.72 19.6503L110.87 17.2103ZM97.22 22.8503V22.4903C97.6011 22.4678 97.9745 22.3728 98.32 22.2103C98.6342 21.9749 98.8653 21.6457 98.98 21.2703C99.1371 20.8658 99.2119 20.4341 99.2 20.0003C99.233 19.5095 99.1328 19.0189 98.91 18.5803C98.7663 18.219 98.5058 17.9163 98.17 17.7203C97.8652 17.5451 97.5214 17.4489 97.17 17.4403V17.0803H97.31C98.0431 17.0625 98.7565 17.3193 99.31 17.8003C99.7933 18.3539 100.057 19.0655 100.05 19.8003C100.091 20.6374 99.7999 21.4567 99.24 22.0803C98.6913 22.5777 97.9805 22.8585 97.24 22.8703L97.22 22.8503ZM101.13 17.4503V17.2303H102.75L103.92 18.5903C103.99 18.7303 104.8 19.6603 106.34 21.4403V18.5003C106.297 18.2391 106.274 17.975 106.27 17.7103L106.19 17.6403C106.12 17.5703 105.98 17.5003 105.61 17.5003C105.568 17.4629 105.516 17.4386 105.46 17.4303V17.2103H107.73V17.4303C107.69 17.4263 107.651 17.4304 107.613 17.4425C107.575 17.4545 107.54 17.4742 107.51 17.5003C107.14 17.5703 107 17.5703 106.93 17.6403C106.911 17.6403 106.894 17.6477 106.88 17.6608C106.867 17.6739 106.86 17.6917 106.86 17.7103C106.852 17.786 106.824 17.8582 106.78 17.9203V20.9203C106.762 21.5381 106.788 22.1564 106.86 22.7703L106.56 22.8503L104.87 20.8503L102.67 18.2803V20.5603C102.67 21.5603 102.75 22.1303 102.75 22.2103C102.75 22.2903 102.75 22.2803 102.81 22.3403C102.87 22.4003 103.04 22.4203 103.4 22.4903H103.63V22.7703C103.263 22.7168 102.891 22.6934 102.52 22.7003C102.129 22.6986 101.738 22.7219 101.35 22.7703V22.4903H101.5C101.87 22.4203 102.01 22.3403 102.08 22.3403C102.15 22.3403 102.16 22.2803 102.16 22.2103C102.16 22.1403 102.23 21.6303 102.23 20.8503V17.7903C102.16 17.7103 102.16 17.6403 102.08 17.6403C102 17.6403 101.79 17.5703 101.35 17.5003C101.28 17.5003 101.2 17.4303 101.13 17.4303V17.4503ZM97.24 17.0703V17.4303C96.8436 17.4252 96.4567 17.5518 96.14 17.7903C95.8169 17.9969 95.5601 18.2919 95.4 18.6403C95.256 19.0515 95.1849 19.4847 95.19 19.9203C95.1434 20.6096 95.3496 21.2922 95.77 21.8403C95.9499 22.0528 96.1756 22.2217 96.4303 22.3343C96.6849 22.4469 96.9618 22.5002 97.24 22.4903V22.8503H97.07C96.7055 22.869 96.341 22.815 95.9976 22.6914C95.6542 22.5678 95.3389 22.377 95.07 22.1303C94.5509 21.5433 94.2692 20.7839 94.28 20.0003C94.2657 19.6109 94.3382 19.2232 94.4921 18.8652C94.646 18.5072 94.8776 18.1879 95.17 17.9303C95.707 17.407 96.4205 17.1037 97.17 17.0803L97.24 17.0703ZM80.79 21.0003V20.6503H81.79L80.79 18.2903V17.2103L80.86 17.0703H81.07C81.44 18.0003 81.88 19.0703 82.4 20.2103L83.35 22.2103L83.5 22.3403C83.6895 22.404 83.8834 22.4541 84.08 22.4903V22.7703C83.7122 22.7196 83.3412 22.6962 82.97 22.7003C82.5756 22.698 82.1814 22.7214 81.79 22.7703V22.4903C81.9979 22.5079 82.2057 22.4551 82.38 22.3403C82.4183 22.3069 82.4432 22.2607 82.45 22.2103C82.4089 22.1188 82.3852 22.0205 82.38 21.9203L81.97 21.0003H80.79ZM84.67 18.7203H84.38C84.45 18.2903 84.45 17.8003 84.53 17.2203H89.37C89.3747 17.7233 89.4215 18.2251 89.51 18.7203H89.22C89.07 18.2903 89 18.0103 88.93 17.8603C88.9237 17.8238 88.9056 17.7904 88.8785 17.7651C88.8514 17.7399 88.8168 17.7241 88.78 17.7203C88.71 17.6503 88.56 17.6503 88.27 17.6503H87.27V22.1403C87.27 22.2203 87.34 22.2903 87.34 22.3503C87.34 22.4103 87.64 22.4303 88 22.5003H88.23V22.7803C87.742 22.7255 87.251 22.7021 86.76 22.7103C86.3654 22.6987 85.9705 22.7222 85.58 22.7803V22.5003H85.81C86.0066 22.4641 86.2005 22.414 86.39 22.3503C86.46 22.2903 86.46 22.2903 86.46 22.2203V21.3503C86.5195 20.7388 86.5462 20.1246 86.54 19.5103C86.5566 18.8892 86.5299 18.2677 86.46 17.6503H85.41C85.26 17.6503 85.19 17.6503 85.11 17.7203C85.0173 17.8006 84.9423 17.8994 84.89 18.0103C84.8476 18.2555 84.7737 18.4941 84.67 18.7203V18.7203ZM93.1 17.2203V17.4403C93.0241 17.4396 92.9502 17.4642 92.89 17.5103C92.6608 17.4867 92.4299 17.5357 92.23 17.6503C92.1873 17.7662 92.1604 17.8873 92.15 18.0103V22.0103C92.1571 22.1306 92.1842 22.2489 92.23 22.3603C92.31 22.4403 92.52 22.4403 92.82 22.5103H93.1V22.7903C92.6892 22.7338 92.2745 22.7103 91.86 22.7203C91.3956 22.7106 90.9311 22.734 90.47 22.7903V22.5103H90.69C90.8897 22.4731 91.0868 22.423 91.28 22.3603C91.3319 22.304 91.372 22.2378 91.3978 22.1656C91.4236 22.0934 91.4345 22.0168 91.43 21.9403L91.35 21.7203L91.43 20.3003C91.4756 19.4895 91.4488 18.6763 91.35 17.8703C91.3538 17.8324 91.3496 17.794 91.3375 17.7578C91.3254 17.7216 91.3058 17.6884 91.28 17.6603C91.28 17.5903 91.05 17.5903 90.69 17.5203C90.62 17.5203 90.54 17.4503 90.47 17.4503V17.2303H93.1V17.2203ZM80.79 17.2203V18.2903L79.79 20.6503H80.79V21.0003H79.61L79.17 22.0003C79.1269 22.0911 79.1031 22.1899 79.1 22.2903V22.3503C79.17 22.4303 79.31 22.4303 79.61 22.5003H79.76V22.7803C79.4288 22.7326 79.0946 22.7092 78.76 22.7103C78.4651 22.7039 78.1702 22.7273 77.88 22.7803V22.5003C78.0604 22.4972 78.2366 22.4454 78.39 22.3503C78.4847 22.276 78.5602 22.18 78.61 22.0703C78.76 21.8503 79.13 21.0003 79.72 19.6503L80.79 17.2203ZM67.14 20.6403V19.8503C67.3776 19.816 67.6018 19.7194 67.79 19.5703C67.9142 19.45 68.0121 19.3052 68.0775 19.1452C68.1429 18.9851 68.1744 18.8132 68.17 18.6403C68.1819 18.505 68.1609 18.3688 68.1086 18.2434C68.0564 18.118 67.9745 18.0071 67.87 17.9203C67.7734 17.827 67.6589 17.7541 67.5335 17.706C67.4081 17.6579 67.2742 17.6356 67.14 17.6403V17.2103H67.35C67.7985 17.1854 68.2423 17.3122 68.61 17.5703C68.8472 17.849 68.9751 18.2044 68.97 18.5703C68.9632 18.8131 68.9159 19.0531 68.83 19.2803C68.6874 19.5228 68.4795 19.7203 68.23 19.8503C68.0248 19.9709 67.8068 20.0682 67.58 20.1403L68.9 21.7803C69.04 21.9903 69.19 22.1303 69.19 22.2103C69.2989 22.2294 69.4017 22.2739 69.49 22.3403C69.7367 22.3721 69.9807 22.4222 70.22 22.4903V22.7703C69.9294 22.7199 69.6349 22.6965 69.34 22.7003C69.0947 22.692 68.8493 22.7155 68.61 22.7703C68.4829 22.5029 68.3358 22.2455 68.17 22.0003C67.94 21.7103 67.79 21.5703 67.79 21.5003C67.7714 21.5003 67.7536 21.4929 67.7405 21.4798C67.7274 21.4667 67.72 21.4489 67.72 21.4303L67.14 20.6403ZM70.8 17.4303V17.2103H72.49L73.59 18.5703C73.74 18.7103 74.59 19.6403 76.01 21.4203V18.5003C76.0086 18.2355 75.9852 17.9713 75.94 17.7103C75.94 17.6917 75.9326 17.6739 75.9195 17.6608C75.9064 17.6477 75.8886 17.6403 75.87 17.6403C75.6976 17.5218 75.4872 17.4719 75.28 17.5003C75.2379 17.4629 75.1857 17.4386 75.13 17.4303V17.2103H77.4V17.4303C77.33 17.4303 77.26 17.4303 77.26 17.5003C77.0343 17.514 76.8118 17.5612 76.6 17.6403L76.52 17.7103V17.9203C76.5167 18.2813 76.4934 18.6419 76.45 19.0003V20.9303C76.4339 21.5478 76.4573 22.1658 76.52 22.7803L76.23 22.8603L74.55 20.8603L72.34 18.2903L72.42 20.5703V22.2203C72.42 22.2903 72.49 22.2903 72.49 22.3503C72.49 22.4103 72.78 22.4303 73.08 22.5003H73.3V22.7803C72.969 22.7305 72.6347 22.7071 72.3 22.7103C71.8822 22.7062 71.4647 22.7296 71.05 22.7803V22.5003H71.27C71.4459 22.4597 71.6195 22.4097 71.79 22.3503C71.86 22.2903 71.86 22.2903 71.86 22.2203C71.9412 21.7718 71.9647 21.3148 71.93 20.8603V17.7903C71.9301 17.7522 71.9157 17.7155 71.8897 17.6876C71.8637 17.6598 71.828 17.6429 71.79 17.6403C71.79 17.5703 71.49 17.5703 71.05 17.5003C70.98 17.5003 70.91 17.4303 70.83 17.4303H70.8ZM43.87 17.2103V17.4303C43.7938 17.427 43.719 17.4519 43.66 17.5003C43.4276 17.4772 43.1937 17.5261 42.99 17.6403C42.9693 17.7591 42.9626 17.8799 42.97 18.0003V22.0003C42.9759 22.1198 42.9995 22.2377 43.04 22.3503C43.12 22.4303 43.34 22.4303 43.63 22.5003H43.92V22.7803C43.5058 22.724 43.0879 22.7006 42.67 22.7103C42.2056 22.7004 41.7411 22.7238 41.28 22.7803V22.5003H41.5C41.697 22.4659 41.891 22.4157 42.08 22.3503C42.134 22.2954 42.1754 22.2294 42.2013 22.1569C42.2272 22.0843 42.237 22.007 42.23 21.9303V17.8503C42.16 17.7903 42.16 17.7103 42.08 17.6403C42 17.5703 41.87 17.5703 41.5 17.5003C41.43 17.5003 41.35 17.4303 41.28 17.4303V17.2103H43.87ZM67.14 17.2103V17.6403H66.14V19.8503H67.14V20.6403L66.77 20.2103C66.5477 20.2218 66.325 20.1982 66.11 20.1403V22.1403C66.11 22.2203 66.11 22.2903 66.18 22.2903C66.3638 22.3921 66.5632 22.4631 66.77 22.5003H66.97V22.7803C66.5558 22.724 66.1379 22.7006 65.72 22.7103C65.2822 22.6984 64.8441 22.7219 64.41 22.7803V22.5003H64.55C64.91 22.4303 65.14 22.3503 65.21 22.3503C65.28 22.3503 65.28 22.2203 65.28 22.0703V17.7103L65.21 17.6403C65.0029 17.5457 64.7776 17.498 64.55 17.5003C64.55 17.4303 64.48 17.4303 64.41 17.4303V17.2103H67.12H67.14ZM44.68 17.4303V17.2103H46.36L47.47 18.5703C47.61 18.7103 48.47 19.6403 49.89 21.4203V18.5003C49.8883 18.235 49.8616 17.9705 49.81 17.7103C49.81 17.6917 49.8026 17.6739 49.7895 17.6608C49.7764 17.6477 49.7586 17.6403 49.74 17.6403C49.67 17.5703 49.52 17.5003 49.15 17.5003C49.1125 17.462 49.0632 17.4373 49.01 17.4303V17.2103H51.28V17.4303C51.21 17.4303 51.14 17.4303 51.14 17.5003C50.9109 17.5133 50.6851 17.5605 50.47 17.6403L50.4 17.7103V17.9203C50.3967 18.2813 50.3734 18.6419 50.33 19.0003V20.9303C50.3139 21.5478 50.3373 22.1658 50.4 22.7803L50.11 22.8603L48.42 20.8603L46.22 18.2903L46.3 20.5703V22.2203C46.3 22.2903 46.36 22.2903 46.36 22.3503C46.36 22.4103 46.66 22.4303 46.95 22.5003H47.18V22.7803C46.849 22.731 46.5146 22.7076 46.18 22.7103C45.7622 22.706 45.3447 22.7293 44.93 22.7803V22.5003H45.15C45.3224 22.4589 45.4926 22.4088 45.66 22.3503C45.74 22.2903 45.74 22.2903 45.74 22.2203C45.8212 21.7718 45.8447 21.3148 45.81 20.8603V17.7903C45.81 17.7505 45.7942 17.7124 45.7661 17.6842C45.7379 17.6561 45.6998 17.6403 45.66 17.6403C45.66 17.5703 45.37 17.5703 44.93 17.5003C44.86 17.5003 44.78 17.4303 44.71 17.4303H44.68ZM52.56 18.7103H52.26C52.26 18.2803 52.34 17.7903 52.34 17.2103H57.26C57.26 17.7903 57.33 18.2803 57.33 18.7103H56.97C56.8641 18.4336 56.7935 18.1447 56.76 17.8503C56.68 17.7903 56.61 17.7103 56.53 17.7103C56.45 17.7103 56.31 17.6403 56.02 17.6403H55.17C55.17 18.3503 55.1 19.2103 55.1 20.2103C55.1 21.2103 55.17 21.8403 55.17 22.1303C55.164 22.1684 55.1672 22.2073 55.1793 22.2439C55.1915 22.2804 55.2123 22.3135 55.24 22.3403C55.4586 22.4094 55.6828 22.4596 55.91 22.4903H56.05V22.7703C55.5888 22.7156 55.1244 22.6923 54.66 22.7003C54.2421 22.6887 53.824 22.7121 53.41 22.7703V22.4903H53.63C54 22.4203 54.22 22.3403 54.29 22.3403V22.2103C54.37 22.2103 54.37 21.9203 54.37 21.3403V17.6403H53.19C53.05 17.6403 52.97 17.6403 52.89 17.7103C52.8474 17.7459 52.8128 17.7902 52.7887 17.8402C52.7645 17.8902 52.7513 17.9448 52.75 18.0003C52.6329 18.2212 52.5583 18.462 52.53 18.7103H52.56ZM59.94 19.6403H61.55C61.63 19.5703 61.7 19.5703 61.7 19.5003C61.758 19.4297 61.8011 19.3482 61.8269 19.2606C61.8527 19.173 61.8605 19.081 61.85 18.9903C61.92 18.9203 61.92 18.9203 61.92 18.8503H62.21C62.1167 19.5137 62.1167 20.1869 62.21 20.8503H61.97C61.9387 20.6339 61.8919 20.42 61.83 20.2103C61.8257 20.172 61.8085 20.1363 61.7813 20.109C61.754 20.0818 61.7183 20.0646 61.68 20.0603C61.4852 20.0231 61.2881 19.9997 61.09 19.9903H59.97V22.3403H61.81C61.9547 22.3313 62.0984 22.3113 62.24 22.2803C62.3565 22.2641 62.465 22.2116 62.55 22.1303C62.62 22.0603 62.76 21.7803 62.99 21.4203C62.9928 21.3651 63.0139 21.3123 63.05 21.2703H63.35C63.14 21.7568 62.9662 22.2582 62.83 22.7703C61.88 22.7003 60.93 22.7003 60.12 22.7003C59.5059 22.6912 58.8917 22.7146 58.28 22.7703V22.4903L58.94 22.4203C59.02 22.3403 59.09 22.3403 59.09 22.2803C59.09 22.2203 59.16 22.1303 59.16 21.9903V21.9203L59.24 20.9903V19.9203C59.263 19.3724 59.2362 18.8234 59.16 18.2803V17.7103C59.16 17.6917 59.1526 17.6739 59.1395 17.6608C59.1264 17.6477 59.1086 17.6403 59.09 17.6403C59.02 17.5703 58.94 17.5703 58.73 17.5003L58.28 17.4303V17.2103H62.83C62.8188 17.6651 62.8455 18.12 62.91 18.5703H62.62C62.5943 18.3169 62.5159 18.0717 62.39 17.8503C62.32 17.7103 62.24 17.7103 62.24 17.6403H59.97V19.6403H59.94Z" fill="#1D2974"/>
<path d="M38.05 17.0703H0V22.7003H38.05V17.0703Z" fill="#D61518"/>
</g>
<defs>
<clipPath id="clip0_24_1101">
<rect width="119.95" height="40" fill="white"/>
</clipPath>
</defs>
</svg>
