<svg id="图层_1" data-name="图层 1" xmlns="http://www.w3.org/2000/svg" viewBox="0 0 84 40"><defs><style>.cls-1{fill:#5e666e;}.cls-2{fill:#3380d7;}</style></defs><rect class="cls-1" x="20.12" y="23.49" width="2.28" height="8.14"/><path class="cls-1" d="M28.21,25.12H25.77a1.63,1.63,0,0,0-1.63,1.63v.06h0v1.86h0a2,2,0,0,0,2,2h3.42a1.21,1.21,0,0,0-1.22-1.22H26.58a1.22,1.22,0,0,1-1.22-1.22h0V26.85a.51.51,0,0,1,.51-.51h2.34a.41.41,0,0,1,.4.41h0v.06h0a.5.5,0,0,1-.5.51h-.72a1.22,1.22,0,0,0-1.22,1.22h2A1.64,1.64,0,0,0,29.84,27v-.24A1.64,1.64,0,0,0,28.21,25.12Z"/><polygon class="cls-1" points="22.8 20.81 23.41 20.81 24.02 21.86 26.37 21.86 25.76 20.81 26.99 20.81 26.99 19.58 23.37 19.58 23.64 19.01 21.39 19.01 20.06 21.86 22.31 21.86 22.8 20.81"/><polygon class="cls-1" points="30.29 19.58 30.56 19.01 28.32 19.01 26.99 21.86 29.23 21.86 29.72 20.81 30.34 20.81 30.94 21.86 33.29 21.86 32.69 20.81 33.91 20.81 33.91 19.58 30.29 19.58"/><polygon class="cls-1" points="24.87 22.47 22.71 22.47 23.42 24.42 25.58 24.42 24.87 22.47"/><path class="cls-1" d="M26.14,24.42h5.43V29.5h0a.51.51,0,0,1-.49.5h-.44l-.76,1.63h2.75a1.22,1.22,0,0,0,1.22-1.22h0V22.79H26.14Z"/><rect class="cls-1" x="36.35" y="30" width="4.67" height="1.63"/><polygon class="cls-1" points="44.71 23.98 44.69 23.93 42.34 23.93 44.05 28.63 44.07 28.68 46.42 28.68 44.71 23.98"/><polygon class="cls-1" points="38.84 19.01 36.35 24.87 38.38 24.87 36.43 29.27 37.61 29.27 41.02 29.27 41.02 27.64 39.34 27.64 41.1 23.48 39.25 23.48 41.15 19.01 38.84 19.01"/><path class="cls-1" d="M44.57,20.49,45.2,19H42.89l-1.32,3.11h6.34V29.5h0a.51.51,0,0,1-.49.5H45.26l-.76,1.63H49a1.22,1.22,0,0,0,1.22-1.22h0V20.49Z"/><polygon class="cls-1" points="60.44 27.73 58.16 27.73 58.16 29.2 52.64 29.98 52.64 31.63 59.31 30.69 66.48 31.59 66.48 29.94 60.44 29.18 60.44 27.73"/><path class="cls-1" d="M66.48,19.46H62.43V19H60.15v.45H58.28l.07-.45h-2.3l-.08.45H52.64V20.6h3.15l-.09.61H52.64v2.9h2.6l-.19,1.17h2.31l.19-1.17h2.6v1.17h2.28V24.11H64.2v.1a.51.51,0,0,1-.51.51h-.4l-.45,1.14H52.64v3.25h2.28V27h8.53a.51.51,0,0,1,.51.51v1.6h2.28V27.55h0a1.63,1.63,0,0,0-1.45-1.62h.06a1.63,1.63,0,0,0,1.63-1.63h0V23H62.43v-.61h2.43a1.63,1.63,0,0,0,1.62-1.63h0ZM55.42,23h-.71v-.61h.81Zm4.73,0H57.73l.09-.61h2.33Zm0-1.76H58l.1-.61h2Zm4.26-.5a.51.51,0,0,1-.51.51H62.43V20.6l2,0Z"/><path class="cls-1" d="M72.29,23.89V21.8h.77V20.17h-.77V19H70.22v1.16H69V21.8h1.26v4.46l-1.29,2.9h1.29v.74h0a.52.52,0,0,1-.5.51h-.23l-.36,1.22h1.94a1.22,1.22,0,0,0,1.22-1.22h0v-4l1.12-2.5Z"/><polygon class="cls-1" points="79.23 27.15 82.36 27.15 82.36 25.52 73.81 25.52 73.81 27.15 76.95 27.15 76.95 30 73.4 30 73.4 31.63 82.77 31.63 82.77 30 79.23 30 79.23 27.15"/><polygon class="cls-1" points="77.48 22.55 74.96 22.55 73.7 25.03 76.21 25.03 77.48 22.55"/><polygon class="cls-1" points="81.21 22.55 78.69 22.55 79.96 25.03 82.47 25.03 81.21 22.55"/><path class="cls-1" d="M81.14,19.93h-2l-.33-.76H76.31l.33.76H73.38v2.28h2.08v-1h4.73a.5.5,0,0,1,.5.5h0v.47h2.08v-.65A1.63,1.63,0,0,0,81.14,19.93Z"/><path class="cls-2" d="M3.84,24.8A13.43,13.43,0,0,1,14.26,10.29l.06,0h.07l.07,0,.13,0h-.36c-.29,0-.57,0-.86.06A13.43,13.43,0,1,0,16.18,37c.31,0,.63-.07.94-.13h0l.22,0h-.33A13.44,13.44,0,0,1,3.84,24.8Z"/><path class="cls-2" d="M59.38,15.21A11.39,11.39,0,0,0,42,8.69,12.62,12.62,0,0,0,19.42,7.16l-.19.35c-.07.12-.13.25-.19.37l.09-.14.08-.11.06-.08A12.6,12.6,0,0,1,41,9.67c.06.13.12.25.17.38l.12.3.12.33.1.27a10.56,10.56,0,0,1,1-.75h0a11.42,11.42,0,0,1,16.84,5.31l0,.1,0,.09.06.18a.69.69,0,0,1,.05.13l-.06-.3-.06-.25Z"/><rect class="cls-1" x="20.06" y="36.86" width="11.4" height="0.24"/><rect class="cls-1" x="71.37" y="36.86" width="11.4" height="0.24"/><path class="cls-1" d="M37.3,37.64a.09.09,0,0,1,.07,0l.18.19a1.29,1.29,0,0,1-.44.36,1.41,1.41,0,0,1-.61.13,1.27,1.27,0,0,1-1-.46,1.51,1.51,0,0,1-.27-.52,2.33,2.33,0,0,1,0-1.35,1.75,1.75,0,0,1,.29-.52,1.34,1.34,0,0,1,.45-.34,1.4,1.4,0,0,1,.58-.12,1.35,1.35,0,0,1,.55.11,1.12,1.12,0,0,1,.41.3l-.14.21,0,0-.06,0a.14.14,0,0,1-.09-.05L37,35.57l-.2-.1a.87.87,0,0,0-.3,0,.8.8,0,0,0-.39.08.93.93,0,0,0-.31.25,1.14,1.14,0,0,0-.19.4,1.79,1.79,0,0,0-.07.53,1.81,1.81,0,0,0,.07.54,1.36,1.36,0,0,0,.2.4,1,1,0,0,0,.3.25.81.81,0,0,0,.38.08h.22l.18-.06a.6.6,0,0,0,.15-.09.87.87,0,0,0,.15-.13A.11.11,0,0,1,37.3,37.64Z"/><path class="cls-1" d="M39.42,34.81v3.5H39v-3.5Z"/><path class="cls-1" d="M42.09,35.87a1.42,1.42,0,0,1,.48.08,1,1,0,0,1,.36.25,1.26,1.26,0,0,1,.23.39,1.72,1.72,0,0,1,.08.52,1.6,1.6,0,0,1-.08.51,1.26,1.26,0,0,1-.23.39,1,1,0,0,1-.36.25,1.21,1.21,0,0,1-.48.09,1.19,1.19,0,0,1-.47-.09,1,1,0,0,1-.37-.25,1.26,1.26,0,0,1-.23-.39,1.6,1.6,0,0,1-.08-.51,1.72,1.72,0,0,1,.08-.52,1.26,1.26,0,0,1,.23-.39,1,1,0,0,1,.37-.25A1.4,1.4,0,0,1,42.09,35.87Zm0,2.14A.75.75,0,0,0,42.4,38a.55.55,0,0,0,.22-.18.73.73,0,0,0,.13-.28,1.48,1.48,0,0,0,0-.38,1.43,1.43,0,0,0,0-.38.78.78,0,0,0-.13-.29.71.71,0,0,0-.84-.17.72.72,0,0,0-.22.17,1,1,0,0,0-.13.29,2,2,0,0,0,0,.38,2.11,2.11,0,0,0,0,.38.91.91,0,0,0,.13.28.63.63,0,0,0,.22.18A.75.75,0,0,0,42.09,38Z"/><path class="cls-1" d="M45.14,35.9v1.54a.66.66,0,0,0,.12.42.47.47,0,0,0,.37.15.7.7,0,0,0,.35-.09,1.28,1.28,0,0,0,.29-.24V35.9h.44v2.41h-.26a.11.11,0,0,1-.08,0,.08.08,0,0,1,0-.07l0-.25a1.49,1.49,0,0,1-.35.27.9.9,0,0,1-.44.11.78.78,0,0,1-.35-.07.64.64,0,0,1-.25-.18.89.89,0,0,1-.15-.29,1.44,1.44,0,0,1,0-.37V35.9Z"/><path class="cls-1" d="M50.07,38.31a.11.11,0,0,1-.08,0,.08.08,0,0,1,0-.07l-.05-.28a1.17,1.17,0,0,1-.34.29.85.85,0,0,1-.46.12.76.76,0,0,1-.65-.32,1,1,0,0,1-.18-.38,1.74,1.74,0,0,1-.07-.53,2,2,0,0,1,.07-.5,1.27,1.27,0,0,1,.21-.4.9.9,0,0,1,.32-.26.88.88,0,0,1,.43-.1,1.07,1.07,0,0,1,.38.07.9.9,0,0,1,.27.21V34.81h.44v3.5ZM49.26,38a.6.6,0,0,0,.35-.1,1,1,0,0,0,.28-.26V36.47a.61.61,0,0,0-.25-.21.6.6,0,0,0-.3-.07.57.57,0,0,0-.5.24,1.13,1.13,0,0,0-.18.69,1.64,1.64,0,0,0,0,.4.85.85,0,0,0,.12.27A.46.46,0,0,0,49,38,.71.71,0,0,0,49.26,38Z"/><path class="cls-1" d="M52,39.13V35.9h.26l.07,0a.16.16,0,0,1,0,.07l0,.28a1.43,1.43,0,0,1,.35-.3.94.94,0,0,1,.45-.11.92.92,0,0,1,.38.08.71.71,0,0,1,.28.24,1.23,1.23,0,0,1,.19.38,2.09,2.09,0,0,1,.06.53,1.63,1.63,0,0,1-.07.5,1.39,1.39,0,0,1-.21.4,1,1,0,0,1-.32.26,1.05,1.05,0,0,1-.44.1.84.84,0,0,1-.37-.08,1,1,0,0,1-.28-.2v1.06Zm1.07-2.92a.74.74,0,0,0-.36.09,1,1,0,0,0-.28.27v1.16a.72.72,0,0,0,.25.22A.75.75,0,0,0,53,38a.6.6,0,0,0,.51-.24,1.18,1.18,0,0,0,.17-.68,1.54,1.54,0,0,0,0-.4.65.65,0,0,0-.12-.28.43.43,0,0,0-.18-.15A.55.55,0,0,0,53.08,36.21Z"/><path class="cls-1" d="M56.61,35.87a1.05,1.05,0,0,1,.4.07.85.85,0,0,1,.32.21.93.93,0,0,1,.21.33,1.34,1.34,0,0,1,.08.46.41.41,0,0,1,0,.14.1.1,0,0,1-.08,0H55.91a1.25,1.25,0,0,0,.06.4.84.84,0,0,0,.15.28.77.77,0,0,0,.55.22,1,1,0,0,0,.27,0,.76.76,0,0,0,.2-.08l.14-.08.1,0h0s0,0,0,0l.12.15a.63.63,0,0,1-.19.17,1,1,0,0,1-.23.12,1.22,1.22,0,0,1-.26.06,1.24,1.24,0,0,1-.27,0,1.14,1.14,0,0,1-.46-.09A1.12,1.12,0,0,1,55.8,38a1.27,1.27,0,0,1-.24-.41,1.55,1.55,0,0,1-.08-.55,1.41,1.41,0,0,1,.07-.47,1.21,1.21,0,0,1,.23-.38.93.93,0,0,1,.36-.25A1.16,1.16,0,0,1,56.61,35.87Zm0,.31a.65.65,0,0,0-.48.18.83.83,0,0,0-.22.48h1.31a.75.75,0,0,0,0-.26.72.72,0,0,0-.12-.21.48.48,0,0,0-.2-.14A.66.66,0,0,0,56.62,36.18Z"/><path class="cls-1" d="M59.13,38.31V35.9h.26l.07,0a.16.16,0,0,1,0,.07l0,.26a1.31,1.31,0,0,1,.35-.28,1,1,0,0,1,.79,0,.67.67,0,0,1,.25.19.69.69,0,0,1,.15.28,1.17,1.17,0,0,1,0,.38v1.53h-.43V36.78a.66.66,0,0,0-.12-.42.45.45,0,0,0-.37-.15.73.73,0,0,0-.35.09,1.06,1.06,0,0,0-.29.24v1.77Z"/><path class="cls-1" d="M64.08,36.3s0,.06-.08.06a.11.11,0,0,1-.08,0l-.11-.06-.14-.06-.2,0-.17,0a.57.57,0,0,0-.13.08.28.28,0,0,0-.08.11.28.28,0,0,0,0,.13.22.22,0,0,0,0,.16.34.34,0,0,0,.13.1.75.75,0,0,0,.18.08l.22.08.21.08a.76.76,0,0,1,.19.12.83.83,0,0,1,.13.18.57.57,0,0,1,0,.24.78.78,0,0,1-.06.31.62.62,0,0,1-.17.25.72.72,0,0,1-.27.16,1.06,1.06,0,0,1-.37.06,1.18,1.18,0,0,1-.43-.08,1.23,1.23,0,0,1-.34-.21l.11-.17,0,0h.07l.09,0a2,2,0,0,0,.26.15.69.69,0,0,0,.22,0,.6.6,0,0,0,.2,0,.3.3,0,0,0,.13-.09.2.2,0,0,0,.08-.12.4.4,0,0,0,0-.15.25.25,0,0,0-.05-.16.5.5,0,0,0-.13-.12l-.19-.08-.21-.07L63,37.14a.83.83,0,0,1-.18-.13.46.46,0,0,1-.13-.18.53.53,0,0,1-.05-.26.62.62,0,0,1,.21-.49.72.72,0,0,1,.25-.16,1,1,0,0,1,.35-.05,1.07,1.07,0,0,1,.41.07.85.85,0,0,1,.31.21Z"/><path class="cls-1" d="M66.68,35.87a1,1,0,0,1,.4.07.78.78,0,0,1,.32.21,1,1,0,0,1,.22.33,1.35,1.35,0,0,1,.07.46.26.26,0,0,1,0,.14s0,0-.08,0H66a1.25,1.25,0,0,0,.06.4.85.85,0,0,0,.16.28.63.63,0,0,0,.23.16.81.81,0,0,0,.31.06A1.11,1.11,0,0,0,67,38l.19-.08.14-.08.1,0h0s0,0,0,0l.13.15a.82.82,0,0,1-.2.17,1,1,0,0,1-.23.12,1.1,1.1,0,0,1-.26.06,1.24,1.24,0,0,1-.27,0,1.18,1.18,0,0,1-.46-.09,1,1,0,0,1-.6-.65,1.55,1.55,0,0,1-.09-.55,1.19,1.19,0,0,1,.08-.47,1,1,0,0,1,.22-.38,1,1,0,0,1,.36-.25A1.19,1.19,0,0,1,66.68,35.87Zm0,.31a.65.65,0,0,0-.48.18.83.83,0,0,0-.22.48H67.3a.75.75,0,0,0,0-.26.72.72,0,0,0-.12-.21.52.52,0,0,0-.19-.14A.71.71,0,0,0,66.69,36.18Z"/></svg>