<?xml version="1.0" encoding="UTF-8"?>
<svg width="58px" height="35px" viewBox="0 0 58 35" version="1.1" xmlns="http://www.w3.org/2000/svg" xmlns:xlink="http://www.w3.org/1999/xlink">
    <title>LOGO</title>
    <g id="LOGO" stroke="none" stroke-width="1" fill="none" fill-rule="evenodd">
        <g fill-rule="nonzero">
            <path d="M21.0997891,0.102129285 C21.2812071,0.0995228829 21.434532,0.22612129 21.4723457,0.397025146 L21.4812247,0.472734715 L21.4812247,1.43258801 L27.5751763,1.43258801 C27.6746682,1.43113935 27.7706583,1.46936948 27.8420246,1.53886608 C27.8955492,1.59098853 27.9319337,1.65749528 27.9473816,1.729561 L27.9557101,1.80315284 L27.9557101,3.54209611 C27.9531129,3.72392381 27.8224528,3.87388288 27.6509324,3.90684795 L27.5751763,3.91356475 L21.4812247,3.91356475 L21.4812247,4.70621197 L26.868213,4.70621197 C27.049631,4.70357004 27.2029559,4.83016401 27.2407696,5.00106731 L27.2496486,5.0767768 L27.2496486,6.91875516 C27.2482254,7.01863573 27.2072065,7.11384323 27.1356443,7.18336587 C27.0819727,7.23550785 27.0144298,7.26998727 26.9419742,7.28325469 L26.868213,7.28932 L21.4812247,7.28932 L21.4812247,8.18500231 L28.045884,8.18500231 C28.145376,8.18355365 28.2413661,8.22178377 28.3127323,8.29128038 C28.3662569,8.34340283 28.4026414,8.40990958 28.4180893,8.4819753 L28.4264179,8.55556714 L28.4264179,10.2954142 C28.4249932,10.3951357 28.3840985,10.4902044 28.3127323,10.559701 C28.2592076,10.6118234 28.191832,10.6463585 28.1195164,10.6597572 L28.045884,10.6659791 L11.21132,10.6659791 C11.041244,10.6678536 10.8907815,10.5558555 10.8434106,10.3921226 C10.800176,10.4221917 10.75148,10.4428744 10.700432,10.453204 L10.6224845,10.4608127 L7.88660863,10.4608127 C8.7685093,12.573936 9.82444558,13.7299175 11.028267,15.0811235 C11.0730412,15.1315368 11.1028221,15.1929766 11.1149716,15.2585112 L11.1211462,15.325154 L11.1211462,18.6846405 C11.1202479,18.8325955 11.0316258,18.9658349 10.8957114,19.0235717 C10.7589483,19.0835159 10.5999787,19.0592462 10.4872237,18.9612084 C9.510415,18.1142192 8.67513706,17.2568502 7.99105536,16.4000003 L7.70716259,16.0328424 L7.70716259,24.0054092 C7.70573796,24.1051307 7.66484321,24.2001994 7.593477,24.269696 C7.53995234,24.3218184 7.47257675,24.3563535 7.40026109,24.369769 L7.32662876,24.3760137 L4.38335291,24.3760137 C4.19951089,24.3760137 4.0453558,24.2493502 4.00968956,24.0802388 L4.00191735,24.0054092 L4.00191735,17.0622896 C3.1227219,18.4930314 2.00186041,19.9111197 0.657367676,21.2921516 C0.550060744,21.403321 0.384140782,21.4385699 0.239862554,21.3825332 C0.120110321,21.3375102 0.0338631182,21.2345907 0.00803284049,21.1125118 L-1.74438242e-12,21.0372753 L-1.74438242e-12,17.5756574 C-1.74438242e-12,17.5001023 0.0236859459,17.4264567 0.0676304193,17.3650682 C1.50786661,15.3388175 2.62619761,13.5159225 3.39781449,10.9507183 L3.53842354,10.4608127 L0.734015485,10.4608127 C0.54938444,10.4608127 0.395821119,10.3341795 0.360315149,10.1650757 L0.35257992,10.0902478 L0.35257992,8.04400691 C0.35560648,7.86217699 0.486632402,7.71252405 0.658239759,7.67997463 L0.734015485,7.67344208 L4.00191735,7.67344208 L4.00191735,6.9151399 C3.94439155,7.00030369 3.85552361,7.05741384 3.75662244,7.07543137 L3.68089829,7.08144216 L1.67543092,7.08144216 C1.51846678,7.08303182 1.37679249,6.98740601 1.31924405,6.84102693 C0.995519773,5.99957362 0.671795499,4.9086669 0.357088614,2.98715267 C0.275932111,2.56416648 0.235353859,2.24060011 0.235353859,2.00741541 C0.235341967,1.90840588 0.275743079,1.8137017 0.347169486,1.74530858 C0.401183636,1.69287122 0.468933261,1.65786748 0.541730155,1.64380404 L0.615887686,1.63685058 L2.73497416,1.63685058 C2.93103338,1.63410579 3.09628711,1.78282274 3.11460625,1.97849328 C3.25099426,3.64543248 3.51316233,4.88479735 3.89485933,6.14004754 L4.00191735,6.48311553 L4.00191735,0.574865998 C4.00494391,0.393036082 4.13596983,0.243383135 4.30757719,0.210833714 L4.38335291,0.204301165 L7.32662876,0.204301165 C7.42612069,0.202852505 7.52211079,0.241082631 7.593477,0.310579233 C7.64700166,0.362701686 7.68338612,0.429208434 7.69883407,0.501274153 L7.70716259,0.574865998 L7.70716259,5.58291413 C7.96776514,4.49743032 8.1868877,3.52582741 8.36092331,2.06706731 C8.38208224,1.90456454 8.50442297,1.7777407 8.6590606,1.74641159 L8.73875192,1.73898186 L10.8578384,1.73898186 C10.9630644,1.73850668 11.0639643,1.78091704 11.1373775,1.85647803 C11.2087608,1.93153998 11.2454061,2.03320257 11.2383722,2.13666119 C11.076961,4.28684104 10.7090515,5.67239198 10.1445629,6.8663338 C10.0905771,6.97645552 9.9881135,7.05262808 9.87045059,7.07426509 L9.79829516,7.08053835 L7.79733648,7.08053835 L7.75200834,7.07843679 L7.75200834,7.07843679 L7.70716259,7.07150018 L7.70716259,7.67344208 L10.6224845,7.67344208 C10.8063266,7.67344208 10.9604816,7.80076725 10.9961479,7.9694385 L11.0039201,8.04400691 L11.0039201,8.24465421 C11.0452215,8.21824917 11.0909734,8.2001087 11.1386581,8.19096794 L11.21132,8.18409849 L17.1871439,8.18409849 L17.1871439,7.28932 L12.1527355,7.28932 C11.9688935,7.28932 11.8154288,7.16268681 11.7799351,6.99358306 L11.7722017,6.91875516 L11.7722017,5.0767768 C11.7736263,4.97705533 11.814521,4.88198664 11.8858872,4.81249004 C11.9394119,4.76036759 12.0067875,4.72583253 12.0791032,4.7124338 L12.1527355,4.70621197 L17.1871439,4.70621197 L17.1871439,3.91266094 L11.9624686,3.91266094 C11.7786266,3.91266094 11.6251619,3.78602775 11.5896682,3.61692401 L11.5819347,3.54209611 L11.5819347,1.80315284 C11.5833594,1.70343137 11.6242541,1.60836268 11.6956203,1.53886608 C11.749145,1.48674363 11.8165206,1.45220857 11.8888363,1.43880985 L11.9624686,1.43258801 L17.1871439,1.43258801 L17.1871439,0.472734715 C17.1901705,0.290904798 17.3211964,0.141251852 17.4928037,0.108675234 L17.5685795,0.102129285 L21.0997891,0.102129285 Z M26.6337609,11.1521918 C26.7332528,11.1507838 26.8292429,11.1890139 26.9006091,11.2585105 C26.9541338,11.3106329 26.9905182,11.3771397 27.0059662,11.4492054 L27.0142947,11.5227972 L27.0142947,20.7317852 C27.0539712,21.8010004 26.7798426,22.6460689 26.2009262,23.2299345 C25.587383,23.8499527 24.6376395,24.1637016 23.3678249,24.1733857 L23.0908286,24.1708076 L20.6299831,24.1708076 C20.4453521,24.1708076 20.2917888,24.0441745 20.2562828,23.8750707 L20.2485476,23.8002428 L20.2485476,21.857037 C20.2499707,21.7571564 20.2909897,21.6619489 20.3625518,21.5924263 C20.4162234,21.5402843 20.4837664,21.5058049 20.5562219,21.4925375 L20.6299831,21.4864722 L21.6895264,21.4864722 C21.7878159,21.4909912 21.859955,21.4937027 21.9293889,21.4937027 C22.3171366,21.4937027 22.592167,21.4195897 22.7238209,21.2794981 C22.8064803,21.1898697 22.84781,21.055678 22.8457226,20.8774462 L22.8392435,20.7652265 L22.8392435,20.3856235 L15.9481546,20.3856235 L15.9481546,24.0045054 C15.94673,24.1042269 15.9058352,24.1992955 15.834469,24.2687921 C15.7809444,24.3209146 15.7135688,24.3554497 15.6412531,24.3688651 L15.5676208,24.3751099 L12.1536372,24.3751099 C11.9690062,24.3751099 11.8154429,24.2491383 11.7799369,24.0795945 L11.7722017,24.0045054 L11.7722017,11.5227972 C11.7752282,11.3409673 11.9062541,11.1913144 12.0778615,11.1587378 L12.1536372,11.1521918 L26.6337609,11.1521918 Z M36.9929376,4.68055628e-06 C37.126631,-0.000655368566 37.2510218,0.0685337269 37.3211706,0.182609565 C37.3895323,0.295627188 37.3909154,0.437027481 37.3247776,0.551366764 C37.2787889,0.632710264 37.2553437,0.706823231 37.2553437,0.78003238 C37.2552812,0.813925985 37.2507328,0.847661494 37.2418176,0.88035603 C37.209355,0.991224208 37.1672738,1.10932292 37.1145054,1.23572335 L37.0272037,1.4316842 L44.4088386,1.4316842 C44.5902566,1.42904227 44.7435814,1.55563624 44.7813952,1.72653954 L44.7902741,1.80224903 L44.7902741,3.54209611 C44.788851,3.64197667 44.747832,3.73718418 44.6762699,3.80670682 C44.6225983,3.8588488 44.5550553,3.89332821 44.4825998,3.90659563 L44.4088386,3.91266094 L40.3167473,3.91266094 L40.3167473,4.46308529 C40.3167473,4.86302416 40.3054756,5.19705974 40.2829321,5.47042243 L40.2680534,5.62720115 L45.1158019,5.62720115 C45.2152938,5.62575249 45.3112839,5.66398262 45.3826501,5.73347922 C45.4361748,5.78560167 45.4725592,5.85210842 45.4880072,5.92417414 L45.4963357,5.99776598 L45.4963357,7.73670924 C45.4949111,7.83643072 45.4540163,7.93149941 45.3826501,8.00099601 C45.3291255,8.05311846 45.2617499,8.08765352 45.1894342,8.10105224 L45.1158019,8.10727408 L40.9109933,8.10727408 C41.8884783,9.29127391 43.029178,10.1462845 44.9129106,10.6542294 C45.0527362,10.6898488 45.1568601,10.802754 45.184368,10.9405231 L45.1915479,11.011237 L45.1915479,12.5847818 L55.0051727,12.5847818 C55.1048195,12.5830908 55.2010419,12.6212133 55.272604,12.690736 C55.3262756,12.7428779 55.3627667,12.8094676 55.3782581,12.8816407 L55.3866082,12.9553467 L55.3866082,20.3214525 C55.4244813,21.4096477 55.1332196,22.2791194 54.5227423,22.8937147 C53.860385,23.5601289 52.8209806,23.9194864 51.4316556,23.9644389 L51.128597,23.9692565 L50.8761101,23.9665451 L33.9324357,23.9665451 C33.7493827,23.9665451 33.5953263,23.8399119 33.5596724,23.6708081 L33.5519019,23.5959802 L33.5519019,12.9553467 C33.5533265,12.8556252 33.5942213,12.7605565 33.6655875,12.6910599 C33.7191122,12.6389374 33.7864877,12.6044024 33.8588034,12.5910037 L33.9324357,12.5847818 L43.1202536,12.5847818 C41.0480576,12.0108582 39.426731,11.1504248 38.2815226,10.0143272 C36.7909481,11.4179545 34.4040452,12.4257101 31.1776233,13.0122871 C31.0658077,13.0330749 30.9512868,13.0032489 30.8638182,12.9336551 C30.7982167,12.8807818 30.7539187,12.8085894 30.7358699,12.7292795 L30.7267539,12.648049 L30.7267539,10.4138142 C30.7283541,10.2453329 30.8426256,10.0989212 31.0053912,10.0568066 C33.163553,9.46717384 34.6166818,9.20545641 35.3390719,8.25511676 L35.4419467,8.10727408 L30.9891599,8.10727408 C30.8061069,8.10727408 30.6520504,7.98064089 30.6163965,7.81153714 L30.6086261,7.73670924 L30.6086261,5.99776598 C30.6100507,5.89804451 30.6509454,5.80297582 30.7223116,5.73347922 C30.7758363,5.68135677 30.8432119,5.64682171 30.9155276,5.63342298 L30.9891599,5.62720115 L36.2057196,5.62720115 C36.2297659,5.46873196 36.2457968,5.30343394 36.2538123,5.13264606 L36.2598239,4.87251424 L36.2598239,3.91266094 L35.2282346,3.91266094 C34.097454,4.65650205 32.6492612,5.13733252 30.9179225,5.3424989 C30.8097138,5.35605615 30.7006034,5.32261493 30.6194469,5.25211723 C30.5579032,5.19924396 30.5166487,5.12908519 30.4998679,5.05269856 L30.4914,4.97464552 L30.4914,3.04680457 C30.4926176,2.88918023 30.5931886,2.74957931 30.7420834,2.69883516 C32.3408665,2.12943066 33.2227672,1.75253911 33.4382828,0.316374432 C33.4642626,0.158350937 33.5856838,0.0369882178 33.7372291,0.00708245994 L33.8152097,4.68055628e-06 L36.9929376,4.68055628e-06 Z M51.0925275,19.5667656 L37.8441792,19.5667656 L37.8441792,21.1791745 L49.9428103,21.1791745 C50.030279,21.1836936 50.092499,21.1855012 50.1520138,21.1855012 C50.4720023,21.1855012 50.7098405,21.1297228 50.8615535,21.0187352 L50.9302145,20.9586432 C51.0453794,20.8370153 51.1029067,20.6436723 51.099957,20.3843059 L51.0934292,20.2491471 L51.0925275,19.5667656 Z M22.83744,17.1119995 L15.9481546,17.1119995 L15.9481546,18.0076818 L22.83744,18.0076818 L22.83744,17.1119995 Z M51.0925275,15.3721524 L37.8459827,15.3721524 L37.8459827,16.9836575 L51.0925275,16.9836575 L51.0925275,15.3721524 Z M22.83744,13.8374717 L15.9481546,13.8374717 L15.9481546,14.6310228 L22.83744,14.6310228 L22.83744,13.8374717 Z M56.8880035,1.43160408 C56.9874955,1.43023553 57.0834856,1.46846566 57.1548518,1.53796226 C57.2083764,1.59008472 57.2447609,1.65659146 57.2602088,1.72865718 L57.2685374,1.80224903 L57.2685374,8.24826948 C57.2685374,9.7748891 56.6265888,11.5872865 53.6134175,11.6841387 L53.3567939,11.6881957 L46.1753451,11.6881957 C45.9915031,11.6881957 45.837348,11.5622545 45.8016818,11.3927183 L45.7939095,11.3176309 L45.7939095,1.80224903 C45.7969361,1.62041911 45.927962,1.47076616 46.0995694,1.43816307 L46.1753451,1.43160408 L56.8880035,1.43160408 Z M53.32884,4.01569604 L49.7354104,4.01569604 L49.7354104,9.10599149 L52.1791229,9.10599149 C52.9357382,9.10599149 53.2841934,8.82637321 53.3247947,8.17851473 L53.32884,8.04400691 L53.32884,4.01569604 Z" id="形状结合" fill="#E93636"></path>
            <path d="M24.9293321,30.8949951 C24.5391939,31.6313339 24.0406841,31.9400474 23.4691659,31.7067972 C22.8908032,31.4746904 22.8326247,30.8995686 23.26383,30.0957701 C23.6676572,29.3331334 24.1661671,29.0369972 24.7239962,29.2816812 C25.2920921,29.5275086 25.3525521,30.0866231 24.9293321,30.8949951 Z M22.1812536,28.9741111 C21.7386407,29.3594313 21.4968007,29.9837186 21.4968007,30.4925241 C21.4968007,31.1259585 21.7591743,31.6679222 22.156157,32.0258012 C22.6147405,32.4385626 23.32429,32.6432282 24.0954403,32.6432282 C24.9293321,32.6432282 25.5567473,32.4259853 26.0267383,32.0143673 C26.4636474,31.6267604 26.7043467,30.9864657 26.7043467,30.4936675 C26.7043467,29.8648067 26.4876032,29.3548577 26.0541164,28.9638206 C25.5784216,28.5567762 24.9293321,28.3486804 24.0954403,28.3486804 C23.26383,28.3486804 22.6432593,28.5602063 22.1812536,28.9741111 Z M30.3490584,28.744291 L30.3490584,31.6724957 C29.3816983,31.9286136 28.7542831,31.6633487 28.7542831,31.2448704 L28.7542831,28.729427 C28.7542831,28.5990813 28.6778526,28.514471 28.5318359,28.514471 L27.0910625,28.514471 L27.0910625,31.175124 C27.0910625,32.5208862 28.8056171,33.1600374 31.7407794,32.3299411 C31.917132,32.2702612 32.0332197,32.1013135 32.0259681,31.914893 L32.0259681,28.514471 L30.5817724,28.514471 C30.434615,28.514471 30.3490584,28.607085 30.3490584,28.744291 Z M4.54176121,28.514471 C4.32844005,28.514471 4.2337574,28.5899343 4.15618607,28.7362873 L3.202515,30.6091492 C3.12836594,30.7623626 2.98919384,30.748642 2.92873384,30.6091492 C2.92873384,30.6091492 2.11309411,28.8826404 2.06746392,28.7991734 C1.97392202,28.6139453 1.82334238,28.514471 1.59062838,28.514471 L0.390554271,28.514471 C0.330094263,28.514471 0.31754596,28.5602063 0.330094263,28.6036549 C0.347205586,28.6505336 2.17241336,32.6077833 2.17241336,32.6077833 L1.23813513,34.4326231 C1.15029701,34.6178512 1.26095023,34.7481969 1.44461176,34.7481969 L2.74849457,34.7481969 C2.74849457,34.7481969 5.83309571,28.7134197 5.86959987,28.6539637 C5.89697799,28.5945078 5.8764444,28.514471 5.78518401,28.514471 L4.54176121,28.514471 Z M7.58871744,31.7067972 C7.01834001,31.4746904 6.95788001,30.8995686 7.38566308,30.0957701 C7.79405332,29.3331334 8.28914093,29.0369972 8.85039232,29.2816812 C9.41848824,29.5275086 9.48351127,30.0866231 9.05116518,30.8949951 C8.66330852,31.6313339 8.16708016,31.9400474 7.58871744,31.7067972 Z M6.30422747,28.9741111 C5.88274449,29.3680867 5.63658642,29.9150836 5.62091531,30.4925241 C5.62091531,31.1259585 5.88442968,31.6679222 6.28255313,32.0258012 C6.74113658,32.4385626 7.44954535,32.6432282 8.21955488,32.6432282 C9.05230593,32.6432282 9.68086186,32.4259853 10.1519936,32.0143673 C10.5866212,31.6267604 10.8273205,30.9864657 10.8273205,30.4936675 C10.8273205,29.8648067 10.6117178,29.3548577 10.1691049,28.9638206 C9.69911394,28.5567762 9.05116518,28.3486804 8.21955488,28.3486804 C7.38680383,28.3486804 6.76623319,28.5602063 6.30422747,28.9741111 Z M21.6690547,28.514471 L20.4347579,28.514471 C20.2180145,28.514471 20.1176281,28.5899343 20.0469013,28.7362873 C20.0149601,28.7900264 19.0920895,30.6091492 19.0920895,30.6091492 C19.0190812,30.7623626 18.875346,30.748642 18.814886,30.6091492 C18.814886,30.6091492 18.0049501,28.8826404 17.9547569,28.7991734 C17.8634965,28.6139453 17.7094946,28.514471 17.4790621,28.514471 L16.283551,28.514471 C16.2208095,28.514471 16.2036982,28.5602063 16.2208095,28.6036549 C16.2344985,28.6505336 18.0642693,32.6077833 18.0642693,32.6077833 C18.0642693,32.6077833 17.1493839,34.3868878 17.1288503,34.4326231 C17.0353084,34.6178512 17.1516654,34.7481969 17.3319047,34.7481969 L18.6369283,34.7481969 C18.6369283,34.7481969 21.7249517,28.7134197 21.7568928,28.6539637 C21.7865524,28.5945078 21.7683004,28.514471 21.6679139,28.514471 L21.6690547,28.514471 Z M11.2151771,29.1353281 L11.2151771,32.5334634 L11.2277255,32.5460406 L11.2277255,32.5346068 L12.6593728,32.5346068 C12.8076709,32.5346068 12.8875238,32.4408493 12.8875238,32.3036433 L12.8875238,29.376582 C13.8628692,29.1181774 14.4902844,29.3903026 14.4902844,29.8019206 L14.4902844,32.3150772 C14.4902844,32.4522832 14.5587296,32.5334634 14.71045,32.5334634 L16.1500827,32.5334634 L16.1500827,29.871667 C16.1500827,28.529335 14.4400911,27.8947572 11.5037881,28.7214234 C11.3255434,28.7766637 11.2065635,28.9470937 11.2151771,29.1353281 Z M55.9441752,29.3274165 L55.9441752,31.3466315 C55.5905412,31.8051282 55.1798695,31.9640585 54.7372566,31.7662532 C54.1714422,31.5192824 54.1087007,30.9658848 54.535343,30.1552261 C54.9095106,29.4417549 55.3909091,29.1307546 55.9441752,29.3274165 Z M55.3646718,32.7015407 C55.5700077,32.7015407 55.7662175,32.6878201 55.9441752,32.6626657 L55.9441752,32.6740995 L57.3701188,32.6740995 C57.5149947,32.6740995 57.5982698,32.586059 57.5982698,32.4499964 L57.5982698,26.3294654 L56.1711855,26.3294654 C56.0285911,26.3294654 55.9430345,26.4209361 55.9430345,26.554712 L55.9430345,28.4492981 C55.7515826,28.420639 55.5582464,28.4064971 55.3646718,28.4069929 C54.535343,28.4069929 53.902224,28.6242358 53.4333738,29.0369972 C52.9976054,29.4223173 52.7569062,30.0614686 52.7569062,30.5542668 C52.7569062,31.1854144 52.9736496,31.69422 53.4105587,32.0898306 C53.8828312,32.4923016 54.535343,32.7015407 55.3646718,32.7015407 Z M39.5572317,32.6752429 L40.9831752,32.6752429 C41.1291919,32.6752429 41.2136077,32.5872024 41.2136077,32.4511398 L41.2136077,26.3306088 L39.7853826,26.3306088 C39.6427883,26.3306088 39.5572317,26.4209361 39.5572317,26.5558553 L39.5572317,32.6638091 L39.5572317,32.6752429 Z M43.6491194,31.7067972 C43.0730382,31.4746904 43.0171412,30.8995686 43.4449242,30.0957701 C43.8498922,29.3331334 44.3484021,29.0369972 44.9050905,29.2816812 C45.4754679,29.5275086 45.5359279,30.0866231 45.1104263,30.8949951 C44.7225697,31.6313339 44.2240598,31.9400474 43.6491194,31.7067972 Z M42.3634886,28.9741111 C41.9208757,29.3594313 41.6790357,29.9837186 41.6790357,30.4925241 C41.6790357,31.1259585 41.9414093,31.6679222 42.338392,32.0258012 C42.799257,32.4385626 43.506525,32.6432282 44.2776753,32.6432282 C45.1104263,32.6432282 45.7389823,32.4259853 46.210114,32.0143673 C46.6458824,31.6267604 46.8854409,30.9864657 46.8854409,30.4936675 C46.8854409,29.8648067 46.666416,29.3548577 46.2363514,28.9638206 C45.7629381,28.5567762 45.1092856,28.3486804 44.2776753,28.3486804 C43.4449242,28.3486804 42.8254943,28.5602063 42.3634886,28.9741111 Z M50.5290119,28.744291 L50.5290119,31.6724957 C49.5639333,31.9286136 48.9365181,31.6633487 48.9365181,31.2448704 L48.9365181,28.729427 C48.9365181,28.5990813 48.8623691,28.514471 48.7140709,28.514471 L47.2732976,28.514471 L47.2732976,31.175124 C47.2732976,32.5208862 48.9889929,33.1600374 51.9252959,32.3299411 C52.0907053,32.2739154 52.2047808,32.1241321 52.2047808,31.914893 L52.2047808,28.514471 L50.7640074,28.514471 C50.61685,28.514471 50.5290119,28.607085 50.5290119,28.744291 Z M38.7837999,31.4895544 C38.7427327,31.4952713 38.7050878,31.5078485 38.6697244,31.5158522 C38.4963751,31.5451629 38.3207653,31.5589379 38.1449772,31.557014 C37.992279,31.5576923 37.8399867,31.5412007 37.6909567,31.5078485 C37.55676,31.4784169 37.4296335,31.4228652 37.3167891,31.3443447 C37.2052503,31.2629539 37.1158312,31.1548534 37.056697,31.0299143 C36.986114,30.8727291 36.952547,30.701378 36.9585921,30.5291124 C36.9585921,30.1472224 37.0669638,29.8785273 37.284848,29.7241705 C37.5050137,29.5698138 37.7799356,29.4932071 38.113036,29.4932071 C38.2020149,29.4932071 38.2864308,29.4943505 38.3674244,29.4977806 C38.4495587,29.5000674 38.52713,29.5069277 38.6126866,29.5172182 C38.6959618,29.528652 38.7769553,29.5400858 38.8704972,29.5263652 C39.0359067,29.5034976 39.0359067,29.3548577 39.0359067,29.3548577 L39.0359067,28.4264305 C38.7873125,28.3660347 38.5330155,28.3323058 38.2773047,28.3258127 C38.1393471,28.3201538 38.0012835,28.3174853 37.8632107,28.3177828 C37.4342869,28.3177828 37.0509932,28.3704047 36.7201743,28.4824562 C36.4124832,28.576485 36.1261044,28.7299089 35.8771565,28.9340927 C35.6524384,29.1230137 35.4747262,29.3618141 35.358113,29.6315565 C35.2385619,29.915403 35.1791284,30.221042 35.1835775,30.5291124 C35.1835775,30.8675539 35.2406153,31.1694071 35.3592538,31.4392455 C35.4756108,31.7067972 35.651287,31.9377607 35.884001,32.1309924 C36.1155743,32.3253676 36.4041852,32.4717207 36.7395672,32.5769119 C37.0817936,32.6798164 37.4696503,32.7301253 37.9145447,32.7301253 C38.1803406,32.7301253 38.4415734,32.7186915 38.7050878,32.6901069 C38.8088965,32.6786731 38.9218312,32.6592355 39.0359067,32.6352245 L39.0359067,31.7033671 C39.0359067,31.7033671 39.0564403,31.4586831 38.7849406,31.4895544 L38.7837999,31.4895544 Z" id="形状" fill="#919398"></path>
        </g>
    </g>
</svg>