<svg width="162" height="32" viewBox="0 0 162 32" fill="none" xmlns="http://www.w3.org/2000/svg">
<path d="M51.2669 10.0358H49.6669C49.5547 10.0344 49.4491 10.0882 49.3842 10.1798L47.9389 12.2651H45.6615C45.6011 12.2659 45.5438 12.2383 45.5069 12.1904C45.473 12.1425 45.473 12.0784 45.5069 12.0304L48.0455 6.32375C48.1096 6.23451 48.1096 6.11432 48.0455 6.02508C47.9791 5.9291 47.8689 5.87297 47.7522 5.87575L46.3015 5.84375C46.1947 5.84696 46.0949 5.89784 46.0295 5.98242L42.9309 13.4811C42.8668 13.5703 42.8668 13.6905 42.9309 13.7797C42.9944 13.8728 43.1009 13.927 43.2135 13.9237L46.9202 13.8544L43.4322 18.7717C43.361 18.8626 43.361 18.9903 43.4322 19.0811C43.4954 19.1676 43.5971 19.2175 43.7042 19.2144H43.7469L50.8935 17.4331C51.049 17.4202 51.1715 17.2954 51.1815 17.1397V15.9184C51.1791 15.8326 51.1354 15.7531 51.0642 15.7051C50.992 15.6478 50.8994 15.6228 50.8082 15.6357L47.7095 16.5158C47.6433 16.5213 47.5782 16.4957 47.5335 16.4464C47.4988 16.3968 47.4988 16.3307 47.5335 16.2811L51.5922 10.4678C51.6508 10.3788 51.6508 10.2634 51.5922 10.1744C51.5188 10.0702 51.3928 10.0165 51.2669 10.0358Z" fill="#EA4335"/>
<path d="M51.1307 19.9756C51.0308 19.93 50.916 19.93 50.8161 19.9756L43.5787 23.3143C43.4653 23.3544 43.3888 23.4607 43.3867 23.581V24.829C43.3881 24.9318 43.4453 25.0258 43.5361 25.0743C43.5924 25.1022 43.6545 25.1168 43.7174 25.117C43.7613 25.127 43.8068 25.127 43.8507 25.117L51.0934 21.7036C51.202 21.6614 51.2753 21.5588 51.2801 21.4423V20.253C51.2897 20.1391 51.2311 20.0303 51.1307 19.9756Z" fill="#EA4335"/>
<path d="M67.4027 13.632H62.5761L61.9947 7.96267L66.9067 7.71734C67.0715 7.71756 67.2076 7.58857 67.2161 7.42401V6.38401C67.215 6.30151 67.178 6.22359 67.1147 6.17067C67.0444 6.11309 66.9548 6.08449 66.8641 6.09067L53.9307 6.90667C53.7679 6.90629 53.6326 7.03222 53.6214 7.19467V22.6987L52.1387 23.2853C52.0242 23.3249 51.9458 23.4309 51.9414 23.552V24.8427C51.945 24.9463 52.0041 25.04 52.0961 25.088C52.1496 25.1183 52.2106 25.1331 52.2721 25.1307C52.3177 25.1412 52.3651 25.1412 52.4107 25.1307L59.7814 21.9307C59.8939 21.8893 59.9699 21.7838 59.9734 21.664V20.368C59.9709 20.264 59.9115 20.1698 59.8187 20.1227C59.7206 20.0772 59.6075 20.0772 59.5094 20.1227L55.5841 21.9573V15.0773H61.3014L65.8774 24.7253C65.932 24.8494 66.0567 24.9276 66.1921 24.9227H67.4027C67.5583 24.9312 67.6966 24.8246 67.7281 24.672V19.4987C67.7417 19.4136 67.7116 19.3275 67.6481 19.2693C67.5831 19.2047 67.4943 19.17 67.4027 19.1733H66.4854C66.3273 19.168 66.189 19.2791 66.1601 19.4347V22.048L63.0454 15.1147H67.4187C67.5017 15.1205 67.5835 15.0927 67.6457 15.0375C67.7079 14.9823 67.7453 14.9044 67.7494 14.8213V13.8987C67.7273 13.7293 67.5721 13.61 67.4027 13.632ZM55.5894 13.632V8.45334C55.595 8.36327 55.6698 8.29316 55.7601 8.29334L60.3521 8.06401L60.9227 13.6427L55.5894 13.632Z" fill="#EA4335"/>
<path d="M99.3343 12.9316H88.065V10.8783H96.9397C97.0824 10.8939 97.2109 10.7915 97.2277 10.6489V6.85693C97.2209 6.78747 97.1867 6.72359 97.1326 6.67951C97.0785 6.63543 97.009 6.61482 96.9397 6.62226H88.065V6.04626C88.065 5.68893 87.9157 5.68359 87.6757 5.68359H86.2463C86.0063 5.68359 85.841 5.68359 85.841 6.05159V6.62226H77.1157C77.0463 6.61482 76.9768 6.63543 76.9227 6.67951C76.8686 6.72359 76.8344 6.78747 76.8277 6.85693V10.6489C76.8444 10.7915 76.973 10.8939 77.1157 10.8783H85.8357V12.9316H74.6357C74.492 12.9191 74.3644 13.023 74.3477 13.1663V14.0889C74.3644 14.2315 74.493 14.3339 74.6357 14.3183H99.3237C99.4655 14.331 99.5923 14.23 99.6117 14.0889V13.1663C99.5927 13.0287 99.4731 12.9276 99.3343 12.9316ZM88.065 7.84359H95.4463C95.4761 7.84063 95.5057 7.84966 95.5288 7.86869C95.5518 7.88772 95.5663 7.91517 95.569 7.94493V9.50226C95.5633 9.56497 95.5092 9.61204 95.4463 9.60893H88.065V7.84359ZM85.841 9.60893H78.6037C78.5725 9.61189 78.5415 9.60229 78.5174 9.58226C78.4934 9.56223 78.4784 9.53343 78.4757 9.50226V7.94493C78.484 7.88214 78.5406 7.83729 78.6037 7.84359H85.8357L85.841 9.60893Z" fill="#EA4335"/>
<path d="M95.8505 21.3195H97.0665C97.2102 21.332 97.3378 21.228 97.3545 21.0848V15.6341C97.3378 15.4909 97.2102 15.3869 97.0665 15.3995H76.9599C76.8162 15.3869 76.6886 15.4909 76.6719 15.6341V21.0955C76.6886 21.2387 76.8162 21.3426 76.9599 21.3301H78.1759C78.3195 21.3426 78.4471 21.2387 78.4639 21.0955V16.8021C78.4722 16.7393 78.5289 16.6945 78.5919 16.7008H95.4399C95.4696 16.6978 95.4993 16.7069 95.5223 16.7259C95.5454 16.7449 95.5598 16.7724 95.5625 16.8021V21.0955C95.5845 21.2344 95.7105 21.3324 95.8505 21.3195Z" fill="#EA4335"/>
<path d="M98.3587 23.3285L88.2841 20.2725C88.2113 20.2485 88.1328 20.2485 88.0601 20.2725V17.7392C88.0408 17.5974 87.9149 17.4948 87.7721 17.5045H86.1241C86.0506 17.5037 85.979 17.5282 85.9214 17.5739C85.867 17.6136 85.8352 17.6772 85.8361 17.7445V19.8779C85.8329 19.9238 85.8007 19.9625 85.7561 19.9739L75.6227 23.2752C75.521 23.3007 75.4476 23.3892 75.4414 23.4939V24.8805C75.4445 24.9649 75.4937 25.0407 75.5694 25.0779C75.6186 25.104 75.6737 25.1169 75.7294 25.1152C75.7647 25.1208 75.8007 25.1208 75.8361 25.1152L87.6974 21.0992V21.7232C87.703 21.8318 87.7825 21.9223 87.8894 21.9419L98.1454 25.1419C98.1772 25.1471 98.2096 25.1471 98.2414 25.1419C98.2994 25.1434 98.3567 25.1287 98.4067 25.0992C98.4767 25.0627 98.5215 24.9914 98.5241 24.9125V23.5632C98.527 23.457 98.4597 23.3616 98.3587 23.3285Z" fill="#EA4335"/>
<path d="M112.684 13.7438C112.62 13.6376 112.503 13.5743 112.38 13.5785H112.065V12.6505H114.465C114.638 12.6629 114.789 12.5351 114.806 12.3625V11.5358C114.792 11.361 114.64 11.2302 114.465 11.2425H112.065V7.6798L114.347 7.55713C114.511 7.55772 114.648 7.43243 114.662 7.26913V6.42647C114.661 6.34273 114.622 6.26403 114.555 6.21313C114.484 6.15778 114.395 6.12945 114.305 6.13313L106.971 6.48513C106.806 6.48172 106.666 6.60777 106.651 6.77313V7.6638C106.656 7.74664 106.695 7.82392 106.758 7.87713C106.826 7.92641 106.909 7.95258 106.993 7.9518L109.91 7.79713V11.2425H106.523C106.351 11.2332 106.202 11.3632 106.188 11.5358V12.3625C106.202 12.5343 106.352 12.6627 106.523 12.6505H109.233L106.438 19.3758C106.4 19.4646 106.419 19.5676 106.486 19.6371C106.555 19.7152 106.654 19.7598 106.758 19.7598H107.873C108.009 19.764 108.135 19.6864 108.193 19.5625L109.91 15.1891V24.8745C109.924 25.0493 110.077 25.1801 110.251 25.1678H111.697C111.872 25.1801 112.024 25.0493 112.038 24.8745V16.0051L113.051 17.8131C113.115 17.9193 113.232 17.9826 113.355 17.9785H114.502C114.615 17.9802 114.721 17.9288 114.79 17.8398C114.846 17.7558 114.846 17.6465 114.79 17.5625L112.684 13.7438Z" fill="#EA4335"/>
<path d="M129.987 16.7991H127.501V6.52709C127.487 6.35525 127.337 6.22682 127.165 6.23909H125.715C125.543 6.22682 125.393 6.35525 125.379 6.52709V16.7991H117C116.827 16.7899 116.678 16.9198 116.664 17.0924V17.9351C116.678 18.1077 116.827 18.2377 117 18.2284H125.4V24.8684C125.414 25.041 125.563 25.171 125.736 25.1618H127.187C127.36 25.171 127.509 25.041 127.523 24.8684V18.2284H130.008C130.183 18.2407 130.335 18.1099 130.349 17.9351V17.0924C130.343 17.0043 130.3 16.9229 130.232 16.8673C130.163 16.8118 130.074 16.7871 129.987 16.7991Z" fill="#EA4335"/>
<path d="M122.108 11.2803C122.171 11.3283 122.248 11.3545 122.327 11.3549C122.377 11.3546 122.426 11.3436 122.471 11.3229C122.587 11.2881 122.667 11.1824 122.668 11.0616V10.0589C122.668 9.97117 122.624 9.88941 122.551 9.84026L118.818 7.1096C118.712 7.03417 118.575 7.01807 118.455 7.06693C118.341 7.10453 118.263 7.20859 118.258 7.32826V8.29893C118.259 8.38669 118.302 8.46846 118.375 8.5176L122.108 11.2803Z" fill="#EA4335"/>
<path d="M122.108 15.2568C122.171 15.3049 122.248 15.3311 122.327 15.3315C122.376 15.3304 122.425 15.3214 122.471 15.3048C122.587 15.2666 122.666 15.1598 122.668 15.0382V14.0355C122.668 13.9477 122.624 13.866 122.551 13.8168L118.818 11.0862C118.712 11.0107 118.575 10.9946 118.455 11.0435C118.34 11.0818 118.261 11.1885 118.258 11.3102V12.2915C118.26 12.3803 118.304 12.4629 118.375 12.5155L122.108 15.2568Z" fill="#EA4335"/>
<path d="M145.161 10.2852H143.027V6.40785C143.013 6.2566 142.88 6.14484 142.729 6.15718H141.129C140.977 6.14484 140.844 6.2566 140.83 6.40785V10.2532L137.129 10.2852C136.977 10.2728 136.844 10.3846 136.83 10.5358V11.4372C136.844 11.5884 136.977 11.7002 137.129 11.6878L140.83 11.6558V15.7305L136.947 17.5385C136.867 17.5773 136.813 17.6571 136.809 17.7465V18.7652C136.814 18.8646 136.876 18.952 136.969 18.9892C137.012 19.0105 137.059 19.0214 137.107 19.0212C137.167 19.0204 137.225 19.0058 137.278 18.9785L140.835 17.3412V23.2078L138.862 21.5598C138.801 21.5084 138.723 21.4801 138.643 21.4798H137.267C137.155 21.4764 137.049 21.5334 136.99 21.6292C136.942 21.7222 136.966 21.8363 137.049 21.9012L140.782 25.0532C140.889 25.1376 141.025 25.1777 141.161 25.1652H142.729C142.802 25.1726 142.876 25.1503 142.933 25.1032C142.99 25.0561 143.026 24.9882 143.033 24.9145V16.5198L145.262 15.4852C145.343 15.4446 145.397 15.3629 145.401 15.2718V14.2692C145.397 14.1703 145.334 14.0834 145.241 14.0505C145.143 14.0028 145.029 14.0028 144.931 14.0505L143.033 14.9038V11.6772H145.166C145.317 11.6895 145.45 11.5778 145.465 11.4265V10.5358C145.458 10.4622 145.422 10.3942 145.365 10.3471C145.308 10.3001 145.234 10.2778 145.161 10.2852Z" fill="#EA4335"/>
<path d="M161.725 23.8024L155.682 20.3197L161.015 17.4237C161.41 17.1784 161.41 17.1784 161.41 16.6077V13.941C161.408 13.4889 161.051 13.1182 160.599 13.0984H155.143C155.107 13.097 155.072 13.081 155.047 13.054C155.022 13.027 155.009 12.9911 155.01 12.9544V10.101C155.01 10.0235 155.071 9.95989 155.149 9.95702H161.367C161.533 9.95702 161.671 9.84502 161.666 9.71702V8.77835C161.659 8.70466 161.623 8.63672 161.566 8.58965C161.509 8.54257 161.436 8.52026 161.362 8.52768H155.143C155.107 8.5263 155.072 8.51034 155.047 8.48333C155.022 8.45632 155.009 8.42047 155.01 8.38368V6.42635C154.999 6.28065 154.879 6.16736 154.733 6.16502H153.133C152.98 6.15255 152.845 6.26363 152.829 6.41568V8.37302C152.83 8.4098 152.817 8.44565 152.792 8.47266C152.767 8.49967 152.732 8.51563 152.695 8.51702H146.999C146.847 8.50455 146.712 8.61563 146.695 8.76768V9.69035C146.712 9.8424 146.847 9.95349 146.999 9.94102H152.69C152.727 9.94241 152.761 9.95836 152.786 9.98537C152.812 10.0124 152.825 10.0482 152.823 10.085V12.9384C152.825 12.9751 152.812 13.011 152.786 13.038C152.761 13.065 152.727 13.081 152.69 13.0824H147.431C147.215 13.091 147.047 13.2717 147.053 13.4877V14.085C147.047 14.301 147.215 14.4817 147.431 14.4904H158.807C158.969 14.4959 159.121 14.5654 159.231 14.6834C159.341 14.8015 159.4 14.9584 159.394 15.1197V15.8237C159.393 16.0931 159.262 16.3456 159.042 16.501L153.879 19.285L147.447 15.5517C147.363 15.5089 147.262 15.5133 147.181 15.5634C147.1 15.6136 147.052 15.7021 147.053 15.797V17.157C147.054 17.2599 147.111 17.3538 147.202 17.4024L152.13 20.2024L147.079 22.9277C146.947 22.984 146.859 23.1099 146.85 23.253V24.517C146.85 24.6357 146.912 24.7458 147.013 24.8078C147.114 24.8698 147.24 24.8748 147.346 24.821L153.949 21.237L161.458 25.5037C161.541 25.5436 161.639 25.5384 161.718 25.4899C161.797 25.4413 161.845 25.3561 161.847 25.2637V24.0264C161.847 23.9357 161.801 23.8513 161.725 23.8024Z" fill="#EA4335"/>
<path d="M15.0362 0.0359441C14.8834 -0.0119814 14.7197 -0.0119814 14.5669 0.0359441L0.26288 4.56394C0.0930315 4.61259 -0.0157704 4.77806 0.00688007 4.95328L0.865547 12.6813V12.7453L5.76688 25.1666C5.7919 25.2216 5.83043 25.2693 5.87888 25.3053L14.2949 31.3213C14.5888 31.5298 14.9823 31.5298 15.2762 31.3213L23.9535 25.1986C23.9999 25.1676 24.0353 25.1228 24.0549 25.0706L28.8549 12.7453C28.8597 12.7242 28.8597 12.7023 28.8549 12.6813L29.6175 4.95328C29.6407 4.78905 29.5512 4.62962 29.3989 4.56394L15.0362 0.0359441ZM7.03621 24.1266L3.26555 14.6973C3.23096 14.6124 3.256 14.5149 3.32721 14.4572C3.39842 14.3995 3.49901 14.3952 3.57488 14.4466L13.9375 20.3133C13.9955 20.3505 14.0298 20.4151 14.0282 20.4839V29.0546C14.0278 29.086 14.0101 29.1146 13.9823 29.1291C13.9544 29.1436 13.9208 29.1416 13.8949 29.1239L7.17488 24.3239C7.11238 24.2724 7.06609 24.2038 7.04155 24.1266H7.03621ZM14.0442 2.16928V7.84394C14.0443 8.1097 13.8748 8.34585 13.6229 8.43061L2.73221 12.0893C2.65979 12.1139 2.58017 12.1048 2.51514 12.0645C2.45012 12.0243 2.40649 11.9571 2.39621 11.8813L1.71888 6.01461C1.69801 5.83857 1.80562 5.67267 1.97488 5.61994L13.7509 1.88661C13.8311 1.87001 13.9144 1.89369 13.974 1.95002C14.0335 2.00636 14.0617 2.08823 14.0495 2.16928H14.0442ZM15.5962 29.0386V20.4359C15.5957 20.3827 15.6217 20.3328 15.6655 20.3026L25.9962 14.5426C26.0879 14.4839 26.2071 14.4911 26.291 14.5604C26.375 14.6298 26.4046 14.7455 26.3642 14.8466L22.8015 24.0359C22.7744 24.1074 22.726 24.1689 22.6629 24.2119L15.7295 29.1079C15.7038 29.1228 15.6722 29.1233 15.6461 29.1091C15.62 29.095 15.6031 29.0683 15.6015 29.0386H15.5962ZM27.2869 11.9719L14.9295 18.9053C14.849 18.9531 14.7488 18.9531 14.6682 18.9053L4.33221 13.4066C4.25071 13.3556 4.20651 13.2617 4.21914 13.1664C4.23177 13.0711 4.29891 12.992 4.39088 12.9639L14.6202 9.71594C14.7382 9.67871 14.8649 9.67871 14.9829 9.71594L22.9829 12.3826C23.2115 12.4386 23.4445 12.3082 23.5162 12.0839L23.7029 11.4493C23.7647 11.2199 23.6321 10.9831 23.4042 10.9159L16.0655 8.40928C15.8055 8.32955 15.628 8.0893 15.6282 7.81728V2.18528C15.6286 2.10532 15.6662 2.03012 15.7301 1.98198C15.7939 1.93384 15.8766 1.91829 15.9535 1.93994L27.7402 5.64661C27.9124 5.69944 28.0223 5.86769 28.0015 6.04661L27.4362 11.7853C27.4232 11.868 27.3689 11.9384 27.2922 11.9719H27.2869Z" fill="#EA4335"/>
</svg>
