<?xml version="1.0" encoding="utf-8"?>
<!-- Generator: Adobe Illustrator 25.0.0, SVG Export Plug-In . SVG Version: 6.00 Build 0)  -->
<svg version="1.1" id="图层_1" xmlns="http://www.w3.org/2000/svg" xmlns:xlink="http://www.w3.org/1999/xlink" x="0px" y="0px"
	 viewBox="0 0 582.36 178.41" style="enable-background:new 0 0 582.36 178.41;" xml:space="preserve">
<style type="text/css">
	.st0{fill-rule:evenodd;clip-rule:evenodd;fill:url(#SVGID_1_);}
	.st1{fill-rule:evenodd;clip-rule:evenodd;fill:#FFFFFF;}
	.st2{fill:#002941;}
	.st3{fill-rule:evenodd;clip-rule:evenodd;fill:#002941;}
	.st4{fill:#666666;}
</style>
<g>
	<linearGradient id="SVGID_1_" gradientUnits="userSpaceOnUse" x1="14.1598" y1="166.454" x2="165.3124" y2="11.5845">
		<stop  offset="0.1326" style="stop-color:#E84709"/>
		<stop  offset="1" style="stop-color:#F19200"/>
	</linearGradient>
	<path class="st0" d="M0.35,0h178.41v178.41H0.35V0z"/>
	<path class="st1" d="M90.15,138.74c15.31-33.86,49.32-57.44,88.86-57.58v5.97c-43.49,0.14-79.89,30.39-89.44,71
		c-7.7-33.76-33.92-60.46-67.42-68.84C62.42,79.49,92.34,43.25,92.48,0h6.33c0,39.95-23.94,74.3-58.25,89.51
		C62.54,99.25,80.25,116.85,90.15,138.74z M0.35,85.33c-0.12,0-0.24,0-0.35,0v-5.97c0.12,0,0.24,0,0.35,0
		c43.83,0,79.36-35.53,79.36-79.36h5.97C85.68,47.13,47.48,85.33,0.35,85.33z M0.65,73.39c-0.22,0-0.43-0.01-0.65-0.01v-4.77
		c0.12,0,0.24,0.01,0.35,0.01c37.57,0,68.02-30.46,68.02-68.02c0-0.2-0.01-0.4-0.02-0.6h5.38c0,0.1,0,0.2,0,0.3
		C73.75,40.67,41.02,73.39,0.65,73.39z M85.08,178.41h-5.97C78.79,134.94,43.52,99.78,0,99.65v-5.97
		C46.81,93.82,84.76,131.64,85.08,178.41z M73.74,178.41h-5.38c-0.32-37.29-30.64-67.43-68.01-67.43c-0.12,0-0.24,0.01-0.35,0.01
		v-5.37c0.22,0,0.43-0.01,0.65-0.01C40.92,105.62,73.58,138.18,73.74,178.41z M179.01,93.69v5.97c-43.47,0.19-78.68,35.32-79,78.76
		h-5.97C94.36,131.68,132.25,93.88,179.01,93.69z M179.01,105.62v5.39c-36.93,0.51-66.74,30.43-67.06,67.4h-5.38
		C106.73,138.4,139.04,105.97,179.01,105.62z"/>
	<path class="st2" d="M576.41,98.13V19h5.95v79.13H576.41z M547.12,22.06h5.95V94.2h-5.95V22.06z M505.24,93.94
		c10.49-9.26,13.12-17.91,13.12-35.55V31.35h0.01c-0.25-3.95-4.27-4.75-4.97-4.86l-50,0.01l-3.58,12.09h20.9
		c6.03,0,11.02,4.98,11.02,11V97.8c0-0.01-4.98,0-11.02,0h-43.19c-6.03,0-11.1-4.98-11.1-11V49.59c0-2.95,0.01-10.03,0.01-11.01
		c0-0.02,8.02,0,11.1,0h16.18l3.58-12.09h-36.17v-5.82c0,0,95.72,0.01,92.14,0.01c0.41,0,0.79,0.02,1.15,0.06
		c2.78,0.21,4.89,1.23,6.73,3.07c2.84,2.84,3.1,6.39,3.11,7.53h0.04v27.04c0,19.74-2.94,29.35-15.01,40L505.24,93.94z M432.44,86.8
		c0,2.8,2.19,5.07,5.07,5.07h43.19c2.8,0,5.07,0.03,5.07,0.01V70.82h-53.34V86.8z M432.48,44.53c-0.02,0-0.03,2.18-0.03,5.07v15.2
		h53.34v-15.2c0-2.88-2.27-5.07-5.07-5.07H432.48z"/>
	<path class="st2" d="M301.96,30.36h9.5v15.28h-9.5v5.51h9.5V86.9h5.34V68.53h7.85v-5.51h-7.85V51.15h7.85v-5.51h-7.85V30.36h7.85
		v-5.51h-7.85V19h-5.34v5.85h-9.5V30.36z"/>
	<path class="st2" d="M371.05,64.5c2.35,7.48,3.78,15.44,4.03,22.48h5.38c-0.19-5.86-1.31-17.29-6.46-30.42l-0.06-0.14l0.06-0.14
		l6.22-14.23v-7.76c0-5.28-0.09-7.5-2.28-9.28c-2.18-1.77-5.31-1.77-9.64-1.77h-11.57v5.51h11.57c6.45,0,6.7,0.21,6.7,5.54
		l-0.03,6.68l-3.92,8.97l-0.31-0.62c-2.04-4.07-4.15-7.57-6.43-10.71h-7.09c4.3,5.06,7.96,11.05,10.87,17.82l0.06,0.14l-0.06,0.14
		l-13.2,30.26h5.71l10.18-23.31L371.05,64.5z"/>
	<path class="st2" d="M351.02,92.84V19h-25.68v5.51h3.9l0.02,58.86l0,0c0,2.29,0.81,3.14,3.21,2.63l0,0l13.23-2.77v9.62h-28.36
		c-8.24,0-9.91-1.11-9.91-6.62v-23.2h-5.33v23.2c0,12.13,9.54,12.13,15.24,12.13h63.16v-5.51H351.02z M345.68,38.61h-8.23v5.51h8.23
		v13.41h-8.23V61l0.01-0.1c0,1.15,0.88,2.07,1.99,2.12h6.23V77.6l-10.26,2.15c-0.59,0.06-0.83-0.19-0.85-0.8V24.51h11.11V38.61z"/>
	<path class="st3" d="M400.97,54.1c2.48,0,4.48,2.01,4.48,4.48c0,2.48-2.01,4.48-4.48,4.48c-2.48,0-4.48-2.01-4.48-4.48
		C396.49,56.11,398.5,54.1,400.97,54.1z"/>
	<path class="st2" d="M211.45,27.43h2.6c0,0-0.05,9.26-0.05,17.13c0,9.91,10.3,10.88,10.3,10.88h2.65v12.87h-14.89v5.95h14.89
		c0,0,0,17.35,0,13.54c0,7.14,7.12,7.48,7.12,7.48l15.82-1.14l-0.79-5.95l-11.48,1.13c0,0-4.72,0.52-4.72-4.95
		c0-4.72,0-10.11,0-10.11h15.32v-5.95h-15.32V55.45h2.45c6.04,0,11.03-4.99,11.03-11.03V34.34h-5.95v10.07
		c0,2.8-2.28,5.04-5.08,5.04h-8.15c0,0-6.73,0.49-6.73-5.07c0-6.43,0-16.96,0-16.96h28.46v-5.95h-37.48V27.43z M253.31,44.59
		l14.97,24.95c-5.25,10.51-11.38,18.48-18.04,25.04l4.2,4.2c6.39-6.3,12.26-13.66,17.51-23.29l13.92,23.12l5.17-3.06l-15.94-26.36
		c4.38-9.63,7.6-17.92,10.49-32.28c0,0,0.43-1.17,0.05-3.4c-0.44-2.59-2.55-5.86-7.86-5.83c-8.81,0.06-17.64,0-17.64,0l1.23-7.71
		l-6.04-0.96l-2.28,14.62h20.17c4.33,0,6.38,2.11,5.41,5.94c-2.44,9.65-4.29,16.18-7.28,23.39l-12.96-21.45L253.31,44.59z"/>
	<g>
		<g>
			<path class="st4" d="M231.11,141.72v-0.15c1.97-0.66,3.13-2.66,3.13-4.74c0-3.97-3.25-5.4-7.76-5.4h-6.8v21.96h7.34
				c4.86,0,8.41-2.09,8.41-6.44C235.43,143.95,233.61,142.25,231.11,141.72z M223.14,134.11h3.04c3.1,0,4.65,0.87,4.65,3.16
				c0,2.06-1.4,3.31-4.74,3.31h-2.95V134.11z M226.63,150.67h-3.49v-7.46h3.49c3.49,0,5.4,1.07,5.4,3.55
				C232.03,149.44,230.06,150.67,226.63,150.67z M263.93,136.55c-3.85,0-7.49,3.31-7.49,8.65c0,5.4,3.55,8.56,8,8.56
				c2.15,0,4.03-0.72,5.55-1.73l-1.19-2.18c-1.19,0.78-2.45,1.22-3.91,1.22c-2.83,0-4.8-1.88-5.07-5.01h10.65
				c0.09-0.39,0.15-1.07,0.15-1.73C270.61,139.69,268.28,136.55,263.93,136.55z M259.78,143.72c0.33-2.89,2.15-4.48,4.21-4.48
				c2.39,0,3.67,1.64,3.67,4.48H259.78z M298.62,143.8c-1.79-0.66-3.49-1.19-3.49-2.6c0-1.13,0.84-2.03,2.63-2.03
				c1.37,0,2.54,0.6,3.67,1.43l1.61-2.12c-1.34-1.04-3.13-1.94-5.34-1.94c-3.61,0-5.82,2.06-5.82,4.8c0,2.77,2.51,3.94,4.68,4.77
				c1.79,0.69,3.64,1.34,3.64,2.83c0,1.25-0.92,2.21-2.89,2.21c-1.76,0-3.19-0.72-4.65-1.88l-1.61,2.21
				c1.58,1.31,3.91,2.27,6.18,2.27c4.06,0,6.24-2.24,6.24-4.98C303.46,145.68,300.92,144.67,298.62,143.8z M334.4,150.76
				c-3.88,0-6.33-3.19-6.33-8.41c0-5.16,2.63-8.32,6.42-8.32c1.79,0,3.16,0.81,4.3,1.97l1.88-2.21c-1.34-1.46-3.49-2.77-6.24-2.77
				c-5.55,0-9.91,4.3-9.91,11.46c0,7.19,4.24,11.31,9.76,11.31c2.83,0,5.07-1.13,6.83-3.16l-1.85-2.18
				C337.95,149.86,336.39,150.76,334.4,150.76z M371.6,136.55c-2.24,0-3.88,1.22-5.31,2.6l0.12-3.25v-6.3h-3.4v23.78h3.4v-11.64
				c1.46-1.46,2.51-2.24,4.03-2.24c1.94,0,2.77,1.13,2.77,3.97v9.91h3.43v-10.32C376.64,138.88,375.09,136.55,371.6,136.55z
				 M406.18,136.55c-2.63,0-4.92,1.07-6.62,2.15l1.28,2.33c1.4-0.9,3.01-1.67,4.74-1.67c2.42,0,3.1,1.67,3.13,3.58
				c-6.83,0.75-9.82,2.57-9.82,6.09c0,2.89,2,4.74,4.83,4.74c1.97,0,3.73-0.98,5.22-2.27h0.09l0.3,1.88h2.8v-9.88
				C412.15,139.15,410.27,136.55,406.18,136.55z M408.71,149.15c-1.34,1.22-2.51,1.91-3.94,1.91c-1.46,0-2.57-0.66-2.57-2.27
				c0-1.85,1.64-3.07,6.5-3.67V149.15z M443.92,136.55c-2.24,0-3.91,1.22-5.43,2.69h-0.09l-0.27-2.27h-2.8v16.41h3.4v-11.64
				c1.46-1.46,2.51-2.24,4.03-2.24c1.94,0,2.77,1.13,2.77,3.97v9.91h3.43v-10.32C448.96,138.88,447.41,136.55,443.92,136.55z
				 M480.86,136.55c-2.24,0-3.91,1.22-5.43,2.69h-0.09l-0.27-2.27h-2.8v16.41h3.4v-11.64c1.46-1.46,2.51-2.24,4.03-2.24
				c1.94,0,2.77,1.13,2.77,3.97v9.91h3.43v-10.32C485.9,138.88,484.35,136.55,480.86,136.55z M515.52,136.55
				c-3.85,0-7.49,3.31-7.49,8.65c0,5.4,3.55,8.56,8,8.56c2.15,0,4.03-0.72,5.55-1.73l-1.19-2.18c-1.19,0.78-2.45,1.22-3.91,1.22
				c-2.83,0-4.8-1.88-5.07-5.01h10.65c0.09-0.39,0.15-1.07,0.15-1.73C522.21,139.69,519.88,136.55,515.52,136.55z M511.38,143.72
				c0.33-2.89,2.15-4.48,4.21-4.48c2.39,0,3.67,1.64,3.67,4.48H511.38z M548.61,150.97c-0.42,0-0.84-0.33-0.84-1.25V129.6h-3.4
				v19.93c0,2.66,0.92,4.24,3.4,4.24c0.84,0,1.43-0.12,1.85-0.27l-0.45-2.6C548.88,150.97,548.76,150.97,548.61,150.97z
				 M577.43,143.8c-1.79-0.66-3.49-1.19-3.49-2.6c0-1.13,0.84-2.03,2.63-2.03c1.37,0,2.54,0.6,3.67,1.43l1.61-2.12
				c-1.34-1.04-3.13-1.94-5.34-1.94c-3.61,0-5.82,2.06-5.82,4.8c0,2.77,2.51,3.94,4.68,4.77c1.79,0.69,3.64,1.34,3.64,2.83
				c0,1.25-0.92,2.21-2.89,2.21c-1.76,0-3.19-0.72-4.65-1.88l-1.61,2.21c1.58,1.31,3.91,2.27,6.18,2.27c4.06,0,6.24-2.24,6.24-4.98
				C582.26,145.68,579.73,144.67,577.43,143.8z"/>
		</g>
	</g>
</g>
</svg>
