<svg width="96" height="36" viewBox="0 0 96 36" fill="none" xmlns="http://www.w3.org/2000/svg">
<path d="M51.7126 12.2729C51.6999 11.7208 51.6825 11.2242 51.6571 10.782C51.6395 10.3991 51.5966 10.0178 51.5286 9.64062C51.8444 9.70483 52.1643 9.74775 52.4859 9.76911C52.7862 9.79359 53.0877 9.79977 53.3888 9.78763C53.4736 9.77505 53.5575 9.8154 53.6006 9.8895C53.6307 9.95664 53.5844 10.0338 53.4617 10.121C53.3875 10.1695 53.3272 10.2365 53.2869 10.3155C53.2509 10.4123 53.2351 10.5156 53.2406 10.6188V12.2752C54.2346 12.2752 55.1062 12.2633 55.8555 12.2393C56.6049 12.2154 57.2859 12.1845 57.8986 12.1467V13.8044C57.2812 13.7426 56.6002 13.6994 55.8555 13.6747C55.1108 13.65 54.2411 13.6369 53.2464 13.6354V15.293H51.7184V13.6354H48.0675V15.5141H46.5766V13.6354C45.6436 13.6485 44.8271 13.667 44.1272 13.6909C43.4272 13.7148 42.7829 13.7534 42.194 13.8067V12.1259C42.7721 12.1761 43.4106 12.21 44.1098 12.2278C44.809 12.2455 45.6312 12.2606 46.5766 12.2729C46.5634 11.8099 46.5449 11.3588 46.521 10.9197C46.5005 10.5221 46.4572 10.1259 46.3913 9.73323C46.6869 9.78185 47.0033 9.8185 47.3405 9.8432C47.6774 9.86866 47.9691 9.88024 48.2145 9.88024C48.3303 9.88024 48.3893 9.91728 48.4078 9.99599C48.4263 10.0747 48.387 10.143 48.2921 10.2171C48.2111 10.2595 48.1464 10.3275 48.108 10.4104C48.0788 10.5087 48.0663 10.6112 48.071 10.7137V12.2787L51.7126 12.2729ZM49.7239 22.9699C48.7098 23.7191 47.6283 24.3725 46.4932 24.9215C45.4169 25.4547 44.293 25.886 43.1363 26.2099C42.8756 25.5755 42.4495 25.0226 41.9023 24.609C43.0749 24.4783 44.2239 24.1869 45.3171 23.7431C46.4683 23.2654 47.5593 22.6539 48.5676 21.9211C47.6631 21.0225 46.8432 20.0425 46.1182 18.9937C45.5454 18.1707 45.0634 17.2881 44.6805 16.3614L46.227 15.9551C46.3465 16.3775 46.5131 16.7852 46.7236 17.1705C46.9698 17.6355 47.2435 18.0854 47.5431 18.5179C47.8623 18.9813 48.2066 19.4268 48.5745 19.8526C48.9322 20.2723 49.3161 20.669 49.7239 21.0402C50.1375 20.6756 50.5243 20.2818 50.8815 19.8618C51.2465 19.4391 51.5796 18.9899 51.8782 18.5179C52.1683 18.0605 52.4267 17.5836 52.6514 17.0907C52.8639 16.6309 53.0366 16.1538 53.1677 15.6645C53.4501 15.8 53.7465 15.925 54.0602 16.0419C54.3455 16.1506 54.6379 16.2399 54.9353 16.3093C55.1066 16.3579 55.198 16.432 55.2108 16.5292C55.2235 16.6265 55.1436 16.7075 54.9723 16.7689C54.8612 16.8059 54.7196 16.9317 54.5475 17.1462C54.3267 17.4428 54.1356 17.7603 53.9768 18.0943C53.6155 18.7981 53.1805 19.4616 52.6792 20.0737C52.1387 20.7495 51.5512 21.3862 50.9209 21.979C51.9126 22.6165 52.9963 23.0979 54.1342 23.4063C55.5304 23.7884 56.9698 23.9895 58.4172 24.0047C58.1128 24.2761 57.852 24.5928 57.644 24.9435C57.4293 25.2814 57.2618 25.6471 57.1462 26.0305C55.7832 25.8183 54.4471 25.4601 53.1607 24.962C51.9198 24.481 50.7612 23.8101 49.7263 22.9734" fill="#001D43"/>
<path d="M74.6533 18.1472C74.2212 17.8256 73.7658 17.5366 73.2908 17.2825C72.8136 17.0324 72.322 16.8109 71.8184 16.6192L72.5546 15.7731C73.0486 15.9127 73.5318 16.088 74.0004 16.2974C74.4789 16.5089 74.943 16.7518 75.3895 17.0244L74.6533 18.1472ZM71.3762 19.0733C70.8243 18.7447 70.3063 18.3624 69.8297 17.9319C69.4141 17.5564 69.0491 17.1283 68.744 16.6586C68.3048 17.0913 67.8373 17.4943 67.3445 17.8648C66.7712 18.2983 66.175 18.7006 65.5584 19.0698L71.3762 19.0733ZM72.4991 23.7313H64.8233V24.6342H72.5002L72.4991 23.7313ZM72.4991 21.8537H64.8233V22.848H72.5002L72.4991 21.8537ZM72.4991 20.0502H64.8233V20.9879H72.5002L72.4991 20.0502ZM73.5675 15.5358C73.0026 15.4748 72.2938 15.4285 71.4411 15.3969C70.5883 15.3652 69.6279 15.3502 68.5599 15.3517C67.4926 15.3517 66.5323 15.3668 65.6787 15.3969C64.8252 15.427 64.1157 15.4725 63.55 15.5334V14.2439C64.1265 14.3057 64.8384 14.352 65.6857 14.3828C66.533 14.4137 67.4903 14.4288 68.5576 14.428C69.6264 14.428 70.5868 14.4095 71.4387 14.3724C72.2907 14.3354 72.9995 14.2868 73.5652 14.2266L73.5675 15.5358ZM64.6751 16.4745C64.8465 16.5359 64.9356 16.6007 64.9425 16.6679C64.9495 16.735 64.8592 16.7998 64.6751 16.8612C64.5978 16.886 64.5236 16.9198 64.454 16.9619C64.316 17.045 64.1837 17.1375 64.0582 17.2385C63.8926 17.367 63.6866 17.5395 63.4412 17.7536C63.1958 17.9678 62.9018 18.2294 62.558 18.5361C62.4004 18.3307 62.2215 18.1425 62.0243 17.9747C61.8284 17.8141 61.6115 17.6809 61.3796 17.5788C61.7238 17.4315 62.0243 17.2871 62.2813 17.1459C62.5134 17.0226 62.7352 16.8809 62.9446 16.7223C63.1113 16.597 63.2709 16.4625 63.4227 16.3194C63.5497 16.1978 63.6659 16.0653 63.7699 15.9235C64.0353 16.1597 64.3407 16.3467 64.6717 16.4757L64.6751 16.4745ZM70.9132 12.628C71.9558 12.628 72.9254 12.6187 73.8221 12.6002C74.7189 12.5817 75.5106 12.5539 76.1975 12.5169V15.2417H74.7459V13.6212H62.5394V15.6839H61.0844V12.5134C61.3792 12.5257 61.6956 12.5381 62.0336 12.5504C62.3716 12.5628 62.764 12.5751 63.2108 12.5875C63.66 12.6006 64.1847 12.6098 64.7851 12.6152C65.3855 12.6206 66.0912 12.6237 66.9023 12.6245V11.1104C66.9023 10.828 66.8907 10.5571 66.8664 10.3001C66.8421 10.0432 66.8166 9.84637 66.7923 9.71094C67.0725 9.76459 67.3553 9.80323 67.6396 9.82669C67.9029 9.85233 68.1681 9.85233 68.4314 9.82669C68.5788 9.81512 68.6645 9.83364 68.6884 9.88226C68.7127 9.93087 68.671 10.005 68.5599 10.1033C68.4771 10.1772 68.4112 10.268 68.3666 10.3696C68.3102 10.4957 68.2713 10.6289 68.2508 10.7655H72.2838C72.7132 10.7655 73.1033 10.7574 73.4529 10.7388C73.8025 10.7203 74.137 10.6925 74.4565 10.6555V11.8709C74.137 11.8339 73.8025 11.8061 73.4529 11.7876C73.1033 11.7691 72.7136 11.7598 72.2838 11.7598H68.2103V12.6257L70.9132 12.628ZM64.8233 26.5059H63.3312C63.3798 26.0279 63.4134 25.5799 63.4319 25.1527C63.4504 24.7256 63.4597 24.2591 63.4597 23.744V20.2459C63.08 20.455 62.6965 20.6545 62.3091 20.8443C61.9225 21.0353 61.5335 21.2217 61.1411 21.4069C61.0035 21.183 60.8487 20.9701 60.6781 20.7702C60.5043 20.5671 60.3134 20.3793 60.1074 20.2088C60.9062 19.9925 61.6903 19.7254 62.4549 19.4089C63.2284 19.0918 63.9808 18.7257 64.7076 18.3127C65.3876 17.93 66.0315 17.4864 66.6314 16.9873C67.1516 16.5648 67.6074 16.0688 67.9846 15.5149C68.5248 15.7464 68.9728 15.8622 69.3285 15.8622C69.4443 15.8622 69.5068 15.9027 69.5311 15.9779C69.5554 16.0532 69.5068 16.1284 69.3841 16.1898C70.2736 17.1867 71.3834 17.9623 72.6252 18.4551C73.8654 18.9459 75.3382 19.2527 77.0436 19.3754C76.8342 19.622 76.6522 19.8905 76.5007 20.1764C76.3608 20.4334 76.2408 20.7008 76.1419 20.9763C75.7368 20.8667 75.3439 20.7509 74.9635 20.629C74.583 20.5071 74.2146 20.3782 73.858 20.2424V23.575C73.858 24.0905 73.8677 24.5535 73.887 24.9641C73.9063 25.3746 73.9398 25.8195 73.9877 26.2987H72.4991V25.5255H64.8233V26.5059Z" fill="#001D43"/>
<path d="M93.9857 24.903C93.8495 24.6372 93.6988 24.379 93.5343 24.1298C93.3444 23.8357 93.1391 23.5413 92.9184 23.2465C92.6962 22.9514 92.4728 22.6793 92.2459 22.427C92.0621 22.2185 91.8619 22.025 91.6474 21.8482L92.8258 21.0009C93.1569 21.4315 93.5428 21.8826 93.9834 22.3541C94.424 22.8256 94.9087 23.3013 95.4373 23.7813L93.9857 24.903ZM91.1497 17.0779H92.7205V14.9804H91.1497V17.0779ZM88.4433 17.0779H89.991V14.9804H88.4433V17.0779ZM89.1807 23.4445C89.1046 22.9947 88.9844 22.5534 88.8219 22.1272C88.6815 21.7432 88.499 21.376 88.2778 21.0321L89.7514 20.6085C89.8613 20.9777 89.9829 21.3262 90.1195 21.6584C90.2561 21.9906 90.4505 22.4015 90.7087 22.8923L89.1807 23.4445ZM92.7691 23.7015C92.6631 24.0634 92.518 24.4128 92.3362 24.7433C92.1895 25.0005 91.9764 25.2135 91.7192 25.3602C91.4045 25.5253 91.0611 25.6286 90.7075 25.6647C90.1696 25.7258 89.6283 25.7533 89.0869 25.7469C88.5491 25.7532 88.0112 25.7316 87.4756 25.682C87.1605 25.6604 86.8519 25.5819 86.5646 25.4505C86.3746 25.3601 86.2289 25.197 86.1606 24.9979C86.0931 24.7684 86.0618 24.5298 86.068 24.2907V22.3807C86.068 22.1723 86.068 21.9883 86.0588 21.8285C86.0519 21.6619 86.0365 21.4958 86.0125 21.3308C86.2543 21.3925 86.5004 21.4358 86.7487 21.4604C86.9751 21.4846 87.2031 21.4908 87.4305 21.479C87.552 21.4662 87.6203 21.4882 87.633 21.5438C87.6458 21.5993 87.5833 21.7116 87.449 21.8841C87.4037 21.9631 87.3753 22.0506 87.3656 22.1411C87.3356 22.2803 87.32 22.4223 87.3193 22.5647V23.9642C87.3149 24.0746 87.3338 24.1847 87.3749 24.2872C87.4274 24.3794 87.5131 24.4481 87.6145 24.4793C87.7896 24.5394 87.9725 24.5737 88.1574 24.5812C88.3966 24.5997 88.7127 24.609 89.1055 24.609C89.5963 24.609 89.9864 24.5928 90.2746 24.5627C90.5114 24.5478 90.7415 24.4785 90.9471 24.3601C91.1093 24.2509 91.2217 24.082 91.2597 23.8901C91.32 23.6115 91.3587 23.3286 91.3754 23.044C91.5308 23.2518 91.7368 23.4164 91.9739 23.522C92.229 23.627 92.4996 23.6892 92.7749 23.7061L92.7691 23.7015ZM85.7601 17.0779H87.3251V14.9804H85.7555L85.7601 17.0779ZM89.2582 12.5866C89.1547 13.0364 89.074 13.4911 89.0163 13.949H90.564C90.9807 13.949 91.3638 13.946 91.7134 13.9398C92.063 13.9336 92.413 13.9213 92.7633 13.9027L94.0065 13.8379C93.9811 14.1945 93.9626 14.5629 93.951 14.9434C93.9394 15.3242 93.9325 15.6865 93.9325 16.0292C93.9325 16.3718 93.9394 16.7353 93.951 17.1161C93.9626 17.497 93.9811 17.8651 94.0065 18.2204L92.8096 18.1556C92.4786 18.1371 92.1475 18.1255 91.8153 18.1186C91.4831 18.1116 91.1208 18.1093 90.7295 18.1093H87.7812C87.3892 18.1093 87.0273 18.1124 86.6954 18.1186C86.3632 18.1255 86.0321 18.1371 85.7011 18.1556L84.5042 18.2204C84.5285 17.8651 84.547 17.4958 84.5597 17.1161C84.5725 16.7364 84.5782 16.373 84.5782 16.0292C84.5782 15.6854 84.5713 15.3242 84.5597 14.9434C84.5482 14.5626 84.5285 14.1945 84.5042 13.8379C84.8595 13.8634 85.1732 13.8819 85.4429 13.8935L86.2255 13.9305C86.4766 13.9433 86.729 13.949 86.9802 13.949H87.8368C87.8854 13.7036 87.9313 13.4675 87.9745 13.2406C88.0177 13.0137 88.0513 12.7957 88.0752 12.5866C87.4988 12.5866 87.0049 12.5928 86.5936 12.6051C86.1822 12.6175 85.8234 12.6267 85.517 12.6329C85.2083 12.6391 84.9352 12.6483 84.6975 12.6607L83.9879 12.6966V11.4082C84.209 11.4337 84.4393 11.4476 84.6824 11.4545C84.9255 11.4615 85.201 11.4696 85.5205 11.4811C85.84 11.4927 86.215 11.5031 86.6433 11.5089C87.0716 11.5147 87.5937 11.5193 88.2083 11.5193C88.233 11.1258 88.245 10.7727 88.2442 10.4602C88.2478 10.1852 88.2234 9.91063 88.1713 9.64062C88.4911 9.7393 88.8171 9.81664 89.1471 9.87214C89.3956 9.92095 89.6487 9.94269 89.9019 9.93696C90.0732 9.92423 90.175 9.95201 90.2063 10.0191C90.2375 10.0863 90.1716 10.1696 90.0118 10.268C89.9169 10.3478 89.8466 10.453 89.8092 10.5713C89.7491 10.7253 89.6565 11.0413 89.5338 11.5205H91.5282C92.073 11.5205 92.5391 11.517 92.9265 11.5101C93.3132 11.5101 93.6454 11.495 93.9209 11.4823C94.1964 11.4696 94.458 11.4591 94.7034 11.4464V12.6977C94.4464 12.6862 94.1755 12.6699 93.8931 12.6526C93.6107 12.6352 93.2657 12.6213 92.8617 12.6155C92.4577 12.6098 91.9658 12.6028 91.3882 12.597C90.8105 12.5912 90.0998 12.5878 89.2525 12.5878L89.2582 12.5866ZM94.4464 20.37C94.1879 20.3569 93.9147 20.3415 93.6269 20.3237C93.3386 20.3052 92.9914 20.2936 92.5851 20.2867L91.1034 20.2681C90.52 20.2627 89.805 20.2597 88.9584 20.2589C88.1119 20.2581 87.4031 20.2612 86.832 20.2681L85.3781 20.2867C84.9788 20.2936 84.6408 20.3052 84.3653 20.3237C84.0898 20.3422 83.8154 20.3573 83.5457 20.37V19.0851C83.8042 19.1106 84.0743 19.1291 84.356 19.1407C84.6384 19.1534 84.9788 19.1615 85.3781 19.1685C85.7775 19.1754 86.2636 19.1812 86.8413 19.187C87.4189 19.1928 88.1296 19.1963 88.977 19.1963H91.1231C91.7049 19.1963 92.1988 19.1932 92.6047 19.187C93.0107 19.1808 93.3545 19.1716 93.6361 19.1592C93.9174 19.1476 94.1883 19.1349 94.4464 19.1222V20.37ZM85.4279 21.8471C85.1694 22.5717 84.9301 23.2743 84.7102 23.955C84.4903 24.6356 84.3244 25.197 84.2125 25.6392L82.666 25.0685C83.039 24.546 83.3447 23.9786 83.5758 23.3797C83.8073 22.8088 83.9829 22.2168 84.1002 21.6121L85.4279 21.8471ZM83.5133 10.9845C83.4668 11.0188 83.4237 11.0576 83.3848 11.1003C83.335 11.1489 83.2471 11.2473 83.1174 11.3943C82.9878 11.5413 82.8107 11.7566 82.5838 12.0391L81.6577 13.1966C81.4853 13.4177 81.3105 13.6481 81.1137 13.8912C80.9169 14.1343 80.7433 14.3611 80.5708 14.5857L80.0927 15.2015C79.9446 15.3925 79.8218 15.5546 79.7235 15.69C79.6121 15.4343 79.4702 15.1929 79.3009 14.9712C79.1329 14.7695 78.9341 14.5957 78.7118 14.4561C79.1007 14.129 79.4666 13.7755 79.8068 13.3981C80.1446 13.0265 80.4611 12.6362 80.7548 12.2289C81.026 11.8544 81.2693 11.4606 81.4829 11.0505C81.6684 10.6999 81.8137 10.3295 81.9159 9.94622C82.1966 10.1046 82.4852 10.2487 82.7806 10.378C83.0062 10.4817 83.2382 10.571 83.4751 10.6454C83.6476 10.6952 83.7298 10.7438 83.724 10.7924C83.7182 10.841 83.6476 10.9081 83.5121 10.995L83.5133 10.9845ZM82.1103 26.2099H80.6055C80.6673 25.6944 80.7101 25.2067 80.734 24.7467C80.7595 24.2837 80.771 23.786 80.771 23.2419V18.7911C80.501 19.1831 80.2525 19.5238 80.0256 19.8132C79.7987 20.1026 79.5749 20.3816 79.3542 20.6501C79.2593 20.3875 79.1392 20.1348 78.9954 19.8954C78.8642 19.6687 78.7064 19.4585 78.5254 19.2692C78.7849 19.0746 79.0308 18.8627 79.2616 18.6348C79.5193 18.3825 79.7647 18.1217 79.9978 17.8523C80.2309 17.583 80.4489 17.3129 80.6518 17.042C80.8544 16.7723 81.0234 16.5258 81.1577 16.3058C81.4664 15.8027 81.7241 15.3397 81.9309 14.9168C82.1423 14.4859 82.321 14.0397 82.4657 13.5821C82.6639 13.7813 82.8805 13.9611 83.1128 14.1192C83.3289 14.2665 83.5621 14.387 83.8073 14.4781C83.9416 14.5278 84.0122 14.5938 84.018 14.6714C84.0238 14.7489 83.9416 14.8161 83.7703 14.8647C83.703 14.8866 83.6405 14.9212 83.5862 14.9665C83.4785 15.0547 83.3796 15.1532 83.291 15.2606C83.1683 15.4018 83.014 15.6013 82.828 15.859C82.642 16.1168 82.4055 16.4482 82.1184 16.8534L82.1103 26.2099Z" fill="#001D43"/>
<path d="M17.9971 0.015625L0.078125 35.9369H3.24751C9.26681 35.9369 16.4205 31.4757 19.5147 25.4286L25.1091 14.2385L17.9971 0.015625Z" fill="url(#paint0_linear_18_681)"/>
<path d="M20.8685 20.5328C19.6207 20.1714 18.3279 19.9894 17.0289 19.9922C12.7853 19.9922 9.62052 21.8617 9.57422 21.8883C12.1208 22.5007 14.892 24.0993 17.5695 27.4712C25.9999 38.0872 35.5799 35.7119 35.5799 35.7119C35.5799 35.7119 32.0053 23.5992 20.8685 20.5328Z" fill="url(#paint1_linear_18_681)"/>
<path d="M20.8685 20.5331C14.8168 18.7701 9.58348 21.8805 9.57422 21.8886L9.67724 21.9152C25.9733 19.4982 22.5724 32.5798 35.5799 35.7121C35.5799 35.7121 32.0053 23.5994 20.8685 20.5331Z" fill="url(#paint2_linear_18_681)"/>
<path d="M21.5716 7.16354L17.9971 0.015625L0.078125 35.9369H3.24751H3.57742L12.9837 17.0815C15.9031 11.4442 18.8479 8.86283 21.5716 7.16354Z" fill="url(#paint3_linear_18_681)"/>
<defs>
<linearGradient id="paint0_linear_18_681" x1="0.078125" y1="17.9763" x2="26.8582" y2="17.9763" gradientUnits="userSpaceOnUse">
<stop stop-color="#0054B9"/>
<stop offset="0.59" stop-color="#0054B9"/>
<stop offset="0.67" stop-color="#0256BD"/>
<stop offset="0.75" stop-color="#085EC9"/>
<stop offset="0.84" stop-color="#126ADD"/>
<stop offset="0.92" stop-color="#1F7CFA"/>
<stop offset="0.93" stop-color="#227FFF"/>
</linearGradient>
<linearGradient id="paint1_linear_18_681" x1="9.57422" y1="27.9655" x2="35.5799" y2="27.9655" gradientUnits="userSpaceOnUse">
<stop offset="0.06" stop-color="#0054B9"/>
<stop offset="0.16" stop-color="#0D64D3"/>
<stop offset="0.27" stop-color="#1873EB"/>
<stop offset="0.38" stop-color="#207CFA"/>
<stop offset="0.47" stop-color="#227FFF"/>
</linearGradient>
<linearGradient id="paint2_linear_18_681" x1="9.57422" y1="27.8523" x2="35.5799" y2="27.8523" gradientUnits="userSpaceOnUse">
<stop offset="0.06" stop-color="#0054B9"/>
<stop offset="0.39" stop-color="#0275EE"/>
<stop offset="0.71" stop-color="#0264F6"/>
<stop offset="1" stop-color="#025BFA"/>
</linearGradient>
<linearGradient id="paint3_linear_18_681" x1="8.00384" y1="37.4221" x2="23.3057" y2="6.59909" gradientUnits="userSpaceOnUse">
<stop offset="0.29" stop-color="#005BCC"/>
<stop offset="0.64" stop-color="#227FFF"/>
</linearGradient>
</defs>
</svg>
