<svg xmlns="http://www.w3.org/2000/svg" xmlns:xlink="http://www.w3.org/1999/xlink" viewBox="0 0 402.23 192.83"><defs><style>.cls-1,.cls-3,.cls-5{fill:#262626;}.cls-1,.cls-2{clip-rule:evenodd;}.cls-10,.cls-2,.cls-8{fill:#ffdb41;}.cls-3,.cls-8{fill-rule:evenodd;}.cls-4{clip-path:url(#clip-path);}.cls-6{clip-path:url(#clip-path-2);}.cls-7{clip-path:url(#clip-path-3);}.cls-9{clip-path:url(#clip-path-4);}.cls-11{clip-path:url(#clip-path-5);}</style><clipPath id="clip-path" transform="translate(28.79 28.79)"><path class="cls-1" d="M15.3,28,60.11,0V17a32.55,32.55,0,0,1-15.3,27.61L0,72.63v-17A32.58,32.58,0,0,1,15.3,28Z"/></clipPath><clipPath id="clip-path-2" transform="translate(28.79 28.79)"><path class="cls-1" d="M38.13,88.42,16.49,76.62A11.15,11.15,0,0,0,0,86.41a31.66,31.66,0,0,0,16.49,27.78L55.1,135.25V117A32.57,32.57,0,0,0,38.13,88.42Z"/></clipPath><clipPath id="clip-path-3" transform="translate(28.79 28.79)"><path class="cls-1" d="M77.08,88.42l21.64-11.8a11.15,11.15,0,0,1,16.49,9.79,31.64,31.64,0,0,1-16.49,27.78L60.11,135.25V117A32.57,32.57,0,0,1,77.08,88.42Z"/></clipPath><clipPath id="clip-path-4" transform="translate(28.79 28.79)"><path class="cls-2" d="M85.23,17.27l21.29,14.34a20.07,20.07,0,0,1,8.84,16.62v24.4L94.07,58.29a20,20,0,0,1-8.84-16.62Z"/></clipPath><clipPath id="clip-path-5" transform="translate(28.79 28.79)"><path class="cls-1" d="M283.64,15.05H269.8v2.52h13.84Zm0,11.33H269.8v2.51h13.84ZM179.17,6.21v7.58h34V6.21H222v7.58H242.1v2.77a6,6,0,0,1-6,6H222v6.87h-8.81V22.6h-34v6.87h-8.81V22.6H151.48V19.83a6,6,0,0,1,6-6h12.83V6.21Zm104.47,31.5H269.8v2.51h13.84ZM298.75,6.24V9a6,6,0,0,1-6.05,6h-.25V40.22h6.3V43a6.05,6.05,0,0,1-6.05,6h-.25v2.51h-8.81V49H254.69V47.78A7.56,7.56,0,0,1,261,40.33V15.05h-6.29V12.28a6,6,0,0,1,6-6Zm41.53,0a5,5,0,0,1,5,5V17.6a12.1,12.1,0,0,1-3.54,8.54L330.12,37.8l11.55,13.76h-8.75a6,6,0,0,1-4.63-2.16l-4.46-5.32-6.24,6.26A5.07,5.07,0,0,1,314,51.81H303.54l14.59-14.54L301.7,17.65l8.64,0A6.06,6.06,0,0,1,315,19.77L324.41,31l10.32-10.28a6.06,6.06,0,0,0,1.78-4.28V15.05H301.26V6.24ZM222.43,34A6,6,0,0,1,227.6,37l11.46,19h-6.78a6,6,0,0,1-5.16-2.9l-6.23-10.26H171.44l-6.22,10.25A6,6,0,0,1,160.06,56h-6.79l11.45-19A6,6,0,0,1,169.9,34ZM218.29,50.4v2.76a6,6,0,0,1-6,6.05H171.52V56.44a6,6,0,0,1,6-6ZM279.12,68,269,78.16a6,6,0,0,1-4.27,1.77H254.61l10.21-10.18A6,6,0,0,1,269.08,68Zm66.2-11.39v2.77a6,6,0,0,1-6,6H305V90.82a6,6,0,0,1-6,6.05h-2.77V65.4H254.69V62.63a6,6,0,0,1,6-6Zm-35.7,11.46,8.75,0a6,6,0,0,1,4.6,2.15l5.53,6.59,2.1-2.09A6,6,0,0,1,334.86,73h10L334.22,83.65l11.1,13.22h-8.75a6.07,6.07,0,0,1-4.64-2.17ZM281.16,73l9.94,0L269,95.1a6,6,0,0,1-4.27,1.77H254.69l22.18-22.12A6,6,0,0,1,281.16,73ZM242.1,66.76V68a7.55,7.55,0,0,1-7.55,7.55H179.74l-9.28,12.49h50.42l1.69-2.71a6.07,6.07,0,0,1,5.12-2.82h6.86l-7,11.46a6,6,0,0,1-5.15,2.88H160.29V90a6,6,0,0,1,1.1-3.48l7.67-10.92H151.48V72.8a6,6,0,0,1,6-6Z"/></clipPath></defs><title>资源 31白底</title><g id="图层_2" data-name="图层 2"><g id="图层_1-2" data-name="图层 1"><path class="cls-3" d="M15.3,28,60.11,0V17a32.55,32.55,0,0,1-15.3,27.61L0,72.63v-17A32.58,32.58,0,0,1,15.3,28Z" transform="translate(28.79 28.79)"/><g class="cls-4"><rect class="cls-5" width="117.69" height="130.21"/></g><path class="cls-3" d="M38.13,88.42,16.49,76.62A11.15,11.15,0,0,0,0,86.41a31.66,31.66,0,0,0,16.49,27.78L55.1,135.25V117A32.57,32.57,0,0,0,38.13,88.42Z" transform="translate(28.79 28.79)"/><g class="cls-6"><rect class="cls-5" y="75.26" width="112.68" height="117.57"/></g><path class="cls-3" d="M77.08,88.42l21.64-11.8a11.15,11.15,0,0,1,16.49,9.79,31.64,31.64,0,0,1-16.49,27.78L60.11,135.25V117A32.57,32.57,0,0,1,77.08,88.42Z" transform="translate(28.79 28.79)"/><g class="cls-7"><rect class="cls-5" x="60.11" y="75.26" width="112.68" height="117.57"/></g><path class="cls-8" d="M85.23,17.27l21.29,14.34a20.07,20.07,0,0,1,8.84,16.62v24.4L94.07,58.29a20,20,0,0,1-8.84-16.62Z" transform="translate(28.79 28.79)"/><g class="cls-9"><rect class="cls-10" x="85.23" y="17.27" width="87.71" height="112.94"/></g><path class="cls-3" d="M283.64,15.05H269.8v2.52h13.84Zm0,11.33H269.8v2.51h13.84ZM179.17,6.21v7.58h34V6.21H222v7.58H242.1v2.77a6,6,0,0,1-6,6H222v6.87h-8.81V22.6h-34v6.87h-8.81V22.6H151.48V19.83a6,6,0,0,1,6-6h12.83V6.21Zm104.47,31.5H269.8v2.51h13.84ZM298.75,6.24V9a6,6,0,0,1-6.05,6h-.25V40.22h6.3V43a6.05,6.05,0,0,1-6.05,6h-.25v2.51h-8.81V49H254.69V47.78A7.56,7.56,0,0,1,261,40.33V15.05h-6.29V12.28a6,6,0,0,1,6-6Zm41.53,0a5,5,0,0,1,5,5V17.6a12.1,12.1,0,0,1-3.54,8.54L330.12,37.8l11.55,13.76h-8.75a6,6,0,0,1-4.63-2.16l-4.46-5.32-6.24,6.26A5.07,5.07,0,0,1,314,51.81H303.54l14.59-14.54L301.7,17.65l8.64,0A6.06,6.06,0,0,1,315,19.77L324.41,31l10.32-10.28a6.06,6.06,0,0,0,1.78-4.28V15.05H301.26V6.24ZM222.43,34A6,6,0,0,1,227.6,37l11.46,19h-6.78a6,6,0,0,1-5.16-2.9l-6.23-10.26H171.44l-6.22,10.25A6,6,0,0,1,160.06,56h-6.79l11.45-19A6,6,0,0,1,169.9,34ZM218.29,50.4v2.76a6,6,0,0,1-6,6.05H171.52V56.44a6,6,0,0,1,6-6ZM279.12,68,269,78.16a6,6,0,0,1-4.27,1.77H254.61l10.21-10.18A6,6,0,0,1,269.08,68Zm66.2-11.39v2.77a6,6,0,0,1-6,6H305V90.82a6,6,0,0,1-6,6.05h-2.77V65.4H254.69V62.63a6,6,0,0,1,6-6Zm-35.7,11.46,8.75,0a6,6,0,0,1,4.6,2.15l5.53,6.59,2.1-2.09A6,6,0,0,1,334.86,73h10L334.22,83.65l11.1,13.22h-8.75a6.07,6.07,0,0,1-4.64-2.17ZM281.16,73l9.94,0L269,95.1a6,6,0,0,1-4.27,1.77H254.69l22.18-22.12A6,6,0,0,1,281.16,73ZM242.1,66.76V68a7.55,7.55,0,0,1-7.55,7.55H179.74l-9.28,12.49h50.42l1.69-2.71a6.07,6.07,0,0,1,5.12-2.82h6.86l-7,11.46a6,6,0,0,1-5.15,2.88H160.29V90a6,6,0,0,1,1.1-3.48l7.67-10.92H151.48V72.8a6,6,0,0,1,6-6Z" transform="translate(28.79 28.79)"/><g class="cls-11"><rect class="cls-5" x="152.15" y="6.88" width="250.08" height="146.9"/></g><path class="cls-5" d="M327.64,111a.6.6,0,0,1,.6.69l-.79,6.1a8.92,8.92,0,0,1,2.36-1.36,6.62,6.62,0,0,1,2.26-.37,6.54,6.54,0,0,1,5,2.08,7.32,7.32,0,0,1,2,5.25,8.1,8.1,0,0,1-2.22,5.83,7.24,7.24,0,0,1-5.45,2.36,7.11,7.11,0,0,1-5.26-2.33l-.18,1.76a.61.61,0,0,1-.6.53H323a.6.6,0,0,1-.6-.69l2.44-19.32a.61.61,0,0,1,.6-.53Zm7.87,12.47a4.57,4.57,0,0,0-1.17-3.24,4,4,0,0,0-3-1.26,4.32,4.32,0,0,0-3.36,1.51,5.49,5.49,0,0,0-1.33,3.82,4.39,4.39,0,0,0,1.14,3.16,3.86,3.86,0,0,0,3,1.23,4.39,4.39,0,0,0,3.4-1.53A5.29,5.29,0,0,0,335.51,123.49Z" transform="translate(28.79 28.79)"/><path class="cls-5" d="M322.05,116.45a.61.61,0,0,1,.61.68L320.84,131a.62.62,0,0,1-.61.54H318a.62.62,0,0,1-.61-.69l.12-1.22a6.92,6.92,0,0,1-4.6,1.95,6.21,6.21,0,0,1-4.77-2,7.3,7.3,0,0,1-1.84-5.17,8.6,8.6,0,0,1,2.11-6,7.12,7.12,0,0,1,5.49-2.35,6.42,6.42,0,0,1,2.69.52,8.08,8.08,0,0,1,2.42,1.83l.2-1.45a.61.61,0,0,1,.6-.53Zm-3.67,7a4.54,4.54,0,0,0-1.13-3.19,3.76,3.76,0,0,0-2.9-1.24,4.13,4.13,0,0,0-3.26,1.53,5.62,5.62,0,0,0-1.31,3.77,4.65,4.65,0,0,0,1.1,3.19,3.54,3.54,0,0,0,2.81,1.24,4.29,4.29,0,0,0,3.3-1.56A5.46,5.46,0,0,0,318.38,123.42Z" transform="translate(28.79 28.79)"/><path class="cls-5" d="M305.69,111.05a.61.61,0,0,1,.6.7l-2.53,19.33a.6.6,0,0,1-.6.52h-2.22a.61.61,0,0,1-.6-.7l2.54-19.33a.6.6,0,0,1,.6-.52Z" transform="translate(28.79 28.79)"/><path class="cls-5" d="M297,120l-1.35,11a.62.62,0,0,1-.61.54h-2.23a.61.61,0,0,1-.6-.69l1.34-10.9h-1.27a.6.6,0,0,1-.6-.68l.24-2a.62.62,0,0,1,.61-.54H294l.71-5.22a.6.6,0,0,1,.6-.53h2.22a.61.61,0,0,1,.61.7l-.74,5.05h2.5a.6.6,0,0,1,.6.68l-.24,2a.62.62,0,0,1-.61.53Z" transform="translate(28.79 28.79)"/><path class="cls-5" d="M283.92,116.79a.61.61,0,0,1,.6.69l-.07.59A5.12,5.12,0,0,1,288,116.4a4,4,0,0,1,2.41.79.55.55,0,0,1,.09.8L289,119.9a.68.68,0,0,1-.9.13,2.56,2.56,0,0,0-1.4-.44,2.38,2.38,0,0,0-1.15.27,2.25,2.25,0,0,0-.88.81,5.48,5.48,0,0,0-.61,1.43,15.41,15.41,0,0,0-.37,2.11l-.84,6.85a.62.62,0,0,1-.61.54H280a.61.61,0,0,1-.6-.69l1.66-13.58a.62.62,0,0,1,.61-.54Z" transform="translate(28.79 28.79)"/><path class="cls-5" d="M267.39,125a3.53,3.53,0,0,0,1.13,2.69,4.13,4.13,0,0,0,2.9,1.06,4.35,4.35,0,0,0,3.39-1.4.66.66,0,0,1,.81-.16l1.5.83a.58.58,0,0,1,.18.88,7.54,7.54,0,0,1-2.34,2,7.87,7.87,0,0,1-3.6.74,7.41,7.41,0,0,1-5.46-2,7.33,7.33,0,0,1-2-5.42,8.36,8.36,0,0,1,2.24-5.94,7.33,7.33,0,0,1,5.61-2.38A6.58,6.58,0,0,1,276.9,118a8.36,8.36,0,0,1,1.92,5.77c0,.25,0,.66-.05,1.22Zm7.93-2.79c-.37-2.29-1.62-3.43-3.77-3.43s-3.36,1.14-4,3.43Z" transform="translate(28.79 28.79)"/><path class="cls-5" d="M263.83,116.88a.64.64,0,0,1,.51,1l-8.79,13.44a.59.59,0,0,1-1.07-.15l-4.55-13.44a.64.64,0,0,1,.58-.85h2.27a.62.62,0,0,1,.59.45l2.39,7.58,5.1-7.74a.61.61,0,0,1,.52-.29Z" transform="translate(28.79 28.79)"/><path class="cls-5" d="M239.72,116.79a.61.61,0,0,1,.61.68l-.08.69a6.43,6.43,0,0,1,4.14-1.73,4.87,4.87,0,0,1,3.46,1.21,4.37,4.37,0,0,1,1.26,3.3,24,24,0,0,1-.18,2.7l-.92,7.42a.62.62,0,0,1-.61.54h-2.21a.6.6,0,0,1-.6-.69l1-8c0-.32.06-.61.07-.86s0-.48,0-.68c0-1.34-.71-2-2.15-2a3.39,3.39,0,0,0-2.29.82,3.89,3.89,0,0,0-1.15,1.57,6,6,0,0,0-.35,1.16c-.09.45-.17,1-.25,1.57l-.81,6.6a.6.6,0,0,1-.6.54h-2.23a.6.6,0,0,1-.6-.69l1.66-13.58a.61.61,0,0,1,.6-.54Z" transform="translate(28.79 28.79)"/><path class="cls-5" d="M234.52,123.58a7.67,7.67,0,0,1-2.35,5.71,7.84,7.84,0,0,1-5.75,2.31,8.07,8.07,0,0,1-5.85-2.19,7.39,7.39,0,0,1-2.28-5.56,7.62,7.62,0,0,1,2.36-5.72,8.2,8.2,0,0,1,5.94-2.3A7.82,7.82,0,0,1,232.3,118,7.41,7.41,0,0,1,234.52,123.58Zm-3.49-.17A4.59,4.59,0,0,0,229.8,120a4.3,4.3,0,0,0-3.24-1.29,4.56,4.56,0,0,0-3.44,1.43,5.1,5.1,0,0,0-1.36,3.63,4.92,4.92,0,0,0,1.28,3.54,4.36,4.36,0,0,0,3.32,1.37,4.24,4.24,0,0,0,3.34-1.5A5.44,5.44,0,0,0,231,123.41Z" transform="translate(28.79 28.79)"/><path class="cls-3" d="M207.37,115h0a8.68,8.68,0,0,0-2.08,6,7.2,7.2,0,0,0,1.85,5.37,7.28,7.28,0,0,0,5.38,2,7,7,0,0,0,4.2-1.27.56.56,0,0,1,.88.53l-.31,2.34a.9.9,0,0,1-.6.73,13.64,13.64,0,0,1-4.75.91,9.82,9.82,0,0,1-7.4-3,10.59,10.59,0,0,1-2.72-7.74,11.53,11.53,0,0,1,3.09-8.1h0a9.88,9.88,0,0,1,7.6-3.15,12.73,12.73,0,0,1,6.7,2.15.87.87,0,0,1,.4.87l-.3,2.18a.56.56,0,0,1-.93.33,8.48,8.48,0,0,0-5.78-2.27A6.59,6.59,0,0,0,207.37,115Z" transform="translate(28.79 28.79)"/><path class="cls-5" d="M166.82,111.05a.69.69,0,0,1,.68.78l-.81,6a8.89,8.89,0,0,1,2.35-1.36,6.81,6.81,0,0,1,2.25-.36,6.47,6.47,0,0,1,4.92,2.06,7.23,7.23,0,0,1,1.94,5.21,8,8,0,0,1-2.2,5.78,7.19,7.19,0,0,1-5.42,2.34,7,7,0,0,1-5.22-2.31l-.18,1.7a.69.69,0,0,1-.69.61h-2a.69.69,0,0,1-.69-.77l2.38-19.08a.68.68,0,0,1,.68-.61Zm7.89,12.42a4.54,4.54,0,0,0-1.17-3.22,4,4,0,0,0-3-1.24,4.29,4.29,0,0,0-3.34,1.49,5.45,5.45,0,0,0-1.32,3.79,4.34,4.34,0,0,0,1.14,3.14,3.84,3.84,0,0,0,2.95,1.21,4.36,4.36,0,0,0,3.37-1.51A5.22,5.22,0,0,0,174.71,123.47Z" transform="translate(28.79 28.79)"/><path class="cls-5" d="M193.24,116.48a.69.69,0,0,1,.6,1L182.4,137.85a.71.71,0,0,1-.6.35h-2.35a.69.69,0,0,1-.61-1l4.3-7.84-4.85-11.91a.69.69,0,0,1,.64-1h2.17a.7.7,0,0,1,.64.44l3.45,9,5.1-9a.7.7,0,0,1,.6-.35Z" transform="translate(28.79 28.79)"/></g></g></svg>