<svg width="145" height="34" viewBox="0 0 145 34" fill="none" xmlns="http://www.w3.org/2000/svg">
<g clip-path="url(#clip0_18_576)">
<path d="M33.7002 20.603C32.4002 20.803 31.2001 21.1031 30.1001 21.7031C30.8001 20.3031 31.2998 18.7029 31.2998 17.0029C31.2998 15.3029 30.9001 13.7032 30.1001 12.3032C31.2001 12.9032 32.4002 13.2028 33.7002 13.4028C33.0002 10.4028 31.6001 7.60283 29.6001 5.40283C28.6001 5.90283 27.6002 6.40312 26.7002 7.20312C27.4002 6.30313 28 5.30322 28.5 4.30322C26.2 2.30322 23.4999 0.803125 20.3999 0.203125C20.5999 1.50312 20.9 2.70322 21.5 3.80322C20.1 3.10322 18.4998 2.60303 16.7998 2.60303C15.0998 2.60303 13.5001 3.00322 12.1001 3.80322C12.7001 2.70322 13.0002 1.50312 13.2002 0.203125C10.2002 0.903125 7.4002 2.30322 5.2002 4.30322C5.7002 5.30322 6.2 6.30313 7 7.20312C6.1 6.50313 5.1001 5.90283 4.1001 5.40283C2.1001 7.60283 0.6 10.4028 0 13.4028C1.3 13.2028 2.5001 12.9032 3.6001 12.3032C2.9001 13.7032 2.3999 15.3029 2.3999 17.0029C2.3999 18.7029 2.8001 20.3031 3.6001 21.7031C2.5001 21.1031 1.3 20.803 0 20.603C0.7 23.703 2.1001 26.5031 4.1001 28.7031C5.1001 28.2031 6.1 27.7028 7 26.9028C6.3 27.8028 5.7002 28.8032 5.2002 29.8032C7.4002 31.8032 10.2002 33.3028 13.2002 33.9028C13.0002 32.6028 12.7001 31.4032 12.1001 30.3032C13.5001 31.0032 15.0998 31.5029 16.7998 31.5029C18.4998 31.5029 20.1 31.1032 21.5 30.3032C20.9 31.4032 20.5999 32.6028 20.3999 33.9028C23.4999 33.2028 26.3 31.8032 28.5 29.8032C28 28.8032 27.5002 27.8028 26.7002 26.9028C27.6002 27.6028 28.6001 28.2031 29.6001 28.7031C31.6001 26.5031 33.1002 23.703 33.7002 20.603ZM16.7998 22.2031C13.6998 22.2031 10.9002 23.303 8.7002 25.103C10.5002 22.903 11.6001 20.1029 11.6001 17.0029C11.6001 13.9029 10.5002 11.1028 8.7002 8.90283C10.9002 10.7028 13.6998 11.8032 16.7998 11.8032C19.8998 11.8032 22.6999 10.7028 24.8999 8.90283C23.0999 11.1028 22 13.9029 22 17.0029C22 20.1029 23.0999 22.903 24.8999 25.103C22.6999 23.303 19.8998 22.2031 16.7998 22.2031Z" fill="#00B4A5"/>
<path d="M94.2988 28.708V26.1079C94.6988 26.1079 95.0991 25.8077 95.0991 25.4077V22.0078H97.6992V25.4077C97.7992 27.2077 96.1988 28.708 94.2988 28.708Z" fill="#393A3A"/>
<path d="M107.1 28.7017C105.1 28.7017 103.5 27.1017 103.5 25.2017V22.0015H106.1V25.2017C106.1 25.7017 106.5 26.1016 107.1 26.1016C107.7 26.1016 108.1 25.7017 108.1 25.2017V11.6016H110.7V25.2017C110.7 27.2017 109.1 28.7017 107.1 28.7017Z" fill="#393A3A"/>
<path d="M118.5 10.7031H108V13.0029H118.5V10.7031Z" fill="#393A3A"/>
<path d="M101.899 10.0078H99.2988V12.208H101.899V10.0078Z" fill="#393A3A"/>
<path d="M98.2988 13.2031H95.6992V16.3032H98.2988V13.2031Z" fill="#393A3A"/>
<path d="M105.499 13.2031H102.898V16.3032H105.499V13.2031Z" fill="#393A3A"/>
<path d="M101.899 17.5078H99.2988V28.6079H101.899V17.5078Z" fill="#393A3A"/>
<path d="M116.7 17.5078H114.1V28.6079H116.7V17.5078Z" fill="#393A3A"/>
<path d="M103.299 5.30469H100.699V9.70459H103.299V5.30469Z" fill="#393A3A"/>
<path d="M112.1 5.30469H109.5V9.70459H112.1V5.30469Z" fill="#393A3A"/>
<path d="M118.999 6.40625H93.8984V8.70654H118.999V6.40625Z" fill="#393A3A"/>
<path d="M144.6 6.40625H121V8.70654H144.6V6.40625Z" fill="#393A3A"/>
<path d="M106.699 11.2031H94.3984V13.5029H106.699V11.2031Z" fill="#393A3A"/>
<path d="M107.298 15.9062H93.8984V18.2065H107.298V15.9062Z" fill="#393A3A"/>
<path d="M118.999 15.9062H109.199V18.2065H118.999V15.9062Z" fill="#393A3A"/>
<path d="M106.799 19.3047H94.2988V21.6045H106.799V19.3047Z" fill="#393A3A"/>
<path d="M69.0996 28.7031V25.7031C73.5996 25.7031 78.9995 17.5029 78.9995 14.5029V6.70312H81.9995V14.5029C82.0995 18.7029 75.7996 28.7031 69.0996 28.7031Z" fill="#393A3A"/>
<path d="M92 28.7031C85.3 28.7031 79 18.7029 79 14.5029V6.70312H82V14.5029C82 17.5029 87.4999 25.7031 91.8999 25.7031V28.7031H92Z" fill="#393A3A"/>
<path d="M130.999 28.6064H126.398V26.0063H130.999C131.599 26.0063 131.999 25.6063 131.999 25.0063V5.40625H134.599V25.0063C134.599 27.0063 132.999 28.6064 130.999 28.6064Z" fill="#393A3A"/>
<path d="M142.6 9.40625H123.1V11.7065H142.6V9.40625Z" fill="#393A3A"/>
<path d="M141.199 16.0078H122.199V18.3081H141.199V16.0078Z" fill="#393A3A"/>
<path d="M142.6 12.8047H123.1V15.1045H142.6V12.8047Z" fill="#393A3A"/>
<path d="M125.499 9.40625H122.898V15.0063H125.499V9.40625Z" fill="#393A3A"/>
<path d="M142.899 9.40625H140.299V15.0063H142.899V9.40625Z" fill="#393A3A"/>
<path d="M140.6 26.0015V16.1016H143.2V23.4014C143.3 24.8014 142.1 26.0015 140.6 26.0015Z" fill="#393A3A"/>
<path d="M144.6 19.2031H121V21.5029H144.6V19.2031Z" fill="#393A3A"/>
<path d="M141.199 22.4062H122.199V24.7065H141.199V22.4062Z" fill="#393A3A"/>
<path d="M43.0996 28.708V26.1079C43.4996 26.1079 43.8994 25.8077 43.8994 25.4077V22.0078H46.4995V25.4077C46.4995 27.2077 44.8996 28.708 43.0996 28.708Z" fill="#393A3A"/>
<path d="M55.7988 28.7017C53.7988 28.7017 52.1992 27.1017 52.1992 25.2017V22.0015H54.7988V25.2017C54.7988 25.7017 55.1988 26.1016 55.7988 26.1016C56.3988 26.1016 56.7988 25.7017 56.7988 25.2017V11.6016H59.3989V25.2017C59.3989 27.2017 57.7988 28.7017 55.7988 28.7017Z" fill="#393A3A"/>
<path d="M67.2988 10.7031H56.7988V13.0029H67.2988V10.7031Z" fill="#393A3A"/>
<path d="M50.6001 10.0078H48V12.208H50.6001V10.0078Z" fill="#393A3A"/>
<path d="M46.9985 13.2031H44.3984V16.3032H46.9985V13.2031Z" fill="#393A3A"/>
<path d="M54.2988 13.2031H51.6992V16.3032H54.2988V13.2031Z" fill="#393A3A"/>
<path d="M50.6001 17.5078H48V28.6079H50.6001V17.5078Z" fill="#393A3A"/>
<path d="M65.3989 17.5078H62.7988V28.6079H65.3989V17.5078Z" fill="#393A3A"/>
<path d="M52.1001 5.30469H49.5V9.70459H52.1001V5.30469Z" fill="#393A3A"/>
<path d="M60.7988 5.30469H58.1992V9.70459H60.7988V5.30469Z" fill="#393A3A"/>
<path d="M67.6997 6.40625H42.5996V8.70654H67.6997V6.40625Z" fill="#393A3A"/>
<path d="M55.499 11.2031H43.1992V13.5029H55.499V11.2031Z" fill="#393A3A"/>
<path d="M55.9995 15.9062H42.5996V18.2065H55.9995V15.9062Z" fill="#393A3A"/>
<path d="M67.6987 15.9062H57.8984V18.2065H67.6987V15.9062Z" fill="#393A3A"/>
<path d="M55.5996 19.3047H43.0996V21.6045H55.5996V19.3047Z" fill="#393A3A"/>
</g>
<defs>
<clipPath id="clip0_18_576">
<rect width="144.9" height="34" fill="white"/>
</clipPath>
</defs>
</svg>
