<svg id="图层_1" data-name="图层 1" xmlns="http://www.w3.org/2000/svg" xmlns:xlink="http://www.w3.org/1999/xlink" viewBox="0 0 226 48"><defs><style>.cls-1{fill:#008fd8;}.cls-2{fill:#035198;}.cls-3{fill:#1e7cd1;}.cls-4{fill:#fff;}.cls-5{clip-path:url(#clip-path);}.cls-6,.cls-7{fill:#666;}.cls-7{fill-rule:evenodd;}</style><clipPath id="clip-path"><path class="cls-1" d="M75.66,37.1v6.26A2.39,2.39,0,0,0,78,45.75h25.13V39.48a2.39,2.39,0,0,0-2.39-2.38Z"/></clipPath></defs><rect class="cls-1" x="200.69" y="35.8" width="2.97" height="1.06"/><rect class="cls-1" x="200.69" y="37.67" width="2.97" height="1.04"/><rect class="cls-1" x="200.69" y="33.98" width="2.97" height="1.04"/><path class="cls-1" d="M214.13,26H141.75a5.62,5.62,0,0,0-5.62,5.61V46h78a10,10,0,0,0,0-20Zm-15.5,8v-.81h1.09v-.94l1,0v.91h3v-.94l1,0v.91h1.18V34h-1.18V38.7h1.58v.85h-7.77V38.7h1.29V34Zm-26.08-3,.61.42.68.5.65.52a6.53,6.53,0,0,1,.51.46l-.58.86c-.15-.16-.32-.33-.52-.51s-.4-.36-.61-.54-.43-.35-.65-.51l-.63-.46Zm-.38,3.43.58.39c.21.14.42.29.63.46s.42.33.63.51.41.35.59.53l-.6.9c-.18-.2-.38-.4-.59-.6s-.43-.39-.64-.57l-.62-.51a4.82,4.82,0,0,0-.56-.39Zm-19.08-3.22h5c-.07-.25-.15-.5-.22-.74a4.78,4.78,0,0,0-.23-.6l1-.3c.07.22.16.48.26.78s.19.59.27.86h4.91v2.42H163V32.12h-8.85v1.44h-1.07Zm-10.67,5.72-.53-.44v5.81h-1V36.78a16,16,0,0,1-2,2l-.6-.9a22.56,22.56,0,0,0,2.24-2.25,13,13,0,0,0,1.64-2.41H139v-1h2.1c0-.2-.08-.42-.13-.64s-.11-.44-.16-.65-.1-.41-.15-.59l-.12-.44,1-.14c0,.11.09.26.14.45s.1.41.16.63.11.47.16.71.09.47.13.67h1.15v1A14.87,14.87,0,0,1,142,35.4l.58.43.72.55L144,37a7.07,7.07,0,0,1,.54.51l-.6.87a5.26,5.26,0,0,0-.41-.46l-.51-.52Zm8.68,4.7h-8v-1h3.46V34.87H144V33.81h2.63V29.62l1.11.05v4.14h2.82v1.06H147.7v5.68h3.4Zm13.35.1H152.74v-1H158V38h-3.84v-1H158V35h-4.12V34h9.49v1h-4.28v2h4v1h-4v2.71h5.37Zm-1.7-1.75-.79.68c-.17-.34-.38-.68-.6-1a8.68,8.68,0,0,0-.66-.95l.9-.5c.19.27.39.55.58.85S162.56,39.56,162.75,39.91ZM170,37.5c-.2-.29-.4-.56-.59-.8v5.64h-1V36.49a17.11,17.11,0,0,1-.9,1.76,11.38,11.38,0,0,1-1.07,1.54l-.77-.68.5-.64c.22-.28.47-.63.73-1s.52-.84.78-1.32a9.87,9.87,0,0,0,.67-1.52h-1.94v-1h2V31.77l-1,.15c-.32,0-.62.08-.89.1l-.24-.94c.39,0,.82-.08,1.27-.15s.9-.14,1.34-.22l1.28-.26c.41-.09.77-.19,1.08-.29l.1,1c-.23.07-.52.14-.85.21l-1.08.22v2h1.78v1h-1.78v1.33l.25-.21.35.38c.14.16.28.32.42.5l.4.53c.13.17.22.32.3.44l-.63.68C170.4,38,170.23,37.79,170,37.5Zm6.51,1.08v3.76h-1V38.67l-4.61.44-.08-1,4.69-.43V29.75l1,.06v7.76l2-.2.08,1Zm6.28,2.12a3.65,3.65,0,0,1,0,.65.76.76,0,0,1-.23.4,1.21,1.21,0,0,1-.47.22,5.47,5.47,0,0,1-.77.12l-.69.07-.32-1,.85-.09a2.39,2.39,0,0,0,.36,0,.46.46,0,0,0,.21-.14.53.53,0,0,0,.1-.24,2.22,2.22,0,0,0,0-.41V37.16l-1.1.37-.9.29-.31-1c.28-.07.63-.17,1-.3s.83-.26,1.27-.41V33.23h-1.61v-1h1.61v-2.5l1,.05v2.45h1.33v1h-1.33V35.8l.7-.26a6.11,6.11,0,0,0,.59-.23l.18.91-.63.27-.84.32Zm9.06,1.74a13,13,0,0,1-2.15-1A11.16,11.16,0,0,1,188,40a12.18,12.18,0,0,1-1.76,1.25,15.51,15.51,0,0,1-2.27,1.08l-.68-.95a14,14,0,0,0,2.21-1,11.8,11.8,0,0,0,1.79-1.18,11,11,0,0,1-1.1-1.53,13.64,13.64,0,0,1-.85-1.76l.86-.38a9.85,9.85,0,0,0,1.82,3,8.1,8.1,0,0,0,2.07-3.14h-5.29v-.94h2.76v-2h-3v-1h3v-2l1,0v1.92h3.27v1h-3.27v2h2.64v.94a13.43,13.43,0,0,1-.94,1.91,10.86,10.86,0,0,1-1.53,2,10.59,10.59,0,0,0,3.75,2.09ZM198,38.82c0,.42,0,.77,0,1.06s0,.48,0,.54a2.55,2.55,0,0,1-.09.62,1.07,1.07,0,0,1-.26.41,1.22,1.22,0,0,1-.45.25,3.5,3.5,0,0,1-.65.11l-.52,0-.32-1,.61,0a1.78,1.78,0,0,0,.39-.06.57.57,0,0,0,.24-.14.46.46,0,0,0,.12-.24,1.74,1.74,0,0,0,0-.37c0-.08,0-.23,0-.46s0-.51,0-.82,0-.65,0-1,0-.69,0-1,0-.59,0-.82,0-.38,0-.45h-1.39a21.85,21.85,0,0,1-.14,2.21,12.19,12.19,0,0,1-.31,1.69,9.33,9.33,0,0,1-.48,1.41q-.28.64-.66,1.38l-.9-.37c.24-.44.46-.88.65-1.3a8.5,8.5,0,0,0,.49-1.4,12.4,12.4,0,0,0,.32-1.76c.08-.65.14-1.44.16-2.36,0-.06,0-.19,0-.38s0-.4,0-.63,0-.46,0-.71,0-.45,0-.63h-1.11V31.7H196a4.91,4.91,0,0,0-.15-.51c-.05-.17-.1-.34-.16-.5s-.1-.32-.15-.46-.08-.26-.11-.35l.92-.21c0,.1.09.24.14.4s.12.34.18.52.12.38.17.58l.16.53h1.42v.64a10.64,10.64,0,0,0,1-1.37,7.45,7.45,0,0,0,.72-1.44l.89.31c-.08.19-.16.36-.24.52s-.16.31-.25.46H206v.88h-6c-.13.2-.27.39-.41.59s-.31.4-.5.62l-.73-.54v.28h-2.52v1.89h2.27c0,.07,0,.25,0,.54s0,.65,0,1.07,0,.86,0,1.33S198.05,38.4,198,38.82ZM201,41c-.26.17-.53.34-.82.51l-.84.48-.71.38-.51-.86.7-.33.85-.45c.29-.16.57-.33.83-.5s.49-.32.67-.46l.49.77C201.46,40.66,201.24,40.81,201,41Zm4.83,1.44-.65-.49-.84-.55-.86-.51c-.28-.16-.52-.28-.7-.36l.42-.73a6.81,6.81,0,0,1,.71.36l.86.49.85.53c.27.17.49.32.66.44ZM218.1,38c-.25-.28-.55-.58-.89-.91s-.69-.65-1.05-1-.71-.63-1-.92-.66-.53-.94-.73l.67-.8,1,.76c.37.29.73.59,1.1.9s.71.61,1,.91a10.46,10.46,0,0,1,.81.78Zm1.68-6.25h-5.85V42.24h-1.12V31.71h-5.18v-1h12.15Z"/><path class="cls-1" d="M49.28,31.55a1.3,1.3,0,0,1-2,0,1.25,1.25,0,0,1,.11-1.92,13.72,13.72,0,0,0,2.77-3.52,1.39,1.39,0,0,1,1.92-.64,1.32,1.32,0,0,1,.42,1.92A14.39,14.39,0,0,1,49.28,31.55ZM53.55,8.42c.07-.71.57-1.1,1.49-1.17s1.42.46,1.49,1.17v1h6.83V8.53c.07-.71.56-1.11,1.49-1.18s1.42.47,1.49,1.18v.74h4.37a1.42,1.42,0,0,1,1.39,1.49,1.64,1.64,0,0,1-1.6,1.6h-4a1.46,1.46,0,0,1-1.5,1.5,1.39,1.39,0,0,1-1.59-1.39H56.53q0,.75-.42,1a1.57,1.57,0,0,1,.42.74l.11.43h3.62c.71.07,1.11.53,1.18,1.39S61,17.3,60.26,17.37h-.74l-.32,1.18h.85a1.39,1.39,0,1,1,0,2.77H56.53v.74h3.41a1.5,1.5,0,0,1,0,3H56.53v5.22q.11,4.8-5.33,2.56a1.42,1.42,0,0,1-1-1.81c.43-.93,1-1.24,1.82-1s1.42.42,1.49,0v-5h-4.8a1.33,1.33,0,0,1-1.38-1.49,1.34,1.34,0,0,1,1.38-1.5h4.8v-.74h-5c-.93-.07-1.39-.54-1.39-1.39s.46-1.31,1.39-1.38h2.13l-.32-1.18H49.18A1.31,1.31,0,0,1,47.9,16c0-.86.39-1.32,1.17-1.39h4.58l-.1-.21q-.21-.75.42-1-.42-.11-.42-1h-4.8a1.38,1.38,0,0,1-1.38-1.6,1.45,1.45,0,0,1,1.49-1.49h4.69Zm-.21,9,.31,1.18h2.56l.32-1.18Zm8.42-1.17c-.08-1.28.46-1.88,1.6-1.81s2,0,2.77-.11,2-.25,3.73-.53a1.89,1.89,0,0,1,2.24,1.06,1.54,1.54,0,0,1-1.18,2c-1.91.21-3.94.36-6.07.43v2h6.29a1.6,1.6,0,0,1,0,3.2H69.86v8.74a1.46,1.46,0,0,1-1.49,1.49,1.5,1.5,0,0,1-1.6-1.49V22.49H64.85q-.22,6.07-3,9.59c-.49.64-1.17.71-2,.22s-1-1.32-.64-2A12.78,12.78,0,0,0,57,27.93a1.49,1.49,0,0,1,.11-2c.64-.64,1.24-.67,1.81-.11L60.05,27c.36.42.6.71.75.85a11.66,11.66,0,0,0,1-5.44Z"/><path class="cls-1" d="M82.39,14.81a1.54,1.54,0,0,1,2.13.54,1.47,1.47,0,0,1-.75,2A15.76,15.76,0,0,1,79,19.61c-1,.29-1.68,0-2-.74a1.66,1.66,0,0,1,1.17-2A23.43,23.43,0,0,0,82.39,14.81Zm5.75,9.81a1.35,1.35,0,0,1,2-.42,1.93,1.93,0,0,1,.32,2.23q-3.09,5.66-11.73,6.83a1.34,1.34,0,0,1-1.49-1.39,1.55,1.55,0,0,1,1.49-1.49A11.85,11.85,0,0,0,88.14,24.62ZM79.29,11.51A1.71,1.71,0,0,1,77.91,9.7a1.55,1.55,0,0,1,1.92-1.07A12,12,0,0,1,82.92,9.7a1.56,1.56,0,0,1,.85,2.13c-.42.78-1.14,1-2.13.53C81.14,12.15,80.36,11.87,79.29,11.51Zm.43,10.77a1.8,1.8,0,0,1,2-2H97.42c1.56-.07,2.31.61,2.24,2v4.9a1.43,1.43,0,0,1-1.5,1.39,1.56,1.56,0,0,1-1.49-1.5V23.45c.07-.28-.11-.43-.53-.43H83.24a.57.57,0,0,0-.64.64v3.63a1.36,1.36,0,0,1-1.39,1.38,1.41,1.41,0,0,1-1.49-1.38ZM100,9.16c1.5,0,2.07.72,1.71,2.14a23.79,23.79,0,0,1-1.6,3.73,2,2,0,0,1-2.34,1.06,1.66,1.66,0,0,1-.64-2.34,12.67,12.67,0,0,0,.64-1.28c.14-.28,0-.43-.32-.43H93.69c-.15.43-.32.93-.54,1.5a17.52,17.52,0,0,0,7.78,4.15A1.51,1.51,0,0,1,102,19.61a1.55,1.55,0,0,1-1.92,1,18.63,18.63,0,0,1-8.42-4.26A9.88,9.88,0,0,1,85.16,20q-1.6.21-1.92-1a1.48,1.48,0,0,1,1.17-1.81,7.23,7.23,0,0,0,6-5.23H87.93A12.41,12.41,0,0,1,86,14a1.77,1.77,0,0,1-2.24.11,1.54,1.54,0,0,1,0-2.13A35.31,35.31,0,0,0,87,8.21a1.66,1.66,0,0,1,1.92-.43c.71.28,1,.75.74,1.38Zm-8.2,21.11c-1-.14-1.43-.67-1.28-1.6A1.42,1.42,0,0,1,92.3,27.5a39.54,39.54,0,0,1,8.53,2.56,1.78,1.78,0,0,1,1.06,2.13,1.42,1.42,0,0,1-2,.85A58.48,58.48,0,0,0,91.77,30.27Z"/><path class="cls-1" d="M110.57,16.84c1.21,0,1.81.71,1.81,2.13v8c1.28,1.77,3.49,2.66,6.61,2.66,4.76,0,8.28-.1,10.56-.32,1.28-.14,1.95.25,2,1.17a1.52,1.52,0,0,1-1.17,1.71c-.85.28-4.51.43-11,.43q-5.76,0-8.63-3c-.22.29-.54.71-1,1.28a5.57,5.57,0,0,1-.64,1c-.5.78-1.25.92-2.24.43-.71-.5-.82-1.25-.32-2.24h.1A21,21,0,0,1,109.29,27V20.46c0-.42-.14-.6-.42-.53h-1.18c-.71-.07-1.1-.57-1.17-1.49s.36-1.53,1.07-1.6Zm.11-3.52a16.51,16.51,0,0,1-1.49-1.06,8.71,8.71,0,0,0-1.18-.75,1.4,1.4,0,0,1-.42-1.92,1.28,1.28,0,0,1,2-.64,20.39,20.39,0,0,1,3,1.81l.1.11a1.54,1.54,0,0,1,.32,2.35C112.45,14,111.67,14,110.68,13.32Zm16.41-4.69a2.2,2.2,0,0,1,2.24,1.17,2.15,2.15,0,0,1-.74,2.35c-.29.28-.79.71-1.5,1.28a10.49,10.49,0,0,1-1,.74h2c1.28,0,1.92.75,1.92,2.24V26.54q.1,2.88-2.88,2.77c-2.2.07-3.23-.49-3.09-1.7a1.13,1.13,0,0,1,1.28-1.28h1c.5.07.71-.14.64-.64v-.64h-3.73v2.56a1.33,1.33,0,0,1-1.39,1.28c-.92-.07-1.42-.5-1.49-1.28V25.05h-3.73v2.34c-.07.79-.57,1.21-1.49,1.28s-1.53-.39-1.6-1.17V16.31a1.79,1.79,0,0,1,2-2h1.92c-.07-.07-.18-.17-.32-.32a5.39,5.39,0,0,1-1-1c-.5-.64-.67-1.06-.53-1.28h-1.17c-.86-.07-1.32-.6-1.39-1.6a1.41,1.41,0,0,1,1.39-1.49Zm-10.44,9.81h3.73V17.16h-3.2c-.36,0-.53.21-.53.64Zm0,2.66v1.28h3.73V21.1Zm2.45-9.38c1.85,1.85,2.73,2.67,2.66,2.45A7,7,0,0,0,124,12.36a.83.83,0,0,0,.32-.53.84.84,0,0,0-.53-.11Zm4.16,6.72H127v-.75c.07-.42-.11-.6-.53-.53h-3.2Zm0,2.66v1.28H127V21.1Z"/><path class="cls-2" d="M32.85,8.13a5.6,5.6,0,0,0-6.68-4L8.14,8.8A5.71,5.71,0,0,0,7,9.18Z"/><path class="cls-3" d="M22.09,3a4,4,0,0,0-2.7-1,6.26,6.26,0,0,0-2.84,1L8.25,7.67,22.43,3.34Z"/><path class="cls-1" d="M35.79,32.18A3.79,3.79,0,0,1,32,28.39v-.26a3.79,3.79,0,0,1,3.79-3.79h4.05v-6.8a7.31,7.31,0,0,0-7.32-7.31H9a7.31,7.31,0,0,0-7.32,7.31V38.46A7.31,7.31,0,0,0,9,45.77H32.52a7.31,7.31,0,0,0,7.32-7.31V32.18Z"/><path class="cls-1" d="M36.31,32.18a3.79,3.79,0,0,1-3.79-3.79v-.26a3.79,3.79,0,0,1,3.79-3.79h4.06v-6.8a7.31,7.31,0,0,0-7.32-7.31H9.52A7.31,7.31,0,0,0,2.2,17.54V38.46a7.31,7.31,0,0,0,7.32,7.31H33.05a7.31,7.31,0,0,0,7.32-7.31V32.18Z"/><path class="cls-2" d="M39.6,25.39h-3a2.7,2.7,0,0,0-2.7,2.7v.35a2.7,2.7,0,0,0,2.7,2.7h3a2.7,2.7,0,0,0,2.7-2.7v-.35A2.7,2.7,0,0,0,39.6,25.39Z"/><path class="cls-4" d="M12.17,22a8.48,8.48,0,0,1,1.61-1.46,6,6,0,0,1,2.4-.69,4.27,4.27,0,0,1,2.68.41,3.88,3.88,0,0,1,.95,1c.07.16.15.32.22.47l.23.43,1.55,3.32c.78-1,1.45-1.81,2-2.56a15.24,15.24,0,0,1,1.61-1.87,5.5,5.5,0,0,1,1.37-.94,3.5,3.5,0,0,1,1.53-.33,3.64,3.64,0,0,1,1.64.35,1.1,1.1,0,0,1,.7,1,1.42,1.42,0,0,1-.48,1,1.74,1.74,0,0,1-1.31.47,1.24,1.24,0,0,1-.55-.08,1.74,1.74,0,0,1-.28-.16l-.33-.17a1.73,1.73,0,0,0-.62-.08,2.17,2.17,0,0,0-1.44.78,26.35,26.35,0,0,0-1.9,2.21,2.07,2.07,0,0,0-.19.25,2.12,2.12,0,0,1-.2.24v.05l-.39.47-.55.67s2.78,6,2.78,6.07a3.15,3.15,0,0,0,.7,1.15c.53.45,3.08-.1,3.07.8s-.53.91-1.3,1.17a9.25,9.25,0,0,1-2.14.16h-.22A3.21,3.21,0,0,1,23,35.44a6.62,6.62,0,0,1-1.31-2l-.25-.53a4.23,4.23,0,0,1-.25-.58L20,30h-.16a9.19,9.19,0,0,0-.64.76l-.64.79a27.21,27.21,0,0,1-3.12,3.22,5.43,5.43,0,0,1-3.62,1.46,2.67,2.67,0,0,1-1.56-.37A1.82,1.82,0,0,1,9.62,35a.8.8,0,0,0,0-.23,1.5,1.5,0,0,1,0-.22v-.15a.22.22,0,0,1,0-.14,1.59,1.59,0,0,1,.59-.78,1.84,1.84,0,0,1,1.19-.37c.3,0,.56,0,.78,0a4.7,4.7,0,0,0,.62,0,.15.15,0,0,0,.11,0h.16l.48.07.53,0a3.09,3.09,0,0,0,2.06-.9,16.24,16.24,0,0,0,1.83-2l.75-1a10.12,10.12,0,0,0,.64-.88L17,23.41c0-.08-.07-.17-.11-.27a.83.83,0,0,0-.17-.26,2.53,2.53,0,0,0-.53-.8,1.13,1.13,0,0,0-.86-.31,3.93,3.93,0,0,0-.83.17,17.41,17.41,0,0,1-1.79.86C11.84,23,12.13,22.05,12.17,22Z"/><path class="cls-1" d="M75.66,37.1v6.26A2.39,2.39,0,0,0,78,45.75h25.13V39.48a2.39,2.39,0,0,0-2.39-2.38Z"/><g class="cls-5"><polygon class="cls-1" points="71.91 39.26 96.29 24.25 106.92 43.59 81.46 58.59 71.91 39.26"/></g><path class="cls-6" d="M63,38.24a.67.67,0,0,0-.81.7l-.39,3.81a8.12,8.12,0,0,0,0,1.44l0,.36c0-.12-.06-.24-.09-.36A8.11,8.11,0,0,0,61.41,43L59.46,39a1.5,1.5,0,0,0-1.35-.79,1,1,0,0,0-1,.93l-.62,5.66a.66.66,0,0,0,.64.91c.9,0,.89-1,.89-1l.36-3.66a7.54,7.54,0,0,0,0-1.3c0-.15,0-.28,0-.43,0,.13.07.26.09.39a7,7,0,0,0,.41,1.3l2,4a1.34,1.34,0,0,0,1.34.74c1.07,0,1-.77,1-.77L63.71,39s.17-.72-.68-.78"/><path class="cls-4" d="M82.73,38.93c0-.52-.39-.48-.39-.48H78.85s-.52,0-.5.47a.46.46,0,0,0,.45.47h1.09l-.45,4.4a.49.49,0,0,0,.51.63c.66,0,.68-.67.68-.67l.46-4.36h1.14a.44.44,0,0,0,.5-.46"/><path class="cls-4" d="M85.12,38.37a3.13,3.13,0,0,0-2.61,3.05c-.23,2.14,1,3.4,3.07,3.07a3.15,3.15,0,0,0,2.61-3.07c.23-2.12-1.06-3.39-3.07-3.05m1.77,3.45a2,2,0,0,1-1.41,1.74,1.36,1.36,0,0,1-1.74-1.31,3.72,3.72,0,0,1,0-.82c.15-1.29.71-2,1.47-2.14,1-.23,1.76.41,1.77,1.74a3.61,3.61,0,0,1-.09.79"/><path class="cls-4" d="M93.91,38.45a.53.53,0,0,0-.62.56L93,42a6.13,6.13,0,0,0,0,1.14l0,.29c0-.1,0-.19-.07-.29a6.08,6.08,0,0,0-.3-1l-1.48-3.13a1.16,1.16,0,0,0-1-.63.79.79,0,0,0-.8.74l-.48,4.5s-.2.69.49.73.68-.8.68-.8l.27-2.91a5.26,5.26,0,0,0,0-1,2,2,0,0,0,0-.34c0,.1,0,.21.07.31a7.47,7.47,0,0,0,.31,1l1.51,3.15a1,1,0,0,0,1,.59c.81,0,.76-.62.76-.62l.49-4.72a.51.51,0,0,0-.52-.63"/><path class="cls-4" d="M99.88,39.47a.42.42,0,0,0,.57-.37c.12-.48-.19-.54-.31-.58-2.43-.71-4.35.41-4.89,2.22-.65,2.24.54,3.82,2.92,3.79a5.63,5.63,0,0,0,1.55-.22s-.36.13.09,0a.71.71,0,0,0,.42-.68l.2-1.92h0s0,0,0,0v-.16a.44.44,0,0,0-.44-.44H98.34a.44.44,0,0,0-.43.44v.16a.44.44,0,0,0,.43.44h.87l-.14,1.33a2,2,0,0,1-.54.14,1.81,1.81,0,0,1-2.19-2.11c.19-1.6,1.48-2.52,3.54-2"/><path class="cls-6" d="M113.22,39.67a2.82,2.82,0,0,0-3.55,1.93c-.53,1.89.52,3.25,2.36,3.19a6.58,6.58,0,0,0,.68-.1c.34-.06.67-.17.88.34s-.44.78-.74.84a6.38,6.38,0,0,1-1,.11c-2.91.08-4.48-2-3.59-4.73a4.2,4.2,0,0,1,4.9-2.76l.43.07c.27.06.78.3.59.8s-.81.35-1,.31"/><path class="cls-6" d="M117.92,38.47c2.46-.41,4,1.13,3.75,3.72a3.86,3.86,0,0,1-3.18,3.75c-2.48.4-4-1.15-3.75-3.75a3.82,3.82,0,0,1,3.18-3.72m.45,6.32a2.37,2.37,0,0,0,1.71-2.11,4.63,4.63,0,0,0,.1-1c0-1.62-.89-2.4-2.15-2.12-.93.2-1.61,1-1.79,2.61a4.14,4.14,0,0,0,0,1,1.65,1.65,0,0,0,2.13,1.59"/><path class="cls-6" d="M124.32,38.57a1.07,1.07,0,0,1,1.28.88l1.07,4a3.24,3.24,0,0,1,.06.75,4.6,4.6,0,0,1,0,.64c0-.21.08-.43.12-.64a4.8,4.8,0,0,1,.22-.75l2-4.14a1.32,1.32,0,0,1,1.42-.72c1.1.12,1,1,1,1l-.61,5.76a.72.72,0,0,1-.75.57.67.67,0,0,1-.62-.66l.48-4.44c0-.06,0-.13.11-.5s.09-.43.15-.66c-.07.21-.17.44-.26.65s-.14.33-.2.47l-2.11,4.41a1.23,1.23,0,0,1-1,.73c-.83,0-.93-.85-.93-.85l-1.16-4.29c0-.14-.07-.29-.11-.47s-.08-.44-.11-.65a2.91,2.91,0,0,1,0,.3,6.85,6.85,0,0,1,0,.86l-.44,4.32s0,.78-.76.78-.61-.86-.61-.86l.58-5.48s0-.85,1.19-.94"/><path class="cls-7" d="M106,45.89a.61.61,0,0,1-.6-.79.92.92,0,0,1,.87-.78.61.61,0,0,1,.61.78.93.93,0,0,1-.88.79"/><path class="cls-6" d="M50.72,41.58q2.06-2.23,2.34-2.49a.54.54,0,0,0,.16-.39.64.64,0,0,0-.67-.59,1.83,1.83,0,0,0-.79.42c-.18.17-.8.83-1.84,2-1-1.13-1.71-1.79-1.9-2a1.37,1.37,0,0,0-.76-.37.71.71,0,0,0-.72.66.6.6,0,0,0,.21.34c.19.17.89.93,2.26,2.42-.62.84-2.36,2.71-2.58,3.67a.57.57,0,0,0,.35.64,1,1,0,0,0,1-.43c.35-.47.92-1.32,2.11-2.76a29.79,29.79,0,0,1,2,2.87.82.82,0,0,0,.91.36.7.7,0,0,0,.43-.89A15.54,15.54,0,0,0,50.72,41.58Z"/><path class="cls-6" d="M65.19,44.31l3.51-4.4a2.84,2.84,0,0,1,.46-.44l.22-.14a2.57,2.57,0,0,1-.85.12H66.46s-.77.09-.78-.58.81-.59.81-.59h3.8s.62,0,.61.56-.07.61-.07.61l-3.68,4.6a1.66,1.66,0,0,1-.26.28,2.56,2.56,0,0,1-.51.35,2.76,2.76,0,0,1,1-.15h2.55a.45.45,0,0,1,.38.57c-.08.54-.7.6-.7.6H65.26s-.29,0-.34-.59.27-.81.27-.81"/><path class="cls-6" d="M72.85,38.29c.75,0,.7.88.7.88l-.61,5.75s0,.86-.82.79a.72.72,0,0,1-.66-.9l.61-5.74s0-.82.78-.78"/><path class="cls-6" d="M55.32,38.12c.76,0,.71.9.71.9l-.62,5.88s0,.88-.84.81a.73.73,0,0,1-.67-.92l.62-5.87s0-.83.8-.8"/><path class="cls-4" d="M38.75,28.21a2,2,0,1,1-2-2A2,2,0,0,1,38.75,28.21Z"/></svg>