<?xml version="1.0" encoding="UTF-8"?>
<svg width="96px" height="48px" viewBox="0 0 96 48" version="1.1" xmlns="http://www.w3.org/2000/svg" xmlns:xlink="http://www.w3.org/1999/xlink">
    <title>编组 99备份 3</title>
    <g id="页面-1" stroke="none" stroke-width="1" fill="none" fill-rule="evenodd">
        <g id="编组-99备份-2">
            <g id="编组-3备份-3" transform="translate(0.000000, 10.000000)">
                <g id="编组-2" transform="translate(0.000000, 0.103889)">
                    <path d="M58.3969848,4.71740921 L58.3969848,5.40000563 L68.4089731,5.40000563 L67.5384569,6.93592124 L50.2999217,6.93592124 C49.232818,6.93592124 48.9069756,7.78924042 48.819954,8.21582636 L48.819954,8.21582636 L48.2108031,22.5507932 L46.643363,22.5507932 L47.1904415,8.12420466 C47.1914936,8.09209287 47.1948001,8.06027569 47.2003611,8.02860581 C47.357571,7.12432021 48.2374056,5.40000563 50.2999217,5.40000563 L50.2999217,5.40000563 L56.6558021,5.40000563 L56.6558021,4.71740921 L58.3969848,4.71740921 Z M67.6252831,14.103493 L66.7549172,15.6392613 L54.8272522,15.6392613 C54.5848243,16.0483184 53.8695642,16.8338787 53.8695642,16.8338787 L53.8695642,16.8338787 L64.8393908,16.8338787 C66.1367485,16.8338787 67.190025,17.7688031 67.190025,18.967103 L67.190025,18.967103 L67.190025,20.3322959 C67.190025,21.612201 66.232337,22.5508079 64.9264124,22.5508079 L64.9264124,22.5508079 L54.0436073,22.5508079 C52.7376827,22.5508079 51.7799947,21.612201 51.7799947,20.3322959 L51.7799947,20.3322959 L51.7799947,19.0523908 C50.5314833,20.1637827 49.4909819,20.883941 49.4293605,20.9296046 L49.4293605,20.9296046 L49.4293605,18.967103 C49.4504019,18.9510472 51.286121,17.5705349 52.7376827,15.6392613 L52.7376827,15.6392613 L49.4293605,15.6392613 L49.4293605,14.103493 L67.6252831,14.103493 Z M64.8393908,18.3697944 L54.1307791,18.3697944 C53.7449685,18.3697944 53.4343061,18.6106328 53.4343061,18.967103 L53.4343061,18.967103 L53.4343061,20.3322959 C53.4343061,20.7588818 53.6955211,21.0148923 54.1307791,21.0148923 L54.1307791,21.0148923 L64.8393908,21.0148923 C65.2746489,21.0148923 65.5358639,20.7588818 65.5358639,20.3322959 L65.5358639,20.3322959 L65.5358639,19.0523908 C65.5358639,18.6258048 65.2746489,18.3697944 64.8393908,18.3697944 L64.8393908,18.3697944 Z M55.2625404,7.87461653 L55.2625404,8.9837989 L61.2698837,8.9837989 L61.2698837,7.87461653 L62.9240448,7.87461653 L62.9240448,8.9837989 L68.4091084,8.9837989 L67.5384419,10.5197145 L66.3193886,10.5197145 L67.1900551,13.5061107 L65.4488724,13.5061107 L64.5782059,10.5197145 L62.9240448,10.5197145 L62.9240448,13.5061107 L61.2698837,13.5061107 L61.2698837,10.5197145 L59.267486,10.5197145 L59.267486,13.5061107 L57.6131746,13.5061107 L57.6131746,10.5197145 L55.2625404,10.5197145 L55.2625404,13.5061107 L53.6083793,13.5061107 L53.6083793,10.5197145 L52.4764978,10.5197145 L51.6059816,13.5061107 L49.8647989,13.5061107 L50.7353151,10.5197145 L49.1683258,10.5197145 L49.1683258,8.9837989 L53.6083793,8.9837989 L53.6083793,7.87461653 L55.2625404,7.87461653 Z M53.5213126,1.21896259 L53.5213126,2.1575695 L61.5324062,2.16198855 L61.5324062,1.22323434 L63.1865673,1.22323434 L63.1865673,2.16198855 L68.4102657,2.16198855 L67.5383968,3.69348511 L63.1865673,3.69348511 L63.1865673,4.63209202 L61.5324062,4.63209202 L61.5324062,3.69348511 L53.5213126,3.69348511 L53.5213126,4.63209202 L51.8671515,4.63209202 L51.8671515,3.69348511 L46.6448058,3.69348511 L46.6436034,2.1575695 L51.8671515,2.1575695 L51.8671515,1.21896259 L53.5213126,1.21896259 Z" id="形状结合" fill="#2F343A"></path>
                    <path d="M75.7863418,6.50921381 L75.7863418,8.98373462 L78.4853914,8.98373462 L78.4853914,6.50921381 L80.1398125,6.50921381 L80.1398125,8.98373462 L86.4956633,8.98373462 L86.4956633,6.50921381 L88.1499341,6.50921381 L88.1499341,8.98373462 L92.5904321,8.98373462 L91.7197079,10.5196492 L88.1499341,10.5196492 L88.1499341,12.7381597 L90.1524645,12.7381597 C91.4500585,12.7381597 92.4162272,13.6767659 92.4162272,14.9566702 L92.4162272,14.9566702 L92.4162272,20.3322974 C92.4162272,21.6122017 91.4584756,22.5508079 90.1524645,22.5508079 L90.1524645,22.5508079 L84.7543652,22.5508079 C83.4482037,22.5508079 82.4906025,21.6122017 82.4906025,20.3322974 L82.4906025,20.3322974 L82.4906025,14.9385521 C82.4906025,13.6767659 83.4567712,12.7381597 84.7543652,12.7381597 L84.7543652,12.7381597 L86.4956633,12.7381597 L86.4956633,10.5196492 L80.1398125,10.5196492 L80.1398125,15.2979681 C80.1398125,17.3182106 79.6926513,18.9344046 78.7466237,20.1615748 C79.8546815,20.7482774 81.5212774,20.8424031 81.532851,20.844318 L81.532851,20.844318 L80.7491541,22.3800853 C80.6831696,22.370658 78.6595964,22.2947976 77.4406125,21.3561914 C76.2216287,22.2947976 74.1386845,22.3803799 74.132071,22.3800853 L74.132071,22.3800853 L73.3483741,20.844318 C73.3596471,20.84476 75.1768498,20.5883077 76.1346014,20.1615748 C75.0710342,18.9955347 74.132071,17.8591023 74.132071,15.7245538 L74.132071,15.7245538 L74.132071,10.5196492 L71.5200487,10.5196492 L71.5200487,8.98373462 L74.132071,8.98373462 L74.132071,6.50921381 L75.7863418,6.50921381 Z M90.0654371,14.2740742 L84.8413925,14.2740742 C84.4059553,14.2740742 84.1448733,14.5300845 84.1448733,14.9566702 L84.1448733,14.9566702 L84.1448733,20.3322974 C84.1448733,20.7588831 84.4059553,21.0148934 84.8413925,21.0148934 L84.8413925,21.0148934 L90.0654371,21.0148934 C90.5007241,21.0148934 90.7619564,20.7588831 90.7619564,20.3322974 L90.7619564,20.3322974 L90.7619564,14.9566702 C90.7619564,14.5300845 90.5007241,14.2740742 90.0654371,14.2740742 L90.0654371,14.2740742 Z M78.4891491,10.5196492 L75.7900994,10.5196492 L75.7900994,15.7322135 C75.7900994,17.2011058 76.3322541,18.3272271 77.3322417,19.2381406 C78.1033129,18.2967356 78.4753209,17.0300885 78.4753209,15.2979681 L78.4753209,15.2979681 L78.4891491,10.5196492 Z M78.3967859,1.21896259 L78.3967859,2.15756885 L86.4084105,2.1619879 L86.4084105,1.22323434 L88.0626813,1.22323434 L88.0626813,2.1619879 L93.2867259,2.1619879 L92.4163023,3.6934834 L88.0626813,3.6934834 L88.0626813,4.63208966 L86.4084105,4.63208966 L86.4084105,3.6934834 L78.3967859,3.6934834 L78.3967859,4.63208966 L76.7425151,4.63208966 L76.7425151,3.6934834 L71.5198232,3.6934834 L71.5198232,2.1619879 L76.7425151,2.15756885 L76.7425151,1.21896259 L78.3967859,1.21896259 Z" id="形状结合" fill="#2F343A"></path>
                    <path d="M60.7698197,25.5982144 L60.7698197,28.8487813 C60.7698197,29.4286273 60.4108813,30.4740648 58.9757471,30.4740648 C58.449108,30.4740648 57.8993965,30.3836587 57.5406129,30.1127521 L58.0788657,29.4149106 C58.3479921,29.595411 58.6764253,29.6658654 58.9453969,29.6658654 C59.3939924,29.6658654 59.8675186,29.2281752 59.8675186,28.9633477 L59.8675186,28.5716399 C59.8675186,28.5716399 59.5288653,29.1171939 58.7713474,29.1171939 C57.6889576,29.1171939 57.2281291,28.3124238 57.2281291,27.3441432 C57.2281291,26.4302623 57.7657624,25.5982144 58.7783155,25.5982144 C59.603657,25.5982144 59.9624406,26.0497773 59.9624406,26.0497773 L60.7698197,25.5982144 Z M66.4731619,25.5982923 L67.328544,28.107841 L67.3424803,28.107841 L68.1314325,25.5982923 L69.157922,25.5982923 L67.6496994,29.6628259 C67.4333763,30.2289551 67.08249,30.4739868 66.4545801,30.4739868 L65.8392129,30.4739868 L66.1979964,29.6612672 L66.2752657,29.6612672 C66.619029,29.6612672 66.8328745,29.2809381 66.721074,29.0013026 L65.4118315,25.5982923 L66.4731619,25.5982923 Z M81.438245,25.59823 C82.4137894,25.59823 82.8818958,26.2422955 82.8818958,26.2422955 L82.8818958,26.2422955 L82.3047762,26.8088924 C82.144663,26.5914501 81.7634265,26.3883481 81.4312768,26.3883481 C80.7957793,26.3883481 80.5300596,26.9759878 80.5300596,27.4942641 C80.5300596,28.0126964 80.7957793,28.6004919 81.4312768,28.6004919 C81.7634265,28.6004919 82.144663,28.397234 82.3047762,28.1799476 L82.3047762,28.1799476 L82.8818958,28.7465445 C82.8818958,28.7465445 82.4137894,29.3904541 81.438245,29.3904541 C80.2649593,29.3904541 79.5433662,28.5922306 79.5433662,27.4942641 C79.5433662,26.3964535 80.2649593,25.59823 81.438245,25.59823 Z M85.2171942,25.5982768 C86.3553294,25.5982768 87.0883813,26.3347747 87.0883813,27.4600189 C87.0883813,28.5784047 86.3553294,29.3150586 85.2171942,29.3150586 C84.0860273,29.3150586 83.3528205,28.5784047 83.3528205,27.4600189 C83.3528205,26.3347747 84.0860273,25.5982768 85.2171942,25.5982768 Z M54.7869299,25.5982768 C55.9252198,25.5982768 56.6581169,26.3347747 56.6581169,27.4600189 C56.6581169,28.5784047 55.9252198,29.3150586 54.7869299,29.3150586 C53.6556081,29.3150586 52.9224013,28.5784047 52.9224013,27.4600189 C52.9224013,26.3347747 53.6556081,25.5982768 54.7869299,25.5982768 Z M75.7120782,25.5982612 C76.6030754,25.5982612 77.0515161,26.1700018 77.0515161,27.0430442 L77.0515161,29.3002351 L76.0648226,29.3002351 L76.0648226,27.2721769 C76.0648226,26.6926426 75.8655329,26.410825 75.4048591,26.410825 C74.8672258,26.410825 74.6368115,26.7041772 74.6368115,27.4201 L74.6368115,29.3002351 L73.6451629,29.3002351 L73.6451629,25.5982612 L74.5398764,26.0496682 C74.5398764,26.0496682 74.89866,25.5982612 75.7120782,25.5982612 Z M62.5203025,25.5982612 L62.5203025,27.4942953 C62.5203025,28.0741413 62.6873838,28.3972652 63.1482124,28.3972652 C63.5966531,28.3972652 63.9554367,28.210374 63.9554367,27.4942953 L63.9554367,25.5982612 L64.9421301,25.5982612 L64.9421301,29.3002351 L64.1349059,28.9390783 C64.1349059,28.9390783 63.7237836,29.3002351 62.7894289,29.3002351 C61.7350667,29.3002351 61.533609,28.7284944 61.533609,27.8554521 L61.533609,25.5982612 L62.5203025,25.5982612 Z M70.4137882,25.5982612 L70.4137882,27.4942953 C70.4137882,28.0741413 70.5808696,28.3972652 71.0416982,28.3972652 C71.4901389,28.3972652 71.8489224,28.210374 71.8489224,27.4942953 L71.8489224,25.5982612 L72.8356159,25.5982612 L72.8356159,29.3002351 L72.0283916,28.9390783 C72.0283916,28.9390783 71.6172693,29.3002351 70.6829146,29.3002351 C69.6285524,29.3002351 69.4270948,28.7284944 69.4270948,27.8554521 L69.4270948,25.5982612 L70.4137882,25.5982612 Z M50.87286,25.5982612 C51.6407528,25.5982612 52.20502,25.9485069 52.20502,26.862232 L52.20502,29.3002351 L51.3079838,29.3002351 L51.3079838,27.2235446 C51.3079838,26.862232 51.2181717,26.410825 50.5904167,26.410825 C50.0315691,26.410825 49.9625068,26.9524822 49.9625068,27.2235446 L49.9625068,29.3002351 L48.9758133,29.3002351 L48.9758133,27.2235446 C48.9758133,26.8143791 48.7066869,26.410825 48.2582462,26.410825 C48.0626728,26.410825 47.5405243,26.5347437 47.5405243,27.2235446 L47.5405243,29.3002351 L46.6436428,29.3002351 L46.6436428,25.5982612 L47.5405243,26.0496682 C47.5405243,26.0496682 47.8993078,25.5982612 48.6170297,25.5982612 C49.0708902,25.5982612 49.5879287,25.7619274 49.7833473,26.1846538 C49.992857,25.8778966 50.3699127,25.5982612 50.87286,25.5982612 Z M91.9548457,25.5982612 C92.7227385,25.5982612 93.2870058,25.9485069 93.2870058,26.862232 L93.2870058,29.3002351 L92.3899695,29.3002351 L92.3899695,27.2235446 C92.3899695,26.862232 92.3001575,26.410825 91.6724024,26.410825 C91.1137097,26.410825 91.0444925,26.9524822 91.0444925,27.2235446 L91.0444925,29.3002351 L90.057799,29.3002351 L90.057799,27.2235446 C90.057799,26.8143791 89.7886726,26.410825 89.3402319,26.410825 C89.1446585,26.410825 88.62251,26.5347437 88.62251,27.2235446 L88.62251,29.3002351 L87.7256285,29.3002351 L87.7256285,25.5982612 L88.62251,26.0496682 C88.62251,26.0496682 88.9814484,25.5982612 89.6990155,25.5982612 C90.1528759,25.5982612 90.6699144,25.7619274 90.865333,26.1846538 C91.0749976,25.8778966 91.4518984,25.5982612 91.9548457,25.5982612 Z M78.9037807,28.1691768 L78.9037807,29.2194463 L77.8076095,29.2194463 L77.8076095,28.1691768 L78.9037807,28.1691768 Z M54.7869299,26.3280722 C54.1165915,26.3280722 53.9140499,26.8938897 53.9140499,27.4600189 C53.9140499,28.0191339 54.1165915,28.5852631 54.7869299,28.5852631 C55.4640816,28.5852631 55.666778,28.0191339 55.666778,27.4600189 C55.666778,26.8938897 55.4640816,26.3280722 54.7869299,26.3280722 Z M85.2171942,26.3280722 C84.546701,26.3280722 84.3443143,26.8938897 84.3443143,27.4600189 C84.3443143,28.0191339 84.546701,28.5852631 85.2171942,28.5852631 C85.8945008,28.5852631 86.0970424,28.0191339 86.0970424,27.4600189 C86.0970424,26.8938897 85.8945008,26.3280722 85.2171942,26.3280722 Z M59.0225113,26.3280099 C58.4641283,26.3280099 58.2196228,26.8052917 58.2196228,27.3305823 C58.2196228,27.834986 58.4151962,28.3875543 59.0225113,28.3875543 C59.5881722,28.3875543 59.8675186,27.916975 59.8675186,27.4122596 C59.8675186,26.8394278 59.664977,26.3280099 59.0225113,26.3280099 Z" id="形状结合" fill="#2F343A"></path>
                    <g id="编组" fill="#FA5F2F">
                        <path d="M12.593708,23.1607554 C12.7882516,27.2327695 16.1244735,30.4740648 20.2118927,30.4740648 C24.2999285,30.4740648 27.6363046,27.2324587 27.8305399,23.1602892 C25.356815,23.603619 22.8104831,23.8349958 20.2105053,23.8349958 C17.6116066,23.8349958 15.0663538,23.6037744 12.593708,23.1607554 Z" id="Fill-30"></path>
                        <path d="M29.9628318,2.92427421 L29.9561708,2.97562792 C27.1839745,1.09954655 23.8236005,0 20.2008158,0 C16.578341,0 13.2181218,1.09954655 10.4462354,2.97562792 L10.4195915,2.93749247 C5.31745539,6.29356319 1.53589216,11.4307565 0,17.4417224 C1.35387771,18.1745002 2.75376247,18.8354132 4.19361296,19.420967 L7.63035562,16.0501587 L7.63035562,20.648442 C11.6253792,21.8838176 15.8773917,22.5508079 20.2886475,22.5508079 C27.5831671,22.5508079 34.4437952,20.7292709 40.4242479,17.52559 C38.8999737,11.4705632 35.0990472,6.29569027 29.9628318,2.92427421" id="Fill-31"></path>
                    </g>
                </g>
            </g>
            <rect id="矩形" fill="#D8D8D8" opacity="0" x="0" y="0" width="96" height="48"></rect>
        </g>
    </g>
</svg>