<svg width="121" height="43" viewBox="0 0 121 43" fill="none" xmlns="http://www.w3.org/2000/svg">
<path d="M22.6873 27.5491C22.6873 25.5905 22.0603 23.7802 21.0074 22.297C20.4456 20.1986 18.1365 12.4377 13.9003 9.3125L8.64369 12.3514C8.64369 12.3514 12.5123 13.8355 13.4408 11.7598C14.2501 9.95689 18.358 16.3479 19.806 20.9237C18.4389 19.6454 16.6818 18.7839 14.7265 18.5495C12.5601 16.1692 9.58351 13.5007 6.54472 12.6413L2.68926 17.34C2.68926 17.34 6.83236 17.3646 6.97297 15.0945C7.06517 13.6294 10.4443 15.7514 13.3915 18.4838C8.36432 18.6328 0 23.2688 0 28.1987C0 32.874 7.52681 36.1577 12.5935 36.5757C12.2069 40.7688 10.2642 42.8242 10.2642 42.8242C18.0557 39.1355 21.2721 32.4198 21.2721 32.4198L21.2638 32.4222C22.1611 31.0131 22.6873 29.345 22.6873 27.5491ZM8.64369 27.1434C8.64369 25.7978 9.73208 24.7065 11.0741 24.7065C12.4167 24.7065 13.5051 25.7978 13.5051 27.1434C13.5051 28.489 12.4167 29.5809 11.0741 29.5809C9.73208 29.5809 8.64369 28.489 8.64369 27.1434Z" fill="black"/>
<path d="M21.2808 18.5425C21.2808 16.5833 21.9075 14.7723 22.9604 13.2892C23.5213 11.1914 25.8322 3.42987 30.0675 0.304688L35.3253 3.34356C35.3253 3.34356 31.4561 4.82859 30.527 2.75354C29.718 0.950609 25.6092 7.34164 24.1618 11.9165C25.5289 10.637 27.287 9.77759 29.2419 9.5417C31.4086 7.16319 34.3843 4.49289 37.4246 3.63412L41.2785 8.33309C41.2785 8.33309 37.136 8.35736 36.9942 6.08696C36.9032 4.62281 33.5235 6.74394 30.5763 9.47751C35.6044 9.62617 43.9687 14.2619 43.9687 19.1915C43.9687 23.8672 36.4416 27.1508 31.3758 27.5688C31.7612 31.7623 33.7039 33.8164 33.7039 33.8164C25.9118 30.1289 22.6957 23.4126 22.6957 23.4126L22.7052 23.4163C21.8076 22.0083 21.2808 20.3381 21.2808 18.5425ZM35.3253 18.1383C35.3253 16.7915 34.2363 15.6999 32.8943 15.6999C31.5511 15.6999 30.4627 16.7918 30.4627 18.1383C30.4627 19.4827 31.5514 20.5752 32.8943 20.5752C34.2366 20.5752 35.3253 19.4827 35.3253 18.1383Z" fill="#35AD37"/>
<path d="M62.1159 29.7891H55.8232V31.0376H62.1159V29.7891Z" fill="#35AD37"/>
<path d="M62.4746 25.8378H65.5695V19.7109H56.0803V21.0897H62.4746V25.8378Z" fill="#35AD37"/>
<path d="M52.8826 31.6428C52.8826 31.6914 52.9068 31.7909 52.9601 31.9398C53.1148 32.5351 53.2159 33.5459 53.2698 33.8917C53.165 33.8917 53.0094 33.9175 52.8048 33.9654H52.4957V30.4222C54.0423 30.523 55.4242 29.7533 55.3216 28.1162V20.3713H52.4957V19.7109H50.1731V20.3713H47.1922V30.4225H50.1731V34.189C49.3478 34.2892 48.0588 34.3377 47.0801 34.3377V35.8823C49.1941 35.7822 51.5669 35.5349 53.4232 35.1384C53.4232 35.2367 53.4487 35.4102 53.5004 35.6584V36.179H55.5118C55.4609 34.6912 55.2024 33.1801 54.7383 31.6425H52.8826V31.6428ZM52.4957 21.622H53.1564V28.3358C53.1564 28.7342 52.7521 28.9566 52.4957 29.0066V21.622ZM50.1731 29.0066H49.3579V21.622H50.1731V29.0066Z" fill="#35AD37"/>
<path d="M75.7574 31.6428C75.7574 31.6914 75.7813 31.7909 75.8346 31.9398C75.9893 32.5351 76.091 33.5459 76.1443 33.8917C76.0399 33.8917 75.8843 33.9175 75.6799 33.9654H75.3702V30.4222C76.9169 30.523 78.2987 29.7533 78.1964 28.1162V20.3713H75.3702V19.7109H73.048V20.3713H70.0668V30.4225H73.048V34.189C72.2221 34.2892 70.9337 34.3377 69.9543 34.3377V35.8823C72.0689 35.7822 74.4415 35.5349 76.2978 35.1384C76.2978 35.2367 76.3235 35.4102 76.3753 35.6584V36.179H78.3864C78.3355 34.6912 78.0776 33.1801 77.6129 31.6425H75.7574V31.6428ZM75.3702 21.622H76.031V28.3358C76.031 28.7342 75.6266 28.9566 75.3702 29.0066V21.622ZM73.048 29.0066H72.2331V21.622H73.048V29.0066Z" fill="#35AD37"/>
<path d="M65.366 26.4492H64.7466H61.6523H60.3443H60.0273C59.4082 26.4989 59.1239 26.2259 59.1754 25.6303V22.5312H56.2346V25.6334C56.184 27.072 56.8537 27.7671 58.2466 27.7161H62.5799V33.816C62.6314 34.5599 62.2956 34.9073 61.5751 34.8587H57.2801L57.8036 36.0698H62.8133C64.8749 36.1681 65.8561 35.251 65.7529 33.3175V26.4492H65.366Z" fill="#35AD37"/>
<path d="M91.9888 35.6707V20.7891H94.8438V27.0188H102.156V20.7891H105.012V35.6707H102.156V28.8869H94.8438V35.6707H91.9888Z" fill="#35AD37"/>
<path d="M117.618 35.6695L113.161 29.7171H110.445V35.6695H107.589V20.7188H114.762C118.337 20.7188 120.124 22.2413 120.124 25.2869C120.17 27.9166 118.871 29.3703 116.225 29.6474L120.961 35.6692H117.618V35.6695ZM110.445 22.5868V27.8478H114.135C116.224 27.8939 117.224 27.0637 117.13 25.356C117.176 23.464 116.177 22.5413 114.135 22.5868H110.445Z" fill="#35AD37"/>
<path d="M85.1184 22.9845C84.964 21.6456 84.6017 20.3808 84.197 19.7109H81.6428C81.9461 20.5292 82.2282 21.7937 82.3318 22.9845H85.1184Z" fill="#35AD37"/>
<path d="M84.9644 31.3108C86.666 28.9793 87.9548 25.2632 88.5227 20.75H85.9768C85.6714 24.366 84.4991 27.2246 83.4153 29.3079C82.5376 27.474 81.1714 24.6725 81.0069 20.75H78.5413C78.9021 25.2125 80.1893 28.8389 81.9954 31.1686C81.3819 31.9555 80.0481 32.8766 78.7312 33.4362C78.7842 33.9648 78.8145 35.4806 78.7759 36.0589C80.8617 34.9041 82.4362 33.8423 83.4928 32.8748C84.6274 33.8675 86.2785 34.9575 88.4452 36.1471V33.7326C88.3931 33.6835 88.5196 33.7495 88.3931 33.6835C87.1877 33.0538 85.479 31.9555 84.9644 31.3108Z" fill="#35AD37"/>
</svg>
