<svg width="175" height="68" viewBox="0 0 175 68" fill="none" xmlns="http://www.w3.org/2000/svg">
<path fill-rule="evenodd" clip-rule="evenodd" d="M70.3794 45.4375L74.1095 53.0675H73.7595L72.3494 50.2275H68.3494L66.9995 53.0675H66.6895L70.4095 45.4375H70.3794ZM70.3794 46.1275L68.5194 49.9375H72.2495L70.3695 46.1275H70.3794ZM80.3794 45.6175V53.0675H79.9995V51.9975C79.8008 52.363 79.5026 52.6646 79.1395 52.8675C78.7877 53.0743 78.3875 53.1847 77.9795 53.1875C77.6688 53.1924 77.3604 53.1337 77.0732 53.015C76.786 52.8963 76.5261 52.7202 76.3094 52.4975C76.0908 52.2809 75.9173 52.0231 75.7989 51.739C75.6805 51.455 75.6195 51.1503 75.6195 50.8425C75.6195 50.5347 75.6805 50.23 75.7989 49.946C75.9173 49.6619 76.0908 49.4041 76.3094 49.1875C76.5276 48.9605 76.7903 48.7811 77.0812 48.6606C77.372 48.5401 77.6847 48.4812 77.9995 48.4875C78.4184 48.4894 78.8293 48.6034 79.1895 48.8175C79.5525 49.0139 79.8459 49.3178 80.0294 49.6875V45.6175H80.3794ZM75.9894 50.8375C75.9865 51.1072 76.0382 51.3746 76.1413 51.6238C76.2444 51.873 76.3968 52.0987 76.5894 52.2875C76.7702 52.4803 76.9886 52.6339 77.2311 52.7388C77.4737 52.8438 77.7352 52.8978 77.9995 52.8975C78.5329 52.8746 79.0373 52.6483 79.4092 52.2653C79.7811 51.8822 79.9923 51.3714 79.9995 50.8375C80.0024 50.5654 79.9499 50.2956 79.845 50.0446C79.7401 49.7936 79.5851 49.5666 79.3895 49.3775C79.0259 48.9957 78.5264 48.7729 77.9995 48.7575C77.7295 48.755 77.462 48.8088 77.214 48.9156C76.9661 49.0223 76.7431 49.1797 76.5594 49.3775C76.3656 49.5674 76.2125 49.7948 76.1093 50.0458C76.0062 50.2968 75.9552 50.5662 75.9594 50.8375H75.9894ZM85.5395 49.5375C85.6358 49.2259 85.8373 48.9573 86.1095 48.7775C86.4064 48.5833 86.7547 48.4823 87.1095 48.4875C87.3065 48.4871 87.5016 48.5258 87.6835 48.6013C87.8655 48.6769 88.0306 48.7877 88.1694 48.9275C88.3244 49.0811 88.4454 49.2655 88.5246 49.4687C88.6038 49.672 88.6395 49.8896 88.6294 50.1075V53.1075H88.3094V50.1075C88.32 49.9235 88.2917 49.7393 88.2262 49.5669C88.1607 49.3946 88.0596 49.2381 87.9295 49.1075C87.8122 48.9848 87.6708 48.8877 87.5142 48.8223C87.3576 48.7569 87.1891 48.7246 87.0194 48.7275C86.844 48.7284 86.6706 48.7642 86.5092 48.8329C86.3478 48.9016 86.2017 49.0017 86.0795 49.1275C85.9506 49.2436 85.8475 49.3855 85.7768 49.544C85.7062 49.7025 85.6696 49.874 85.6694 50.0475V53.0475H85.3494V50.0475C85.351 49.875 85.3182 49.704 85.2529 49.5443C85.1877 49.3846 85.0913 49.2396 84.9695 49.1175C84.8535 48.9925 84.7125 48.8932 84.5558 48.826C84.3991 48.7589 84.23 48.7253 84.0594 48.7275C83.7108 48.735 83.3784 48.8762 83.1308 49.1219C82.8833 49.3676 82.7396 49.6989 82.7295 50.0475V53.0475H82.4095V48.5975H82.7295V49.2275C82.892 49.0043 83.1037 48.8214 83.3482 48.6931C83.5927 48.5648 83.8634 48.4944 84.1395 48.4875C84.4343 48.491 84.7194 48.5931 84.9494 48.7775C85.2082 48.9711 85.406 49.2349 85.5194 49.5375H85.5395ZM91.1694 48.6075V53.0675H90.7995V48.6075H91.1694ZM90.9995 47.5075C90.8061 47.5075 90.7094 47.4175 90.7094 47.2375C90.7094 47.0575 90.8061 46.9775 90.9995 46.9975C91.1928 46.9975 91.2895 47.0875 91.2895 47.2675C91.2895 47.4475 91.1928 47.5375 90.9995 47.5375V47.5075ZM93.6694 53.0575H93.3494V48.5975H93.6694V49.4975C93.8246 49.1768 94.0725 48.9101 94.3809 48.7318C94.6893 48.5536 95.0441 48.4719 95.3995 48.4975C95.6602 48.4924 95.9192 48.5412 96.1601 48.641C96.4011 48.7409 96.6187 48.8895 96.7995 49.0775C96.9842 49.2602 97.13 49.4784 97.228 49.719C97.326 49.9597 97.3741 50.2177 97.3695 50.4775V53.0775H96.9995V50.4775C97.0019 50.2573 96.9607 50.0388 96.8783 49.8346C96.7959 49.6303 96.674 49.4444 96.5194 49.2875C96.3718 49.1243 96.1911 48.9944 95.9894 48.9065C95.7876 48.8186 95.5695 48.7746 95.3494 48.7775C95.1239 48.7769 94.9004 48.8218 94.6926 48.9094C94.4847 48.997 94.2966 49.1256 94.1395 49.2875C93.9749 49.4389 93.8437 49.6229 93.7541 49.8277C93.6646 50.0326 93.6187 50.2539 93.6195 50.4775V53.0775L93.6694 53.0575ZM99.8695 48.5875V52.9975H99.5495V48.5975L99.8695 48.5875ZM99.7094 47.4975C99.5161 47.4975 99.4194 47.4075 99.4194 47.2275C99.4194 47.0475 99.5161 46.9575 99.7094 46.9575C99.9028 46.9575 99.9995 47.0475 99.9995 47.2275C99.9995 47.4075 99.9028 47.4975 99.7094 47.4975ZM102.999 48.7475C102.83 48.745 102.666 48.8056 102.539 48.9175C102.476 48.9677 102.426 49.0316 102.391 49.1044C102.356 49.1772 102.339 49.2569 102.339 49.3375C102.341 49.4254 102.362 49.5119 102.4 49.5912C102.438 49.6705 102.492 49.7408 102.559 49.7975C102.723 49.9457 102.905 50.0733 103.099 50.1775L103.729 50.5475C103.941 50.6807 104.124 50.854 104.269 51.0575C104.418 51.264 104.495 51.5132 104.489 51.7675C104.492 51.956 104.455 52.143 104.379 52.3156C104.303 52.4881 104.19 52.6423 104.049 52.7675C103.761 53.0394 103.376 53.1867 102.979 53.1775C102.723 53.1806 102.469 53.1224 102.239 53.0075C102.03 52.9085 101.855 52.7481 101.739 52.5475V52.0675C101.815 52.2638 101.937 52.4389 102.094 52.5783C102.252 52.7176 102.44 52.8169 102.644 52.8679C102.848 52.9189 103.062 52.9201 103.266 52.8713C103.471 52.8225 103.66 52.7251 103.819 52.5875C103.926 52.5017 104.012 52.3938 104.073 52.2711C104.133 52.1485 104.166 52.0142 104.169 51.8775C104.177 51.6383 104.099 51.4041 103.949 51.2175C103.797 51.0344 103.614 50.8788 103.409 50.7575L102.779 50.3875C102.575 50.2694 102.392 50.1172 102.239 49.9375C102.092 49.765 102.014 49.5442 102.019 49.3175C102.018 49.2028 102.042 49.0893 102.091 48.9854C102.139 48.8815 102.211 48.7899 102.299 48.7175C102.505 48.5507 102.765 48.4653 103.029 48.4775C103.174 48.4775 103.317 48.5088 103.448 48.5692C103.579 48.6296 103.696 48.7177 103.789 48.8275V49.2375C103.709 49.0948 103.594 48.9754 103.453 48.8912C103.313 48.8071 103.153 48.761 102.989 48.7575L102.999 48.7475ZM107.909 52.8375V53.1175C107.688 53.122 107.469 53.0828 107.263 53.0021C107.057 52.9215 106.869 52.801 106.709 52.6475C106.545 52.4929 106.415 52.305 106.329 52.0964C106.243 51.8877 106.202 51.6631 106.209 51.4375V46.7975H106.529V48.6075H107.899V48.8875H106.529V51.4475C106.525 51.6308 106.558 51.813 106.626 51.9833C106.694 52.1537 106.795 52.3087 106.923 52.4393C107.052 52.5698 107.206 52.6732 107.375 52.7433C107.544 52.8135 107.726 52.8489 107.909 52.8475V52.8375ZM112.189 49.1875C112.063 49.048 111.909 48.9368 111.736 48.861C111.564 48.7851 111.378 48.7465 111.189 48.7475C111.015 48.7474 110.843 48.7829 110.683 48.8517C110.523 48.9204 110.379 49.0211 110.259 49.1475C110.133 49.2653 110.033 49.4077 109.964 49.566C109.895 49.7242 109.86 49.8949 109.859 50.0675V53.0675H109.539V48.5975H109.859V49.2675C109.988 49.0308 110.183 48.8364 110.419 48.7075C110.675 48.5605 110.965 48.4845 111.259 48.4875C111.583 48.494 111.896 48.6064 112.149 48.8075V49.2075L112.189 49.1875ZM118.359 48.5775V53.0475H117.999V51.9975C117.817 52.3699 117.528 52.6797 117.169 52.8875C116.81 53.1035 116.399 53.2175 115.979 53.2175C115.669 53.2224 115.36 53.1637 115.073 53.045C114.786 52.9263 114.526 52.7502 114.309 52.5275C114.088 52.3123 113.913 52.0549 113.793 51.7707C113.673 51.4864 113.611 51.181 113.611 50.8725C113.611 50.564 113.673 50.2586 113.793 49.9743C113.913 49.6901 114.088 49.4327 114.309 49.2175C114.526 48.9948 114.786 48.8187 115.073 48.7C115.36 48.5813 115.669 48.5226 115.979 48.5275C116.409 48.5291 116.831 48.6465 117.199 48.8675C117.562 49.0644 117.848 49.378 118.009 49.7575V48.5975L118.359 48.5775ZM113.999 50.8375C114.007 51.3714 114.218 51.8822 114.59 52.2653C114.962 52.6483 115.466 52.8746 115.999 52.8975C116.269 52.9019 116.536 52.8499 116.784 52.7449C117.032 52.6398 117.255 52.484 117.439 52.2875C117.825 51.9013 118.041 51.378 118.041 50.8325C118.041 50.287 117.825 49.7637 117.439 49.3775C117.256 49.1797 117.033 49.0223 116.785 48.9156C116.537 48.8088 116.269 48.755 115.999 48.7575C115.728 48.7572 115.46 48.812 115.211 48.9186C114.961 49.0251 114.737 49.1813 114.549 49.3775C114.354 49.5666 114.199 49.7936 114.094 50.0446C113.989 50.2956 113.936 50.5654 113.939 50.8375H113.999ZM122.049 52.8375V53.1175C121.828 53.122 121.609 53.0828 121.403 53.0021C121.197 52.9215 121.009 52.801 120.849 52.6475C120.685 52.4929 120.555 52.305 120.469 52.0964C120.383 51.8877 120.342 51.6631 120.349 51.4375V46.7975H120.669V48.6075H121.999V48.8875H120.629V51.4475C120.625 51.6308 120.658 51.813 120.726 51.9833C120.794 52.1537 120.895 52.3087 121.023 52.4393C121.152 52.5698 121.306 52.6732 121.475 52.7433C121.644 52.8135 121.826 52.8489 122.009 52.8475L122.049 52.8375ZM124.159 48.5975V53.0575H123.839V48.6075L124.159 48.5975ZM123.999 47.5075C123.806 47.5075 123.709 47.4175 123.709 47.2375C123.709 47.0575 123.806 46.9775 123.999 46.9975C124.193 46.9975 124.289 47.0875 124.289 47.2675C124.289 47.4475 124.193 47.5375 123.999 47.5375V47.5075ZM130.109 48.5875H130.399L128.199 53.1875L125.999 48.5975H126.349L128.239 52.5175L130.119 48.5975L130.109 48.5875ZM134.349 53.1775H134.259C133.952 53.178 133.648 53.1153 133.366 52.9931C133.083 52.871 132.829 52.6921 132.619 52.4675C132.397 52.254 132.221 51.9978 132.101 51.7142C131.98 51.4306 131.919 51.1256 131.919 50.8175C131.918 50.5124 131.98 50.2103 132.1 49.9299C132.221 49.6495 132.397 49.3968 132.619 49.1875C132.844 48.9614 133.112 48.7836 133.408 48.665C133.704 48.5463 134.021 48.4893 134.339 48.4975C134.674 48.4957 135.005 48.5673 135.309 48.7072C135.613 48.8471 135.883 49.0521 136.099 49.3075L132.979 52.3875C133.32 52.6987 133.758 52.8825 134.219 52.9075C134.594 52.915 134.963 52.8217 135.289 52.6375C135.602 52.4573 135.869 52.2075 136.069 51.9075V52.4175C135.857 52.6623 135.595 52.858 135.299 52.991C135.004 53.124 134.683 53.191 134.359 53.1875L134.349 53.1775ZM134.249 48.7675C133.726 48.7896 133.23 49.0074 132.86 49.3778C132.489 49.7482 132.272 50.2442 132.249 50.7675C132.241 51.2817 132.431 51.7796 132.779 52.1575L135.669 49.2875C135.284 48.9372 134.78 48.7445 134.259 48.7475L134.249 48.7675ZM140.999 45.6175V52.7775H143.299V53.0675H140.669V45.6175H140.999ZM147.199 53.1875H147.109C146.802 53.188 146.498 53.1253 146.216 53.0031C145.933 52.881 145.679 52.7021 145.469 52.4775C145.247 52.264 145.071 52.0078 144.951 51.7242C144.83 51.4406 144.769 51.1356 144.769 50.8275C144.768 50.5224 144.83 50.2203 144.95 49.9399C145.071 49.6595 145.247 49.4069 145.469 49.1975C145.694 48.9714 145.962 48.7936 146.258 48.675C146.554 48.5563 146.871 48.4993 147.189 48.5075C147.524 48.5057 147.855 48.5773 148.159 48.7172C148.463 48.8572 148.733 49.0621 148.949 49.3175L145.829 52.3975C146.17 52.7087 146.608 52.8925 147.069 52.9175C147.444 52.925 147.813 52.8317 148.139 52.6475C148.452 52.4673 148.719 52.2175 148.919 51.9175V52.4275C148.707 52.6723 148.445 52.868 148.149 53.001C147.854 53.134 147.533 53.201 147.209 53.1975L147.199 53.1875ZM147.099 48.7775C146.576 48.7996 146.08 49.0174 145.71 49.3878C145.339 49.7582 145.122 50.2542 145.099 50.7775C145.091 51.2917 145.281 51.7895 145.629 52.1675L148.519 49.2975C148.134 48.9472 147.63 48.7545 147.109 48.7575L147.099 48.7775ZM155.219 48.5975V53.0675H154.899V51.9975C154.717 52.3699 154.428 52.6797 154.069 52.8875C153.71 53.1035 153.299 53.2175 152.879 53.2175C152.569 53.2224 152.26 53.1637 151.973 53.045C151.686 52.9263 151.426 52.7502 151.209 52.5275C150.988 52.3123 150.813 52.0549 150.693 51.7707C150.573 51.4864 150.511 51.181 150.511 50.8725C150.511 50.564 150.573 50.2586 150.693 49.9743C150.813 49.6901 150.988 49.4327 151.209 49.2175C151.426 48.9948 151.686 48.8187 151.973 48.7C152.26 48.5813 152.569 48.5226 152.879 48.5275C153.309 48.5291 153.731 48.6465 154.099 48.8675C154.462 49.0644 154.748 49.378 154.909 49.7575V48.5975H155.219ZM150.829 50.8475C150.837 51.3914 151.057 51.9109 151.441 52.2956C151.826 52.6802 152.346 52.8997 152.889 52.9075C153.159 52.9119 153.426 52.8599 153.674 52.7549C153.922 52.6498 154.145 52.494 154.329 52.2975C154.715 51.9113 154.931 51.388 154.931 50.8425C154.931 50.297 154.715 49.7737 154.329 49.3875C154.146 49.1897 153.923 49.0323 153.675 48.9256C153.427 48.8188 153.159 48.765 152.889 48.7675C152.618 48.7672 152.35 48.822 152.101 48.9286C151.852 49.0351 151.627 49.1913 151.439 49.3875C151.244 49.5766 151.089 49.8036 150.984 50.0546C150.879 50.3056 150.826 50.5754 150.829 50.8475V50.8475ZM161.429 48.5975H161.749V52.6475C161.768 52.978 161.72 53.3089 161.611 53.6212C161.501 53.9335 161.33 54.221 161.109 54.4675C160.894 54.6906 160.634 54.8656 160.346 54.981C160.058 55.0965 159.749 55.1498 159.439 55.1375C159.058 55.1352 158.682 55.0463 158.339 54.8775C158.01 54.725 157.724 54.491 157.509 54.1975V53.7375C157.7 54.0713 157.981 54.3449 158.319 54.5275C158.661 54.7332 159.051 54.8437 159.449 54.8475C159.716 54.8562 159.981 54.8081 160.228 54.7064C160.475 54.6047 160.697 54.4517 160.879 54.2575C161.269 53.8145 161.47 53.2367 161.439 52.6475V51.9975C161.256 52.3672 160.963 52.6711 160.599 52.8675C160.239 53.0803 159.828 53.1941 159.409 53.1975C159.099 53.2024 158.79 53.1437 158.503 53.025C158.216 52.9063 157.956 52.7302 157.739 52.5075C157.518 52.2923 157.343 52.0349 157.223 51.7507C157.103 51.4664 157.041 51.161 157.041 50.8525C157.041 50.544 157.103 50.2386 157.223 49.9543C157.343 49.6701 157.518 49.4127 157.739 49.1975C157.956 48.9748 158.216 48.7987 158.503 48.68C158.79 48.5613 159.099 48.5026 159.409 48.5075C159.834 48.5043 160.252 48.6148 160.619 48.8275C160.982 49.0308 161.272 49.3418 161.449 49.7175V48.5975H161.429ZM157.349 50.8475C157.355 51.3932 157.573 51.9152 157.958 52.302C158.343 52.6888 158.864 52.9097 159.409 52.9175C159.679 52.9219 159.946 52.8699 160.194 52.7649C160.442 52.6598 160.665 52.504 160.849 52.3075C161.232 51.92 161.447 51.3972 161.447 50.8525C161.447 50.3078 161.232 49.785 160.849 49.3975C160.665 49.201 160.442 49.0452 160.194 48.9401C159.946 48.8351 159.679 48.7831 159.409 48.7875C158.864 48.7953 158.343 49.0162 157.958 49.403C157.573 49.7898 157.355 50.3118 157.349 50.8575V50.8475ZM167.409 48.5975H167.729V53.0675H167.409V52.1675C167.254 52.4882 167.006 52.7549 166.698 52.9332C166.39 53.1114 166.035 53.1931 165.679 53.1675C165.419 53.1733 165.159 53.1247 164.918 53.0248C164.677 52.925 164.46 52.776 164.279 52.5875C164.095 52.4049 163.949 52.1866 163.851 51.946C163.753 51.7053 163.705 51.4473 163.709 51.1875V48.5975H163.999V51.1975C163.997 51.4177 164.038 51.6362 164.121 51.8404C164.203 52.0447 164.325 52.2306 164.479 52.3875C164.627 52.5507 164.808 52.6806 165.01 52.7685C165.211 52.8565 165.429 52.9004 165.649 52.8975C165.875 52.8981 166.098 52.8532 166.306 52.7656C166.514 52.678 166.702 52.5494 166.859 52.3875C167.024 52.2361 167.155 52.0521 167.245 51.8473C167.334 51.6424 167.38 51.4211 167.379 51.1975V48.5975H167.409ZM171.919 53.1875H171.829C171.522 53.188 171.218 53.1253 170.936 53.0031C170.653 52.881 170.399 52.7021 170.189 52.4775C169.967 52.264 169.791 52.0078 169.671 51.7242C169.55 51.4406 169.489 51.1356 169.489 50.8275C169.488 50.5224 169.55 50.2203 169.67 49.9399C169.791 49.6595 169.967 49.4069 170.189 49.1975C170.414 48.9714 170.682 48.7936 170.978 48.675C171.274 48.5563 171.591 48.4993 171.909 48.5075C172.244 48.5057 172.575 48.5773 172.879 48.7172C173.183 48.8572 173.453 49.0621 173.669 49.3175L170.549 52.3975C170.89 52.7087 171.328 52.8925 171.789 52.9175C172.164 52.925 172.533 52.8317 172.859 52.6475C173.172 52.4673 173.439 52.2175 173.639 51.9175V52.4275C173.427 52.6723 173.165 52.868 172.869 53.001C172.574 53.134 172.253 53.201 171.929 53.1975L171.919 53.1875ZM171.819 48.7775C171.296 48.7996 170.8 49.0174 170.43 49.3878C170.059 49.7582 169.842 50.2542 169.819 50.7775C169.811 51.2917 170.001 51.7895 170.349 52.1675L173.239 49.2975C172.837 48.9365 172.31 48.7464 171.769 48.7675L171.819 48.7775Z" fill="#F29500"/>
<path d="M159.391 55.5081C158.954 55.5075 158.523 55.4084 158.131 55.2181C157.735 55.0448 157.391 54.7728 157.131 54.4281L157.061 54.3281V52.3681C156.702 51.8457 156.539 51.2139 156.599 50.5832C156.659 49.9525 156.939 49.3631 157.391 48.9181C157.642 48.6614 157.942 48.4582 158.274 48.3207C158.605 48.1832 158.962 48.1143 159.321 48.1181C159.808 48.1164 160.288 48.2441 160.711 48.4881L160.981 48.6681V48.2181H162.051V52.6481C162.088 53.4119 161.822 54.1595 161.311 54.7281C161.062 54.9843 160.763 55.1859 160.433 55.3202C160.102 55.4545 159.747 55.5185 159.391 55.5081V55.5081ZM157.271 52.6181L157.781 53.5681C157.938 53.8434 158.171 54.0687 158.451 54.2181C158.771 54.4321 159.155 54.5281 159.538 54.4898C159.921 54.4515 160.279 54.2812 160.551 54.0081C160.8 53.7309 160.951 53.3796 160.981 53.0081L160.721 53.1781C160.201 53.4874 159.593 53.614 158.993 53.5379C158.393 53.4618 157.836 53.1873 157.411 52.7581L157.271 52.6181ZM159.361 49.1581C159.034 49.163 158.715 49.2631 158.445 49.4461C158.174 49.6292 157.962 49.8872 157.836 50.1887C157.71 50.4901 157.674 50.8219 157.734 51.1433C157.793 51.4647 157.945 51.7617 158.171 51.9981C158.486 52.3098 158.913 52.4832 159.356 52.4804C159.8 52.4776 160.224 52.2987 160.536 51.9831C160.847 51.6675 161.021 51.241 161.018 50.7975C161.015 50.354 160.836 49.9298 160.521 49.6181C160.37 49.4639 160.189 49.3426 159.99 49.2617C159.79 49.1808 159.576 49.1421 159.361 49.1481V49.1581ZM128.171 54.0781L125.371 48.2381H126.551L128.201 51.6681L129.841 48.2381H131.001L128.171 54.0781ZM171.871 53.5781H171.781C171.423 53.5796 171.069 53.5075 170.74 53.3665C170.412 53.2254 170.116 53.0183 169.871 52.7581C169.613 52.5091 169.409 52.2107 169.27 51.8807C169.131 51.5508 169.059 51.1962 169.061 50.8381C169.057 50.4836 169.127 50.1322 169.264 49.8054C169.402 49.4787 169.605 49.1835 169.861 48.9381C170.122 48.6756 170.434 48.4693 170.778 48.3317C171.122 48.1941 171.49 48.1283 171.861 48.1381C172.242 48.1423 172.618 48.2284 172.963 48.3906C173.308 48.5528 173.614 48.7873 173.861 49.0781L174.101 49.3481L171.051 52.3481C171.282 52.4916 171.548 52.5677 171.821 52.5677C172.093 52.5677 172.359 52.4916 172.591 52.3481C172.854 52.1975 173.08 51.9889 173.251 51.7381L173.941 50.7381V52.6181L173.841 52.7281C173.59 52.9987 173.285 53.2127 172.945 53.3559C172.605 53.499 172.239 53.5679 171.871 53.5581V53.5781ZM171.771 49.1681C171.342 49.1876 170.936 49.3667 170.633 49.6701C170.329 49.9736 170.15 50.3795 170.131 50.8081C170.127 51.0908 170.196 51.3697 170.331 51.6181L172.591 49.3681C172.341 49.2254 172.058 49.1496 171.771 49.1481V49.1681ZM147.161 53.5781H147.071C146.713 53.5796 146.359 53.5075 146.03 53.3665C145.702 53.2254 145.406 53.0183 145.161 52.7581C144.903 52.5091 144.699 52.2107 144.56 51.8807C144.421 51.5508 144.349 51.1962 144.351 50.8381C144.349 50.4829 144.419 50.131 144.559 49.8042C144.698 49.4775 144.903 49.1827 145.161 48.9381C145.422 48.6751 145.734 48.4685 146.078 48.3309C146.422 48.1933 146.79 48.1277 147.161 48.1381C147.542 48.1423 147.918 48.2284 148.263 48.3906C148.608 48.5528 148.914 48.7873 149.161 49.0781L149.401 49.3481L146.351 52.3481C146.582 52.4916 146.848 52.5677 147.121 52.5677C147.393 52.5677 147.659 52.4916 147.891 52.3481C148.154 52.1975 148.38 51.9889 148.551 51.7381L149.241 50.7381V52.6181L149.141 52.7281C148.889 53 148.582 53.2148 148.241 53.3579C147.899 53.5011 147.531 53.5694 147.161 53.5581V53.5781ZM147.061 49.1681C146.632 49.1876 146.226 49.3667 145.923 49.6701C145.619 49.9736 145.44 50.3795 145.421 50.8081C145.417 51.0908 145.486 51.3697 145.621 51.6181L147.881 49.3681C147.628 49.2237 147.342 49.1479 147.051 49.1481L147.061 49.1681ZM134.331 53.5781H134.241C133.883 53.5796 133.529 53.5075 133.2 53.3665C132.872 53.2254 132.576 53.0183 132.331 52.7581C132.073 52.5091 131.869 52.2107 131.73 51.8807C131.591 51.5508 131.519 51.1962 131.521 50.8381C131.519 50.4829 131.589 50.131 131.729 49.8042C131.868 49.4775 132.073 49.1827 132.331 48.9381C132.592 48.6751 132.904 48.4685 133.248 48.3309C133.592 48.1933 133.96 48.1277 134.331 48.1381C134.712 48.1423 135.088 48.2284 135.433 48.3906C135.778 48.5528 136.084 48.7873 136.331 49.0781L136.571 49.3481L133.521 52.3481C133.752 52.4916 134.018 52.5677 134.291 52.5677C134.563 52.5677 134.829 52.4916 135.061 52.3481C135.324 52.1975 135.55 51.9889 135.721 51.7381L136.411 50.7381V52.6181L136.311 52.7281C136.058 53.0013 135.749 53.2168 135.406 53.36C135.063 53.5033 134.692 53.5708 134.321 53.5581L134.331 53.5781ZM134.231 49.1681C133.802 49.1876 133.396 49.3667 133.093 49.6701C132.789 49.9736 132.61 50.3795 132.591 50.8081C132.587 51.0908 132.656 51.3697 132.791 51.6181L135.001 49.3581C134.759 49.2238 134.487 49.1516 134.211 49.1481L134.231 49.1681ZM165.641 53.5681C165.33 53.5748 165.021 53.5169 164.733 53.3981C164.446 53.2794 164.186 53.1023 163.971 52.8781C163.753 52.6606 163.582 52.4015 163.467 52.1163C163.352 51.8311 163.295 51.5256 163.301 51.2181V48.2181H164.371V51.2181C164.369 51.3906 164.402 51.5616 164.467 51.7213C164.532 51.881 164.629 52.0261 164.751 52.1481C164.868 52.2741 165.011 52.3745 165.169 52.4431C165.327 52.5118 165.498 52.5472 165.671 52.5472C165.843 52.5472 166.014 52.5118 166.172 52.4431C166.33 52.3745 166.473 52.2741 166.591 52.1481C166.719 52.032 166.823 51.8901 166.893 51.7316C166.964 51.5732 167 51.4016 167.001 51.2281V48.2281H168.001V53.4481H167.001V53.1781C166.593 53.4397 166.114 53.5689 165.631 53.5481L165.641 53.5681ZM152.841 53.5681C152.482 53.5719 152.125 53.503 151.794 53.3655C151.462 53.228 151.162 53.0248 150.911 52.7681C150.655 52.5177 150.453 52.2189 150.314 51.8893C150.176 51.5596 150.105 51.2057 150.105 50.8481C150.105 50.4906 150.176 50.1366 150.314 49.807C150.453 49.4773 150.655 49.1785 150.911 48.9281C151.162 48.6714 151.462 48.4682 151.794 48.3307C152.125 48.1932 152.482 48.1243 152.841 48.1281C153.337 48.1294 153.824 48.2641 154.251 48.5181L154.501 48.6781V48.2381H155.571V53.4581H154.501V52.9981L154.231 53.1781C153.804 53.4294 153.316 53.5574 152.821 53.5481L152.841 53.5681ZM152.841 49.1581C152.619 49.1557 152.4 49.1998 152.196 49.2877C151.993 49.3756 151.811 49.5052 151.661 49.6681C151.501 49.822 151.374 50.0069 151.288 50.2115C151.202 50.4161 151.158 50.6362 151.161 50.8581C151.158 51.0787 151.201 51.2973 151.287 51.5004C151.373 51.7034 151.5 51.8865 151.661 52.0381C151.893 52.2728 152.19 52.4329 152.513 52.498C152.837 52.5631 153.173 52.5302 153.478 52.4036C153.782 52.2769 154.043 52.0622 154.225 51.7869C154.407 51.5116 154.503 51.1882 154.501 50.8581C154.503 50.637 154.461 50.4176 154.377 50.2131C154.293 50.0085 154.168 49.8232 154.011 49.6681C153.863 49.5005 153.682 49.3665 153.478 49.2751C153.275 49.1836 153.054 49.1369 152.831 49.1381L152.841 49.1581ZM116.001 53.5481C115.642 53.5519 115.285 53.483 114.954 53.3455C114.622 53.208 114.322 53.0048 114.071 52.7481C113.815 52.4977 113.613 52.1989 113.474 51.8693C113.336 51.5396 113.265 51.1857 113.265 50.8281C113.265 50.4706 113.336 50.1166 113.474 49.787C113.613 49.4573 113.815 49.1585 114.071 48.9081C114.322 48.6514 114.622 48.4482 114.954 48.3107C115.285 48.1732 115.642 48.1043 116.001 48.1081C116.497 48.1094 116.984 48.2441 117.411 48.4981L117.661 48.6581V48.2181H118.731V53.4381H117.661V52.9981L117.391 53.1781C116.97 53.4258 116.489 53.5538 116.001 53.5481V53.5481ZM116.001 49.1381C115.779 49.1357 115.56 49.1798 115.356 49.2677C115.153 49.3556 114.971 49.4852 114.821 49.6481C114.661 49.802 114.534 49.9869 114.448 50.1915C114.362 50.3961 114.318 50.6162 114.321 50.8381C114.318 51.0586 114.361 51.2773 114.447 51.4804C114.533 51.6834 114.66 51.8665 114.821 52.0181C115.053 52.2528 115.35 52.4129 115.673 52.478C115.997 52.5431 116.333 52.5102 116.638 52.3836C116.942 52.2569 117.203 52.0422 117.385 51.7669C117.567 51.4916 117.663 51.1682 117.661 50.8381C117.663 50.617 117.621 50.3976 117.537 50.1931C117.453 49.9885 117.328 49.8032 117.171 49.6481C117.023 49.4854 116.842 49.3559 116.64 49.268C116.438 49.1801 116.221 49.1358 116.001 49.1381V49.1381ZM103.001 53.5481C102.685 53.5509 102.373 53.479 102.091 53.3381C101.812 53.2044 101.581 52.9878 101.431 52.7181V52.5381V50.3181L102.151 51.8981C102.203 52.0399 102.289 52.1668 102.401 52.2683C102.513 52.3698 102.648 52.4428 102.794 52.481C102.94 52.5193 103.094 52.5217 103.241 52.4882C103.388 52.4546 103.525 52.386 103.641 52.2881C103.709 52.2384 103.765 52.1739 103.805 52.0995C103.845 52.025 103.867 51.9425 103.871 51.8581C103.876 51.7058 103.826 51.5566 103.731 51.4381C103.606 51.2907 103.457 51.1656 103.291 51.0681L102.661 50.6981C102.422 50.5581 102.209 50.3789 102.031 50.1681C101.826 49.9289 101.715 49.623 101.721 49.3081C101.719 49.1402 101.755 48.9741 101.826 48.8218C101.897 48.6696 102.001 48.5351 102.131 48.4281C102.422 48.1985 102.788 48.0855 103.158 48.1114C103.527 48.1373 103.874 48.3002 104.131 48.5681L104.231 48.6781V50.4081C104.382 50.5337 104.516 50.6782 104.631 50.8381C104.823 51.1058 104.925 51.4283 104.921 51.7581C104.911 51.997 104.851 52.2312 104.744 52.4451C104.638 52.6589 104.486 52.8475 104.301 52.9981C103.955 53.3434 103.489 53.5406 103.001 53.5481V53.5481ZM103.001 49.1281C102.923 49.1276 102.848 49.1561 102.791 49.2081C102.769 49.2219 102.751 49.2411 102.738 49.2639C102.726 49.2867 102.72 49.3123 102.721 49.3381C102.721 49.3381 102.721 49.4181 102.821 49.5181C102.96 49.6465 103.114 49.7573 103.281 49.8481L103.931 50.2281L104.091 50.3381L103.491 49.4381C103.445 49.3467 103.375 49.2694 103.289 49.2148C103.202 49.1601 103.103 49.1302 103.001 49.1281V49.1281ZM78.0005 53.5481C77.6398 53.5533 77.2818 53.485 76.9483 53.3475C76.6148 53.21 76.3128 53.0061 76.0605 52.7481C75.8066 52.497 75.6049 52.198 75.4673 51.8684C75.3297 51.5389 75.2589 51.1853 75.2589 50.8281C75.2589 50.471 75.3297 50.1174 75.4673 49.7878C75.6049 49.4582 75.8066 49.1592 76.0605 48.9081C76.3128 48.6502 76.6148 48.4463 76.9483 48.3087C77.2818 48.1712 77.6398 48.1029 78.0005 48.1081C78.4828 48.1116 78.9555 48.2427 79.3706 48.4881L79.6506 48.6681V45.2381H80.7005V53.4381H79.6305V52.9981L79.3306 53.1981C78.925 53.4281 78.4667 53.5487 78.0005 53.5481V53.5481ZM78.0005 49.1381C77.7813 49.1346 77.5639 49.1773 77.3623 49.2634C77.1607 49.3496 76.9795 49.4772 76.8306 49.6381C76.5167 49.9546 76.3405 50.3824 76.3405 50.8281C76.3405 51.2739 76.5167 51.7016 76.8306 52.0181C76.9826 52.1763 77.1651 52.3022 77.367 52.3881C77.5689 52.4741 77.7861 52.5184 78.0055 52.5184C78.225 52.5184 78.4422 52.4741 78.6441 52.3881C78.846 52.3022 79.0285 52.1763 79.1805 52.0181C79.3407 51.8665 79.4678 51.6834 79.5539 51.4804C79.6399 51.2773 79.683 51.0586 79.6805 50.8381C79.6826 50.6162 79.6393 50.3961 79.5534 50.1915C79.4674 49.9869 79.3405 49.802 79.1805 49.6481C79.0306 49.4852 78.848 49.3556 78.6448 49.2677C78.4415 49.1798 78.222 49.1357 78.0005 49.1381V49.1381ZM122.421 53.4981H122.001C121.731 53.5022 121.463 53.4531 121.213 53.3535C120.962 53.254 120.734 53.106 120.541 52.9181C120.342 52.7267 120.186 52.4965 120.081 52.2418C119.976 51.9871 119.925 51.7135 119.931 51.4381V46.4381H121.001V48.2481H122.371V49.2481H121.001V51.4381C120.996 51.5747 121.019 51.7109 121.069 51.8382C121.119 51.9655 121.194 52.0811 121.291 52.1781C121.384 52.2708 121.495 52.3441 121.617 52.3939C121.738 52.4437 121.869 52.4689 122.001 52.4681H122.381L122.421 53.4981ZM108.311 53.4981H107.941C107.671 53.5022 107.403 53.4531 107.153 53.3535C106.902 53.254 106.674 53.106 106.481 52.9181C106.282 52.7267 106.126 52.4965 106.021 52.2418C105.916 51.9871 105.865 51.7135 105.871 51.4381V46.4381H106.941V48.2481H108.311V49.2481H106.901V51.4381C106.896 51.5747 106.919 51.7109 106.969 51.8382C107.019 51.9655 107.094 52.0811 107.191 52.1781C107.284 52.2708 107.395 52.3441 107.517 52.3939C107.638 52.4437 107.769 52.4689 107.901 52.4681H108.281L108.311 53.4981ZM143.661 53.4381H140.281V45.2381H141.361V52.3981H143.661V53.4381ZM124.531 53.4381H123.461V48.2281H124.531V53.4381ZM110.291 53.4381H109.221V48.2181H110.291V48.3781C110.621 48.1871 111 48.0975 111.38 48.1207C111.761 48.1438 112.126 48.2785 112.431 48.5081L112.581 48.6181V50.1081L111.941 49.4681C111.856 49.3707 111.752 49.2925 111.634 49.239C111.517 49.1854 111.39 49.1577 111.261 49.1577C111.132 49.1577 111.004 49.1854 110.887 49.239C110.769 49.2925 110.665 49.3707 110.581 49.4681C110.489 49.5518 110.416 49.6538 110.366 49.7674C110.316 49.8811 110.29 50.004 110.291 50.1281V53.4381ZM97.7206 53.4381H96.6305V50.4381C96.6321 50.2656 96.5993 50.0946 96.534 49.9349C96.4688 49.7753 96.3724 49.6302 96.2505 49.5081C96.1327 49.3822 95.9902 49.2818 95.832 49.2131C95.6737 49.1445 95.503 49.1091 95.3306 49.1091C95.1581 49.1091 94.9874 49.1445 94.8291 49.2131C94.6709 49.2818 94.5284 49.3822 94.4106 49.5081C94.2817 49.6243 94.1786 49.7661 94.1079 49.9246C94.0373 50.0831 94.0007 50.2546 94.0005 50.4281V53.4281H92.9305V48.2181H94.0005V48.4881C94.4014 48.227 94.8724 48.0944 95.3505 48.1081C95.6581 48.1048 95.963 48.1643 96.2467 48.283C96.5304 48.4016 96.7869 48.5769 97.0005 48.7981C97.218 49.0156 97.3894 49.2747 97.5045 49.5599C97.6196 49.8451 97.6761 50.1506 97.6705 50.4581L97.7206 53.4381ZM91.5205 53.4381H90.4205V48.2281H91.4905L91.5205 53.4381ZM89.0106 53.4381H87.9106V50.1081C87.916 49.9792 87.8949 49.8505 87.8484 49.73C87.802 49.6096 87.7312 49.5 87.6405 49.4081C87.5555 49.3186 87.4532 49.2472 87.3397 49.1985C87.2262 49.1498 87.104 49.1246 86.9806 49.1246C86.8571 49.1246 86.7349 49.1498 86.6214 49.1985C86.5079 49.2472 86.4056 49.3186 86.3205 49.4081C86.2273 49.489 86.1523 49.5888 86.1006 49.7008C86.0489 49.8129 86.0216 49.9347 86.0205 50.0581V53.4081H85.0005V50.0881C85.0025 49.9641 84.9796 49.8409 84.9333 49.7258C84.8869 49.6108 84.818 49.5061 84.7306 49.4181C84.5968 49.2926 84.4296 49.2084 84.2491 49.1758C84.0686 49.1432 83.8825 49.1636 83.7133 49.2344C83.5442 49.3053 83.3991 49.4236 83.2957 49.5751C83.1923 49.7266 83.1349 49.9048 83.1305 50.0881V53.4381H82.0005V48.2181H83.0705V48.3981C83.3763 48.2149 83.7297 48.1265 84.0857 48.1443C84.4418 48.1621 84.7846 48.2853 85.0705 48.4981C85.1919 48.5886 85.3026 48.6926 85.4006 48.8081C85.5086 48.6821 85.633 48.5711 85.7705 48.4781C86.1576 48.2205 86.6195 48.0994 87.0832 48.1338C87.5468 48.1682 87.9858 48.3562 88.3306 48.6681C88.5385 48.8465 88.7059 49.0672 88.8214 49.3156C88.937 49.564 88.9981 49.8342 89.0005 50.1081L89.0106 53.4381ZM74.7306 53.4381H73.5205L72.1105 50.5981H68.6005L67.2105 53.4381H66.0605L70.3706 44.5781L74.7306 53.4381ZM69.1206 49.5581H71.6506L70.3505 46.9981L69.1206 49.5581ZM100.201 53.3981H99.1305V48.2181H100.201V53.3981ZM124.001 47.8881C123.875 47.8842 123.753 47.8433 123.651 47.7707C123.548 47.698 123.469 47.5967 123.424 47.4795C123.378 47.3623 123.368 47.2343 123.395 47.1115C123.422 46.9887 123.485 46.8765 123.575 46.789C123.665 46.7015 123.779 46.6425 123.903 46.6194C124.026 46.5962 124.154 46.61 124.27 46.659C124.386 46.708 124.484 46.79 124.554 46.8947C124.623 46.9995 124.66 47.1224 124.661 47.2481C124.664 47.3347 124.648 47.4209 124.616 47.5012C124.584 47.5816 124.535 47.6542 124.473 47.7145C124.41 47.7748 124.336 47.8214 124.255 47.8513C124.174 47.8812 124.087 47.8938 124.001 47.8881V47.8881ZM124.001 47.3481C124.032 47.317 124.056 47.2795 124.071 47.2381C124.056 47.2047 124.032 47.1766 124.001 47.1581V47.1581C123.978 47.1689 123.959 47.1843 123.944 47.2033C123.928 47.2223 123.917 47.2444 123.911 47.2681C123.93 47.3043 123.962 47.3326 124.001 47.3481V47.3481ZM99.7005 47.8881C99.5749 47.8842 99.4532 47.8433 99.3506 47.7707C99.248 47.698 99.1691 47.5967 99.1237 47.4795C99.0783 47.3623 99.0685 47.2343 99.0954 47.1115C99.1223 46.9887 99.1848 46.8765 99.275 46.789C99.3653 46.7015 99.4793 46.6425 99.6029 46.6194C99.7264 46.5962 99.8541 46.61 99.9699 46.659C100.086 46.708 100.184 46.79 100.254 46.8947C100.323 46.9995 100.36 47.1224 100.361 47.2481C100.364 47.3374 100.348 47.4265 100.314 47.5091C100.28 47.5917 100.228 47.6659 100.163 47.7267C100.097 47.7875 100.019 47.8334 99.9343 47.8613C99.8493 47.8891 99.7594 47.8983 99.6705 47.8881H99.7005ZM99.7005 47.3481C99.7314 47.3168 99.7553 47.2793 99.7705 47.2381C99.7558 47.205 99.7314 47.1771 99.7005 47.1581V47.1581C99.6785 47.1689 99.659 47.1843 99.6435 47.2033C99.628 47.2223 99.6167 47.2444 99.6105 47.2681C99.6226 47.2999 99.6434 47.3277 99.6705 47.3481H99.7005ZM91.0005 47.8881C90.8749 47.8842 90.7532 47.8433 90.6506 47.7707C90.548 47.698 90.4691 47.5967 90.4237 47.4795C90.3783 47.3623 90.3685 47.2343 90.3954 47.1115C90.4223 46.9887 90.4848 46.8765 90.575 46.789C90.6653 46.7015 90.7793 46.6425 90.9029 46.6194C91.0264 46.5962 91.1541 46.61 91.2699 46.659C91.3857 46.708 91.4844 46.79 91.5539 46.8947C91.6234 46.9995 91.6605 47.1224 91.6606 47.2481C91.6635 47.3347 91.6483 47.4209 91.616 47.5012C91.5836 47.5816 91.5347 47.6542 91.4725 47.7145C91.4103 47.7748 91.3362 47.8214 91.2549 47.8513C91.1736 47.8812 91.087 47.8938 91.0005 47.8881V47.8881ZM91.0005 47.3481C91.0314 47.3168 91.0553 47.2793 91.0705 47.2381C91.0564 47.2047 91.0318 47.1766 91.0005 47.1581V47.1581C90.9785 47.1689 90.959 47.1843 90.9435 47.2033C90.928 47.2223 90.9167 47.2444 90.9106 47.2681C90.9305 47.3043 90.9623 47.3326 91.0005 47.3481V47.3481Z" fill="#F7931E"/>
<path fill-rule="evenodd" clip-rule="evenodd" d="M0 56.7535C3.11 48.2235 23.55 0.203537 37.48 15.1535C43.17 21.2535 51.48 33.8435 54.8 42.4935C58.12 51.1435 54.93 56.7335 46.92 56.7335C38.91 56.7335 24.68 53.4235 33.47 40.5835C42.26 27.7435 47.68 19.2235 56.6 13.5835C56.6 13.5835 44.38 29.7735 42 38.5035C40.51 44.0035 38.12 51.0035 44.71 51.7635C51.3 52.5235 55.56 51.0035 51.71 40.8335C48.85 33.3735 39.57 21.0035 36.05 16.6735C32.53 12.3435 28.97 13.5235 22.05 26.3335C15.13 39.1435 11.27 56.7935 11.27 56.7935L0 56.7535Z" fill="#F29500"/>
<path fill-rule="evenodd" clip-rule="evenodd" d="M45.2695 24.0391L47.6995 26.7591L45.5295 30.4991L42.9395 27.0191L45.2695 24.0391Z" fill="#F29500"/>
<path fill-rule="evenodd" clip-rule="evenodd" d="M47.1102 28.0206L44.7002 24.3906L42.9102 25.8206L45.9102 30.2506L47.1102 28.0206Z" fill="#F29500"/>
<path fill-rule="evenodd" clip-rule="evenodd" d="M57.3095 14.1328L58.4895 15.8828L59.6695 17.6228H57.3095H54.9395L56.1195 15.8828L57.3095 14.1328Z" fill="#F29500"/>
<path fill-rule="evenodd" clip-rule="evenodd" d="M61.8995 11.7422L62.9395 13.3022L63.9895 14.8722L62.4195 15.9122L60.8595 16.9622L59.8095 15.3922L58.7695 13.8322L60.3295 12.7822L61.8995 11.7422Z" fill="#F29500"/>
<path fill-rule="evenodd" clip-rule="evenodd" d="M28.6707 30.4183C31.2107 25.6383 33.2007 26.2883 35.4707 30.5383C37.7407 34.7883 36.3307 35.3483 32.2307 35.3483C28.1307 35.3483 26.1407 35.1783 28.6707 30.4183Z" fill="#F29500"/>
<path d="M69.5897 20.6306H72.8297C72.1316 22.4367 70.9352 24.0076 69.3797 25.1606H71.1597V33.3206C71.1597 34.6206 70.573 35.2706 69.3997 35.2706H67.8197V26.4206L66.1797 26.8306V23.4106C67.4841 22.9432 68.5865 22.0386 69.2997 20.8506C68.3441 21.4828 67.2991 21.9682 66.1997 22.2906V18.9506C67.588 18.2863 68.7446 17.2202 69.5197 15.8906H72.8597C72.1646 17.7095 71.0432 19.335 69.5897 20.6306V20.6306ZM82.9997 34.6006C82.85 34.8136 82.6507 34.9869 82.4189 35.1054C82.1871 35.2239 81.93 35.284 81.6697 35.2806H76.3997V32.7206H79.5397C79.6357 32.7336 79.7334 32.721 79.8229 32.6842C79.9125 32.6473 79.9907 32.5874 80.0497 32.5106C80.1607 32.3644 80.2172 32.1841 80.2097 32.0006V26.6206C80.2097 25.2006 79.4497 24.4906 77.9297 24.4906H73.3597V21.7806H85.5197V24.4906H83.4497V33.2706C83.4528 33.7518 83.2943 34.2201 82.9997 34.6006V34.6006ZM85.1697 15.9006V18.6306H74.0797V15.9006H85.1697Z" fill="#F29500"/>
<path d="M98.4106 19.0506H95.5605V16.4106H104.911V19.0606H103.191V23.2406H104.851V25.8706H103.191V32.6206H104.931V35.2706H98.3905C96.7372 35.2706 95.9106 34.4173 95.9106 32.7106V20.5506H98.5806V32.6106H99.8706V20.6106C99.8706 19.5706 99.3839 19.0506 98.4106 19.0506ZM107.061 15.8906H110.201L109.711 17.8906H113.071C113.537 17.9506 113.964 18.1851 114.264 18.5469C114.565 18.9087 114.717 19.371 114.691 19.8406C114.703 20.0104 114.703 20.1809 114.691 20.3506L111.691 28.7006L114.911 35.3406H111.651L110.091 32.4106L109.151 34.6906C109.071 34.8895 108.933 35.0593 108.754 35.1773C108.575 35.2952 108.365 35.3557 108.151 35.3506H105.441L108.251 28.7506L106.861 26.0006C106.831 25.7939 106.728 25.6049 106.57 25.4687C106.412 25.3325 106.209 25.2586 106.001 25.2606H105.941H105.531V23.0706H107.831C108.137 23.0326 108.448 23.0987 108.713 23.2582C108.977 23.4178 109.181 23.6616 109.291 23.9506L109.801 24.9506L111.281 20.4406H109.001L108.531 21.8306C108.446 22.0208 108.304 22.1799 108.125 22.2856C107.946 22.3914 107.738 22.4386 107.531 22.4206H105.131L107.061 15.8906Z" fill="#F29500"/>
<path d="M133.6 31.0484V33.7384H132.72V35.2584H129.72V34.6984C129.72 34.0318 129.263 33.6984 128.35 33.6984H125V31.0484H125.66V18.7684H125V16.0784H130.46H133.23V18.7684H132.78V31.0484H133.6ZM128.49 21.0484H129.74V19.7084C129.74 19.0818 129.493 18.7684 129 18.7684H128.49V21.0484ZM128.49 26.1584H129.74V24.7784C129.74 24.1118 129.493 23.7784 129 23.7784H128.49V26.1584ZM128.49 31.0184H129.74V29.7584C129.74 29.1718 129.493 28.8784 129 28.8784H128.49V31.0184ZM136.63 27.0184H133.51V24.3684H137.06V23.1584C137.06 22.2451 136.547 21.7884 135.52 21.7884H133.6V19.0984H135.1L133.95 16.0984H137.13C137.797 18.0984 138.343 19.0984 138.77 19.0984C139.197 19.0984 139.697 18.0318 140.27 15.8984H143.45L142.45 19.0984H144V21.7884H140.41V24.3684H144.16V27.0584H140L139.63 28.4984H141.72L144.28 35.2684H141L139 30.1184L137.28 35.2684H133.73L136.63 27.0184Z" fill="#F29500"/>
<path d="M172.859 28.9997V32.4897H173.719V33.5597C173.719 34.7064 173.103 35.2797 171.869 35.2797H154.359V32.4697H155.429V29.3097C155.429 27.6964 156.276 26.8764 157.969 26.8497H170.229C171.849 27.0097 172.726 27.7264 172.859 28.9997ZM163.219 26.3297H154.609V18.2297C154.609 16.723 155.443 15.9697 157.109 15.9697H160.719C162.386 15.9697 163.219 16.6797 163.219 18.0997V26.3297ZM160.219 19.9697V19.4397C160.219 18.773 159.906 18.4397 159.279 18.4397H157.519V19.9997L160.219 19.9697ZM157.509 22.3097V23.8297H160.179V23.0697C160.179 22.563 159.866 22.3097 159.239 22.3097H157.509ZM158.509 32.4797H160.509V30.6197C160.509 29.9064 160.176 29.5497 159.509 29.5497H158.509V32.4797ZM163.229 32.4797H165.119V30.6197C165.119 29.9064 164.806 29.5497 164.179 29.5497H163.239L163.229 32.4797ZM171.839 26.4797H170.399V24.9997C170.399 24.373 170.029 24.0597 169.289 24.0597H167.289V26.3197H164.289V18.1897C164.289 16.683 165.083 15.9297 166.669 15.9297H171.059C172.673 15.9297 173.479 16.633 173.479 18.0397V18.0997V24.9897C173.502 25.197 173.476 25.4067 173.405 25.6025C173.333 25.7984 173.217 25.9751 173.067 26.1191C172.916 26.2632 172.734 26.3706 172.535 26.4331C172.336 26.4956 172.125 26.5116 171.919 26.4797H171.839ZM169.169 17.9097H167.169V19.1397H170.289V18.6897C170.363 18.1697 170.016 17.9097 169.249 17.9097H169.169ZM169.169 21.0297H167.169V22.2197H170.289V21.7697C170.363 21.2564 170.016 20.9997 169.249 20.9997L169.169 21.0297ZM167.729 32.4697H169.779V30.5797V30.4397C169.779 29.853 169.446 29.5597 168.779 29.5597H167.779L167.729 32.4697Z" fill="#F29500"/>
</svg>
