<svg id="图层_1" data-name="图层 1" xmlns="http://www.w3.org/2000/svg" xmlns:xlink="http://www.w3.org/1999/xlink" viewBox="0 0 451.95 192.41"><defs><style>.cls-1{fill:#231815;fill-rule:evenodd;}.cls-2{fill:url(#linear-gradient);}.cls-3{fill:url(#radial-gradient);}.cls-4{fill:url(#radial-gradient-2);}.cls-5{fill:url(#未命名的渐变_165);}.cls-6{fill:url(#linear-gradient-2);}.cls-7{fill:url(#radial-gradient-3);}.cls-8{fill:url(#未命名的渐变_75);}</style><linearGradient id="linear-gradient" x1="212.22" y1="288.21" x2="217.8" y2="317.5" gradientUnits="userSpaceOnUse"><stop offset="0" stop-color="#f2e636"/><stop offset="1" stop-color="#f5c82f"/></linearGradient><radialGradient id="radial-gradient" cx="87.32" cy="288.35" r="35.21" gradientUnits="userSpaceOnUse"><stop offset="0.26" stop-color="#b6d7f1"/><stop offset="0.85" stop-color="#7ecdf3"/></radialGradient><radialGradient id="radial-gradient-2" cx="167.09" cy="371.33" r="133.68" gradientUnits="userSpaceOnUse"><stop offset="0.23" stop-color="#2ea7e0"/><stop offset="0.25" stop-color="#00a0e9"/><stop offset="0.37" stop-color="#05a2e9"/><stop offset="0.5" stop-color="#12a7ea"/><stop offset="0.64" stop-color="#29b0ec"/><stop offset="0.79" stop-color="#48bdee"/><stop offset="0.87" stop-color="#5dc5ef"/><stop offset="0.96" stop-color="#90d2e2"/></radialGradient><radialGradient id="未命名的渐变_165" cx="165.32" cy="350.02" r="113.95" gradientUnits="userSpaceOnUse"><stop offset="0.46" stop-color="#ee751b"/><stop offset="0.6" stop-color="#f49b19"/><stop offset="0.75" stop-color="#f6e36a"/></radialGradient><linearGradient id="linear-gradient-2" x1="50.55" y1="344.38" x2="214.98" y2="344.38" gradientUnits="userSpaceOnUse"><stop offset="0" stop-color="#171c61"/><stop offset="0.43" stop-color="#00a0e9"/><stop offset="0.78" stop-color="#2383b2"/><stop offset="0.9" stop-color="#2d96c8"/><stop offset="1" stop-color="#36bdef"/></linearGradient><radialGradient id="radial-gradient-3" cx="133.68" cy="413.06" r="36.68" gradientUnits="userSpaceOnUse"><stop offset="0" stop-color="#87bd24"/><stop offset="1" stop-color="#d4e16b"/></radialGradient><radialGradient id="未命名的渐变_75" cx="127.09" cy="377.75" fx="176.03220161359093" fy="351.62174318831006" r="65.27" gradientUnits="userSpaceOnUse"><stop offset="0.25" stop-color="#75a62d"/><stop offset="0.61" stop-color="#6ea52f"/><stop offset="0.88" stop-color="#79b72a"/><stop offset="1" stop-color="#bfd626"/></radialGradient></defs><title>诺云直播logo源文件</title><path class="cls-1" d="M334.77,332.17c13.26,0,26.49,0,39.72,0a15.11,15.11,0,0,1,15,15.18c-.13,6.14,0,12.27,0,18.41a15.28,15.28,0,0,1-15.23,15.35q-17.33,0-34.64,0a15.22,15.22,0,0,1-15.3-15.27c0-5.41,0-10.83,0-16.24,0-.85-.1-1.71-.2-3.17l-5.48,5.07-6-5.44c7.87-7.67,14.68-15.84,18.76-26.53H315.1a58.64,58.64,0,0,1,.1-6.85c.08-.6,1.37-1.47,2.12-1.49,4.78-.14,9.57-.15,14.34-.05,1.92,0,3-.42,3.35-2.52a50.46,50.46,0,0,1,1.63-6.82c.21-.69,1.06-1.77,1.52-1.72,2.27.25,4.52.81,6.82,1.27-.68,3.38-1.27,6.35-2,9.76h3.57c14.25,0,28.51.05,42.76,0,2.14,0,2.81.58,2.74,2.73-.22,6.71.89,5.64-5.77,5.67q-21.51.07-43,0c-2.08,0-3.23.54-4,2.54C337.89,325.52,336.21,329,334.77,332.17Zm22.06,40.53h0c5.77,0,11.54.07,17.31,0,4.24-.08,7-2.76,7.05-6.93q.15-9.19,0-18.39c-.07-4.08-2.74-6.92-6.73-7q-17.31-.15-34.61,0c-4.47,0-7.23,2.95-7.29,7.34q-.12,8.79,0,17.58c.07,4.57,2.92,7.33,7.53,7.36C345.65,372.74,351.24,372.7,356.83,372.7Z" transform="translate(-61.74 -246.95)"/><path class="cls-1" d="M426.3,317.54H409.37c-3.87,0-3.9,0-3.87-3.81,0-5.11-.59-4.44,4.46-4.44q49.67,0,99.33,0h3.47c0,2.47.1,4.62-.06,6.75-.05.53-.84,1.23-1.44,1.44a7.42,7.42,0,0,1-2.41.08c-23.46,0-46.92,0-70.37-.06-2.85,0-4,.7-4.68,3.65-3.59,15.42-7.44,30.79-11.32,46.14-.56,2.24,0,2.63,2.1,2.63,22.1,0,44.21,0,66.31,0,4.89,0,7.69-3,7.73-8.37,0-6.31,0-12.63,0-18.94,0-3.93,0-3.94,3.82-3.93,4.91,0,4.41-.43,4.42,4.29q0,9.61,0,19.22c0,9.21-6.28,15.92-15.44,16-25.53.12-51.06,0-76.59,0a25.43,25.43,0,0,1-2.64-.32Z" transform="translate(-61.74 -246.95)"/><path class="cls-1" d="M381.88,297.66a4.81,4.81,0,0,1-.64.37c-7.69.93-7.69.93-7.7-6.8,0-3.92,0-3.93-4-3.93H337c-3.52,0-3.52,0-3.54,3.65,0,.18,0,.36,0,.54,0,7.36,0,7.36-8.18,6.44,0-2.68-.09-5.43,0-8.18.09-1.89-.59-2.68-2.49-2.46a15.56,15.56,0,0,1-2.16,0c-5.3-.06-4.48.67-4.75-4.82-.14-2.82.79-3.51,3.48-3.43,5.85.16,6,0,5.83-5.76-.05-2.42.74-3.35,3.09-3h.27c5.17.05,4.89-.73,4.9,5,0,3.78,0,3.79,3.88,3.79,11,0,22-.08,33,.06,2.57,0,3.22-.82,3.19-3.24-.09-6.16,0-6.21,6.35-5.54a2.77,2.77,0,0,1,1.85,1.84c.4,2.17-.34,5.12.85,6.4,1,1.12,4.07.45,6.22.46,1.46,0,2.13.56,2.12,2.08-.06,7.47.62,6.13-5.65,6.06-2.71,0-3.77.69-3.5,3.49C382.06,293,381.88,295.38,381.88,297.66Z" transform="translate(-61.74 -246.95)"/><path class="cls-1" d="M410.29,283.5a6,6,0,0,1-.28-.91c-.47-7.15-.47-7.15,6.66-7.15h87.65c4,0,4,0,4,4a6.65,6.65,0,0,1-.07,2.41,4.9,4.9,0,0,1-1.71,1.77c-.3.21-.88,0-1.33,0H413C412.09,283.62,411.21,283.55,410.29,283.5Z" transform="translate(-61.74 -246.95)"/><path class="cls-1" d="M315.81,373.15v7.77c-8.33,1.7-14.76-.43-17.87-6.23a15,15,0,0,1-1.69-6.66c-.14-17.4-.07-34.8-.08-52.2,0-4.25-1.46-5.85-5.73-6.12-1.89-.12-3.79-.08-5.68,0-1.49,0-2.09-.63-2.07-2.13.1-7.31-.91-5.91,5.81-6.22s12,1.63,14.75,8.06a15.73,15.73,0,0,1,1.1,6c.08,16.41,0,32.82,0,49.23,0,1.17,0,2.34.05,3.51.22,3.31,1.79,4.86,5.16,5C311.56,373.21,313.54,373.15,315.81,373.15Z" transform="translate(-61.74 -246.95)"/><path class="cls-1" d="M302.29,292.38c-2.42,0-4.57.12-6.69-.09a2.33,2.33,0,0,1-1.44-1.72c-.1-6-.12-12.09,0-18.13a2.77,2.77,0,0,1,1.85-1.91c6.2-.8,6.27-.68,6.26,5.57Z" transform="translate(-61.74 -246.95)"/><path class="cls-1" d="M446.17,422.63V409.68c0-2.61,0-2.61,2.91-2.35,0,.63.11,1.3.11,2,0,4.83,0,9.66,0,14.5a4.86,4.86,0,0,1-.51,2.16c-1.13,0-2.56,0-3.31-.67-2.77-2.43-5.32-5.11-8-7.69l-6.34-6.22-.5.22c0,.91,0,1.83,0,2.74,0,3.44.05,6.87.11,10.3,0,1.12-.58,1.59-1.53,1.31-.55-.15-1.37-.8-1.37-1.24-.1-5.4-.08-10.81,0-16.22,0-.42.44-1.21.58-1.19.95.14,2.13.16,2.75.74,3.63,3.38,7.11,6.91,10.66,10.38C443,419.7,444.37,420.93,446.17,422.63Z" transform="translate(-61.74 -246.95)"/><path class="cls-1" d="M312.33,422V409.61c0-2.59,0-2.59,2.94-2.24,0,.63.1,1.3.1,2,0,4.78,0,9.55,0,14.32,0,.81-.17,2.14-.62,2.32a3,3,0,0,1-3.47-.77c-3.15-3.23-6.41-6.36-9.63-9.52-1.47-1.44-3-2.84-4.82-4.61v8.14c0,1.78,0,3.56,0,5.34,0,1.07-.41,1.46-1.47,1.46s-1.48-.36-1.48-1.44c0-5.35,0-10.69,0-16,0-.43.38-1.22.54-1.21.9.06,2,0,2.62.56,2.47,2.19,4.77,4.57,7.14,6.88l7.61,7.44Z" transform="translate(-61.74 -246.95)"/><path class="cls-1" d="M360,407.2h1.14c8.85.29,11.47,5.9,9,14.27a5.94,5.94,0,0,1-3.75,3.8,18.49,18.49,0,0,1-12.51.41c-4.07-1.22-6.12-5.66-5.25-10.61s3.22-7.09,9.05-7.77c.75-.09,1.52-.09,2.28-.13Zm-.37,1.77a13.74,13.74,0,0,0-3.85.74,6.56,6.56,0,0,0-3.25,2.86,13.68,13.68,0,0,0-.82,5.93c.21,3,1.56,5.58,4.94,5.84a35,35,0,0,0,7.7-.49,3.92,3.92,0,0,0,2.35-1.79,10.1,10.1,0,0,0,.22-10.19C365.49,409.12,362.64,409.22,359.59,409Z" transform="translate(-61.74 -246.95)"/><path class="cls-1" d="M339.47,407.29h2.78c0,.75.12,1.47.12,2.2,0,3-.17,6,.05,9,.36,5-2.18,6.45-6,7.3a17.91,17.91,0,0,1-10.14-.58c-2.92-1.05-4.06-2.64-4.06-5.7,0-3.56,0-7.12,0-10.68,0-1,.11-1.7,1.41-1.72s1.44.65,1.43,1.68c0,3.49,0,7,0,10.48,0,2.52.74,3.6,3.1,4.42a11.72,11.72,0,0,0,8.56-.18,4,4,0,0,0,2.71-4.13c-.1-3.37,0-6.74,0-10.11C339.37,408.62,339.43,408,339.47,407.29Z" transform="translate(-61.74 -246.95)"/><path class="cls-1" d="M418.54,407.28h2.79v5.09c0,2.42-.11,4.84,0,7.25a5,5,0,0,1-3.64,5.4,17.38,17.38,0,0,1-13-.11,5.16,5.16,0,0,1-3.55-5.46c.14-3.55.06-7.11,0-10.67,0-1,.13-1.7,1.41-1.7s1.43.67,1.42,1.69c0,3.49,0,7,0,10.48,0,2.55.72,3.57,3.12,4.4a11.62,11.62,0,0,0,8.37-.12,4,4,0,0,0,2.86-4.22c-.1-3.81,0-7.63,0-11.44A3.53,3.53,0,0,1,418.54,407.28Z" transform="translate(-61.74 -246.95)"/><path class="cls-1" d="M489.46,408.05c1.64-1.07,2.66-1.11,3.67.68,2.33,4.15,4.89,8.18,7.38,12.24.31.53.71,1,1.27,1.77l6.52-10.8c.72-1.2,1.54-2.35,2.15-3.6a1.68,1.68,0,0,1,2.65-.83c1.27.71.16,1.44-.19,2q-4.36,7.38-8.81,14.71c-1.56,2.57-3.23,2.55-4.76,0Z" transform="translate(-61.74 -246.95)"/><path class="cls-1" d="M474.83,407.66c2.79,0,5.59,0,8.39,0,.76,0,2-.5,1.95,1,0,.32-1.2.78-1.87.83a45.3,45.3,0,0,1-5.34,0c-1.4-.08-1.89.39-1.86,1.83.08,4.39,0,8.78,0,13.16,0,1.17-.14,1.94-1.62,1.93s-1.44-.86-1.44-1.87c0-4.39,0-8.78,0-13.16,0-1.4-.39-2-1.83-1.88a43.25,43.25,0,0,1-5.34,0c-.64,0-1.25-.61-1.87-.93.59-.29,1.18-.81,1.79-.83C468.85,407.62,471.84,407.66,474.83,407.66Z" transform="translate(-61.74 -246.95)"/><path class="cls-1" d="M376.17,408.36c1.72-1.2,2.76-.88,3.84.49,1.92,2.43,4,4.71,6.23,7.25,2.13-2.5,4.14-4.85,6.14-7.22,1.41-1.69,1.4-1.7,3.77-.65-.33.47-.6.93-.95,1.34-2,2.39-3.95,4.82-6.05,7.12a5.1,5.1,0,0,0-1.48,4.12c.1,1.2,0,2.42,0,3.63s-.28,1.61-1.5,1.6-1.75-.47-1.52-1.58c1-5-1.38-8.48-4.69-11.71C378.64,411.44,377.5,409.91,376.17,408.36Z" transform="translate(-61.74 -246.95)"/><path class="cls-1" d="M458,423.37a8.63,8.63,0,0,1,.83,1.88c.23,1.23-.67,1.22-1.54,1.25-1,0-1.65-.39-1.38-1.42a7.32,7.32,0,0,1,1.08-1.77Z" transform="translate(-61.74 -246.95)"/><path class="cls-2" d="M218,320.72l1.57,1.69A59.82,59.82,0,0,0,223.34,304c.32-5.4-1.49-8.86-3.06-10.81h0a20,20,0,0,0-1.52-1.53l-.19-.16c-2.25-1.91-4.43-2.92-6.28-2.92-3.63,0-6.23,4.26-6.31,10.37-.08,5.85,2.23,10.78,8.25,17.59C215.45,318,216.75,319.36,218,320.72Z" transform="translate(-61.74 -246.95)"/><path class="cls-3" d="M69.73,321.49c1.83,0,4.89-.66,9-3.79,6.83-5.14,10-10,17.83-21.87,1.91-2.9,4.07-6.2,6.62-10a81.67,81.67,0,0,0-21.83,5.79c-12.54,4.93-15.74,11.63-16.26,12.92h0c-2.93,10.52-.9,13.3.44,15.15A5,5,0,0,0,69.73,321.49Z" transform="translate(-61.74 -246.95)"/><path class="cls-4" d="M179.23,257.14c-6.53-3.93-37-17.91-69.9-4.5-29.77,12.16-43,39.05-46.83,48.56l0,.1c-.3.75-.55,1.38-.73,1.89,1.53-3.84,6.62-10.37,18.33-15,8.78-3.47,18.34-6.51,30.84-6.42A90,90,0,0,1,130,284.12c22.72,5.08,35.39,9.18,49.46-.69S185.76,261.07,179.23,257.14Z" transform="translate(-61.74 -246.95)"/><path class="cls-5" d="M243.86,326.84c-6.22-24.51-20.19-36.61-22.86-38.07a13.36,13.36,0,0,1,2.06,2.06l.07.09c1.9,2.35,4.26,6.68,3.86,13.33a63.7,63.7,0,0,1-6.32,24.91A105.39,105.39,0,0,1,210,346.48c-12.2,16.45-13.26,31-8.91,43.11,3.95,11,13.37,17.08,22.5,10.72S253.29,364.13,243.86,326.84Z" transform="translate(-61.74 -246.95)"/><path class="cls-6" d="M174.21,326.52c-2.73-2.67-5.9-4.8-8.85-7.19-.48-.29-1-.56-1.45-.89a94.57,94.57,0,0,0-13.22-7.58c-4.12-2-8.34-3.92-13.07-4.12a18.37,18.37,0,0,0-18.47,13.38,85.19,85.19,0,0,0-3,19c0,.32,0,.63,0,.94-.21,8.14,0,16.24,1.87,24.21A31.73,31.73,0,0,0,123,375.74,15.1,15.1,0,0,0,134.74,382a24.26,24.26,0,0,0,8.58-1.55,86.63,86.63,0,0,0,27.22-13.94c4.41-3.42,8.71-7,12.14-11.48,3.72-4.92,4.25-10,1.68-15.54C182,334.35,178.17,330.4,174.21,326.52Z" transform="translate(-61.74 -246.95)"/><path class="cls-7" d="M166.82,411.86c-1.69-2.25-4.84-6.45-13.7-6.45A41.61,41.61,0,0,0,142.65,407a96.49,96.49,0,0,1-11.14,2.4c4.22,8.68,9,12.4,18.39,14.87a19.65,19.65,0,0,0,5,.68,17.32,17.32,0,0,0,7.92-1.88l1.47-.9.5-.31a7.5,7.5,0,0,0,3-5,6,6,0,0,0-.61-4.43C167.08,412.21,167,412.05,166.82,411.86Z" transform="translate(-61.74 -246.95)"/><path class="cls-8" d="M164.59,426.24A21.52,21.52,0,0,1,149,427.76c-12.49-3.31-17.88-9.19-22.8-21.52-1.15-2.84-2.25-6-3.42-9.6-2.46-7.5-5.09-17.91-16-30.93-9.27-11.1-24-13.18-33-7.29C63.7,365,61.81,375.8,63,385.72a57.93,57.93,0,0,0,4.66,16.55c5.82,12.8,16.51,26.52,35.6,33.05,34.54,11.82,57.06-5.62,63.13-10.13a16,16,0,0,1-1.75,1Z" transform="translate(-61.74 -246.95)"/></svg>