<?xml version="1.0" encoding="UTF-8"?>
<svg width="108px" height="46px" viewBox="0 0 108 46" version="1.1" xmlns="http://www.w3.org/2000/svg" xmlns:xlink="http://www.w3.org/1999/xlink">
    <!-- Generator: Sketch 56.2 (81672) - https://sketch.com -->
    <title>ico_dl_logo</title>
    <desc>Created with Sketch.</desc>
    <g id="页面-1" stroke="none" stroke-width="1" fill="none" fill-rule="evenodd">
        <g id="1-1登录-忘记密码1" transform="translate(-84.000000, -40.000000)" fill="#3472D9">
            <g id="ico_dl_logo" transform="translate(84.000000, 40.000000)">
                <path d="M39.7105851,34.8725397 C39.7105851,34.8681254 39.7108881,34.8637112 39.7108881,34.8591448 C39.7108881,32.9897952 38.2061588,31.474345 36.3500129,31.474345 C34.493867,31.474345 32.9891377,32.9897952 32.9891377,34.8591448 C32.9891377,34.8637112 32.9894407,34.8681254 32.9895921,34.8725397 C31.2685599,35.0198836 29.9171209,36.4727735 29.9171209,38.2442489 C29.9171209,40.1137507 31.4216987,41.0209507 33.2779961,41.0209507 C33.308745,41.0209507 33.339191,41.0182108 33.3697885,41.0172975 L33.3697885,41.0189719 L39.3749217,41.0189719 C39.3908264,41.0192763 39.4062766,41.0209507 39.4221812,41.0209507 C39.445508,41.0209507 39.4686833,41.0195808 39.4918586,41.0189719 L39.5148825,41.0189719 L39.5148825,41.0185152 C41.3280101,40.9688932 42.7830564,40.0825467 42.7830564,38.2442489 C42.7830564,36.4727735 41.4316174,35.0198836 39.7105851,34.8725397 M44.6363243,19.6620226 C44.2405262,16.7700943 43.3036679,14.0154637 41.851954,11.4746948 C40.4002401,8.93392599 38.5060746,6.7341182 36.22217,4.93661404 C33.8567731,3.07487525 31.1761616,1.72884008 28.2550115,0.936105584 C25.3338614,0.143371087 22.3447001,-0.0493328054 19.3708376,0.363473638 C16.4993705,0.762124107 13.7643804,1.70555122 11.2417548,3.16772626 C8.71897784,4.62990129 6.53504516,6.53776115 4.75024292,8.83803068 C2.90182216,11.220344 1.56537896,13.9201773 0.778327069,16.8623365 C-0.00887629734,19.8043434 -0.200034783,22.8149993 0.20985021,25.8101292 C0.605496774,28.7022097 1.54235512,31.4568403 2.994069,33.9976092 C4.44578289,36.5383781 6.33994839,38.7381859 8.62385302,40.53569 C10.9892499,42.3974288 13.6698614,43.7433118 16.5910115,44.5360463 C18.5171377,45.058904 20.4694687,45.3207134 22.4264954,45.3207134 C23.6048011,45.3207134 24.7849245,45.2258836 25.961867,45.0357673 C27.0006665,44.8678744 27.7077408,43.883806 27.5409694,42.8376339 C27.374501,41.7914618 26.3971994,41.0792489 25.3587029,41.247294 C22.7612499,41.6667979 20.1450143,41.5270648 17.5820971,40.8312911 C12.7831405,39.5290938 8.77502272,36.4225426 6.29571837,32.0839652 C3.81671697,27.7452355 3.1635669,22.6938363 4.45668892,17.8604087 C5.74965947,13.026981 8.83409705,8.98994102 13.1419792,6.49316223 C17.4495585,3.99623122 22.4649694,3.33851122 27.2639259,4.64086075 C32.0628825,5.94321028 36.0711518,9.04976142 38.5501532,13.3883389 C41.029306,17.7269163 41.6826076,22.7783155 40.3894856,27.6117432 C40.1157745,28.6349308 40.7172724,29.6876481 41.7331994,29.9631569 C42.7485206,30.2391222 43.7939849,29.633003 44.0678474,28.6099676 C44.8548993,25.6678084 45.0462093,22.6573048 44.6363243,19.6620226 M20.9331265,15.810228 C21.5793088,15.4846406 23.0463215,15.2987864 25.3326496,15.2519042 L30.6504,15.2519042 C31.788717,15.2519042 32.7114884,14.3224809 32.7114884,13.1758471 C32.7114884,12.0293654 31.788717,11.0997899 30.6504,11.0997899 L24.7091882,11.0997899 C22.0069161,11.0997899 19.9111405,11.4258339 18.421407,12.0767042 C16.931825,12.7283357 15.7939624,13.8213899 15.0091826,15.356628 C14.3855697,16.4502911 14.0618727,18.7409711 14.0391518,22.2301901 L14.0391518,32.2963048 C14.0391518,33.4429386 14.9620746,34.3725142 16.1003916,34.3725142 L16.862602,34.3725142 C18.0009189,34.3725142 18.9238418,33.4429386 18.9238418,32.2963048 L18.9238418,24.777352 L30.6504,24.777352 C31.788717,24.777352 32.7114884,23.8477765 32.7114884,22.7012948 C32.7114884,21.554661 31.788717,20.6252377 30.6504,20.6252377 L18.9238418,20.6252377 L18.9238418,19.3690092 C18.969738,17.5319292 19.6393986,16.3455673 20.9331265,15.810228" id="Fill-1"></path>
                <path d="M93.1828696,16.4746302 L90.1163058,16.4746302 L90.1163058,14.2338767 L92.6130295,14.2338767 C93.2575456,14.2338767 93.7799748,13.7078224 93.7799748,13.0589309 C93.7799748,12.4097349 93.2575456,11.8836807 92.6130295,11.8836807 L90.1163058,11.8836807 L90.1163058,9.80701466 L92.9386957,9.80701466 C93.5830603,9.80701466 94.1054895,9.28096043 94.1054895,8.63191667 L94.1054895,8.57727157 C94.1054895,7.92838003 93.5830603,7.40217358 92.9386957,7.40217358 L90.1163058,7.40217358 L90.1163058,6.2270756 C90.1163058,5.57818405 89.5940281,5.05212983 88.9495119,5.05212983 L88.705338,5.05212983 C88.0608219,5.05212983 87.5383927,5.57818405 87.5383927,6.2270756 L87.5383927,7.40217358 L84.4719804,7.40217358 C83.8276157,7.40217358 83.3051865,7.92838003 83.3051865,8.57727157 L83.3051865,8.63191667 C83.3051865,9.28096043 83.8276157,9.80701466 84.4719804,9.80701466 L87.5383927,9.80701466 L87.5383927,11.8836807 L84.7976466,11.8836807 C84.1531304,11.8836807 83.6307013,12.4097349 83.6307013,13.0589309 C83.6307013,13.7078224 84.1531304,14.2338767 84.7976466,14.2338767 L87.5383927,14.2338767 L87.5383927,16.4746302 L84.2006928,16.4746302 C83.5561767,16.4746302 83.0337475,17.0008367 83.0337475,17.6497282 L83.0337475,17.7043733 C83.0337475,18.3532649 83.5561767,18.8794713 84.2006928,18.8794713 L87.2942188,18.8794713 C86.3390323,20.9014922 84.919885,22.7681019 83.0564684,24.4385067 C82.6888443,24.7680517 82.5629705,25.2925838 82.7448892,25.7530334 L82.8560701,26.0341741 C83.1834025,26.8620702 84.2726424,27.0377261 84.8374839,26.3519986 C85.877798,25.088616 86.7781515,23.7206619 87.5383927,22.2679242 L87.5383927,29.0449822 C87.5383927,29.6938737 88.0608219,30.2200802 88.705338,30.2200802 L88.9495119,30.2200802 C89.5940281,30.2200802 90.1163058,29.6938737 90.1163058,29.0449822 L90.1163058,22.0219451 C90.7062917,22.6158871 91.3895849,23.3442348 92.1567938,24.1975508 C92.6807377,24.7802289 93.6089621,24.7123411 94.0420224,24.058122 C94.387986,23.5355688 94.277108,22.8337065 93.7887602,22.4431234 C92.5565302,21.4572283 91.3274811,20.5469841 90.1163058,19.7265465 L90.1163058,18.8794713 L93.1828696,18.8794713 C93.8272342,18.8794713 94.3498149,18.3532649 94.3498149,17.7043733 L94.3498149,17.6497282 C94.3498149,17.0008367 93.8272342,16.4746302 93.1828696,16.4746302 L93.1828696,16.4746302 Z M96.941209,9.04183103 L105.190864,9.04183103 C105.857798,9.04183103 106.398404,8.49735882 106.398404,7.82578728 C106.398404,7.15421573 105.857798,6.60974352 105.190864,6.60974352 L96.941209,6.60974352 C96.2744264,6.60974352 95.7338205,7.15421573 95.7338205,7.82578728 C95.7338205,8.49735882 96.2744264,9.04183103 96.941209,9.04183103 L96.941209,9.04183103 Z M106.303431,16.2286512 C106.970365,16.2286512 107.510971,15.6843312 107.510971,15.0127596 L107.510971,14.9579623 C107.510971,14.2863908 106.970365,13.7419186 106.303431,13.7419186 L95.9643619,13.7419186 C95.2974278,13.7419186 94.7568219,14.2863908 94.7568219,14.9579623 L94.7568219,15.0127596 C94.7568219,15.6843312 95.2974278,16.2286512 95.9643619,16.2286512 L98.4203394,16.2286512 C96.9819551,21.8861696 95.8228864,25.3510343 94.9429818,26.6232453 C94.6516999,27.0444235 94.5543029,27.5712388 94.6927489,28.0651757 L94.7057756,28.1112968 C94.9249565,28.8933763 95.6665666,29.4080144 96.4702805,29.3346469 C99.8337307,29.0282386 102.63037,28.6554646 104.87883,28.1977548 L105.069383,28.954871 C105.233731,29.6074157 105.893546,30.0010431 106.540788,29.8326936 L106.605316,29.8157977 C107.256345,29.6463827 107.645024,28.9726802 107.467649,28.3196788 C106.743459,25.653485 105.954135,23.2250506 105.087711,21.0221986 C104.85414,20.4287132 104.201596,20.1213916 103.598129,20.3166831 L103.598129,20.3168353 C102.941647,20.5293271 102.594774,21.2515862 102.838494,21.9012388 C103.323812,23.1952165 103.785955,24.5248125 104.200384,25.9023561 C102.409523,26.2850241 100.211352,26.6128947 97.6061739,26.9133666 C98.6645133,24.5633228 99.7770799,20.983536 100.944025,16.2286512 L106.303431,16.2286512 Z M66.3172258,9.6156807 L69.8177588,9.6156807 L69.8177588,8.27664741 L66.3172258,8.27664741 L66.3172258,9.6156807 Z M69.8177588,12.9494885 L66.1271276,12.9494885 C66.2084684,12.5123277 66.2628471,12.0750147 66.2899607,11.6104552 L69.8177588,11.6104552 L69.8177588,12.9494885 Z M63.5492146,12.9494885 L60.3198177,12.9494885 L60.6997111,11.6104552 L63.7933885,11.6104552 C63.7390098,12.0750147 63.657669,12.5123277 63.5492146,12.9494885 L63.5492146,12.9494885 Z M72.314331,9.6156807 L75.6792959,9.6156807 L75.6792959,8.27664741 L72.314331,8.27664741 L72.314331,9.6156807 Z M76.5854053,12.9494885 L72.314331,12.9494885 L72.314331,11.6104552 L75.3671108,11.6104552 C76.858359,11.6104552 78.0672623,10.3931937 78.0672623,8.89159506 C78.0672623,7.38984419 76.858359,6.1724305 75.3671108,6.1724305 L72.314331,6.1724305 L72.314331,6.02219452 C72.314331,5.44119077 71.8465835,4.97008607 71.2694727,4.97008607 L70.8624656,4.97008607 C70.2853548,4.97008607 69.8177588,5.44119077 69.8177588,6.02219452 L69.8177588,6.1724305 L66.3170743,6.1724305 L66.3170743,6.02219452 C66.3170743,5.44119077 65.8493268,4.97008607 65.2723675,4.97008607 L64.865209,4.97008607 C64.2882496,4.97008607 63.8205021,5.44119077 63.8205021,6.02219452 L63.8205021,6.1724305 L58.8408387,6.1724305 C58.2638794,6.1724305 57.7961318,6.64353519 57.7961318,7.22453895 C57.7961318,7.80569493 58.2638794,8.27664741 58.8408387,8.27664741 L63.8205021,8.27664741 L63.8205021,9.6156807 L60.7659046,9.6156807 C59.5121655,9.6156807 58.4324684,10.5061371 58.1854165,11.7439475 C57.8577812,13.3849749 59.1039467,14.9170165 60.7659046,14.9170165 L62.4907237,14.9170165 C62.4364965,14.9716616 62.3550042,15.0809518 62.2465498,15.190242 C61.4607097,15.9376165 60.1130575,16.5788973 58.1893548,17.1140845 C57.4559243,17.3182045 57.1332875,18.184002 57.5474137,18.826805 C57.814763,19.2420469 58.3182581,19.4339897 58.7925189,19.3047594 C59.1015231,19.2204324 59.4024993,19.1319956 59.6957504,19.0434066 L59.6957504,24.6044208 C59.6957504,25.3061309 60.2605919,25.8749575 60.9575175,25.8749575 C61.6544432,25.8749575 62.2194362,25.3061309 62.2194362,24.6044208 L62.2194362,20.5736216 L74.7022973,20.5736216 L74.7022973,24.5907215 C74.7022973,25.3000423 75.2733492,25.8749575 75.9778485,25.8749575 C76.6820449,25.8749575 77.2530968,25.3000423 77.2530968,24.5907215 L77.2530968,18.278223 L61.758202,18.278223 C62.7621627,17.7864171 63.5763282,17.2672125 64.2003955,16.6659642 C64.6888948,16.1740061 65.0959018,15.57291 65.4486816,14.9170165 L69.8177588,14.9170165 L69.8177588,16.5020289 C69.8177588,17.1961282 70.3765414,17.7590184 71.0660449,17.7590184 C71.7555484,17.7590184 72.314331,17.1961282 72.314331,16.5020289 L72.314331,14.9170165 L76.2847321,14.9170165 C76.7686872,14.9170165 77.0766311,15.4518992 76.8229144,15.8668367 C76.8217027,15.8691199 76.8203394,15.8712509 76.8189762,15.8735341 C76.6561431,16.0648681 76.221871,16.1740061 75.5164628,16.1740061 C75.424216,16.1740061 75.3312118,16.1729406 75.2369958,16.1708096 C74.6633689,16.1575669 74.235913,16.6994514 74.3811753,17.2582318 C74.4764516,17.6256783 74.7977251,17.8882488 75.1742861,17.9062101 C75.3855905,17.9162563 75.6002272,17.9229537 75.814864,17.9229537 C77.3888163,17.8955551 78.3929285,17.5950831 78.8270491,16.9938348 C78.9083899,16.886219 78.9823086,16.7518133 79.0483506,16.5901612 C79.7595147,14.8530863 78.4513969,12.9494885 76.5854053,12.9494885 L76.5854053,12.9494885 Z M68.3245414,21.3744235 C67.6636662,21.3106455 67.0661066,21.768812 66.947655,22.4266842 C66.6339551,24.1687822 65.9997391,25.4458641 65.0144095,26.2576254 C63.8441318,27.1062227 61.5832511,27.6497816 58.2494895,27.9059591 C57.4400196,27.9682149 56.9357672,28.8190955 57.2670379,29.5654045 C57.4713745,30.0253975 57.9433633,30.305016 58.4418597,30.2598082 C63.0086087,29.8468496 65.9323338,28.9982522 67.2125806,27.760594 C68.2910659,26.882467 69.0396438,25.2619886 69.4584656,22.8825674 C69.5887321,22.1420426 69.0678177,21.4461167 68.3245414,21.3744235 L68.3245414,21.3744235 Z M78.2549369,27.7446114 C75.9773941,26.8946442 73.5124797,26.1535105 70.8724628,25.5093376 C70.4198626,25.3988297 69.946359,25.5849883 69.6880982,25.975267 C69.2667013,26.6116769 69.5908527,27.4789967 70.3254951,27.6730705 C72.7207321,28.3059795 75.0582581,29.0941475 77.3492819,30.0605591 C77.8959467,30.2910122 78.5280421,30.093133 78.8538597,29.5946297 C79.290101,28.9273202 78.9988191,28.0222512 78.2549369,27.7446114 L78.2549369,27.7446114 Z" id="Fill-3"></path>
                <path d="M79.2163187,41.0580606 L78.2474996,41.0580606 C77.9525823,41.0580606 77.7226468,41.0384249 77.5576931,40.9991535 C77.3927394,40.9600343 77.240055,40.89032 77.0996398,40.7904671 C76.7556454,40.5336808 76.583724,40.1268107 76.583724,39.5703135 C76.583724,39.0708969 76.6889975,38.6997973 76.8996959,38.457167 C77.1172107,38.2003806 77.5104337,38.0717592 78.079062,38.0717592 L79.2163187,38.0717592 C79.4033874,38.0717592 79.5680381,37.9761683 79.6669498,37.8308032 C79.7276903,37.7409965 79.7638923,37.6324674 79.7638923,37.515262 C79.7638923,37.2077882 79.5188095,36.9586126 79.2163187,36.9586126 L77.8368572,36.9586126 C77.8118642,36.9586126 77.7899007,36.9599825 77.7653621,36.9601347 C77.755062,36.9601347 77.7450648,36.9586126 77.7346132,36.9586126 C77.7084084,36.9586126 77.6831125,36.9618091 77.6572107,36.9625702 C76.2632079,37.0041248 75.1450367,38.148171 75.1414014,39.5581363 C75.1414014,39.5604196 75.1410985,39.5627028 75.1410985,39.5648338 C75.1410985,39.5795986 75.1429161,39.5937546 75.1432191,39.6083672 C75.16594,40.9877374 76.253968,42.1034717 77.6167675,42.1651186 C77.6561504,42.1669452 77.6949273,42.1712072 77.7346132,42.1712072 C77.746731,42.1712072 77.7583944,42.1696851 77.7703607,42.1693806 C77.7932331,42.1696851 77.813379,42.1712072 77.8368572,42.1712072 L79.2163187,42.1712072 C79.5188095,42.1712072 79.7638923,41.9220317 79.7638923,41.6145578 C79.7638923,41.4973525 79.7276903,41.3889755 79.6669498,41.2991688 C79.5680381,41.1538037 79.4033874,41.0580606 79.2163187,41.0580606" id="Fill-5"></path>
                <path d="M68.570336,39.5595367 C68.570336,39.2520629 68.3252533,39.0030395 68.0227624,39.0030395 L65.6007147,39.0030395 C65.6358564,38.6462481 65.7306783,38.4020957 65.8850289,38.269821 C66.039531,38.1378508 66.3099097,38.0717896 66.695862,38.0717896 L68.0227624,38.0717896 C68.2360359,38.0717896 68.4188634,37.9465169 68.5092926,37.7656857 C68.5470093,37.690035 68.570336,37.605708 68.570336,37.5151402 C68.570336,37.2078186 68.3252533,36.958643 68.0227624,36.958643 L66.6358788,36.958643 C65.214005,36.958643 64.0608438,38.1087778 64.0438788,39.533508 C64.0437273,39.5440108 64.0422126,39.5543614 64.0422126,39.5648642 C64.0422126,39.6566497 64.0472112,39.7470653 64.0564511,39.8364154 C64.1898985,41.1302409 65.2652028,42.1409469 66.5813487,42.1684978 C66.5996769,42.1688022 66.6173992,42.1712377 66.6358788,42.1712377 C66.6423921,42.1712377 66.6486025,42.1701722 66.6551158,42.1701722 C66.6693543,42.1703244 66.681775,42.1712377 66.695862,42.1712377 L68.0227624,42.1712377 C68.3252533,42.1712377 68.570336,41.9220621 68.570336,41.6145883 C68.570336,41.5240205 68.5470093,41.4398457 68.5092926,41.364195 C68.4188634,41.1832116 68.2360359,41.0580911 68.0227624,41.0580911 L66.853848,41.0580911 C66.4256348,41.0580911 66.116782,40.9868546 65.9271383,40.8439249 C65.737646,40.7012997 65.6288886,40.4585171 65.6007147,40.1160339 L68.0227624,40.1160339 C68.3252533,40.1160339 68.570336,39.8670106 68.570336,39.5595367" id="Fill-7"></path>
                <path d="M59.5144527,36.4770507 C59.7107613,36.3771979 60.1566968,36.3202695 60.8518048,36.3058091 L62.4681694,36.3058091 C62.814133,36.3058091 63.0946603,36.0205587 63.0946603,35.6687903 C63.0946603,35.3171742 62.814133,35.032076 62.4681694,35.032076 L60.6623125,35.032076 C59.8408763,35.032076 59.2037823,35.1320811 58.7508791,35.3317868 C58.2981273,35.5316448 57.9523153,35.8668217 57.7137459,36.3379264 C57.5241021,36.6734078 57.4256449,37.3760311 57.4188286,38.4464054 L57.4188286,41.4165721 C57.4188286,41.8333361 57.7511596,42.1712529 58.1611961,42.1712529 C58.5712325,42.1712529 58.903715,41.8333361 58.903715,41.4165721 L58.903715,39.2277238 L62.4681694,39.2277238 C62.814133,39.2277238 63.0946603,38.9426255 63.0946603,38.5910094 C63.0946603,38.2392411 62.814133,37.9539906 62.4681694,37.9539906 L58.903715,37.9539906 L58.903715,37.568735 C58.9176505,37.005236 59.1212297,36.6412905 59.5144527,36.4770507" id="Fill-9"></path>
                <path d="M81.75394,35.0320455 C81.3642008,35.0320455 81.0483804,35.3530665 81.0483804,35.7492815 L81.0483804,41.4539865 C81.0483804,41.8502015 81.3642008,42.1712224 81.75394,42.1712224 C82.1436791,42.1712224 82.4594996,41.8502015 82.4594996,41.4539865 L82.4594996,35.7492815 C82.4594996,35.3530665 82.1436791,35.0320455 81.75394,35.0320455" id="Fill-11"></path>
                <path d="M86.450395,41.1543821 C85.9659854,41.1543821 85.6079041,40.9616783 85.3763024,40.5762705 C85.2357358,40.3481005 85.1657554,40.0162723 85.1657554,39.5809381 C85.1657554,38.5107161 85.5903332,37.9753768 86.4397919,37.9753768 C87.2822827,37.9898372 87.7035282,38.5178702 87.7035282,39.5594758 C87.7035282,40.6230004 87.2857666,41.1543821 86.450395,41.1543821 M88.5248129,37.7185905 C88.075545,37.1619411 87.3771046,36.8836925 86.4293403,36.8836925 C85.5305015,36.8908466 84.8426642,37.1657464 84.3653739,37.7077832 C83.9371607,38.1933483 83.7229784,38.7996197 83.7229784,39.5275107 C83.7229784,40.3908729 83.9476123,41.0473752 84.3970317,41.4968654 C84.8814412,41.9964342 85.5515562,42.2462187 86.4082856,42.2462187 C87.236538,42.2462187 87.8893851,42.0250506 88.3668269,41.5825623 C88.8863781,41.0974538 89.1461537,40.4478012 89.1461537,39.6345177 C89.1461537,38.8638544 88.9389391,38.2253134 88.5248129,37.7185905" id="Fill-13"></path>
                <path d="M100.192251,41.0580606 L99.1708712,41.0580606 C98.8548993,41.0580606 98.5810367,40.9725159 98.3494351,40.8012743 C98.0125599,40.5443358 97.8439708,40.1198088 97.8439708,39.527389 C97.8439708,39.1206711 97.945609,38.7889951 98.1494912,38.5320566 C98.3809414,38.2253439 98.7216034,38.0717592 99.1708712,38.0717592 L100.192251,38.0717592 L100.192251,41.0580606 Z M100.892509,35.0320303 C100.5058,35.0320303 100.192251,35.350768 100.192251,35.7437866 L100.192251,36.9586126 L98.8655024,36.9586126 C98.205536,36.9586126 97.682501,37.1228523 97.2963972,37.4510274 C96.7067142,37.9434421 96.4117969,38.6355627 96.4117969,39.527389 C96.4117969,40.0770365 96.5134351,40.5408349 96.7173173,40.9189363 C97.012083,41.4825876 97.457867,41.8606891 98.0546693,42.053393 C98.3073257,42.132088 98.6793425,42.1712072 99.1708712,42.1712072 L100.809805,42.1712072 C101.24226,42.1712072 101.592919,41.8150247 101.592919,41.3754284 L101.592919,35.7437866 C101.592919,35.350768 101.279219,35.0320303 100.892509,35.0320303 L100.892509,35.0320303 Z" id="Fill-15"></path>
                <path d="M107.364724,39.3882951 C107.05678,39.159973 106.636898,39.0458119 106.104926,39.0458119 L105.275461,39.0458119 C104.904656,39.0458119 104.676993,39.0173477 104.593229,38.960115 C104.439181,38.8602621 104.362081,38.7177891 104.362081,38.5320871 C104.362081,38.310919 104.442816,38.1717947 104.604438,38.1147142 C104.681537,38.0860978 104.864062,38.0717896 105.152011,38.0717896 L107.09995,38.0717896 C107.40244,38.0717896 107.647523,37.822614 107.647523,37.5151402 C107.647523,37.2078186 107.40244,36.958643 107.09995,36.958643 L104.635944,36.958643 C104.078525,36.958643 103.686816,37.051494 103.460668,37.2368916 C103.085773,37.5437566 102.898401,37.9577808 102.898401,38.4783552 C102.898401,38.7497542 102.95278,39.0047139 103.061689,39.2438433 C103.170446,39.4829727 103.319647,39.6703491 103.509139,39.805668 C103.663489,39.9199813 103.830412,39.9985241 104.009453,40.0411442 C104.188494,40.0840688 104.446452,40.1053789 104.783327,40.1053789 L105.636269,40.1053789 C105.959058,40.1053789 106.162788,40.1268412 106.247158,40.1697657 C106.415596,40.2481563 106.499815,40.3944347 106.499815,40.6086009 C106.499815,40.8725413 106.373487,41.0189719 106.12083,41.0472838 C106.008286,41.0544379 105.797739,41.0580911 105.488886,41.0580911 L103.519742,41.0580911 C103.217403,41.0580911 102.972168,41.3072667 102.972168,41.6145883 C102.972168,41.9220621 103.217403,42.1712377 103.519742,42.1712377 L105.889077,42.1712377 C106.408628,42.1712377 106.778827,42.1319663 106.999978,42.0534234 C107.221128,41.9748806 107.408954,41.8109453 107.563456,41.5610087 C107.774003,41.2471418 107.879276,40.9011577 107.879276,40.522904 C107.879276,40.0234873 107.707809,39.6450814 107.364724,39.3882951" id="Fill-17"></path>
                <path d="M94.4643282,36.9586583 C94.0776185,36.9586583 93.7640701,37.277396 93.7640701,37.6704145 L93.7640701,40.3089052 C93.7640701,40.5443815 93.7027237,40.7281047 93.5797279,40.8600749 C93.4570351,40.9921973 93.2902637,41.0581063 93.0797167,41.0581063 L92.4150547,41.0581063 C92.2045077,41.0581063 92.0375849,40.9921973 91.914892,40.8600749 C91.7920477,40.7281047 91.7305498,40.5443815 91.7305498,40.3089052 L91.7305498,37.6704145 C91.7305498,37.277396 91.4170014,36.9586583 91.0302917,36.9586583 C90.643582,36.9586583 90.3300337,37.277396 90.3300337,37.6704145 L90.3300337,40.1588215 C90.3300337,40.8940188 90.5090743,41.425705 90.8671557,41.7537278 C91.0355933,41.9108134 91.2285694,42.019647 91.4462356,42.0800762 C91.6637504,42.1409621 91.9727546,42.1711007 92.3729453,42.1711007 L93.1218261,42.1711007 C93.5218654,42.1711007 93.8308696,42.1409621 94.0483843,42.0800762 C94.2660505,42.019647 94.4591781,41.9108134 94.6276157,41.7537278 C94.9856971,41.425705 95.1647377,40.8940188 95.1647377,40.1588215 L95.1647377,37.6704145 C95.1647377,37.277396 94.8511893,36.9586583 94.4643282,36.9586583" id="Fill-19"></path>
                <path d="M74.1197941,39.5595367 C74.1197941,39.2520629 73.8745599,39.0030395 73.5722205,39.0030395 L71.1501728,39.0030395 C71.185163,38.6462481 71.2799849,38.4020957 71.434487,38.269821 C71.5888376,38.1378508 71.8592163,38.0717896 72.2453201,38.0717896 L73.5722205,38.0717896 C73.785494,38.0717896 73.9683215,37.9465169 74.0587506,37.7656857 C74.0964673,37.690035 74.1197941,37.605708 74.1197941,37.5151402 C74.1197941,37.2078186 73.8745599,36.958643 73.5722205,36.958643 L72.1853369,36.958643 C70.7634631,36.958643 69.6103018,38.1087778 69.5933369,39.533508 C69.5931854,39.5440108 69.5916707,39.5543614 69.5916707,39.5648642 C69.5916707,39.6566497 69.5966693,39.7470653 69.6059091,39.8364154 C69.739205,41.1302409 70.8146609,42.1409469 72.1308067,42.1684978 C72.1489835,42.1688022 72.1668572,42.1712377 72.1853369,42.1712377 C72.1916987,42.1712377 72.1980606,42.1701722 72.2045739,42.1701722 C72.2186609,42.1703244 72.2310816,42.1712377 72.2453201,42.1712377 L73.5722205,42.1712377 C73.8745599,42.1712377 74.1197941,41.9220621 74.1197941,41.6145883 C74.1197941,41.5240205 74.0964673,41.4398457 74.0587506,41.364195 C73.9683215,41.1832116 73.785494,41.0580911 73.5722205,41.0580911 L72.403306,41.0580911 C71.9749414,41.0580911 71.6660886,40.9868546 71.4765964,40.8439249 C71.2871041,40.7012997 71.1781952,40.4585171 71.1501728,40.1160339 L73.5722205,40.1160339 C73.8745599,40.1160339 74.1197941,39.8670106 74.1197941,39.5595367" id="Fill-21"></path>
            </g>
        </g>
    </g>
</svg>