<svg width="140" height="44" viewBox="0 0 140 44" fill="none" xmlns="http://www.w3.org/2000/svg">
<path fill-rule="evenodd" clip-rule="evenodd" d="M61.1074 12.7924H62.8482V10.8857H61.1074V12.7924Z" fill="black"/>
<path fill-rule="evenodd" clip-rule="evenodd" d="M47.2512 24.3602L48.4336 25.419L50.0098 23.3954L51.5867 25.4205L52.7691 24.361L51.0132 22.1076L52.0848 20.7325V10.8857H47.9362V12.5375H50.5438V20.1338L50.0098 20.8199L49.4765 20.1345V13.454H47.9362V20.734L49.0064 22.1076L47.2512 24.3602Z" fill="black"/>
<path fill-rule="evenodd" clip-rule="evenodd" d="M89.5455 9.05078H87.8032V20.6807L82.9258 20.9999V22.9153L87.8032 22.5961V27.6588H89.5455V22.4819L92.6814 22.2768V20.3608L89.5455 20.5666V9.05078Z" fill="black"/>
<path fill-rule="evenodd" clip-rule="evenodd" d="M98.0927 21.1811L100.527 20.7955V18.9603L98.0927 19.346V14.5555H100.527V12.721H98.0927V9.00879H96.3641V12.721H93.5825V14.5555H96.3641V19.6204L93.5825 20.061V21.8968L96.3641 21.4556V26.3002H94.2761L95.6655 28.1354H96.3641V28.1773H98.0927V28.1354H98.0963V26.3002H98.0927V21.1811Z" fill="black"/>
<path fill-rule="evenodd" clip-rule="evenodd" d="M87.2037 12.8925L84.4883 11.2285L83.6287 12.808L86.3448 14.472L87.2037 12.8925Z" fill="black"/>
<path fill-rule="evenodd" clip-rule="evenodd" d="M67.344 25.4821H69.0755V22.9435H71.8477V21.1308H69.0755V19.3173H71.5013V17.5052H69.0755V14.604H67.344V17.5052H65.977L67.3246 13.1531H71.8477V11.3403H67.886L68.3517 9.83594H66.3018L65.8368 11.3403H63.8796V13.1531H65.2755L63.8796 17.5052V19.3173H67.344V21.1308H63.5332V22.9435H67.344V25.4821Z" fill="black"/>
<path fill-rule="evenodd" clip-rule="evenodd" d="M87.2037 17.2704L84.4883 15.6064L83.6287 17.1859L86.3448 18.8499L87.2037 17.2704Z" fill="black"/>
<path fill-rule="evenodd" clip-rule="evenodd" d="M43.9998 19.5102H45.3697V21.7188L43.9998 22.0604V19.5102ZM43.9998 17.8585H45.3697V15.4752H43.9998V17.8585ZM43.9998 13.822H45.3697V11.7998H43.9998V13.822ZM42.4595 22.4468L41.4331 22.7032V24.4647L45.3697 23.4795V25.1992H46.9093V23.0953L47.5942 22.9234V21.1612L46.9093 21.3338V10.1553H41.7752V11.8063H42.4595V22.4468Z" fill="black"/>
<path fill-rule="evenodd" clip-rule="evenodd" d="M74.2158 25.1046H75.9581L76.6545 17.0771H74.913L74.2158 25.1046Z" fill="black"/>
<path fill-rule="evenodd" clip-rule="evenodd" d="M62.8403 13.5156H61.1074V25.8447L62.8403 27.6581H71.5005L72.887 25.8447H62.8403V13.5156Z" fill="black"/>
<path fill-rule="evenodd" clip-rule="evenodd" d="M82.2292 14.1579H79.4297V11.4026L81.8806 11.1173V9.41504L74.5645 10.2665V11.9695L77.7119 11.6034V14.1579H74.5645V15.9822H77.7119V27.7725H79.4297V15.9822H82.2292V14.1579Z" fill="black"/>
<path fill-rule="evenodd" clip-rule="evenodd" d="M54.8723 16.0547H56.6167V19.4102H54.8723V21.2237H56.6167V25.8452H56.6038V27.6579H59.0296L60.4146 25.8452H58.3245V21.2237H60.4146V19.4102H58.3245V16.0547H60.4146V14.2412H54.8723V16.0547Z" fill="black"/>
<path fill-rule="evenodd" clip-rule="evenodd" d="M57.6244 9.51758H55.5738L54.896 10.9779H54.8723V12.7907H60.4146V10.9779H56.9459L57.6244 9.51758Z" fill="black"/>
<path fill-rule="evenodd" clip-rule="evenodd" d="M40.2211 25.4207V21.8969H41.7743V20.0611H40.2211V17.859H41.4329V16.0238H40.2211V13.4549H41.4329V11.6197H40.2211V9.05078H38.5098V11.6197H35.9561V13.4549H38.5098V16.0238H35.9561V17.859H38.5098V23.9076L37.6674 23.1334V19.6942H35.9561V28.1355H37.6674V25.5247L40.1909 27.7758H51.701L53.0695 25.9414H40.845L40.2211 25.4207Z" fill="black"/>
<path fill-rule="evenodd" clip-rule="evenodd" d="M80.1392 17.0771L80.8356 25.104H82.5779L81.8814 17.0771H80.1392Z" fill="black"/>
<path fill-rule="evenodd" clip-rule="evenodd" d="M107.492 23.4264L110.939 20.0673L110.929 20.0608H110.945V17.8587V16.7574H107.125V13.8215H111.292V11.9864H107.125V9.0498H105.389V11.9864H101.437V13.8215H105.389V16.7574H101.437V18.5925H109.209V19.0259L106.228 21.9964L104.004 19.4801H101.671L104.951 23.2689L100.18 28.024L102.798 28.0009L106.188 24.6975L109.159 28.1295L111.597 28.071L107.492 23.4264Z" fill="black"/>
<path fill-rule="evenodd" clip-rule="evenodd" d="M38.9734 30.8666H40.0552V35.6947H38.9734V33.6464H37.1572V35.6947H36.0754V30.8666H37.1572V32.7133H38.9734V30.8666Z" fill="black"/>
<path fill-rule="evenodd" clip-rule="evenodd" d="M46.4405 32.8472C46.6355 32.5178 46.8207 32.189 46.9961 31.8606C47.1715 31.5322 47.3337 31.2012 47.4827 30.8676H48.6758C48.4113 31.3871 48.1384 31.8909 47.8572 32.3792C47.5759 32.8674 47.2774 33.3573 46.9616 33.8489V35.6949H45.8799V33.8626C45.5651 33.3701 45.2661 32.8777 44.9829 32.3857C44.6997 31.8936 44.4256 31.388 44.1606 30.869H45.4156C45.5632 31.2017 45.7222 31.5327 45.8928 31.8621C46.0634 32.1914 46.2457 32.5202 46.4398 32.8486" fill="black"/>
<path fill-rule="evenodd" clip-rule="evenodd" d="M54.2893 31.7372C54.2117 31.7372 54.1341 31.7372 54.0572 31.7444C53.9803 31.7516 53.9134 31.753 53.8602 31.7581V33.1513H54.2002C54.574 33.1513 54.856 33.1 55.0462 32.9974C55.2359 32.8963 55.3337 32.7085 55.3337 32.4269C55.3385 32.3111 55.3137 32.196 55.2618 32.0925C55.213 32.0039 55.1409 31.9304 55.0534 31.8802C54.9516 31.8226 54.8399 31.7849 54.7242 31.7689C54.5815 31.7465 54.4373 31.7359 54.2929 31.7372H54.2893ZM54.2211 30.8105C54.9398 30.8105 55.4908 30.9372 55.8742 31.1904C56.2575 31.4437 56.4492 31.8582 56.4492 32.4341C56.4492 33.0119 56.2551 33.4308 55.867 33.6908C55.4789 33.9508 54.9242 34.0798 54.2031 34.0779H53.8631V35.6942H52.78V30.9362C53.0274 30.8884 53.2775 30.8559 53.5289 30.8387C53.7927 30.8207 54.0234 30.8105 54.2218 30.8105" fill="black"/>
<path fill-rule="evenodd" clip-rule="evenodd" d="M60.7617 35.6947V30.8666H64.0069V31.7795H61.8427V32.7263H63.7646V33.619H61.8427V34.7818H64.1664V35.6947H60.7617Z" fill="black"/>
<path fill-rule="evenodd" clip-rule="evenodd" d="M69.9495 31.7372C69.8712 31.7372 69.8007 31.7372 69.7389 31.7444C69.6771 31.7516 69.6167 31.753 69.5614 31.7581V33.0675H69.8661C70.2729 33.0675 70.5643 33.0167 70.7401 32.9151C70.9155 32.8125 71.0032 32.6378 71.0032 32.3922C71.0032 32.1467 70.9148 31.9863 70.7365 31.8867C70.5583 31.787 70.2967 31.7372 69.9495 31.7372ZM69.8863 30.8113C70.605 30.8113 71.1575 30.9401 71.5437 31.1977C71.9299 31.4552 72.1216 31.8558 72.1187 32.3994C72.1187 32.7365 72.0413 33.0119 71.8865 33.2257C71.7134 33.4504 71.4818 33.6226 71.2174 33.7233C71.3144 33.8439 71.4158 33.9825 71.5221 34.1371C71.6285 34.2917 71.7334 34.4563 71.8384 34.6253C71.9433 34.7943 72.0418 34.9713 72.1395 35.1547C72.2373 35.3382 72.3264 35.5158 72.4098 35.6949H71.2008L70.9328 35.2147C70.8422 35.0514 70.7488 34.8933 70.6539 34.7402C70.559 34.587 70.4641 34.4426 70.3721 34.3068C70.2801 34.171 70.1867 34.0468 70.094 33.9356H69.5599V35.6978H68.4818V30.9362C68.7236 30.8892 68.9679 30.8567 69.2135 30.8387C69.4658 30.8207 69.69 30.8105 69.8898 30.8105" fill="black"/>
<path fill-rule="evenodd" clip-rule="evenodd" d="M78.6865 35.795C77.905 35.795 77.3098 35.5766 76.9011 35.1399C76.4924 34.7032 76.288 34.0833 76.288 33.2802C76.2815 32.9151 76.3449 32.5522 76.4749 32.2113C76.5894 31.9136 76.7641 31.6431 76.9881 31.4168C77.2086 31.1989 77.4734 31.0314 77.7643 30.9257C78.0778 30.8127 78.4088 30.7562 78.7418 30.7589C78.928 30.7574 79.114 30.7726 79.2974 30.8044C79.4448 30.8302 79.5905 30.8649 79.7337 30.9084C79.8412 30.941 79.946 30.982 80.0471 31.0312C80.1298 31.0723 80.1909 31.1034 80.2268 31.1287L79.9149 32.0054C79.7502 31.9201 79.5769 31.8525 79.3981 31.8039C79.1799 31.7451 78.9547 31.7169 78.7289 31.7202C78.5624 31.7197 78.3971 31.7481 78.2401 31.8039C78.0804 31.8594 77.9355 31.9511 77.8168 32.0719C77.6863 32.2086 77.5856 32.3712 77.5214 32.5493C77.4426 32.7776 77.4054 33.0184 77.4114 33.26C77.4098 33.4699 77.4339 33.6792 77.4833 33.8832C77.5263 34.0642 77.6069 34.2341 77.7198 34.3816C77.8332 34.5248 77.9794 34.6382 78.146 34.7123C78.3475 34.7986 78.5653 34.84 78.7843 34.8337C78.9256 34.8351 79.0669 34.8257 79.2069 34.8055C79.3192 34.7901 79.4306 34.7682 79.5404 34.7398C79.6282 34.7178 79.714 34.6886 79.797 34.6524C79.8689 34.6206 79.9371 34.5903 79.9975 34.5628L80.2958 35.4331C80.0925 35.5461 79.8749 35.6306 79.6489 35.6845C79.3337 35.7629 79.0098 35.8003 78.6851 35.7957" fill="black"/>
<path fill-rule="evenodd" clip-rule="evenodd" d="M87.4035 30.8666H88.4845V35.6947H87.4035V33.6464H85.5865V35.6947H84.5055V30.8666H85.5865V32.7133H87.4035V30.8666Z" fill="black"/>
<path fill-rule="evenodd" clip-rule="evenodd" d="M95.0352 31.961C95.0108 32.0332 94.9755 32.1264 94.9281 32.2499L94.7693 32.6688C94.7103 32.8262 94.6442 33.001 94.5709 33.1902C94.4976 33.3795 94.4271 33.5802 94.3466 33.789H95.7216C95.6497 33.5795 95.5779 33.3795 95.506 33.1888C95.4341 32.9981 95.3709 32.8277 95.309 32.6652C95.2472 32.5027 95.1926 32.3676 95.1459 32.247C95.0992 32.1264 95.0611 32.0304 95.033 31.9639L95.0352 31.961ZM96.3347 35.6949C96.2808 35.5274 96.2233 35.354 96.1622 35.1778C96.1011 35.0016 96.0386 34.8254 95.9782 34.6491H94.1015L93.919 35.18C93.8579 35.3562 93.8004 35.5281 93.7479 35.6949H92.6245C92.8052 35.1739 92.9767 34.6925 93.1391 34.2505C93.3016 33.8085 93.4604 33.3927 93.6157 33.0032C93.7716 32.6139 93.924 32.2427 94.0757 31.8931C94.2273 31.5436 94.3819 31.1998 94.5457 30.8647H95.5707C95.7281 31.1998 95.884 31.5414 96.0371 31.8931C96.1902 32.2449 96.3448 32.6154 96.5 33.0032C96.6553 33.391 96.8148 33.8092 96.9773 34.2505C97.1397 34.6917 97.3122 35.172 97.4933 35.6949H96.3347Z" fill="black"/>
<path fill-rule="evenodd" clip-rule="evenodd" d="M101.626 35.6947H102.707V30.8666H101.626V35.6947Z" fill="black"/>
<path fill-rule="evenodd" clip-rule="evenodd" d="M110.557 35.6947C110.248 35.1414 109.912 34.5957 109.551 34.0574C109.197 33.527 108.813 33.0175 108.401 32.5313V35.6947H107.333V30.8666H108.214C108.367 31.0197 108.536 31.2089 108.717 31.4307C108.899 31.6524 109.09 31.8914 109.282 32.1449C109.474 32.3984 109.664 32.6606 109.854 32.9329C110.044 33.2052 110.222 33.4652 110.387 33.7158V30.8666H111.465V35.6947H110.557Z" fill="black"/>
<path d="M20.207 6.56055L14.2608 12.4849L17.1983 15.4157L23.0389 9.59822V34.5532L10.5139 22.0753L13.0468 19.5512L10.1093 16.6204L7.70435 19.0153V25.1354L20.0446 37.4291L27.3154 34.4246V9.57005L20.207 6.56055Z" fill="#1DB5F4"/>
<path d="M10.1063 28.7555L4.27728 34.5622V9.6087L16.8015 22.0858L14.2578 24.6201L17.1961 27.5509L19.6104 25.1451V19.0258L7.10844 6.57031L0 9.58054V34.4344L7.27016 37.4388L13.0446 31.687L10.1063 28.7555Z" fill="#0076D9"/>
</svg>
