<?xml version="1.0" standalone="no"?><!DOCTYPE svg PUBLIC "-//W3C//DTD SVG 1.1//EN" "http://www.w3.org/Graphics/SVG/1.1/DTD/svg11.dtd"><svg t="1535355871957" class="icon" style="" viewBox="0 0 3135 1024" version="1.1" xmlns="http://www.w3.org/2000/svg" p-id="4662" xmlns:xlink="http://www.w3.org/1999/xlink" width="612.3046875" height="200"><defs><style type="text/css"></style></defs><path d="M1018.34287606 220.79098263H706.00561277a78.10903411 78.10903411 0 0 1 78.05959718-77.8371356h342.17194864c-9.64003867 89.20743754-64.90959583 171.39494975-128.95406005 236.97193335l176.33855949 122.42849552a78.70226724 78.70226724 0 0 1-108.78413261 19.23064196l-126.30922902-87.45245659c-63.20405027 53.34154927-124.60368345 89.18271984-152.68338629 98.82275852-16.65996477 6.10535833-79.83929735 24.47086789-108.7841326-32.3806433 0 0 69.30940859-32.33120791 114.04907698-56.80207578 75.46420306-41.99596505 195.64335529-148.65434512 227.23302159-222.98151806z m-52.64944382 579.73711514h207.92822577a78.10903411 78.10903411 0 0 1-78.08431565 77.81241715H656.00099999a78.10903411 78.10903411 0 0 1 78.10903408-77.81241715h152.63395092v-161.77962875h-187.75829833a78.10903411 78.10903411 0 0 1 78.08431564-77.81241794h360.58689513a78.10903411 78.10903411 0 0 1-78.08431641 77.81241794H965.71815071v161.77962875z m-348.27730618-92.6926825l-28.96955373 8.75018856v108.41336182c0 43.75094599-35.09962896 78.70226724-78.97416496 78.70226724v-162.64476041L388.4034043 779.5424741a77.44164633 77.44164633 0 0 1 52.64944382-97.95762689l68.41955927-21.8507553v-111.05819283H384.02831L430.57239552 290.74306053H384.02831c0-37.59615229 26.32472191-68.22181462 60.55921924-76.94728551l6.13007601-35.84117057C460.35764393 135.93392172 503.36704907 108.86765818 545.46188566 118.433543l-18.41494572 93.58253259h157.92361299c0 42.83637819-35.98947906 78.70226724-78.97416573 78.70226725H511.25210679L475.28734544 469.99835031h46.46993166V413.14683837c0-43.70150983 35.09962896-78.70226724 78.97416572-78.70226724V469.99835031h71.92952193a78.5045226 78.5045226 0 0 1-78.94944803 78.67754877h-5.26494437v86.58732496l82.45941068-25.36071798a78.97416573 78.97416573 0 0 1-53.51457545 97.93290921zM1502.59416841 219.72810638L1435.06445923 134.67330081c33.31992954-27.75836898 83.32454233-23.2844016 110.53911431 10.7276334l66.66457755 85.05480558c-33.34464801 28.67293677-82.45941068 23.2844016-109.6739827-10.72763341z m-186.86844824 1e-8L1248.22072944 134.67330081c33.34464801-27.75836898 83.34926002-23.2844016 110.53911356 10.7276334l66.66457754 85.05480558c-33.34464801 28.67293677-82.45941068 23.2844016-109.64926422-10.72763341zM1193.81630391 469.50398871V351.32699823c0-43.87453677 35.09962896-80.58083897 78.97416573-80.58083896h391.28671133l99.98450711-125.32050737C1791.22682391 111.36418075 1841.23143592 106.89021415 1874.60080161 134.64858313l-108.75941414 136.07285845h178.95867284v105.64493996c0 44.76438609-35.98947906 80.58083897-79.83929736 80.58083897V351.32699823H1272.76575195v36.7063022c0 44.73966841-35.98947906 81.47068828-78.97416573 81.47068828z m769.42342058 133.37859127c0 43.87453677-35.09962896 80.58083897-78.97416573 80.58083895h-234.2282292v139.65697499c0 44.76438609-35.09962896 80.58083897-78.10903411 80.58083895h-167.56365243c0-44.73966841 35.09962896-80.58083897 78.1090341-80.58083895h89.47933603v-139.65697499H1173.59694032c0-44.73966841 35.09962896-80.58083897 78.97416573-80.58083895H1572.79342709c2.64483104-20.5901344 12.28487047-38.4860016 27.18985353-50.12820279l55.26955715-46.54408551H1300.8454548c0-43.87453677 35.09962896-79.66627118 78.92472957-79.66627118h436.91622982c0 25.9539511-12.28487047 47.45865328-31.58966628 63.52538492l-133.35387358 112.81317456h311.44741399zM2529.95042751 208.50611293l77.21918479-63.624258c32.45479793-27.48647049 82.45941068-24.05066167 110.51439585 8.62659934l-77.19446631 63.57482109a79.98760583 79.98760583 0 0 1-110.53911433-8.57716243zM2216.74803258 516.19638346H2586.9749664v-67.90047998H2216.74803258v67.90047998z m-52.64944382-299.08838964L2086.92884091 153.4837358c28.07970363-32.67726025 78.10903411-36.11306906 110.53911356-8.62659857l77.19446631 63.62425724a79.98760583 79.98760583 0 0 1-110.53911432 8.57716318z m-136.83911776 224.29157358V327.96844201c0-42.11955505 35.09962896-77.36749249 78.94944725-77.36749248h257.06770693V193.89774606C2363.27662518 150.88834092 2398.32681875 116.53025358 2441.31150544 116.53025358v134.09541441h336.90700349v101.3934357c0 43.00940514-35.98947906 77.36749249-79.83929736 77.36749248V327.96844201H2106.20891825V363.21637945c0 42.95996899-35.96476057 78.18318795-78.94944725 78.18318795z m769.39870288 341.23266317c0 42.09483735-35.09962896 77.34277478-78.97416572 77.34277403H2007.0895428c0-42.98468669 35.09962896-77.36749249 78.97416572-77.3674925h276.34778504v-56.70320344H2088.65910417c0-42.11955505 35.09962896-76.50236087 78.08431563-76.50236088h195.64335605v-60.16373073h-220.18837856v-140.94231355c0-42.98468669 28.05498516-73.06655205 74.54963529-73.06655205h444.80128679v140.96703201c0 40.3892918-28.94483525 73.04183435-74.57435297 73.04183359h-145.63874329v60.16373073h273.72767169c0 42.11955505-35.09962896 76.50236087-78.08431562 76.50236088h-195.64335607v56.72792191h355.32195077z" p-id="4663" fill="#0084FF"></path></svg>