<svg id="图层_1" data-name="图层 1" xmlns="http://www.w3.org/2000/svg" viewBox="0 0 318.12 151.03"><defs><style>.cls-1{fill:#00577b;}.cls-2{fill:#2c5ca1;}.cls-3{fill:#1faec8;}.cls-4{fill:#4cb1da;}.cls-5{fill:#2d74a0;}</style></defs><title>logo</title><path class="cls-1" d="M350,347.72a8.75,8.75,0,0,0,1.84,1l-.42,1a8.44,8.44,0,0,1-2.32-1.33,5.35,5.35,0,0,1-2.66.67,5.13,5.13,0,0,1-2.66-.71,4.73,4.73,0,0,1-1.84-2,6.35,6.35,0,0,1-.65-2.89,6.48,6.48,0,0,1,.65-2.91,4.57,4.57,0,0,1,1.85-2,5.3,5.3,0,0,1,2.68-.69,5.2,5.2,0,0,1,2.7.71,4.65,4.65,0,0,1,1.83,2,6.45,6.45,0,0,1,.63,2.89,6.71,6.71,0,0,1-.41,2.4A5,5,0,0,1,350,347.72Zm-3.15-1.83a5.3,5.3,0,0,1,2,1,4.45,4.45,0,0,0,1.26-3.46,5.5,5.5,0,0,0-.45-2.29,3.44,3.44,0,0,0-1.31-1.52,3.74,3.74,0,0,0-4.58.55,4.55,4.55,0,0,0-1.06,3.27,4.6,4.6,0,0,0,1,3.24,3.47,3.47,0,0,0,2.67,1.13,3.66,3.66,0,0,0,1.45-.29,4.65,4.65,0,0,0-1.42-.62Z" transform="translate(-258.77 -222.13)"/><path class="cls-1" d="M375.28,348.88V338.07h1.43v10.81Z" transform="translate(-258.77 -222.13)"/><path class="cls-1" d="M400.67,348.88V338.07h1.47l5.68,8.49v-8.49h1.37v10.81h-1.47l-5.68-8.5v8.5Z" transform="translate(-258.77 -222.13)"/><path class="cls-1" d="M438.1,344.64v-1.27h4.58v4a8.1,8.1,0,0,1-2.18,1.27,6.47,6.47,0,0,1-2.3.42,6.14,6.14,0,0,1-2.89-.68,4.51,4.51,0,0,1-2-2,6.21,6.21,0,0,1-.66-2.88,6.69,6.69,0,0,1,.66-2.95,4.39,4.39,0,0,1,1.9-2,6,6,0,0,1,2.85-.66,5.64,5.64,0,0,1,2.12.38,3.52,3.52,0,0,1,1.49,1.06,4.71,4.71,0,0,1,.82,1.77l-1.29.35a4,4,0,0,0-.6-1.3,2.49,2.49,0,0,0-1-.76,3.79,3.79,0,0,0-1.49-.28,4.39,4.39,0,0,0-1.7.3,3.16,3.16,0,0,0-1.15.79,3.74,3.74,0,0,0-.68,1.07,5.66,5.66,0,0,0-.41,2.18,5.28,5.28,0,0,0,.5,2.42,3.19,3.19,0,0,0,1.45,1.45,4.49,4.49,0,0,0,2,.47,4.8,4.8,0,0,0,1.81-.36,4.69,4.69,0,0,0,1.34-.76v-2Z" transform="translate(-258.77 -222.13)"/><path class="cls-1" d="M469.29,348.88V344.3l-4.17-6.23h1.74l2.13,3.26q.59.91,1.1,1.83.49-.85,1.18-1.91l2.1-3.18H475l-4.31,6.23v4.58Z" transform="translate(-258.77 -222.13)"/><path class="cls-1" d="M504.86,338.07h1.43v6.25a7.39,7.39,0,0,1-.37,2.59,3.16,3.16,0,0,1-1.33,1.56,4.71,4.71,0,0,1-2.53.6,5.2,5.2,0,0,1-2.49-.52A3,3,0,0,1,498.2,347a7.22,7.22,0,0,1-.41-2.71v-6.25h1.43v6.24a6.1,6.1,0,0,0,.26,2.08,2,2,0,0,0,.9,1,3.12,3.12,0,0,0,1.56.36,3,3,0,0,0,2.25-.72,4.12,4.12,0,0,0,.67-2.75Z" transform="translate(-258.77 -222.13)"/><path class="cls-1" d="M528.94,348.88l4.15-10.81h1.54l4.43,10.81h-1.63l-1.26-3.28h-4.52l-1.19,3.28Zm3.12-4.44h3.67l-1.13-3q-.52-1.37-.77-2.24a13.72,13.72,0,0,1-.58,2.06Z" transform="translate(-258.77 -222.13)"/><path class="cls-1" d="M561.64,348.88V338.07h1.47l5.68,8.49v-8.49h1.37v10.81h-1.47l-5.68-8.5v8.5Z" transform="translate(-258.77 -222.13)"/><path class="cls-1" d="M524.59,326.23h-2.3a2.43,2.43,0,1,1,0-4.86h2.3c2.47,0,5.12-1,5.12-3.27V273.38a2.43,2.43,0,0,1,4.86,0v44.73C534.57,322.82,530.37,326.23,524.59,326.23Z" transform="translate(-258.77 -222.13)"/><path class="cls-1" d="M532.14,279.18h-9.48a2.43,2.43,0,1,1,0-4.86h9.48a2.43,2.43,0,1,1,0,4.86Z" transform="translate(-258.77 -222.13)"/><path class="cls-1" d="M532.14,304.06h-9.85a2.43,2.43,0,1,1,0-4.86h9.85a2.43,2.43,0,1,1,0,4.86Z" transform="translate(-258.77 -222.13)"/><path class="cls-1" d="M571.55,278.87H542a2.43,2.43,0,1,1,0-4.86h29.56a2.43,2.43,0,1,1,0,4.86Z" transform="translate(-258.77 -222.13)"/><path class="cls-1" d="M556.44,295.21a2.43,2.43,0,0,1-2.43-2.43V273.25a2.43,2.43,0,0,1,4.86,0v19.54A2.43,2.43,0,0,1,556.44,295.21Z" transform="translate(-258.77 -222.13)"/><path class="cls-1" d="M574.46,326.73a2.42,2.42,0,0,1-1.71-.7L557.94,311.4a2.43,2.43,0,0,1,.15-3.59l10.48-8.73a1.62,1.62,0,0,0,.52-1.88,2,2,0,0,0-1.73-1.32H542a2.43,2.43,0,1,1,0-4.86h25.38a6.82,6.82,0,0,1,6.27,4.44,6.48,6.48,0,0,1-1.84,7.26l-.07.06-8.46,7.05,12.91,12.75a2.43,2.43,0,0,1-1.71,4.16Zm-4.3-25.83h0Z" transform="translate(-258.77 -222.13)"/><path class="cls-1" d="M541,326.69a2.43,2.43,0,0,1-1.54-4.31l12.88-10.57a2.43,2.43,0,1,1,3.08,3.76l-12.88,10.57A2.42,2.42,0,0,1,541,326.69Z" transform="translate(-258.77 -222.13)"/><path class="cls-1" d="M506.28,326.52a2.43,2.43,0,0,1-2.43-2.43V274a2.43,2.43,0,0,1,4.86,0v50.05A2.43,2.43,0,0,1,506.28,326.52Z" transform="translate(-258.77 -222.13)"/><path class="cls-1" d="M481.18,326.14a2.43,2.43,0,0,1-2.43-2.43V297.42a2.43,2.43,0,0,1,4.86,0v26.29A2.43,2.43,0,0,1,481.18,326.14Z" transform="translate(-258.77 -222.13)"/><path class="cls-1" d="M464.32,326.14a2.43,2.43,0,0,1-2.43-2.43V297.42a2.43,2.43,0,0,1,4.86,0v26.29A2.43,2.43,0,0,1,464.32,326.14Z" transform="translate(-258.77 -222.13)"/><path class="cls-1" d="M512.8,311H488.69a2.43,2.43,0,1,1,0-4.86H512.8a2.43,2.43,0,1,1,0,4.86Z" transform="translate(-258.77 -222.13)"/><path class="cls-1" d="M498.5,284.59h-9.81a2.16,2.16,0,1,1,0-4.32h9.81a2.16,2.16,0,1,1,0,4.32Z" transform="translate(-258.77 -222.13)"/><path class="cls-1" d="M498.5,297.61h-9.81a2.16,2.16,0,1,1,0-4.32h9.81a2.16,2.16,0,1,1,0,4.32Z" transform="translate(-258.77 -222.13)"/><path class="cls-1" d="M474.93,278.88H462.24a2.2,2.2,0,0,1,0-4.39h12.69c1.5,0,1.5-.55,1.5-.76v-.52a2.2,2.2,0,1,1,4.39,0v.52C480.83,276.81,478.46,278.88,474.93,278.88Z" transform="translate(-258.77 -222.13)"/><path class="cls-1" d="M473.36,326.14a2.43,2.43,0,0,1-2.43-2.43V294.3c0-2.24-2.43-4.36-5-4.36h-3.68a2.43,2.43,0,1,1,0-4.86h3.68c5.26,0,9.87,4.31,9.87,9.22v29.4A2.43,2.43,0,0,1,473.36,326.14Z" transform="translate(-258.77 -222.13)"/><path class="cls-1" d="M448,279.07H406.29a2.39,2.39,0,0,1,0-4.78H448a2.39,2.39,0,1,1,0,4.78Z" transform="translate(-258.77 -222.13)"/><path class="cls-1" d="M449.88,291.38H405.13a2.39,2.39,0,0,1,0-4.78h44.75a2.39,2.39,0,1,1,0,4.78Z" transform="translate(-258.77 -222.13)"/><path class="cls-1" d="M444.94,326.24a7.85,7.85,0,0,1-5.83-2.08c-2.35-2.38-2.3-6.05-2.25-9.6,0-.52,0-1.05,0-1.58v-16.5a2.43,2.43,0,0,1,4.86,0V313c0,.55,0,1.1,0,1.65,0,2.55-.07,5.18.85,6.12a3.32,3.32,0,0,0,2.35.63l9.25-.08a2.43,2.43,0,0,1,0,4.86Z" transform="translate(-258.77 -222.13)"/><path class="cls-1" d="M403.52,326.89a2.43,2.43,0,0,1-.06-4.86l5.59-.14a3.49,3.49,0,0,0,2.31-.88c2-1.9,2.21-5.56,2.21-9.15V296.14a2.43,2.43,0,0,1,4.86,0v15.72c0,4.45-.29,9.48-3.75,12.71a8.34,8.34,0,0,1-5.5,2.18l-5.59.14Z" transform="translate(-258.77 -222.13)"/><path class="cls-1" d="M392.66,303.15a2.42,2.42,0,0,1-1.56-.57L377.41,291a2.43,2.43,0,0,1-.28-3.44l7.26-8.5h-18a2.43,2.43,0,1,1,0-4.86H385a4.6,4.6,0,0,1,3.64,7.41l-.08.09-6.11,7.15,11.81,10a2.43,2.43,0,0,1-1.57,4.29Zm-7.7-24h0Z" transform="translate(-258.77 -222.13)"/><path class="cls-1" d="M366.4,303.15a2.43,2.43,0,0,1-1.65-4.22l7.41-6.83a2.43,2.43,0,1,1,3.29,3.57L368,302.51A2.42,2.42,0,0,1,366.4,303.15Z" transform="translate(-258.77 -222.13)"/><path class="cls-1" d="M378.21,325.3a2.43,2.43,0,0,1-2.43-2.43V310.63H366.4a2.43,2.43,0,1,1,0-4.86h11.8a2.43,2.43,0,0,1,2.43,2.43v14.67A2.43,2.43,0,0,1,378.21,325.3Z" transform="translate(-258.77 -222.13)"/><path class="cls-1" d="M394.77,327h-30.1a2.43,2.43,0,0,1,0-4.86h30.1a2.43,2.43,0,1,1,0,4.86Z" transform="translate(-258.77 -222.13)"/><path class="cls-1" d="M356.53,310.74h-12a7.19,7.19,0,0,1-7.19-7.19V299a17.5,17.5,0,0,1,1.35-6.77l8.47-20.32a2.43,2.43,0,0,1,4.48,1.87l-8.47,20.32a12.66,12.66,0,0,0-1,4.9v4.53a2.33,2.33,0,0,0,2.33,2.33h12a2.43,2.43,0,0,1,0,4.86Z" transform="translate(-258.77 -222.13)"/><path class="cls-1" d="M350.3,327.85a2.43,2.43,0,0,1-2.43-2.43v-32a2.43,2.43,0,1,1,4.86,0v32A2.43,2.43,0,0,1,350.3,327.85Z" transform="translate(-258.77 -222.13)"/><path class="cls-1" d="M356.79,324.07h-17a2.43,2.43,0,1,1,0-4.86h17a2.43,2.43,0,0,1,0,4.86Z" transform="translate(-258.77 -222.13)"/><path class="cls-1" d="M358.36,279.75H338a2.43,2.43,0,0,1,0-4.86h20.32a2.43,2.43,0,1,1,0,4.86Z" transform="translate(-258.77 -222.13)"/><path class="cls-1" d="M390.65,310.63h-5.88a2.43,2.43,0,1,1,0-4.86h5.88a2.43,2.43,0,1,1,0,4.86Z" transform="translate(-258.77 -222.13)"/><path class="cls-2" d="M301.26,222.13S285.34,239.76,285.79,256a46.91,46.91,0,0,0,9.48,26.9s-19.76-9.14-19.54-29.1S301.26,222.13,301.26,222.13Z" transform="translate(-258.77 -222.13)"/><path class="cls-3" d="M314.31,319c-6.53-24-21.89-29.17-35.42-41.65s-6.08-28.68-6.08-28.68c-6.21,12-16,26.32-6.05,45.28,6.84,7.7,18.09,16.31,30.86,32.28,18.75,23.46,20.84,46.89,20.84,46.89S320.84,343,314.31,319Z" transform="translate(-258.77 -222.13)"/><path class="cls-4" d="M280.5,311.24c-6.52-6.16-10.92-11.89-13.74-17.25-3.65-4.11-6-8-6.73-12.55,0,0-6.15,35,8.75,48.29,14.32,12.81,22.91,13.75,34.15,24.73,7.82,7.63,15.53,18.69,15.53,18.69S307.93,337.17,280.5,311.24Z" transform="translate(-258.77 -222.13)"/><path class="cls-5" d="M266.76,294c2.82,5.36,7.22,11.09,13.74,17.25,27.43,25.93,38,61.92,38,61.92s-2.1-23.43-20.84-46.89C284.85,310.29,273.6,301.69,266.76,294Z" transform="translate(-258.77 -222.13)"/></svg>