<svg xmlns="http://www.w3.org/2000/svg" xmlns:xlink="http://www.w3.org/1999/xlink" width="106.983" height="22" viewBox="0 0 106.983 22"><defs><style>.a,.g{fill:#fff;}.a{stroke:#707070;}.b{fill:#282b2e;}.c{clip-path:url(#a);}.d{fill:url(#b);}.e{fill:url(#c);}.f{fill:none;stroke:#fff;stroke-linejoin:round;stroke-width:0.6px;}</style><clipPath id="a"><rect class="a" width="22" height="22" rx="2" transform="translate(0 0.195)"/></clipPath><linearGradient id="b" x1="0.5" y1="0.265" x2="0.825" y2="1" gradientUnits="objectBoundingBox"><stop offset="0" stop-color="#2da0f5"/><stop offset="1" stop-color="#3db8f8"/></linearGradient><linearGradient id="c" x1="0.5" x2="0.5" y2="1" gradientUnits="objectBoundingBox"><stop offset="0" stop-color="#4796fc"/><stop offset="1" stop-color="#6a51fe"/></linearGradient></defs><g transform="translate(-4161 -1589)"><g transform="translate(4057.526 1398.179)"><path class="b" d="M158.049,206.8v-2.2h-.8c-.2,0-.667-.015-.667-.015v-.2l-.013-8.813,1.471-.018V193.55l-1.471-.037.016-2.676h-2.21l.006,2.676h-1.749v2.041l1.749.034.013,8.805v.217s-.587-.008-.786-.008c-.218,0-.96.008-.96.008V206.8h1.746v1.754a1.625,1.625,0,0,1-1.726,1.5v2.2a3.706,3.706,0,0,0,3.912-3.7v-.94c0-.22-.014-.793-.014-.793s.484-.01.68-.01Z" transform="translate(-3)"/><rect class="b" width="18.519" height="2.2" transform="translate(170.663 190.823)"/><path class="b" d="M183.731,208.754H189a1.326,1.326,0,0,0,1.364-1.288h0v-.907l-.006-3.908v-2.2l-.006-3.908v-2.2H179.468l.021,14.4h4.245Zm2.369-12.208h2.062l.005,3.909H186.1Zm.008,6.1h2.062v3.493a.406.406,0,0,1-.4.415h-1.665Zm-4.477-6.1h2.078l.005,3.909h-2.076Zm.01,6.1h2.076l.006,3.908h-2.076Z" transform="translate(-5)"/><path class="b" d="M192,210H177.842l-.022-14.733h-2.151l.02,14.728v2.2l18.52-.016-.024-16.912h-2.206Z" transform="translate(-5)"/><path class="b" d="M214.9,190.821v.012H201.081v-.012h-2.53l.03,21.362h.027v.012l18.849-.012-.03-21.362ZM215.269,210h-14.5l-.024-16.971h14.5Z" transform="translate(-7)"/><path class="b" d="M213.145,202.5a9.968,9.968,0,0,1-3.915-.795l-1.223-.526-.639.376a7,7,0,0,1-3.553.94h-1.627v-2.2h.793a7.262,7.262,0,0,0,2.194-.339,6.975,6.975,0,0,0-2.518-.472h-.521v-2.151h.513a9.966,9.966,0,0,1,3.914.794l1.18.512,3.629-1.911H205.82a3.4,3.4,0,0,1-3.769-2.989h2.211a1.026,1.026,0,0,0,1.1.913l.453.009h7.941v3.219h-.023l.023.026-3.378,1.872.042.019a6.926,6.926,0,0,0,2.716.551h.669v2.151Z" transform="translate(-7)"/><path class="b" d="M208.029,203.779h-5.887v2.093h5.887a24.2,24.2,0,0,0,5.63-.654V203.03a21.453,21.453,0,0,1-5.63.745Z" transform="translate(-7)"/><path class="b" d="M208.033,206.973h-5.887v2.094h5.893a24.213,24.213,0,0,0,5.631-.655v-2.188a21.458,21.458,0,0,1-5.629.746Z" transform="translate(-7)"/><path class="b" d="M134.081,210.26a1.309,1.309,0,0,1-1.39-1.2s-.015-1.656-.015-1.853l-.032-12.413h-3.088v2.085l.96-.008.015,12.334h-.006a.989.989,0,0,1-1.051.913v2.142a3.747,3.747,0,0,0,2.227-.893,3.569,3.569,0,0,0,2.39.9l13.409-.008h.926v-1.99s-.675.009-.928.009Z"/><path class="b" d="M143.657,193.422l.037,15.289h4.574v-1.989l-2.567-.011-.006-15.283H134.129v2.006Z"/><path class="b" d="M144.657,191.428v8.345H146.7l-.006-8.345Z" transform="translate(334.087 54.39) rotate(90)"/><rect class="b" width="3.152" height="2" transform="translate(129.554 191.428)"/><path class="b" d="M171.058,198.771h-.413l-.017-3.513h-4.641V194.1h5.031V191.91h-5.031l0-1.071h-2.137v1.074h-4.92V194.1h4.92v1.159h-4.573v2.189h4.573v1.32h-4.936v2.188h4.936v1.417h-4.573v2.188h4.573v5.414a2,2,0,0,1-2.045-1.328l-.019-2.729H159.6v3.088a1.193,1.193,0,0,1-1.259.926v2.243a3.613,3.613,0,0,0,2.365-.857,6.088,6.088,0,0,0,3.163.857l7.167.018v-2.189h-5.028v-1.667h4.534V206.15h-4.534v-1.587h4.665l-.018-3.605h.4Zm-5.065-1.32h2.439v1.32h-2.439Zm2.447,4.926H166v-1.419h2.439Z" transform="translate(-3)"/><path class="b" d="M156.569,195.575v2.2l.016-2.676h-2.21l.006,2.676s.091,8.715.013,10.771a1.625,1.625,0,0,1-1.726,1.5v2.2a3.706,3.706,0,0,0,3.912-3.7v-.94c0-.22-.014-.793-.014-.793Z" transform="translate(-17.635 -3.501)"/></g><g class="c" transform="translate(4161 1588.805)"><path class="d" d="M2,0H20a2,2,0,0,1,2,2V20a2,2,0,0,1-2,2H2a2,2,0,0,1-2-2V2A2,2,0,0,1,2,0Z" transform="translate(0 0.195)"/><path class="e" d="M2.3,22.57H2a2,2,0,0,1-2-2V2A2,2,0,0,1,2,0H20.174L14.7,13.667,8.533,8.578,2.3,22.57Z" transform="translate(0 0.093)"/><path class="f" d="M449.3-4898.362l-5.894,14.319-6.1-4.992-6.361,14.118-2.641,3.22" transform="translate(-428.751 4897.909)"/><circle class="g" cx="1.5" cy="1.5" r="1.5" transform="translate(16 5.195)"/><circle class="g" cx="1.5" cy="1.5" r="1.5" transform="translate(13 12.195)"/><circle class="g" cx="1.5" cy="1.5" r="1.5" transform="translate(7 7.195)"/><circle class="g" cx="1.5" cy="1.5" r="1.5" transform="translate(4 14.195)"/></g></g></svg>