<?xml version="1.0" encoding="utf-8"?>
<!-- Generator: Adobe Illustrator 23.0.6, SVG Export Plug-In . SVG Version: 6.00 Build 0)  -->
<svg version="1.1" id="图层_1" xmlns="http://www.w3.org/2000/svg" xmlns:xlink="http://www.w3.org/1999/xlink" x="0px" y="0px"
	 viewBox="0 0 238 28" style="enable-background:new 0 0 238 28;" xml:space="preserve">
<style type="text/css">
	.st0{fill:#003D95;}
	.st1{fill:#DE0515;}
	.st2{fill:url(#SVGID_1_);}
	.st3{fill:#D51522;}
	.st4{opacity:0.3;fill:#9196A4;}
	.st5{fill-rule:evenodd;clip-rule:evenodd;fill:#3778FA;}
	.st6{fill:#3778FA;}
</style>
<g>
	<polygon class="st0" points="41.2,15.9 49.3,15.9 49.4,12.1 41.7,12.1 41.7,9.8 49.4,9.8 49.4,8.2 41.7,8.2 41.8,5.9 61.5,5.9 
		61.5,8.2 53.2,8.2 53.2,9.8 61.6,9.8 61.6,12.1 53.1,12.1 53.1,15.9 62,15.9 62,18 41.2,18 	"/>
	<path class="st0" d="M51.6,2.8c-0.6,0-1.4,0.5-1.4,0.5l-3.3,1.9h-5.6l7-4.2c0,0,1.9-0.9,3.2-0.9c1.5,0,2.7,0.7,2.7,0.7l7.4,4.5
		l-5.4,0l-3.1-1.9C53.2,3.3,52.1,2.8,51.6,2.8z"/>
	<polygon class="st0" points="43.5,12.5 46.6,12.5 47.4,15.4 44.3,15.4 	"/>
	<path class="st0" d="M70.7,0.8h6v1.9h-2.6l0,0.9H77v1.8h-3l3.5,3.2l-3.4,0l-1.9-1.8l-1.9,1.8h-3.6l3.7-3.2H67l0-1.8h3.9l0-0.9h-1.2
		l-0.2,0.4l-2.8,0L68.4,0h2.8L70.7,0.8z M67.2,9.8h18.9l0,5.6l0,2.6h-19L67.2,9.8z M70.1,11.7l0,1.4h11.5l0,1.8H70l0,1.3h13.2
		l0.1-4.4H70.1z M77.7,8.4l0-8h8.7l0,5.5v2.5L77.7,8.4z M83.6,2.3h-2.9l0.1,4.2l2.8,0L83.6,2.3z"/>
	<path class="st0" d="M99.2,15.8l0,2.2h-7.8l0-2.2H99.2z M98.1,0L94.7,6h0.7l1.3-2.2h3l-4.4,8.3h3.8l0,2.3h-7.5l0-2.2l2.3-3.6h-2.2
		l0-2.1l4-6.4H98.1z M109.6,1h3.2l0,2l-3.2,0v2.7l3,0l0,2l-3,0v2.9l3,0l0,2l-3,0l0,3.2l3.2,0l0,2.1H101l0-12.7h-1.6L102,0h3.5L105,1
		h1.4c0-0.1,0-0.9,0-0.9l3.3,0L109.6,1z M106.4,12.7l-2.3,0v3.2l2.3,0V12.7z M104,10.6l2.3,0V7.8l-2.3,0V10.6z M104,5.7l2.3,0V3
		L104,3V5.7z"/>
	<path class="st1" d="M10.5,13.4c0.1-0.1,0.3-0.4,0.3-0.4L22.9,0.7c0,0,0.4-0.5,1.3-0.5c0.8,0,12.5,0,12.5,0s0.2,0,0.3,0.2
		c0.1,0.2-0.1,0.3-0.2,0.5C36.6,1,24.4,13.2,24.4,13.2s-1.7-2-2.3-5.5c-0.5-3,1-6.8,1.2-7.2c0,0-1.7,2.7-2,5
		c-0.3,2.4,0.3,6.6,2.7,9.2c2.4,2.6,12.6,12.7,12.6,12.7s0.2,0.1,0.1,0.4c0,0.1-0.2,0.2-0.4,0.2H24.1c0,0-0.8,0-1.4-0.6L10.6,15
		C10.6,15,10,14.3,10.5,13.4z"/>
	<linearGradient id="SVGID_1_" gradientUnits="userSpaceOnUse" x1="22.014" y1="6.6737" x2="36.9996" y2="6.6737">
		<stop  offset="0" style="stop-color:#81171C"/>
		<stop  offset="0.1908" style="stop-color:#95131A"/>
		<stop  offset="0.7219" style="stop-color:#CA0917"/>
		<stop  offset="0.9818" style="stop-color:#DE0515"/>
	</linearGradient>
	<path class="st2" d="M24.4,13.2c0,0-2.1-2.6-2.4-6.6c-0.1-1.3,0.4-4.3,1.3-6.3c0,0,0.3-0.1,0.7-0.2l1.7,0l11,0c0,0,0.3,0.1,0.3,0.4
		c0,0.1-0.2,0.3-0.2,0.3C36.8,0.9,24.4,13.2,24.4,13.2z"/>
	<path class="st1" d="M1.2,2.5c0,0,2.4,0.1,4.1-0.3C5.8,2,7.6,1.6,9,0.3c0,0,0.2-0.2,0.4-0.2h3.5c0,0,0.2,0,0.3,0.1
		c0,0,0.2,0.2,0.2,0.3c0,0.2,0,8.2,0,8.2L9.1,13c0,0-0.4,0.5-0.4,1c0,0.6,0.1,0.8,0.5,1.2c0.4,0.4,4.1,4.2,4.1,4.2l0,4
		c0,0,0,1.5,0.9,2.2c0.1,0.1,0.9,0.8,3,0.8l1.1,0c0,0,0.3-0.1,0.3,0.3c0,0.3,0,1.3,0,1.3L0.2,28v-1.6c0,0,1.9,0.1,2.6,0
		c0,0,0.6,0,1.2-0.2c0.6-0.2,1-0.5,1.3-1.2c0.1-0.3,0.3-0.9,0.3-2c0-1.1,0-7.4,0-7.4l0-9.2c0,0,0-1.1-0.6-1.5
		C4.4,4.3,3.7,4.1,1.7,4.2l-0.6,0V2.5z"/>
	<polygon class="st0" points="44.4,25.1 43.1,25.1 43.1,28 41.1,28 41.1,20.5 43.1,20.5 43.1,23.3 44.4,23.3 46.6,20.5 48.6,20.5 
		46,24.2 48.6,28 46.6,28 	"/>
	<path class="st0" d="M51.4,28h-2v-7.4h2v4.6L51.4,28z"/>
	<path class="st0" d="M59.7,28h-2.3v-4.6c0-0.4,0-0.7-0.2-0.8c-0.1-0.2-0.2-0.3-0.8-0.3h-0.9c-0.5,0-0.7,0.1-0.9,0.3
		c-0.2,0.2-0.2,0.5-0.2,0.9l0,4.6h-2.2v-5.3c0-0.7,0-2.1,0-2.1h2.2v0.3c0,0,0.2-0.3,1.2-0.3h1.1c0.9,0,1.6,0.1,2.1,0.5
		c0.4,0.3,0.8,0.9,0.8,1.6V28z"/>
	<path class="st0" d="M68,28l-1.9,0v-0.3c0,0-0.6,0.1-1.3,0.1c-0.7,0-1.5,0-1.9,0c-0.9,0-1.5-0.2-1.8-0.5c-0.3-0.4-0.5-0.7-0.5-1.4
		v-3.2c0-0.7,0.2-1.3,0.5-1.6c0.3-0.4,0.9-0.5,1.8-0.5h2.9H68v1.7h-2h-1.2h-1.1c-0.5,0-0.8,0.1-1,0.3c-0.2,0.2-0.2,0.5-0.2,0.9v1.7
		c0,0.4,0.1,0.4,0.2,0.6c0.2,0.2,0.5,0.3,1,0.3c0,0,0.8,0,1.1,0c0.5,0,1.2-0.2,1.2-0.2v-1.9h2V28z"/>
	<path class="st3" d="M69.8,20.8c0.3-0.3,0.9-0.3,1.4-0.3h5.5l0,0.8c0,0,0,0.5-0.2,0.8c-0.2,0.2-0.9,0.2-0.9,0.2h-0.4h-3.8
		c-0.1,0-0.2,0-0.2,0.2c0,0.1,0,0.2,0.1,0.2l4.6,2.1c0.4,0.3,0.7,0.5,0.7,0.9c0.1,0.4,0.1,0.6,0,0.9c-0.1,0.3-0.2,0.6-0.5,0.9
		S75.6,28,75.1,28H69l0-0.9c0,0,0-0.4,0.3-0.6c0.3-0.3,0.9-0.2,0.9-0.2h4c0.2,0,0.2-0.1,0.2-0.2c0-0.1-0.1-0.1-0.1-0.2L70,24
		c-0.5-0.2-1.1-0.9-1.1-1.6c0-0.3,0-0.5,0.1-0.6C69.3,21.3,69.4,21.2,69.8,20.8z"/>
	<path class="st0" d="M83.7,28h-3.2c-0.8,0-1.4-0.1-1.7-0.4c-0.3-0.4-0.7-0.9-0.7-1.7l-0.5-5.3h1.9l0.5,4.6c0,0.4,0.1,0.7,0.2,0.9
		c0.2,0.2,0.3,0.3,0.8,0.3c0,0,0.3,0,0.5-0.3c0.1-0.2,0.1-0.6,0.1-0.6l0-4.8h1.9l0,4.9c0,0,0,0.6,0.2,0.7c0.1,0.1,0.5,0.1,0.5,0.1
		c0.5,0,0.6-0.1,0.7-0.3c0.1-0.2,0.2-0.5,0.2-0.9l0.6-4.5h2l-0.7,5.3c0,0.7-0.3,1.3-0.6,1.7C86,28,85.3,28,84.5,28L83.7,28z"/>
	<path class="st0" d="M92.8,25.5h-0.4H91h-0.4L90,28h-2c0.8-3.4,1.4-5.1,1.4-5.3c0.1-0.4,0.3-0.9,0.7-1.4c0.4-0.5,1.2-0.8,1.6-0.8
		l0,0c0.4,0,1.3,0.3,1.7,0.8c0.4,0.5,0.6,1,0.7,1.4c0.1,0.1,0.7,1.9,1.5,5.3h-2L92.8,25.5z M91.8,23.8h0.7c0,0-0.4-1.6-0.9-1.6
		c-0.5,0-0.8,1.6-0.8,1.6H91.8z"/>
	<path class="st0" d="M104.2,28h-2.3l-2.4-2.6h-1V28h-2v-6c0,0-0.1-0.5,0.4-1c0.3-0.4,1-0.4,1-0.4h0.9h2.9c0.9,0,1.2,0.2,1.5,0.6
		c0.3,0.4,0.5,0.9,0.5,1.6V23v0.3c0,0.7-0.1,1.2-0.4,1.5c-0.3,0.4-0.4,0.5-1.1,0.6h-0.4L104.2,28z M100.7,23.8
		c0.5,0,0.6-0.1,0.8-0.3c0.1-0.2,0.2-0.3,0.2-0.5c0-0.2,0-0.4-0.2-0.6c-0.1-0.2-0.3-0.2-0.8-0.2h-1.1h-1.1v1.6H100.7z"/>
	<path class="st0" d="M107.3,25.1h-0.6c0,0.4,0,1.1,0,1.1s0.7,0,1.2,0h1l3.8,0V28l-2.9,0H107c-0.9,0-1.4-0.2-1.8-0.6
		c-0.4-0.4-0.4-1.3-0.4-2l0-2.2c0-0.7-0.1-1.5,0.4-2.1c0.3-0.4,0.9-0.6,1.8-0.6h2.9l2.9,0v1.7l-3.8,0h-1c-0.5,0-1.2,0-1.2,0
		s0,0.7,0,1.1h0.6l5.4,0v1.7L107.3,25.1z"/>
	<polygon class="st0" points="56.1,12.7 59.2,12.7 58.2,15.4 55.1,15.4 	"/>
</g>
<rect x="124" class="st4" width="1" height="28"/>
<g>
	<g id="K_2_">
		<g>
			<path class="st5" d="M152.5,12.5l12-11.1l0.6-0.7h-7.4l-1.6,1.4l-10.8,10.5c0,0-0.2,0.3-0.3,0.4c-0.4,0.9-0.1,1.5-0.1,1.5l9.2,12
				l3.1-0.1l3.6,0l0.8,0.1l-0.5-0.6c0,0-7.7-9.7-9.1-12.1C151.6,13.1,152.5,12.5,152.5,12.5z M147.8,25.2l-0.8,0
				c-1.5,0-1.9-1.2-1.9-1.5c0-0.8,0.2-2.1,0.2-2.1l0.4-3.7c0,0-1.6-2.6-1.8-3c-0.2-0.4-0.3-0.6-0.2-1.1c0-0.5,0.4-1,0.4-1l3.7-3.9
				c0,0,1-7.5,1-7.7c0-0.2-0.1-0.3-0.1-0.3c-0.1-0.1-0.2-0.1-0.2-0.1h-2.7c-0.2,0-0.3,0.2-0.3,0.2c-1.2,1.3-2.2,1.6-2.6,1.7
				c-1.3,0.4-1.9,0.3-1.9,0.3l-0.2,1.6l0.4,0c0.8,0.1,0.8,0.1,1.2,0.5c0.4,0.4,0.2,1.4,0.2,1.4l-1.4,8.6c0,0-0.7,5.8-0.8,6.8
				c-0.1,1-0.3,1.6-0.4,1.8c-0.3,0.6-0.6,1-1.1,1.1c-0.4,0.2-0.9,0.2-0.9,0.2c-0.5,0.1-1.1,0-1.1,0l-0.2,1.4l11.3,0
				c0,0,0.1-0.9,0.1-1.2C148.1,25.1,147.8,25.2,147.8,25.2z"/>
		</g>
	</g>
	<g id="_x2D__2_">
		<g>
			<polygon class="st6" points="157.7,12.3 156.9,16.9 166,16.9 166.8,12.3 			"/>
		</g>
	</g>
	<g id="R_2_">
		<g>
			<path class="st5" d="M191,8.1c0.2-1.2,0.1-2.3-0.2-3.3c-0.3-1-0.9-1.8-1.7-2.4c-1.1-0.9-3.4-1.4-6.6-1.4h-9l-2.6,0l-0.3,2.4
				l-3.7,23.2h5l1.5-9.4h0l0.9-5h0l1.1-6.8h7c0.9,0,1.5,0.1,1.9,0.2c1.1,0.4,1.5,1.4,1.2,3c-0.2,1.4-0.8,2.4-1.6,3
				c-0.6,0.4-1.4,0.6-2.6,0.6h-5.4l-0.9,4.6h2.6c1.7,0,3,0.2,3.9,0.8c0.7,0.5,1.1,1.1,1.3,1.9c0.2,0.8,0.3,1.9,0.2,3.4
				c-0.1,1.9-0.4,3.2-0.4,3.7h5.5c0.1-0.7,0.3-2.1,0.4-4c0.1-1.1,0.1-1.9,0.1-2.5c0-0.6-0.1-1.2-0.3-1.8c-0.3-0.8-0.6-1.4-1-1.8
				c-0.4-0.4-1-0.8-1.9-1.1c1.2-0.4,2.2-1,3.1-1.8C189.7,12.4,190.6,10.5,191,8.1z"/>
		</g>
	</g>
	<g id="P_2_">
		<g>
			<path class="st5" d="M214.1,4.9c-0.6-1.8-1.6-2.9-3.1-3.5c-0.9-0.3-2.4-0.5-4.5-0.5h-8.8l-3,0l-0.4,2.5l-3.7,23.2h5l1.3-8.2h-0.1
				l1-5.4h-0.1l1.2-7.6h6.9c0.9,0,1.5,0.1,1.9,0.3c1,0.5,1.4,1.6,1.1,3.3c-0.3,1.6-0.8,2.7-1.6,3.4c-0.6,0.4-1.5,0.6-2.7,0.6h-5.3
				l-0.8,4.6h6.6c1.4,0,2.5-0.1,3.3-0.4c0.8-0.3,1.6-0.7,2.5-1.4c0.9-0.7,1.7-1.7,2.3-2.9c0.6-1.2,1-2.4,1.3-3.7
				C214.6,7.7,214.5,6.2,214.1,4.9z"/>
		</g>
	</g>
	<g>
		<path class="st5" d="M228.3,11.6c-0.2,0-0.5,0.1-1.6,0.6c-0.5,0.2-1.9,0.2-2.5,0c-0.3-0.1-1.1-0.7-2-0.5c0,0-1.3,0.2-1.3,2.4
			c0,0.3-0.1,2.2,1.5,2.4c0.2,0,0.8-0.1,1.5-0.4c0.7-0.3,1.9-0.4,2.7-0.1c0.7,0.3,1.4,0.5,1.8,0.5c0.4,0,1.5-0.1,1.7-2.1
			C230.1,14,230.2,11.5,228.3,11.6z M223.9,14.4c0,0.3-0.2,0.6-0.5,0.6c-0.3,0-0.5-0.3-0.5-0.6l0-0.7c0-0.3,0.2-0.6,0.5-0.6
			c0.3,0,0.5,0.3,0.5,0.6L223.9,14.4z M228.1,14.5c0,0.3-0.2,0.6-0.5,0.6c-0.3,0-0.5-0.3-0.5-0.6l0-0.7c0-0.3,0.2-0.6,0.5-0.6
			c0.3,0,0.5,0.3,0.5,0.6L228.1,14.5z"/>
		<path class="st5" d="M237.9,21.2c0,0-5.6-16.5-5.7-16.8c-0.2-0.4-1.7-3.6-6.4-3.6c-4.7,0-6.4,4-6.4,4L212,21.5
			c-0.9,4.2,2.5,5.1,2.5,5.1s1.7,0,4,0c0.1-0.4,0.2-0.7,0.3-1.1c0.4-0.8,1.5-3.3,2.8-4.3c0.3-0.6,2-1.1,4-1c1.3,0,2.4,0.3,3.2,0.6
			c0,0,0,0,0,0c0-0.1-0.1-0.2-0.1-0.3c0,0,0.1,0.1,0.1,0.3c0,0,0,0,0,0c0.4,0.2,0.7,0.4,0.7,0.6c1.2,1.1,2.2,3.6,2.6,4.4
			c0.1,0.3,0.1,0.5,0.2,0.8c1.5,0,2.6,0,2.7-0.1C238.8,25.1,237.9,21.2,237.9,21.2z M231.2,15.6c-0.2,1.1-0.8,2-1.5,2.5
			c-1,0.8-2.4,0.9-4,1c-1.6,0-3.1-0.1-4.2-0.9c-0.8-0.5-1.3-1.5-1.6-2.6c-0.5-0.4-1.4-1.7-0.4-6.2c0,0,0-0.1,0-0.1c0,0,0,0,0,0
			c0,0,0,0,0,0c0.1-0.1,0.1-0.1,0.1-0.1c0.1,0,0.2,0,0.3,0.4c0.1,0.4,0.3,1.2,0.5,1.2c0.1,0,0.2,0.1,0.2,0.1
			c0.8-1.2,2.1-2.1,3.6-2.4c0-0.1,0-0.1,0-0.2c0,0,1.1-0.8,2.4,0c0,0,0,0.1,0,0.2c1.6,0.3,2.9,1.2,3.7,2.6c0-0.2,0.1-0.3,0.2-0.3
			c0.4-0.1,0.4-1.5,0.8-1.5c0,0,0.1-0.2,0.2,0.2C232.6,14,231.7,15.3,231.2,15.6z"/>
	</g>
</g>
</svg>
