<svg width="58" height="55" viewBox="0 0 58 55" fill="none" xmlns="http://www.w3.org/2000/svg">
<g clip-path="url(#clip0_18_341)">
<path fill-rule="evenodd" clip-rule="evenodd" d="M21.0004 40.7031H19.3004C18.9004 41.8031 18.4004 42.9031 17.9004 44.0031H18.6004V51.2031H20.3004V42.6031C20.6004 41.9031 20.8004 41.3031 21.0004 40.7031Z" fill="#95A8B2"/>
<path fill-rule="evenodd" clip-rule="evenodd" d="M15.9008 39.3969V48.9969C15.9008 50.0969 15.5008 50.3969 14.8008 51.0969H16.3008C17.1008 51.0969 17.6008 49.9969 17.6008 48.9969V39.9969H27.7008V39.2969H15.9008V39.3969V39.3969Z" fill="#95A8B2"/>
<path fill-rule="evenodd" clip-rule="evenodd" d="M24.5016 42.5031H23.0016C23.3016 41.9031 23.5016 41.3031 23.7016 40.7031H22.0016C21.6016 41.8031 21.1016 42.9031 20.6016 44.0031H21.3016V45.2031V45.9031V47.9031V48.6031V50.6031V51.3031H23.0016H24.5016H26.2016H27.7016V50.6031H26.2016V48.6031H27.7016V47.9031H26.2016V45.9031H27.7016V45.2031H26.2016V43.2031H27.7016V42.5031H26.2016H24.5016ZM24.5016 50.4031H23.0016V48.4031H24.5016V50.4031ZM24.5016 47.8031H23.0016V45.8031H24.5016V47.8031ZM24.5016 45.1031H23.0016V43.1031H24.5016V45.1031Z" fill="#95A8B2"/>
<path fill-rule="evenodd" clip-rule="evenodd" d="M26.6 40.7031H25C24.9 41.1031 24.7 41.5031 24.5 41.9031H26.2C26.3 41.5031 26.5 41.1031 26.6 40.7031" fill="#95A8B2"/>
<path fill-rule="evenodd" clip-rule="evenodd" d="M3.50078 39.3984H1.80078C1.70078 39.6984 1.60078 40.0984 1.40078 40.3984C1.10078 41.1984 0.700781 41.8984 0.300781 42.6984H2.00078C2.30078 42.1984 2.50078 41.5984 2.80078 41.0984H5.70078V40.3984H3.10078C3.20078 39.9984 3.40078 39.6984 3.50078 39.3984" fill="#95A8B2"/>
<path fill-rule="evenodd" clip-rule="evenodd" d="M11.1012 48.2016C11.8012 47.3016 12.4012 46.4016 13.0012 45.5016H11.3012C11.0012 46.0016 10.6012 46.6016 10.3012 47.1016C9.90117 46.6016 9.60117 46.0016 9.30117 45.5016H7.90117V44.8016H11.3012H12.8012C12.9012 44.8016 12.9012 44.7016 12.9012 44.7016V39.6016H11.2012H7.90117H6.20117V49.0016C6.20117 50.1016 6.80117 51.1016 7.50117 51.1016H9.60117C8.90117 50.8016 7.90117 50.0016 7.90117 49.0016V46.5016C8.80117 47.9016 9.90117 49.2016 11.2012 50.6016C11.5012 51.0016 12.0012 51.2016 12.5012 51.2016H13.7012C12.7012 50.1016 11.9012 49.2016 11.1012 48.2016V48.2016ZM7.90117 40.2016H11.3012V41.8016H7.90117V40.2016V40.2016ZM7.90117 42.5016H11.3012V44.1016H7.90117V42.5016V42.5016Z" fill="#95A8B2"/>
<path fill-rule="evenodd" clip-rule="evenodd" d="M0.800781 43.6H2.30078V46.1H0.800781V46.8H2.30078V49C2.30078 50.1 2.90078 51.1 3.60078 51.1H5.10078C4.30078 50.4 4.00078 50 4.00078 49V46.8H5.80078V46.1H4.00078V43.6H5.80078V43H0.800781V43.6V43.6Z" fill="#95A8B2"/>
<path d="M58.2008 51.0984C57.9008 51.0984 56.4008 50.0984 54.6008 48.4984C55.3008 47.7984 56.1008 46.9984 56.8008 46.0984C56.9008 45.8984 57.0008 45.6984 57.0008 45.4984V43.2984H54.4008V41.2984H57.0008V40.5984H54.3008V39.3984H52.6008V40.5984H50.0008V41.2984H52.7008V43.2984H50.1008V45.4984C50.1008 45.6984 50.2008 45.8984 50.3008 46.0984C50.9008 46.9984 51.7008 47.7984 52.4008 48.4984C50.6008 50.0984 49.0008 51.0984 48.8008 51.0984H51.0008C51.2008 51.0984 52.2008 50.4984 53.5008 49.4984C54.7008 50.4984 55.7008 51.1984 55.9008 51.0984H58.2008ZM52.0008 45.6984C51.9008 45.4984 51.8008 45.2984 51.8008 45.0984V43.8984H55.3008V45.0984C55.3008 45.2984 55.2008 45.5984 55.1008 45.6984C54.6008 46.2984 54.1008 46.8984 53.6008 47.3984C53.0008 46.8984 52.5008 46.2984 52.0008 45.6984" fill="#95A8B2"/>
<path fill-rule="evenodd" clip-rule="evenodd" d="M43.1004 47.7984H41.8004V39.3984H40.2004V47.7984H36.4004V48.3984H40.2004V51.0984H41.8004V48.3984H43.1004V47.7984Z" fill="#95A8B2"/>
<path fill-rule="evenodd" clip-rule="evenodd" d="M39.7 42.7016C39.1 41.6016 38.6 39.6016 38.6 39.6016H37C37 39.6016 37.5 41.6016 38.1 42.7016H39.7Z" fill="#95A8B2"/>
<path fill-rule="evenodd" clip-rule="evenodd" d="M39.7 46.6C39.1 45.5 38.6 43.5 38.6 43.5H37C37 43.5 37.5 45.5 38.1 46.6H39.7Z" fill="#95A8B2"/>
<path fill-rule="evenodd" clip-rule="evenodd" d="M49.6008 41.2984V40.5984H47.8008V39.3984H46.1008V40.5984H44.3008V41.2984H46.1008V46.1984C45.0008 46.8984 44.3008 47.1984 44.3008 47.1984V47.8984C44.3008 47.8984 45.0008 47.5984 46.1008 46.8984V48.9984C46.1008 49.9984 45.7008 50.3984 45.0008 51.0984H46.5008C47.3008 51.0984 47.8008 50.0984 47.8008 48.9984V45.6984C48.4008 45.1984 49.0008 44.6984 49.6008 43.9984V43.1984C49.0008 43.8984 48.4008 44.3984 47.8008 44.8984V41.1984H49.6008V41.2984V41.2984Z" fill="#95A8B2"/>
<path fill-rule="evenodd" clip-rule="evenodd" d="M36.4012 42.5969V41.9969H33.9012V40.1969H34.2012H34.6012C35.3012 40.1969 35.9012 39.8969 36.2012 39.2969H34.4012C34.1012 39.4969 33.8012 39.4969 33.5012 39.4969H29.7012V40.1969H32.2012V41.9969H29.7012V42.6969H32.2012V51.1969H33.9012V42.6969H36.4012V42.5969V42.5969Z" fill="#95A8B2"/>
<path fill-rule="evenodd" clip-rule="evenodd" d="M35.9 48.8969V43.2969H34.5V48.8969C34.5 49.6969 34.6 50.2969 34.9 50.6969C35.1 50.8969 35.3 50.9969 35.6 50.9969H36.5C36.1 50.4969 35.9 49.8969 35.9 48.8969" fill="#95A8B2"/>
<path fill-rule="evenodd" clip-rule="evenodd" d="M30.3012 48.8969C30.3012 49.9969 30.1012 50.4969 29.7012 50.9969H30.6012C30.9012 50.9969 31.1012 50.8969 31.3012 50.6969C31.6012 50.2969 31.7012 49.6969 31.7012 48.8969V43.2969H30.3012V48.8969V48.8969Z" fill="#95A8B2"/>
<path d="M24.7004 8.39844C18.7004 13.3984 11.3004 16.1984 3.40039 16.1984C8.50039 16.1984 13.5004 17.1984 18.1004 19.0984C22.0004 17.4984 25.6004 15.2984 28.8004 12.4984C28.1004 11.8984 27.4004 11.2984 26.8004 10.5984L24.7004 8.39844" fill="#E95504"/>
<path d="M18.2 19.1016C13.6 21.0016 8.6 22.0016 3.5 22.0016C11.4 22.0016 18.8 24.7016 24.8 29.8016C25.5 30.4016 26.2 31.1016 26.9 31.8016L28.9 33.8016L24.8 29.7016L26.8 27.7016C27.5 27.0016 28.1 26.4016 28.8 25.8016C25.7 22.9016 22.1 20.6016 18.2 19.1016" fill="#CAD4DB"/>
<path d="M3.40156 16.2031H0.601562V22.0031H3.50156C8.60156 22.0031 13.6016 21.0031 18.2016 19.1031C13.6016 17.2031 8.60156 16.2031 3.40156 16.2031" fill="#BE4709"/>
<path d="M30.9004 31.6016L28.9004 33.6016L30.9004 31.6016ZM39.6004 19.1016C35.7004 20.7016 32.1004 22.9016 28.9004 25.7016C29.6004 26.3016 30.3004 26.9016 30.9004 27.6016L32.9004 29.6016L33.0004 29.7016C39.0004 24.7016 46.4004 21.9016 54.3004 21.9016C49.2004 21.9016 44.2004 21.0016 39.6004 19.1016Z" fill="#CAD4DB"/>
<path d="M33.1 8.39844L31 10.4984C30.3 11.1984 29.7 11.7984 29 12.3984C32.2 15.1984 35.8 17.3984 39.7 18.9984C44.3 17.0984 49.3 16.0984 54.4 16.0984C46.5 16.1984 39 13.3984 33.1 8.39844" fill="#E95504"/>
<path d="M30.9008 6.5L28.9008 4.5L26.9008 6.5C26.2008 7.2 25.5008 7.8 24.8008 8.5L24.9008 8.6L26.9008 10.6C27.6008 11.3 28.2008 11.9 28.9008 12.5C29.6008 11.9 30.3008 11.3 30.9008 10.6L32.9008 8.6L33.0008 8.5C32.3008 7.8 31.6008 7.2 30.9008 6.5Z" fill="#E50012"/>
<path d="M24.8008 8.5L26.9008 10.6L24.8008 8.5Z" fill="#E50012"/>
<path d="M24.8008 8.5L26.9008 10.6L24.8008 8.5Z" fill="#E50012"/>
<path d="M57.2016 16.2031H54.3016C49.2016 16.2031 44.2016 17.2031 39.6016 19.1031C44.2016 21.0031 49.2016 22.0031 54.3016 22.0031H57.2016V16.2031" fill="#BE4709"/>
<path d="M30.9004 31.6031C31.6004 30.9031 32.3004 30.3031 33.0004 29.7031V29.6031L31.0004 27.6031C30.3004 26.9031 29.7004 26.3031 29.0004 25.7031C28.3004 26.3031 27.6004 26.9031 27.0004 27.6031L25.0004 29.6031L24.9004 29.7031C25.6004 30.3031 26.3004 31.0031 27.0004 31.6031L29.0004 33.6031L30.9004 31.6031Z" fill="#95A8B2"/>
</g>
<defs>
<clipPath id="clip0_18_341">
<rect width="58" height="55" fill="white"/>
</clipPath>
</defs>
</svg>
