<?xml version="1.0" encoding="UTF-8"?>
<svg width="740px" height="267px" viewBox="0 0 740 267" version="1.1" xmlns="http://www.w3.org/2000/svg" xmlns:xlink="http://www.w3.org/1999/xlink">
    <!-- Generator: Sketch 64 (93537) - https://sketch.com -->
    <title>编组 2</title>
    <desc>Created with Sketch.</desc>
    <g id="页面-1" stroke="none" stroke-width="1" fill="none" fill-rule="evenodd">
        <g id="编组-2">
            <g id="圆角矩形_3_副本_12" transform="translate(73.000000, 0.000000)" fill="#F8B10A">
                <path d="M120.37,58.23 L65.86,2.36 C63.63,0.07 59.98,0.04 57.71,2.28 L2.17,57.1 C-0.1,59.34 -0.14,63.01 2.09,65.3 L56.6,121.17 C56.96,121.54 57.37,121.83 57.79,122.08 L61.23,125.54 L104.98,81.54 L120.3,66.42 C122.57,64.19 122.6,60.52 120.37,58.23 Z" id="路径"></path>
            </g>
            <g id="圆角矩形_3_副本_13" transform="translate(71.000000, 141.000000)" fill="#3A5AC1">
                <path d="M120.91,60.84 L105.91,45.41 L63.08,0.51 L59.57,3.9 C59.14,4.14 58.73,4.42 58.36,4.79 L2.71,59.51 C0.43,61.75 0.39,65.42 2.62,67.71 L57.02,123.68 C59.25,125.97 62.9,126.01 65.17,123.77 L120.82,69.05 C123.09,66.8 123.13,63.13 120.91,60.84 Z" id="路径"></path>
            </g>
            <g id="圆角矩形_3_副本_14" transform="translate(0.000000, 71.000000)" fill="#C94242">
                <path d="M80.94,17.83 L66.05,2.28 C63.84,-0.03 60.19,-0.1 57.9,2.13 L1.85,56.43 C-0.44,58.65 -0.51,62.32 1.7,64.63 L55.69,121 C57.9,123.31 61.55,123.38 63.84,121.15 L119.89,66.85 C120.26,66.49 120.55,66.08 120.81,65.66 L124.28,62.23 L80.94,17.83 Z" id="路径"></path>
            </g>
            <g id="圆角矩形_7_副本_2" transform="translate(237.000000, 21.000000)" fill="#5A5A5A">
                <path d="M57.89,7.38 L31.08,7.38 C30.34,7.38 29.63,7.53 28.98,7.78 C28.28,7.54 27.54,7.38 26.76,7.38 L7.74,7.38 C3.92,7.38 0.82,10.48 0.82,14.3 L0.82,211.4 C0.82,215.22 3.92,218.32 7.74,218.32 L26.76,218.32 C30.58,218.32 33.68,215.22 33.68,211.4 L33.68,192.38 L59.62,192.38 C74.37,192.38 75.16,177.81 75.19,175.43 L75.19,111.12 C75.19,102.23 68.27,102.48 68.27,102.48 L57.89,102.48 L57.89,99.02 C75.19,94.82 75.19,78.27 75.19,78.27 L75.19,24.67 C75.19,10.59 57.89,7.38 57.89,7.38 Z M45.78,174.32 C45.68,175.67 45.11,178.03 42.32,178.55 L33.67,178.55 L33.67,19.48 L42.32,19.48 C42.32,19.48 45.78,20.56 45.78,22.94 L45.78,174.32 Z M232.57,86.91 L181.55,59 L214.48,40.19 C220.57,35.65 220.47,31.58 220.47,31.58 L220.47,12.56 C220.47,10.65 218.92,9.1 217.01,9.1 L140.91,9.1 L146.1,3.91 C146.1,3.91 147.69,0.31 142.64,0.45 L114.97,0.45 L113.24,2.18 L90.76,26.39 C90.76,26.39 88.6,29.42 92.49,31.58 L114.97,31.58 C114.97,31.58 117.56,32.44 120.16,29.85 L127.08,22.93 L189.34,22.93 L189.34,28.12 L157.78,46 L140.91,36.77 L101.13,36.77 C98.39,37.63 101.13,40.23 101.13,40.23 L135.78,58.46 L85.56,86.91 C85.56,86.91 82.1,89.94 85.56,92.1 L123.61,92.1 L160.1,71.26 L199.71,92.1 L232.57,92.1 C237.33,89.65 232.57,86.91 232.57,86.91 Z M229.11,204.49 L175.5,204.49 L175.5,183.74 L222.2,183.74 C224.11,183.74 225.66,182.19 225.66,180.28 L225.66,173.36 C225.66,171.45 224.11,169.9 222.2,169.9 L175.5,169.9 L175.5,147.42 L222.2,147.42 C224.11,147.42 225.66,145.87 225.66,143.96 L225.66,137.04 C225.66,135.13 224.11,133.58 222.2,133.58 L175.5,133.58 L175.5,112.83 L208.36,112.83 C210.27,112.83 211.82,111.28 211.82,109.37 L211.82,102.45 C211.82,100.54 210.27,98.99 208.36,98.99 L108.05,98.99 C106.14,98.99 104.59,100.54 104.59,102.45 L104.59,109.37 C104.59,111.28 106.14,112.83 108.05,112.83 L144.37,112.83 L144.37,133.58 L123.27,133.58 L125.35,128.39 C125.35,128.39 127.73,123.09 121.89,123.2 L97.68,123.2 C97.68,123.2 94.55,122.88 94.22,124.93 L83.84,152.59 C83.84,152.59 81.03,157.34 83.84,157.78 L111.51,157.78 C111.51,157.78 113.67,158.43 114.97,154.32 L117.74,147.4 L144.37,147.4 L144.37,169.88 L95.94,169.88 C94.03,169.88 92.48,171.43 92.48,173.34 L92.48,180.26 C92.48,182.17 94.03,183.72 95.94,183.72 L144.37,183.72 L144.37,204.47 L89.03,204.47 C87.12,204.47 85.57,206.02 85.57,207.93 L85.57,214.85 C85.57,216.76 87.12,218.31 89.03,218.31 L229.12,218.31 C231.03,218.31 232.58,216.76 232.58,214.85 L232.58,207.93 C232.57,206.04 231.02,204.49 229.11,204.49 Z M498.92,204.49 L317.32,204.49 L317.32,50.61 C317.32,48.7 315.77,47.15 313.86,47.15 L270.62,47.15 C268.71,47.15 267.16,48.7 267.16,50.61 L267.16,57.53 C267.16,59.44 268.71,60.99 270.62,60.99 L282.73,60.99 L282.73,197.58 C282.73,197.58 282.51,202.23 277.54,204.5 L270.62,204.5 C268.71,204.5 267.16,206.05 267.16,207.96 L267.16,214.88 C267.16,216.79 268.71,218.34 270.62,218.34 L498.91,218.34 C500.82,218.34 502.37,216.79 502.37,214.88 L502.37,207.96 C502.37,206.04 500.83,204.49 498.92,204.49 Z M332.88,40.23 L399.85,40.23 L395.05,57.52 L344.99,57.52 C343.08,57.52 341.53,59.07 341.53,60.98 L341.53,185.47 C341.53,187.38 343.08,188.93 344.99,188.93 L459.14,188.93 C475.86,188.93 479.89,168.18 479.89,168.18 L479.89,60.98 C479.89,59.07 478.34,57.52 476.43,57.52 L428.36,57.52 L434.32,40.23 L495.45,40.23 C497.36,40.23 498.91,38.68 498.91,36.77 L498.91,29.85 C498.91,27.94 497.36,26.39 495.45,26.39 L463.39,26.39 L472.97,5.64 C472.97,5.64 474.7,2.04 471.24,2.18 L443.57,2.18 C443.57,2.18 441.7,2.32 440.11,5.64 L428.93,26.39 L399.4,26.39 L388.22,5.64 C386.2,1.61 384.76,2.18 384.76,2.18 L355.36,2.18 C351.9,2.18 353.63,5.64 353.63,5.64 L364.01,26.39 L332.88,26.39 C330.97,26.39 329.42,27.94 329.42,29.85 L329.42,36.77 C329.42,38.68 330.97,40.23 332.88,40.23 Z M445.3,166.45 C445.3,166.45 444.56,175.1 438.38,175.1 L410.71,175.1 L445.3,112.53 L445.3,166.45 L445.3,166.45 Z M417.63,88.64 L423.59,71.35 L445.3,71.35 L445.3,108.37 L417.63,92.1 C417.63,92.1 416.48,90.66 417.63,88.64 Z M415.9,123.22 L389.96,175.09 L376.12,175.09 L376.12,71.35 L391.21,71.35 L383.66,98.51 C383.94,99.55 384.31,100.71 384.82,101.77 L415.9,119.76 C415.9,119.77 417.34,120.63 415.9,123.22 Z M284.46,29.86 L313.86,29.86 C315.77,29.86 317.32,28.31 317.32,26.4 L317.32,5.65 C317.32,3.74 315.77,2.19 313.86,2.19 L284.46,2.19 C282.55,2.19 281,3.74 281,5.65 L281,26.4 C281,28.31 282.55,29.86 284.46,29.86 Z" id="形状"></path>
            </g>
        </g>
    </g>
</svg>