<svg width="189" height="65" viewBox="0 0 189 65" fill="none" xmlns="http://www.w3.org/2000/svg">
<g clip-path="url(#clip0_18_405)">
<path d="M0.900391 8.30469L8.40039 17.8047V27.1047H11.8004V16.6047L5.00039 8.30469H0.900391Z" fill="black"/>
<path d="M15.2012 8.20312V13.5031L19.2012 8.30313L15.2012 8.20312Z" fill="black"/>
<path d="M109.9 8.30469L117.3 17.8047V27.1047H120.7V16.6047L113.9 8.30469H109.9Z" fill="black"/>
<path d="M124.201 8.20312V13.5031L128.201 8.30313L124.201 8.20312Z" fill="black"/>
<path d="M25.2004 17.7047C25.2004 13.0047 27.3004 9.10469 30.1004 8.30469C25.5004 8.80469 21.9004 12.8047 21.9004 17.7047C21.9004 22.6047 25.6004 26.7047 30.4004 27.1047C27.5004 26.5047 25.2004 22.5047 25.2004 17.7047V17.7047Z" fill="black"/>
<path d="M32.2 8.30469C35 9.00469 37.2 13.0047 37.2 17.7047C37.2 22.5047 34.9 26.5047 32 27.1047C36.8 26.7047 40.6 22.7047 40.6 17.7047C40.6 12.8047 36.9 8.70469 32.2 8.30469V8.30469Z" fill="black"/>
<path d="M44.8008 8.30469L61.0008 27.1047V21.6047L49.5008 8.30469H44.8008Z" fill="black"/>
<path d="M58.9004 8.20312L60.8004 16.2031L62.5004 8.20312H58.9004Z" fill="black"/>
<path d="M46.6004 18.4062L44.9004 27.1063H48.6004L46.6004 18.4062Z" fill="black"/>
<path d="M81.5 18.2031H84.9V25.6031C84.9 25.6031 84.3 26.1031 83.4 26.5031C82.5 26.9031 81.5 27.1031 81.5 27.1031V18.2031V18.2031Z" fill="black"/>
<path d="M79 8.20312C79 8.20312 81.5 8.20312 82.6 8.40312C83.7 8.60312 84.9 8.90312 84.9 8.90312V12.3031" fill="black"/>
<path d="M70.8007 17.5031C70.8007 13.3031 72.8007 9.70312 75.5007 8.20312C73.4007 8.30313 67.8007 9.40313 67.3007 17.6031C66.8007 27.2031 75.2007 27.1031 75.9007 27.1031C73.0007 25.8031 70.8007 22.0031 70.8007 17.5031Z" fill="black"/>
<path d="M99.5996 8.20312C99.5996 8.20312 102.2 8.40313 103.8 8.80313C105.4 9.20313 105.8 9.50313 105.8 9.50313V12.9031" fill="black"/>
<path d="M97.2 27.2C97.2 27.2 94.6 27 93 26.6C91.4 26.2 91 25.9 91 25.9V22.5" fill="black"/>
<path fill-rule="evenodd" clip-rule="evenodd" d="M99.9001 27.1047C101.1 26.6047 101.6 26.2047 102.2 25.3047C103.2 23.5047 103.1 21.8047 101.4 20.7047C99.6001 19.5047 97.7001 18.6047 95.9001 17.4047C94.4001 16.4047 92.8001 15.3047 91.8001 13.9047C90.1001 11.4047 91.9001 8.40469 96.1001 8.30469C92.8001 9.80469 93.6001 12.5047 96.0001 14.1047C97.4001 15.1047 99.0001 15.8047 100.5 16.7047C101.4 17.2047 102.4 17.7047 103.2 18.3047C105.4 19.8047 106 21.1047 105.5 23.2047C104.9 25.3047 103.4 26.8047 99.9001 27.1047V27.1047Z" fill="black"/>
<path d="M7.4 57.0016C7.4 59.7016 9 61.2016 12.9 61.2016C16.4 61.2016 17.7 59.7016 17.7 58.0016C17.7 56.4016 16.9 55.7016 13.9 55.1016L11.2 54.5016C8.1 53.9016 6.9 53.0016 6.9 50.8016C6.9 48.7016 8.8 47.1016 12.3 47.1016C15.9 47.1016 18.2 48.4016 18.3 51.5016H17.4C17.3 49.9016 16.3 47.9016 12.6 47.9016C9.1 47.9016 8 49.2016 8 50.8016C8 52.3016 8.7 53.1016 11.4 53.6016L14.3 54.2016C17.2 54.8016 18.7 55.7016 18.7 58.0016C18.7 59.9016 17.4 62.0016 13 62.0016C8.3 62.0016 6.5 60.0016 6.5 57.0016H7.4V57.0016Z" fill="black"/>
<path d="M20.5 47.3984H21.4V49.4984H20.5V47.3984ZM20.5 51.4984H21.4V61.6984H20.5V51.4984Z" fill="black"/>
<path d="M23.6992 51.5016H24.5992V53.5016C25.1992 52.3016 26.5992 51.1016 28.8992 51.1016C33.5992 51.1016 33.5992 54.1016 33.5992 55.3016V61.6016H32.6992V55.3016C32.6992 53.2016 31.8992 51.8016 28.8992 51.8016C25.8992 51.8016 24.5992 53.7016 24.5992 55.6016V61.6016H23.6992V51.5016V51.5016Z" fill="black"/>
<path d="M45.4008 54.7031C45.3008 53.4031 43.5008 52.0031 41.1008 52.0031C37.8008 52.0031 36.2008 54.3031 36.2008 56.7031C36.2008 58.4031 37.4008 61.2031 41.1008 61.2031C43.2008 61.2031 45.1008 60.2031 45.6008 58.1031H46.5008C46.0008 60.8031 43.7008 62.0031 41.1008 62.0031C37.7008 62.0031 35.3008 59.8031 35.3008 56.7031C35.3008 53.1031 37.9008 51.2031 41.1008 51.2031C44.2008 51.2031 46.3008 53.0031 46.4008 54.7031H45.4008Z" fill="black"/>
<path d="M48.4996 56.8016C48.5996 59.4016 50.2996 61.2016 53.3996 61.2016C56.5996 61.2016 57.3996 59.2016 57.7996 58.3016H58.6996C57.7996 60.9016 56.0996 62.0016 53.2996 62.0016C49.7996 62.0016 47.5996 59.9016 47.5996 56.5016C47.5996 54.4016 48.8996 51.1016 53.2996 51.1016C56.8996 51.1016 58.8996 53.5016 58.8996 56.7016H48.4996V56.8016V56.8016ZM57.8996 56.0016C57.4996 53.2016 55.4996 52.0016 53.1996 52.0016C50.4996 52.0016 48.8996 53.6016 48.4996 56.0016H57.8996V56.0016Z" fill="black"/>
<path d="M77.5004 61.7031H66.9004C67.2004 59.1031 68.3004 58.3031 71.7004 56.3031C75.0004 54.4031 76.4004 53.7031 76.4004 51.4031C76.4004 49.2031 74.9004 48.0031 72.2004 48.0031C69.3004 48.0031 68.1004 49.6031 68.1004 52.2031H67.2004C67.3004 48.7031 69.0004 47.2031 72.4004 47.2031C75.8004 47.2031 77.3004 48.9031 77.3004 51.3031C77.3004 53.9031 76.0004 54.7031 72.1004 57.0031C70.7004 57.8031 68.0004 59.3031 68.0004 60.8031H77.6004V61.7031H77.5004V61.7031Z" fill="black"/>
<path d="M85.2008 62.1047C80.8008 62.1047 79.3008 58.6047 79.3008 54.7047C79.3008 50.8047 80.8008 47.3047 85.2008 47.3047C89.6008 47.3047 91.1008 50.7047 91.1008 54.7047C91.1008 58.7047 89.7008 62.1047 85.2008 62.1047ZM85.2008 48.1047C81.4008 48.1047 80.2008 51.3047 80.2008 54.7047C80.2008 58.0047 81.3008 61.3047 85.2008 61.3047C89.1008 61.3047 90.2008 58.2047 90.2008 54.7047C90.2008 51.2047 89.1008 48.1047 85.2008 48.1047Z" fill="black"/>
<path d="M98.1012 62.1047C93.7012 62.1047 92.2012 58.6047 92.2012 54.7047C92.2012 50.8047 93.7012 47.3047 98.1012 47.3047C102.501 47.3047 104.001 50.7047 104.001 54.7047C104.001 58.7047 102.601 62.1047 98.1012 62.1047ZM98.1012 48.1047C94.3012 48.1047 93.1012 51.3047 93.1012 54.7047C93.1012 58.0047 94.2012 61.3047 98.1012 61.3047C102.001 61.3047 103.101 58.2047 103.101 54.7047C103.101 51.2047 102.001 48.1047 98.1012 48.1047Z" fill="black"/>
<path d="M109.101 54.1047C106.801 53.6047 106.201 52.4047 106.201 50.8047C106.201 48.0047 108.901 47.3047 111.201 47.3047C113.501 47.3047 116.201 48.0047 116.201 50.8047C116.201 52.3047 115.501 53.5047 113.301 54.0047C114.801 54.3047 116.901 55.1047 116.901 57.8047C116.901 60.4047 115.001 61.9047 111.301 61.9047C107.501 61.9047 105.701 60.4047 105.701 57.8047C105.501 55.2047 107.601 54.3047 109.101 54.1047ZM111.101 61.3047C113.101 61.3047 115.801 60.7047 115.801 57.9047C115.801 55.7047 114.301 54.5047 111.101 54.5047C107.901 54.5047 106.401 55.8047 106.401 57.9047C106.401 59.9047 107.801 61.3047 111.101 61.3047ZM111.101 53.7047C113.001 53.7047 115.101 53.2047 115.101 51.0047C115.101 48.8047 112.901 48.2047 111.101 48.2047C109.101 48.2047 107.101 48.7047 107.101 51.0047C107.101 53.2047 109.301 53.7047 111.101 53.7047Z" fill="black"/>
<path d="M145.3 14.3033C149.4 12.6033 153 10.4033 156.4 7.6033C156.7 7.4033 156.9 7.1033 157.2 6.8033C157.9 6.1033 157.9 5.4033 157.2 4.7033C156.8 4.3033 156.3 4.0033 155.9 3.8033C154.7 3.1033 154 2.2033 154.1 0.803299C154.1 0.103299 154.4 -0.196701 155.1 -0.296701C157.2 -0.696701 159.2 -0.596701 161.1 0.603299C162.4 1.5033 163 2.7033 163.2 4.2033C163.3 4.6033 163.1 5.1033 163 5.7033C163.3 5.7033 163.7 5.6033 164 5.6033V5.7033C163.8 5.8033 163.7 5.9033 163.5 6.0033C163.5 6.0033 163.5 6.0033 163.5 6.1033C164.4 5.8033 165.3 5.5033 166.3 5.3033C167.8 5.0033 169.4 4.8033 170.8 4.4033C171.9 4.1033 173 4.0033 174.2 4.1033C175 4.2033 175.7 4.4033 176.5 4.6033C177.7 5.1033 177.9 6.2033 178.2 7.3033C178.3 7.8033 178.4 8.2033 178.5 8.7033C178.6 9.2033 178.5 9.5033 178 9.7033C177.1 10.2033 177 10.2033 176.5 9.7033C176.3 9.5033 176.1 9.3033 175.8 9.3033C174.7 9.1033 173.6 8.9033 172.5 9.0033C171 9.1033 169.4 9.4033 168 9.8033C166.2 10.3033 164.4 11.0033 162.7 11.6033C162.3 11.8033 161.9 12.0033 161.5 12.2033C161.4 12.3033 161.3 12.6033 161.4 12.7033C161.7 13.2033 162 13.7033 162.4 14.3033C163 15.2033 163.4 16.2033 163.1 17.4033C163.1 17.6033 163 17.8033 162.9 17.8033C162.3 18.2033 161.6 18.6033 161 19.0033C160.8 19.1033 160.5 19.3033 160.4 19.5033C159.8 20.3033 159.3 21.1033 158.8 21.9033C159.5 22.2033 160.2 22.5033 160.8 22.9033C161.3 23.2033 161.3 23.9033 160.9 24.5033C160.5 25.1033 160.2 25.7033 159.9 26.3033C159.6 26.9033 159.6 27.5033 160 28.1033C160.3 28.5033 160.3 29.2033 160.2 29.7033C160.1 31.4033 159.9 33.0033 159.8 34.7033C159.7 35.4033 160 35.5033 160.7 35.5033C163 35.3033 165.2 34.3033 167.4 33.7033C167.6 33.7033 167.8 33.4033 167.8 33.2033C167.9 32.7033 167.8 32.1033 167.8 31.5033C167.6 31.5033 167.4 31.6033 167.2 31.6033C166.5 31.8033 165.8 32.1033 165 32.3033C164.1 32.5033 163.5 32.1033 163.4 31.4033C163.4 30.9033 163.6 30.6033 164.1 30.6033C165.4 30.5033 166.4 29.8033 167.3 29.1033C166.6 28.6033 166 28.0033 165.3 27.6033C165 27.4033 164.5 27.4033 164.1 27.3033C163.7 27.3033 163.6 27.1033 163.6 26.7033C163.6 25.2033 163.3 25.5033 164.8 25.2033C166 25.0033 167.1 24.5033 168.1 23.9033C168.2 23.8033 168.3 23.8033 168.4 23.7033C168.6 23.1033 168.7 22.5033 168.9 21.7033C167.7 22.1033 166.7 22.5033 165.6 22.9033C165.3 23.0033 164.9 23.1033 164.5 23.0033C163.9 22.9033 163.9 22.6033 163.9 22.0033C164 21.3033 164.3 20.7033 164.5 20.1033C164.6 19.7033 164.8 19.5033 165.2 19.4033C165.8 19.3033 166.1 18.9033 166.4 18.4033C166.8 17.6033 167.3 16.9033 167.7 16.1033C167.9 15.8033 168 15.5033 168.1 15.2033C168.3 14.7033 168.2 14.3033 167.8 13.9033C167.1 13.3033 167 12.4033 167.5 11.8033C167.6 11.7033 167.9 11.7033 168.1 11.7033C168.4 11.7033 168.6 11.9033 168.8 11.8033C169.6 11.7033 170.4 11.5033 171.2 11.3033C171.9 11.1033 172.3 11.3033 172.6 11.9033C173.1 12.7033 173 13.1033 172.4 13.6033C172.2 13.8033 171.9 14.0033 171.7 14.1033C170.2 14.7033 169.2 16.0033 168.2 17.2033C168 17.4033 167.9 17.8033 167.9 18.1033C168.6 18.0033 169.2 17.9033 169.7 17.3033C169.8 17.1033 170 16.9033 170.2 16.9033C171 16.6033 171.8 16.4033 172.6 16.1033C173.1 15.9033 173.6 16.0033 173.9 16.5033C174 16.6033 174.1 16.7033 174.2 16.8033C174.7 17.2033 174.8 17.7033 174.6 18.2033C174.6 18.3033 174.4 18.4033 174.2 18.4033C172.7 19.0033 171.6 20.6033 171.8 22.3033C172.3 22.1033 172.9 21.9033 173.4 21.7033C173.8 21.5033 174.1 21.6033 174.4 21.9033C174.7 22.2033 175 22.4033 175.3 22.7033C175.7 23.1033 175.6 23.9033 175 24.2033C173.3 25.0033 172.1 26.3033 171.1 27.8033C171.1 27.8033 171.1 27.9033 171.1 28.0033C171.3 28.0033 171.4 28.0033 171.5 27.9033C172.2 27.6033 172.9 27.3033 173.6 26.9033C173.9 26.7033 174.2 26.8033 174.4 27.0033C175.2 27.8033 175.2 28.7033 175.1 29.7033C175.1 29.9033 174.8 30.1033 174.6 30.2033C174 30.6033 173.3 30.9033 172.6 31.2033C172.1 31.5033 171.6 31.8033 171.1 32.1033C171 32.2033 170.9 32.3033 170.8 32.6033C171.6 32.4033 172.5 32.3033 173.3 32.1033C174.6 31.8033 175.8 31.8033 177 32.4033C177.7 32.8033 178.2 33.2033 178.2 34.0033C178.2 34.2033 178.3 34.3033 178.4 34.5033C177.7 35.2033 176.9 35.6033 175.9 35.4033C174.9 35.2033 173.9 35.3033 172.8 35.5033C172.7 35.5033 172.6 35.5033 172.5 35.4033C172.8 35.2033 173.2 35.0033 173.5 34.9033V34.8033C173.2 34.8033 172.9 34.8033 172.6 34.9033C168.7 35.8033 164.9 36.8033 161 37.7033C160.6 37.8033 160.2 37.8033 159.8 37.7033C159.4 37.7033 159.2 37.7033 159.2 38.2033C159 41.2033 158.7 44.3033 158.5 47.3033C158.4 48.2033 158.5 49.2033 158.4 50.2033C158.2 54.2033 158.1 58.2033 157.9 62.3033C157.8 63.5033 157.7 64.8033 157.5 66.0033C157.4 66.9033 157 67.8033 156.7 68.8033C155.9 66.7033 155.6 64.6033 155.8 62.5033C155.9 60.3033 156 58.0033 156.1 55.8033C156.3 51.5033 156.4 47.2033 156.5 42.9033C156.6 40.9033 156.7 39.0033 156.7 37.0033C156.7 36.3033 156.6 35.6033 156.6 34.9033C156.7 32.8033 156.8 30.7033 157 28.6033C157 28.4033 157 28.2033 157 27.9033C156.5 28.1033 156.2 28.5033 156.1 28.9033C156 29.7033 155.9 30.6033 155.9 31.4033C155.9 32.7033 155.3 33.8033 154.3 34.5033C153.9 34.7033 153.2 34.9033 153 34.7033C152.7 34.4033 152.6 33.8033 152.6 33.3033C152.6 33.0033 152.8 32.7033 152.9 32.3033L152.8 32.2033C152.6 32.5033 152.3 32.8033 152 33.1033C151.4 33.7033 150.8 34.3033 150.2 34.8033C149.9 35.0033 149.5 35.0033 149.2 35.2033C148 35.6033 146.9 36.0033 146 37.1033C144.9 38.5033 142.2 38.5033 141.1 36.7033C140.7 36.1033 141.1 34.6033 141.9 34.0033C144.2 32.3033 146.1 30.1033 148 28.0033C148.5 27.4033 149 26.8033 149.5 26.3033L149.4 26.2033C147.9 26.4033 146.3 26.6033 144.8 27.0033C144.1 27.1033 143.6 27.0033 143.1 26.5033C143 26.4033 142.9 26.3033 142.8 26.2033C142.3 25.6033 142.3 25.0033 143 24.7033C145.1 23.7033 146.4 21.8033 147.9 20.3033C148.4 19.8033 148.8 19.2033 149.2 18.6033C149.2 18.5033 149.2 18.4033 149.3 18.3033C148.6 18.5033 147.9 18.6033 147.2 18.8033C145.8 19.1033 144.4 19.3033 143 19.0033C141.8 18.7033 140.7 18.1033 140.2 16.8033C140.1 16.5033 140.1 16.1033 140.1 15.7033C142.1 15.9033 144 15.6033 145.8 14.9033L145.3 14.3033ZM145.4 14.5033C145.3 14.4033 145.3 14.3033 145.3 14.3033L145.4 14.5033ZM152.9 16.3033V16.4033C153.1 17.2033 152.8 17.8033 152.3 18.3033C151.1 19.5033 150 20.7033 148.9 21.9033C148.3 22.5033 147.7 23.2033 147.1 23.9033C147.1 23.8033 147.3 23.8033 147.4 23.8033C148.6 23.5033 149.7 23.3033 150.9 23.0033C151.6 22.8033 152.2 22.4033 152.6 21.8033C153.4 20.7033 154.2 19.6033 154.9 18.5033C155.7 17.2033 156.3 17.0033 157.7 17.8033C157.7 17.8033 157.8 17.8033 157.9 17.8033C158.2 17.2033 158.6 16.6033 158.8 15.9033C159 15.3033 158.8 14.7033 158.3 14.3033C157.9 13.9033 157.4 14.0033 157 14.1033C156.2 14.5033 155.4 14.9033 154.5 15.3033C154.1 15.7033 153.6 16.0033 152.9 16.3033ZM145.5 33.4033C145.5 33.5033 145.6 33.5033 145.6 33.6033C145.9 33.6033 146.2 33.5033 146.5 33.5033C148.4 33.0033 150.2 32.1033 151.8 31.0033C152.1 30.8033 152.4 30.5033 152.6 30.2033C152.7 30.1033 152.7 29.7033 152.6 29.6033C152.1 29.0033 151.6 28.4033 150.9 27.7033C149.1 29.5033 147.3 31.4033 145.5 33.4033V33.4033ZM155.7 24.7033C155.4 24.8033 154.9 25.3033 154.5 24.9033C154.1 24.5033 154.8 23.8033 154.9 23.3033C154.8 23.3033 154.8 23.2033 154.7 23.2033C153.6 24.2033 152.2 24.7033 151.4 26.1033C151.6 26.3033 151.8 26.4033 152 26.5033C153.1 27.0033 154.1 27.6033 154.8 28.7033C155.4 28.3033 156 25.6033 155.7 24.7033V24.7033ZM167.8 26.8033C167.1 27.0033 166.5 27.1033 166 27.3033C166.2 27.8033 166.9 28.3033 167.4 28.2033C167.5 28.2033 167.7 28.1033 167.7 28.0033C167.8 27.6033 167.8 27.2033 167.8 26.8033Z" fill="black"/>
<path d="M175.499 48.3C174.699 49.4 173.899 50.4 173.099 51.4C172.899 51.7 172.499 51.9 172.299 52.2C171.799 52.8 171.299 53.3 170.799 53.9C170.399 54.4 170.099 55.1 169.299 54.4C169.199 54.3 168.999 54.3 168.799 54.4C168.099 54.7 167.399 55 166.699 55.4C166.499 55.5 166.499 55.9 166.399 56.1C166.299 56.3 166.199 56.7 166.199 56.7C165.899 56.7 165.399 56.6 165.399 56.5C165.099 55.8 164.699 55.1 164.799 54.4C164.899 52.6 165.099 50.8 165.299 49.1C165.599 46.8 166.199 44.5 167.599 42.6C167.899 42.2 167.799 41.9 167.399 41.6C167.199 41.4 166.899 41.2 166.699 41C166.499 40.8 166.299 40.4 166.399 40.3C166.499 40 166.899 39.7 167.199 39.7C169.199 39.8 170.999 39 172.599 38C173.499 37.5 174.299 37.6 174.699 38.3C175.099 39 174.699 39.9 173.899 40.4C173.199 40.8 172.599 41.1 171.899 41.4C171.699 41.5 171.499 41.6 171.399 41.7C171.999 42.1 172.899 42.3 173.199 42.8C173.499 43.3 173.099 44.1 172.999 44.8C173.399 44.8 173.899 44.7 174.299 44.8C174.499 44.8 174.799 45.1 174.999 45.2C174.899 45.4 174.699 45.6 174.599 45.8C173.899 46.4 173.199 47.1 172.299 47.8C174.299 47.9 174.499 47.8 174.999 46.2C175.499 44.6 176.399 43.7 177.899 43.2C178.799 42.9 179.599 42.1 180.499 41.7C181.199 41.4 181.899 41.1 182.699 41.1C183.499 41 184.199 42.4 183.899 43.1C183.799 43.3 183.699 43.5 183.499 43.7C181.799 45.3 180.199 46.8 178.499 48.4C178.099 48.7 177.499 48.9 177.699 49.6C177.899 50.4 178.899 51.1 179.599 51C180.899 50.7 182.299 50.4 183.499 49.9C183.799 49.8 184.099 49.2 184.199 48.8C184.399 48.3 184.299 47.7 184.599 47.1C184.999 48 185.499 48.9 185.599 49.8C185.799 50.7 185.099 51.3 184.199 51.4C183.299 51.5 182.399 51.6 181.499 51.8C180.999 51.9 180.499 52.3 180.099 52.7C179.599 53.1 179.299 53.2 178.799 52.9C177.299 52.1 176.299 50.8 175.999 49.1C175.799 48.9 175.599 48.6 175.499 48.3V48.3ZM166.699 46.8C166.799 46.9 166.899 47.1 166.999 47.4C167.199 47.3 167.399 47.1 167.599 47C167.899 46.8 168.199 46.6 168.399 46.4C169.299 45.8 170.199 45.2 171.099 44.5C171.199 44.4 171.399 44.1 171.299 43.9C171.199 43.5 169.899 42.9 169.499 43.2C168.299 44 167.299 45.1 166.699 46.5C166.699 46.5 166.699 46.6 166.699 46.8V46.8ZM170.699 50.2C170.599 50.1 170.599 50 170.499 49.9C170.099 50.2 169.699 50.4 169.299 50.7C168.699 51 168.099 51.5 167.499 51.6C166.299 51.9 166.099 51.9 166.099 53.2C166.099 53.6 166.199 54 166.199 54.4C166.499 53.5 167.199 53.1 168.099 52.9C169.399 52.5 170.199 51.5 170.699 50.2ZM176.299 45.8C176.299 45.9 176.399 46 176.399 46.1C176.899 46.3 177.499 46.9 177.999 46.8C178.499 46.7 178.899 46 179.399 45.6C179.399 45.6 179.399 45.6 179.499 45.5C180.099 44.9 180.699 44.2 181.399 43.6C181.399 43.5 181.299 43.4 181.299 43.4C180.399 43.5 179.499 43.7 178.899 44.4C177.999 45 177.499 45.9 176.299 45.8V45.8ZM169.999 48.4C169.899 48.3 169.899 48.2 169.799 48.1C168.799 48.4 167.799 48.7 166.899 49.1C166.499 49.3 166.199 49.6 166.499 50.2C167.699 49.7 168.899 49.1 169.999 48.4V48.4Z" fill="black"/>
<path d="M182.8 60.7032C183.3 60.3032 183.7 59.9032 184.2 59.6032C184.7 59.2032 184.7 58.8032 184.3 58.4032C183.5 57.5032 180.7 57.1032 179.7 57.9032C179.4 58.1032 179.4 58.6032 179.4 59.0032C179.3 59.6032 179.5 60.3032 179.3 60.9032C179.1 61.6032 178.6 61.7032 178 61.3032C177.2 60.8032 176.9 60.1032 176.7 59.3032C176.5 58.3032 176.2 58.1032 175.2 58.3032C174.5 58.4032 173.8 58.6032 173.2 58.9032C172.6 59.2032 172.1 59.7032 172 60.5032C171.9 61.0032 171.5 61.8032 171 62.0032C170.3 62.3032 170 61.5032 169.7 60.9032C168.9 59.2032 166.5 58.8032 165.1 60.2032C164.5 60.8032 164 61.3032 163.4 61.9032C162.5 62.8032 161.4 62.8032 160.7 62.1032C160 61.4032 160 59.9032 160.9 59.2032C161.7 58.5032 162.6 58.1032 163.6 57.4032C164 58.6032 162.8 59.1032 162.6 59.9032C162.8 59.9032 163 60.0032 163.2 60.0032C165 58.9032 167.1 59.0032 169 58.4032C169.7 58.2032 170.3 58.0032 171 58.5032C171.2 58.7032 171.7 58.6032 172.1 58.5032C173.4 58.1032 174.7 57.6032 176.1 57.3032C176.8 57.1032 177.5 57.3032 178.2 57.3032C179.1 57.3032 179.9 57.2032 180.8 57.1032C182.3 56.9032 183.8 56.6032 185.2 56.5032C185.7 56.4032 186.3 56.6032 186.8 56.8032C188.2 57.4032 188.5 59.0032 187.3 60.0032C187.1 60.2032 186.8 60.3032 186.6 60.2032C185.6 59.9032 184.7 60.2032 183.8 60.7032C183.5 60.8032 183.3 60.9032 183 60.9032C182.8 60.8032 182.8 60.8032 182.8 60.7032V60.7032Z" fill="black"/>
</g>
<defs>
<clipPath id="clip0_18_405">
<rect width="189" height="65" fill="white"/>
</clipPath>
</defs>
</svg>
