<svg xmlns="http://www.w3.org/2000/svg" viewBox="0 0 472.93 113.84"><defs><style>.cls-1{fill:#ea5514;}.cls-2{fill:#8fc31f;}.cls-3{fill:#f8b62d;}.cls-4{fill:#00a0e9;}.cls-5{fill:#fff;}.cls-6{fill:#727373;}.cls-7{fill:#727171;}</style></defs><title>資產 1</title><g id="圖層_2" data-name="圖層 2"><g id="圖層_1-2" data-name="圖層 1"><path class="cls-1" d="M33.34,66.69,0,33.34a47.15,47.15,0,0,1,66.69,0Z"/><path class="cls-2" d="M66.69,33.34,100,0a47.15,47.15,0,0,1,0,66.69Z"/><path class="cls-3" d="M100,66.69,133.37,100a47.15,47.15,0,0,1-66.69,0Z"/><path class="cls-4" d="M33.34,66.69,66.69,100A47.15,47.15,0,0,1,0,100Z"/><circle class="cls-5" cx="18.93" cy="35.05" r="4.94" transform="translate(-19.24 23.65) rotate(-45)"/><rect class="cls-6" x="43.11" y="43.11" width="47.15" height="47.15" transform="translate(-27.62 66.69) rotate(-45)"/><rect class="cls-7" x="233.03" y="89.85" width="81.36" height="6.92"/><path class="cls-7" d="M264,71V35.66h50.56V47.82s-.17,6.59-1.6,8.11c-1.43,1.32-1.82,2-5.2,2H291.55v7.6h16.14c6.35,0,9.11-1.24,11.38-3.55a12.5,12.5,0,0,0,2.71-5.14,39,39,0,0,0,1-8.54V28.6l-36.91.14L290,21.92h-8.17l-3.94,6.82H256.14V78H324a152.55,152.55,0,0,1,0,17,12.17,12.17,0,0,1-4.28,8.3c-1.62,1.45-4.57,2-8.85,2H291.64v8.56h19.64c7,0,11.83-1.38,14.49-3.95s6-7.31,6.61-14.43c.65-7.45,0-24.42,0-24.42Z"/><polygon class="cls-7" points="300.46 55.23 275.09 46.77 275.09 38.81 300.46 47.26 300.46 55.23"/><path class="cls-7" d="M163.46,72.5v41.34h74.87V72.5Zm33.94,34.84H170.66v-11H197.4Zm0-17.37H170.66V79H197.4Zm33.74,17.37H204.4v-11h26.74ZM204.4,90V79h26.74V90Z"/><rect class="cls-7" x="209.07" y="48.38" width="24.89" height="5.72"/><polygon class="cls-7" points="163.37 41.95 197.3 41.95 197.3 68.82 204.5 68.82 204.5 41.95 238.43 41.95 238.43 53.9 246.21 53.9 246.21 35.41 204.5 35.41 204.5 28.46 239.79 28.46 239.79 21.92 162.01 21.92 162.01 28.46 197.3 28.46 197.3 35.41 155.59 35.41 155.59 53.7 163.37 53.7 163.37 41.95"/><rect class="cls-7" x="209.07" y="60.64" width="24.89" height="5.72"/><rect class="cls-7" x="167.84" y="48.38" width="24.89" height="5.72"/><rect class="cls-7" x="167.84" y="60.64" width="24.89" height="5.72"/><path class="cls-7" d="M381.09,94.23a19,19,0,0,1-1.66,8,17.74,17.74,0,0,1-4.69,6.19,21.61,21.61,0,0,1-7.26,4,29.35,29.35,0,0,1-9.32,1.41q-9.33,0-14.83-3.55v-6.88s4.83,4.06,15.1,4.06a20.54,20.54,0,0,0,6.16-.86,13.81,13.81,0,0,0,4.73-2.5,11.12,11.12,0,0,0,3-4,12.36,12.36,0,0,0,1.07-5.23q0-12.78-18.2-12.78h-5.41V75.81H355q16.1,0,16.1-12c0-7.4-4-10.85-12.24-10.85a22,22,0,0,0-13,4.39V50.11a28.34,28.34,0,0,1,14.83-3.73,22.8,22.8,0,0,1,7.41,1.14,17,17,0,0,1,5.69,3.18,13.51,13.51,0,0,1,3.66,4.91,19.06,19.06,0,0,1,1.49,7.52c.09,6.33-1.62,11.88-8.59,15.45h0a16.55,16.55,0,0,1,10.76,15.65Z"/><path class="cls-7" d="M429.78,92a24.18,24.18,0,0,1-1.55,8.78A21.1,21.1,0,0,1,424,107.7a19.08,19.08,0,0,1-6.5,4.53,20.6,20.6,0,0,1-8.19,1.61,18,18,0,0,1-15.4-7.94,28.23,28.23,0,0,1-4.12-9.39A50.89,50.89,0,0,1,388.35,84a58.78,58.78,0,0,1,1.89-15.44,37.51,37.51,0,0,1,5.37-11.87A24.74,24.74,0,0,1,404,49.07a22.49,22.49,0,0,1,11-2.68,26.41,26.41,0,0,1,10.83,1.87V55.3a23,23,0,0,0-10.64-2.59,15.87,15.87,0,0,0-7.87,2,19,19,0,0,0-6,5.53c-3.49,4.76-5.13,9.51-6.13,18.31h0A17.83,17.83,0,0,1,410,71.35a21.07,21.07,0,0,1,8.89,1.82,17.09,17.09,0,0,1,5.81,4.31,18.56,18.56,0,0,1,3.75,6.35A24.16,24.16,0,0,1,429.78,92Zm-7.64,1a20.31,20.31,0,0,0-.86-6.14,13.33,13.33,0,0,0-2.48-4.64,10.69,10.69,0,0,0-4-2.93,13.4,13.4,0,0,0-5.37-1,12.57,12.57,0,0,0-5.14,1,12.8,12.8,0,0,0-4.09,2.84,13.3,13.3,0,0,0-3.68,9.26,20.24,20.24,0,0,0,1,6.3,16.27,16.27,0,0,0,2.68,5.12,12.76,12.76,0,0,0,4.12,3.43,11.24,11.24,0,0,0,5.3,1.25,12.14,12.14,0,0,0,5.14-1.07,11.47,11.47,0,0,0,4-3,13.82,13.82,0,0,0,2.55-4.57A18.11,18.11,0,0,0,422.14,93Z"/><path class="cls-7" d="M472.93,92.78a22,22,0,0,1-1.64,8.64,18.89,18.89,0,0,1-4.66,6.64,20.88,20.88,0,0,1-7.3,4.28,28.55,28.55,0,0,1-9.51,1.5,25.56,25.56,0,0,1-13.51-3.45V103.2s4.58,4.28,13.6,4.28a18.4,18.4,0,0,0,6.39-1,14.2,14.2,0,0,0,4.84-2.91,12.47,12.47,0,0,0,3.07-4.5,15.26,15.26,0,0,0,1.07-5.78q0-6.37-4.28-10T448.6,79.63a99.17,99.17,0,0,0-11.05.55V47.47h30.34V54.2h-23.7v19s.85-.07,6.74-.07a29.28,29.28,0,0,1,9.28,1.36,19.67,19.67,0,0,1,6.94,3.89,16.31,16.31,0,0,1,4.32,6.19A21.76,21.76,0,0,1,472.93,92.78Z"/></g></g></svg>