<svg width="175" height="35" viewBox="0 0 175 35" fill="none" xmlns="http://www.w3.org/2000/svg">
<g clip-path="url(#clip0_2233_15026)">
<path d="M0 32.4969C0.0102007 33.1635 0.281918 33.7993 0.75658 34.2675C1.23124 34.7356 1.87084 34.9984 2.5375 34.9994H32.4275C33.1049 35.0124 33.7598 34.7563 34.2486 34.2872C34.7374 33.818 35.0202 33.1742 35.035 32.4969V2.50188C35.0248 1.83529 34.7531 1.19941 34.2784 0.731293C33.8038 0.263177 33.1642 0.000317505 32.4975 -0.000624588H2.6075C1.93013 -0.0136568 1.27523 0.242471 0.786424 0.711593C0.297619 1.18071 0.0148044 1.82454 0 2.50188L0 32.4969ZM46.9136 5.63826L50.9969 12.1599L54.3803 10.0444L49.2392 1.94382H44.6231L37.8894 11.843L41.1678 14.2385L46.9136 5.63826ZM93.4753 8.21271V10.8202H97.5586V8.21271H104.397V4.54549H97.5625V1.94382H93.4792V4.54549H85.5789V1.94382H81.4956V4.54549H74.6531V8.21271H81.4897V10.8202H85.5731V8.21271H93.4753ZM67.0036 13.1108V23.5797H71.0869V9.44549H65.1V6.4841H71.5167V2.81882H54.6V6.4841H61.0167V9.44549H55.0278V23.5797H59.1111V13.1108H67.0036ZM7.78944 10.7774C7.19155 10.7809 6.60614 10.6064 6.10767 10.2762C5.6092 9.94605 5.22021 9.47506 4.99017 8.92318C4.76012 8.3713 4.69943 7.76347 4.8158 7.177C4.93217 6.59052 5.22035 6.05192 5.64368 5.62968C6.06701 5.20745 6.60637 4.92067 7.19314 4.80582C7.77991 4.69098 8.38758 4.75325 8.93886 4.98473C9.49015 5.21621 9.96012 5.60642 10.289 6.10575C10.6179 6.60507 10.7908 7.19093 10.7858 7.78882C10.7807 8.58194 10.4634 9.34112 9.90258 9.90195C9.34175 10.4628 8.58256 10.7801 7.78944 10.7852V10.7774ZM89.5261 25.7224C91.4297 29.2808 95.8008 31.8552 102.463 31.9952H104.718V28.2677H103.131C97.9145 28.2677 94.4611 26.7122 92.5575 23.5797H106.058V19.9144H101.51V12.5819H91.5717V9.97437H87.4883V12.5819H77.5425V19.9144H72.9964V23.5797H86.4947C84.5931 26.716 81.1378 28.2677 75.9208 28.2677H74.3361V32.003H76.5917C83.2533 31.863 87.6225 29.2885 89.5261 25.7302V25.7224ZM52.0236 30.3463L49.1069 27.3869C51.7494 24.5305 53.76 20.8302 53.76 16.4591V15.6813H49.4511L48.6403 11.1352H44.6231L45.4339 15.6813H39.6531V19.3505H49.3753C48.9164 21.0422 47.8586 22.9808 46.4139 24.6374L43.4583 21.641L40.7458 24.3905L49.3014 33.0958L52.0236 30.3463ZM13.6111 29.8524V13.0758H18.5753V15.4383H18.6453C19.2531 14.5868 20.0576 13.8947 20.9902 13.4208C21.9228 12.9468 22.9561 12.7051 24.0022 12.716C27.9144 12.716 29.8181 15.3935 29.8181 18.8838V29.8447H24.6731V20.6105C24.6731 18.9188 24.0742 17.3049 21.8886 17.3049C19.6681 17.3049 18.7522 18.8916 18.7522 20.8302V29.8524H13.6111ZM10.3678 29.8524H5.21694V13.0758H10.3619L10.3678 29.8524ZM65.1 20.7252V14.8744H61.0167V22.8738C61.0167 26.5683 58.8661 28.2677 55.2708 28.2677H53.6842V32.003H54.7419C59.535 32.003 62.2144 30.4183 63.6242 27.9858L70.3558 32.3199L72.5725 28.9716L64.96 24.1785C65.065 23.4377 65.1 22.6638 65.1 20.7252ZM81.6278 19.9144V16.2472H87.4786V19.9144H81.6278ZM97.4186 19.9144H91.5717V16.2472H97.4167L97.4186 19.9144Z" fill="#0A66C1"/>
<path d="M126.259 15.2697V8.4855V4.69772H135.963V15.2697H128.868L127.915 17.4124H138.299V2.55688H123.96V17.4124H126.259V15.2697Z" fill="#0A66C1"/>
<path d="M132.778 19.0477L138.653 31.7138H141.192L135.318 19.0477H132.778Z" fill="#0A66C1"/>
<path d="M122.586 23.4986L120.147 24.0275V5.08667H122.366V2.98083H108.21V5.08667H110.25V26.2383L108.14 26.6972V28.8536L117.851 26.7342V32.1028H120.147V26.2169L122.586 25.6881V23.4986ZM117.849 24.5447L112.51 25.7114V19.4892H117.849V24.5447ZM117.849 17.4242H112.51V12.3686H117.849V17.4242ZM117.849 10.29H112.51V5.08667H117.849V10.29Z" fill="#0A66C1"/>
<path d="M121.547 31.7138H124.118L129.762 19.0477H127.192L121.547 31.7138Z" fill="#0A66C1"/>
<path d="M159.911 12.8333L172.744 5.10023V3.47467H156.121V5.5805H167.763L155.513 12.9694V14.9391H161.274C161.029 16.3044 160.594 17.6285 159.981 18.8727C159.382 20.0564 158.632 21.1576 157.751 22.1491C156.833 23.1634 155.829 24.0964 154.75 24.9375L154.505 25.1319L156.061 26.8819L156.279 26.7049C157.454 25.7538 158.554 24.7137 159.569 23.5938C160.595 22.4496 161.455 21.1666 162.124 19.7827C162.849 18.2423 163.363 16.6111 163.652 14.9333H166.833C166.25 18.5461 165.14 21.6611 163.545 24.1947C161.904 26.8041 159.499 29.1258 156.397 31.0955L156.115 31.2763L157.626 33.073L157.844 32.9311C159.935 31.5951 161.838 29.9865 163.504 28.1477C165.061 26.3892 166.319 24.3878 167.23 22.223C168.184 19.8852 168.837 17.4357 169.174 14.9333H171.694L171.5 26.8994C171.5 27.7997 171.403 28.4997 171.212 28.9799C171.136 29.1883 171.015 29.3777 170.859 29.5351C170.703 29.6925 170.514 29.8143 170.306 29.8919C169.834 30.0863 169.139 30.1719 168.229 30.1719C167.755 30.1647 167.281 30.1303 166.81 30.0688C166.335 30.0182 165.865 29.9271 165.406 29.7966L165.017 29.6819V32.0152L165.247 32.0677C165.775 32.1789 166.31 32.2575 166.849 32.303C167.496 32.3633 167.982 32.3925 168.332 32.3925C169.624 32.3925 170.666 32.2291 171.444 31.9102C172.236 31.5895 172.871 30.972 173.215 30.1894C173.571 29.4116 173.763 28.348 173.798 27.018L174.067 12.8333H159.911Z" fill="#0A66C1"/>
<path d="M149.582 1.92108H147.284V10.3969H142.847V12.5027H147.284V25.1183L142.847 26.248V28.4025L153.837 25.7541V23.4869L149.582 24.5466V12.5027H153.874V10.3969H149.582V1.92108Z" fill="#0A66C1"/>
</g>
<defs>
<clipPath id="clip0_2233_15026">
<rect width="174.067" height="35" fill="white"/>
</clipPath>
</defs>
</svg>
